<?xml version="1.0" encoding="utf-8" standalone="no"?>
<!DOCTYPE svg PUBLIC "-//W3C//DTD SVG 1.1//EN"
  "http://www.w3.org/Graphics/SVG/1.1/DTD/svg11.dtd">
<svg xmlns:xlink="http://www.w3.org/1999/xlink" width="714.560938pt" height="406.19625pt" viewBox="0 0 714.560938 406.19625" xmlns="http://www.w3.org/2000/svg" version="1.1">
 <metadata>
  <rdf:RDF xmlns:dc="http://purl.org/dc/elements/1.1/" xmlns:cc="http://creativecommons.org/ns#" xmlns:rdf="http://www.w3.org/1999/02/22-rdf-syntax-ns#">
   <cc:Work>
    <dc:type rdf:resource="http://purl.org/dc/dcmitype/StillImage"/>
    <dc:date>2025-06-17T06:23:58.472681</dc:date>
    <dc:format>image/svg+xml</dc:format>
    <dc:creator>
     <cc:Agent>
      <dc:title>Matplotlib v3.10.3, https://matplotlib.org/</dc:title>
     </cc:Agent>
    </dc:creator>
   </cc:Work>
  </rdf:RDF>
 </metadata>
 <defs>
  <style type="text/css">*{stroke-linejoin: round; stroke-linecap: butt}</style>
 </defs>
 <g id="figure_1">
  <g id="patch_1">
   <path d="M 0 406.19625 
L 714.560938 406.19625 
L 714.560938 0 
L 0 0 
z
" style="fill: #ffffff"/>
  </g>
  <g id="axes_1">
   <g id="patch_2">
    <path d="M 44.960938 375.84 
L 714.560938 375.84 
L 714.560938 43.2 
L 44.960938 43.2 
z
" style="fill: #ffffff"/>
   </g>
   <g id="patch_3">
    <path d="M 75.397301 299.997108 
L 79.957056 299.997108 
L 79.957056 312.141687 
L 75.397301 312.141687 
z
" clip-path="url(#pc3d7258a20)" style="fill: #1f77b4"/>
   </g>
   <g id="patch_4">
    <path d="M 81.096995 299.997108 
L 85.65675 299.997108 
L 85.65675 323.071807 
L 81.096995 323.071807 
z
" clip-path="url(#pc3d7258a20)" style="fill: #1f77b4"/>
   </g>
   <g id="patch_5">
    <path d="M 86.796688 299.997108 
L 91.356443 299.997108 
L 91.356443 315.78506 
L 86.796688 315.78506 
z
" clip-path="url(#pc3d7258a20)" style="fill: #1f77b4"/>
   </g>
   <g id="patch_6">
    <path d="M 92.496382 299.997108 
L 97.056137 299.997108 
L 97.056137 315.78506 
L 92.496382 315.78506 
z
" clip-path="url(#pc3d7258a20)" style="fill: #1f77b4"/>
   </g>
   <g id="patch_7">
    <path d="M 98.196075 299.997108 
L 102.75583 299.997108 
L 102.75583 309.712771 
L 98.196075 309.712771 
z
" clip-path="url(#pc3d7258a20)" style="fill: #1f77b4"/>
   </g>
   <g id="patch_8">
    <path d="M 103.895769 299.997108 
L 108.455524 299.997108 
L 108.455524 304.85494 
L 103.895769 304.85494 
z
" clip-path="url(#pc3d7258a20)" style="fill: #1f77b4"/>
   </g>
   <g id="patch_9">
    <path d="M 109.595463 299.997108 
L 114.155217 299.997108 
L 114.155217 310.927229 
L 109.595463 310.927229 
z
" clip-path="url(#pc3d7258a20)" style="fill: #1f77b4"/>
   </g>
   <g id="patch_10">
    <path d="M 115.295156 299.997108 
L 119.854911 299.997108 
L 119.854911 314.570602 
L 115.295156 314.570602 
z
" clip-path="url(#pc3d7258a20)" style="fill: #1f77b4"/>
   </g>
   <g id="patch_11">
    <path d="M 120.99485 299.997108 
L 125.554605 299.997108 
L 125.554605 308.498313 
L 120.99485 308.498313 
z
" clip-path="url(#pc3d7258a20)" style="fill: #1f77b4"/>
   </g>
   <g id="patch_12">
    <path d="M 126.694543 299.997108 
L 131.254298 299.997108 
L 131.254298 303.640482 
L 126.694543 303.640482 
z
" clip-path="url(#pc3d7258a20)" style="fill: #1f77b4"/>
   </g>
   <g id="patch_13">
    <path d="M 132.394237 299.997108 
L 136.953992 299.997108 
L 136.953992 302.426024 
L 132.394237 302.426024 
z
" clip-path="url(#pc3d7258a20)" style="fill: #1f77b4"/>
   </g>
   <g id="patch_14">
    <path d="M 138.09393 299.997108 
L 142.653685 299.997108 
L 142.653685 302.426024 
L 138.09393 302.426024 
z
" clip-path="url(#pc3d7258a20)" style="fill: #1f77b4"/>
   </g>
   <g id="patch_15">
    <path d="M 143.793624 299.997108 
L 148.353379 299.997108 
L 148.353379 307.283855 
L 143.793624 307.283855 
z
" clip-path="url(#pc3d7258a20)" style="fill: #1f77b4"/>
   </g>
   <g id="patch_16">
    <path d="M 149.493317 299.997108 
L 154.053072 299.997108 
L 154.053072 308.498313 
L 149.493317 308.498313 
z
" clip-path="url(#pc3d7258a20)" style="fill: #1f77b4"/>
   </g>
   <g id="patch_17">
    <path d="M 155.193011 299.997108 
L 159.752766 299.997108 
L 159.752766 309.712771 
L 155.193011 309.712771 
z
" clip-path="url(#pc3d7258a20)" style="fill: #1f77b4"/>
   </g>
   <g id="patch_18">
    <path d="M 160.892705 299.997108 
L 165.452459 299.997108 
L 165.452459 314.570602 
L 160.892705 314.570602 
z
" clip-path="url(#pc3d7258a20)" style="fill: #1f77b4"/>
   </g>
   <g id="patch_19">
    <path d="M 166.592398 299.997108 
L 171.152153 299.997108 
L 171.152153 315.78506 
L 166.592398 315.78506 
z
" clip-path="url(#pc3d7258a20)" style="fill: #1f77b4"/>
   </g>
   <g id="patch_20">
    <path d="M 172.292092 299.997108 
L 176.851847 299.997108 
L 176.851847 318.213976 
L 172.292092 318.213976 
z
" clip-path="url(#pc3d7258a20)" style="fill: #1f77b4"/>
   </g>
   <g id="patch_21">
    <path d="M 177.991785 299.997108 
L 182.55154 299.997108 
L 182.55154 301.211566 
L 177.991785 301.211566 
z
" clip-path="url(#pc3d7258a20)" style="fill: #1f77b4"/>
   </g>
   <g id="patch_22">
    <path d="M 183.691479 299.997108 
L 188.251234 299.997108 
L 188.251234 292.710361 
L 183.691479 292.710361 
z
" clip-path="url(#pc3d7258a20)" style="fill: #1f77b4"/>
   </g>
   <g id="patch_23">
    <path d="M 189.391172 299.997108 
L 193.950927 299.997108 
L 193.950927 285.423614 
L 189.391172 285.423614 
z
" clip-path="url(#pc3d7258a20)" style="fill: #1f77b4"/>
   </g>
   <g id="patch_24">
    <path d="M 195.090866 299.997108 
L 199.650621 299.997108 
L 199.650621 295.139277 
L 195.090866 295.139277 
z
" clip-path="url(#pc3d7258a20)" style="fill: #1f77b4"/>
   </g>
   <g id="patch_25">
    <path d="M 200.79056 299.997108 
L 205.350314 299.997108 
L 205.350314 299.997108 
L 200.79056 299.997108 
z
" clip-path="url(#pc3d7258a20)" style="fill: #1f77b4"/>
   </g>
   <g id="patch_26">
    <path d="M 206.490253 299.997108 
L 211.050008 299.997108 
L 211.050008 299.997108 
L 206.490253 299.997108 
z
" clip-path="url(#pc3d7258a20)" style="fill: #1f77b4"/>
   </g>
   <g id="patch_27">
    <path d="M 212.189947 299.997108 
L 216.749702 299.997108 
L 216.749702 306.069398 
L 212.189947 306.069398 
z
" clip-path="url(#pc3d7258a20)" style="fill: #1f77b4"/>
   </g>
   <g id="patch_28">
    <path d="M 217.88964 299.997108 
L 222.449395 299.997108 
L 222.449395 312.141687 
L 217.88964 312.141687 
z
" clip-path="url(#pc3d7258a20)" style="fill: #1f77b4"/>
   </g>
   <g id="patch_29">
    <path d="M 223.589334 299.997108 
L 228.149089 299.997108 
L 228.149089 302.426024 
L 223.589334 302.426024 
z
" clip-path="url(#pc3d7258a20)" style="fill: #1f77b4"/>
   </g>
   <g id="patch_30">
    <path d="M 229.289027 299.997108 
L 233.848782 299.997108 
L 233.848782 307.283855 
L 229.289027 307.283855 
z
" clip-path="url(#pc3d7258a20)" style="fill: #1f77b4"/>
   </g>
   <g id="patch_31">
    <path d="M 234.988721 299.997108 
L 239.548476 299.997108 
L 239.548476 319.428434 
L 234.988721 319.428434 
z
" clip-path="url(#pc3d7258a20)" style="fill: #1f77b4"/>
   </g>
   <g id="patch_32">
    <path d="M 240.688415 299.997108 
L 245.248169 299.997108 
L 245.248169 312.141687 
L 240.688415 312.141687 
z
" clip-path="url(#pc3d7258a20)" style="fill: #1f77b4"/>
   </g>
   <g id="patch_33">
    <path d="M 246.388108 299.997108 
L 250.947863 299.997108 
L 250.947863 309.712771 
L 246.388108 309.712771 
z
" clip-path="url(#pc3d7258a20)" style="fill: #1f77b4"/>
   </g>
   <g id="patch_34">
    <path d="M 252.087802 299.997108 
L 256.647556 299.997108 
L 256.647556 326.715181 
L 252.087802 326.715181 
z
" clip-path="url(#pc3d7258a20)" style="fill: #1f77b4"/>
   </g>
   <g id="patch_35">
    <path d="M 257.787495 299.997108 
L 262.34725 299.997108 
L 262.34725 299.997108 
L 257.787495 299.997108 
z
" clip-path="url(#pc3d7258a20)" style="fill: #1f77b4"/>
   </g>
   <g id="patch_36">
    <path d="M 263.487189 299.997108 
L 268.046944 299.997108 
L 268.046944 290.281446 
L 263.487189 290.281446 
z
" clip-path="url(#pc3d7258a20)" style="fill: #1f77b4"/>
   </g>
   <g id="patch_37">
    <path d="M 269.186882 299.997108 
L 273.746637 299.997108 
L 273.746637 298.782651 
L 269.186882 298.782651 
z
" clip-path="url(#pc3d7258a20)" style="fill: #1f77b4"/>
   </g>
   <g id="patch_38">
    <path d="M 274.886576 299.997108 
L 279.446331 299.997108 
L 279.446331 320.642892 
L 274.886576 320.642892 
z
" clip-path="url(#pc3d7258a20)" style="fill: #1f77b4"/>
   </g>
   <g id="patch_39">
    <path d="M 280.586269 299.997108 
L 285.146024 299.997108 
L 285.146024 310.927229 
L 280.586269 310.927229 
z
" clip-path="url(#pc3d7258a20)" style="fill: #1f77b4"/>
   </g>
   <g id="patch_40">
    <path d="M 286.285963 299.997108 
L 290.845718 299.997108 
L 290.845718 308.498313 
L 286.285963 308.498313 
z
" clip-path="url(#pc3d7258a20)" style="fill: #1f77b4"/>
   </g>
   <g id="patch_41">
    <path d="M 291.985657 299.997108 
L 296.545411 299.997108 
L 296.545411 303.640482 
L 291.985657 303.640482 
z
" clip-path="url(#pc3d7258a20)" style="fill: #1f77b4"/>
   </g>
   <g id="patch_42">
    <path d="M 297.68535 299.997108 
L 302.245105 299.997108 
L 302.245105 304.85494 
L 297.68535 304.85494 
z
" clip-path="url(#pc3d7258a20)" style="fill: #1f77b4"/>
   </g>
   <g id="patch_43">
    <path d="M 303.385044 299.997108 
L 307.944799 299.997108 
L 307.944799 276.92241 
L 303.385044 276.92241 
z
" clip-path="url(#pc3d7258a20)" style="fill: #1f77b4"/>
   </g>
   <g id="patch_44">
    <path d="M 309.084737 299.997108 
L 313.644492 299.997108 
L 313.644492 229.558554 
L 309.084737 229.558554 
z
" clip-path="url(#pc3d7258a20)" style="fill: #1f77b4"/>
   </g>
   <g id="patch_45">
    <path d="M 314.784431 299.997108 
L 319.344186 299.997108 
L 319.344186 252.633253 
L 314.784431 252.633253 
z
" clip-path="url(#pc3d7258a20)" style="fill: #1f77b4"/>
   </g>
   <g id="patch_46">
    <path d="M 320.484124 299.997108 
L 325.043879 299.997108 
L 325.043879 236.845301 
L 320.484124 236.845301 
z
" clip-path="url(#pc3d7258a20)" style="fill: #1f77b4"/>
   </g>
   <g id="patch_47">
    <path d="M 326.183818 299.997108 
L 330.743573 299.997108 
L 330.743573 206.483855 
L 326.183818 206.483855 
z
" clip-path="url(#pc3d7258a20)" style="fill: #1f77b4"/>
   </g>
   <g id="patch_48">
    <path d="M 331.883512 299.997108 
L 336.443266 299.997108 
L 336.443266 199.197108 
L 331.883512 199.197108 
z
" clip-path="url(#pc3d7258a20)" style="fill: #1f77b4"/>
   </g>
   <g id="patch_49">
    <path d="M 337.583205 299.997108 
L 342.14296 299.997108 
L 342.14296 276.92241 
L 337.583205 276.92241 
z
" clip-path="url(#pc3d7258a20)" style="fill: #1f77b4"/>
   </g>
   <g id="patch_50">
    <path d="M 343.282899 299.997108 
L 347.842654 299.997108 
L 347.842654 336.430843 
L 343.282899 336.430843 
z
" clip-path="url(#pc3d7258a20)" style="fill: #1f77b4"/>
   </g>
   <g id="patch_51">
    <path d="M 348.982592 299.997108 
L 353.542347 299.997108 
L 353.542347 218.628434 
L 348.982592 218.628434 
z
" clip-path="url(#pc3d7258a20)" style="fill: #1f77b4"/>
   </g>
   <g id="patch_52">
    <path d="M 354.682286 299.997108 
L 359.242041 299.997108 
L 359.242041 180.980241 
L 354.682286 180.980241 
z
" clip-path="url(#pc3d7258a20)" style="fill: #1f77b4"/>
   </g>
   <g id="patch_53">
    <path d="M 360.381979 299.997108 
L 364.941734 299.997108 
L 364.941734 262.348916 
L 360.381979 262.348916 
z
" clip-path="url(#pc3d7258a20)" style="fill: #1f77b4"/>
   </g>
   <g id="patch_54">
    <path d="M 366.081673 299.997108 
L 370.641428 299.997108 
L 370.641428 251.418795 
L 366.081673 251.418795 
z
" clip-path="url(#pc3d7258a20)" style="fill: #1f77b4"/>
   </g>
   <g id="patch_55">
    <path d="M 371.781367 299.997108 
L 376.341121 299.997108 
L 376.341121 157.905542 
L 371.781367 157.905542 
z
" clip-path="url(#pc3d7258a20)" style="fill: #1f77b4"/>
   </g>
   <g id="patch_56">
    <path d="M 377.48106 299.997108 
L 382.040815 299.997108 
L 382.040815 348.575422 
L 377.48106 348.575422 
z
" clip-path="url(#pc3d7258a20)" style="fill: #1f77b4"/>
   </g>
   <g id="patch_57">
    <path d="M 383.180754 299.997108 
L 387.740508 299.997108 
L 387.740508 320.642892 
L 383.180754 320.642892 
z
" clip-path="url(#pc3d7258a20)" style="fill: #1f77b4"/>
   </g>
   <g id="patch_58">
    <path d="M 388.880447 299.997108 
L 393.440202 299.997108 
L 393.440202 269.635663 
L 388.880447 269.635663 
z
" clip-path="url(#pc3d7258a20)" style="fill: #1f77b4"/>
   </g>
   <g id="patch_59">
    <path d="M 394.580141 299.997108 
L 399.139896 299.997108 
L 399.139896 137.259759 
L 394.580141 137.259759 
z
" clip-path="url(#pc3d7258a20)" style="fill: #1f77b4"/>
   </g>
   <g id="patch_60">
    <path d="M 400.279834 299.997108 
L 404.839589 299.997108 
L 404.839589 58.32 
L 400.279834 58.32 
z
" clip-path="url(#pc3d7258a20)" style="fill: #1f77b4"/>
   </g>
   <g id="patch_61">
    <path d="M 405.979528 299.997108 
L 410.539283 299.997108 
L 410.539283 75.32241 
L 405.979528 75.32241 
z
" clip-path="url(#pc3d7258a20)" style="fill: #1f77b4"/>
   </g>
   <g id="patch_62">
    <path d="M 411.679221 299.997108 
L 416.238976 299.997108 
L 416.238976 81.394699 
L 411.679221 81.394699 
z
" clip-path="url(#pc3d7258a20)" style="fill: #1f77b4"/>
   </g>
   <g id="patch_63">
    <path d="M 417.378915 299.997108 
L 421.93867 299.997108 
L 421.93867 72.893494 
L 417.378915 72.893494 
z
" clip-path="url(#pc3d7258a20)" style="fill: #1f77b4"/>
   </g>
   <g id="patch_64">
    <path d="M 423.078609 299.997108 
L 427.638363 299.997108 
L 427.638363 95.968193 
L 423.078609 95.968193 
z
" clip-path="url(#pc3d7258a20)" style="fill: #1f77b4"/>
   </g>
   <g id="patch_65">
    <path d="M 428.778302 299.997108 
L 433.338057 299.997108 
L 433.338057 255.062169 
L 428.778302 255.062169 
z
" clip-path="url(#pc3d7258a20)" style="fill: #1f77b4"/>
   </g>
   <g id="patch_66">
    <path d="M 434.477996 299.997108 
L 439.037751 299.997108 
L 439.037751 357.076627 
L 434.477996 357.076627 
z
" clip-path="url(#pc3d7258a20)" style="fill: #1f77b4"/>
   </g>
   <g id="patch_67">
    <path d="M 440.177689 299.997108 
L 444.737444 299.997108 
L 444.737444 335.216386 
L 440.177689 335.216386 
z
" clip-path="url(#pc3d7258a20)" style="fill: #1f77b4"/>
   </g>
   <g id="patch_68">
    <path d="M 445.877383 299.997108 
L 450.437138 299.997108 
L 450.437138 307.283855 
L 445.877383 307.283855 
z
" clip-path="url(#pc3d7258a20)" style="fill: #1f77b4"/>
   </g>
   <g id="patch_69">
    <path d="M 451.577076 299.997108 
L 456.136831 299.997108 
L 456.136831 285.423614 
L 451.577076 285.423614 
z
" clip-path="url(#pc3d7258a20)" style="fill: #1f77b4"/>
   </g>
   <g id="patch_70">
    <path d="M 457.27677 299.997108 
L 461.836525 299.997108 
L 461.836525 313.356145 
L 457.27677 313.356145 
z
" clip-path="url(#pc3d7258a20)" style="fill: #1f77b4"/>
   </g>
   <g id="patch_71">
    <path d="M 462.976464 299.997108 
L 467.536218 299.997108 
L 467.536218 252.633253 
L 462.976464 252.633253 
z
" clip-path="url(#pc3d7258a20)" style="fill: #1f77b4"/>
   </g>
   <g id="patch_72">
    <path d="M 468.676157 299.997108 
L 473.235912 299.997108 
L 473.235912 156.691084 
L 468.676157 156.691084 
z
" clip-path="url(#pc3d7258a20)" style="fill: #1f77b4"/>
   </g>
   <g id="patch_73">
    <path d="M 474.375851 299.997108 
L 478.935606 299.997108 
L 478.935606 148.18988 
L 474.375851 148.18988 
z
" clip-path="url(#pc3d7258a20)" style="fill: #1f77b4"/>
   </g>
   <g id="patch_74">
    <path d="M 480.075544 299.997108 
L 484.635299 299.997108 
L 484.635299 194.339277 
L 480.075544 194.339277 
z
" clip-path="url(#pc3d7258a20)" style="fill: #1f77b4"/>
   </g>
   <g id="patch_75">
    <path d="M 485.775238 299.997108 
L 490.334993 299.997108 
L 490.334993 204.05494 
L 485.775238 204.05494 
z
" clip-path="url(#pc3d7258a20)" style="fill: #1f77b4"/>
   </g>
   <g id="patch_76">
    <path d="M 491.474931 299.997108 
L 496.034686 299.997108 
L 496.034686 183.409157 
L 491.474931 183.409157 
z
" clip-path="url(#pc3d7258a20)" style="fill: #1f77b4"/>
   </g>
   <g id="patch_77">
    <path d="M 497.174625 299.997108 
L 501.73438 299.997108 
L 501.73438 342.503133 
L 497.174625 342.503133 
z
" clip-path="url(#pc3d7258a20)" style="fill: #1f77b4"/>
   </g>
   <g id="patch_78">
    <path d="M 502.874319 299.997108 
L 507.434073 299.997108 
L 507.434073 323.071807 
L 502.874319 323.071807 
z
" clip-path="url(#pc3d7258a20)" style="fill: #1f77b4"/>
   </g>
   <g id="patch_79">
    <path d="M 508.574012 299.997108 
L 513.133767 299.997108 
L 513.133767 306.069398 
L 508.574012 306.069398 
z
" clip-path="url(#pc3d7258a20)" style="fill: #1f77b4"/>
   </g>
   <g id="patch_80">
    <path d="M 514.273706 299.997108 
L 518.83346 299.997108 
L 518.83346 319.428434 
L 514.273706 319.428434 
z
" clip-path="url(#pc3d7258a20)" style="fill: #1f77b4"/>
   </g>
   <g id="patch_81">
    <path d="M 519.973399 299.997108 
L 524.533154 299.997108 
L 524.533154 252.633253 
L 519.973399 252.633253 
z
" clip-path="url(#pc3d7258a20)" style="fill: #1f77b4"/>
   </g>
   <g id="patch_82">
    <path d="M 525.673093 299.997108 
L 530.232848 299.997108 
L 530.232848 228.344096 
L 525.673093 228.344096 
z
" clip-path="url(#pc3d7258a20)" style="fill: #1f77b4"/>
   </g>
   <g id="patch_83">
    <path d="M 531.372786 299.997108 
L 535.932541 299.997108 
L 535.932541 313.356145 
L 531.372786 313.356145 
z
" clip-path="url(#pc3d7258a20)" style="fill: #1f77b4"/>
   </g>
   <g id="patch_84">
    <path d="M 537.07248 299.997108 
L 541.632235 299.997108 
L 541.632235 334.001928 
L 537.07248 334.001928 
z
" clip-path="url(#pc3d7258a20)" style="fill: #1f77b4"/>
   </g>
   <g id="patch_85">
    <path d="M 542.772173 299.997108 
L 547.331928 299.997108 
L 547.331928 337.645301 
L 542.772173 337.645301 
z
" clip-path="url(#pc3d7258a20)" style="fill: #1f77b4"/>
   </g>
   <g id="patch_86">
    <path d="M 548.471867 299.997108 
L 553.031622 299.997108 
L 553.031622 315.78506 
L 548.471867 315.78506 
z
" clip-path="url(#pc3d7258a20)" style="fill: #1f77b4"/>
   </g>
   <g id="patch_87">
    <path d="M 554.171561 299.997108 
L 558.731315 299.997108 
L 558.731315 272.064578 
L 554.171561 272.064578 
z
" clip-path="url(#pc3d7258a20)" style="fill: #1f77b4"/>
   </g>
   <g id="patch_88">
    <path d="M 559.871254 299.997108 
L 564.431009 299.997108 
L 564.431009 326.715181 
L 559.871254 326.715181 
z
" clip-path="url(#pc3d7258a20)" style="fill: #1f77b4"/>
   </g>
   <g id="patch_89">
    <path d="M 565.570948 299.997108 
L 570.130703 299.997108 
L 570.130703 325.500723 
L 565.570948 325.500723 
z
" clip-path="url(#pc3d7258a20)" style="fill: #1f77b4"/>
   </g>
   <g id="patch_90">
    <path d="M 571.270641 299.997108 
L 575.830396 299.997108 
L 575.830396 298.782651 
L 571.270641 298.782651 
z
" clip-path="url(#pc3d7258a20)" style="fill: #1f77b4"/>
   </g>
   <g id="patch_91">
    <path d="M 576.970335 299.997108 
L 581.53009 299.997108 
L 581.53009 338.859759 
L 576.970335 338.859759 
z
" clip-path="url(#pc3d7258a20)" style="fill: #1f77b4"/>
   </g>
   <g id="patch_92">
    <path d="M 582.670028 299.997108 
L 587.229783 299.997108 
L 587.229783 228.344096 
L 582.670028 228.344096 
z
" clip-path="url(#pc3d7258a20)" style="fill: #1f77b4"/>
   </g>
   <g id="patch_93">
    <path d="M 588.369722 299.997108 
L 592.929477 299.997108 
L 592.929477 201.626024 
L 588.369722 201.626024 
z
" clip-path="url(#pc3d7258a20)" style="fill: #1f77b4"/>
   </g>
   <g id="patch_94">
    <path d="M 594.069416 299.997108 
L 598.62917 299.997108 
L 598.62917 263.563373 
L 594.069416 263.563373 
z
" clip-path="url(#pc3d7258a20)" style="fill: #1f77b4"/>
   </g>
   <g id="patch_95">
    <path d="M 599.769109 299.997108 
L 604.328864 299.997108 
L 604.328864 336.430843 
L 599.769109 336.430843 
z
" clip-path="url(#pc3d7258a20)" style="fill: #1f77b4"/>
   </g>
   <g id="patch_96">
    <path d="M 605.468803 299.997108 
L 610.028558 299.997108 
L 610.028558 289.066988 
L 605.468803 289.066988 
z
" clip-path="url(#pc3d7258a20)" style="fill: #1f77b4"/>
   </g>
   <g id="patch_97">
    <path d="M 611.168496 299.997108 
L 615.728251 299.997108 
L 615.728251 272.064578 
L 611.168496 272.064578 
z
" clip-path="url(#pc3d7258a20)" style="fill: #1f77b4"/>
   </g>
   <g id="patch_98">
    <path d="M 616.86819 299.997108 
L 621.427945 299.997108 
L 621.427945 353.433253 
L 616.86819 353.433253 
z
" clip-path="url(#pc3d7258a20)" style="fill: #1f77b4"/>
   </g>
   <g id="patch_99">
    <path d="M 622.567883 299.997108 
L 627.127638 299.997108 
L 627.127638 329.144096 
L 622.567883 329.144096 
z
" clip-path="url(#pc3d7258a20)" style="fill: #1f77b4"/>
   </g>
   <g id="patch_100">
    <path d="M 628.267577 299.997108 
L 632.827332 299.997108 
L 632.827332 326.715181 
L 628.267577 326.715181 
z
" clip-path="url(#pc3d7258a20)" style="fill: #1f77b4"/>
   </g>
   <g id="patch_101">
    <path d="M 633.96727 299.997108 
L 638.527025 299.997108 
L 638.527025 355.862169 
L 633.96727 355.862169 
z
" clip-path="url(#pc3d7258a20)" style="fill: #1f77b4"/>
   </g>
   <g id="patch_102">
    <path d="M 639.666964 299.997108 
L 644.226719 299.997108 
L 644.226719 338.859759 
L 639.666964 338.859759 
z
" clip-path="url(#pc3d7258a20)" style="fill: #1f77b4"/>
   </g>
   <g id="patch_103">
    <path d="M 645.366658 299.997108 
L 649.926412 299.997108 
L 649.926412 278.136867 
L 645.366658 278.136867 
z
" clip-path="url(#pc3d7258a20)" style="fill: #1f77b4"/>
   </g>
   <g id="patch_104">
    <path d="M 651.066351 299.997108 
L 655.626106 299.997108 
L 655.626106 281.780241 
L 651.066351 281.780241 
z
" clip-path="url(#pc3d7258a20)" style="fill: #1f77b4"/>
   </g>
   <g id="patch_105">
    <path d="M 656.766045 299.997108 
L 661.3258 299.997108 
L 661.3258 230.773012 
L 656.766045 230.773012 
z
" clip-path="url(#pc3d7258a20)" style="fill: #1f77b4"/>
   </g>
   <g id="patch_106">
    <path d="M 662.465738 299.997108 
L 667.025493 299.997108 
L 667.025493 187.05253 
L 662.465738 187.05253 
z
" clip-path="url(#pc3d7258a20)" style="fill: #1f77b4"/>
   </g>
   <g id="patch_107">
    <path d="M 668.165432 299.997108 
L 672.725187 299.997108 
L 672.725187 148.18988 
L 668.165432 148.18988 
z
" clip-path="url(#pc3d7258a20)" style="fill: #1f77b4"/>
   </g>
   <g id="patch_108">
    <path d="M 673.865125 299.997108 
L 678.42488 299.997108 
L 678.42488 174.907952 
L 673.865125 174.907952 
z
" clip-path="url(#pc3d7258a20)" style="fill: #1f77b4"/>
   </g>
   <g id="patch_109">
    <path d="M 679.564819 299.997108 
L 684.124574 299.997108 
L 684.124574 360.72 
L 679.564819 360.72 
z
" clip-path="url(#pc3d7258a20)" style="fill: #1f77b4"/>
   </g>
   <g id="matplotlib.axis_1">
    <g id="xtick_1">
     <g id="line2d_1">
      <path d="M 71.977485 375.84 
L 71.977485 43.2 
" clip-path="url(#pc3d7258a20)" style="fill: none; stroke: #b0b0b0; stroke-width: 0.8; stroke-linecap: square"/>
     </g>
     <g id="line2d_2">
      <defs>
       <path id="m4cfba736c2" d="M 0 0 
L 0 3.5 
" style="stroke: #000000; stroke-width: 0.8"/>
      </defs>
      <g>
       <use xlink:href="#m4cfba736c2" x="71.977485" y="375.84" style="stroke: #000000; stroke-width: 0.8"/>
      </g>
     </g>
     <g id="text_1">
      <!-- Mär -->
      <g transform="translate(62.543891 390.438438) scale(0.1 -0.1)">
       <defs>
        <path id="DejaVuSans-4d" d="M 628 4666 
L 1569 4666 
L 2759 1491 
L 3956 4666 
L 4897 4666 
L 4897 0 
L 4281 0 
L 4281 4097 
L 3078 897 
L 2444 897 
L 1241 4097 
L 1241 0 
L 628 0 
L 628 4666 
z
" transform="scale(0.015625)"/>
        <path id="DejaVuSans-e4" d="M 2194 1759 
Q 1497 1759 1228 1600 
Q 959 1441 959 1056 
Q 959 750 1161 570 
Q 1363 391 1709 391 
Q 2188 391 2477 730 
Q 2766 1069 2766 1631 
L 2766 1759 
L 2194 1759 
z
M 3341 1997 
L 3341 0 
L 2766 0 
L 2766 531 
Q 2569 213 2275 61 
Q 1981 -91 1556 -91 
Q 1019 -91 701 211 
Q 384 513 384 1019 
Q 384 1609 779 1909 
Q 1175 2209 1959 2209 
L 2766 2209 
L 2766 2266 
Q 2766 2663 2505 2880 
Q 2244 3097 1772 3097 
Q 1472 3097 1187 3025 
Q 903 2953 641 2809 
L 641 3341 
Q 956 3463 1253 3523 
Q 1550 3584 1831 3584 
Q 2591 3584 2966 3190 
Q 3341 2797 3341 1997 
z
M 2150 4850 
L 2784 4850 
L 2784 4219 
L 2150 4219 
L 2150 4850 
z
M 928 4850 
L 1562 4850 
L 1562 4219 
L 928 4219 
L 928 4850 
z
" transform="scale(0.015625)"/>
        <path id="DejaVuSans-72" d="M 2631 2963 
Q 2534 3019 2420 3045 
Q 2306 3072 2169 3072 
Q 1681 3072 1420 2755 
Q 1159 2438 1159 1844 
L 1159 0 
L 581 0 
L 581 3500 
L 1159 3500 
L 1159 2956 
Q 1341 3275 1631 3429 
Q 1922 3584 2338 3584 
Q 2397 3584 2469 3576 
Q 2541 3569 2628 3553 
L 2631 2963 
z
" transform="scale(0.015625)"/>
       </defs>
       <use xlink:href="#DejaVuSans-4d"/>
       <use xlink:href="#DejaVuSans-e4" transform="translate(86.279297 0)"/>
       <use xlink:href="#DejaVuSans-72" transform="translate(147.558594 0)"/>
      </g>
     </g>
    </g>
    <g id="xtick_2">
     <g id="line2d_3">
      <path d="M 151.773195 375.84 
L 151.773195 43.2 
" clip-path="url(#pc3d7258a20)" style="fill: none; stroke: #b0b0b0; stroke-width: 0.8; stroke-linecap: square"/>
     </g>
     <g id="line2d_4">
      <g>
       <use xlink:href="#m4cfba736c2" x="151.773195" y="375.84" style="stroke: #000000; stroke-width: 0.8"/>
      </g>
     </g>
     <g id="text_2">
      <!-- 15 -->
      <g transform="translate(145.410695 390.438438) scale(0.1 -0.1)">
       <defs>
        <path id="DejaVuSans-31" d="M 794 531 
L 1825 531 
L 1825 4091 
L 703 3866 
L 703 4441 
L 1819 4666 
L 2450 4666 
L 2450 531 
L 3481 531 
L 3481 0 
L 794 0 
L 794 531 
z
" transform="scale(0.015625)"/>
        <path id="DejaVuSans-35" d="M 691 4666 
L 3169 4666 
L 3169 4134 
L 1269 4134 
L 1269 2991 
Q 1406 3038 1543 3061 
Q 1681 3084 1819 3084 
Q 2600 3084 3056 2656 
Q 3513 2228 3513 1497 
Q 3513 744 3044 326 
Q 2575 -91 1722 -91 
Q 1428 -91 1123 -41 
Q 819 9 494 109 
L 494 744 
Q 775 591 1075 516 
Q 1375 441 1709 441 
Q 2250 441 2565 725 
Q 2881 1009 2881 1497 
Q 2881 1984 2565 2268 
Q 2250 2553 1709 2553 
Q 1456 2553 1204 2497 
Q 953 2441 691 2322 
L 691 4666 
z
" transform="scale(0.015625)"/>
       </defs>
       <use xlink:href="#DejaVuSans-31"/>
       <use xlink:href="#DejaVuSans-35" transform="translate(63.623047 0)"/>
      </g>
     </g>
    </g>
    <g id="xtick_3">
     <g id="line2d_5">
      <path d="M 248.667986 375.84 
L 248.667986 43.2 
" clip-path="url(#pc3d7258a20)" style="fill: none; stroke: #b0b0b0; stroke-width: 0.8; stroke-linecap: square"/>
     </g>
     <g id="line2d_6">
      <g>
       <use xlink:href="#m4cfba736c2" x="248.667986" y="375.84" style="stroke: #000000; stroke-width: 0.8"/>
      </g>
     </g>
     <g id="text_3">
      <!-- Apr -->
      <g transform="translate(240.017986 390.438438) scale(0.1 -0.1)">
       <defs>
        <path id="DejaVuSans-41" d="M 2188 4044 
L 1331 1722 
L 3047 1722 
L 2188 4044 
z
M 1831 4666 
L 2547 4666 
L 4325 0 
L 3669 0 
L 3244 1197 
L 1141 1197 
L 716 0 
L 50 0 
L 1831 4666 
z
" transform="scale(0.015625)"/>
        <path id="DejaVuSans-70" d="M 1159 525 
L 1159 -1331 
L 581 -1331 
L 581 3500 
L 1159 3500 
L 1159 2969 
Q 1341 3281 1617 3432 
Q 1894 3584 2278 3584 
Q 2916 3584 3314 3078 
Q 3713 2572 3713 1747 
Q 3713 922 3314 415 
Q 2916 -91 2278 -91 
Q 1894 -91 1617 61 
Q 1341 213 1159 525 
z
M 3116 1747 
Q 3116 2381 2855 2742 
Q 2594 3103 2138 3103 
Q 1681 3103 1420 2742 
Q 1159 2381 1159 1747 
Q 1159 1113 1420 752 
Q 1681 391 2138 391 
Q 2594 391 2855 752 
Q 3116 1113 3116 1747 
z
" transform="scale(0.015625)"/>
       </defs>
       <use xlink:href="#DejaVuSans-41"/>
       <use xlink:href="#DejaVuSans-70" transform="translate(68.408203 0)"/>
       <use xlink:href="#DejaVuSans-72" transform="translate(131.884766 0)"/>
      </g>
     </g>
    </g>
    <g id="xtick_4">
     <g id="line2d_7">
      <path d="M 328.463695 375.84 
L 328.463695 43.2 
" clip-path="url(#pc3d7258a20)" style="fill: none; stroke: #b0b0b0; stroke-width: 0.8; stroke-linecap: square"/>
     </g>
     <g id="line2d_8">
      <g>
       <use xlink:href="#m4cfba736c2" x="328.463695" y="375.84" style="stroke: #000000; stroke-width: 0.8"/>
      </g>
     </g>
     <g id="text_4">
      <!-- 15 -->
      <g transform="translate(322.101195 390.438438) scale(0.1 -0.1)">
       <use xlink:href="#DejaVuSans-31"/>
       <use xlink:href="#DejaVuSans-35" transform="translate(63.623047 0)"/>
      </g>
     </g>
    </g>
    <g id="xtick_5">
     <g id="line2d_9">
      <path d="M 419.658792 375.84 
L 419.658792 43.2 
" clip-path="url(#pc3d7258a20)" style="fill: none; stroke: #b0b0b0; stroke-width: 0.8; stroke-linecap: square"/>
     </g>
     <g id="line2d_10">
      <g>
       <use xlink:href="#m4cfba736c2" x="419.658792" y="375.84" style="stroke: #000000; stroke-width: 0.8"/>
      </g>
     </g>
     <g id="text_5">
      <!-- Mai -->
      <g transform="translate(410.891605 390.438438) scale(0.1 -0.1)">
       <defs>
        <path id="DejaVuSans-61" d="M 2194 1759 
Q 1497 1759 1228 1600 
Q 959 1441 959 1056 
Q 959 750 1161 570 
Q 1363 391 1709 391 
Q 2188 391 2477 730 
Q 2766 1069 2766 1631 
L 2766 1759 
L 2194 1759 
z
M 3341 1997 
L 3341 0 
L 2766 0 
L 2766 531 
Q 2569 213 2275 61 
Q 1981 -91 1556 -91 
Q 1019 -91 701 211 
Q 384 513 384 1019 
Q 384 1609 779 1909 
Q 1175 2209 1959 2209 
L 2766 2209 
L 2766 2266 
Q 2766 2663 2505 2880 
Q 2244 3097 1772 3097 
Q 1472 3097 1187 3025 
Q 903 2953 641 2809 
L 641 3341 
Q 956 3463 1253 3523 
Q 1550 3584 1831 3584 
Q 2591 3584 2966 3190 
Q 3341 2797 3341 1997 
z
" transform="scale(0.015625)"/>
        <path id="DejaVuSans-69" d="M 603 3500 
L 1178 3500 
L 1178 0 
L 603 0 
L 603 3500 
z
M 603 4863 
L 1178 4863 
L 1178 4134 
L 603 4134 
L 603 4863 
z
" transform="scale(0.015625)"/>
       </defs>
       <use xlink:href="#DejaVuSans-4d"/>
       <use xlink:href="#DejaVuSans-61" transform="translate(86.279297 0)"/>
       <use xlink:href="#DejaVuSans-69" transform="translate(147.558594 0)"/>
      </g>
     </g>
    </g>
    <g id="xtick_6">
     <g id="line2d_11">
      <path d="M 499.454502 375.84 
L 499.454502 43.2 
" clip-path="url(#pc3d7258a20)" style="fill: none; stroke: #b0b0b0; stroke-width: 0.8; stroke-linecap: square"/>
     </g>
     <g id="line2d_12">
      <g>
       <use xlink:href="#m4cfba736c2" x="499.454502" y="375.84" style="stroke: #000000; stroke-width: 0.8"/>
      </g>
     </g>
     <g id="text_6">
      <!-- 15 -->
      <g transform="translate(493.092002 390.438438) scale(0.1 -0.1)">
       <use xlink:href="#DejaVuSans-31"/>
       <use xlink:href="#DejaVuSans-35" transform="translate(63.623047 0)"/>
      </g>
     </g>
    </g>
    <g id="xtick_7">
     <g id="line2d_13">
      <path d="M 596.349293 375.84 
L 596.349293 43.2 
" clip-path="url(#pc3d7258a20)" style="fill: none; stroke: #b0b0b0; stroke-width: 0.8; stroke-linecap: square"/>
     </g>
     <g id="line2d_14">
      <g>
       <use xlink:href="#m4cfba736c2" x="596.349293" y="375.84" style="stroke: #000000; stroke-width: 0.8"/>
      </g>
     </g>
     <g id="text_7">
      <!-- Jun -->
      <g transform="translate(588.536793 390.438438) scale(0.1 -0.1)">
       <defs>
        <path id="DejaVuSans-4a" d="M 628 4666 
L 1259 4666 
L 1259 325 
Q 1259 -519 939 -900 
Q 619 -1281 -91 -1281 
L -331 -1281 
L -331 -750 
L -134 -750 
Q 284 -750 456 -515 
Q 628 -281 628 325 
L 628 4666 
z
" transform="scale(0.015625)"/>
        <path id="DejaVuSans-75" d="M 544 1381 
L 544 3500 
L 1119 3500 
L 1119 1403 
Q 1119 906 1312 657 
Q 1506 409 1894 409 
Q 2359 409 2629 706 
Q 2900 1003 2900 1516 
L 2900 3500 
L 3475 3500 
L 3475 0 
L 2900 0 
L 2900 538 
Q 2691 219 2414 64 
Q 2138 -91 1772 -91 
Q 1169 -91 856 284 
Q 544 659 544 1381 
z
M 1991 3584 
L 1991 3584 
z
" transform="scale(0.015625)"/>
        <path id="DejaVuSans-6e" d="M 3513 2113 
L 3513 0 
L 2938 0 
L 2938 2094 
Q 2938 2591 2744 2837 
Q 2550 3084 2163 3084 
Q 1697 3084 1428 2787 
Q 1159 2491 1159 1978 
L 1159 0 
L 581 0 
L 581 3500 
L 1159 3500 
L 1159 2956 
Q 1366 3272 1645 3428 
Q 1925 3584 2291 3584 
Q 2894 3584 3203 3211 
Q 3513 2838 3513 2113 
z
" transform="scale(0.015625)"/>
       </defs>
       <use xlink:href="#DejaVuSans-4a"/>
       <use xlink:href="#DejaVuSans-75" transform="translate(29.492188 0)"/>
       <use xlink:href="#DejaVuSans-6e" transform="translate(92.871094 0)"/>
      </g>
     </g>
    </g>
    <g id="xtick_8">
     <g id="line2d_15">
      <path d="M 676.145003 375.84 
L 676.145003 43.2 
" clip-path="url(#pc3d7258a20)" style="fill: none; stroke: #b0b0b0; stroke-width: 0.8; stroke-linecap: square"/>
     </g>
     <g id="line2d_16">
      <g>
       <use xlink:href="#m4cfba736c2" x="676.145003" y="375.84" style="stroke: #000000; stroke-width: 0.8"/>
      </g>
     </g>
     <g id="text_8">
      <!-- 15 -->
      <g transform="translate(669.782503 390.438438) scale(0.1 -0.1)">
       <use xlink:href="#DejaVuSans-31"/>
       <use xlink:href="#DejaVuSans-35" transform="translate(63.623047 0)"/>
      </g>
     </g>
    </g>
    <g id="xtick_9">
     <g id="line2d_17">
      <defs>
       <path id="m67c1c94fbd" d="M 0 0 
L 0 2 
" style="stroke: #000000; stroke-width: 0.6"/>
      </defs>
      <g>
       <use xlink:href="#m67c1c94fbd" x="60.578098" y="375.84" style="stroke: #000000; stroke-width: 0.6"/>
      </g>
     </g>
    </g>
    <g id="xtick_10">
     <g id="line2d_18">
      <g>
       <use xlink:href="#m67c1c94fbd" x="100.475953" y="375.84" style="stroke: #000000; stroke-width: 0.6"/>
      </g>
     </g>
    </g>
    <g id="xtick_11">
     <g id="line2d_19">
      <g>
       <use xlink:href="#m67c1c94fbd" x="140.373808" y="375.84" style="stroke: #000000; stroke-width: 0.6"/>
      </g>
     </g>
    </g>
    <g id="xtick_12">
     <g id="line2d_20">
      <g>
       <use xlink:href="#m67c1c94fbd" x="180.271663" y="375.84" style="stroke: #000000; stroke-width: 0.6"/>
      </g>
     </g>
    </g>
    <g id="xtick_13">
     <g id="line2d_21">
      <g>
       <use xlink:href="#m67c1c94fbd" x="220.169518" y="375.84" style="stroke: #000000; stroke-width: 0.6"/>
      </g>
     </g>
    </g>
    <g id="xtick_14">
     <g id="line2d_22">
      <g>
       <use xlink:href="#m67c1c94fbd" x="260.067373" y="375.84" style="stroke: #000000; stroke-width: 0.6"/>
      </g>
     </g>
    </g>
    <g id="xtick_15">
     <g id="line2d_23">
      <g>
       <use xlink:href="#m67c1c94fbd" x="299.965228" y="375.84" style="stroke: #000000; stroke-width: 0.6"/>
      </g>
     </g>
    </g>
    <g id="xtick_16">
     <g id="line2d_24">
      <g>
       <use xlink:href="#m67c1c94fbd" x="339.863083" y="375.84" style="stroke: #000000; stroke-width: 0.6"/>
      </g>
     </g>
    </g>
    <g id="xtick_17">
     <g id="line2d_25">
      <g>
       <use xlink:href="#m67c1c94fbd" x="379.760938" y="375.84" style="stroke: #000000; stroke-width: 0.6"/>
      </g>
     </g>
    </g>
    <g id="xtick_18">
     <g id="line2d_26">
      <g>
       <use xlink:href="#m67c1c94fbd" x="459.556647" y="375.84" style="stroke: #000000; stroke-width: 0.6"/>
      </g>
     </g>
    </g>
    <g id="xtick_19">
     <g id="line2d_27">
      <g>
       <use xlink:href="#m67c1c94fbd" x="539.352357" y="375.84" style="stroke: #000000; stroke-width: 0.6"/>
      </g>
     </g>
    </g>
    <g id="xtick_20">
     <g id="line2d_28">
      <g>
       <use xlink:href="#m67c1c94fbd" x="579.250212" y="375.84" style="stroke: #000000; stroke-width: 0.6"/>
      </g>
     </g>
    </g>
    <g id="xtick_21">
     <g id="line2d_29">
      <g>
       <use xlink:href="#m67c1c94fbd" x="619.148067" y="375.84" style="stroke: #000000; stroke-width: 0.6"/>
      </g>
     </g>
    </g>
    <g id="xtick_22">
     <g id="line2d_30">
      <g>
       <use xlink:href="#m67c1c94fbd" x="659.045922" y="375.84" style="stroke: #000000; stroke-width: 0.6"/>
      </g>
     </g>
    </g>
    <g id="xtick_23">
     <g id="line2d_31">
      <g>
       <use xlink:href="#m67c1c94fbd" x="698.943777" y="375.84" style="stroke: #000000; stroke-width: 0.6"/>
      </g>
     </g>
    </g>
    <g id="text_9">
     <!-- Monat -->
     <g transform="translate(364.194531 404.116563) scale(0.1 -0.1)">
      <defs>
       <path id="DejaVuSans-6f" d="M 1959 3097 
Q 1497 3097 1228 2736 
Q 959 2375 959 1747 
Q 959 1119 1226 758 
Q 1494 397 1959 397 
Q 2419 397 2687 759 
Q 2956 1122 2956 1747 
Q 2956 2369 2687 2733 
Q 2419 3097 1959 3097 
z
M 1959 3584 
Q 2709 3584 3137 3096 
Q 3566 2609 3566 1747 
Q 3566 888 3137 398 
Q 2709 -91 1959 -91 
Q 1206 -91 779 398 
Q 353 888 353 1747 
Q 353 2609 779 3096 
Q 1206 3584 1959 3584 
z
" transform="scale(0.015625)"/>
       <path id="DejaVuSans-74" d="M 1172 4494 
L 1172 3500 
L 2356 3500 
L 2356 3053 
L 1172 3053 
L 1172 1153 
Q 1172 725 1289 603 
Q 1406 481 1766 481 
L 2356 481 
L 2356 0 
L 1766 0 
Q 1100 0 847 248 
Q 594 497 594 1153 
L 594 3053 
L 172 3053 
L 172 3500 
L 594 3500 
L 594 4494 
L 1172 4494 
z
" transform="scale(0.015625)"/>
      </defs>
      <use xlink:href="#DejaVuSans-4d"/>
      <use xlink:href="#DejaVuSans-6f" transform="translate(86.279297 0)"/>
      <use xlink:href="#DejaVuSans-6e" transform="translate(147.460938 0)"/>
      <use xlink:href="#DejaVuSans-61" transform="translate(210.839844 0)"/>
      <use xlink:href="#DejaVuSans-74" transform="translate(272.119141 0)"/>
     </g>
    </g>
   </g>
   <g id="matplotlib.axis_2">
    <g id="ytick_1">
     <g id="line2d_32">
      <path d="M 44.960938 360.72 
L 714.560938 360.72 
" clip-path="url(#pc3d7258a20)" style="fill: none; stroke: #b0b0b0; stroke-width: 0.8; stroke-linecap: square"/>
     </g>
     <g id="line2d_33">
      <defs>
       <path id="md9c6f4b021" d="M 0 0 
L -3.5 0 
" style="stroke: #000000; stroke-width: 0.8"/>
      </defs>
      <g>
       <use xlink:href="#md9c6f4b021" x="44.960938" y="360.72" style="stroke: #000000; stroke-width: 0.8"/>
      </g>
     </g>
     <g id="text_10">
      <!-- −0.5 -->
      <g transform="translate(13.678125 364.519219) scale(0.1 -0.1)">
       <defs>
        <path id="DejaVuSans-2212" d="M 678 2272 
L 4684 2272 
L 4684 1741 
L 678 1741 
L 678 2272 
z
" transform="scale(0.015625)"/>
        <path id="DejaVuSans-30" d="M 2034 4250 
Q 1547 4250 1301 3770 
Q 1056 3291 1056 2328 
Q 1056 1369 1301 889 
Q 1547 409 2034 409 
Q 2525 409 2770 889 
Q 3016 1369 3016 2328 
Q 3016 3291 2770 3770 
Q 2525 4250 2034 4250 
z
M 2034 4750 
Q 2819 4750 3233 4129 
Q 3647 3509 3647 2328 
Q 3647 1150 3233 529 
Q 2819 -91 2034 -91 
Q 1250 -91 836 529 
Q 422 1150 422 2328 
Q 422 3509 836 4129 
Q 1250 4750 2034 4750 
z
" transform="scale(0.015625)"/>
        <path id="DejaVuSans-2e" d="M 684 794 
L 1344 794 
L 1344 0 
L 684 0 
L 684 794 
z
" transform="scale(0.015625)"/>
       </defs>
       <use xlink:href="#DejaVuSans-2212"/>
       <use xlink:href="#DejaVuSans-30" transform="translate(83.789062 0)"/>
       <use xlink:href="#DejaVuSans-2e" transform="translate(147.412109 0)"/>
       <use xlink:href="#DejaVuSans-35" transform="translate(179.199219 0)"/>
      </g>
     </g>
    </g>
    <g id="ytick_2">
     <g id="line2d_34">
      <path d="M 44.960938 299.997108 
L 714.560938 299.997108 
" clip-path="url(#pc3d7258a20)" style="fill: none; stroke: #b0b0b0; stroke-width: 0.8; stroke-linecap: square"/>
     </g>
     <g id="line2d_35">
      <g>
       <use xlink:href="#md9c6f4b021" x="44.960938" y="299.997108" style="stroke: #000000; stroke-width: 0.8"/>
      </g>
     </g>
     <g id="text_11">
      <!-- 0.0 -->
      <g transform="translate(22.057813 303.796327) scale(0.1 -0.1)">
       <use xlink:href="#DejaVuSans-30"/>
       <use xlink:href="#DejaVuSans-2e" transform="translate(63.623047 0)"/>
       <use xlink:href="#DejaVuSans-30" transform="translate(95.410156 0)"/>
      </g>
     </g>
    </g>
    <g id="ytick_3">
     <g id="line2d_36">
      <path d="M 44.960938 239.274217 
L 714.560938 239.274217 
" clip-path="url(#pc3d7258a20)" style="fill: none; stroke: #b0b0b0; stroke-width: 0.8; stroke-linecap: square"/>
     </g>
     <g id="line2d_37">
      <g>
       <use xlink:href="#md9c6f4b021" x="44.960938" y="239.274217" style="stroke: #000000; stroke-width: 0.8"/>
      </g>
     </g>
     <g id="text_12">
      <!-- 0.5 -->
      <g transform="translate(22.057813 243.073436) scale(0.1 -0.1)">
       <use xlink:href="#DejaVuSans-30"/>
       <use xlink:href="#DejaVuSans-2e" transform="translate(63.623047 0)"/>
       <use xlink:href="#DejaVuSans-35" transform="translate(95.410156 0)"/>
      </g>
     </g>
    </g>
    <g id="ytick_4">
     <g id="line2d_38">
      <path d="M 44.960938 178.551325 
L 714.560938 178.551325 
" clip-path="url(#pc3d7258a20)" style="fill: none; stroke: #b0b0b0; stroke-width: 0.8; stroke-linecap: square"/>
     </g>
     <g id="line2d_39">
      <g>
       <use xlink:href="#md9c6f4b021" x="44.960938" y="178.551325" style="stroke: #000000; stroke-width: 0.8"/>
      </g>
     </g>
     <g id="text_13">
      <!-- 1.0 -->
      <g transform="translate(22.057813 182.350544) scale(0.1 -0.1)">
       <use xlink:href="#DejaVuSans-31"/>
       <use xlink:href="#DejaVuSans-2e" transform="translate(63.623047 0)"/>
       <use xlink:href="#DejaVuSans-30" transform="translate(95.410156 0)"/>
      </g>
     </g>
    </g>
    <g id="ytick_5">
     <g id="line2d_40">
      <path d="M 44.960938 117.828434 
L 714.560938 117.828434 
" clip-path="url(#pc3d7258a20)" style="fill: none; stroke: #b0b0b0; stroke-width: 0.8; stroke-linecap: square"/>
     </g>
     <g id="line2d_41">
      <g>
       <use xlink:href="#md9c6f4b021" x="44.960938" y="117.828434" style="stroke: #000000; stroke-width: 0.8"/>
      </g>
     </g>
     <g id="text_14">
      <!-- 1.5 -->
      <g transform="translate(22.057813 121.627652) scale(0.1 -0.1)">
       <use xlink:href="#DejaVuSans-31"/>
       <use xlink:href="#DejaVuSans-2e" transform="translate(63.623047 0)"/>
       <use xlink:href="#DejaVuSans-35" transform="translate(95.410156 0)"/>
      </g>
     </g>
    </g>
    <g id="ytick_6">
     <g id="line2d_42">
      <path d="M 44.960938 57.105542 
L 714.560938 57.105542 
" clip-path="url(#pc3d7258a20)" style="fill: none; stroke: #b0b0b0; stroke-width: 0.8; stroke-linecap: square"/>
     </g>
     <g id="line2d_43">
      <g>
       <use xlink:href="#md9c6f4b021" x="44.960938" y="57.105542" style="stroke: #000000; stroke-width: 0.8"/>
      </g>
     </g>
     <g id="text_15">
      <!-- 2.0 -->
      <g transform="translate(22.057813 60.904761) scale(0.1 -0.1)">
       <defs>
        <path id="DejaVuSans-32" d="M 1228 531 
L 3431 531 
L 3431 0 
L 469 0 
L 469 531 
Q 828 903 1448 1529 
Q 2069 2156 2228 2338 
Q 2531 2678 2651 2914 
Q 2772 3150 2772 3378 
Q 2772 3750 2511 3984 
Q 2250 4219 1831 4219 
Q 1534 4219 1204 4116 
Q 875 4013 500 3803 
L 500 4441 
Q 881 4594 1212 4672 
Q 1544 4750 1819 4750 
Q 2544 4750 2975 4387 
Q 3406 4025 3406 3419 
Q 3406 3131 3298 2873 
Q 3191 2616 2906 2266 
Q 2828 2175 2409 1742 
Q 1991 1309 1228 531 
z
" transform="scale(0.015625)"/>
       </defs>
       <use xlink:href="#DejaVuSans-32"/>
       <use xlink:href="#DejaVuSans-2e" transform="translate(63.623047 0)"/>
       <use xlink:href="#DejaVuSans-30" transform="translate(95.410156 0)"/>
      </g>
     </g>
    </g>
    <g id="ytick_7">
     <g id="line2d_44">
      <defs>
       <path id="m01e9a53713" d="M 0 0 
L -2 0 
" style="stroke: #000000; stroke-width: 0.6"/>
      </defs>
      <g>
       <use xlink:href="#m01e9a53713" x="44.960938" y="372.864578" style="stroke: #000000; stroke-width: 0.6"/>
      </g>
     </g>
    </g>
    <g id="ytick_8">
     <g id="line2d_45">
      <g>
       <use xlink:href="#m01e9a53713" x="44.960938" y="348.575422" style="stroke: #000000; stroke-width: 0.6"/>
      </g>
     </g>
    </g>
    <g id="ytick_9">
     <g id="line2d_46">
      <g>
       <use xlink:href="#m01e9a53713" x="44.960938" y="336.430843" style="stroke: #000000; stroke-width: 0.6"/>
      </g>
     </g>
    </g>
    <g id="ytick_10">
     <g id="line2d_47">
      <g>
       <use xlink:href="#m01e9a53713" x="44.960938" y="324.286265" style="stroke: #000000; stroke-width: 0.6"/>
      </g>
     </g>
    </g>
    <g id="ytick_11">
     <g id="line2d_48">
      <g>
       <use xlink:href="#m01e9a53713" x="44.960938" y="312.141687" style="stroke: #000000; stroke-width: 0.6"/>
      </g>
     </g>
    </g>
    <g id="ytick_12">
     <g id="line2d_49">
      <g>
       <use xlink:href="#m01e9a53713" x="44.960938" y="287.85253" style="stroke: #000000; stroke-width: 0.6"/>
      </g>
     </g>
    </g>
    <g id="ytick_13">
     <g id="line2d_50">
      <g>
       <use xlink:href="#m01e9a53713" x="44.960938" y="275.707952" style="stroke: #000000; stroke-width: 0.6"/>
      </g>
     </g>
    </g>
    <g id="ytick_14">
     <g id="line2d_51">
      <g>
       <use xlink:href="#m01e9a53713" x="44.960938" y="263.563373" style="stroke: #000000; stroke-width: 0.6"/>
      </g>
     </g>
    </g>
    <g id="ytick_15">
     <g id="line2d_52">
      <g>
       <use xlink:href="#m01e9a53713" x="44.960938" y="251.418795" style="stroke: #000000; stroke-width: 0.6"/>
      </g>
     </g>
    </g>
    <g id="ytick_16">
     <g id="line2d_53">
      <g>
       <use xlink:href="#m01e9a53713" x="44.960938" y="227.129639" style="stroke: #000000; stroke-width: 0.6"/>
      </g>
     </g>
    </g>
    <g id="ytick_17">
     <g id="line2d_54">
      <g>
       <use xlink:href="#m01e9a53713" x="44.960938" y="214.98506" style="stroke: #000000; stroke-width: 0.6"/>
      </g>
     </g>
    </g>
    <g id="ytick_18">
     <g id="line2d_55">
      <g>
       <use xlink:href="#m01e9a53713" x="44.960938" y="202.840482" style="stroke: #000000; stroke-width: 0.6"/>
      </g>
     </g>
    </g>
    <g id="ytick_19">
     <g id="line2d_56">
      <g>
       <use xlink:href="#m01e9a53713" x="44.960938" y="190.695904" style="stroke: #000000; stroke-width: 0.6"/>
      </g>
     </g>
    </g>
    <g id="ytick_20">
     <g id="line2d_57">
      <g>
       <use xlink:href="#m01e9a53713" x="44.960938" y="166.406747" style="stroke: #000000; stroke-width: 0.6"/>
      </g>
     </g>
    </g>
    <g id="ytick_21">
     <g id="line2d_58">
      <g>
       <use xlink:href="#m01e9a53713" x="44.960938" y="154.262169" style="stroke: #000000; stroke-width: 0.6"/>
      </g>
     </g>
    </g>
    <g id="ytick_22">
     <g id="line2d_59">
      <g>
       <use xlink:href="#m01e9a53713" x="44.960938" y="142.11759" style="stroke: #000000; stroke-width: 0.6"/>
      </g>
     </g>
    </g>
    <g id="ytick_23">
     <g id="line2d_60">
      <g>
       <use xlink:href="#m01e9a53713" x="44.960938" y="129.973012" style="stroke: #000000; stroke-width: 0.6"/>
      </g>
     </g>
    </g>
    <g id="ytick_24">
     <g id="line2d_61">
      <g>
       <use xlink:href="#m01e9a53713" x="44.960938" y="105.683855" style="stroke: #000000; stroke-width: 0.6"/>
      </g>
     </g>
    </g>
    <g id="ytick_25">
     <g id="line2d_62">
      <g>
       <use xlink:href="#m01e9a53713" x="44.960938" y="93.539277" style="stroke: #000000; stroke-width: 0.6"/>
      </g>
     </g>
    </g>
    <g id="ytick_26">
     <g id="line2d_63">
      <g>
       <use xlink:href="#m01e9a53713" x="44.960938" y="81.394699" style="stroke: #000000; stroke-width: 0.6"/>
      </g>
     </g>
    </g>
    <g id="ytick_27">
     <g id="line2d_64">
      <g>
       <use xlink:href="#m01e9a53713" x="44.960938" y="69.25012" style="stroke: #000000; stroke-width: 0.6"/>
      </g>
     </g>
    </g>
    <g id="ytick_28">
     <g id="line2d_65">
      <g>
       <use xlink:href="#m01e9a53713" x="44.960938" y="44.960964" style="stroke: #000000; stroke-width: 0.6"/>
      </g>
     </g>
    </g>
    <g id="text_16">
     <!-- Gewichtänderung [kg] -->
     <g transform="translate(7.598438 265.437969) rotate(-90) scale(0.1 -0.1)">
      <defs>
       <path id="DejaVuSans-47" d="M 3809 666 
L 3809 1919 
L 2778 1919 
L 2778 2438 
L 4434 2438 
L 4434 434 
Q 4069 175 3628 42 
Q 3188 -91 2688 -91 
Q 1594 -91 976 548 
Q 359 1188 359 2328 
Q 359 3472 976 4111 
Q 1594 4750 2688 4750 
Q 3144 4750 3555 4637 
Q 3966 4525 4313 4306 
L 4313 3634 
Q 3963 3931 3569 4081 
Q 3175 4231 2741 4231 
Q 1884 4231 1454 3753 
Q 1025 3275 1025 2328 
Q 1025 1384 1454 906 
Q 1884 428 2741 428 
Q 3075 428 3337 486 
Q 3600 544 3809 666 
z
" transform="scale(0.015625)"/>
       <path id="DejaVuSans-65" d="M 3597 1894 
L 3597 1613 
L 953 1613 
Q 991 1019 1311 708 
Q 1631 397 2203 397 
Q 2534 397 2845 478 
Q 3156 559 3463 722 
L 3463 178 
Q 3153 47 2828 -22 
Q 2503 -91 2169 -91 
Q 1331 -91 842 396 
Q 353 884 353 1716 
Q 353 2575 817 3079 
Q 1281 3584 2069 3584 
Q 2775 3584 3186 3129 
Q 3597 2675 3597 1894 
z
M 3022 2063 
Q 3016 2534 2758 2815 
Q 2500 3097 2075 3097 
Q 1594 3097 1305 2825 
Q 1016 2553 972 2059 
L 3022 2063 
z
" transform="scale(0.015625)"/>
       <path id="DejaVuSans-77" d="M 269 3500 
L 844 3500 
L 1563 769 
L 2278 3500 
L 2956 3500 
L 3675 769 
L 4391 3500 
L 4966 3500 
L 4050 0 
L 3372 0 
L 2619 2869 
L 1863 0 
L 1184 0 
L 269 3500 
z
" transform="scale(0.015625)"/>
       <path id="DejaVuSans-63" d="M 3122 3366 
L 3122 2828 
Q 2878 2963 2633 3030 
Q 2388 3097 2138 3097 
Q 1578 3097 1268 2742 
Q 959 2388 959 1747 
Q 959 1106 1268 751 
Q 1578 397 2138 397 
Q 2388 397 2633 464 
Q 2878 531 3122 666 
L 3122 134 
Q 2881 22 2623 -34 
Q 2366 -91 2075 -91 
Q 1284 -91 818 406 
Q 353 903 353 1747 
Q 353 2603 823 3093 
Q 1294 3584 2113 3584 
Q 2378 3584 2631 3529 
Q 2884 3475 3122 3366 
z
" transform="scale(0.015625)"/>
       <path id="DejaVuSans-68" d="M 3513 2113 
L 3513 0 
L 2938 0 
L 2938 2094 
Q 2938 2591 2744 2837 
Q 2550 3084 2163 3084 
Q 1697 3084 1428 2787 
Q 1159 2491 1159 1978 
L 1159 0 
L 581 0 
L 581 4863 
L 1159 4863 
L 1159 2956 
Q 1366 3272 1645 3428 
Q 1925 3584 2291 3584 
Q 2894 3584 3203 3211 
Q 3513 2838 3513 2113 
z
" transform="scale(0.015625)"/>
       <path id="DejaVuSans-64" d="M 2906 2969 
L 2906 4863 
L 3481 4863 
L 3481 0 
L 2906 0 
L 2906 525 
Q 2725 213 2448 61 
Q 2172 -91 1784 -91 
Q 1150 -91 751 415 
Q 353 922 353 1747 
Q 353 2572 751 3078 
Q 1150 3584 1784 3584 
Q 2172 3584 2448 3432 
Q 2725 3281 2906 2969 
z
M 947 1747 
Q 947 1113 1208 752 
Q 1469 391 1925 391 
Q 2381 391 2643 752 
Q 2906 1113 2906 1747 
Q 2906 2381 2643 2742 
Q 2381 3103 1925 3103 
Q 1469 3103 1208 2742 
Q 947 2381 947 1747 
z
" transform="scale(0.015625)"/>
       <path id="DejaVuSans-67" d="M 2906 1791 
Q 2906 2416 2648 2759 
Q 2391 3103 1925 3103 
Q 1463 3103 1205 2759 
Q 947 2416 947 1791 
Q 947 1169 1205 825 
Q 1463 481 1925 481 
Q 2391 481 2648 825 
Q 2906 1169 2906 1791 
z
M 3481 434 
Q 3481 -459 3084 -895 
Q 2688 -1331 1869 -1331 
Q 1566 -1331 1297 -1286 
Q 1028 -1241 775 -1147 
L 775 -588 
Q 1028 -725 1275 -790 
Q 1522 -856 1778 -856 
Q 2344 -856 2625 -561 
Q 2906 -266 2906 331 
L 2906 616 
Q 2728 306 2450 153 
Q 2172 0 1784 0 
Q 1141 0 747 490 
Q 353 981 353 1791 
Q 353 2603 747 3093 
Q 1141 3584 1784 3584 
Q 2172 3584 2450 3431 
Q 2728 3278 2906 2969 
L 2906 3500 
L 3481 3500 
L 3481 434 
z
" transform="scale(0.015625)"/>
       <path id="DejaVuSans-20" transform="scale(0.015625)"/>
       <path id="DejaVuSans-5b" d="M 550 4863 
L 1875 4863 
L 1875 4416 
L 1125 4416 
L 1125 -397 
L 1875 -397 
L 1875 -844 
L 550 -844 
L 550 4863 
z
" transform="scale(0.015625)"/>
       <path id="DejaVuSans-6b" d="M 581 4863 
L 1159 4863 
L 1159 1991 
L 2875 3500 
L 3609 3500 
L 1753 1863 
L 3688 0 
L 2938 0 
L 1159 1709 
L 1159 0 
L 581 0 
L 581 4863 
z
" transform="scale(0.015625)"/>
       <path id="DejaVuSans-5d" d="M 1947 4863 
L 1947 -844 
L 622 -844 
L 622 -397 
L 1369 -397 
L 1369 4416 
L 622 4416 
L 622 4863 
L 1947 4863 
z
" transform="scale(0.015625)"/>
      </defs>
      <use xlink:href="#DejaVuSans-47"/>
      <use xlink:href="#DejaVuSans-65" transform="translate(77.490234 0)"/>
      <use xlink:href="#DejaVuSans-77" transform="translate(139.013672 0)"/>
      <use xlink:href="#DejaVuSans-69" transform="translate(220.800781 0)"/>
      <use xlink:href="#DejaVuSans-63" transform="translate(248.583984 0)"/>
      <use xlink:href="#DejaVuSans-68" transform="translate(303.564453 0)"/>
      <use xlink:href="#DejaVuSans-74" transform="translate(366.943359 0)"/>
      <use xlink:href="#DejaVuSans-e4" transform="translate(406.152344 0)"/>
      <use xlink:href="#DejaVuSans-6e" transform="translate(467.431641 0)"/>
      <use xlink:href="#DejaVuSans-64" transform="translate(530.810547 0)"/>
      <use xlink:href="#DejaVuSans-65" transform="translate(594.287109 0)"/>
      <use xlink:href="#DejaVuSans-72" transform="translate(655.810547 0)"/>
      <use xlink:href="#DejaVuSans-75" transform="translate(696.923828 0)"/>
      <use xlink:href="#DejaVuSans-6e" transform="translate(760.302734 0)"/>
      <use xlink:href="#DejaVuSans-67" transform="translate(823.681641 0)"/>
      <use xlink:href="#DejaVuSans-20" transform="translate(887.158203 0)"/>
      <use xlink:href="#DejaVuSans-5b" transform="translate(918.945312 0)"/>
      <use xlink:href="#DejaVuSans-6b" transform="translate(957.958984 0)"/>
      <use xlink:href="#DejaVuSans-67" transform="translate(1015.869141 0)"/>
      <use xlink:href="#DejaVuSans-5d" transform="translate(1079.345703 0)"/>
     </g>
    </g>
   </g>
   <g id="patch_110">
    <path d="M 44.960938 375.84 
L 44.960938 43.2 
" style="fill: none; stroke: #000000; stroke-width: 0.8; stroke-linejoin: miter; stroke-linecap: square"/>
   </g>
   <g id="patch_111">
    <path d="M 714.560938 375.84 
L 714.560938 43.2 
" style="fill: none; stroke: #000000; stroke-width: 0.8; stroke-linejoin: miter; stroke-linecap: square"/>
   </g>
   <g id="patch_112">
    <path d="M 44.960938 375.84 
L 714.560937 375.84 
" style="fill: none; stroke: #000000; stroke-width: 0.8; stroke-linejoin: miter; stroke-linecap: square"/>
   </g>
   <g id="patch_113">
    <path d="M 44.960938 43.2 
L 714.560937 43.2 
" style="fill: none; stroke: #000000; stroke-width: 0.8; stroke-linejoin: miter; stroke-linecap: square"/>
   </g>
   <g id="text_17">
    <!-- Trachtänderung im aktuellen Jahr -->
    <g transform="translate(279.749375 37.2) scale(0.12 -0.12)">
     <defs>
      <path id="DejaVuSans-54" d="M -19 4666 
L 3928 4666 
L 3928 4134 
L 2272 4134 
L 2272 0 
L 1638 0 
L 1638 4134 
L -19 4134 
L -19 4666 
z
" transform="scale(0.015625)"/>
      <path id="DejaVuSans-6d" d="M 3328 2828 
Q 3544 3216 3844 3400 
Q 4144 3584 4550 3584 
Q 5097 3584 5394 3201 
Q 5691 2819 5691 2113 
L 5691 0 
L 5113 0 
L 5113 2094 
Q 5113 2597 4934 2840 
Q 4756 3084 4391 3084 
Q 3944 3084 3684 2787 
Q 3425 2491 3425 1978 
L 3425 0 
L 2847 0 
L 2847 2094 
Q 2847 2600 2669 2842 
Q 2491 3084 2119 3084 
Q 1678 3084 1418 2786 
Q 1159 2488 1159 1978 
L 1159 0 
L 581 0 
L 581 3500 
L 1159 3500 
L 1159 2956 
Q 1356 3278 1631 3431 
Q 1906 3584 2284 3584 
Q 2666 3584 2933 3390 
Q 3200 3197 3328 2828 
z
" transform="scale(0.015625)"/>
      <path id="DejaVuSans-6c" d="M 603 4863 
L 1178 4863 
L 1178 0 
L 603 0 
L 603 4863 
z
" transform="scale(0.015625)"/>
     </defs>
     <use xlink:href="#DejaVuSans-54"/>
     <use xlink:href="#DejaVuSans-72" transform="translate(46.333984 0)"/>
     <use xlink:href="#DejaVuSans-61" transform="translate(87.447266 0)"/>
     <use xlink:href="#DejaVuSans-63" transform="translate(148.726562 0)"/>
     <use xlink:href="#DejaVuSans-68" transform="translate(203.707031 0)"/>
     <use xlink:href="#DejaVuSans-74" transform="translate(267.085938 0)"/>
     <use xlink:href="#DejaVuSans-e4" transform="translate(306.294922 0)"/>
     <use xlink:href="#DejaVuSans-6e" transform="translate(367.574219 0)"/>
     <use xlink:href="#DejaVuSans-64" transform="translate(430.953125 0)"/>
     <use xlink:href="#DejaVuSans-65" transform="translate(494.429688 0)"/>
     <use xlink:href="#DejaVuSans-72" transform="translate(555.953125 0)"/>
     <use xlink:href="#DejaVuSans-75" transform="translate(597.066406 0)"/>
     <use xlink:href="#DejaVuSans-6e" transform="translate(660.445312 0)"/>
     <use xlink:href="#DejaVuSans-67" transform="translate(723.824219 0)"/>
     <use xlink:href="#DejaVuSans-20" transform="translate(787.300781 0)"/>
     <use xlink:href="#DejaVuSans-69" transform="translate(819.087891 0)"/>
     <use xlink:href="#DejaVuSans-6d" transform="translate(846.871094 0)"/>
     <use xlink:href="#DejaVuSans-20" transform="translate(944.283203 0)"/>
     <use xlink:href="#DejaVuSans-61" transform="translate(976.070312 0)"/>
     <use xlink:href="#DejaVuSans-6b" transform="translate(1037.349609 0)"/>
     <use xlink:href="#DejaVuSans-74" transform="translate(1095.259766 0)"/>
     <use xlink:href="#DejaVuSans-75" transform="translate(1134.46875 0)"/>
     <use xlink:href="#DejaVuSans-65" transform="translate(1197.847656 0)"/>
     <use xlink:href="#DejaVuSans-6c" transform="translate(1259.371094 0)"/>
     <use xlink:href="#DejaVuSans-6c" transform="translate(1287.154297 0)"/>
     <use xlink:href="#DejaVuSans-65" transform="translate(1314.9375 0)"/>
     <use xlink:href="#DejaVuSans-6e" transform="translate(1376.460938 0)"/>
     <use xlink:href="#DejaVuSans-20" transform="translate(1439.839844 0)"/>
     <use xlink:href="#DejaVuSans-4a" transform="translate(1471.626953 0)"/>
     <use xlink:href="#DejaVuSans-61" transform="translate(1501.119141 0)"/>
     <use xlink:href="#DejaVuSans-68" transform="translate(1562.398438 0)"/>
     <use xlink:href="#DejaVuSans-72" transform="translate(1625.777344 0)"/>
    </g>
   </g>
   <g id="legend_1">
    <g id="patch_114">
     <path d="M 650.110937 65.878125 
L 707.560938 65.878125 
Q 709.560938 65.878125 709.560938 63.878125 
L 709.560938 50.2 
Q 709.560938 48.2 707.560938 48.2 
L 650.110937 48.2 
Q 648.110937 48.2 648.110937 50.2 
L 648.110937 63.878125 
Q 648.110937 65.878125 650.110937 65.878125 
z
" style="fill: #ffffff; opacity: 0.8; stroke: #cccccc; stroke-linejoin: miter"/>
    </g>
    <g id="patch_115">
     <path d="M 652.110937 59.798438 
L 672.110937 59.798438 
L 672.110937 52.798438 
L 652.110937 52.798438 
z
" style="fill: #1f77b4"/>
    </g>
    <g id="text_18">
     <!-- 2025 -->
     <g transform="translate(680.110937 59.798438) scale(0.1 -0.1)">
      <use xlink:href="#DejaVuSans-32"/>
      <use xlink:href="#DejaVuSans-30" transform="translate(63.623047 0)"/>
      <use xlink:href="#DejaVuSans-32" transform="translate(127.246094 0)"/>
      <use xlink:href="#DejaVuSans-35" transform="translate(190.869141 0)"/>
     </g>
    </g>
   </g>
  </g>
  <g id="text_19">
   <!-- Bayern -->
   <g transform="translate(347.760312 9.118125) scale(0.12 -0.12)">
    <defs>
     <path id="DejaVuSans-42" d="M 1259 2228 
L 1259 519 
L 2272 519 
Q 2781 519 3026 730 
Q 3272 941 3272 1375 
Q 3272 1813 3026 2020 
Q 2781 2228 2272 2228 
L 1259 2228 
z
M 1259 4147 
L 1259 2741 
L 2194 2741 
Q 2656 2741 2882 2914 
Q 3109 3088 3109 3444 
Q 3109 3797 2882 3972 
Q 2656 4147 2194 4147 
L 1259 4147 
z
M 628 4666 
L 2241 4666 
Q 2963 4666 3353 4366 
Q 3744 4066 3744 3513 
Q 3744 3084 3544 2831 
Q 3344 2578 2956 2516 
Q 3422 2416 3680 2098 
Q 3938 1781 3938 1306 
Q 3938 681 3513 340 
Q 3088 0 2303 0 
L 628 0 
L 628 4666 
z
" transform="scale(0.015625)"/>
     <path id="DejaVuSans-79" d="M 2059 -325 
Q 1816 -950 1584 -1140 
Q 1353 -1331 966 -1331 
L 506 -1331 
L 506 -850 
L 844 -850 
Q 1081 -850 1212 -737 
Q 1344 -625 1503 -206 
L 1606 56 
L 191 3500 
L 800 3500 
L 1894 763 
L 2988 3500 
L 3597 3500 
L 2059 -325 
z
" transform="scale(0.015625)"/>
    </defs>
    <use xlink:href="#DejaVuSans-42"/>
    <use xlink:href="#DejaVuSans-61" transform="translate(68.603516 0)"/>
    <use xlink:href="#DejaVuSans-79" transform="translate(129.882812 0)"/>
    <use xlink:href="#DejaVuSans-65" transform="translate(189.0625 0)"/>
    <use xlink:href="#DejaVuSans-72" transform="translate(250.585938 0)"/>
    <use xlink:href="#DejaVuSans-6e" transform="translate(289.949219 0)"/>
   </g>
  </g>
 </g>
 <defs>
  <clipPath id="pc3d7258a20">
   <rect x="44.960938" y="43.2" width="669.6" height="332.64"/>
  </clipPath>
 </defs>
</svg>
