<?xml version="1.0" encoding="utf-8" standalone="no"?>
<!DOCTYPE svg PUBLIC "-//W3C//DTD SVG 1.1//EN"
  "http://www.w3.org/Graphics/SVG/1.1/DTD/svg11.dtd">
<svg xmlns:xlink="http://www.w3.org/1999/xlink" width="714.560938pt" height="406.19625pt" viewBox="0 0 714.560938 406.19625" xmlns="http://www.w3.org/2000/svg" version="1.1">
 <metadata>
  <rdf:RDF xmlns:dc="http://purl.org/dc/elements/1.1/" xmlns:cc="http://creativecommons.org/ns#" xmlns:rdf="http://www.w3.org/1999/02/22-rdf-syntax-ns#">
   <cc:Work>
    <dc:type rdf:resource="http://purl.org/dc/dcmitype/StillImage"/>
    <dc:date>2025-06-20T06:23:58.996647</dc:date>
    <dc:format>image/svg+xml</dc:format>
    <dc:creator>
     <cc:Agent>
      <dc:title>Matplotlib v3.10.3, https://matplotlib.org/</dc:title>
     </cc:Agent>
    </dc:creator>
   </cc:Work>
  </rdf:RDF>
 </metadata>
 <defs>
  <style type="text/css">*{stroke-linejoin: round; stroke-linecap: butt}</style>
 </defs>
 <g id="figure_1">
  <g id="patch_1">
   <path d="M 0 406.19625 
L 714.560938 406.19625 
L 714.560938 0 
L 0 0 
z
" style="fill: #ffffff"/>
  </g>
  <g id="axes_1">
   <g id="patch_2">
    <path d="M 44.960938 375.84 
L 714.560938 375.84 
L 714.560938 43.2 
L 44.960938 43.2 
z
" style="fill: #ffffff"/>
   </g>
   <g id="patch_3">
    <path d="M 75.397301 302.94439 
L 79.832473 302.94439 
L 79.832473 315.237073 
L 75.397301 315.237073 
z
" clip-path="url(#p0f8cd6278e)" style="fill: #1f77b4"/>
   </g>
   <g id="patch_4">
    <path d="M 80.941265 302.94439 
L 85.376437 302.94439 
L 85.376437 326.300488 
L 80.941265 326.300488 
z
" clip-path="url(#p0f8cd6278e)" style="fill: #1f77b4"/>
   </g>
   <g id="patch_5">
    <path d="M 86.48523 302.94439 
L 90.920401 302.94439 
L 90.920401 318.924878 
L 86.48523 318.924878 
z
" clip-path="url(#p0f8cd6278e)" style="fill: #1f77b4"/>
   </g>
   <g id="patch_6">
    <path d="M 92.029194 302.94439 
L 96.464365 302.94439 
L 96.464365 318.924878 
L 92.029194 318.924878 
z
" clip-path="url(#p0f8cd6278e)" style="fill: #1f77b4"/>
   </g>
   <g id="patch_7">
    <path d="M 97.573158 302.94439 
L 102.008329 302.94439 
L 102.008329 312.778537 
L 97.573158 312.778537 
z
" clip-path="url(#p0f8cd6278e)" style="fill: #1f77b4"/>
   </g>
   <g id="patch_8">
    <path d="M 103.117122 302.94439 
L 107.552294 302.94439 
L 107.552294 307.861463 
L 103.117122 307.861463 
z
" clip-path="url(#p0f8cd6278e)" style="fill: #1f77b4"/>
   </g>
   <g id="patch_9">
    <path d="M 108.661087 302.94439 
L 113.096258 302.94439 
L 113.096258 314.007805 
L 108.661087 314.007805 
z
" clip-path="url(#p0f8cd6278e)" style="fill: #1f77b4"/>
   </g>
   <g id="patch_10">
    <path d="M 114.205051 302.94439 
L 118.640222 302.94439 
L 118.640222 317.69561 
L 114.205051 317.69561 
z
" clip-path="url(#p0f8cd6278e)" style="fill: #1f77b4"/>
   </g>
   <g id="patch_11">
    <path d="M 119.749015 302.94439 
L 124.184186 302.94439 
L 124.184186 311.549268 
L 119.749015 311.549268 
z
" clip-path="url(#p0f8cd6278e)" style="fill: #1f77b4"/>
   </g>
   <g id="patch_12">
    <path d="M 125.292979 302.94439 
L 129.728151 302.94439 
L 129.728151 306.632195 
L 125.292979 306.632195 
z
" clip-path="url(#p0f8cd6278e)" style="fill: #1f77b4"/>
   </g>
   <g id="patch_13">
    <path d="M 130.836943 302.94439 
L 135.272115 302.94439 
L 135.272115 305.402927 
L 130.836943 305.402927 
z
" clip-path="url(#p0f8cd6278e)" style="fill: #1f77b4"/>
   </g>
   <g id="patch_14">
    <path d="M 136.380908 302.94439 
L 140.816079 302.94439 
L 140.816079 305.402927 
L 136.380908 305.402927 
z
" clip-path="url(#p0f8cd6278e)" style="fill: #1f77b4"/>
   </g>
   <g id="patch_15">
    <path d="M 141.924872 302.94439 
L 146.360043 302.94439 
L 146.360043 310.32 
L 141.924872 310.32 
z
" clip-path="url(#p0f8cd6278e)" style="fill: #1f77b4"/>
   </g>
   <g id="patch_16">
    <path d="M 147.468836 302.94439 
L 151.904008 302.94439 
L 151.904008 311.549268 
L 147.468836 311.549268 
z
" clip-path="url(#p0f8cd6278e)" style="fill: #1f77b4"/>
   </g>
   <g id="patch_17">
    <path d="M 153.0128 302.94439 
L 157.447972 302.94439 
L 157.447972 312.778537 
L 153.0128 312.778537 
z
" clip-path="url(#p0f8cd6278e)" style="fill: #1f77b4"/>
   </g>
   <g id="patch_18">
    <path d="M 158.556765 302.94439 
L 162.991936 302.94439 
L 162.991936 317.69561 
L 158.556765 317.69561 
z
" clip-path="url(#p0f8cd6278e)" style="fill: #1f77b4"/>
   </g>
   <g id="patch_19">
    <path d="M 164.100729 302.94439 
L 168.5359 302.94439 
L 168.5359 318.924878 
L 164.100729 318.924878 
z
" clip-path="url(#p0f8cd6278e)" style="fill: #1f77b4"/>
   </g>
   <g id="patch_20">
    <path d="M 169.644693 302.94439 
L 174.079864 302.94439 
L 174.079864 321.383415 
L 169.644693 321.383415 
z
" clip-path="url(#p0f8cd6278e)" style="fill: #1f77b4"/>
   </g>
   <g id="patch_21">
    <path d="M 175.188657 302.94439 
L 179.623829 302.94439 
L 179.623829 304.173659 
L 175.188657 304.173659 
z
" clip-path="url(#p0f8cd6278e)" style="fill: #1f77b4"/>
   </g>
   <g id="patch_22">
    <path d="M 180.732622 302.94439 
L 185.167793 302.94439 
L 185.167793 295.56878 
L 180.732622 295.56878 
z
" clip-path="url(#p0f8cd6278e)" style="fill: #1f77b4"/>
   </g>
   <g id="patch_23">
    <path d="M 186.276586 302.94439 
L 190.711757 302.94439 
L 190.711757 288.193171 
L 186.276586 288.193171 
z
" clip-path="url(#p0f8cd6278e)" style="fill: #1f77b4"/>
   </g>
   <g id="patch_24">
    <path d="M 191.82055 302.94439 
L 196.255721 302.94439 
L 196.255721 298.027317 
L 191.82055 298.027317 
z
" clip-path="url(#p0f8cd6278e)" style="fill: #1f77b4"/>
   </g>
   <g id="patch_25">
    <path d="M 197.364514 302.94439 
L 201.799686 302.94439 
L 201.799686 302.94439 
L 197.364514 302.94439 
z
" clip-path="url(#p0f8cd6278e)" style="fill: #1f77b4"/>
   </g>
   <g id="patch_26">
    <path d="M 202.908478 302.94439 
L 207.34365 302.94439 
L 207.34365 302.94439 
L 202.908478 302.94439 
z
" clip-path="url(#p0f8cd6278e)" style="fill: #1f77b4"/>
   </g>
   <g id="patch_27">
    <path d="M 208.452443 302.94439 
L 212.887614 302.94439 
L 212.887614 309.090732 
L 208.452443 309.090732 
z
" clip-path="url(#p0f8cd6278e)" style="fill: #1f77b4"/>
   </g>
   <g id="patch_28">
    <path d="M 213.996407 302.94439 
L 218.431578 302.94439 
L 218.431578 315.237073 
L 213.996407 315.237073 
z
" clip-path="url(#p0f8cd6278e)" style="fill: #1f77b4"/>
   </g>
   <g id="patch_29">
    <path d="M 219.540371 302.94439 
L 223.975543 302.94439 
L 223.975543 305.402927 
L 219.540371 305.402927 
z
" clip-path="url(#p0f8cd6278e)" style="fill: #1f77b4"/>
   </g>
   <g id="patch_30">
    <path d="M 225.084335 302.94439 
L 229.519507 302.94439 
L 229.519507 310.32 
L 225.084335 310.32 
z
" clip-path="url(#p0f8cd6278e)" style="fill: #1f77b4"/>
   </g>
   <g id="patch_31">
    <path d="M 230.6283 302.94439 
L 235.063471 302.94439 
L 235.063471 322.612683 
L 230.6283 322.612683 
z
" clip-path="url(#p0f8cd6278e)" style="fill: #1f77b4"/>
   </g>
   <g id="patch_32">
    <path d="M 236.172264 302.94439 
L 240.607435 302.94439 
L 240.607435 315.237073 
L 236.172264 315.237073 
z
" clip-path="url(#p0f8cd6278e)" style="fill: #1f77b4"/>
   </g>
   <g id="patch_33">
    <path d="M 241.716228 302.94439 
L 246.151399 302.94439 
L 246.151399 312.778537 
L 241.716228 312.778537 
z
" clip-path="url(#p0f8cd6278e)" style="fill: #1f77b4"/>
   </g>
   <g id="patch_34">
    <path d="M 247.260192 302.94439 
L 251.695364 302.94439 
L 251.695364 329.988293 
L 247.260192 329.988293 
z
" clip-path="url(#p0f8cd6278e)" style="fill: #1f77b4"/>
   </g>
   <g id="patch_35">
    <path d="M 252.804157 302.94439 
L 257.239328 302.94439 
L 257.239328 302.94439 
L 252.804157 302.94439 
z
" clip-path="url(#p0f8cd6278e)" style="fill: #1f77b4"/>
   </g>
   <g id="patch_36">
    <path d="M 258.348121 302.94439 
L 262.783292 302.94439 
L 262.783292 293.110244 
L 258.348121 293.110244 
z
" clip-path="url(#p0f8cd6278e)" style="fill: #1f77b4"/>
   </g>
   <g id="patch_37">
    <path d="M 263.892085 302.94439 
L 268.327256 302.94439 
L 268.327256 301.715122 
L 263.892085 301.715122 
z
" clip-path="url(#p0f8cd6278e)" style="fill: #1f77b4"/>
   </g>
   <g id="patch_38">
    <path d="M 269.436049 302.94439 
L 273.871221 302.94439 
L 273.871221 323.841951 
L 269.436049 323.841951 
z
" clip-path="url(#p0f8cd6278e)" style="fill: #1f77b4"/>
   </g>
   <g id="patch_39">
    <path d="M 274.980014 302.94439 
L 279.415185 302.94439 
L 279.415185 314.007805 
L 274.980014 314.007805 
z
" clip-path="url(#p0f8cd6278e)" style="fill: #1f77b4"/>
   </g>
   <g id="patch_40">
    <path d="M 280.523978 302.94439 
L 284.959149 302.94439 
L 284.959149 311.549268 
L 280.523978 311.549268 
z
" clip-path="url(#p0f8cd6278e)" style="fill: #1f77b4"/>
   </g>
   <g id="patch_41">
    <path d="M 286.067942 302.94439 
L 290.503113 302.94439 
L 290.503113 306.632195 
L 286.067942 306.632195 
z
" clip-path="url(#p0f8cd6278e)" style="fill: #1f77b4"/>
   </g>
   <g id="patch_42">
    <path d="M 291.611906 302.94439 
L 296.047078 302.94439 
L 296.047078 307.861463 
L 291.611906 307.861463 
z
" clip-path="url(#p0f8cd6278e)" style="fill: #1f77b4"/>
   </g>
   <g id="patch_43">
    <path d="M 297.15587 302.94439 
L 301.591042 302.94439 
L 301.591042 279.588293 
L 297.15587 279.588293 
z
" clip-path="url(#p0f8cd6278e)" style="fill: #1f77b4"/>
   </g>
   <g id="patch_44">
    <path d="M 302.699835 302.94439 
L 307.135006 302.94439 
L 307.135006 231.646829 
L 302.699835 231.646829 
z
" clip-path="url(#p0f8cd6278e)" style="fill: #1f77b4"/>
   </g>
   <g id="patch_45">
    <path d="M 308.243799 302.94439 
L 312.67897 302.94439 
L 312.67897 255.002927 
L 308.243799 255.002927 
z
" clip-path="url(#p0f8cd6278e)" style="fill: #1f77b4"/>
   </g>
   <g id="patch_46">
    <path d="M 313.787763 302.94439 
L 318.222935 302.94439 
L 318.222935 239.022439 
L 313.787763 239.022439 
z
" clip-path="url(#p0f8cd6278e)" style="fill: #1f77b4"/>
   </g>
   <g id="patch_47">
    <path d="M 319.331727 302.94439 
L 323.766899 302.94439 
L 323.766899 208.290732 
L 319.331727 208.290732 
z
" clip-path="url(#p0f8cd6278e)" style="fill: #1f77b4"/>
   </g>
   <g id="patch_48">
    <path d="M 324.875692 302.94439 
L 329.310863 302.94439 
L 329.310863 200.915122 
L 324.875692 200.915122 
z
" clip-path="url(#p0f8cd6278e)" style="fill: #1f77b4"/>
   </g>
   <g id="patch_49">
    <path d="M 330.419656 302.94439 
L 334.854827 302.94439 
L 334.854827 279.588293 
L 330.419656 279.588293 
z
" clip-path="url(#p0f8cd6278e)" style="fill: #1f77b4"/>
   </g>
   <g id="patch_50">
    <path d="M 335.96362 302.94439 
L 340.398791 302.94439 
L 340.398791 339.822439 
L 335.96362 339.822439 
z
" clip-path="url(#p0f8cd6278e)" style="fill: #1f77b4"/>
   </g>
   <g id="patch_51">
    <path d="M 341.507584 302.94439 
L 345.942756 302.94439 
L 345.942756 220.583415 
L 341.507584 220.583415 
z
" clip-path="url(#p0f8cd6278e)" style="fill: #1f77b4"/>
   </g>
   <g id="patch_52">
    <path d="M 347.051549 302.94439 
L 351.48672 302.94439 
L 351.48672 182.476098 
L 347.051549 182.476098 
z
" clip-path="url(#p0f8cd6278e)" style="fill: #1f77b4"/>
   </g>
   <g id="patch_53">
    <path d="M 352.595513 302.94439 
L 357.030684 302.94439 
L 357.030684 264.837073 
L 352.595513 264.837073 
z
" clip-path="url(#p0f8cd6278e)" style="fill: #1f77b4"/>
   </g>
   <g id="patch_54">
    <path d="M 358.139477 302.94439 
L 362.574648 302.94439 
L 362.574648 253.773659 
L 358.139477 253.773659 
z
" clip-path="url(#p0f8cd6278e)" style="fill: #1f77b4"/>
   </g>
   <g id="patch_55">
    <path d="M 363.683441 302.94439 
L 368.118613 302.94439 
L 368.118613 159.12 
L 363.683441 159.12 
z
" clip-path="url(#p0f8cd6278e)" style="fill: #1f77b4"/>
   </g>
   <g id="patch_56">
    <path d="M 369.227405 302.94439 
L 373.662577 302.94439 
L 373.662577 352.115122 
L 369.227405 352.115122 
z
" clip-path="url(#p0f8cd6278e)" style="fill: #1f77b4"/>
   </g>
   <g id="patch_57">
    <path d="M 374.77137 302.94439 
L 379.206541 302.94439 
L 379.206541 323.841951 
L 374.77137 323.841951 
z
" clip-path="url(#p0f8cd6278e)" style="fill: #1f77b4"/>
   </g>
   <g id="patch_58">
    <path d="M 380.315334 302.94439 
L 384.750505 302.94439 
L 384.750505 272.212683 
L 380.315334 272.212683 
z
" clip-path="url(#p0f8cd6278e)" style="fill: #1f77b4"/>
   </g>
   <g id="patch_59">
    <path d="M 385.859298 302.94439 
L 390.29447 302.94439 
L 390.29447 138.222439 
L 385.859298 138.222439 
z
" clip-path="url(#p0f8cd6278e)" style="fill: #1f77b4"/>
   </g>
   <g id="patch_60">
    <path d="M 391.403262 302.94439 
L 395.838434 302.94439 
L 395.838434 58.32 
L 391.403262 58.32 
z
" clip-path="url(#p0f8cd6278e)" style="fill: #1f77b4"/>
   </g>
   <g id="patch_61">
    <path d="M 396.947227 302.94439 
L 401.382398 302.94439 
L 401.382398 75.529756 
L 396.947227 75.529756 
z
" clip-path="url(#p0f8cd6278e)" style="fill: #1f77b4"/>
   </g>
   <g id="patch_62">
    <path d="M 402.491191 302.94439 
L 406.926362 302.94439 
L 406.926362 81.676098 
L 402.491191 81.676098 
z
" clip-path="url(#p0f8cd6278e)" style="fill: #1f77b4"/>
   </g>
   <g id="patch_63">
    <path d="M 408.035155 302.94439 
L 412.470326 302.94439 
L 412.470326 73.07122 
L 408.035155 73.07122 
z
" clip-path="url(#p0f8cd6278e)" style="fill: #1f77b4"/>
   </g>
   <g id="patch_64">
    <path d="M 413.579119 302.94439 
L 418.014291 302.94439 
L 418.014291 96.427317 
L 413.579119 96.427317 
z
" clip-path="url(#p0f8cd6278e)" style="fill: #1f77b4"/>
   </g>
   <g id="patch_65">
    <path d="M 419.123084 302.94439 
L 423.558255 302.94439 
L 423.558255 257.461463 
L 419.123084 257.461463 
z
" clip-path="url(#p0f8cd6278e)" style="fill: #1f77b4"/>
   </g>
   <g id="patch_66">
    <path d="M 424.667048 302.94439 
L 429.102219 302.94439 
L 429.102219 360.72 
L 424.667048 360.72 
z
" clip-path="url(#p0f8cd6278e)" style="fill: #1f77b4"/>
   </g>
   <g id="patch_67">
    <path d="M 430.211012 302.94439 
L 434.646183 302.94439 
L 434.646183 338.593171 
L 430.211012 338.593171 
z
" clip-path="url(#p0f8cd6278e)" style="fill: #1f77b4"/>
   </g>
   <g id="patch_68">
    <path d="M 435.754976 302.94439 
L 440.190148 302.94439 
L 440.190148 310.32 
L 435.754976 310.32 
z
" clip-path="url(#p0f8cd6278e)" style="fill: #1f77b4"/>
   </g>
   <g id="patch_69">
    <path d="M 441.29894 302.94439 
L 445.734112 302.94439 
L 445.734112 288.193171 
L 441.29894 288.193171 
z
" clip-path="url(#p0f8cd6278e)" style="fill: #1f77b4"/>
   </g>
   <g id="patch_70">
    <path d="M 446.842905 302.94439 
L 451.278076 302.94439 
L 451.278076 316.466341 
L 446.842905 316.466341 
z
" clip-path="url(#p0f8cd6278e)" style="fill: #1f77b4"/>
   </g>
   <g id="patch_71">
    <path d="M 452.386869 302.94439 
L 456.82204 302.94439 
L 456.82204 255.002927 
L 452.386869 255.002927 
z
" clip-path="url(#p0f8cd6278e)" style="fill: #1f77b4"/>
   </g>
   <g id="patch_72">
    <path d="M 457.930833 302.94439 
L 462.366005 302.94439 
L 462.366005 157.890732 
L 457.930833 157.890732 
z
" clip-path="url(#p0f8cd6278e)" style="fill: #1f77b4"/>
   </g>
   <g id="patch_73">
    <path d="M 463.474797 302.94439 
L 467.909969 302.94439 
L 467.909969 149.285854 
L 463.474797 149.285854 
z
" clip-path="url(#p0f8cd6278e)" style="fill: #1f77b4"/>
   </g>
   <g id="patch_74">
    <path d="M 469.018762 302.94439 
L 473.453933 302.94439 
L 473.453933 195.998049 
L 469.018762 195.998049 
z
" clip-path="url(#p0f8cd6278e)" style="fill: #1f77b4"/>
   </g>
   <g id="patch_75">
    <path d="M 474.562726 302.94439 
L 478.997897 302.94439 
L 478.997897 205.832195 
L 474.562726 205.832195 
z
" clip-path="url(#p0f8cd6278e)" style="fill: #1f77b4"/>
   </g>
   <g id="patch_76">
    <path d="M 480.10669 302.94439 
L 484.541861 302.94439 
L 484.541861 184.934634 
L 480.10669 184.934634 
z
" clip-path="url(#p0f8cd6278e)" style="fill: #1f77b4"/>
   </g>
   <g id="patch_77">
    <path d="M 485.650654 302.94439 
L 490.085826 302.94439 
L 490.085826 345.96878 
L 485.650654 345.96878 
z
" clip-path="url(#p0f8cd6278e)" style="fill: #1f77b4"/>
   </g>
   <g id="patch_78">
    <path d="M 491.194619 302.94439 
L 495.62979 302.94439 
L 495.62979 326.300488 
L 491.194619 326.300488 
z
" clip-path="url(#p0f8cd6278e)" style="fill: #1f77b4"/>
   </g>
   <g id="patch_79">
    <path d="M 496.738583 302.94439 
L 501.173754 302.94439 
L 501.173754 309.090732 
L 496.738583 309.090732 
z
" clip-path="url(#p0f8cd6278e)" style="fill: #1f77b4"/>
   </g>
   <g id="patch_80">
    <path d="M 502.282547 302.94439 
L 506.717718 302.94439 
L 506.717718 322.612683 
L 502.282547 322.612683 
z
" clip-path="url(#p0f8cd6278e)" style="fill: #1f77b4"/>
   </g>
   <g id="patch_81">
    <path d="M 507.826511 302.94439 
L 512.261683 302.94439 
L 512.261683 255.002927 
L 507.826511 255.002927 
z
" clip-path="url(#p0f8cd6278e)" style="fill: #1f77b4"/>
   </g>
   <g id="patch_82">
    <path d="M 513.370476 302.94439 
L 517.805647 302.94439 
L 517.805647 230.417561 
L 513.370476 230.417561 
z
" clip-path="url(#p0f8cd6278e)" style="fill: #1f77b4"/>
   </g>
   <g id="patch_83">
    <path d="M 518.91444 302.94439 
L 523.349611 302.94439 
L 523.349611 316.466341 
L 518.91444 316.466341 
z
" clip-path="url(#p0f8cd6278e)" style="fill: #1f77b4"/>
   </g>
   <g id="patch_84">
    <path d="M 524.458404 302.94439 
L 528.893575 302.94439 
L 528.893575 337.363902 
L 524.458404 337.363902 
z
" clip-path="url(#p0f8cd6278e)" style="fill: #1f77b4"/>
   </g>
   <g id="patch_85">
    <path d="M 530.002368 302.94439 
L 534.43754 302.94439 
L 534.43754 341.051707 
L 530.002368 341.051707 
z
" clip-path="url(#p0f8cd6278e)" style="fill: #1f77b4"/>
   </g>
   <g id="patch_86">
    <path d="M 535.546332 302.94439 
L 539.981504 302.94439 
L 539.981504 318.924878 
L 535.546332 318.924878 
z
" clip-path="url(#p0f8cd6278e)" style="fill: #1f77b4"/>
   </g>
   <g id="patch_87">
    <path d="M 541.090297 302.94439 
L 545.525468 302.94439 
L 545.525468 274.67122 
L 541.090297 274.67122 
z
" clip-path="url(#p0f8cd6278e)" style="fill: #1f77b4"/>
   </g>
   <g id="patch_88">
    <path d="M 546.634261 302.94439 
L 551.069432 302.94439 
L 551.069432 329.988293 
L 546.634261 329.988293 
z
" clip-path="url(#p0f8cd6278e)" style="fill: #1f77b4"/>
   </g>
   <g id="patch_89">
    <path d="M 552.178225 302.94439 
L 556.613397 302.94439 
L 556.613397 328.759024 
L 552.178225 328.759024 
z
" clip-path="url(#p0f8cd6278e)" style="fill: #1f77b4"/>
   </g>
   <g id="patch_90">
    <path d="M 557.722189 302.94439 
L 562.157361 302.94439 
L 562.157361 301.715122 
L 557.722189 301.715122 
z
" clip-path="url(#p0f8cd6278e)" style="fill: #1f77b4"/>
   </g>
   <g id="patch_91">
    <path d="M 563.266154 302.94439 
L 567.701325 302.94439 
L 567.701325 342.280976 
L 563.266154 342.280976 
z
" clip-path="url(#p0f8cd6278e)" style="fill: #1f77b4"/>
   </g>
   <g id="patch_92">
    <path d="M 568.810118 302.94439 
L 573.245289 302.94439 
L 573.245289 230.417561 
L 568.810118 230.417561 
z
" clip-path="url(#p0f8cd6278e)" style="fill: #1f77b4"/>
   </g>
   <g id="patch_93">
    <path d="M 574.354082 302.94439 
L 578.789253 302.94439 
L 578.789253 203.373659 
L 574.354082 203.373659 
z
" clip-path="url(#p0f8cd6278e)" style="fill: #1f77b4"/>
   </g>
   <g id="patch_94">
    <path d="M 579.898046 302.94439 
L 584.333218 302.94439 
L 584.333218 266.066341 
L 579.898046 266.066341 
z
" clip-path="url(#p0f8cd6278e)" style="fill: #1f77b4"/>
   </g>
   <g id="patch_95">
    <path d="M 585.442011 302.94439 
L 589.877182 302.94439 
L 589.877182 339.822439 
L 585.442011 339.822439 
z
" clip-path="url(#p0f8cd6278e)" style="fill: #1f77b4"/>
   </g>
   <g id="patch_96">
    <path d="M 590.985975 302.94439 
L 595.421146 302.94439 
L 595.421146 291.880976 
L 590.985975 291.880976 
z
" clip-path="url(#p0f8cd6278e)" style="fill: #1f77b4"/>
   </g>
   <g id="patch_97">
    <path d="M 596.529939 302.94439 
L 600.96511 302.94439 
L 600.96511 274.67122 
L 596.529939 274.67122 
z
" clip-path="url(#p0f8cd6278e)" style="fill: #1f77b4"/>
   </g>
   <g id="patch_98">
    <path d="M 602.073903 302.94439 
L 606.509075 302.94439 
L 606.509075 357.032195 
L 602.073903 357.032195 
z
" clip-path="url(#p0f8cd6278e)" style="fill: #1f77b4"/>
   </g>
   <g id="patch_99">
    <path d="M 607.617867 302.94439 
L 612.053039 302.94439 
L 612.053039 332.446829 
L 607.617867 332.446829 
z
" clip-path="url(#p0f8cd6278e)" style="fill: #1f77b4"/>
   </g>
   <g id="patch_100">
    <path d="M 613.161832 302.94439 
L 617.597003 302.94439 
L 617.597003 329.988293 
L 613.161832 329.988293 
z
" clip-path="url(#p0f8cd6278e)" style="fill: #1f77b4"/>
   </g>
   <g id="patch_101">
    <path d="M 618.705796 302.94439 
L 623.140967 302.94439 
L 623.140967 359.490732 
L 618.705796 359.490732 
z
" clip-path="url(#p0f8cd6278e)" style="fill: #1f77b4"/>
   </g>
   <g id="patch_102">
    <path d="M 624.24976 302.94439 
L 628.684932 302.94439 
L 628.684932 342.280976 
L 624.24976 342.280976 
z
" clip-path="url(#p0f8cd6278e)" style="fill: #1f77b4"/>
   </g>
   <g id="patch_103">
    <path d="M 629.793724 302.94439 
L 634.228896 302.94439 
L 634.228896 280.817561 
L 629.793724 280.817561 
z
" clip-path="url(#p0f8cd6278e)" style="fill: #1f77b4"/>
   </g>
   <g id="patch_104">
    <path d="M 635.337689 302.94439 
L 639.77286 302.94439 
L 639.77286 284.505366 
L 635.337689 284.505366 
z
" clip-path="url(#p0f8cd6278e)" style="fill: #1f77b4"/>
   </g>
   <g id="patch_105">
    <path d="M 640.881653 302.94439 
L 645.316824 302.94439 
L 645.316824 232.876098 
L 640.881653 232.876098 
z
" clip-path="url(#p0f8cd6278e)" style="fill: #1f77b4"/>
   </g>
   <g id="patch_106">
    <path d="M 646.425617 302.94439 
L 650.860788 302.94439 
L 650.860788 188.622439 
L 646.425617 188.622439 
z
" clip-path="url(#p0f8cd6278e)" style="fill: #1f77b4"/>
   </g>
   <g id="patch_107">
    <path d="M 651.969581 302.94439 
L 656.404753 302.94439 
L 656.404753 149.285854 
L 651.969581 149.285854 
z
" clip-path="url(#p0f8cd6278e)" style="fill: #1f77b4"/>
   </g>
   <g id="patch_108">
    <path d="M 657.513546 302.94439 
L 661.948717 302.94439 
L 661.948717 176.329756 
L 657.513546 176.329756 
z
" clip-path="url(#p0f8cd6278e)" style="fill: #1f77b4"/>
   </g>
   <g id="patch_109">
    <path d="M 663.05751 302.94439 
L 667.492681 302.94439 
L 667.492681 347.198049 
L 663.05751 347.198049 
z
" clip-path="url(#p0f8cd6278e)" style="fill: #1f77b4"/>
   </g>
   <g id="patch_110">
    <path d="M 668.601474 302.94439 
L 673.036645 302.94439 
L 673.036645 230.417561 
L 668.601474 230.417561 
z
" clip-path="url(#p0f8cd6278e)" style="fill: #1f77b4"/>
   </g>
   <g id="patch_111">
    <path d="M 674.145438 302.94439 
L 678.58061 302.94439 
L 678.58061 175.100488 
L 674.145438 175.100488 
z
" clip-path="url(#p0f8cd6278e)" style="fill: #1f77b4"/>
   </g>
   <g id="patch_112">
    <path d="M 679.689402 302.94439 
L 684.124574 302.94439 
L 684.124574 322.612683 
L 679.689402 322.612683 
z
" clip-path="url(#p0f8cd6278e)" style="fill: #1f77b4"/>
   </g>
   <g id="matplotlib.axis_1">
    <g id="xtick_1">
     <g id="line2d_1">
      <path d="M 72.070923 375.84 
L 72.070923 43.2 
" clip-path="url(#p0f8cd6278e)" style="fill: none; stroke: #b0b0b0; stroke-width: 0.8; stroke-linecap: square"/>
     </g>
     <g id="line2d_2">
      <defs>
       <path id="mbc64a655d4" d="M 0 0 
L 0 3.5 
" style="stroke: #000000; stroke-width: 0.8"/>
      </defs>
      <g>
       <use xlink:href="#mbc64a655d4" x="72.070923" y="375.84" style="stroke: #000000; stroke-width: 0.8"/>
      </g>
     </g>
     <g id="text_1">
      <!-- Mär -->
      <g transform="translate(62.637329 390.438438) scale(0.1 -0.1)">
       <defs>
        <path id="DejaVuSans-4d" d="M 628 4666 
L 1569 4666 
L 2759 1491 
L 3956 4666 
L 4897 4666 
L 4897 0 
L 4281 0 
L 4281 4097 
L 3078 897 
L 2444 897 
L 1241 4097 
L 1241 0 
L 628 0 
L 628 4666 
z
" transform="scale(0.015625)"/>
        <path id="DejaVuSans-e4" d="M 2194 1759 
Q 1497 1759 1228 1600 
Q 959 1441 959 1056 
Q 959 750 1161 570 
Q 1363 391 1709 391 
Q 2188 391 2477 730 
Q 2766 1069 2766 1631 
L 2766 1759 
L 2194 1759 
z
M 3341 1997 
L 3341 0 
L 2766 0 
L 2766 531 
Q 2569 213 2275 61 
Q 1981 -91 1556 -91 
Q 1019 -91 701 211 
Q 384 513 384 1019 
Q 384 1609 779 1909 
Q 1175 2209 1959 2209 
L 2766 2209 
L 2766 2266 
Q 2766 2663 2505 2880 
Q 2244 3097 1772 3097 
Q 1472 3097 1187 3025 
Q 903 2953 641 2809 
L 641 3341 
Q 956 3463 1253 3523 
Q 1550 3584 1831 3584 
Q 2591 3584 2966 3190 
Q 3341 2797 3341 1997 
z
M 2150 4850 
L 2784 4850 
L 2784 4219 
L 2150 4219 
L 2150 4850 
z
M 928 4850 
L 1562 4850 
L 1562 4219 
L 928 4219 
L 928 4850 
z
" transform="scale(0.015625)"/>
        <path id="DejaVuSans-72" d="M 2631 2963 
Q 2534 3019 2420 3045 
Q 2306 3072 2169 3072 
Q 1681 3072 1420 2755 
Q 1159 2438 1159 1844 
L 1159 0 
L 581 0 
L 581 3500 
L 1159 3500 
L 1159 2956 
Q 1341 3275 1631 3429 
Q 1922 3584 2338 3584 
Q 2397 3584 2469 3576 
Q 2541 3569 2628 3553 
L 2631 2963 
z
" transform="scale(0.015625)"/>
       </defs>
       <use xlink:href="#DejaVuSans-4d"/>
       <use xlink:href="#DejaVuSans-e4" transform="translate(86.279297 0)"/>
       <use xlink:href="#DejaVuSans-72" transform="translate(147.558594 0)"/>
      </g>
     </g>
    </g>
    <g id="xtick_2">
     <g id="line2d_3">
      <path d="M 149.686422 375.84 
L 149.686422 43.2 
" clip-path="url(#p0f8cd6278e)" style="fill: none; stroke: #b0b0b0; stroke-width: 0.8; stroke-linecap: square"/>
     </g>
     <g id="line2d_4">
      <g>
       <use xlink:href="#mbc64a655d4" x="149.686422" y="375.84" style="stroke: #000000; stroke-width: 0.8"/>
      </g>
     </g>
     <g id="text_2">
      <!-- 15 -->
      <g transform="translate(143.323922 390.438438) scale(0.1 -0.1)">
       <defs>
        <path id="DejaVuSans-31" d="M 794 531 
L 1825 531 
L 1825 4091 
L 703 3866 
L 703 4441 
L 1819 4666 
L 2450 4666 
L 2450 531 
L 3481 531 
L 3481 0 
L 794 0 
L 794 531 
z
" transform="scale(0.015625)"/>
        <path id="DejaVuSans-35" d="M 691 4666 
L 3169 4666 
L 3169 4134 
L 1269 4134 
L 1269 2991 
Q 1406 3038 1543 3061 
Q 1681 3084 1819 3084 
Q 2600 3084 3056 2656 
Q 3513 2228 3513 1497 
Q 3513 744 3044 326 
Q 2575 -91 1722 -91 
Q 1428 -91 1123 -41 
Q 819 9 494 109 
L 494 744 
Q 775 591 1075 516 
Q 1375 441 1709 441 
Q 2250 441 2565 725 
Q 2881 1009 2881 1497 
Q 2881 1984 2565 2268 
Q 2250 2553 1709 2553 
Q 1456 2553 1204 2497 
Q 953 2441 691 2322 
L 691 4666 
z
" transform="scale(0.015625)"/>
       </defs>
       <use xlink:href="#DejaVuSans-31"/>
       <use xlink:href="#DejaVuSans-35" transform="translate(63.623047 0)"/>
      </g>
     </g>
    </g>
    <g id="xtick_3">
     <g id="line2d_5">
      <path d="M 243.933814 375.84 
L 243.933814 43.2 
" clip-path="url(#p0f8cd6278e)" style="fill: none; stroke: #b0b0b0; stroke-width: 0.8; stroke-linecap: square"/>
     </g>
     <g id="line2d_6">
      <g>
       <use xlink:href="#mbc64a655d4" x="243.933814" y="375.84" style="stroke: #000000; stroke-width: 0.8"/>
      </g>
     </g>
     <g id="text_3">
      <!-- Apr -->
      <g transform="translate(235.283814 390.438438) scale(0.1 -0.1)">
       <defs>
        <path id="DejaVuSans-41" d="M 2188 4044 
L 1331 1722 
L 3047 1722 
L 2188 4044 
z
M 1831 4666 
L 2547 4666 
L 4325 0 
L 3669 0 
L 3244 1197 
L 1141 1197 
L 716 0 
L 50 0 
L 1831 4666 
z
" transform="scale(0.015625)"/>
        <path id="DejaVuSans-70" d="M 1159 525 
L 1159 -1331 
L 581 -1331 
L 581 3500 
L 1159 3500 
L 1159 2969 
Q 1341 3281 1617 3432 
Q 1894 3584 2278 3584 
Q 2916 3584 3314 3078 
Q 3713 2572 3713 1747 
Q 3713 922 3314 415 
Q 2916 -91 2278 -91 
Q 1894 -91 1617 61 
Q 1341 213 1159 525 
z
M 3116 1747 
Q 3116 2381 2855 2742 
Q 2594 3103 2138 3103 
Q 1681 3103 1420 2742 
Q 1159 2381 1159 1747 
Q 1159 1113 1420 752 
Q 1681 391 2138 391 
Q 2594 391 2855 752 
Q 3116 1113 3116 1747 
z
" transform="scale(0.015625)"/>
       </defs>
       <use xlink:href="#DejaVuSans-41"/>
       <use xlink:href="#DejaVuSans-70" transform="translate(68.408203 0)"/>
       <use xlink:href="#DejaVuSans-72" transform="translate(131.884766 0)"/>
      </g>
     </g>
    </g>
    <g id="xtick_4">
     <g id="line2d_7">
      <path d="M 321.549313 375.84 
L 321.549313 43.2 
" clip-path="url(#p0f8cd6278e)" style="fill: none; stroke: #b0b0b0; stroke-width: 0.8; stroke-linecap: square"/>
     </g>
     <g id="line2d_8">
      <g>
       <use xlink:href="#mbc64a655d4" x="321.549313" y="375.84" style="stroke: #000000; stroke-width: 0.8"/>
      </g>
     </g>
     <g id="text_4">
      <!-- 15 -->
      <g transform="translate(315.186813 390.438438) scale(0.1 -0.1)">
       <use xlink:href="#DejaVuSans-31"/>
       <use xlink:href="#DejaVuSans-35" transform="translate(63.623047 0)"/>
      </g>
     </g>
    </g>
    <g id="xtick_5">
     <g id="line2d_9">
      <path d="M 410.252741 375.84 
L 410.252741 43.2 
" clip-path="url(#p0f8cd6278e)" style="fill: none; stroke: #b0b0b0; stroke-width: 0.8; stroke-linecap: square"/>
     </g>
     <g id="line2d_10">
      <g>
       <use xlink:href="#mbc64a655d4" x="410.252741" y="375.84" style="stroke: #000000; stroke-width: 0.8"/>
      </g>
     </g>
     <g id="text_5">
      <!-- Mai -->
      <g transform="translate(401.485553 390.438438) scale(0.1 -0.1)">
       <defs>
        <path id="DejaVuSans-61" d="M 2194 1759 
Q 1497 1759 1228 1600 
Q 959 1441 959 1056 
Q 959 750 1161 570 
Q 1363 391 1709 391 
Q 2188 391 2477 730 
Q 2766 1069 2766 1631 
L 2766 1759 
L 2194 1759 
z
M 3341 1997 
L 3341 0 
L 2766 0 
L 2766 531 
Q 2569 213 2275 61 
Q 1981 -91 1556 -91 
Q 1019 -91 701 211 
Q 384 513 384 1019 
Q 384 1609 779 1909 
Q 1175 2209 1959 2209 
L 2766 2209 
L 2766 2266 
Q 2766 2663 2505 2880 
Q 2244 3097 1772 3097 
Q 1472 3097 1187 3025 
Q 903 2953 641 2809 
L 641 3341 
Q 956 3463 1253 3523 
Q 1550 3584 1831 3584 
Q 2591 3584 2966 3190 
Q 3341 2797 3341 1997 
z
" transform="scale(0.015625)"/>
        <path id="DejaVuSans-69" d="M 603 3500 
L 1178 3500 
L 1178 0 
L 603 0 
L 603 3500 
z
M 603 4863 
L 1178 4863 
L 1178 4134 
L 603 4134 
L 603 4863 
z
" transform="scale(0.015625)"/>
       </defs>
       <use xlink:href="#DejaVuSans-4d"/>
       <use xlink:href="#DejaVuSans-61" transform="translate(86.279297 0)"/>
       <use xlink:href="#DejaVuSans-69" transform="translate(147.558594 0)"/>
      </g>
     </g>
    </g>
    <g id="xtick_6">
     <g id="line2d_11">
      <path d="M 487.86824 375.84 
L 487.86824 43.2 
" clip-path="url(#p0f8cd6278e)" style="fill: none; stroke: #b0b0b0; stroke-width: 0.8; stroke-linecap: square"/>
     </g>
     <g id="line2d_12">
      <g>
       <use xlink:href="#mbc64a655d4" x="487.86824" y="375.84" style="stroke: #000000; stroke-width: 0.8"/>
      </g>
     </g>
     <g id="text_6">
      <!-- 15 -->
      <g transform="translate(481.50574 390.438438) scale(0.1 -0.1)">
       <use xlink:href="#DejaVuSans-31"/>
       <use xlink:href="#DejaVuSans-35" transform="translate(63.623047 0)"/>
      </g>
     </g>
    </g>
    <g id="xtick_7">
     <g id="line2d_13">
      <path d="M 582.115632 375.84 
L 582.115632 43.2 
" clip-path="url(#p0f8cd6278e)" style="fill: none; stroke: #b0b0b0; stroke-width: 0.8; stroke-linecap: square"/>
     </g>
     <g id="line2d_14">
      <g>
       <use xlink:href="#mbc64a655d4" x="582.115632" y="375.84" style="stroke: #000000; stroke-width: 0.8"/>
      </g>
     </g>
     <g id="text_7">
      <!-- Jun -->
      <g transform="translate(574.303132 390.438438) scale(0.1 -0.1)">
       <defs>
        <path id="DejaVuSans-4a" d="M 628 4666 
L 1259 4666 
L 1259 325 
Q 1259 -519 939 -900 
Q 619 -1281 -91 -1281 
L -331 -1281 
L -331 -750 
L -134 -750 
Q 284 -750 456 -515 
Q 628 -281 628 325 
L 628 4666 
z
" transform="scale(0.015625)"/>
        <path id="DejaVuSans-75" d="M 544 1381 
L 544 3500 
L 1119 3500 
L 1119 1403 
Q 1119 906 1312 657 
Q 1506 409 1894 409 
Q 2359 409 2629 706 
Q 2900 1003 2900 1516 
L 2900 3500 
L 3475 3500 
L 3475 0 
L 2900 0 
L 2900 538 
Q 2691 219 2414 64 
Q 2138 -91 1772 -91 
Q 1169 -91 856 284 
Q 544 659 544 1381 
z
M 1991 3584 
L 1991 3584 
z
" transform="scale(0.015625)"/>
        <path id="DejaVuSans-6e" d="M 3513 2113 
L 3513 0 
L 2938 0 
L 2938 2094 
Q 2938 2591 2744 2837 
Q 2550 3084 2163 3084 
Q 1697 3084 1428 2787 
Q 1159 2491 1159 1978 
L 1159 0 
L 581 0 
L 581 3500 
L 1159 3500 
L 1159 2956 
Q 1366 3272 1645 3428 
Q 1925 3584 2291 3584 
Q 2894 3584 3203 3211 
Q 3513 2838 3513 2113 
z
" transform="scale(0.015625)"/>
       </defs>
       <use xlink:href="#DejaVuSans-4a"/>
       <use xlink:href="#DejaVuSans-75" transform="translate(29.492188 0)"/>
       <use xlink:href="#DejaVuSans-6e" transform="translate(92.871094 0)"/>
      </g>
     </g>
    </g>
    <g id="xtick_8">
     <g id="line2d_15">
      <path d="M 659.731131 375.84 
L 659.731131 43.2 
" clip-path="url(#p0f8cd6278e)" style="fill: none; stroke: #b0b0b0; stroke-width: 0.8; stroke-linecap: square"/>
     </g>
     <g id="line2d_16">
      <g>
       <use xlink:href="#mbc64a655d4" x="659.731131" y="375.84" style="stroke: #000000; stroke-width: 0.8"/>
      </g>
     </g>
     <g id="text_8">
      <!-- 15 -->
      <g transform="translate(653.368631 390.438438) scale(0.1 -0.1)">
       <use xlink:href="#DejaVuSans-31"/>
       <use xlink:href="#DejaVuSans-35" transform="translate(63.623047 0)"/>
      </g>
     </g>
    </g>
    <g id="xtick_9">
     <g id="line2d_17">
      <defs>
       <path id="m29433735a4" d="M 0 0 
L 0 2 
" style="stroke: #000000; stroke-width: 0.6"/>
      </defs>
      <g>
       <use xlink:href="#m29433735a4" x="60.982994" y="375.84" style="stroke: #000000; stroke-width: 0.6"/>
      </g>
     </g>
    </g>
    <g id="xtick_10">
     <g id="line2d_18">
      <g>
       <use xlink:href="#m29433735a4" x="99.790744" y="375.84" style="stroke: #000000; stroke-width: 0.6"/>
      </g>
     </g>
    </g>
    <g id="xtick_11">
     <g id="line2d_19">
      <g>
       <use xlink:href="#m29433735a4" x="138.598493" y="375.84" style="stroke: #000000; stroke-width: 0.6"/>
      </g>
     </g>
    </g>
    <g id="xtick_12">
     <g id="line2d_20">
      <g>
       <use xlink:href="#m29433735a4" x="177.406243" y="375.84" style="stroke: #000000; stroke-width: 0.6"/>
      </g>
     </g>
    </g>
    <g id="xtick_13">
     <g id="line2d_21">
      <g>
       <use xlink:href="#m29433735a4" x="216.213993" y="375.84" style="stroke: #000000; stroke-width: 0.6"/>
      </g>
     </g>
    </g>
    <g id="xtick_14">
     <g id="line2d_22">
      <g>
       <use xlink:href="#m29433735a4" x="255.021742" y="375.84" style="stroke: #000000; stroke-width: 0.6"/>
      </g>
     </g>
    </g>
    <g id="xtick_15">
     <g id="line2d_23">
      <g>
       <use xlink:href="#m29433735a4" x="293.829492" y="375.84" style="stroke: #000000; stroke-width: 0.6"/>
      </g>
     </g>
    </g>
    <g id="xtick_16">
     <g id="line2d_24">
      <g>
       <use xlink:href="#m29433735a4" x="332.637242" y="375.84" style="stroke: #000000; stroke-width: 0.6"/>
      </g>
     </g>
    </g>
    <g id="xtick_17">
     <g id="line2d_25">
      <g>
       <use xlink:href="#m29433735a4" x="371.444991" y="375.84" style="stroke: #000000; stroke-width: 0.6"/>
      </g>
     </g>
    </g>
    <g id="xtick_18">
     <g id="line2d_26">
      <g>
       <use xlink:href="#m29433735a4" x="449.06049" y="375.84" style="stroke: #000000; stroke-width: 0.6"/>
      </g>
     </g>
    </g>
    <g id="xtick_19">
     <g id="line2d_27">
      <g>
       <use xlink:href="#m29433735a4" x="526.67599" y="375.84" style="stroke: #000000; stroke-width: 0.6"/>
      </g>
     </g>
    </g>
    <g id="xtick_20">
     <g id="line2d_28">
      <g>
       <use xlink:href="#m29433735a4" x="565.483739" y="375.84" style="stroke: #000000; stroke-width: 0.6"/>
      </g>
     </g>
    </g>
    <g id="xtick_21">
     <g id="line2d_29">
      <g>
       <use xlink:href="#m29433735a4" x="604.291489" y="375.84" style="stroke: #000000; stroke-width: 0.6"/>
      </g>
     </g>
    </g>
    <g id="xtick_22">
     <g id="line2d_30">
      <g>
       <use xlink:href="#m29433735a4" x="643.099239" y="375.84" style="stroke: #000000; stroke-width: 0.6"/>
      </g>
     </g>
    </g>
    <g id="xtick_23">
     <g id="line2d_31">
      <g>
       <use xlink:href="#m29433735a4" x="681.906988" y="375.84" style="stroke: #000000; stroke-width: 0.6"/>
      </g>
     </g>
    </g>
    <g id="text_9">
     <!-- Monat -->
     <g transform="translate(364.194531 404.116563) scale(0.1 -0.1)">
      <defs>
       <path id="DejaVuSans-6f" d="M 1959 3097 
Q 1497 3097 1228 2736 
Q 959 2375 959 1747 
Q 959 1119 1226 758 
Q 1494 397 1959 397 
Q 2419 397 2687 759 
Q 2956 1122 2956 1747 
Q 2956 2369 2687 2733 
Q 2419 3097 1959 3097 
z
M 1959 3584 
Q 2709 3584 3137 3096 
Q 3566 2609 3566 1747 
Q 3566 888 3137 398 
Q 2709 -91 1959 -91 
Q 1206 -91 779 398 
Q 353 888 353 1747 
Q 353 2609 779 3096 
Q 1206 3584 1959 3584 
z
" transform="scale(0.015625)"/>
       <path id="DejaVuSans-74" d="M 1172 4494 
L 1172 3500 
L 2356 3500 
L 2356 3053 
L 1172 3053 
L 1172 1153 
Q 1172 725 1289 603 
Q 1406 481 1766 481 
L 2356 481 
L 2356 0 
L 1766 0 
Q 1100 0 847 248 
Q 594 497 594 1153 
L 594 3053 
L 172 3053 
L 172 3500 
L 594 3500 
L 594 4494 
L 1172 4494 
z
" transform="scale(0.015625)"/>
      </defs>
      <use xlink:href="#DejaVuSans-4d"/>
      <use xlink:href="#DejaVuSans-6f" transform="translate(86.279297 0)"/>
      <use xlink:href="#DejaVuSans-6e" transform="translate(147.460938 0)"/>
      <use xlink:href="#DejaVuSans-61" transform="translate(210.839844 0)"/>
      <use xlink:href="#DejaVuSans-74" transform="translate(272.119141 0)"/>
     </g>
    </g>
   </g>
   <g id="matplotlib.axis_2">
    <g id="ytick_1">
     <g id="line2d_32">
      <path d="M 44.960938 364.407805 
L 714.560938 364.407805 
" clip-path="url(#p0f8cd6278e)" style="fill: none; stroke: #b0b0b0; stroke-width: 0.8; stroke-linecap: square"/>
     </g>
     <g id="line2d_33">
      <defs>
       <path id="mf516fda57f" d="M 0 0 
L -3.5 0 
" style="stroke: #000000; stroke-width: 0.8"/>
      </defs>
      <g>
       <use xlink:href="#mf516fda57f" x="44.960938" y="364.407805" style="stroke: #000000; stroke-width: 0.8"/>
      </g>
     </g>
     <g id="text_10">
      <!-- −0.5 -->
      <g transform="translate(13.678125 368.207024) scale(0.1 -0.1)">
       <defs>
        <path id="DejaVuSans-2212" d="M 678 2272 
L 4684 2272 
L 4684 1741 
L 678 1741 
L 678 2272 
z
" transform="scale(0.015625)"/>
        <path id="DejaVuSans-30" d="M 2034 4250 
Q 1547 4250 1301 3770 
Q 1056 3291 1056 2328 
Q 1056 1369 1301 889 
Q 1547 409 2034 409 
Q 2525 409 2770 889 
Q 3016 1369 3016 2328 
Q 3016 3291 2770 3770 
Q 2525 4250 2034 4250 
z
M 2034 4750 
Q 2819 4750 3233 4129 
Q 3647 3509 3647 2328 
Q 3647 1150 3233 529 
Q 2819 -91 2034 -91 
Q 1250 -91 836 529 
Q 422 1150 422 2328 
Q 422 3509 836 4129 
Q 1250 4750 2034 4750 
z
" transform="scale(0.015625)"/>
        <path id="DejaVuSans-2e" d="M 684 794 
L 1344 794 
L 1344 0 
L 684 0 
L 684 794 
z
" transform="scale(0.015625)"/>
       </defs>
       <use xlink:href="#DejaVuSans-2212"/>
       <use xlink:href="#DejaVuSans-30" transform="translate(83.789062 0)"/>
       <use xlink:href="#DejaVuSans-2e" transform="translate(147.412109 0)"/>
       <use xlink:href="#DejaVuSans-35" transform="translate(179.199219 0)"/>
      </g>
     </g>
    </g>
    <g id="ytick_2">
     <g id="line2d_34">
      <path d="M 44.960938 302.94439 
L 714.560938 302.94439 
" clip-path="url(#p0f8cd6278e)" style="fill: none; stroke: #b0b0b0; stroke-width: 0.8; stroke-linecap: square"/>
     </g>
     <g id="line2d_35">
      <g>
       <use xlink:href="#mf516fda57f" x="44.960938" y="302.94439" style="stroke: #000000; stroke-width: 0.8"/>
      </g>
     </g>
     <g id="text_11">
      <!-- 0.0 -->
      <g transform="translate(22.057813 306.743609) scale(0.1 -0.1)">
       <use xlink:href="#DejaVuSans-30"/>
       <use xlink:href="#DejaVuSans-2e" transform="translate(63.623047 0)"/>
       <use xlink:href="#DejaVuSans-30" transform="translate(95.410156 0)"/>
      </g>
     </g>
    </g>
    <g id="ytick_3">
     <g id="line2d_36">
      <path d="M 44.960938 241.480976 
L 714.560938 241.480976 
" clip-path="url(#p0f8cd6278e)" style="fill: none; stroke: #b0b0b0; stroke-width: 0.8; stroke-linecap: square"/>
     </g>
     <g id="line2d_37">
      <g>
       <use xlink:href="#mf516fda57f" x="44.960938" y="241.480976" style="stroke: #000000; stroke-width: 0.8"/>
      </g>
     </g>
     <g id="text_12">
      <!-- 0.5 -->
      <g transform="translate(22.057813 245.280194) scale(0.1 -0.1)">
       <use xlink:href="#DejaVuSans-30"/>
       <use xlink:href="#DejaVuSans-2e" transform="translate(63.623047 0)"/>
       <use xlink:href="#DejaVuSans-35" transform="translate(95.410156 0)"/>
      </g>
     </g>
    </g>
    <g id="ytick_4">
     <g id="line2d_38">
      <path d="M 44.960938 180.017561 
L 714.560938 180.017561 
" clip-path="url(#p0f8cd6278e)" style="fill: none; stroke: #b0b0b0; stroke-width: 0.8; stroke-linecap: square"/>
     </g>
     <g id="line2d_39">
      <g>
       <use xlink:href="#mf516fda57f" x="44.960938" y="180.017561" style="stroke: #000000; stroke-width: 0.8"/>
      </g>
     </g>
     <g id="text_13">
      <!-- 1.0 -->
      <g transform="translate(22.057813 183.81678) scale(0.1 -0.1)">
       <use xlink:href="#DejaVuSans-31"/>
       <use xlink:href="#DejaVuSans-2e" transform="translate(63.623047 0)"/>
       <use xlink:href="#DejaVuSans-30" transform="translate(95.410156 0)"/>
      </g>
     </g>
    </g>
    <g id="ytick_5">
     <g id="line2d_40">
      <path d="M 44.960938 118.554146 
L 714.560938 118.554146 
" clip-path="url(#p0f8cd6278e)" style="fill: none; stroke: #b0b0b0; stroke-width: 0.8; stroke-linecap: square"/>
     </g>
     <g id="line2d_41">
      <g>
       <use xlink:href="#mf516fda57f" x="44.960938" y="118.554146" style="stroke: #000000; stroke-width: 0.8"/>
      </g>
     </g>
     <g id="text_14">
      <!-- 1.5 -->
      <g transform="translate(22.057813 122.353365) scale(0.1 -0.1)">
       <use xlink:href="#DejaVuSans-31"/>
       <use xlink:href="#DejaVuSans-2e" transform="translate(63.623047 0)"/>
       <use xlink:href="#DejaVuSans-35" transform="translate(95.410156 0)"/>
      </g>
     </g>
    </g>
    <g id="ytick_6">
     <g id="line2d_42">
      <path d="M 44.960938 57.090732 
L 714.560938 57.090732 
" clip-path="url(#p0f8cd6278e)" style="fill: none; stroke: #b0b0b0; stroke-width: 0.8; stroke-linecap: square"/>
     </g>
     <g id="line2d_43">
      <g>
       <use xlink:href="#mf516fda57f" x="44.960938" y="57.090732" style="stroke: #000000; stroke-width: 0.8"/>
      </g>
     </g>
     <g id="text_15">
      <!-- 2.0 -->
      <g transform="translate(22.057813 60.88995) scale(0.1 -0.1)">
       <defs>
        <path id="DejaVuSans-32" d="M 1228 531 
L 3431 531 
L 3431 0 
L 469 0 
L 469 531 
Q 828 903 1448 1529 
Q 2069 2156 2228 2338 
Q 2531 2678 2651 2914 
Q 2772 3150 2772 3378 
Q 2772 3750 2511 3984 
Q 2250 4219 1831 4219 
Q 1534 4219 1204 4116 
Q 875 4013 500 3803 
L 500 4441 
Q 881 4594 1212 4672 
Q 1544 4750 1819 4750 
Q 2544 4750 2975 4387 
Q 3406 4025 3406 3419 
Q 3406 3131 3298 2873 
Q 3191 2616 2906 2266 
Q 2828 2175 2409 1742 
Q 1991 1309 1228 531 
z
" transform="scale(0.015625)"/>
       </defs>
       <use xlink:href="#DejaVuSans-32"/>
       <use xlink:href="#DejaVuSans-2e" transform="translate(63.623047 0)"/>
       <use xlink:href="#DejaVuSans-30" transform="translate(95.410156 0)"/>
      </g>
     </g>
    </g>
    <g id="ytick_7">
     <g id="line2d_44">
      <defs>
       <path id="macf476ee00" d="M 0 0 
L -2 0 
" style="stroke: #000000; stroke-width: 0.6"/>
      </defs>
      <g>
       <use xlink:href="#macf476ee00" x="44.960938" y="352.115122" style="stroke: #000000; stroke-width: 0.6"/>
      </g>
     </g>
    </g>
    <g id="ytick_8">
     <g id="line2d_45">
      <g>
       <use xlink:href="#macf476ee00" x="44.960938" y="339.822439" style="stroke: #000000; stroke-width: 0.6"/>
      </g>
     </g>
    </g>
    <g id="ytick_9">
     <g id="line2d_46">
      <g>
       <use xlink:href="#macf476ee00" x="44.960938" y="327.529756" style="stroke: #000000; stroke-width: 0.6"/>
      </g>
     </g>
    </g>
    <g id="ytick_10">
     <g id="line2d_47">
      <g>
       <use xlink:href="#macf476ee00" x="44.960938" y="315.237073" style="stroke: #000000; stroke-width: 0.6"/>
      </g>
     </g>
    </g>
    <g id="ytick_11">
     <g id="line2d_48">
      <g>
       <use xlink:href="#macf476ee00" x="44.960938" y="290.651707" style="stroke: #000000; stroke-width: 0.6"/>
      </g>
     </g>
    </g>
    <g id="ytick_12">
     <g id="line2d_49">
      <g>
       <use xlink:href="#macf476ee00" x="44.960938" y="278.359024" style="stroke: #000000; stroke-width: 0.6"/>
      </g>
     </g>
    </g>
    <g id="ytick_13">
     <g id="line2d_50">
      <g>
       <use xlink:href="#macf476ee00" x="44.960938" y="266.066341" style="stroke: #000000; stroke-width: 0.6"/>
      </g>
     </g>
    </g>
    <g id="ytick_14">
     <g id="line2d_51">
      <g>
       <use xlink:href="#macf476ee00" x="44.960938" y="253.773659" style="stroke: #000000; stroke-width: 0.6"/>
      </g>
     </g>
    </g>
    <g id="ytick_15">
     <g id="line2d_52">
      <g>
       <use xlink:href="#macf476ee00" x="44.960938" y="229.188293" style="stroke: #000000; stroke-width: 0.6"/>
      </g>
     </g>
    </g>
    <g id="ytick_16">
     <g id="line2d_53">
      <g>
       <use xlink:href="#macf476ee00" x="44.960938" y="216.89561" style="stroke: #000000; stroke-width: 0.6"/>
      </g>
     </g>
    </g>
    <g id="ytick_17">
     <g id="line2d_54">
      <g>
       <use xlink:href="#macf476ee00" x="44.960938" y="204.602927" style="stroke: #000000; stroke-width: 0.6"/>
      </g>
     </g>
    </g>
    <g id="ytick_18">
     <g id="line2d_55">
      <g>
       <use xlink:href="#macf476ee00" x="44.960938" y="192.310244" style="stroke: #000000; stroke-width: 0.6"/>
      </g>
     </g>
    </g>
    <g id="ytick_19">
     <g id="line2d_56">
      <g>
       <use xlink:href="#macf476ee00" x="44.960938" y="167.724878" style="stroke: #000000; stroke-width: 0.6"/>
      </g>
     </g>
    </g>
    <g id="ytick_20">
     <g id="line2d_57">
      <g>
       <use xlink:href="#macf476ee00" x="44.960938" y="155.432195" style="stroke: #000000; stroke-width: 0.6"/>
      </g>
     </g>
    </g>
    <g id="ytick_21">
     <g id="line2d_58">
      <g>
       <use xlink:href="#macf476ee00" x="44.960938" y="143.139512" style="stroke: #000000; stroke-width: 0.6"/>
      </g>
     </g>
    </g>
    <g id="ytick_22">
     <g id="line2d_59">
      <g>
       <use xlink:href="#macf476ee00" x="44.960938" y="130.846829" style="stroke: #000000; stroke-width: 0.6"/>
      </g>
     </g>
    </g>
    <g id="ytick_23">
     <g id="line2d_60">
      <g>
       <use xlink:href="#macf476ee00" x="44.960938" y="106.261463" style="stroke: #000000; stroke-width: 0.6"/>
      </g>
     </g>
    </g>
    <g id="ytick_24">
     <g id="line2d_61">
      <g>
       <use xlink:href="#macf476ee00" x="44.960938" y="93.96878" style="stroke: #000000; stroke-width: 0.6"/>
      </g>
     </g>
    </g>
    <g id="ytick_25">
     <g id="line2d_62">
      <g>
       <use xlink:href="#macf476ee00" x="44.960938" y="81.676098" style="stroke: #000000; stroke-width: 0.6"/>
      </g>
     </g>
    </g>
    <g id="ytick_26">
     <g id="line2d_63">
      <g>
       <use xlink:href="#macf476ee00" x="44.960938" y="69.383415" style="stroke: #000000; stroke-width: 0.6"/>
      </g>
     </g>
    </g>
    <g id="ytick_27">
     <g id="line2d_64">
      <g>
       <use xlink:href="#macf476ee00" x="44.960938" y="44.798049" style="stroke: #000000; stroke-width: 0.6"/>
      </g>
     </g>
    </g>
    <g id="text_16">
     <!-- Gewichtänderung [kg] -->
     <g transform="translate(7.598438 265.437969) rotate(-90) scale(0.1 -0.1)">
      <defs>
       <path id="DejaVuSans-47" d="M 3809 666 
L 3809 1919 
L 2778 1919 
L 2778 2438 
L 4434 2438 
L 4434 434 
Q 4069 175 3628 42 
Q 3188 -91 2688 -91 
Q 1594 -91 976 548 
Q 359 1188 359 2328 
Q 359 3472 976 4111 
Q 1594 4750 2688 4750 
Q 3144 4750 3555 4637 
Q 3966 4525 4313 4306 
L 4313 3634 
Q 3963 3931 3569 4081 
Q 3175 4231 2741 4231 
Q 1884 4231 1454 3753 
Q 1025 3275 1025 2328 
Q 1025 1384 1454 906 
Q 1884 428 2741 428 
Q 3075 428 3337 486 
Q 3600 544 3809 666 
z
" transform="scale(0.015625)"/>
       <path id="DejaVuSans-65" d="M 3597 1894 
L 3597 1613 
L 953 1613 
Q 991 1019 1311 708 
Q 1631 397 2203 397 
Q 2534 397 2845 478 
Q 3156 559 3463 722 
L 3463 178 
Q 3153 47 2828 -22 
Q 2503 -91 2169 -91 
Q 1331 -91 842 396 
Q 353 884 353 1716 
Q 353 2575 817 3079 
Q 1281 3584 2069 3584 
Q 2775 3584 3186 3129 
Q 3597 2675 3597 1894 
z
M 3022 2063 
Q 3016 2534 2758 2815 
Q 2500 3097 2075 3097 
Q 1594 3097 1305 2825 
Q 1016 2553 972 2059 
L 3022 2063 
z
" transform="scale(0.015625)"/>
       <path id="DejaVuSans-77" d="M 269 3500 
L 844 3500 
L 1563 769 
L 2278 3500 
L 2956 3500 
L 3675 769 
L 4391 3500 
L 4966 3500 
L 4050 0 
L 3372 0 
L 2619 2869 
L 1863 0 
L 1184 0 
L 269 3500 
z
" transform="scale(0.015625)"/>
       <path id="DejaVuSans-63" d="M 3122 3366 
L 3122 2828 
Q 2878 2963 2633 3030 
Q 2388 3097 2138 3097 
Q 1578 3097 1268 2742 
Q 959 2388 959 1747 
Q 959 1106 1268 751 
Q 1578 397 2138 397 
Q 2388 397 2633 464 
Q 2878 531 3122 666 
L 3122 134 
Q 2881 22 2623 -34 
Q 2366 -91 2075 -91 
Q 1284 -91 818 406 
Q 353 903 353 1747 
Q 353 2603 823 3093 
Q 1294 3584 2113 3584 
Q 2378 3584 2631 3529 
Q 2884 3475 3122 3366 
z
" transform="scale(0.015625)"/>
       <path id="DejaVuSans-68" d="M 3513 2113 
L 3513 0 
L 2938 0 
L 2938 2094 
Q 2938 2591 2744 2837 
Q 2550 3084 2163 3084 
Q 1697 3084 1428 2787 
Q 1159 2491 1159 1978 
L 1159 0 
L 581 0 
L 581 4863 
L 1159 4863 
L 1159 2956 
Q 1366 3272 1645 3428 
Q 1925 3584 2291 3584 
Q 2894 3584 3203 3211 
Q 3513 2838 3513 2113 
z
" transform="scale(0.015625)"/>
       <path id="DejaVuSans-64" d="M 2906 2969 
L 2906 4863 
L 3481 4863 
L 3481 0 
L 2906 0 
L 2906 525 
Q 2725 213 2448 61 
Q 2172 -91 1784 -91 
Q 1150 -91 751 415 
Q 353 922 353 1747 
Q 353 2572 751 3078 
Q 1150 3584 1784 3584 
Q 2172 3584 2448 3432 
Q 2725 3281 2906 2969 
z
M 947 1747 
Q 947 1113 1208 752 
Q 1469 391 1925 391 
Q 2381 391 2643 752 
Q 2906 1113 2906 1747 
Q 2906 2381 2643 2742 
Q 2381 3103 1925 3103 
Q 1469 3103 1208 2742 
Q 947 2381 947 1747 
z
" transform="scale(0.015625)"/>
       <path id="DejaVuSans-67" d="M 2906 1791 
Q 2906 2416 2648 2759 
Q 2391 3103 1925 3103 
Q 1463 3103 1205 2759 
Q 947 2416 947 1791 
Q 947 1169 1205 825 
Q 1463 481 1925 481 
Q 2391 481 2648 825 
Q 2906 1169 2906 1791 
z
M 3481 434 
Q 3481 -459 3084 -895 
Q 2688 -1331 1869 -1331 
Q 1566 -1331 1297 -1286 
Q 1028 -1241 775 -1147 
L 775 -588 
Q 1028 -725 1275 -790 
Q 1522 -856 1778 -856 
Q 2344 -856 2625 -561 
Q 2906 -266 2906 331 
L 2906 616 
Q 2728 306 2450 153 
Q 2172 0 1784 0 
Q 1141 0 747 490 
Q 353 981 353 1791 
Q 353 2603 747 3093 
Q 1141 3584 1784 3584 
Q 2172 3584 2450 3431 
Q 2728 3278 2906 2969 
L 2906 3500 
L 3481 3500 
L 3481 434 
z
" transform="scale(0.015625)"/>
       <path id="DejaVuSans-20" transform="scale(0.015625)"/>
       <path id="DejaVuSans-5b" d="M 550 4863 
L 1875 4863 
L 1875 4416 
L 1125 4416 
L 1125 -397 
L 1875 -397 
L 1875 -844 
L 550 -844 
L 550 4863 
z
" transform="scale(0.015625)"/>
       <path id="DejaVuSans-6b" d="M 581 4863 
L 1159 4863 
L 1159 1991 
L 2875 3500 
L 3609 3500 
L 1753 1863 
L 3688 0 
L 2938 0 
L 1159 1709 
L 1159 0 
L 581 0 
L 581 4863 
z
" transform="scale(0.015625)"/>
       <path id="DejaVuSans-5d" d="M 1947 4863 
L 1947 -844 
L 622 -844 
L 622 -397 
L 1369 -397 
L 1369 4416 
L 622 4416 
L 622 4863 
L 1947 4863 
z
" transform="scale(0.015625)"/>
      </defs>
      <use xlink:href="#DejaVuSans-47"/>
      <use xlink:href="#DejaVuSans-65" transform="translate(77.490234 0)"/>
      <use xlink:href="#DejaVuSans-77" transform="translate(139.013672 0)"/>
      <use xlink:href="#DejaVuSans-69" transform="translate(220.800781 0)"/>
      <use xlink:href="#DejaVuSans-63" transform="translate(248.583984 0)"/>
      <use xlink:href="#DejaVuSans-68" transform="translate(303.564453 0)"/>
      <use xlink:href="#DejaVuSans-74" transform="translate(366.943359 0)"/>
      <use xlink:href="#DejaVuSans-e4" transform="translate(406.152344 0)"/>
      <use xlink:href="#DejaVuSans-6e" transform="translate(467.431641 0)"/>
      <use xlink:href="#DejaVuSans-64" transform="translate(530.810547 0)"/>
      <use xlink:href="#DejaVuSans-65" transform="translate(594.287109 0)"/>
      <use xlink:href="#DejaVuSans-72" transform="translate(655.810547 0)"/>
      <use xlink:href="#DejaVuSans-75" transform="translate(696.923828 0)"/>
      <use xlink:href="#DejaVuSans-6e" transform="translate(760.302734 0)"/>
      <use xlink:href="#DejaVuSans-67" transform="translate(823.681641 0)"/>
      <use xlink:href="#DejaVuSans-20" transform="translate(887.158203 0)"/>
      <use xlink:href="#DejaVuSans-5b" transform="translate(918.945312 0)"/>
      <use xlink:href="#DejaVuSans-6b" transform="translate(957.958984 0)"/>
      <use xlink:href="#DejaVuSans-67" transform="translate(1015.869141 0)"/>
      <use xlink:href="#DejaVuSans-5d" transform="translate(1079.345703 0)"/>
     </g>
    </g>
   </g>
   <g id="patch_113">
    <path d="M 44.960938 375.84 
L 44.960938 43.2 
" style="fill: none; stroke: #000000; stroke-width: 0.8; stroke-linejoin: miter; stroke-linecap: square"/>
   </g>
   <g id="patch_114">
    <path d="M 714.560938 375.84 
L 714.560938 43.2 
" style="fill: none; stroke: #000000; stroke-width: 0.8; stroke-linejoin: miter; stroke-linecap: square"/>
   </g>
   <g id="patch_115">
    <path d="M 44.960938 375.84 
L 714.560937 375.84 
" style="fill: none; stroke: #000000; stroke-width: 0.8; stroke-linejoin: miter; stroke-linecap: square"/>
   </g>
   <g id="patch_116">
    <path d="M 44.960938 43.2 
L 714.560937 43.2 
" style="fill: none; stroke: #000000; stroke-width: 0.8; stroke-linejoin: miter; stroke-linecap: square"/>
   </g>
   <g id="text_17">
    <!-- Trachtänderung im aktuellen Jahr -->
    <g transform="translate(279.749375 37.2) scale(0.12 -0.12)">
     <defs>
      <path id="DejaVuSans-54" d="M -19 4666 
L 3928 4666 
L 3928 4134 
L 2272 4134 
L 2272 0 
L 1638 0 
L 1638 4134 
L -19 4134 
L -19 4666 
z
" transform="scale(0.015625)"/>
      <path id="DejaVuSans-6d" d="M 3328 2828 
Q 3544 3216 3844 3400 
Q 4144 3584 4550 3584 
Q 5097 3584 5394 3201 
Q 5691 2819 5691 2113 
L 5691 0 
L 5113 0 
L 5113 2094 
Q 5113 2597 4934 2840 
Q 4756 3084 4391 3084 
Q 3944 3084 3684 2787 
Q 3425 2491 3425 1978 
L 3425 0 
L 2847 0 
L 2847 2094 
Q 2847 2600 2669 2842 
Q 2491 3084 2119 3084 
Q 1678 3084 1418 2786 
Q 1159 2488 1159 1978 
L 1159 0 
L 581 0 
L 581 3500 
L 1159 3500 
L 1159 2956 
Q 1356 3278 1631 3431 
Q 1906 3584 2284 3584 
Q 2666 3584 2933 3390 
Q 3200 3197 3328 2828 
z
" transform="scale(0.015625)"/>
      <path id="DejaVuSans-6c" d="M 603 4863 
L 1178 4863 
L 1178 0 
L 603 0 
L 603 4863 
z
" transform="scale(0.015625)"/>
     </defs>
     <use xlink:href="#DejaVuSans-54"/>
     <use xlink:href="#DejaVuSans-72" transform="translate(46.333984 0)"/>
     <use xlink:href="#DejaVuSans-61" transform="translate(87.447266 0)"/>
     <use xlink:href="#DejaVuSans-63" transform="translate(148.726562 0)"/>
     <use xlink:href="#DejaVuSans-68" transform="translate(203.707031 0)"/>
     <use xlink:href="#DejaVuSans-74" transform="translate(267.085938 0)"/>
     <use xlink:href="#DejaVuSans-e4" transform="translate(306.294922 0)"/>
     <use xlink:href="#DejaVuSans-6e" transform="translate(367.574219 0)"/>
     <use xlink:href="#DejaVuSans-64" transform="translate(430.953125 0)"/>
     <use xlink:href="#DejaVuSans-65" transform="translate(494.429688 0)"/>
     <use xlink:href="#DejaVuSans-72" transform="translate(555.953125 0)"/>
     <use xlink:href="#DejaVuSans-75" transform="translate(597.066406 0)"/>
     <use xlink:href="#DejaVuSans-6e" transform="translate(660.445312 0)"/>
     <use xlink:href="#DejaVuSans-67" transform="translate(723.824219 0)"/>
     <use xlink:href="#DejaVuSans-20" transform="translate(787.300781 0)"/>
     <use xlink:href="#DejaVuSans-69" transform="translate(819.087891 0)"/>
     <use xlink:href="#DejaVuSans-6d" transform="translate(846.871094 0)"/>
     <use xlink:href="#DejaVuSans-20" transform="translate(944.283203 0)"/>
     <use xlink:href="#DejaVuSans-61" transform="translate(976.070312 0)"/>
     <use xlink:href="#DejaVuSans-6b" transform="translate(1037.349609 0)"/>
     <use xlink:href="#DejaVuSans-74" transform="translate(1095.259766 0)"/>
     <use xlink:href="#DejaVuSans-75" transform="translate(1134.46875 0)"/>
     <use xlink:href="#DejaVuSans-65" transform="translate(1197.847656 0)"/>
     <use xlink:href="#DejaVuSans-6c" transform="translate(1259.371094 0)"/>
     <use xlink:href="#DejaVuSans-6c" transform="translate(1287.154297 0)"/>
     <use xlink:href="#DejaVuSans-65" transform="translate(1314.9375 0)"/>
     <use xlink:href="#DejaVuSans-6e" transform="translate(1376.460938 0)"/>
     <use xlink:href="#DejaVuSans-20" transform="translate(1439.839844 0)"/>
     <use xlink:href="#DejaVuSans-4a" transform="translate(1471.626953 0)"/>
     <use xlink:href="#DejaVuSans-61" transform="translate(1501.119141 0)"/>
     <use xlink:href="#DejaVuSans-68" transform="translate(1562.398438 0)"/>
     <use xlink:href="#DejaVuSans-72" transform="translate(1625.777344 0)"/>
    </g>
   </g>
   <g id="legend_1">
    <g id="patch_117">
     <path d="M 650.110937 65.878125 
L 707.560938 65.878125 
Q 709.560938 65.878125 709.560938 63.878125 
L 709.560938 50.2 
Q 709.560938 48.2 707.560938 48.2 
L 650.110937 48.2 
Q 648.110937 48.2 648.110937 50.2 
L 648.110937 63.878125 
Q 648.110937 65.878125 650.110937 65.878125 
z
" style="fill: #ffffff; opacity: 0.8; stroke: #cccccc; stroke-linejoin: miter"/>
    </g>
    <g id="patch_118">
     <path d="M 652.110937 59.798438 
L 672.110937 59.798438 
L 672.110937 52.798438 
L 652.110937 52.798438 
z
" style="fill: #1f77b4"/>
    </g>
    <g id="text_18">
     <!-- 2025 -->
     <g transform="translate(680.110937 59.798438) scale(0.1 -0.1)">
      <use xlink:href="#DejaVuSans-32"/>
      <use xlink:href="#DejaVuSans-30" transform="translate(63.623047 0)"/>
      <use xlink:href="#DejaVuSans-32" transform="translate(127.246094 0)"/>
      <use xlink:href="#DejaVuSans-35" transform="translate(190.869141 0)"/>
     </g>
    </g>
   </g>
  </g>
  <g id="text_19">
   <!-- Bayern -->
   <g transform="translate(347.760312 9.118125) scale(0.12 -0.12)">
    <defs>
     <path id="DejaVuSans-42" d="M 1259 2228 
L 1259 519 
L 2272 519 
Q 2781 519 3026 730 
Q 3272 941 3272 1375 
Q 3272 1813 3026 2020 
Q 2781 2228 2272 2228 
L 1259 2228 
z
M 1259 4147 
L 1259 2741 
L 2194 2741 
Q 2656 2741 2882 2914 
Q 3109 3088 3109 3444 
Q 3109 3797 2882 3972 
Q 2656 4147 2194 4147 
L 1259 4147 
z
M 628 4666 
L 2241 4666 
Q 2963 4666 3353 4366 
Q 3744 4066 3744 3513 
Q 3744 3084 3544 2831 
Q 3344 2578 2956 2516 
Q 3422 2416 3680 2098 
Q 3938 1781 3938 1306 
Q 3938 681 3513 340 
Q 3088 0 2303 0 
L 628 0 
L 628 4666 
z
" transform="scale(0.015625)"/>
     <path id="DejaVuSans-79" d="M 2059 -325 
Q 1816 -950 1584 -1140 
Q 1353 -1331 966 -1331 
L 506 -1331 
L 506 -850 
L 844 -850 
Q 1081 -850 1212 -737 
Q 1344 -625 1503 -206 
L 1606 56 
L 191 3500 
L 800 3500 
L 1894 763 
L 2988 3500 
L 3597 3500 
L 2059 -325 
z
" transform="scale(0.015625)"/>
    </defs>
    <use xlink:href="#DejaVuSans-42"/>
    <use xlink:href="#DejaVuSans-61" transform="translate(68.603516 0)"/>
    <use xlink:href="#DejaVuSans-79" transform="translate(129.882812 0)"/>
    <use xlink:href="#DejaVuSans-65" transform="translate(189.0625 0)"/>
    <use xlink:href="#DejaVuSans-72" transform="translate(250.585938 0)"/>
    <use xlink:href="#DejaVuSans-6e" transform="translate(289.949219 0)"/>
   </g>
  </g>
 </g>
 <defs>
  <clipPath id="p0f8cd6278e">
   <rect x="44.960938" y="43.2" width="669.6" height="332.64"/>
  </clipPath>
 </defs>
</svg>
