<?xml version="1.0" encoding="utf-8" standalone="no"?>
<!DOCTYPE svg PUBLIC "-//W3C//DTD SVG 1.1//EN"
  "http://www.w3.org/Graphics/SVG/1.1/DTD/svg11.dtd">
<svg xmlns:xlink="http://www.w3.org/1999/xlink" width="703.003125pt" height="406.19625pt" viewBox="0 0 703.003125 406.19625" xmlns="http://www.w3.org/2000/svg" version="1.1">
 <metadata>
  <rdf:RDF xmlns:dc="http://purl.org/dc/elements/1.1/" xmlns:cc="http://creativecommons.org/ns#" xmlns:rdf="http://www.w3.org/1999/02/22-rdf-syntax-ns#">
   <cc:Work>
    <dc:type rdf:resource="http://purl.org/dc/dcmitype/StillImage"/>
    <dc:date>2025-06-07T15:48:53.273176</dc:date>
    <dc:format>image/svg+xml</dc:format>
    <dc:creator>
     <cc:Agent>
      <dc:title>Matplotlib v3.10.3, https://matplotlib.org/</dc:title>
     </cc:Agent>
    </dc:creator>
   </cc:Work>
  </rdf:RDF>
 </metadata>
 <defs>
  <style type="text/css">*{stroke-linejoin: round; stroke-linecap: butt}</style>
 </defs>
 <g id="figure_1">
  <g id="patch_1">
   <path d="M 0 406.19625 
L 703.003125 406.19625 
L 703.003125 0 
L 0 0 
z
" style="fill: #ffffff"/>
  </g>
  <g id="axes_1">
   <g id="patch_2">
    <path d="M 33.403125 375.84 
L 703.003125 375.84 
L 703.003125 43.2 
L 33.403125 43.2 
z
" style="fill: #ffffff"/>
   </g>
   <g id="matplotlib.axis_1">
    <g id="xtick_1">
     <g id="line2d_1">
      <path d="M 63.839489 375.84 
L 63.839489 43.2 
" clip-path="url(#pd443a3e24b)" style="fill: none; stroke: #b0b0b0; stroke-width: 0.8; stroke-linecap: square"/>
     </g>
     <g id="line2d_2">
      <defs>
       <path id="m583de9d0e6" d="M 0 0 
L 0 3.5 
" style="stroke: #000000; stroke-width: 0.8"/>
      </defs>
      <g>
       <use xlink:href="#m583de9d0e6" x="63.839489" y="375.84" style="stroke: #000000; stroke-width: 0.8"/>
      </g>
     </g>
     <g id="text_1">
      <!-- Mär -->
      <g transform="translate(54.405895 390.438438) scale(0.1 -0.1)">
       <defs>
        <path id="DejaVuSans-4d" d="M 628 4666 
L 1569 4666 
L 2759 1491 
L 3956 4666 
L 4897 4666 
L 4897 0 
L 4281 0 
L 4281 4097 
L 3078 897 
L 2444 897 
L 1241 4097 
L 1241 0 
L 628 0 
L 628 4666 
z
" transform="scale(0.015625)"/>
        <path id="DejaVuSans-e4" d="M 2194 1759 
Q 1497 1759 1228 1600 
Q 959 1441 959 1056 
Q 959 750 1161 570 
Q 1363 391 1709 391 
Q 2188 391 2477 730 
Q 2766 1069 2766 1631 
L 2766 1759 
L 2194 1759 
z
M 3341 1997 
L 3341 0 
L 2766 0 
L 2766 531 
Q 2569 213 2275 61 
Q 1981 -91 1556 -91 
Q 1019 -91 701 211 
Q 384 513 384 1019 
Q 384 1609 779 1909 
Q 1175 2209 1959 2209 
L 2766 2209 
L 2766 2266 
Q 2766 2663 2505 2880 
Q 2244 3097 1772 3097 
Q 1472 3097 1187 3025 
Q 903 2953 641 2809 
L 641 3341 
Q 956 3463 1253 3523 
Q 1550 3584 1831 3584 
Q 2591 3584 2966 3190 
Q 3341 2797 3341 1997 
z
M 2150 4850 
L 2784 4850 
L 2784 4219 
L 2150 4219 
L 2150 4850 
z
M 928 4850 
L 1562 4850 
L 1562 4219 
L 928 4219 
L 928 4850 
z
" transform="scale(0.015625)"/>
        <path id="DejaVuSans-72" d="M 2631 2963 
Q 2534 3019 2420 3045 
Q 2306 3072 2169 3072 
Q 1681 3072 1420 2755 
Q 1159 2438 1159 1844 
L 1159 0 
L 581 0 
L 581 3500 
L 1159 3500 
L 1159 2956 
Q 1341 3275 1631 3429 
Q 1922 3584 2338 3584 
Q 2397 3584 2469 3576 
Q 2541 3569 2628 3553 
L 2631 2963 
z
" transform="scale(0.015625)"/>
       </defs>
       <use xlink:href="#DejaVuSans-4d"/>
       <use xlink:href="#DejaVuSans-e4" transform="translate(86.279297 0)"/>
       <use xlink:href="#DejaVuSans-72" transform="translate(147.558594 0)"/>
      </g>
     </g>
    </g>
    <g id="xtick_2">
     <g id="line2d_3">
      <path d="M 187.987814 375.84 
L 187.987814 43.2 
" clip-path="url(#pd443a3e24b)" style="fill: none; stroke: #b0b0b0; stroke-width: 0.8; stroke-linecap: square"/>
     </g>
     <g id="line2d_4">
      <g>
       <use xlink:href="#m583de9d0e6" x="187.987814" y="375.84" style="stroke: #000000; stroke-width: 0.8"/>
      </g>
     </g>
     <g id="text_2">
      <!-- Apr -->
      <g transform="translate(179.337814 390.438438) scale(0.1 -0.1)">
       <defs>
        <path id="DejaVuSans-41" d="M 2188 4044 
L 1331 1722 
L 3047 1722 
L 2188 4044 
z
M 1831 4666 
L 2547 4666 
L 4325 0 
L 3669 0 
L 3244 1197 
L 1141 1197 
L 716 0 
L 50 0 
L 1831 4666 
z
" transform="scale(0.015625)"/>
        <path id="DejaVuSans-70" d="M 1159 525 
L 1159 -1331 
L 581 -1331 
L 581 3500 
L 1159 3500 
L 1159 2969 
Q 1341 3281 1617 3432 
Q 1894 3584 2278 3584 
Q 2916 3584 3314 3078 
Q 3713 2572 3713 1747 
Q 3713 922 3314 415 
Q 2916 -91 2278 -91 
Q 1894 -91 1617 61 
Q 1341 213 1159 525 
z
M 3116 1747 
Q 3116 2381 2855 2742 
Q 2594 3103 2138 3103 
Q 1681 3103 1420 2742 
Q 1159 2381 1159 1747 
Q 1159 1113 1420 752 
Q 1681 391 2138 391 
Q 2594 391 2855 752 
Q 3116 1113 3116 1747 
z
" transform="scale(0.015625)"/>
       </defs>
       <use xlink:href="#DejaVuSans-41"/>
       <use xlink:href="#DejaVuSans-70" transform="translate(68.408203 0)"/>
       <use xlink:href="#DejaVuSans-72" transform="translate(131.884766 0)"/>
      </g>
     </g>
    </g>
    <g id="xtick_3">
     <g id="line2d_5">
      <path d="M 308.131355 375.84 
L 308.131355 43.2 
" clip-path="url(#pd443a3e24b)" style="fill: none; stroke: #b0b0b0; stroke-width: 0.8; stroke-linecap: square"/>
     </g>
     <g id="line2d_6">
      <g>
       <use xlink:href="#m583de9d0e6" x="308.131355" y="375.84" style="stroke: #000000; stroke-width: 0.8"/>
      </g>
     </g>
     <g id="text_3">
      <!-- Mai -->
      <g transform="translate(299.364167 390.438438) scale(0.1 -0.1)">
       <defs>
        <path id="DejaVuSans-61" d="M 2194 1759 
Q 1497 1759 1228 1600 
Q 959 1441 959 1056 
Q 959 750 1161 570 
Q 1363 391 1709 391 
Q 2188 391 2477 730 
Q 2766 1069 2766 1631 
L 2766 1759 
L 2194 1759 
z
M 3341 1997 
L 3341 0 
L 2766 0 
L 2766 531 
Q 2569 213 2275 61 
Q 1981 -91 1556 -91 
Q 1019 -91 701 211 
Q 384 513 384 1019 
Q 384 1609 779 1909 
Q 1175 2209 1959 2209 
L 2766 2209 
L 2766 2266 
Q 2766 2663 2505 2880 
Q 2244 3097 1772 3097 
Q 1472 3097 1187 3025 
Q 903 2953 641 2809 
L 641 3341 
Q 956 3463 1253 3523 
Q 1550 3584 1831 3584 
Q 2591 3584 2966 3190 
Q 3341 2797 3341 1997 
z
" transform="scale(0.015625)"/>
        <path id="DejaVuSans-69" d="M 603 3500 
L 1178 3500 
L 1178 0 
L 603 0 
L 603 3500 
z
M 603 4863 
L 1178 4863 
L 1178 4134 
L 603 4134 
L 603 4863 
z
" transform="scale(0.015625)"/>
       </defs>
       <use xlink:href="#DejaVuSans-4d"/>
       <use xlink:href="#DejaVuSans-61" transform="translate(86.279297 0)"/>
       <use xlink:href="#DejaVuSans-69" transform="translate(147.558594 0)"/>
      </g>
     </g>
    </g>
    <g id="xtick_4">
     <g id="line2d_7">
      <path d="M 432.27968 375.84 
L 432.27968 43.2 
" clip-path="url(#pd443a3e24b)" style="fill: none; stroke: #b0b0b0; stroke-width: 0.8; stroke-linecap: square"/>
     </g>
     <g id="line2d_8">
      <g>
       <use xlink:href="#m583de9d0e6" x="432.27968" y="375.84" style="stroke: #000000; stroke-width: 0.8"/>
      </g>
     </g>
     <g id="text_4">
      <!-- Jun -->
      <g transform="translate(424.46718 390.438438) scale(0.1 -0.1)">
       <defs>
        <path id="DejaVuSans-4a" d="M 628 4666 
L 1259 4666 
L 1259 325 
Q 1259 -519 939 -900 
Q 619 -1281 -91 -1281 
L -331 -1281 
L -331 -750 
L -134 -750 
Q 284 -750 456 -515 
Q 628 -281 628 325 
L 628 4666 
z
" transform="scale(0.015625)"/>
        <path id="DejaVuSans-75" d="M 544 1381 
L 544 3500 
L 1119 3500 
L 1119 1403 
Q 1119 906 1312 657 
Q 1506 409 1894 409 
Q 2359 409 2629 706 
Q 2900 1003 2900 1516 
L 2900 3500 
L 3475 3500 
L 3475 0 
L 2900 0 
L 2900 538 
Q 2691 219 2414 64 
Q 2138 -91 1772 -91 
Q 1169 -91 856 284 
Q 544 659 544 1381 
z
M 1991 3584 
L 1991 3584 
z
" transform="scale(0.015625)"/>
        <path id="DejaVuSans-6e" d="M 3513 2113 
L 3513 0 
L 2938 0 
L 2938 2094 
Q 2938 2591 2744 2837 
Q 2550 3084 2163 3084 
Q 1697 3084 1428 2787 
Q 1159 2491 1159 1978 
L 1159 0 
L 581 0 
L 581 3500 
L 1159 3500 
L 1159 2956 
Q 1366 3272 1645 3428 
Q 1925 3584 2291 3584 
Q 2894 3584 3203 3211 
Q 3513 2838 3513 2113 
z
" transform="scale(0.015625)"/>
       </defs>
       <use xlink:href="#DejaVuSans-4a"/>
       <use xlink:href="#DejaVuSans-75" transform="translate(29.492188 0)"/>
       <use xlink:href="#DejaVuSans-6e" transform="translate(92.871094 0)"/>
      </g>
     </g>
    </g>
    <g id="xtick_5">
     <g id="line2d_9">
      <path d="M 552.423221 375.84 
L 552.423221 43.2 
" clip-path="url(#pd443a3e24b)" style="fill: none; stroke: #b0b0b0; stroke-width: 0.8; stroke-linecap: square"/>
     </g>
     <g id="line2d_10">
      <g>
       <use xlink:href="#m583de9d0e6" x="552.423221" y="375.84" style="stroke: #000000; stroke-width: 0.8"/>
      </g>
     </g>
     <g id="text_5">
      <!-- Jul -->
      <g transform="translate(546.390408 390.438438) scale(0.1 -0.1)">
       <defs>
        <path id="DejaVuSans-6c" d="M 603 4863 
L 1178 4863 
L 1178 0 
L 603 0 
L 603 4863 
z
" transform="scale(0.015625)"/>
       </defs>
       <use xlink:href="#DejaVuSans-4a"/>
       <use xlink:href="#DejaVuSans-75" transform="translate(29.492188 0)"/>
       <use xlink:href="#DejaVuSans-6c" transform="translate(92.871094 0)"/>
      </g>
     </g>
    </g>
    <g id="xtick_6">
     <g id="line2d_11">
      <path d="M 676.571546 375.84 
L 676.571546 43.2 
" clip-path="url(#pd443a3e24b)" style="fill: none; stroke: #b0b0b0; stroke-width: 0.8; stroke-linecap: square"/>
     </g>
     <g id="line2d_12">
      <g>
       <use xlink:href="#m583de9d0e6" x="676.571546" y="375.84" style="stroke: #000000; stroke-width: 0.8"/>
      </g>
     </g>
     <g id="text_6">
      <!-- Aug -->
      <g transform="translate(666.808265 390.438438) scale(0.1 -0.1)">
       <defs>
        <path id="DejaVuSans-67" d="M 2906 1791 
Q 2906 2416 2648 2759 
Q 2391 3103 1925 3103 
Q 1463 3103 1205 2759 
Q 947 2416 947 1791 
Q 947 1169 1205 825 
Q 1463 481 1925 481 
Q 2391 481 2648 825 
Q 2906 1169 2906 1791 
z
M 3481 434 
Q 3481 -459 3084 -895 
Q 2688 -1331 1869 -1331 
Q 1566 -1331 1297 -1286 
Q 1028 -1241 775 -1147 
L 775 -588 
Q 1028 -725 1275 -790 
Q 1522 -856 1778 -856 
Q 2344 -856 2625 -561 
Q 2906 -266 2906 331 
L 2906 616 
Q 2728 306 2450 153 
Q 2172 0 1784 0 
Q 1141 0 747 490 
Q 353 981 353 1791 
Q 353 2603 747 3093 
Q 1141 3584 1784 3584 
Q 2172 3584 2450 3431 
Q 2728 3278 2906 2969 
L 2906 3500 
L 3481 3500 
L 3481 434 
z
" transform="scale(0.015625)"/>
       </defs>
       <use xlink:href="#DejaVuSans-41"/>
       <use xlink:href="#DejaVuSans-75" transform="translate(68.408203 0)"/>
       <use xlink:href="#DejaVuSans-67" transform="translate(131.787109 0)"/>
      </g>
     </g>
    </g>
    <g id="xtick_7">
     <g id="line2d_13">
      <defs>
       <path id="mb89823269c" d="M 0 0 
L 0 2 
" style="stroke: #000000; stroke-width: 0.6"/>
      </defs>
      <g>
       <use xlink:href="#mb89823269c" x="43.815565" y="375.84" style="stroke: #000000; stroke-width: 0.6"/>
      </g>
     </g>
    </g>
    <g id="xtick_8">
     <g id="line2d_14">
      <g>
       <use xlink:href="#mb89823269c" x="71.849058" y="375.84" style="stroke: #000000; stroke-width: 0.6"/>
      </g>
     </g>
    </g>
    <g id="xtick_9">
     <g id="line2d_15">
      <g>
       <use xlink:href="#mb89823269c" x="99.882551" y="375.84" style="stroke: #000000; stroke-width: 0.6"/>
      </g>
     </g>
    </g>
    <g id="xtick_10">
     <g id="line2d_16">
      <g>
       <use xlink:href="#mb89823269c" x="127.916044" y="375.84" style="stroke: #000000; stroke-width: 0.6"/>
      </g>
     </g>
    </g>
    <g id="xtick_11">
     <g id="line2d_17">
      <g>
       <use xlink:href="#mb89823269c" x="155.949536" y="375.84" style="stroke: #000000; stroke-width: 0.6"/>
      </g>
     </g>
    </g>
    <g id="xtick_12">
     <g id="line2d_18">
      <g>
       <use xlink:href="#mb89823269c" x="183.983029" y="375.84" style="stroke: #000000; stroke-width: 0.6"/>
      </g>
     </g>
    </g>
    <g id="xtick_13">
     <g id="line2d_19">
      <g>
       <use xlink:href="#mb89823269c" x="212.016522" y="375.84" style="stroke: #000000; stroke-width: 0.6"/>
      </g>
     </g>
    </g>
    <g id="xtick_14">
     <g id="line2d_20">
      <g>
       <use xlink:href="#mb89823269c" x="240.050015" y="375.84" style="stroke: #000000; stroke-width: 0.6"/>
      </g>
     </g>
    </g>
    <g id="xtick_15">
     <g id="line2d_21">
      <g>
       <use xlink:href="#mb89823269c" x="268.083508" y="375.84" style="stroke: #000000; stroke-width: 0.6"/>
      </g>
     </g>
    </g>
    <g id="xtick_16">
     <g id="line2d_22">
      <g>
       <use xlink:href="#mb89823269c" x="296.117001" y="375.84" style="stroke: #000000; stroke-width: 0.6"/>
      </g>
     </g>
    </g>
    <g id="xtick_17">
     <g id="line2d_23">
      <g>
       <use xlink:href="#mb89823269c" x="324.150493" y="375.84" style="stroke: #000000; stroke-width: 0.6"/>
      </g>
     </g>
    </g>
    <g id="xtick_18">
     <g id="line2d_24">
      <g>
       <use xlink:href="#mb89823269c" x="352.183986" y="375.84" style="stroke: #000000; stroke-width: 0.6"/>
      </g>
     </g>
    </g>
    <g id="xtick_19">
     <g id="line2d_25">
      <g>
       <use xlink:href="#mb89823269c" x="380.217479" y="375.84" style="stroke: #000000; stroke-width: 0.6"/>
      </g>
     </g>
    </g>
    <g id="xtick_20">
     <g id="line2d_26">
      <g>
       <use xlink:href="#mb89823269c" x="408.250972" y="375.84" style="stroke: #000000; stroke-width: 0.6"/>
      </g>
     </g>
    </g>
    <g id="xtick_21">
     <g id="line2d_27">
      <g>
       <use xlink:href="#mb89823269c" x="436.284465" y="375.84" style="stroke: #000000; stroke-width: 0.6"/>
      </g>
     </g>
    </g>
    <g id="xtick_22">
     <g id="line2d_28">
      <g>
       <use xlink:href="#mb89823269c" x="464.317958" y="375.84" style="stroke: #000000; stroke-width: 0.6"/>
      </g>
     </g>
    </g>
    <g id="xtick_23">
     <g id="line2d_29">
      <g>
       <use xlink:href="#mb89823269c" x="492.35145" y="375.84" style="stroke: #000000; stroke-width: 0.6"/>
      </g>
     </g>
    </g>
    <g id="xtick_24">
     <g id="line2d_30">
      <g>
       <use xlink:href="#mb89823269c" x="520.384943" y="375.84" style="stroke: #000000; stroke-width: 0.6"/>
      </g>
     </g>
    </g>
    <g id="xtick_25">
     <g id="line2d_31">
      <g>
       <use xlink:href="#mb89823269c" x="548.418436" y="375.84" style="stroke: #000000; stroke-width: 0.6"/>
      </g>
     </g>
    </g>
    <g id="xtick_26">
     <g id="line2d_32">
      <g>
       <use xlink:href="#mb89823269c" x="576.451929" y="375.84" style="stroke: #000000; stroke-width: 0.6"/>
      </g>
     </g>
    </g>
    <g id="xtick_27">
     <g id="line2d_33">
      <g>
       <use xlink:href="#mb89823269c" x="604.485422" y="375.84" style="stroke: #000000; stroke-width: 0.6"/>
      </g>
     </g>
    </g>
    <g id="xtick_28">
     <g id="line2d_34">
      <g>
       <use xlink:href="#mb89823269c" x="632.518914" y="375.84" style="stroke: #000000; stroke-width: 0.6"/>
      </g>
     </g>
    </g>
    <g id="xtick_29">
     <g id="line2d_35">
      <g>
       <use xlink:href="#mb89823269c" x="660.552407" y="375.84" style="stroke: #000000; stroke-width: 0.6"/>
      </g>
     </g>
    </g>
    <g id="xtick_30">
     <g id="line2d_36">
      <g>
       <use xlink:href="#mb89823269c" x="688.5859" y="375.84" style="stroke: #000000; stroke-width: 0.6"/>
      </g>
     </g>
    </g>
    <g id="text_7">
     <!-- Monat -->
     <g transform="translate(352.636719 404.116563) scale(0.1 -0.1)">
      <defs>
       <path id="DejaVuSans-6f" d="M 1959 3097 
Q 1497 3097 1228 2736 
Q 959 2375 959 1747 
Q 959 1119 1226 758 
Q 1494 397 1959 397 
Q 2419 397 2687 759 
Q 2956 1122 2956 1747 
Q 2956 2369 2687 2733 
Q 2419 3097 1959 3097 
z
M 1959 3584 
Q 2709 3584 3137 3096 
Q 3566 2609 3566 1747 
Q 3566 888 3137 398 
Q 2709 -91 1959 -91 
Q 1206 -91 779 398 
Q 353 888 353 1747 
Q 353 2609 779 3096 
Q 1206 3584 1959 3584 
z
" transform="scale(0.015625)"/>
       <path id="DejaVuSans-74" d="M 1172 4494 
L 1172 3500 
L 2356 3500 
L 2356 3053 
L 1172 3053 
L 1172 1153 
Q 1172 725 1289 603 
Q 1406 481 1766 481 
L 2356 481 
L 2356 0 
L 1766 0 
Q 1100 0 847 248 
Q 594 497 594 1153 
L 594 3053 
L 172 3053 
L 172 3500 
L 594 3500 
L 594 4494 
L 1172 4494 
z
" transform="scale(0.015625)"/>
      </defs>
      <use xlink:href="#DejaVuSans-4d"/>
      <use xlink:href="#DejaVuSans-6f" transform="translate(86.279297 0)"/>
      <use xlink:href="#DejaVuSans-6e" transform="translate(147.460938 0)"/>
      <use xlink:href="#DejaVuSans-61" transform="translate(210.839844 0)"/>
      <use xlink:href="#DejaVuSans-74" transform="translate(272.119141 0)"/>
     </g>
    </g>
    <g id="text_8">
     <!-- 2025 -->
     <g transform="translate(677.553125 403.116563) scale(0.1 -0.1)">
      <defs>
       <path id="DejaVuSans-32" d="M 1228 531 
L 3431 531 
L 3431 0 
L 469 0 
L 469 531 
Q 828 903 1448 1529 
Q 2069 2156 2228 2338 
Q 2531 2678 2651 2914 
Q 2772 3150 2772 3378 
Q 2772 3750 2511 3984 
Q 2250 4219 1831 4219 
Q 1534 4219 1204 4116 
Q 875 4013 500 3803 
L 500 4441 
Q 881 4594 1212 4672 
Q 1544 4750 1819 4750 
Q 2544 4750 2975 4387 
Q 3406 4025 3406 3419 
Q 3406 3131 3298 2873 
Q 3191 2616 2906 2266 
Q 2828 2175 2409 1742 
Q 1991 1309 1228 531 
z
" transform="scale(0.015625)"/>
       <path id="DejaVuSans-30" d="M 2034 4250 
Q 1547 4250 1301 3770 
Q 1056 3291 1056 2328 
Q 1056 1369 1301 889 
Q 1547 409 2034 409 
Q 2525 409 2770 889 
Q 3016 1369 3016 2328 
Q 3016 3291 2770 3770 
Q 2525 4250 2034 4250 
z
M 2034 4750 
Q 2819 4750 3233 4129 
Q 3647 3509 3647 2328 
Q 3647 1150 3233 529 
Q 2819 -91 2034 -91 
Q 1250 -91 836 529 
Q 422 1150 422 2328 
Q 422 3509 836 4129 
Q 1250 4750 2034 4750 
z
" transform="scale(0.015625)"/>
       <path id="DejaVuSans-35" d="M 691 4666 
L 3169 4666 
L 3169 4134 
L 1269 4134 
L 1269 2991 
Q 1406 3038 1543 3061 
Q 1681 3084 1819 3084 
Q 2600 3084 3056 2656 
Q 3513 2228 3513 1497 
Q 3513 744 3044 326 
Q 2575 -91 1722 -91 
Q 1428 -91 1123 -41 
Q 819 9 494 109 
L 494 744 
Q 775 591 1075 516 
Q 1375 441 1709 441 
Q 2250 441 2565 725 
Q 2881 1009 2881 1497 
Q 2881 1984 2565 2268 
Q 2250 2553 1709 2553 
Q 1456 2553 1204 2497 
Q 953 2441 691 2322 
L 691 4666 
z
" transform="scale(0.015625)"/>
      </defs>
      <use xlink:href="#DejaVuSans-32"/>
      <use xlink:href="#DejaVuSans-30" transform="translate(63.623047 0)"/>
      <use xlink:href="#DejaVuSans-32" transform="translate(127.246094 0)"/>
      <use xlink:href="#DejaVuSans-35" transform="translate(190.869141 0)"/>
     </g>
    </g>
   </g>
   <g id="matplotlib.axis_2">
    <g id="ytick_1">
     <g id="line2d_37">
      <path d="M 33.403125 320.870495 
L 703.003125 320.870495 
" clip-path="url(#pd443a3e24b)" style="fill: none; stroke: #b0b0b0; stroke-width: 0.8; stroke-linecap: square"/>
     </g>
     <g id="line2d_38">
      <defs>
       <path id="mb72f9f0448" d="M 0 0 
L -3.5 0 
" style="stroke: #000000; stroke-width: 0.8"/>
      </defs>
      <g>
       <use xlink:href="#mb72f9f0448" x="33.403125" y="320.870495" style="stroke: #000000; stroke-width: 0.8"/>
      </g>
     </g>
     <g id="text_9">
      <!-- 0 -->
      <g transform="translate(20.040625 324.669714) scale(0.1 -0.1)">
       <use xlink:href="#DejaVuSans-30"/>
      </g>
     </g>
    </g>
    <g id="ytick_2">
     <g id="line2d_39">
      <path d="M 33.403125 249.583366 
L 703.003125 249.583366 
" clip-path="url(#pd443a3e24b)" style="fill: none; stroke: #b0b0b0; stroke-width: 0.8; stroke-linecap: square"/>
     </g>
     <g id="line2d_40">
      <g>
       <use xlink:href="#mb72f9f0448" x="33.403125" y="249.583366" style="stroke: #000000; stroke-width: 0.8"/>
      </g>
     </g>
     <g id="text_10">
      <!-- 10 -->
      <g transform="translate(13.678125 253.382585) scale(0.1 -0.1)">
       <defs>
        <path id="DejaVuSans-31" d="M 794 531 
L 1825 531 
L 1825 4091 
L 703 3866 
L 703 4441 
L 1819 4666 
L 2450 4666 
L 2450 531 
L 3481 531 
L 3481 0 
L 794 0 
L 794 531 
z
" transform="scale(0.015625)"/>
       </defs>
       <use xlink:href="#DejaVuSans-31"/>
       <use xlink:href="#DejaVuSans-30" transform="translate(63.623047 0)"/>
      </g>
     </g>
    </g>
    <g id="ytick_3">
     <g id="line2d_41">
      <path d="M 33.403125 178.296238 
L 703.003125 178.296238 
" clip-path="url(#pd443a3e24b)" style="fill: none; stroke: #b0b0b0; stroke-width: 0.8; stroke-linecap: square"/>
     </g>
     <g id="line2d_42">
      <g>
       <use xlink:href="#mb72f9f0448" x="33.403125" y="178.296238" style="stroke: #000000; stroke-width: 0.8"/>
      </g>
     </g>
     <g id="text_11">
      <!-- 20 -->
      <g transform="translate(13.678125 182.095456) scale(0.1 -0.1)">
       <use xlink:href="#DejaVuSans-32"/>
       <use xlink:href="#DejaVuSans-30" transform="translate(63.623047 0)"/>
      </g>
     </g>
    </g>
    <g id="ytick_4">
     <g id="line2d_43">
      <path d="M 33.403125 107.009109 
L 703.003125 107.009109 
" clip-path="url(#pd443a3e24b)" style="fill: none; stroke: #b0b0b0; stroke-width: 0.8; stroke-linecap: square"/>
     </g>
     <g id="line2d_44">
      <g>
       <use xlink:href="#mb72f9f0448" x="33.403125" y="107.009109" style="stroke: #000000; stroke-width: 0.8"/>
      </g>
     </g>
     <g id="text_12">
      <!-- 30 -->
      <g transform="translate(13.678125 110.808328) scale(0.1 -0.1)">
       <defs>
        <path id="DejaVuSans-33" d="M 2597 2516 
Q 3050 2419 3304 2112 
Q 3559 1806 3559 1356 
Q 3559 666 3084 287 
Q 2609 -91 1734 -91 
Q 1441 -91 1130 -33 
Q 819 25 488 141 
L 488 750 
Q 750 597 1062 519 
Q 1375 441 1716 441 
Q 2309 441 2620 675 
Q 2931 909 2931 1356 
Q 2931 1769 2642 2001 
Q 2353 2234 1838 2234 
L 1294 2234 
L 1294 2753 
L 1863 2753 
Q 2328 2753 2575 2939 
Q 2822 3125 2822 3475 
Q 2822 3834 2567 4026 
Q 2313 4219 1838 4219 
Q 1578 4219 1281 4162 
Q 984 4106 628 3988 
L 628 4550 
Q 988 4650 1302 4700 
Q 1616 4750 1894 4750 
Q 2613 4750 3031 4423 
Q 3450 4097 3450 3541 
Q 3450 3153 3228 2886 
Q 3006 2619 2597 2516 
z
" transform="scale(0.015625)"/>
       </defs>
       <use xlink:href="#DejaVuSans-33"/>
       <use xlink:href="#DejaVuSans-30" transform="translate(63.623047 0)"/>
      </g>
     </g>
    </g>
    <g id="ytick_5">
     <g id="line2d_45">
      <defs>
       <path id="m3e88530e38" d="M 0 0 
L -2 0 
" style="stroke: #000000; stroke-width: 0.6"/>
      </defs>
      <g>
       <use xlink:href="#m3e88530e38" x="33.403125" y="363.642772" style="stroke: #000000; stroke-width: 0.6"/>
      </g>
     </g>
    </g>
    <g id="ytick_6">
     <g id="line2d_46">
      <g>
       <use xlink:href="#m3e88530e38" x="33.403125" y="349.385347" style="stroke: #000000; stroke-width: 0.6"/>
      </g>
     </g>
    </g>
    <g id="ytick_7">
     <g id="line2d_47">
      <g>
       <use xlink:href="#m3e88530e38" x="33.403125" y="335.127921" style="stroke: #000000; stroke-width: 0.6"/>
      </g>
     </g>
    </g>
    <g id="ytick_8">
     <g id="line2d_48">
      <g>
       <use xlink:href="#m3e88530e38" x="33.403125" y="306.613069" style="stroke: #000000; stroke-width: 0.6"/>
      </g>
     </g>
    </g>
    <g id="ytick_9">
     <g id="line2d_49">
      <g>
       <use xlink:href="#m3e88530e38" x="33.403125" y="292.355644" style="stroke: #000000; stroke-width: 0.6"/>
      </g>
     </g>
    </g>
    <g id="ytick_10">
     <g id="line2d_50">
      <g>
       <use xlink:href="#m3e88530e38" x="33.403125" y="278.098218" style="stroke: #000000; stroke-width: 0.6"/>
      </g>
     </g>
    </g>
    <g id="ytick_11">
     <g id="line2d_51">
      <g>
       <use xlink:href="#m3e88530e38" x="33.403125" y="263.840792" style="stroke: #000000; stroke-width: 0.6"/>
      </g>
     </g>
    </g>
    <g id="ytick_12">
     <g id="line2d_52">
      <g>
       <use xlink:href="#m3e88530e38" x="33.403125" y="235.325941" style="stroke: #000000; stroke-width: 0.6"/>
      </g>
     </g>
    </g>
    <g id="ytick_13">
     <g id="line2d_53">
      <g>
       <use xlink:href="#m3e88530e38" x="33.403125" y="221.068515" style="stroke: #000000; stroke-width: 0.6"/>
      </g>
     </g>
    </g>
    <g id="ytick_14">
     <g id="line2d_54">
      <g>
       <use xlink:href="#m3e88530e38" x="33.403125" y="206.811089" style="stroke: #000000; stroke-width: 0.6"/>
      </g>
     </g>
    </g>
    <g id="ytick_15">
     <g id="line2d_55">
      <g>
       <use xlink:href="#m3e88530e38" x="33.403125" y="192.553663" style="stroke: #000000; stroke-width: 0.6"/>
      </g>
     </g>
    </g>
    <g id="ytick_16">
     <g id="line2d_56">
      <g>
       <use xlink:href="#m3e88530e38" x="33.403125" y="164.038812" style="stroke: #000000; stroke-width: 0.6"/>
      </g>
     </g>
    </g>
    <g id="ytick_17">
     <g id="line2d_57">
      <g>
       <use xlink:href="#m3e88530e38" x="33.403125" y="149.781386" style="stroke: #000000; stroke-width: 0.6"/>
      </g>
     </g>
    </g>
    <g id="ytick_18">
     <g id="line2d_58">
      <g>
       <use xlink:href="#m3e88530e38" x="33.403125" y="135.52396" style="stroke: #000000; stroke-width: 0.6"/>
      </g>
     </g>
    </g>
    <g id="ytick_19">
     <g id="line2d_59">
      <g>
       <use xlink:href="#m3e88530e38" x="33.403125" y="121.266535" style="stroke: #000000; stroke-width: 0.6"/>
      </g>
     </g>
    </g>
    <g id="ytick_20">
     <g id="line2d_60">
      <g>
       <use xlink:href="#m3e88530e38" x="33.403125" y="92.751683" style="stroke: #000000; stroke-width: 0.6"/>
      </g>
     </g>
    </g>
    <g id="ytick_21">
     <g id="line2d_61">
      <g>
       <use xlink:href="#m3e88530e38" x="33.403125" y="78.494257" style="stroke: #000000; stroke-width: 0.6"/>
      </g>
     </g>
    </g>
    <g id="ytick_22">
     <g id="line2d_62">
      <g>
       <use xlink:href="#m3e88530e38" x="33.403125" y="64.236832" style="stroke: #000000; stroke-width: 0.6"/>
      </g>
     </g>
    </g>
    <g id="ytick_23">
     <g id="line2d_63">
      <g>
       <use xlink:href="#m3e88530e38" x="33.403125" y="49.979406" style="stroke: #000000; stroke-width: 0.6"/>
      </g>
     </g>
    </g>
    <g id="text_13">
     <!-- Kumulierte korrigierte Gewichtänderung [kg] -->
     <g transform="translate(7.598438 321.717656) rotate(-90) scale(0.1 -0.1)">
      <defs>
       <path id="DejaVuSans-4b" d="M 628 4666 
L 1259 4666 
L 1259 2694 
L 3353 4666 
L 4166 4666 
L 1850 2491 
L 4331 0 
L 3500 0 
L 1259 2247 
L 1259 0 
L 628 0 
L 628 4666 
z
" transform="scale(0.015625)"/>
       <path id="DejaVuSans-6d" d="M 3328 2828 
Q 3544 3216 3844 3400 
Q 4144 3584 4550 3584 
Q 5097 3584 5394 3201 
Q 5691 2819 5691 2113 
L 5691 0 
L 5113 0 
L 5113 2094 
Q 5113 2597 4934 2840 
Q 4756 3084 4391 3084 
Q 3944 3084 3684 2787 
Q 3425 2491 3425 1978 
L 3425 0 
L 2847 0 
L 2847 2094 
Q 2847 2600 2669 2842 
Q 2491 3084 2119 3084 
Q 1678 3084 1418 2786 
Q 1159 2488 1159 1978 
L 1159 0 
L 581 0 
L 581 3500 
L 1159 3500 
L 1159 2956 
Q 1356 3278 1631 3431 
Q 1906 3584 2284 3584 
Q 2666 3584 2933 3390 
Q 3200 3197 3328 2828 
z
" transform="scale(0.015625)"/>
       <path id="DejaVuSans-65" d="M 3597 1894 
L 3597 1613 
L 953 1613 
Q 991 1019 1311 708 
Q 1631 397 2203 397 
Q 2534 397 2845 478 
Q 3156 559 3463 722 
L 3463 178 
Q 3153 47 2828 -22 
Q 2503 -91 2169 -91 
Q 1331 -91 842 396 
Q 353 884 353 1716 
Q 353 2575 817 3079 
Q 1281 3584 2069 3584 
Q 2775 3584 3186 3129 
Q 3597 2675 3597 1894 
z
M 3022 2063 
Q 3016 2534 2758 2815 
Q 2500 3097 2075 3097 
Q 1594 3097 1305 2825 
Q 1016 2553 972 2059 
L 3022 2063 
z
" transform="scale(0.015625)"/>
       <path id="DejaVuSans-20" transform="scale(0.015625)"/>
       <path id="DejaVuSans-6b" d="M 581 4863 
L 1159 4863 
L 1159 1991 
L 2875 3500 
L 3609 3500 
L 1753 1863 
L 3688 0 
L 2938 0 
L 1159 1709 
L 1159 0 
L 581 0 
L 581 4863 
z
" transform="scale(0.015625)"/>
       <path id="DejaVuSans-47" d="M 3809 666 
L 3809 1919 
L 2778 1919 
L 2778 2438 
L 4434 2438 
L 4434 434 
Q 4069 175 3628 42 
Q 3188 -91 2688 -91 
Q 1594 -91 976 548 
Q 359 1188 359 2328 
Q 359 3472 976 4111 
Q 1594 4750 2688 4750 
Q 3144 4750 3555 4637 
Q 3966 4525 4313 4306 
L 4313 3634 
Q 3963 3931 3569 4081 
Q 3175 4231 2741 4231 
Q 1884 4231 1454 3753 
Q 1025 3275 1025 2328 
Q 1025 1384 1454 906 
Q 1884 428 2741 428 
Q 3075 428 3337 486 
Q 3600 544 3809 666 
z
" transform="scale(0.015625)"/>
       <path id="DejaVuSans-77" d="M 269 3500 
L 844 3500 
L 1563 769 
L 2278 3500 
L 2956 3500 
L 3675 769 
L 4391 3500 
L 4966 3500 
L 4050 0 
L 3372 0 
L 2619 2869 
L 1863 0 
L 1184 0 
L 269 3500 
z
" transform="scale(0.015625)"/>
       <path id="DejaVuSans-63" d="M 3122 3366 
L 3122 2828 
Q 2878 2963 2633 3030 
Q 2388 3097 2138 3097 
Q 1578 3097 1268 2742 
Q 959 2388 959 1747 
Q 959 1106 1268 751 
Q 1578 397 2138 397 
Q 2388 397 2633 464 
Q 2878 531 3122 666 
L 3122 134 
Q 2881 22 2623 -34 
Q 2366 -91 2075 -91 
Q 1284 -91 818 406 
Q 353 903 353 1747 
Q 353 2603 823 3093 
Q 1294 3584 2113 3584 
Q 2378 3584 2631 3529 
Q 2884 3475 3122 3366 
z
" transform="scale(0.015625)"/>
       <path id="DejaVuSans-68" d="M 3513 2113 
L 3513 0 
L 2938 0 
L 2938 2094 
Q 2938 2591 2744 2837 
Q 2550 3084 2163 3084 
Q 1697 3084 1428 2787 
Q 1159 2491 1159 1978 
L 1159 0 
L 581 0 
L 581 4863 
L 1159 4863 
L 1159 2956 
Q 1366 3272 1645 3428 
Q 1925 3584 2291 3584 
Q 2894 3584 3203 3211 
Q 3513 2838 3513 2113 
z
" transform="scale(0.015625)"/>
       <path id="DejaVuSans-64" d="M 2906 2969 
L 2906 4863 
L 3481 4863 
L 3481 0 
L 2906 0 
L 2906 525 
Q 2725 213 2448 61 
Q 2172 -91 1784 -91 
Q 1150 -91 751 415 
Q 353 922 353 1747 
Q 353 2572 751 3078 
Q 1150 3584 1784 3584 
Q 2172 3584 2448 3432 
Q 2725 3281 2906 2969 
z
M 947 1747 
Q 947 1113 1208 752 
Q 1469 391 1925 391 
Q 2381 391 2643 752 
Q 2906 1113 2906 1747 
Q 2906 2381 2643 2742 
Q 2381 3103 1925 3103 
Q 1469 3103 1208 2742 
Q 947 2381 947 1747 
z
" transform="scale(0.015625)"/>
       <path id="DejaVuSans-5b" d="M 550 4863 
L 1875 4863 
L 1875 4416 
L 1125 4416 
L 1125 -397 
L 1875 -397 
L 1875 -844 
L 550 -844 
L 550 4863 
z
" transform="scale(0.015625)"/>
       <path id="DejaVuSans-5d" d="M 1947 4863 
L 1947 -844 
L 622 -844 
L 622 -397 
L 1369 -397 
L 1369 4416 
L 622 4416 
L 622 4863 
L 1947 4863 
z
" transform="scale(0.015625)"/>
      </defs>
      <use xlink:href="#DejaVuSans-4b"/>
      <use xlink:href="#DejaVuSans-75" transform="translate(60.576172 0)"/>
      <use xlink:href="#DejaVuSans-6d" transform="translate(123.955078 0)"/>
      <use xlink:href="#DejaVuSans-75" transform="translate(221.367188 0)"/>
      <use xlink:href="#DejaVuSans-6c" transform="translate(284.746094 0)"/>
      <use xlink:href="#DejaVuSans-69" transform="translate(312.529297 0)"/>
      <use xlink:href="#DejaVuSans-65" transform="translate(340.3125 0)"/>
      <use xlink:href="#DejaVuSans-72" transform="translate(401.835938 0)"/>
      <use xlink:href="#DejaVuSans-74" transform="translate(442.949219 0)"/>
      <use xlink:href="#DejaVuSans-65" transform="translate(482.158203 0)"/>
      <use xlink:href="#DejaVuSans-20" transform="translate(543.681641 0)"/>
      <use xlink:href="#DejaVuSans-6b" transform="translate(575.46875 0)"/>
      <use xlink:href="#DejaVuSans-6f" transform="translate(629.753906 0)"/>
      <use xlink:href="#DejaVuSans-72" transform="translate(690.935547 0)"/>
      <use xlink:href="#DejaVuSans-72" transform="translate(730.298828 0)"/>
      <use xlink:href="#DejaVuSans-69" transform="translate(771.412109 0)"/>
      <use xlink:href="#DejaVuSans-67" transform="translate(799.195312 0)"/>
      <use xlink:href="#DejaVuSans-69" transform="translate(862.671875 0)"/>
      <use xlink:href="#DejaVuSans-65" transform="translate(890.455078 0)"/>
      <use xlink:href="#DejaVuSans-72" transform="translate(951.978516 0)"/>
      <use xlink:href="#DejaVuSans-74" transform="translate(993.091797 0)"/>
      <use xlink:href="#DejaVuSans-65" transform="translate(1032.300781 0)"/>
      <use xlink:href="#DejaVuSans-20" transform="translate(1093.824219 0)"/>
      <use xlink:href="#DejaVuSans-47" transform="translate(1125.611328 0)"/>
      <use xlink:href="#DejaVuSans-65" transform="translate(1203.101562 0)"/>
      <use xlink:href="#DejaVuSans-77" transform="translate(1264.625 0)"/>
      <use xlink:href="#DejaVuSans-69" transform="translate(1346.412109 0)"/>
      <use xlink:href="#DejaVuSans-63" transform="translate(1374.195312 0)"/>
      <use xlink:href="#DejaVuSans-68" transform="translate(1429.175781 0)"/>
      <use xlink:href="#DejaVuSans-74" transform="translate(1492.554688 0)"/>
      <use xlink:href="#DejaVuSans-e4" transform="translate(1531.763672 0)"/>
      <use xlink:href="#DejaVuSans-6e" transform="translate(1593.042969 0)"/>
      <use xlink:href="#DejaVuSans-64" transform="translate(1656.421875 0)"/>
      <use xlink:href="#DejaVuSans-65" transform="translate(1719.898438 0)"/>
      <use xlink:href="#DejaVuSans-72" transform="translate(1781.421875 0)"/>
      <use xlink:href="#DejaVuSans-75" transform="translate(1822.535156 0)"/>
      <use xlink:href="#DejaVuSans-6e" transform="translate(1885.914062 0)"/>
      <use xlink:href="#DejaVuSans-67" transform="translate(1949.292969 0)"/>
      <use xlink:href="#DejaVuSans-20" transform="translate(2012.769531 0)"/>
      <use xlink:href="#DejaVuSans-5b" transform="translate(2044.556641 0)"/>
      <use xlink:href="#DejaVuSans-6b" transform="translate(2083.570312 0)"/>
      <use xlink:href="#DejaVuSans-67" transform="translate(2141.480469 0)"/>
      <use xlink:href="#DejaVuSans-5d" transform="translate(2204.957031 0)"/>
     </g>
    </g>
   </g>
   <g id="line2d_64">
    <path d="M 63.839489 348.601188 
L 67.844273 349.100198 
L 71.849058 350.240792 
L 75.853843 351.096238 
L 79.858627 351.452673 
L 91.872981 353.448713 
L 95.877766 355.01703 
L 99.882551 356.086337 
L 103.887336 356.799208 
L 107.89212 357.226931 
L 111.896905 357.369505 
L 115.90169 357.797228 
L 119.906474 357.013069 
L 123.911259 357.155644 
L 131.920828 358.011089 
L 135.925613 358.652673 
L 139.930398 357.084356 
L 143.935182 355.943762 
L 147.939967 354.446733 
L 151.944752 352.236832 
L 155.949536 350.953663 
L 159.954321 350.098218 
L 163.959106 350.026931 
L 171.968675 348.601188 
L 179.978245 348.81505 
L 183.983029 347.888317 
L 187.987814 347.460594 
L 191.992599 339.476436 
L 195.997383 347.31802 
L 200.002168 351.737822 
L 204.006953 351.880396 
L 212.016522 355.444752 
L 216.021307 355.729901 
L 220.026092 356.799208 
L 224.030876 357.583366 
L 228.035661 360.007129 
L 232.040446 360.363564 
L 236.04523 358.296238 
L 240.050015 353.662574 
L 244.0548 352.379406 
L 248.059584 354.01901 
L 252.064369 354.660594 
L 256.069154 353.947723 
L 260.073938 353.52 
L 264.078723 352.593267 
L 268.083508 349.028911 
L 272.088292 345.678416 
L 276.093077 345.393267 
L 280.097862 344.252673 
L 284.102647 343.468515 
L 288.107431 344.252673 
L 292.112216 344.32396 
L 296.117001 339.262574 
L 300.121785 333.131881 
L 304.12657 331.064554 
L 308.131355 331.848713 
L 312.136139 323.579406 
L 316.140924 312.529901 
L 320.145709 308.110099 
L 324.150493 302.62099 
L 328.155278 304.545743 
L 332.160063 305.044752 
L 336.164847 303.262574 
L 340.169632 289.575446 
L 344.174417 276.743762 
L 348.179202 260.704158 
L 352.183986 247.01703 
L 356.188771 250.581386 
L 360.193556 242.098218 
L 364.19834 230.335842 
L 368.203125 228.838812 
L 372.20791 226.628911 
L 376.212694 221.211089 
L 380.217479 213.226931 
L 384.222264 209.52 
L 388.227048 209.662574 
L 392.231833 207.595248 
L 396.236618 204.244752 
L 400.241403 206.953663 
L 404.246187 208.02297 
L 408.250972 207.167525 
L 412.255757 204.601188 
L 416.260541 206.525941 
L 420.265326 208.165545 
L 424.270111 209.448713 
L 432.27968 206.026931 
L 436.284465 201.108119 
L 440.289249 194.763564 
L 444.294034 195.048713 
L 448.298819 192.339802 
L 452.303603 195.12 
L 456.308388 196.403168 
L 460.313173 197.401188 
L 464.317958 199.539802 
L 468.322742 200.466535 
L 472.327527 198.898218 
L 476.332312 194.335842 
L 480.337096 195.690297 
L 484.341881 194.335842 
L 488.346666 189.41703 
L 492.35145 187.492277 
L 496.356235 187.42099 
L 500.36102 184.141782 
L 504.365804 179.793267 
L 508.370589 179.080396 
L 512.375374 179.294257 
L 516.380158 177.512079 
L 520.384943 176.514059 
L 524.389728 175.943762 
L 528.394513 177.797228 
L 532.399297 176.228911 
L 536.404082 174.01901 
L 540.408867 175.943762 
L 548.418436 178.153663 
L 552.423221 179.080396 
L 556.428005 181.575446 
L 560.43279 183.357624 
L 564.437575 182.644752 
L 568.442359 186.209109 
L 572.447144 187.563564 
L 576.451929 187.777426 
L 580.456714 189.630891 
L 588.466283 192.411089 
L 592.471068 192.696238 
L 600.480637 196.902178 
L 604.485422 199.468515 
L 608.490206 201.393267 
L 612.494991 204.173465 
L 616.499776 206.026931 
L 620.50456 207.737822 
L 624.509345 209.163564 
L 628.51413 210.375446 
L 632.518914 210.304158 
L 636.523699 211.801188 
L 640.528484 215.72198 
L 644.533269 225.131881 
L 648.538053 227.270495 
L 652.542838 228.696238 
L 656.547623 230.906139 
L 660.552407 232.830891 
L 664.557192 233.044752 
L 668.561977 235.682376 
L 672.566761 238.462574 
L 672.566761 238.462574 
" clip-path="url(#pd443a3e24b)" style="fill: none; stroke: #bcbd22; stroke-width: 1.5; stroke-linecap: square"/>
   </g>
   <g id="line2d_65">
    <path d="M 63.839489 320.656634 
L 67.844273 323.508119 
L 71.849058 325.789307 
L 75.853843 329.211089 
L 79.858627 330.066535 
L 83.863412 330.779406 
L 87.868197 332.41901 
L 91.872981 332.704158 
L 95.877766 334.058614 
L 99.882551 334.771485 
L 103.887336 334.272475 
L 107.89212 334.628911 
L 111.896905 336.054653 
L 115.90169 334.41505 
L 119.906474 335.769505 
L 123.911259 336.981386 
L 127.916044 337.836832 
L 131.920828 338.478416 
L 135.925613 337.694257 
L 139.930398 337.480396 
L 143.935182 337.908119 
L 147.939967 337.62297 
L 151.944752 337.551683 
L 155.949536 336.910099 
L 159.954321 339.12 
L 163.959106 338.763564 
L 167.963891 337.266535 
L 171.968675 339.690297 
L 175.97346 340.545743 
L 179.978245 340.046733 
L 183.983029 341.258614 
L 187.987814 342.826931 
L 191.992599 342.185347 
L 195.997383 343.753663 
L 200.002168 344.537822 
L 204.006953 345.535842 
L 208.011737 347.531881 
L 212.016522 348.31604 
L 216.021307 347.674455 
L 224.030876 349.884356 
L 228.035661 350.383366 
L 232.040446 349.741782 
L 236.04523 350.597228 
L 244.0548 351.02495 
L 252.064369 352.878416 
L 256.069154 354.090297 
L 260.073938 353.52 
L 264.078723 354.660594 
L 268.083508 354.090297 
L 272.088292 350.668515 
L 276.093077 345.607129 
L 280.097862 348.672475 
L 284.102647 349.527921 
L 288.107431 350.953663 
L 292.112216 345.678416 
L 296.117001 345.963564 
L 300.121785 345.678416 
L 304.12657 341.971485 
L 308.131355 337.62297 
L 312.136139 338.977426 
L 316.140924 336.553663 
L 320.145709 330.993267 
L 324.150493 321.155644 
L 328.155278 320.442772 
L 332.160063 315.381386 
L 336.164847 315.52396 
L 340.169632 309.678416 
L 344.174417 309.963564 
L 348.179202 310.81901 
L 352.183986 313.456634 
L 356.188771 313.385347 
L 360.193556 312.173465 
L 364.19834 313.741782 
L 368.203125 314.312079 
L 372.20791 316.379406 
L 376.212694 317.591287 
L 380.217479 315.595248 
L 384.222264 305.11604 
L 392.231833 291.072475 
L 396.236618 290.430891 
L 400.241403 292.997228 
L 404.246187 289.71802 
L 408.250972 285.369505 
L 412.255757 284.371485 
L 416.260541 282.01901 
L 420.265326 279.880396 
L 424.270111 279.167525 
L 428.274895 278.597228 
L 432.27968 275.674455 
L 436.284465 273.678416 
L 440.289249 271.896238 
L 444.294034 269.258614 
L 448.298819 266.763564 
L 452.303603 266.193267 
L 456.308388 263.199208 
L 460.313173 259.135842 
L 464.317958 257.852673 
L 468.322742 255.286337 
L 472.327527 254.074455 
L 476.332312 253.860594 
L 480.337096 255.21505 
L 484.341881 255.001188 
L 488.346666 252.791287 
L 492.35145 251.793267 
L 496.356235 249.654653 
L 500.36102 246.161584 
L 504.365804 240.601188 
L 508.370589 234.114059 
L 512.375374 229.266535 
L 516.380158 223.563564 
L 520.384943 226.486337 
L 524.389728 225.41703 
L 528.394513 222.993267 
L 532.399297 219.21505 
L 536.404082 219.856634 
L 540.408867 219.001188 
L 544.413651 214.795248 
L 548.418436 211.230891 
L 552.423221 211.51604 
L 556.428005 210.090297 
L 560.43279 208.450693 
L 564.437575 206.026931 
L 568.442359 206.312079 
L 572.447144 207.02495 
L 576.451929 206.882376 
L 580.456714 206.312079 
L 584.461498 206.383366 
L 588.466283 207.381386 
L 592.471068 207.381386 
L 596.475852 208.094257 
L 600.480637 210.731881 
L 604.485422 212.086337 
L 608.490206 215.294257 
L 612.494991 216.363564 
L 620.50456 218.929901 
L 624.509345 220.854653 
L 628.51413 222.209109 
L 632.518914 222.565545 
L 636.523699 224.989307 
L 640.528484 226.41505 
L 644.533269 225.702178 
L 648.538053 226.058614 
L 652.542838 226.842772 
L 656.547623 229.12396 
L 660.552407 230.193267 
L 664.557192 231.405149 
L 668.561977 232.830891 
L 672.566761 233.757624 
L 672.566761 233.757624 
" clip-path="url(#pd443a3e24b)" style="fill: none; stroke: #d62728; stroke-width: 1.5; stroke-linecap: square"/>
   </g>
   <g id="line2d_66">
    <path d="M 63.839489 327.500198 
L 67.844273 327.357624 
L 71.849058 327.571485 
L 75.853843 328.141782 
L 79.858627 327.428911 
L 83.863412 326.858614 
L 87.868197 328.213069 
L 91.872981 329.353663 
L 95.877766 329.995248 
L 103.887336 329.638812 
L 107.89212 329.781386 
L 111.896905 329.282376 
L 115.90169 329.353663 
L 119.906474 330.494257 
L 123.911259 330.92198 
L 127.916044 332.062574 
L 131.920828 330.850693 
L 135.925613 332.276436 
L 139.930398 333.41703 
L 143.935182 332.989307 
L 147.939967 334.129901 
L 151.944752 333.91604 
L 155.949536 334.486337 
L 159.954321 335.698218 
L 163.959106 337.195248 
L 167.963891 337.409109 
L 171.968675 339.048713 
L 175.97346 340.11802 
L 179.978245 339.61901 
L 183.983029 337.551683 
L 187.987814 338.62099 
L 191.992599 340.260594 
L 200.002168 337.480396 
L 204.006953 333.702178 
L 208.011737 324.933861 
L 212.016522 316.878416 
L 216.021307 309.32198 
L 220.026092 307.397228 
L 224.030876 308.32396 
L 228.035661 304.61703 
L 232.040446 296.205149 
L 236.04523 286.011089 
L 240.050015 277.456634 
L 244.0548 278.169505 
L 248.059584 280.52198 
L 252.064369 280.593267 
L 256.069154 282.375446 
L 260.073938 283.302178 
L 264.078723 283.872475 
L 268.083508 284.727921 
L 272.088292 287.864554 
L 276.093077 288.434851 
L 280.097862 291.001188 
L 284.102647 294.636832 
L 288.107431 293.638812 
L 292.112216 286.153663 
L 304.12657 252.363564 
L 308.131355 243.951683 
L 312.136139 238.605149 
L 316.140924 241.385347 
L 324.150493 227.912079 
L 328.155278 221.638812 
L 332.160063 224.205149 
L 336.164847 224.41901 
L 340.169632 224.775446 
L 344.174417 218.430891 
L 348.179202 212.941782 
L 352.183986 206.739802 
L 356.188771 200.894257 
L 360.193556 197.401188 
L 364.19834 194.12198 
L 368.203125 192.696238 
L 372.20791 193.052673 
L 376.212694 188.704158 
L 380.217479 190.41505 
L 384.222264 188.347723 
L 388.227048 187.135842 
L 392.231833 189.41703 
L 396.236618 187.634851 
L 400.241403 188.41901 
L 404.246187 189.488317 
L 408.250972 189.844752 
L 412.255757 183.856634 
L 416.260541 187.207129 
L 420.265326 187.777426 
L 424.270111 187.207129 
L 428.274895 185.353663 
L 432.27968 183.21505 
L 436.284465 186.993267 
L 440.289249 187.92 
L 444.294034 190.41505 
L 448.298819 187.991287 
L 452.303603 181.646733 
L 456.308388 176.941782 
L 460.313173 170.525941 
L 464.317958 168.173465 
L 468.322742 171.951683 
L 472.327527 174.731881 
L 476.332312 174.232871 
L 480.337096 170.383366 
L 484.341881 160.902178 
L 488.346666 151.848713 
L 492.35145 141.155644 
L 496.356235 127.611089 
L 500.36102 116.276436 
L 504.365804 105.298218 
L 508.370589 91.112079 
L 512.375374 86.478416 
L 516.380158 89.258614 
L 520.384943 89.329901 
L 524.389728 86.12198 
L 528.394513 79.634851 
L 532.399297 73.575446 
L 536.404082 69.226931 
L 540.408867 66.090297 
L 544.413651 59.104158 
L 548.418436 58.32 
L 552.423221 59.603168 
L 556.428005 63.880396 
L 560.43279 65.163564 
L 564.437575 70.296238 
L 568.442359 70.937822 
L 572.447144 69.725941 
L 576.451929 71.151683 
L 580.456714 72.933861 
L 584.461498 71.365545 
L 588.466283 69.369505 
L 592.471068 70.153663 
L 596.475852 70.367525 
L 600.480637 73.931881 
L 604.485422 77.068515 
L 608.490206 78.066535 
L 612.494991 79.634851 
L 616.499776 81.559604 
L 620.50456 83.698218 
L 624.509345 85.409109 
L 628.51413 86.549703 
L 632.518914 86.763564 
L 636.523699 88.973465 
L 640.528484 90.613069 
L 644.533269 93.678416 
L 648.538053 96.173465 
L 652.542838 97.813069 
L 656.547623 98.169505 
L 660.552407 99.096238 
L 664.557192 101.163564 
L 668.561977 102.304158 
L 672.566761 101.448713 
L 672.566761 101.448713 
" clip-path="url(#pd443a3e24b)" style="fill: none; stroke: #2ca02c; stroke-width: 1.5; stroke-linecap: square"/>
   </g>
   <g id="line2d_67">
    <path d="M 63.839489 339.975446 
L 67.844273 340.61703 
L 71.849058 341.971485 
L 75.853843 342.898218 
L 79.858627 343.753663 
L 83.863412 344.32396 
L 87.868197 344.965545 
L 91.872981 345.963564 
L 95.877766 346.747723 
L 99.882551 346.81901 
L 103.887336 347.032871 
L 107.89212 346.533861 
L 111.896905 346.034851 
L 115.90169 346.676436 
L 119.906474 347.104158 
L 123.911259 347.460594 
L 127.916044 348.173465 
L 131.920828 349.028911 
L 135.925613 350.098218 
L 139.930398 350.098218 
L 143.935182 349.955644 
L 147.939967 348.743762 
L 151.944752 348.529901 
L 155.949536 348.601188 
L 159.954321 348.458614 
L 163.959106 349.100198 
L 167.963891 349.670495 
L 171.968675 349.813069 
L 175.97346 349.813069 
L 179.978245 351.666535 
L 183.983029 352.308119 
L 187.987814 352.878416 
L 191.992599 355.01703 
L 195.997383 355.587327 
L 200.002168 356.01505 
L 204.006953 356.371485 
L 208.011737 357.440792 
L 212.016522 358.22495 
L 216.021307 359.22297 
L 220.026092 360.149703 
L 224.030876 360.506139 
L 228.035661 360.72 
L 232.040446 358.22495 
L 236.04523 355.872475 
L 240.050015 352.593267 
L 244.0548 347.745743 
L 248.059584 344.894257 
L 252.064369 344.32396 
L 256.069154 345.963564 
L 260.073938 340.688317 
L 264.078723 335.127921 
L 268.083508 332.561584 
L 272.088292 328.712079 
L 276.093077 319.658614 
L 280.097862 322.652673 
L 284.102647 323.436832 
L 288.107431 323.793267 
L 292.112216 313.527921 
L 296.117001 298.41505 
L 300.121785 285.084356 
L 304.12657 272.82297 
L 308.131355 260.704158 
L 312.136139 249.440792 
L 316.140924 244.807129 
L 320.145709 247.51604 
L 324.150493 248.941782 
L 328.155278 250.937822 
L 332.160063 251.72198 
L 336.164847 253.361584 
L 340.169632 251.793267 
L 344.174417 243.666535 
L 348.179202 234.185347 
L 352.183986 227.769505 
L 356.188771 222.993267 
L 360.193556 217.005149 
L 364.19834 219.571485 
L 368.203125 221.139802 
L 372.20791 221.638812 
L 376.212694 222.636832 
L 380.217479 221.42495 
L 384.222264 220.284356 
L 388.227048 221.068515 
L 392.231833 222.993267 
L 396.236618 225.131881 
L 400.241403 226.41505 
L 404.246187 224.133861 
L 408.250972 227.769505 
L 412.255757 229.409109 
L 416.260541 228.981386 
L 420.265326 233.11604 
L 424.270111 231.262574 
L 428.274895 226.343762 
L 432.27968 222.42297 
L 436.284465 223.278416 
L 440.289249 224.133861 
L 444.294034 221.852673 
L 448.298819 224.704158 
L 452.303603 226.628911 
" clip-path="url(#pd443a3e24b)" style="fill: none; stroke: #1f77b4; stroke-width: 1.5; stroke-linecap: square"/>
   </g>
   <g id="line2d_68">
    <path d="M 456.308388 375.84 
L 456.308388 43.2 
" clip-path="url(#pd443a3e24b)" style="fill: none; stroke-dasharray: 1.5,2.475; stroke-dashoffset: 0; stroke: #1f77b4; stroke-width: 1.5"/>
   </g>
   <g id="patch_3">
    <path d="M 33.403125 375.84 
L 33.403125 43.2 
" style="fill: none; stroke: #000000; stroke-width: 0.8; stroke-linejoin: miter; stroke-linecap: square"/>
   </g>
   <g id="patch_4">
    <path d="M 703.003125 375.84 
L 703.003125 43.2 
" style="fill: none; stroke: #000000; stroke-width: 0.8; stroke-linejoin: miter; stroke-linecap: square"/>
   </g>
   <g id="patch_5">
    <path d="M 33.403125 375.84 
L 703.003125 375.84 
" style="fill: none; stroke: #000000; stroke-width: 0.8; stroke-linejoin: miter; stroke-linecap: square"/>
   </g>
   <g id="patch_6">
    <path d="M 33.403125 43.2 
L 703.003125 43.2 
" style="fill: none; stroke: #000000; stroke-width: 0.8; stroke-linejoin: miter; stroke-linecap: square"/>
   </g>
   <g id="patch_7">
    <path d="M 215.469116 327.220905 
Q 223.306716 342.896104 230.644315 357.571304 
" style="fill: none; stroke: #000000; stroke-linecap: round"/>
    <path d="M 230.644315 353.546381 
L 230.644315 357.571304 
L 227.424377 355.15635 
" style="fill: none; stroke: #000000; stroke-linecap: round"/>
   </g>
   <g id="patch_8">
    <path d="M 556.219472 171.488309 
Q 547.305933 172.626692 539.50142 173.623437 
" style="fill: none; stroke: #000000; stroke-linecap: round"/>
    <path d="M 543.300448 174.952868 
L 539.50142 173.623437 
L 542.844382 171.381874 
" style="fill: none; stroke: #000000; stroke-linecap: round"/>
   </g>
   <g id="text_14">
    <g id="patch_9">
     <path d="M 558.704082 174.590729 
L 615.634707 174.590729 
L 615.634707 160.480416 
L 558.704082 160.480416 
z
" style="fill: #ffffff; stroke: #000000; stroke-linejoin: miter"/>
    </g>
    <!-- 27.06.2022 -->
    <g transform="translate(561.404082 170.01901) scale(0.09 -0.09)">
     <defs>
      <path id="DejaVuSans-37" d="M 525 4666 
L 3525 4666 
L 3525 4397 
L 1831 0 
L 1172 0 
L 2766 4134 
L 525 4134 
L 525 4666 
z
" transform="scale(0.015625)"/>
      <path id="DejaVuSans-2e" d="M 684 794 
L 1344 794 
L 1344 0 
L 684 0 
L 684 794 
z
" transform="scale(0.015625)"/>
      <path id="DejaVuSans-36" d="M 2113 2584 
Q 1688 2584 1439 2293 
Q 1191 2003 1191 1497 
Q 1191 994 1439 701 
Q 1688 409 2113 409 
Q 2538 409 2786 701 
Q 3034 994 3034 1497 
Q 3034 2003 2786 2293 
Q 2538 2584 2113 2584 
z
M 3366 4563 
L 3366 3988 
Q 3128 4100 2886 4159 
Q 2644 4219 2406 4219 
Q 1781 4219 1451 3797 
Q 1122 3375 1075 2522 
Q 1259 2794 1537 2939 
Q 1816 3084 2150 3084 
Q 2853 3084 3261 2657 
Q 3669 2231 3669 1497 
Q 3669 778 3244 343 
Q 2819 -91 2113 -91 
Q 1303 -91 875 529 
Q 447 1150 447 2328 
Q 447 3434 972 4092 
Q 1497 4750 2381 4750 
Q 2619 4750 2861 4703 
Q 3103 4656 3366 4563 
z
" transform="scale(0.015625)"/>
     </defs>
     <use xlink:href="#DejaVuSans-32"/>
     <use xlink:href="#DejaVuSans-37" transform="translate(63.623047 0)"/>
     <use xlink:href="#DejaVuSans-2e" transform="translate(127.246094 0)"/>
     <use xlink:href="#DejaVuSans-30" transform="translate(159.033203 0)"/>
     <use xlink:href="#DejaVuSans-36" transform="translate(222.65625 0)"/>
     <use xlink:href="#DejaVuSans-2e" transform="translate(286.279297 0)"/>
     <use xlink:href="#DejaVuSans-32" transform="translate(318.066406 0)"/>
     <use xlink:href="#DejaVuSans-30" transform="translate(381.689453 0)"/>
     <use xlink:href="#DejaVuSans-32" transform="translate(445.3125 0)"/>
     <use xlink:href="#DejaVuSans-32" transform="translate(508.935547 0)"/>
    </g>
   </g>
   <g id="patch_10">
    <path d="M 247.507393 321.517935 
Q 255.344993 337.193134 262.682593 351.868334 
" style="fill: none; stroke: #000000; stroke-linecap: round"/>
    <path d="M 262.682593 347.843411 
L 262.682593 351.868334 
L 259.462655 349.45338 
" style="fill: none; stroke: #000000; stroke-linecap: round"/>
   </g>
   <g id="patch_11">
    <path d="M 584.252965 203.496229 
Q 575.339426 204.634612 567.534913 205.631358 
" style="fill: none; stroke: #000000; stroke-linecap: round"/>
    <path d="M 571.33394 206.960789 
L 567.534913 205.631358 
L 570.877875 203.389794 
" style="fill: none; stroke: #000000; stroke-linecap: round"/>
   </g>
   <g id="text_15">
    <g id="patch_12">
     <path d="M 586.737575 206.598649 
L 643.6682 206.598649 
L 643.6682 192.488337 
L 586.737575 192.488337 
z
" style="fill: #ffffff; stroke: #000000; stroke-linejoin: miter"/>
    </g>
    <!-- 04.07.2023 -->
    <g transform="translate(589.437575 202.026931) scale(0.09 -0.09)">
     <defs>
      <path id="DejaVuSans-34" d="M 2419 4116 
L 825 1625 
L 2419 1625 
L 2419 4116 
z
M 2253 4666 
L 3047 4666 
L 3047 1625 
L 3713 1625 
L 3713 1100 
L 3047 1100 
L 3047 0 
L 2419 0 
L 2419 1100 
L 313 1100 
L 313 1709 
L 2253 4666 
z
" transform="scale(0.015625)"/>
     </defs>
     <use xlink:href="#DejaVuSans-30"/>
     <use xlink:href="#DejaVuSans-34" transform="translate(63.623047 0)"/>
     <use xlink:href="#DejaVuSans-2e" transform="translate(127.246094 0)"/>
     <use xlink:href="#DejaVuSans-30" transform="translate(159.033203 0)"/>
     <use xlink:href="#DejaVuSans-37" transform="translate(222.65625 0)"/>
     <use xlink:href="#DejaVuSans-2e" transform="translate(286.279297 0)"/>
     <use xlink:href="#DejaVuSans-32" transform="translate(318.066406 0)"/>
     <use xlink:href="#DejaVuSans-30" transform="translate(381.689453 0)"/>
     <use xlink:href="#DejaVuSans-32" transform="translate(445.3125 0)"/>
     <use xlink:href="#DejaVuSans-33" transform="translate(508.935547 0)"/>
    </g>
   </g>
   <g id="patch_13">
    <path d="M 175.421269 307.117935 
Q 183.258869 322.793134 190.596468 337.468334 
" style="fill: none; stroke: #000000; stroke-linecap: round"/>
    <path d="M 190.596468 333.443411 
L 190.596468 337.468334 
L 187.376531 335.05338 
" style="fill: none; stroke: #000000; stroke-linecap: round"/>
   </g>
   <g id="patch_14">
    <path d="M 568.233827 55.789299 
Q 559.320287 56.927682 551.515774 57.924427 
" style="fill: none; stroke: #000000; stroke-linecap: round"/>
    <path d="M 555.314802 59.253858 
L 551.515774 57.924427 
L 554.858736 55.682864 
" style="fill: none; stroke: #000000; stroke-linecap: round"/>
   </g>
   <g id="text_16">
    <g id="patch_15">
     <path d="M 570.718436 58.891719 
L 627.649061 58.891719 
L 627.649061 44.781406 
L 570.718436 44.781406 
z
" style="fill: #ffffff; stroke: #000000; stroke-linejoin: miter"/>
    </g>
    <!-- 30.06.2024 -->
    <g transform="translate(573.418436 54.32) scale(0.09 -0.09)">
     <use xlink:href="#DejaVuSans-33"/>
     <use xlink:href="#DejaVuSans-30" transform="translate(63.623047 0)"/>
     <use xlink:href="#DejaVuSans-2e" transform="translate(127.246094 0)"/>
     <use xlink:href="#DejaVuSans-30" transform="translate(159.033203 0)"/>
     <use xlink:href="#DejaVuSans-36" transform="translate(222.65625 0)"/>
     <use xlink:href="#DejaVuSans-2e" transform="translate(286.279297 0)"/>
     <use xlink:href="#DejaVuSans-32" transform="translate(318.066406 0)"/>
     <use xlink:href="#DejaVuSans-30" transform="translate(381.689453 0)"/>
     <use xlink:href="#DejaVuSans-32" transform="translate(445.3125 0)"/>
     <use xlink:href="#DejaVuSans-34" transform="translate(508.935547 0)"/>
    </g>
   </g>
   <g id="patch_16">
    <path d="M 211.464331 327.577341 
Q 219.301931 343.25254 226.639531 357.927739 
" style="fill: none; stroke: #000000; stroke-linecap: round"/>
    <path d="M 226.639531 353.902817 
L 226.639531 357.927739 
L 223.419593 355.512786 
" style="fill: none; stroke: #000000; stroke-linecap: round"/>
   </g>
   <g id="text_17">
    <!-- Trachtverlauf im aktuellen Jahr und Vorjahre -->
    <g transform="translate(235.909688 37.2) scale(0.12 -0.12)">
     <defs>
      <path id="DejaVuSans-54" d="M -19 4666 
L 3928 4666 
L 3928 4134 
L 2272 4134 
L 2272 0 
L 1638 0 
L 1638 4134 
L -19 4134 
L -19 4666 
z
" transform="scale(0.015625)"/>
      <path id="DejaVuSans-76" d="M 191 3500 
L 800 3500 
L 1894 563 
L 2988 3500 
L 3597 3500 
L 2284 0 
L 1503 0 
L 191 3500 
z
" transform="scale(0.015625)"/>
      <path id="DejaVuSans-66" d="M 2375 4863 
L 2375 4384 
L 1825 4384 
Q 1516 4384 1395 4259 
Q 1275 4134 1275 3809 
L 1275 3500 
L 2222 3500 
L 2222 3053 
L 1275 3053 
L 1275 0 
L 697 0 
L 697 3053 
L 147 3053 
L 147 3500 
L 697 3500 
L 697 3744 
Q 697 4328 969 4595 
Q 1241 4863 1831 4863 
L 2375 4863 
z
" transform="scale(0.015625)"/>
      <path id="DejaVuSans-56" d="M 1831 0 
L 50 4666 
L 709 4666 
L 2188 738 
L 3669 4666 
L 4325 4666 
L 2547 0 
L 1831 0 
z
" transform="scale(0.015625)"/>
      <path id="DejaVuSans-6a" d="M 603 3500 
L 1178 3500 
L 1178 -63 
Q 1178 -731 923 -1031 
Q 669 -1331 103 -1331 
L -116 -1331 
L -116 -844 
L 38 -844 
Q 366 -844 484 -692 
Q 603 -541 603 -63 
L 603 3500 
z
M 603 4863 
L 1178 4863 
L 1178 4134 
L 603 4134 
L 603 4863 
z
" transform="scale(0.015625)"/>
     </defs>
     <use xlink:href="#DejaVuSans-54"/>
     <use xlink:href="#DejaVuSans-72" transform="translate(46.333984 0)"/>
     <use xlink:href="#DejaVuSans-61" transform="translate(87.447266 0)"/>
     <use xlink:href="#DejaVuSans-63" transform="translate(148.726562 0)"/>
     <use xlink:href="#DejaVuSans-68" transform="translate(203.707031 0)"/>
     <use xlink:href="#DejaVuSans-74" transform="translate(267.085938 0)"/>
     <use xlink:href="#DejaVuSans-76" transform="translate(306.294922 0)"/>
     <use xlink:href="#DejaVuSans-65" transform="translate(365.474609 0)"/>
     <use xlink:href="#DejaVuSans-72" transform="translate(426.998047 0)"/>
     <use xlink:href="#DejaVuSans-6c" transform="translate(468.111328 0)"/>
     <use xlink:href="#DejaVuSans-61" transform="translate(495.894531 0)"/>
     <use xlink:href="#DejaVuSans-75" transform="translate(557.173828 0)"/>
     <use xlink:href="#DejaVuSans-66" transform="translate(620.552734 0)"/>
     <use xlink:href="#DejaVuSans-20" transform="translate(655.757812 0)"/>
     <use xlink:href="#DejaVuSans-69" transform="translate(687.544922 0)"/>
     <use xlink:href="#DejaVuSans-6d" transform="translate(715.328125 0)"/>
     <use xlink:href="#DejaVuSans-20" transform="translate(812.740234 0)"/>
     <use xlink:href="#DejaVuSans-61" transform="translate(844.527344 0)"/>
     <use xlink:href="#DejaVuSans-6b" transform="translate(905.806641 0)"/>
     <use xlink:href="#DejaVuSans-74" transform="translate(963.716797 0)"/>
     <use xlink:href="#DejaVuSans-75" transform="translate(1002.925781 0)"/>
     <use xlink:href="#DejaVuSans-65" transform="translate(1066.304688 0)"/>
     <use xlink:href="#DejaVuSans-6c" transform="translate(1127.828125 0)"/>
     <use xlink:href="#DejaVuSans-6c" transform="translate(1155.611328 0)"/>
     <use xlink:href="#DejaVuSans-65" transform="translate(1183.394531 0)"/>
     <use xlink:href="#DejaVuSans-6e" transform="translate(1244.917969 0)"/>
     <use xlink:href="#DejaVuSans-20" transform="translate(1308.296875 0)"/>
     <use xlink:href="#DejaVuSans-4a" transform="translate(1340.083984 0)"/>
     <use xlink:href="#DejaVuSans-61" transform="translate(1369.576172 0)"/>
     <use xlink:href="#DejaVuSans-68" transform="translate(1430.855469 0)"/>
     <use xlink:href="#DejaVuSans-72" transform="translate(1494.234375 0)"/>
     <use xlink:href="#DejaVuSans-20" transform="translate(1535.347656 0)"/>
     <use xlink:href="#DejaVuSans-75" transform="translate(1567.134766 0)"/>
     <use xlink:href="#DejaVuSans-6e" transform="translate(1630.513672 0)"/>
     <use xlink:href="#DejaVuSans-64" transform="translate(1693.892578 0)"/>
     <use xlink:href="#DejaVuSans-20" transform="translate(1757.369141 0)"/>
     <use xlink:href="#DejaVuSans-56" transform="translate(1789.15625 0)"/>
     <use xlink:href="#DejaVuSans-6f" transform="translate(1849.814453 0)"/>
     <use xlink:href="#DejaVuSans-72" transform="translate(1910.996094 0)"/>
     <use xlink:href="#DejaVuSans-6a" transform="translate(1952.109375 0)"/>
     <use xlink:href="#DejaVuSans-61" transform="translate(1979.892578 0)"/>
     <use xlink:href="#DejaVuSans-68" transform="translate(2041.171875 0)"/>
     <use xlink:href="#DejaVuSans-72" transform="translate(2104.550781 0)"/>
     <use xlink:href="#DejaVuSans-65" transform="translate(2143.414062 0)"/>
    </g>
   </g>
   <g id="legend_1">
    <g id="patch_17">
     <path d="M 40.403125 124.590625 
L 169.542188 124.590625 
Q 171.542188 124.590625 171.542188 122.590625 
L 171.542188 50.2 
Q 171.542188 48.2 169.542188 48.2 
L 40.403125 48.2 
Q 38.403125 48.2 38.403125 50.2 
L 38.403125 122.590625 
Q 38.403125 124.590625 40.403125 124.590625 
z
" style="fill: #ffffff; opacity: 0.8; stroke: #cccccc; stroke-linejoin: miter"/>
    </g>
    <g id="line2d_69">
     <path d="M 42.403125 56.298437 
L 52.403125 56.298437 
L 62.403125 56.298437 
" style="fill: none; stroke: #bcbd22; stroke-width: 1.5; stroke-linecap: square"/>
    </g>
    <g id="text_18">
     <!-- 2022 -->
     <g transform="translate(70.403125 59.798437) scale(0.1 -0.1)">
      <use xlink:href="#DejaVuSans-32"/>
      <use xlink:href="#DejaVuSans-30" transform="translate(63.623047 0)"/>
      <use xlink:href="#DejaVuSans-32" transform="translate(127.246094 0)"/>
      <use xlink:href="#DejaVuSans-32" transform="translate(190.869141 0)"/>
     </g>
    </g>
    <g id="line2d_70">
     <path d="M 42.403125 70.976562 
L 52.403125 70.976562 
L 62.403125 70.976562 
" style="fill: none; stroke: #d62728; stroke-width: 1.5; stroke-linecap: square"/>
    </g>
    <g id="text_19">
     <!-- 2023 -->
     <g transform="translate(70.403125 74.476562) scale(0.1 -0.1)">
      <use xlink:href="#DejaVuSans-32"/>
      <use xlink:href="#DejaVuSans-30" transform="translate(63.623047 0)"/>
      <use xlink:href="#DejaVuSans-32" transform="translate(127.246094 0)"/>
      <use xlink:href="#DejaVuSans-33" transform="translate(190.869141 0)"/>
     </g>
    </g>
    <g id="line2d_71">
     <path d="M 42.403125 85.654687 
L 52.403125 85.654687 
L 62.403125 85.654687 
" style="fill: none; stroke: #2ca02c; stroke-width: 1.5; stroke-linecap: square"/>
    </g>
    <g id="text_20">
     <!-- 2024 -->
     <g transform="translate(70.403125 89.154687) scale(0.1 -0.1)">
      <use xlink:href="#DejaVuSans-32"/>
      <use xlink:href="#DejaVuSans-30" transform="translate(63.623047 0)"/>
      <use xlink:href="#DejaVuSans-32" transform="translate(127.246094 0)"/>
      <use xlink:href="#DejaVuSans-34" transform="translate(190.869141 0)"/>
     </g>
    </g>
    <g id="line2d_72">
     <path d="M 42.403125 100.332812 
L 52.403125 100.332812 
L 62.403125 100.332812 
" style="fill: none; stroke: #1f77b4; stroke-width: 1.5; stroke-linecap: square"/>
    </g>
    <g id="text_21">
     <!-- 2025 -->
     <g transform="translate(70.403125 103.832812) scale(0.1 -0.1)">
      <use xlink:href="#DejaVuSans-32"/>
      <use xlink:href="#DejaVuSans-30" transform="translate(63.623047 0)"/>
      <use xlink:href="#DejaVuSans-32" transform="translate(127.246094 0)"/>
      <use xlink:href="#DejaVuSans-35" transform="translate(190.869141 0)"/>
     </g>
    </g>
    <g id="line2d_73">
     <path d="M 42.403125 115.010938 
L 52.403125 115.010938 
L 62.403125 115.010938 
" style="fill: none; stroke-dasharray: 1.5,2.475; stroke-dashoffset: 0; stroke: #1f77b4; stroke-width: 1.5"/>
    </g>
    <g id="text_22">
     <!-- heute (07.06.2025) -->
     <g transform="translate(70.403125 118.510938) scale(0.1 -0.1)">
      <defs>
       <path id="DejaVuSans-28" d="M 1984 4856 
Q 1566 4138 1362 3434 
Q 1159 2731 1159 2009 
Q 1159 1288 1364 580 
Q 1569 -128 1984 -844 
L 1484 -844 
Q 1016 -109 783 600 
Q 550 1309 550 2009 
Q 550 2706 781 3412 
Q 1013 4119 1484 4856 
L 1984 4856 
z
" transform="scale(0.015625)"/>
       <path id="DejaVuSans-29" d="M 513 4856 
L 1013 4856 
Q 1481 4119 1714 3412 
Q 1947 2706 1947 2009 
Q 1947 1309 1714 600 
Q 1481 -109 1013 -844 
L 513 -844 
Q 928 -128 1133 580 
Q 1338 1288 1338 2009 
Q 1338 2731 1133 3434 
Q 928 4138 513 4856 
z
" transform="scale(0.015625)"/>
      </defs>
      <use xlink:href="#DejaVuSans-68"/>
      <use xlink:href="#DejaVuSans-65" transform="translate(63.378906 0)"/>
      <use xlink:href="#DejaVuSans-75" transform="translate(124.902344 0)"/>
      <use xlink:href="#DejaVuSans-74" transform="translate(188.28125 0)"/>
      <use xlink:href="#DejaVuSans-65" transform="translate(227.490234 0)"/>
      <use xlink:href="#DejaVuSans-20" transform="translate(289.013672 0)"/>
      <use xlink:href="#DejaVuSans-28" transform="translate(320.800781 0)"/>
      <use xlink:href="#DejaVuSans-30" transform="translate(359.814453 0)"/>
      <use xlink:href="#DejaVuSans-37" transform="translate(423.4375 0)"/>
      <use xlink:href="#DejaVuSans-2e" transform="translate(487.060547 0)"/>
      <use xlink:href="#DejaVuSans-30" transform="translate(518.847656 0)"/>
      <use xlink:href="#DejaVuSans-36" transform="translate(582.470703 0)"/>
      <use xlink:href="#DejaVuSans-2e" transform="translate(646.09375 0)"/>
      <use xlink:href="#DejaVuSans-32" transform="translate(677.880859 0)"/>
      <use xlink:href="#DejaVuSans-30" transform="translate(741.503906 0)"/>
      <use xlink:href="#DejaVuSans-32" transform="translate(805.126953 0)"/>
      <use xlink:href="#DejaVuSans-35" transform="translate(868.75 0)"/>
      <use xlink:href="#DejaVuSans-29" transform="translate(932.373047 0)"/>
     </g>
    </g>
   </g>
  </g>
  <g id="text_23">
   <!-- Oberbayern -->
   <g transform="translate(321.819375 9.118125) scale(0.12 -0.12)">
    <defs>
     <path id="DejaVuSans-4f" d="M 2522 4238 
Q 1834 4238 1429 3725 
Q 1025 3213 1025 2328 
Q 1025 1447 1429 934 
Q 1834 422 2522 422 
Q 3209 422 3611 934 
Q 4013 1447 4013 2328 
Q 4013 3213 3611 3725 
Q 3209 4238 2522 4238 
z
M 2522 4750 
Q 3503 4750 4090 4092 
Q 4678 3434 4678 2328 
Q 4678 1225 4090 567 
Q 3503 -91 2522 -91 
Q 1538 -91 948 565 
Q 359 1222 359 2328 
Q 359 3434 948 4092 
Q 1538 4750 2522 4750 
z
" transform="scale(0.015625)"/>
     <path id="DejaVuSans-62" d="M 3116 1747 
Q 3116 2381 2855 2742 
Q 2594 3103 2138 3103 
Q 1681 3103 1420 2742 
Q 1159 2381 1159 1747 
Q 1159 1113 1420 752 
Q 1681 391 2138 391 
Q 2594 391 2855 752 
Q 3116 1113 3116 1747 
z
M 1159 2969 
Q 1341 3281 1617 3432 
Q 1894 3584 2278 3584 
Q 2916 3584 3314 3078 
Q 3713 2572 3713 1747 
Q 3713 922 3314 415 
Q 2916 -91 2278 -91 
Q 1894 -91 1617 61 
Q 1341 213 1159 525 
L 1159 0 
L 581 0 
L 581 4863 
L 1159 4863 
L 1159 2969 
z
" transform="scale(0.015625)"/>
     <path id="DejaVuSans-79" d="M 2059 -325 
Q 1816 -950 1584 -1140 
Q 1353 -1331 966 -1331 
L 506 -1331 
L 506 -850 
L 844 -850 
Q 1081 -850 1212 -737 
Q 1344 -625 1503 -206 
L 1606 56 
L 191 3500 
L 800 3500 
L 1894 763 
L 2988 3500 
L 3597 3500 
L 2059 -325 
z
" transform="scale(0.015625)"/>
    </defs>
    <use xlink:href="#DejaVuSans-4f"/>
    <use xlink:href="#DejaVuSans-62" transform="translate(78.710938 0)"/>
    <use xlink:href="#DejaVuSans-65" transform="translate(142.1875 0)"/>
    <use xlink:href="#DejaVuSans-72" transform="translate(203.710938 0)"/>
    <use xlink:href="#DejaVuSans-62" transform="translate(244.824219 0)"/>
    <use xlink:href="#DejaVuSans-61" transform="translate(308.300781 0)"/>
    <use xlink:href="#DejaVuSans-79" transform="translate(369.580078 0)"/>
    <use xlink:href="#DejaVuSans-65" transform="translate(428.759766 0)"/>
    <use xlink:href="#DejaVuSans-72" transform="translate(490.283203 0)"/>
    <use xlink:href="#DejaVuSans-6e" transform="translate(529.646484 0)"/>
   </g>
  </g>
 </g>
 <defs>
  <clipPath id="pd443a3e24b">
   <rect x="33.403125" y="43.2" width="669.6" height="332.64"/>
  </clipPath>
 </defs>
</svg>
