<?xml version="1.0" encoding="utf-8" standalone="no"?>
<!DOCTYPE svg PUBLIC "-//W3C//DTD SVG 1.1//EN"
  "http://www.w3.org/Graphics/SVG/1.1/DTD/svg11.dtd">
<svg xmlns:xlink="http://www.w3.org/1999/xlink" width="719.594975pt" height="406.19625pt" viewBox="0 0 719.594975 406.19625" xmlns="http://www.w3.org/2000/svg" version="1.1">
 <metadata>
  <rdf:RDF xmlns:dc="http://purl.org/dc/elements/1.1/" xmlns:cc="http://creativecommons.org/ns#" xmlns:rdf="http://www.w3.org/1999/02/22-rdf-syntax-ns#">
   <cc:Work>
    <dc:type rdf:resource="http://purl.org/dc/dcmitype/StillImage"/>
    <dc:date>2025-06-26T06:24:33.400422</dc:date>
    <dc:format>image/svg+xml</dc:format>
    <dc:creator>
     <cc:Agent>
      <dc:title>Matplotlib v3.10.3, https://matplotlib.org/</dc:title>
     </cc:Agent>
    </dc:creator>
   </cc:Work>
  </rdf:RDF>
 </metadata>
 <defs>
  <style type="text/css">*{stroke-linejoin: round; stroke-linecap: butt}</style>
 </defs>
 <g id="figure_1">
  <g id="patch_1">
   <path d="M 0 406.19625 
L 719.594975 406.19625 
L 719.594975 0 
L 0 0 
z
" style="fill: #ffffff"/>
  </g>
  <g id="axes_1">
   <g id="patch_2">
    <path d="M 44.960938 375.84 
L 714.560938 375.84 
L 714.560938 43.2 
L 44.960938 43.2 
z
" style="fill: #ffffff"/>
   </g>
   <g id="patch_3">
    <path d="M 75.397301 302.94439 
L 79.602671 302.94439 
L 79.602671 315.237073 
L 75.397301 315.237073 
z
" clip-path="url(#p85baadd17c)" style="fill: #1f77b4"/>
   </g>
   <g id="patch_4">
    <path d="M 80.654013 302.94439 
L 84.859383 302.94439 
L 84.859383 326.300488 
L 80.654013 326.300488 
z
" clip-path="url(#p85baadd17c)" style="fill: #1f77b4"/>
   </g>
   <g id="patch_5">
    <path d="M 85.910726 302.94439 
L 90.116095 302.94439 
L 90.116095 318.924878 
L 85.910726 318.924878 
z
" clip-path="url(#p85baadd17c)" style="fill: #1f77b4"/>
   </g>
   <g id="patch_6">
    <path d="M 91.167438 302.94439 
L 95.372807 302.94439 
L 95.372807 318.924878 
L 91.167438 318.924878 
z
" clip-path="url(#p85baadd17c)" style="fill: #1f77b4"/>
   </g>
   <g id="patch_7">
    <path d="M 96.42415 302.94439 
L 100.62952 302.94439 
L 100.62952 312.778537 
L 96.42415 312.778537 
z
" clip-path="url(#p85baadd17c)" style="fill: #1f77b4"/>
   </g>
   <g id="patch_8">
    <path d="M 101.680862 302.94439 
L 105.886232 302.94439 
L 105.886232 307.861463 
L 101.680862 307.861463 
z
" clip-path="url(#p85baadd17c)" style="fill: #1f77b4"/>
   </g>
   <g id="patch_9">
    <path d="M 106.937574 302.94439 
L 111.142944 302.94439 
L 111.142944 314.007805 
L 106.937574 314.007805 
z
" clip-path="url(#p85baadd17c)" style="fill: #1f77b4"/>
   </g>
   <g id="patch_10">
    <path d="M 112.194287 302.94439 
L 116.399656 302.94439 
L 116.399656 317.69561 
L 112.194287 317.69561 
z
" clip-path="url(#p85baadd17c)" style="fill: #1f77b4"/>
   </g>
   <g id="patch_11">
    <path d="M 117.450999 302.94439 
L 121.656368 302.94439 
L 121.656368 311.549268 
L 117.450999 311.549268 
z
" clip-path="url(#p85baadd17c)" style="fill: #1f77b4"/>
   </g>
   <g id="patch_12">
    <path d="M 122.707711 302.94439 
L 126.913081 302.94439 
L 126.913081 306.632195 
L 122.707711 306.632195 
z
" clip-path="url(#p85baadd17c)" style="fill: #1f77b4"/>
   </g>
   <g id="patch_13">
    <path d="M 127.964423 302.94439 
L 132.169793 302.94439 
L 132.169793 305.402927 
L 127.964423 305.402927 
z
" clip-path="url(#p85baadd17c)" style="fill: #1f77b4"/>
   </g>
   <g id="patch_14">
    <path d="M 133.221135 302.94439 
L 137.426505 302.94439 
L 137.426505 305.402927 
L 133.221135 305.402927 
z
" clip-path="url(#p85baadd17c)" style="fill: #1f77b4"/>
   </g>
   <g id="patch_15">
    <path d="M 138.477848 302.94439 
L 142.683217 302.94439 
L 142.683217 310.32 
L 138.477848 310.32 
z
" clip-path="url(#p85baadd17c)" style="fill: #1f77b4"/>
   </g>
   <g id="patch_16">
    <path d="M 143.73456 302.94439 
L 147.939929 302.94439 
L 147.939929 311.549268 
L 143.73456 311.549268 
z
" clip-path="url(#p85baadd17c)" style="fill: #1f77b4"/>
   </g>
   <g id="patch_17">
    <path d="M 148.991272 302.94439 
L 153.196642 302.94439 
L 153.196642 312.778537 
L 148.991272 312.778537 
z
" clip-path="url(#p85baadd17c)" style="fill: #1f77b4"/>
   </g>
   <g id="patch_18">
    <path d="M 154.247984 302.94439 
L 158.453354 302.94439 
L 158.453354 317.69561 
L 154.247984 317.69561 
z
" clip-path="url(#p85baadd17c)" style="fill: #1f77b4"/>
   </g>
   <g id="patch_19">
    <path d="M 159.504696 302.94439 
L 163.710066 302.94439 
L 163.710066 318.924878 
L 159.504696 318.924878 
z
" clip-path="url(#p85baadd17c)" style="fill: #1f77b4"/>
   </g>
   <g id="patch_20">
    <path d="M 164.761409 302.94439 
L 168.966778 302.94439 
L 168.966778 321.383415 
L 164.761409 321.383415 
z
" clip-path="url(#p85baadd17c)" style="fill: #1f77b4"/>
   </g>
   <g id="patch_21">
    <path d="M 170.018121 302.94439 
L 174.22349 302.94439 
L 174.22349 304.173659 
L 170.018121 304.173659 
z
" clip-path="url(#p85baadd17c)" style="fill: #1f77b4"/>
   </g>
   <g id="patch_22">
    <path d="M 175.274833 302.94439 
L 179.480203 302.94439 
L 179.480203 295.56878 
L 175.274833 295.56878 
z
" clip-path="url(#p85baadd17c)" style="fill: #1f77b4"/>
   </g>
   <g id="patch_23">
    <path d="M 180.531545 302.94439 
L 184.736915 302.94439 
L 184.736915 288.193171 
L 180.531545 288.193171 
z
" clip-path="url(#p85baadd17c)" style="fill: #1f77b4"/>
   </g>
   <g id="patch_24">
    <path d="M 185.788257 302.94439 
L 189.993627 302.94439 
L 189.993627 298.027317 
L 185.788257 298.027317 
z
" clip-path="url(#p85baadd17c)" style="fill: #1f77b4"/>
   </g>
   <g id="patch_25">
    <path d="M 191.04497 302.94439 
L 195.250339 302.94439 
L 195.250339 302.94439 
L 191.04497 302.94439 
z
" clip-path="url(#p85baadd17c)" style="fill: #1f77b4"/>
   </g>
   <g id="patch_26">
    <path d="M 196.301682 302.94439 
L 200.507051 302.94439 
L 200.507051 302.94439 
L 196.301682 302.94439 
z
" clip-path="url(#p85baadd17c)" style="fill: #1f77b4"/>
   </g>
   <g id="patch_27">
    <path d="M 201.558394 302.94439 
L 205.763764 302.94439 
L 205.763764 309.090732 
L 201.558394 309.090732 
z
" clip-path="url(#p85baadd17c)" style="fill: #1f77b4"/>
   </g>
   <g id="patch_28">
    <path d="M 206.815106 302.94439 
L 211.020476 302.94439 
L 211.020476 315.237073 
L 206.815106 315.237073 
z
" clip-path="url(#p85baadd17c)" style="fill: #1f77b4"/>
   </g>
   <g id="patch_29">
    <path d="M 212.071818 302.94439 
L 216.277188 302.94439 
L 216.277188 305.402927 
L 212.071818 305.402927 
z
" clip-path="url(#p85baadd17c)" style="fill: #1f77b4"/>
   </g>
   <g id="patch_30">
    <path d="M 217.328531 302.94439 
L 221.5339 302.94439 
L 221.5339 310.32 
L 217.328531 310.32 
z
" clip-path="url(#p85baadd17c)" style="fill: #1f77b4"/>
   </g>
   <g id="patch_31">
    <path d="M 222.585243 302.94439 
L 226.790612 302.94439 
L 226.790612 322.612683 
L 222.585243 322.612683 
z
" clip-path="url(#p85baadd17c)" style="fill: #1f77b4"/>
   </g>
   <g id="patch_32">
    <path d="M 227.841955 302.94439 
L 232.047325 302.94439 
L 232.047325 315.237073 
L 227.841955 315.237073 
z
" clip-path="url(#p85baadd17c)" style="fill: #1f77b4"/>
   </g>
   <g id="patch_33">
    <path d="M 233.098667 302.94439 
L 237.304037 302.94439 
L 237.304037 312.778537 
L 233.098667 312.778537 
z
" clip-path="url(#p85baadd17c)" style="fill: #1f77b4"/>
   </g>
   <g id="patch_34">
    <path d="M 238.355379 302.94439 
L 242.560749 302.94439 
L 242.560749 329.988293 
L 238.355379 329.988293 
z
" clip-path="url(#p85baadd17c)" style="fill: #1f77b4"/>
   </g>
   <g id="patch_35">
    <path d="M 243.612092 302.94439 
L 247.817461 302.94439 
L 247.817461 302.94439 
L 243.612092 302.94439 
z
" clip-path="url(#p85baadd17c)" style="fill: #1f77b4"/>
   </g>
   <g id="patch_36">
    <path d="M 248.868804 302.94439 
L 253.074173 302.94439 
L 253.074173 293.110244 
L 248.868804 293.110244 
z
" clip-path="url(#p85baadd17c)" style="fill: #1f77b4"/>
   </g>
   <g id="patch_37">
    <path d="M 254.125516 302.94439 
L 258.330886 302.94439 
L 258.330886 301.715122 
L 254.125516 301.715122 
z
" clip-path="url(#p85baadd17c)" style="fill: #1f77b4"/>
   </g>
   <g id="patch_38">
    <path d="M 259.382228 302.94439 
L 263.587598 302.94439 
L 263.587598 323.841951 
L 259.382228 323.841951 
z
" clip-path="url(#p85baadd17c)" style="fill: #1f77b4"/>
   </g>
   <g id="patch_39">
    <path d="M 264.63894 302.94439 
L 268.84431 302.94439 
L 268.84431 314.007805 
L 264.63894 314.007805 
z
" clip-path="url(#p85baadd17c)" style="fill: #1f77b4"/>
   </g>
   <g id="patch_40">
    <path d="M 269.895653 302.94439 
L 274.101022 302.94439 
L 274.101022 311.549268 
L 269.895653 311.549268 
z
" clip-path="url(#p85baadd17c)" style="fill: #1f77b4"/>
   </g>
   <g id="patch_41">
    <path d="M 275.152365 302.94439 
L 279.357734 302.94439 
L 279.357734 306.632195 
L 275.152365 306.632195 
z
" clip-path="url(#p85baadd17c)" style="fill: #1f77b4"/>
   </g>
   <g id="patch_42">
    <path d="M 280.409077 302.94439 
L 284.614447 302.94439 
L 284.614447 307.861463 
L 280.409077 307.861463 
z
" clip-path="url(#p85baadd17c)" style="fill: #1f77b4"/>
   </g>
   <g id="patch_43">
    <path d="M 285.665789 302.94439 
L 289.871159 302.94439 
L 289.871159 279.588293 
L 285.665789 279.588293 
z
" clip-path="url(#p85baadd17c)" style="fill: #1f77b4"/>
   </g>
   <g id="patch_44">
    <path d="M 290.922501 302.94439 
L 295.127871 302.94439 
L 295.127871 231.646829 
L 290.922501 231.646829 
z
" clip-path="url(#p85baadd17c)" style="fill: #1f77b4"/>
   </g>
   <g id="patch_45">
    <path d="M 296.179214 302.94439 
L 300.384583 302.94439 
L 300.384583 255.002927 
L 296.179214 255.002927 
z
" clip-path="url(#p85baadd17c)" style="fill: #1f77b4"/>
   </g>
   <g id="patch_46">
    <path d="M 301.435926 302.94439 
L 305.641295 302.94439 
L 305.641295 239.022439 
L 301.435926 239.022439 
z
" clip-path="url(#p85baadd17c)" style="fill: #1f77b4"/>
   </g>
   <g id="patch_47">
    <path d="M 306.692638 302.94439 
L 310.898008 302.94439 
L 310.898008 208.290732 
L 306.692638 208.290732 
z
" clip-path="url(#p85baadd17c)" style="fill: #1f77b4"/>
   </g>
   <g id="patch_48">
    <path d="M 311.94935 302.94439 
L 316.15472 302.94439 
L 316.15472 200.915122 
L 311.94935 200.915122 
z
" clip-path="url(#p85baadd17c)" style="fill: #1f77b4"/>
   </g>
   <g id="patch_49">
    <path d="M 317.206062 302.94439 
L 321.411432 302.94439 
L 321.411432 279.588293 
L 317.206062 279.588293 
z
" clip-path="url(#p85baadd17c)" style="fill: #1f77b4"/>
   </g>
   <g id="patch_50">
    <path d="M 322.462775 302.94439 
L 326.668144 302.94439 
L 326.668144 339.822439 
L 322.462775 339.822439 
z
" clip-path="url(#p85baadd17c)" style="fill: #1f77b4"/>
   </g>
   <g id="patch_51">
    <path d="M 327.719487 302.94439 
L 331.924856 302.94439 
L 331.924856 220.583415 
L 327.719487 220.583415 
z
" clip-path="url(#p85baadd17c)" style="fill: #1f77b4"/>
   </g>
   <g id="patch_52">
    <path d="M 332.976199 302.94439 
L 337.181569 302.94439 
L 337.181569 182.476098 
L 332.976199 182.476098 
z
" clip-path="url(#p85baadd17c)" style="fill: #1f77b4"/>
   </g>
   <g id="patch_53">
    <path d="M 338.232911 302.94439 
L 342.438281 302.94439 
L 342.438281 264.837073 
L 338.232911 264.837073 
z
" clip-path="url(#p85baadd17c)" style="fill: #1f77b4"/>
   </g>
   <g id="patch_54">
    <path d="M 343.489623 302.94439 
L 347.694993 302.94439 
L 347.694993 253.773659 
L 343.489623 253.773659 
z
" clip-path="url(#p85baadd17c)" style="fill: #1f77b4"/>
   </g>
   <g id="patch_55">
    <path d="M 348.746336 302.94439 
L 352.951705 302.94439 
L 352.951705 159.12 
L 348.746336 159.12 
z
" clip-path="url(#p85baadd17c)" style="fill: #1f77b4"/>
   </g>
   <g id="patch_56">
    <path d="M 354.003048 302.94439 
L 358.208417 302.94439 
L 358.208417 352.115122 
L 354.003048 352.115122 
z
" clip-path="url(#p85baadd17c)" style="fill: #1f77b4"/>
   </g>
   <g id="patch_57">
    <path d="M 359.25976 302.94439 
L 363.46513 302.94439 
L 363.46513 323.841951 
L 359.25976 323.841951 
z
" clip-path="url(#p85baadd17c)" style="fill: #1f77b4"/>
   </g>
   <g id="patch_58">
    <path d="M 364.516472 302.94439 
L 368.721842 302.94439 
L 368.721842 272.212683 
L 364.516472 272.212683 
z
" clip-path="url(#p85baadd17c)" style="fill: #1f77b4"/>
   </g>
   <g id="patch_59">
    <path d="M 369.773184 302.94439 
L 373.978554 302.94439 
L 373.978554 138.222439 
L 369.773184 138.222439 
z
" clip-path="url(#p85baadd17c)" style="fill: #1f77b4"/>
   </g>
   <g id="patch_60">
    <path d="M 375.029897 302.94439 
L 379.235266 302.94439 
L 379.235266 58.32 
L 375.029897 58.32 
z
" clip-path="url(#p85baadd17c)" style="fill: #1f77b4"/>
   </g>
   <g id="patch_61">
    <path d="M 380.286609 302.94439 
L 384.491978 302.94439 
L 384.491978 75.529756 
L 380.286609 75.529756 
z
" clip-path="url(#p85baadd17c)" style="fill: #1f77b4"/>
   </g>
   <g id="patch_62">
    <path d="M 385.543321 302.94439 
L 389.748691 302.94439 
L 389.748691 81.676098 
L 385.543321 81.676098 
z
" clip-path="url(#p85baadd17c)" style="fill: #1f77b4"/>
   </g>
   <g id="patch_63">
    <path d="M 390.800033 302.94439 
L 395.005403 302.94439 
L 395.005403 73.07122 
L 390.800033 73.07122 
z
" clip-path="url(#p85baadd17c)" style="fill: #1f77b4"/>
   </g>
   <g id="patch_64">
    <path d="M 396.056745 302.94439 
L 400.262115 302.94439 
L 400.262115 96.427317 
L 396.056745 96.427317 
z
" clip-path="url(#p85baadd17c)" style="fill: #1f77b4"/>
   </g>
   <g id="patch_65">
    <path d="M 401.313458 302.94439 
L 405.518827 302.94439 
L 405.518827 257.461463 
L 401.313458 257.461463 
z
" clip-path="url(#p85baadd17c)" style="fill: #1f77b4"/>
   </g>
   <g id="patch_66">
    <path d="M 406.57017 302.94439 
L 410.775539 302.94439 
L 410.775539 360.72 
L 406.57017 360.72 
z
" clip-path="url(#p85baadd17c)" style="fill: #1f77b4"/>
   </g>
   <g id="patch_67">
    <path d="M 411.826882 302.94439 
L 416.032252 302.94439 
L 416.032252 338.593171 
L 411.826882 338.593171 
z
" clip-path="url(#p85baadd17c)" style="fill: #1f77b4"/>
   </g>
   <g id="patch_68">
    <path d="M 417.083594 302.94439 
L 421.288964 302.94439 
L 421.288964 310.32 
L 417.083594 310.32 
z
" clip-path="url(#p85baadd17c)" style="fill: #1f77b4"/>
   </g>
   <g id="patch_69">
    <path d="M 422.340306 302.94439 
L 426.545676 302.94439 
L 426.545676 288.193171 
L 422.340306 288.193171 
z
" clip-path="url(#p85baadd17c)" style="fill: #1f77b4"/>
   </g>
   <g id="patch_70">
    <path d="M 427.597019 302.94439 
L 431.802388 302.94439 
L 431.802388 316.466341 
L 427.597019 316.466341 
z
" clip-path="url(#p85baadd17c)" style="fill: #1f77b4"/>
   </g>
   <g id="patch_71">
    <path d="M 432.853731 302.94439 
L 437.0591 302.94439 
L 437.0591 255.002927 
L 432.853731 255.002927 
z
" clip-path="url(#p85baadd17c)" style="fill: #1f77b4"/>
   </g>
   <g id="patch_72">
    <path d="M 438.110443 302.94439 
L 442.315813 302.94439 
L 442.315813 157.890732 
L 438.110443 157.890732 
z
" clip-path="url(#p85baadd17c)" style="fill: #1f77b4"/>
   </g>
   <g id="patch_73">
    <path d="M 443.367155 302.94439 
L 447.572525 302.94439 
L 447.572525 149.285854 
L 443.367155 149.285854 
z
" clip-path="url(#p85baadd17c)" style="fill: #1f77b4"/>
   </g>
   <g id="patch_74">
    <path d="M 448.623867 302.94439 
L 452.829237 302.94439 
L 452.829237 195.998049 
L 448.623867 195.998049 
z
" clip-path="url(#p85baadd17c)" style="fill: #1f77b4"/>
   </g>
   <g id="patch_75">
    <path d="M 453.88058 302.94439 
L 458.085949 302.94439 
L 458.085949 205.832195 
L 453.88058 205.832195 
z
" clip-path="url(#p85baadd17c)" style="fill: #1f77b4"/>
   </g>
   <g id="patch_76">
    <path d="M 459.137292 302.94439 
L 463.342661 302.94439 
L 463.342661 184.934634 
L 459.137292 184.934634 
z
" clip-path="url(#p85baadd17c)" style="fill: #1f77b4"/>
   </g>
   <g id="patch_77">
    <path d="M 464.394004 302.94439 
L 468.599374 302.94439 
L 468.599374 345.96878 
L 464.394004 345.96878 
z
" clip-path="url(#p85baadd17c)" style="fill: #1f77b4"/>
   </g>
   <g id="patch_78">
    <path d="M 469.650716 302.94439 
L 473.856086 302.94439 
L 473.856086 326.300488 
L 469.650716 326.300488 
z
" clip-path="url(#p85baadd17c)" style="fill: #1f77b4"/>
   </g>
   <g id="patch_79">
    <path d="M 474.907428 302.94439 
L 479.112798 302.94439 
L 479.112798 309.090732 
L 474.907428 309.090732 
z
" clip-path="url(#p85baadd17c)" style="fill: #1f77b4"/>
   </g>
   <g id="patch_80">
    <path d="M 480.164141 302.94439 
L 484.36951 302.94439 
L 484.36951 322.612683 
L 480.164141 322.612683 
z
" clip-path="url(#p85baadd17c)" style="fill: #1f77b4"/>
   </g>
   <g id="patch_81">
    <path d="M 485.420853 302.94439 
L 489.626222 302.94439 
L 489.626222 255.002927 
L 485.420853 255.002927 
z
" clip-path="url(#p85baadd17c)" style="fill: #1f77b4"/>
   </g>
   <g id="patch_82">
    <path d="M 490.677565 302.94439 
L 494.882935 302.94439 
L 494.882935 230.417561 
L 490.677565 230.417561 
z
" clip-path="url(#p85baadd17c)" style="fill: #1f77b4"/>
   </g>
   <g id="patch_83">
    <path d="M 495.934277 302.94439 
L 500.139647 302.94439 
L 500.139647 316.466341 
L 495.934277 316.466341 
z
" clip-path="url(#p85baadd17c)" style="fill: #1f77b4"/>
   </g>
   <g id="patch_84">
    <path d="M 501.190989 302.94439 
L 505.396359 302.94439 
L 505.396359 337.363902 
L 501.190989 337.363902 
z
" clip-path="url(#p85baadd17c)" style="fill: #1f77b4"/>
   </g>
   <g id="patch_85">
    <path d="M 506.447702 302.94439 
L 510.653071 302.94439 
L 510.653071 341.051707 
L 506.447702 341.051707 
z
" clip-path="url(#p85baadd17c)" style="fill: #1f77b4"/>
   </g>
   <g id="patch_86">
    <path d="M 511.704414 302.94439 
L 515.909783 302.94439 
L 515.909783 318.924878 
L 511.704414 318.924878 
z
" clip-path="url(#p85baadd17c)" style="fill: #1f77b4"/>
   </g>
   <g id="patch_87">
    <path d="M 516.961126 302.94439 
L 521.166496 302.94439 
L 521.166496 274.67122 
L 516.961126 274.67122 
z
" clip-path="url(#p85baadd17c)" style="fill: #1f77b4"/>
   </g>
   <g id="patch_88">
    <path d="M 522.217838 302.94439 
L 526.423208 302.94439 
L 526.423208 329.988293 
L 522.217838 329.988293 
z
" clip-path="url(#p85baadd17c)" style="fill: #1f77b4"/>
   </g>
   <g id="patch_89">
    <path d="M 527.47455 302.94439 
L 531.67992 302.94439 
L 531.67992 328.759024 
L 527.47455 328.759024 
z
" clip-path="url(#p85baadd17c)" style="fill: #1f77b4"/>
   </g>
   <g id="patch_90">
    <path d="M 532.731263 302.94439 
L 536.936632 302.94439 
L 536.936632 301.715122 
L 532.731263 301.715122 
z
" clip-path="url(#p85baadd17c)" style="fill: #1f77b4"/>
   </g>
   <g id="patch_91">
    <path d="M 537.987975 302.94439 
L 542.193344 302.94439 
L 542.193344 342.280976 
L 537.987975 342.280976 
z
" clip-path="url(#p85baadd17c)" style="fill: #1f77b4"/>
   </g>
   <g id="patch_92">
    <path d="M 543.244687 302.94439 
L 547.450057 302.94439 
L 547.450057 230.417561 
L 543.244687 230.417561 
z
" clip-path="url(#p85baadd17c)" style="fill: #1f77b4"/>
   </g>
   <g id="patch_93">
    <path d="M 548.501399 302.94439 
L 552.706769 302.94439 
L 552.706769 203.373659 
L 548.501399 203.373659 
z
" clip-path="url(#p85baadd17c)" style="fill: #1f77b4"/>
   </g>
   <g id="patch_94">
    <path d="M 553.758111 302.94439 
L 557.963481 302.94439 
L 557.963481 266.066341 
L 553.758111 266.066341 
z
" clip-path="url(#p85baadd17c)" style="fill: #1f77b4"/>
   </g>
   <g id="patch_95">
    <path d="M 559.014824 302.94439 
L 563.220193 302.94439 
L 563.220193 339.822439 
L 559.014824 339.822439 
z
" clip-path="url(#p85baadd17c)" style="fill: #1f77b4"/>
   </g>
   <g id="patch_96">
    <path d="M 564.271536 302.94439 
L 568.476905 302.94439 
L 568.476905 291.880976 
L 564.271536 291.880976 
z
" clip-path="url(#p85baadd17c)" style="fill: #1f77b4"/>
   </g>
   <g id="patch_97">
    <path d="M 569.528248 302.94439 
L 573.733618 302.94439 
L 573.733618 274.67122 
L 569.528248 274.67122 
z
" clip-path="url(#p85baadd17c)" style="fill: #1f77b4"/>
   </g>
   <g id="patch_98">
    <path d="M 574.78496 302.94439 
L 578.99033 302.94439 
L 578.99033 357.032195 
L 574.78496 357.032195 
z
" clip-path="url(#p85baadd17c)" style="fill: #1f77b4"/>
   </g>
   <g id="patch_99">
    <path d="M 580.041672 302.94439 
L 584.247042 302.94439 
L 584.247042 332.446829 
L 580.041672 332.446829 
z
" clip-path="url(#p85baadd17c)" style="fill: #1f77b4"/>
   </g>
   <g id="patch_100">
    <path d="M 585.298385 302.94439 
L 589.503754 302.94439 
L 589.503754 329.988293 
L 585.298385 329.988293 
z
" clip-path="url(#p85baadd17c)" style="fill: #1f77b4"/>
   </g>
   <g id="patch_101">
    <path d="M 590.555097 302.94439 
L 594.760466 302.94439 
L 594.760466 359.490732 
L 590.555097 359.490732 
z
" clip-path="url(#p85baadd17c)" style="fill: #1f77b4"/>
   </g>
   <g id="patch_102">
    <path d="M 595.811809 302.94439 
L 600.017179 302.94439 
L 600.017179 342.280976 
L 595.811809 342.280976 
z
" clip-path="url(#p85baadd17c)" style="fill: #1f77b4"/>
   </g>
   <g id="patch_103">
    <path d="M 601.068521 302.94439 
L 605.273891 302.94439 
L 605.273891 280.817561 
L 601.068521 280.817561 
z
" clip-path="url(#p85baadd17c)" style="fill: #1f77b4"/>
   </g>
   <g id="patch_104">
    <path d="M 606.325233 302.94439 
L 610.530603 302.94439 
L 610.530603 284.505366 
L 606.325233 284.505366 
z
" clip-path="url(#p85baadd17c)" style="fill: #1f77b4"/>
   </g>
   <g id="patch_105">
    <path d="M 611.581946 302.94439 
L 615.787315 302.94439 
L 615.787315 232.876098 
L 611.581946 232.876098 
z
" clip-path="url(#p85baadd17c)" style="fill: #1f77b4"/>
   </g>
   <g id="patch_106">
    <path d="M 616.838658 302.94439 
L 621.044027 302.94439 
L 621.044027 188.622439 
L 616.838658 188.622439 
z
" clip-path="url(#p85baadd17c)" style="fill: #1f77b4"/>
   </g>
   <g id="patch_107">
    <path d="M 622.09537 302.94439 
L 626.30074 302.94439 
L 626.30074 149.285854 
L 622.09537 149.285854 
z
" clip-path="url(#p85baadd17c)" style="fill: #1f77b4"/>
   </g>
   <g id="patch_108">
    <path d="M 627.352082 302.94439 
L 631.557452 302.94439 
L 631.557452 176.329756 
L 627.352082 176.329756 
z
" clip-path="url(#p85baadd17c)" style="fill: #1f77b4"/>
   </g>
   <g id="patch_109">
    <path d="M 632.608794 302.94439 
L 636.814164 302.94439 
L 636.814164 347.198049 
L 632.608794 347.198049 
z
" clip-path="url(#p85baadd17c)" style="fill: #1f77b4"/>
   </g>
   <g id="patch_110">
    <path d="M 637.865507 302.94439 
L 642.070876 302.94439 
L 642.070876 230.417561 
L 637.865507 230.417561 
z
" clip-path="url(#p85baadd17c)" style="fill: #1f77b4"/>
   </g>
   <g id="patch_111">
    <path d="M 643.122219 302.94439 
L 647.327588 302.94439 
L 647.327588 173.87122 
L 643.122219 173.87122 
z
" clip-path="url(#p85baadd17c)" style="fill: #1f77b4"/>
   </g>
   <g id="patch_112">
    <path d="M 648.378931 302.94439 
L 652.584301 302.94439 
L 652.584301 193.539512 
L 648.378931 193.539512 
z
" clip-path="url(#p85baadd17c)" style="fill: #1f77b4"/>
   </g>
   <g id="patch_113">
    <path d="M 653.635643 302.94439 
L 657.841013 302.94439 
L 657.841013 259.92 
L 653.635643 259.92 
z
" clip-path="url(#p85baadd17c)" style="fill: #1f77b4"/>
   </g>
   <g id="patch_114">
    <path d="M 658.892355 302.94439 
L 663.097725 302.94439 
L 663.097725 219.354146 
L 658.892355 219.354146 
z
" clip-path="url(#p85baadd17c)" style="fill: #1f77b4"/>
   </g>
   <g id="patch_115">
    <path d="M 664.149068 302.94439 
L 668.354437 302.94439 
L 668.354437 191.080976 
L 664.149068 191.080976 
z
" clip-path="url(#p85baadd17c)" style="fill: #1f77b4"/>
   </g>
   <g id="patch_116">
    <path d="M 669.40578 302.94439 
L 673.611149 302.94439 
L 673.611149 300.485854 
L 669.40578 300.485854 
z
" clip-path="url(#p85baadd17c)" style="fill: #1f77b4"/>
   </g>
   <g id="patch_117">
    <path d="M 674.662492 302.94439 
L 678.867862 302.94439 
L 678.867862 256.232195 
L 674.662492 256.232195 
z
" clip-path="url(#p85baadd17c)" style="fill: #1f77b4"/>
   </g>
   <g id="patch_118">
    <path d="M 679.919204 302.94439 
L 684.124574 302.94439 
L 684.124574 329.988293 
L 679.919204 329.988293 
z
" clip-path="url(#p85baadd17c)" style="fill: #1f77b4"/>
   </g>
   <g id="matplotlib.axis_1">
    <g id="xtick_1">
     <g id="line2d_1">
      <path d="M 72.243274 375.84 
L 72.243274 43.2 
" clip-path="url(#p85baadd17c)" style="fill: none; stroke: #b0b0b0; stroke-width: 0.8; stroke-linecap: square"/>
     </g>
     <g id="line2d_2">
      <defs>
       <path id="m3ddb47ba64" d="M 0 0 
L 0 3.5 
" style="stroke: #000000; stroke-width: 0.8"/>
      </defs>
      <g>
       <use xlink:href="#m3ddb47ba64" x="72.243274" y="375.84" style="stroke: #000000; stroke-width: 0.8"/>
      </g>
     </g>
     <g id="text_1">
      <!-- Mär -->
      <g transform="translate(62.80968 390.438438) scale(0.1 -0.1)">
       <defs>
        <path id="DejaVuSans-4d" d="M 628 4666 
L 1569 4666 
L 2759 1491 
L 3956 4666 
L 4897 4666 
L 4897 0 
L 4281 0 
L 4281 4097 
L 3078 897 
L 2444 897 
L 1241 4097 
L 1241 0 
L 628 0 
L 628 4666 
z
" transform="scale(0.015625)"/>
        <path id="DejaVuSans-e4" d="M 2194 1759 
Q 1497 1759 1228 1600 
Q 959 1441 959 1056 
Q 959 750 1161 570 
Q 1363 391 1709 391 
Q 2188 391 2477 730 
Q 2766 1069 2766 1631 
L 2766 1759 
L 2194 1759 
z
M 3341 1997 
L 3341 0 
L 2766 0 
L 2766 531 
Q 2569 213 2275 61 
Q 1981 -91 1556 -91 
Q 1019 -91 701 211 
Q 384 513 384 1019 
Q 384 1609 779 1909 
Q 1175 2209 1959 2209 
L 2766 2209 
L 2766 2266 
Q 2766 2663 2505 2880 
Q 2244 3097 1772 3097 
Q 1472 3097 1187 3025 
Q 903 2953 641 2809 
L 641 3341 
Q 956 3463 1253 3523 
Q 1550 3584 1831 3584 
Q 2591 3584 2966 3190 
Q 3341 2797 3341 1997 
z
M 2150 4850 
L 2784 4850 
L 2784 4219 
L 2150 4219 
L 2150 4850 
z
M 928 4850 
L 1562 4850 
L 1562 4219 
L 928 4219 
L 928 4850 
z
" transform="scale(0.015625)"/>
        <path id="DejaVuSans-72" d="M 2631 2963 
Q 2534 3019 2420 3045 
Q 2306 3072 2169 3072 
Q 1681 3072 1420 2755 
Q 1159 2438 1159 1844 
L 1159 0 
L 581 0 
L 581 3500 
L 1159 3500 
L 1159 2956 
Q 1341 3275 1631 3429 
Q 1922 3584 2338 3584 
Q 2397 3584 2469 3576 
Q 2541 3569 2628 3553 
L 2631 2963 
z
" transform="scale(0.015625)"/>
       </defs>
       <use xlink:href="#DejaVuSans-4d"/>
       <use xlink:href="#DejaVuSans-e4" transform="translate(86.279297 0)"/>
       <use xlink:href="#DejaVuSans-72" transform="translate(147.558594 0)"/>
      </g>
     </g>
    </g>
    <g id="xtick_2">
     <g id="line2d_3">
      <path d="M 145.837245 375.84 
L 145.837245 43.2 
" clip-path="url(#p85baadd17c)" style="fill: none; stroke: #b0b0b0; stroke-width: 0.8; stroke-linecap: square"/>
     </g>
     <g id="line2d_4">
      <g>
       <use xlink:href="#m3ddb47ba64" x="145.837245" y="375.84" style="stroke: #000000; stroke-width: 0.8"/>
      </g>
     </g>
     <g id="text_2">
      <!-- 15 -->
      <g transform="translate(139.474745 390.438438) scale(0.1 -0.1)">
       <defs>
        <path id="DejaVuSans-31" d="M 794 531 
L 1825 531 
L 1825 4091 
L 703 3866 
L 703 4441 
L 1819 4666 
L 2450 4666 
L 2450 531 
L 3481 531 
L 3481 0 
L 794 0 
L 794 531 
z
" transform="scale(0.015625)"/>
        <path id="DejaVuSans-35" d="M 691 4666 
L 3169 4666 
L 3169 4134 
L 1269 4134 
L 1269 2991 
Q 1406 3038 1543 3061 
Q 1681 3084 1819 3084 
Q 2600 3084 3056 2656 
Q 3513 2228 3513 1497 
Q 3513 744 3044 326 
Q 2575 -91 1722 -91 
Q 1428 -91 1123 -41 
Q 819 9 494 109 
L 494 744 
Q 775 591 1075 516 
Q 1375 441 1709 441 
Q 2250 441 2565 725 
Q 2881 1009 2881 1497 
Q 2881 1984 2565 2268 
Q 2250 2553 1709 2553 
Q 1456 2553 1204 2497 
Q 953 2441 691 2322 
L 691 4666 
z
" transform="scale(0.015625)"/>
       </defs>
       <use xlink:href="#DejaVuSans-31"/>
       <use xlink:href="#DejaVuSans-35" transform="translate(63.623047 0)"/>
      </g>
     </g>
    </g>
    <g id="xtick_3">
     <g id="line2d_5">
      <path d="M 235.201352 375.84 
L 235.201352 43.2 
" clip-path="url(#p85baadd17c)" style="fill: none; stroke: #b0b0b0; stroke-width: 0.8; stroke-linecap: square"/>
     </g>
     <g id="line2d_6">
      <g>
       <use xlink:href="#m3ddb47ba64" x="235.201352" y="375.84" style="stroke: #000000; stroke-width: 0.8"/>
      </g>
     </g>
     <g id="text_3">
      <!-- Apr -->
      <g transform="translate(226.551352 390.438438) scale(0.1 -0.1)">
       <defs>
        <path id="DejaVuSans-41" d="M 2188 4044 
L 1331 1722 
L 3047 1722 
L 2188 4044 
z
M 1831 4666 
L 2547 4666 
L 4325 0 
L 3669 0 
L 3244 1197 
L 1141 1197 
L 716 0 
L 50 0 
L 1831 4666 
z
" transform="scale(0.015625)"/>
        <path id="DejaVuSans-70" d="M 1159 525 
L 1159 -1331 
L 581 -1331 
L 581 3500 
L 1159 3500 
L 1159 2969 
Q 1341 3281 1617 3432 
Q 1894 3584 2278 3584 
Q 2916 3584 3314 3078 
Q 3713 2572 3713 1747 
Q 3713 922 3314 415 
Q 2916 -91 2278 -91 
Q 1894 -91 1617 61 
Q 1341 213 1159 525 
z
M 3116 1747 
Q 3116 2381 2855 2742 
Q 2594 3103 2138 3103 
Q 1681 3103 1420 2742 
Q 1159 2381 1159 1747 
Q 1159 1113 1420 752 
Q 1681 391 2138 391 
Q 2594 391 2855 752 
Q 3116 1113 3116 1747 
z
" transform="scale(0.015625)"/>
       </defs>
       <use xlink:href="#DejaVuSans-41"/>
       <use xlink:href="#DejaVuSans-70" transform="translate(68.408203 0)"/>
       <use xlink:href="#DejaVuSans-72" transform="translate(131.884766 0)"/>
      </g>
     </g>
    </g>
    <g id="xtick_4">
     <g id="line2d_7">
      <path d="M 308.795323 375.84 
L 308.795323 43.2 
" clip-path="url(#p85baadd17c)" style="fill: none; stroke: #b0b0b0; stroke-width: 0.8; stroke-linecap: square"/>
     </g>
     <g id="line2d_8">
      <g>
       <use xlink:href="#m3ddb47ba64" x="308.795323" y="375.84" style="stroke: #000000; stroke-width: 0.8"/>
      </g>
     </g>
     <g id="text_4">
      <!-- 15 -->
      <g transform="translate(302.432823 390.438438) scale(0.1 -0.1)">
       <use xlink:href="#DejaVuSans-31"/>
       <use xlink:href="#DejaVuSans-35" transform="translate(63.623047 0)"/>
      </g>
     </g>
    </g>
    <g id="xtick_5">
     <g id="line2d_9">
      <path d="M 392.902718 375.84 
L 392.902718 43.2 
" clip-path="url(#p85baadd17c)" style="fill: none; stroke: #b0b0b0; stroke-width: 0.8; stroke-linecap: square"/>
     </g>
     <g id="line2d_10">
      <g>
       <use xlink:href="#m3ddb47ba64" x="392.902718" y="375.84" style="stroke: #000000; stroke-width: 0.8"/>
      </g>
     </g>
     <g id="text_5">
      <!-- Mai -->
      <g transform="translate(384.13553 390.438438) scale(0.1 -0.1)">
       <defs>
        <path id="DejaVuSans-61" d="M 2194 1759 
Q 1497 1759 1228 1600 
Q 959 1441 959 1056 
Q 959 750 1161 570 
Q 1363 391 1709 391 
Q 2188 391 2477 730 
Q 2766 1069 2766 1631 
L 2766 1759 
L 2194 1759 
z
M 3341 1997 
L 3341 0 
L 2766 0 
L 2766 531 
Q 2569 213 2275 61 
Q 1981 -91 1556 -91 
Q 1019 -91 701 211 
Q 384 513 384 1019 
Q 384 1609 779 1909 
Q 1175 2209 1959 2209 
L 2766 2209 
L 2766 2266 
Q 2766 2663 2505 2880 
Q 2244 3097 1772 3097 
Q 1472 3097 1187 3025 
Q 903 2953 641 2809 
L 641 3341 
Q 956 3463 1253 3523 
Q 1550 3584 1831 3584 
Q 2591 3584 2966 3190 
Q 3341 2797 3341 1997 
z
" transform="scale(0.015625)"/>
        <path id="DejaVuSans-69" d="M 603 3500 
L 1178 3500 
L 1178 0 
L 603 0 
L 603 3500 
z
M 603 4863 
L 1178 4863 
L 1178 4134 
L 603 4134 
L 603 4863 
z
" transform="scale(0.015625)"/>
       </defs>
       <use xlink:href="#DejaVuSans-4d"/>
       <use xlink:href="#DejaVuSans-61" transform="translate(86.279297 0)"/>
       <use xlink:href="#DejaVuSans-69" transform="translate(147.558594 0)"/>
      </g>
     </g>
    </g>
    <g id="xtick_6">
     <g id="line2d_11">
      <path d="M 466.496689 375.84 
L 466.496689 43.2 
" clip-path="url(#p85baadd17c)" style="fill: none; stroke: #b0b0b0; stroke-width: 0.8; stroke-linecap: square"/>
     </g>
     <g id="line2d_12">
      <g>
       <use xlink:href="#m3ddb47ba64" x="466.496689" y="375.84" style="stroke: #000000; stroke-width: 0.8"/>
      </g>
     </g>
     <g id="text_6">
      <!-- 15 -->
      <g transform="translate(460.134189 390.438438) scale(0.1 -0.1)">
       <use xlink:href="#DejaVuSans-31"/>
       <use xlink:href="#DejaVuSans-35" transform="translate(63.623047 0)"/>
      </g>
     </g>
    </g>
    <g id="xtick_7">
     <g id="line2d_13">
      <path d="M 555.860796 375.84 
L 555.860796 43.2 
" clip-path="url(#p85baadd17c)" style="fill: none; stroke: #b0b0b0; stroke-width: 0.8; stroke-linecap: square"/>
     </g>
     <g id="line2d_14">
      <g>
       <use xlink:href="#m3ddb47ba64" x="555.860796" y="375.84" style="stroke: #000000; stroke-width: 0.8"/>
      </g>
     </g>
     <g id="text_7">
      <!-- Jun -->
      <g transform="translate(548.048296 390.438438) scale(0.1 -0.1)">
       <defs>
        <path id="DejaVuSans-4a" d="M 628 4666 
L 1259 4666 
L 1259 325 
Q 1259 -519 939 -900 
Q 619 -1281 -91 -1281 
L -331 -1281 
L -331 -750 
L -134 -750 
Q 284 -750 456 -515 
Q 628 -281 628 325 
L 628 4666 
z
" transform="scale(0.015625)"/>
        <path id="DejaVuSans-75" d="M 544 1381 
L 544 3500 
L 1119 3500 
L 1119 1403 
Q 1119 906 1312 657 
Q 1506 409 1894 409 
Q 2359 409 2629 706 
Q 2900 1003 2900 1516 
L 2900 3500 
L 3475 3500 
L 3475 0 
L 2900 0 
L 2900 538 
Q 2691 219 2414 64 
Q 2138 -91 1772 -91 
Q 1169 -91 856 284 
Q 544 659 544 1381 
z
M 1991 3584 
L 1991 3584 
z
" transform="scale(0.015625)"/>
        <path id="DejaVuSans-6e" d="M 3513 2113 
L 3513 0 
L 2938 0 
L 2938 2094 
Q 2938 2591 2744 2837 
Q 2550 3084 2163 3084 
Q 1697 3084 1428 2787 
Q 1159 2491 1159 1978 
L 1159 0 
L 581 0 
L 581 3500 
L 1159 3500 
L 1159 2956 
Q 1366 3272 1645 3428 
Q 1925 3584 2291 3584 
Q 2894 3584 3203 3211 
Q 3513 2838 3513 2113 
z
" transform="scale(0.015625)"/>
       </defs>
       <use xlink:href="#DejaVuSans-4a"/>
       <use xlink:href="#DejaVuSans-75" transform="translate(29.492188 0)"/>
       <use xlink:href="#DejaVuSans-6e" transform="translate(92.871094 0)"/>
      </g>
     </g>
    </g>
    <g id="xtick_8">
     <g id="line2d_15">
      <path d="M 629.454767 375.84 
L 629.454767 43.2 
" clip-path="url(#p85baadd17c)" style="fill: none; stroke: #b0b0b0; stroke-width: 0.8; stroke-linecap: square"/>
     </g>
     <g id="line2d_16">
      <g>
       <use xlink:href="#m3ddb47ba64" x="629.454767" y="375.84" style="stroke: #000000; stroke-width: 0.8"/>
      </g>
     </g>
     <g id="text_8">
      <!-- 15 -->
      <g transform="translate(623.092267 390.438438) scale(0.1 -0.1)">
       <use xlink:href="#DejaVuSans-31"/>
       <use xlink:href="#DejaVuSans-35" transform="translate(63.623047 0)"/>
      </g>
     </g>
    </g>
    <g id="xtick_9">
     <g id="line2d_17">
      <path d="M 713.562162 375.84 
L 713.562162 43.2 
" clip-path="url(#p85baadd17c)" style="fill: none; stroke: #b0b0b0; stroke-width: 0.8; stroke-linecap: square"/>
     </g>
     <g id="line2d_18">
      <g>
       <use xlink:href="#m3ddb47ba64" x="713.562162" y="375.84" style="stroke: #000000; stroke-width: 0.8"/>
      </g>
     </g>
     <g id="text_9">
      <!-- Jul -->
      <g transform="translate(707.52935 390.438438) scale(0.1 -0.1)">
       <defs>
        <path id="DejaVuSans-6c" d="M 603 4863 
L 1178 4863 
L 1178 0 
L 603 0 
L 603 4863 
z
" transform="scale(0.015625)"/>
       </defs>
       <use xlink:href="#DejaVuSans-4a"/>
       <use xlink:href="#DejaVuSans-75" transform="translate(29.492188 0)"/>
       <use xlink:href="#DejaVuSans-6c" transform="translate(92.871094 0)"/>
      </g>
     </g>
    </g>
    <g id="xtick_10">
     <g id="line2d_19">
      <defs>
       <path id="m7cd862aa30" d="M 0 0 
L 0 2 
" style="stroke: #000000; stroke-width: 0.6"/>
      </defs>
      <g>
       <use xlink:href="#m7cd862aa30" x="61.729849" y="375.84" style="stroke: #000000; stroke-width: 0.6"/>
      </g>
     </g>
    </g>
    <g id="xtick_11">
     <g id="line2d_20">
      <g>
       <use xlink:href="#m7cd862aa30" x="98.526835" y="375.84" style="stroke: #000000; stroke-width: 0.6"/>
      </g>
     </g>
    </g>
    <g id="xtick_12">
     <g id="line2d_21">
      <g>
       <use xlink:href="#m7cd862aa30" x="135.32382" y="375.84" style="stroke: #000000; stroke-width: 0.6"/>
      </g>
     </g>
    </g>
    <g id="xtick_13">
     <g id="line2d_22">
      <g>
       <use xlink:href="#m7cd862aa30" x="172.120806" y="375.84" style="stroke: #000000; stroke-width: 0.6"/>
      </g>
     </g>
    </g>
    <g id="xtick_14">
     <g id="line2d_23">
      <g>
       <use xlink:href="#m7cd862aa30" x="208.917791" y="375.84" style="stroke: #000000; stroke-width: 0.6"/>
      </g>
     </g>
    </g>
    <g id="xtick_15">
     <g id="line2d_24">
      <g>
       <use xlink:href="#m7cd862aa30" x="245.714776" y="375.84" style="stroke: #000000; stroke-width: 0.6"/>
      </g>
     </g>
    </g>
    <g id="xtick_16">
     <g id="line2d_25">
      <g>
       <use xlink:href="#m7cd862aa30" x="282.511762" y="375.84" style="stroke: #000000; stroke-width: 0.6"/>
      </g>
     </g>
    </g>
    <g id="xtick_17">
     <g id="line2d_26">
      <g>
       <use xlink:href="#m7cd862aa30" x="319.308747" y="375.84" style="stroke: #000000; stroke-width: 0.6"/>
      </g>
     </g>
    </g>
    <g id="xtick_18">
     <g id="line2d_27">
      <g>
       <use xlink:href="#m7cd862aa30" x="356.105733" y="375.84" style="stroke: #000000; stroke-width: 0.6"/>
      </g>
     </g>
    </g>
    <g id="xtick_19">
     <g id="line2d_28">
      <g>
       <use xlink:href="#m7cd862aa30" x="429.699703" y="375.84" style="stroke: #000000; stroke-width: 0.6"/>
      </g>
     </g>
    </g>
    <g id="xtick_20">
     <g id="line2d_29">
      <g>
       <use xlink:href="#m7cd862aa30" x="503.293674" y="375.84" style="stroke: #000000; stroke-width: 0.6"/>
      </g>
     </g>
    </g>
    <g id="xtick_21">
     <g id="line2d_30">
      <g>
       <use xlink:href="#m7cd862aa30" x="540.09066" y="375.84" style="stroke: #000000; stroke-width: 0.6"/>
      </g>
     </g>
    </g>
    <g id="xtick_22">
     <g id="line2d_31">
      <g>
       <use xlink:href="#m7cd862aa30" x="576.887645" y="375.84" style="stroke: #000000; stroke-width: 0.6"/>
      </g>
     </g>
    </g>
    <g id="xtick_23">
     <g id="line2d_32">
      <g>
       <use xlink:href="#m7cd862aa30" x="613.68463" y="375.84" style="stroke: #000000; stroke-width: 0.6"/>
      </g>
     </g>
    </g>
    <g id="xtick_24">
     <g id="line2d_33">
      <g>
       <use xlink:href="#m7cd862aa30" x="650.481616" y="375.84" style="stroke: #000000; stroke-width: 0.6"/>
      </g>
     </g>
    </g>
    <g id="xtick_25">
     <g id="line2d_34">
      <g>
       <use xlink:href="#m7cd862aa30" x="687.278601" y="375.84" style="stroke: #000000; stroke-width: 0.6"/>
      </g>
     </g>
    </g>
    <g id="text_10">
     <!-- Monat -->
     <g transform="translate(364.194531 404.116563) scale(0.1 -0.1)">
      <defs>
       <path id="DejaVuSans-6f" d="M 1959 3097 
Q 1497 3097 1228 2736 
Q 959 2375 959 1747 
Q 959 1119 1226 758 
Q 1494 397 1959 397 
Q 2419 397 2687 759 
Q 2956 1122 2956 1747 
Q 2956 2369 2687 2733 
Q 2419 3097 1959 3097 
z
M 1959 3584 
Q 2709 3584 3137 3096 
Q 3566 2609 3566 1747 
Q 3566 888 3137 398 
Q 2709 -91 1959 -91 
Q 1206 -91 779 398 
Q 353 888 353 1747 
Q 353 2609 779 3096 
Q 1206 3584 1959 3584 
z
" transform="scale(0.015625)"/>
       <path id="DejaVuSans-74" d="M 1172 4494 
L 1172 3500 
L 2356 3500 
L 2356 3053 
L 1172 3053 
L 1172 1153 
Q 1172 725 1289 603 
Q 1406 481 1766 481 
L 2356 481 
L 2356 0 
L 1766 0 
Q 1100 0 847 248 
Q 594 497 594 1153 
L 594 3053 
L 172 3053 
L 172 3500 
L 594 3500 
L 594 4494 
L 1172 4494 
z
" transform="scale(0.015625)"/>
      </defs>
      <use xlink:href="#DejaVuSans-4d"/>
      <use xlink:href="#DejaVuSans-6f" transform="translate(86.279297 0)"/>
      <use xlink:href="#DejaVuSans-6e" transform="translate(147.460938 0)"/>
      <use xlink:href="#DejaVuSans-61" transform="translate(210.839844 0)"/>
      <use xlink:href="#DejaVuSans-74" transform="translate(272.119141 0)"/>
     </g>
    </g>
   </g>
   <g id="matplotlib.axis_2">
    <g id="ytick_1">
     <g id="line2d_35">
      <path d="M 44.960938 364.407805 
L 714.560938 364.407805 
" clip-path="url(#p85baadd17c)" style="fill: none; stroke: #b0b0b0; stroke-width: 0.8; stroke-linecap: square"/>
     </g>
     <g id="line2d_36">
      <defs>
       <path id="me3ce155d65" d="M 0 0 
L -3.5 0 
" style="stroke: #000000; stroke-width: 0.8"/>
      </defs>
      <g>
       <use xlink:href="#me3ce155d65" x="44.960938" y="364.407805" style="stroke: #000000; stroke-width: 0.8"/>
      </g>
     </g>
     <g id="text_11">
      <!-- −0.5 -->
      <g transform="translate(13.678125 368.207024) scale(0.1 -0.1)">
       <defs>
        <path id="DejaVuSans-2212" d="M 678 2272 
L 4684 2272 
L 4684 1741 
L 678 1741 
L 678 2272 
z
" transform="scale(0.015625)"/>
        <path id="DejaVuSans-30" d="M 2034 4250 
Q 1547 4250 1301 3770 
Q 1056 3291 1056 2328 
Q 1056 1369 1301 889 
Q 1547 409 2034 409 
Q 2525 409 2770 889 
Q 3016 1369 3016 2328 
Q 3016 3291 2770 3770 
Q 2525 4250 2034 4250 
z
M 2034 4750 
Q 2819 4750 3233 4129 
Q 3647 3509 3647 2328 
Q 3647 1150 3233 529 
Q 2819 -91 2034 -91 
Q 1250 -91 836 529 
Q 422 1150 422 2328 
Q 422 3509 836 4129 
Q 1250 4750 2034 4750 
z
" transform="scale(0.015625)"/>
        <path id="DejaVuSans-2e" d="M 684 794 
L 1344 794 
L 1344 0 
L 684 0 
L 684 794 
z
" transform="scale(0.015625)"/>
       </defs>
       <use xlink:href="#DejaVuSans-2212"/>
       <use xlink:href="#DejaVuSans-30" transform="translate(83.789062 0)"/>
       <use xlink:href="#DejaVuSans-2e" transform="translate(147.412109 0)"/>
       <use xlink:href="#DejaVuSans-35" transform="translate(179.199219 0)"/>
      </g>
     </g>
    </g>
    <g id="ytick_2">
     <g id="line2d_37">
      <path d="M 44.960938 302.94439 
L 714.560938 302.94439 
" clip-path="url(#p85baadd17c)" style="fill: none; stroke: #b0b0b0; stroke-width: 0.8; stroke-linecap: square"/>
     </g>
     <g id="line2d_38">
      <g>
       <use xlink:href="#me3ce155d65" x="44.960938" y="302.94439" style="stroke: #000000; stroke-width: 0.8"/>
      </g>
     </g>
     <g id="text_12">
      <!-- 0.0 -->
      <g transform="translate(22.057813 306.743609) scale(0.1 -0.1)">
       <use xlink:href="#DejaVuSans-30"/>
       <use xlink:href="#DejaVuSans-2e" transform="translate(63.623047 0)"/>
       <use xlink:href="#DejaVuSans-30" transform="translate(95.410156 0)"/>
      </g>
     </g>
    </g>
    <g id="ytick_3">
     <g id="line2d_39">
      <path d="M 44.960938 241.480976 
L 714.560938 241.480976 
" clip-path="url(#p85baadd17c)" style="fill: none; stroke: #b0b0b0; stroke-width: 0.8; stroke-linecap: square"/>
     </g>
     <g id="line2d_40">
      <g>
       <use xlink:href="#me3ce155d65" x="44.960938" y="241.480976" style="stroke: #000000; stroke-width: 0.8"/>
      </g>
     </g>
     <g id="text_13">
      <!-- 0.5 -->
      <g transform="translate(22.057813 245.280194) scale(0.1 -0.1)">
       <use xlink:href="#DejaVuSans-30"/>
       <use xlink:href="#DejaVuSans-2e" transform="translate(63.623047 0)"/>
       <use xlink:href="#DejaVuSans-35" transform="translate(95.410156 0)"/>
      </g>
     </g>
    </g>
    <g id="ytick_4">
     <g id="line2d_41">
      <path d="M 44.960938 180.017561 
L 714.560938 180.017561 
" clip-path="url(#p85baadd17c)" style="fill: none; stroke: #b0b0b0; stroke-width: 0.8; stroke-linecap: square"/>
     </g>
     <g id="line2d_42">
      <g>
       <use xlink:href="#me3ce155d65" x="44.960938" y="180.017561" style="stroke: #000000; stroke-width: 0.8"/>
      </g>
     </g>
     <g id="text_14">
      <!-- 1.0 -->
      <g transform="translate(22.057813 183.81678) scale(0.1 -0.1)">
       <use xlink:href="#DejaVuSans-31"/>
       <use xlink:href="#DejaVuSans-2e" transform="translate(63.623047 0)"/>
       <use xlink:href="#DejaVuSans-30" transform="translate(95.410156 0)"/>
      </g>
     </g>
    </g>
    <g id="ytick_5">
     <g id="line2d_43">
      <path d="M 44.960938 118.554146 
L 714.560938 118.554146 
" clip-path="url(#p85baadd17c)" style="fill: none; stroke: #b0b0b0; stroke-width: 0.8; stroke-linecap: square"/>
     </g>
     <g id="line2d_44">
      <g>
       <use xlink:href="#me3ce155d65" x="44.960938" y="118.554146" style="stroke: #000000; stroke-width: 0.8"/>
      </g>
     </g>
     <g id="text_15">
      <!-- 1.5 -->
      <g transform="translate(22.057813 122.353365) scale(0.1 -0.1)">
       <use xlink:href="#DejaVuSans-31"/>
       <use xlink:href="#DejaVuSans-2e" transform="translate(63.623047 0)"/>
       <use xlink:href="#DejaVuSans-35" transform="translate(95.410156 0)"/>
      </g>
     </g>
    </g>
    <g id="ytick_6">
     <g id="line2d_45">
      <path d="M 44.960938 57.090732 
L 714.560938 57.090732 
" clip-path="url(#p85baadd17c)" style="fill: none; stroke: #b0b0b0; stroke-width: 0.8; stroke-linecap: square"/>
     </g>
     <g id="line2d_46">
      <g>
       <use xlink:href="#me3ce155d65" x="44.960938" y="57.090732" style="stroke: #000000; stroke-width: 0.8"/>
      </g>
     </g>
     <g id="text_16">
      <!-- 2.0 -->
      <g transform="translate(22.057813 60.88995) scale(0.1 -0.1)">
       <defs>
        <path id="DejaVuSans-32" d="M 1228 531 
L 3431 531 
L 3431 0 
L 469 0 
L 469 531 
Q 828 903 1448 1529 
Q 2069 2156 2228 2338 
Q 2531 2678 2651 2914 
Q 2772 3150 2772 3378 
Q 2772 3750 2511 3984 
Q 2250 4219 1831 4219 
Q 1534 4219 1204 4116 
Q 875 4013 500 3803 
L 500 4441 
Q 881 4594 1212 4672 
Q 1544 4750 1819 4750 
Q 2544 4750 2975 4387 
Q 3406 4025 3406 3419 
Q 3406 3131 3298 2873 
Q 3191 2616 2906 2266 
Q 2828 2175 2409 1742 
Q 1991 1309 1228 531 
z
" transform="scale(0.015625)"/>
       </defs>
       <use xlink:href="#DejaVuSans-32"/>
       <use xlink:href="#DejaVuSans-2e" transform="translate(63.623047 0)"/>
       <use xlink:href="#DejaVuSans-30" transform="translate(95.410156 0)"/>
      </g>
     </g>
    </g>
    <g id="ytick_7">
     <g id="line2d_47">
      <defs>
       <path id="ma32d804fa2" d="M 0 0 
L -2 0 
" style="stroke: #000000; stroke-width: 0.6"/>
      </defs>
      <g>
       <use xlink:href="#ma32d804fa2" x="44.960938" y="352.115122" style="stroke: #000000; stroke-width: 0.6"/>
      </g>
     </g>
    </g>
    <g id="ytick_8">
     <g id="line2d_48">
      <g>
       <use xlink:href="#ma32d804fa2" x="44.960938" y="339.822439" style="stroke: #000000; stroke-width: 0.6"/>
      </g>
     </g>
    </g>
    <g id="ytick_9">
     <g id="line2d_49">
      <g>
       <use xlink:href="#ma32d804fa2" x="44.960938" y="327.529756" style="stroke: #000000; stroke-width: 0.6"/>
      </g>
     </g>
    </g>
    <g id="ytick_10">
     <g id="line2d_50">
      <g>
       <use xlink:href="#ma32d804fa2" x="44.960938" y="315.237073" style="stroke: #000000; stroke-width: 0.6"/>
      </g>
     </g>
    </g>
    <g id="ytick_11">
     <g id="line2d_51">
      <g>
       <use xlink:href="#ma32d804fa2" x="44.960938" y="290.651707" style="stroke: #000000; stroke-width: 0.6"/>
      </g>
     </g>
    </g>
    <g id="ytick_12">
     <g id="line2d_52">
      <g>
       <use xlink:href="#ma32d804fa2" x="44.960938" y="278.359024" style="stroke: #000000; stroke-width: 0.6"/>
      </g>
     </g>
    </g>
    <g id="ytick_13">
     <g id="line2d_53">
      <g>
       <use xlink:href="#ma32d804fa2" x="44.960938" y="266.066341" style="stroke: #000000; stroke-width: 0.6"/>
      </g>
     </g>
    </g>
    <g id="ytick_14">
     <g id="line2d_54">
      <g>
       <use xlink:href="#ma32d804fa2" x="44.960938" y="253.773659" style="stroke: #000000; stroke-width: 0.6"/>
      </g>
     </g>
    </g>
    <g id="ytick_15">
     <g id="line2d_55">
      <g>
       <use xlink:href="#ma32d804fa2" x="44.960938" y="229.188293" style="stroke: #000000; stroke-width: 0.6"/>
      </g>
     </g>
    </g>
    <g id="ytick_16">
     <g id="line2d_56">
      <g>
       <use xlink:href="#ma32d804fa2" x="44.960938" y="216.89561" style="stroke: #000000; stroke-width: 0.6"/>
      </g>
     </g>
    </g>
    <g id="ytick_17">
     <g id="line2d_57">
      <g>
       <use xlink:href="#ma32d804fa2" x="44.960938" y="204.602927" style="stroke: #000000; stroke-width: 0.6"/>
      </g>
     </g>
    </g>
    <g id="ytick_18">
     <g id="line2d_58">
      <g>
       <use xlink:href="#ma32d804fa2" x="44.960938" y="192.310244" style="stroke: #000000; stroke-width: 0.6"/>
      </g>
     </g>
    </g>
    <g id="ytick_19">
     <g id="line2d_59">
      <g>
       <use xlink:href="#ma32d804fa2" x="44.960938" y="167.724878" style="stroke: #000000; stroke-width: 0.6"/>
      </g>
     </g>
    </g>
    <g id="ytick_20">
     <g id="line2d_60">
      <g>
       <use xlink:href="#ma32d804fa2" x="44.960938" y="155.432195" style="stroke: #000000; stroke-width: 0.6"/>
      </g>
     </g>
    </g>
    <g id="ytick_21">
     <g id="line2d_61">
      <g>
       <use xlink:href="#ma32d804fa2" x="44.960938" y="143.139512" style="stroke: #000000; stroke-width: 0.6"/>
      </g>
     </g>
    </g>
    <g id="ytick_22">
     <g id="line2d_62">
      <g>
       <use xlink:href="#ma32d804fa2" x="44.960938" y="130.846829" style="stroke: #000000; stroke-width: 0.6"/>
      </g>
     </g>
    </g>
    <g id="ytick_23">
     <g id="line2d_63">
      <g>
       <use xlink:href="#ma32d804fa2" x="44.960938" y="106.261463" style="stroke: #000000; stroke-width: 0.6"/>
      </g>
     </g>
    </g>
    <g id="ytick_24">
     <g id="line2d_64">
      <g>
       <use xlink:href="#ma32d804fa2" x="44.960938" y="93.96878" style="stroke: #000000; stroke-width: 0.6"/>
      </g>
     </g>
    </g>
    <g id="ytick_25">
     <g id="line2d_65">
      <g>
       <use xlink:href="#ma32d804fa2" x="44.960938" y="81.676098" style="stroke: #000000; stroke-width: 0.6"/>
      </g>
     </g>
    </g>
    <g id="ytick_26">
     <g id="line2d_66">
      <g>
       <use xlink:href="#ma32d804fa2" x="44.960938" y="69.383415" style="stroke: #000000; stroke-width: 0.6"/>
      </g>
     </g>
    </g>
    <g id="ytick_27">
     <g id="line2d_67">
      <g>
       <use xlink:href="#ma32d804fa2" x="44.960938" y="44.798049" style="stroke: #000000; stroke-width: 0.6"/>
      </g>
     </g>
    </g>
    <g id="text_17">
     <!-- Gewichtänderung [kg] -->
     <g transform="translate(7.598438 265.437969) rotate(-90) scale(0.1 -0.1)">
      <defs>
       <path id="DejaVuSans-47" d="M 3809 666 
L 3809 1919 
L 2778 1919 
L 2778 2438 
L 4434 2438 
L 4434 434 
Q 4069 175 3628 42 
Q 3188 -91 2688 -91 
Q 1594 -91 976 548 
Q 359 1188 359 2328 
Q 359 3472 976 4111 
Q 1594 4750 2688 4750 
Q 3144 4750 3555 4637 
Q 3966 4525 4313 4306 
L 4313 3634 
Q 3963 3931 3569 4081 
Q 3175 4231 2741 4231 
Q 1884 4231 1454 3753 
Q 1025 3275 1025 2328 
Q 1025 1384 1454 906 
Q 1884 428 2741 428 
Q 3075 428 3337 486 
Q 3600 544 3809 666 
z
" transform="scale(0.015625)"/>
       <path id="DejaVuSans-65" d="M 3597 1894 
L 3597 1613 
L 953 1613 
Q 991 1019 1311 708 
Q 1631 397 2203 397 
Q 2534 397 2845 478 
Q 3156 559 3463 722 
L 3463 178 
Q 3153 47 2828 -22 
Q 2503 -91 2169 -91 
Q 1331 -91 842 396 
Q 353 884 353 1716 
Q 353 2575 817 3079 
Q 1281 3584 2069 3584 
Q 2775 3584 3186 3129 
Q 3597 2675 3597 1894 
z
M 3022 2063 
Q 3016 2534 2758 2815 
Q 2500 3097 2075 3097 
Q 1594 3097 1305 2825 
Q 1016 2553 972 2059 
L 3022 2063 
z
" transform="scale(0.015625)"/>
       <path id="DejaVuSans-77" d="M 269 3500 
L 844 3500 
L 1563 769 
L 2278 3500 
L 2956 3500 
L 3675 769 
L 4391 3500 
L 4966 3500 
L 4050 0 
L 3372 0 
L 2619 2869 
L 1863 0 
L 1184 0 
L 269 3500 
z
" transform="scale(0.015625)"/>
       <path id="DejaVuSans-63" d="M 3122 3366 
L 3122 2828 
Q 2878 2963 2633 3030 
Q 2388 3097 2138 3097 
Q 1578 3097 1268 2742 
Q 959 2388 959 1747 
Q 959 1106 1268 751 
Q 1578 397 2138 397 
Q 2388 397 2633 464 
Q 2878 531 3122 666 
L 3122 134 
Q 2881 22 2623 -34 
Q 2366 -91 2075 -91 
Q 1284 -91 818 406 
Q 353 903 353 1747 
Q 353 2603 823 3093 
Q 1294 3584 2113 3584 
Q 2378 3584 2631 3529 
Q 2884 3475 3122 3366 
z
" transform="scale(0.015625)"/>
       <path id="DejaVuSans-68" d="M 3513 2113 
L 3513 0 
L 2938 0 
L 2938 2094 
Q 2938 2591 2744 2837 
Q 2550 3084 2163 3084 
Q 1697 3084 1428 2787 
Q 1159 2491 1159 1978 
L 1159 0 
L 581 0 
L 581 4863 
L 1159 4863 
L 1159 2956 
Q 1366 3272 1645 3428 
Q 1925 3584 2291 3584 
Q 2894 3584 3203 3211 
Q 3513 2838 3513 2113 
z
" transform="scale(0.015625)"/>
       <path id="DejaVuSans-64" d="M 2906 2969 
L 2906 4863 
L 3481 4863 
L 3481 0 
L 2906 0 
L 2906 525 
Q 2725 213 2448 61 
Q 2172 -91 1784 -91 
Q 1150 -91 751 415 
Q 353 922 353 1747 
Q 353 2572 751 3078 
Q 1150 3584 1784 3584 
Q 2172 3584 2448 3432 
Q 2725 3281 2906 2969 
z
M 947 1747 
Q 947 1113 1208 752 
Q 1469 391 1925 391 
Q 2381 391 2643 752 
Q 2906 1113 2906 1747 
Q 2906 2381 2643 2742 
Q 2381 3103 1925 3103 
Q 1469 3103 1208 2742 
Q 947 2381 947 1747 
z
" transform="scale(0.015625)"/>
       <path id="DejaVuSans-67" d="M 2906 1791 
Q 2906 2416 2648 2759 
Q 2391 3103 1925 3103 
Q 1463 3103 1205 2759 
Q 947 2416 947 1791 
Q 947 1169 1205 825 
Q 1463 481 1925 481 
Q 2391 481 2648 825 
Q 2906 1169 2906 1791 
z
M 3481 434 
Q 3481 -459 3084 -895 
Q 2688 -1331 1869 -1331 
Q 1566 -1331 1297 -1286 
Q 1028 -1241 775 -1147 
L 775 -588 
Q 1028 -725 1275 -790 
Q 1522 -856 1778 -856 
Q 2344 -856 2625 -561 
Q 2906 -266 2906 331 
L 2906 616 
Q 2728 306 2450 153 
Q 2172 0 1784 0 
Q 1141 0 747 490 
Q 353 981 353 1791 
Q 353 2603 747 3093 
Q 1141 3584 1784 3584 
Q 2172 3584 2450 3431 
Q 2728 3278 2906 2969 
L 2906 3500 
L 3481 3500 
L 3481 434 
z
" transform="scale(0.015625)"/>
       <path id="DejaVuSans-20" transform="scale(0.015625)"/>
       <path id="DejaVuSans-5b" d="M 550 4863 
L 1875 4863 
L 1875 4416 
L 1125 4416 
L 1125 -397 
L 1875 -397 
L 1875 -844 
L 550 -844 
L 550 4863 
z
" transform="scale(0.015625)"/>
       <path id="DejaVuSans-6b" d="M 581 4863 
L 1159 4863 
L 1159 1991 
L 2875 3500 
L 3609 3500 
L 1753 1863 
L 3688 0 
L 2938 0 
L 1159 1709 
L 1159 0 
L 581 0 
L 581 4863 
z
" transform="scale(0.015625)"/>
       <path id="DejaVuSans-5d" d="M 1947 4863 
L 1947 -844 
L 622 -844 
L 622 -397 
L 1369 -397 
L 1369 4416 
L 622 4416 
L 622 4863 
L 1947 4863 
z
" transform="scale(0.015625)"/>
      </defs>
      <use xlink:href="#DejaVuSans-47"/>
      <use xlink:href="#DejaVuSans-65" transform="translate(77.490234 0)"/>
      <use xlink:href="#DejaVuSans-77" transform="translate(139.013672 0)"/>
      <use xlink:href="#DejaVuSans-69" transform="translate(220.800781 0)"/>
      <use xlink:href="#DejaVuSans-63" transform="translate(248.583984 0)"/>
      <use xlink:href="#DejaVuSans-68" transform="translate(303.564453 0)"/>
      <use xlink:href="#DejaVuSans-74" transform="translate(366.943359 0)"/>
      <use xlink:href="#DejaVuSans-e4" transform="translate(406.152344 0)"/>
      <use xlink:href="#DejaVuSans-6e" transform="translate(467.431641 0)"/>
      <use xlink:href="#DejaVuSans-64" transform="translate(530.810547 0)"/>
      <use xlink:href="#DejaVuSans-65" transform="translate(594.287109 0)"/>
      <use xlink:href="#DejaVuSans-72" transform="translate(655.810547 0)"/>
      <use xlink:href="#DejaVuSans-75" transform="translate(696.923828 0)"/>
      <use xlink:href="#DejaVuSans-6e" transform="translate(760.302734 0)"/>
      <use xlink:href="#DejaVuSans-67" transform="translate(823.681641 0)"/>
      <use xlink:href="#DejaVuSans-20" transform="translate(887.158203 0)"/>
      <use xlink:href="#DejaVuSans-5b" transform="translate(918.945312 0)"/>
      <use xlink:href="#DejaVuSans-6b" transform="translate(957.958984 0)"/>
      <use xlink:href="#DejaVuSans-67" transform="translate(1015.869141 0)"/>
      <use xlink:href="#DejaVuSans-5d" transform="translate(1079.345703 0)"/>
     </g>
    </g>
   </g>
   <g id="patch_119">
    <path d="M 44.960938 375.84 
L 44.960938 43.2 
" style="fill: none; stroke: #000000; stroke-width: 0.8; stroke-linejoin: miter; stroke-linecap: square"/>
   </g>
   <g id="patch_120">
    <path d="M 714.560938 375.84 
L 714.560938 43.2 
" style="fill: none; stroke: #000000; stroke-width: 0.8; stroke-linejoin: miter; stroke-linecap: square"/>
   </g>
   <g id="patch_121">
    <path d="M 44.960938 375.84 
L 714.560937 375.84 
" style="fill: none; stroke: #000000; stroke-width: 0.8; stroke-linejoin: miter; stroke-linecap: square"/>
   </g>
   <g id="patch_122">
    <path d="M 44.960938 43.2 
L 714.560937 43.2 
" style="fill: none; stroke: #000000; stroke-width: 0.8; stroke-linejoin: miter; stroke-linecap: square"/>
   </g>
   <g id="text_18">
    <!-- Trachtänderung im aktuellen Jahr -->
    <g transform="translate(279.749375 37.2) scale(0.12 -0.12)">
     <defs>
      <path id="DejaVuSans-54" d="M -19 4666 
L 3928 4666 
L 3928 4134 
L 2272 4134 
L 2272 0 
L 1638 0 
L 1638 4134 
L -19 4134 
L -19 4666 
z
" transform="scale(0.015625)"/>
      <path id="DejaVuSans-6d" d="M 3328 2828 
Q 3544 3216 3844 3400 
Q 4144 3584 4550 3584 
Q 5097 3584 5394 3201 
Q 5691 2819 5691 2113 
L 5691 0 
L 5113 0 
L 5113 2094 
Q 5113 2597 4934 2840 
Q 4756 3084 4391 3084 
Q 3944 3084 3684 2787 
Q 3425 2491 3425 1978 
L 3425 0 
L 2847 0 
L 2847 2094 
Q 2847 2600 2669 2842 
Q 2491 3084 2119 3084 
Q 1678 3084 1418 2786 
Q 1159 2488 1159 1978 
L 1159 0 
L 581 0 
L 581 3500 
L 1159 3500 
L 1159 2956 
Q 1356 3278 1631 3431 
Q 1906 3584 2284 3584 
Q 2666 3584 2933 3390 
Q 3200 3197 3328 2828 
z
" transform="scale(0.015625)"/>
     </defs>
     <use xlink:href="#DejaVuSans-54"/>
     <use xlink:href="#DejaVuSans-72" transform="translate(46.333984 0)"/>
     <use xlink:href="#DejaVuSans-61" transform="translate(87.447266 0)"/>
     <use xlink:href="#DejaVuSans-63" transform="translate(148.726562 0)"/>
     <use xlink:href="#DejaVuSans-68" transform="translate(203.707031 0)"/>
     <use xlink:href="#DejaVuSans-74" transform="translate(267.085938 0)"/>
     <use xlink:href="#DejaVuSans-e4" transform="translate(306.294922 0)"/>
     <use xlink:href="#DejaVuSans-6e" transform="translate(367.574219 0)"/>
     <use xlink:href="#DejaVuSans-64" transform="translate(430.953125 0)"/>
     <use xlink:href="#DejaVuSans-65" transform="translate(494.429688 0)"/>
     <use xlink:href="#DejaVuSans-72" transform="translate(555.953125 0)"/>
     <use xlink:href="#DejaVuSans-75" transform="translate(597.066406 0)"/>
     <use xlink:href="#DejaVuSans-6e" transform="translate(660.445312 0)"/>
     <use xlink:href="#DejaVuSans-67" transform="translate(723.824219 0)"/>
     <use xlink:href="#DejaVuSans-20" transform="translate(787.300781 0)"/>
     <use xlink:href="#DejaVuSans-69" transform="translate(819.087891 0)"/>
     <use xlink:href="#DejaVuSans-6d" transform="translate(846.871094 0)"/>
     <use xlink:href="#DejaVuSans-20" transform="translate(944.283203 0)"/>
     <use xlink:href="#DejaVuSans-61" transform="translate(976.070312 0)"/>
     <use xlink:href="#DejaVuSans-6b" transform="translate(1037.349609 0)"/>
     <use xlink:href="#DejaVuSans-74" transform="translate(1095.259766 0)"/>
     <use xlink:href="#DejaVuSans-75" transform="translate(1134.46875 0)"/>
     <use xlink:href="#DejaVuSans-65" transform="translate(1197.847656 0)"/>
     <use xlink:href="#DejaVuSans-6c" transform="translate(1259.371094 0)"/>
     <use xlink:href="#DejaVuSans-6c" transform="translate(1287.154297 0)"/>
     <use xlink:href="#DejaVuSans-65" transform="translate(1314.9375 0)"/>
     <use xlink:href="#DejaVuSans-6e" transform="translate(1376.460938 0)"/>
     <use xlink:href="#DejaVuSans-20" transform="translate(1439.839844 0)"/>
     <use xlink:href="#DejaVuSans-4a" transform="translate(1471.626953 0)"/>
     <use xlink:href="#DejaVuSans-61" transform="translate(1501.119141 0)"/>
     <use xlink:href="#DejaVuSans-68" transform="translate(1562.398438 0)"/>
     <use xlink:href="#DejaVuSans-72" transform="translate(1625.777344 0)"/>
    </g>
   </g>
   <g id="legend_1">
    <g id="patch_123">
     <path d="M 650.110937 65.878125 
L 707.560938 65.878125 
Q 709.560938 65.878125 709.560938 63.878125 
L 709.560938 50.2 
Q 709.560938 48.2 707.560938 48.2 
L 650.110937 48.2 
Q 648.110937 48.2 648.110937 50.2 
L 648.110937 63.878125 
Q 648.110937 65.878125 650.110937 65.878125 
z
" style="fill: #ffffff; opacity: 0.8; stroke: #cccccc; stroke-linejoin: miter"/>
    </g>
    <g id="patch_124">
     <path d="M 652.110937 59.798438 
L 672.110937 59.798438 
L 672.110937 52.798438 
L 652.110937 52.798438 
z
" style="fill: #1f77b4"/>
    </g>
    <g id="text_19">
     <!-- 2025 -->
     <g transform="translate(680.110937 59.798438) scale(0.1 -0.1)">
      <use xlink:href="#DejaVuSans-32"/>
      <use xlink:href="#DejaVuSans-30" transform="translate(63.623047 0)"/>
      <use xlink:href="#DejaVuSans-32" transform="translate(127.246094 0)"/>
      <use xlink:href="#DejaVuSans-35" transform="translate(190.869141 0)"/>
     </g>
    </g>
   </g>
  </g>
  <g id="text_20">
   <!-- Bayern -->
   <g transform="translate(347.760312 9.118125) scale(0.12 -0.12)">
    <defs>
     <path id="DejaVuSans-42" d="M 1259 2228 
L 1259 519 
L 2272 519 
Q 2781 519 3026 730 
Q 3272 941 3272 1375 
Q 3272 1813 3026 2020 
Q 2781 2228 2272 2228 
L 1259 2228 
z
M 1259 4147 
L 1259 2741 
L 2194 2741 
Q 2656 2741 2882 2914 
Q 3109 3088 3109 3444 
Q 3109 3797 2882 3972 
Q 2656 4147 2194 4147 
L 1259 4147 
z
M 628 4666 
L 2241 4666 
Q 2963 4666 3353 4366 
Q 3744 4066 3744 3513 
Q 3744 3084 3544 2831 
Q 3344 2578 2956 2516 
Q 3422 2416 3680 2098 
Q 3938 1781 3938 1306 
Q 3938 681 3513 340 
Q 3088 0 2303 0 
L 628 0 
L 628 4666 
z
" transform="scale(0.015625)"/>
     <path id="DejaVuSans-79" d="M 2059 -325 
Q 1816 -950 1584 -1140 
Q 1353 -1331 966 -1331 
L 506 -1331 
L 506 -850 
L 844 -850 
Q 1081 -850 1212 -737 
Q 1344 -625 1503 -206 
L 1606 56 
L 191 3500 
L 800 3500 
L 1894 763 
L 2988 3500 
L 3597 3500 
L 2059 -325 
z
" transform="scale(0.015625)"/>
    </defs>
    <use xlink:href="#DejaVuSans-42"/>
    <use xlink:href="#DejaVuSans-61" transform="translate(68.603516 0)"/>
    <use xlink:href="#DejaVuSans-79" transform="translate(129.882812 0)"/>
    <use xlink:href="#DejaVuSans-65" transform="translate(189.0625 0)"/>
    <use xlink:href="#DejaVuSans-72" transform="translate(250.585938 0)"/>
    <use xlink:href="#DejaVuSans-6e" transform="translate(289.949219 0)"/>
   </g>
  </g>
 </g>
 <defs>
  <clipPath id="p85baadd17c">
   <rect x="44.960938" y="43.2" width="669.6" height="332.64"/>
  </clipPath>
 </defs>
</svg>
