<?xml version="1.0" encoding="utf-8" standalone="no"?>
<!DOCTYPE svg PUBLIC "-//W3C//DTD SVG 1.1//EN"
  "http://www.w3.org/Graphics/SVG/1.1/DTD/svg11.dtd">
<svg xmlns:xlink="http://www.w3.org/1999/xlink" width="703.003125pt" height="406.19625pt" viewBox="0 0 703.003125 406.19625" xmlns="http://www.w3.org/2000/svg" version="1.1">
 <metadata>
  <rdf:RDF xmlns:dc="http://purl.org/dc/elements/1.1/" xmlns:cc="http://creativecommons.org/ns#" xmlns:rdf="http://www.w3.org/1999/02/22-rdf-syntax-ns#">
   <cc:Work>
    <dc:type rdf:resource="http://purl.org/dc/dcmitype/StillImage"/>
    <dc:date>2025-06-23T18:30:06.865185</dc:date>
    <dc:format>image/svg+xml</dc:format>
    <dc:creator>
     <cc:Agent>
      <dc:title>Matplotlib v3.10.3, https://matplotlib.org/</dc:title>
     </cc:Agent>
    </dc:creator>
   </cc:Work>
  </rdf:RDF>
 </metadata>
 <defs>
  <style type="text/css">*{stroke-linejoin: round; stroke-linecap: butt}</style>
 </defs>
 <g id="figure_1">
  <g id="patch_1">
   <path d="M 0 406.19625 
L 703.003125 406.19625 
L 703.003125 0 
L 0 0 
z
" style="fill: #ffffff"/>
  </g>
  <g id="axes_1">
   <g id="patch_2">
    <path d="M 33.403125 375.84 
L 703.003125 375.84 
L 703.003125 43.2 
L 33.403125 43.2 
z
" style="fill: #ffffff"/>
   </g>
   <g id="matplotlib.axis_1">
    <g id="xtick_1">
     <g id="line2d_1">
      <path d="M 63.839489 375.84 
L 63.839489 43.2 
" clip-path="url(#p9d62ade9d3)" style="fill: none; stroke: #b0b0b0; stroke-width: 0.8; stroke-linecap: square"/>
     </g>
     <g id="line2d_2">
      <defs>
       <path id="md50031e1a9" d="M 0 0 
L 0 3.5 
" style="stroke: #000000; stroke-width: 0.8"/>
      </defs>
      <g>
       <use xlink:href="#md50031e1a9" x="63.839489" y="375.84" style="stroke: #000000; stroke-width: 0.8"/>
      </g>
     </g>
     <g id="text_1">
      <!-- Mär -->
      <g transform="translate(54.405895 390.438438) scale(0.1 -0.1)">
       <defs>
        <path id="DejaVuSans-4d" d="M 628 4666 
L 1569 4666 
L 2759 1491 
L 3956 4666 
L 4897 4666 
L 4897 0 
L 4281 0 
L 4281 4097 
L 3078 897 
L 2444 897 
L 1241 4097 
L 1241 0 
L 628 0 
L 628 4666 
z
" transform="scale(0.015625)"/>
        <path id="DejaVuSans-e4" d="M 2194 1759 
Q 1497 1759 1228 1600 
Q 959 1441 959 1056 
Q 959 750 1161 570 
Q 1363 391 1709 391 
Q 2188 391 2477 730 
Q 2766 1069 2766 1631 
L 2766 1759 
L 2194 1759 
z
M 3341 1997 
L 3341 0 
L 2766 0 
L 2766 531 
Q 2569 213 2275 61 
Q 1981 -91 1556 -91 
Q 1019 -91 701 211 
Q 384 513 384 1019 
Q 384 1609 779 1909 
Q 1175 2209 1959 2209 
L 2766 2209 
L 2766 2266 
Q 2766 2663 2505 2880 
Q 2244 3097 1772 3097 
Q 1472 3097 1187 3025 
Q 903 2953 641 2809 
L 641 3341 
Q 956 3463 1253 3523 
Q 1550 3584 1831 3584 
Q 2591 3584 2966 3190 
Q 3341 2797 3341 1997 
z
M 2150 4850 
L 2784 4850 
L 2784 4219 
L 2150 4219 
L 2150 4850 
z
M 928 4850 
L 1562 4850 
L 1562 4219 
L 928 4219 
L 928 4850 
z
" transform="scale(0.015625)"/>
        <path id="DejaVuSans-72" d="M 2631 2963 
Q 2534 3019 2420 3045 
Q 2306 3072 2169 3072 
Q 1681 3072 1420 2755 
Q 1159 2438 1159 1844 
L 1159 0 
L 581 0 
L 581 3500 
L 1159 3500 
L 1159 2956 
Q 1341 3275 1631 3429 
Q 1922 3584 2338 3584 
Q 2397 3584 2469 3576 
Q 2541 3569 2628 3553 
L 2631 2963 
z
" transform="scale(0.015625)"/>
       </defs>
       <use xlink:href="#DejaVuSans-4d"/>
       <use xlink:href="#DejaVuSans-e4" transform="translate(86.279297 0)"/>
       <use xlink:href="#DejaVuSans-72" transform="translate(147.558594 0)"/>
      </g>
     </g>
    </g>
    <g id="xtick_2">
     <g id="line2d_3">
      <path d="M 187.987814 375.84 
L 187.987814 43.2 
" clip-path="url(#p9d62ade9d3)" style="fill: none; stroke: #b0b0b0; stroke-width: 0.8; stroke-linecap: square"/>
     </g>
     <g id="line2d_4">
      <g>
       <use xlink:href="#md50031e1a9" x="187.987814" y="375.84" style="stroke: #000000; stroke-width: 0.8"/>
      </g>
     </g>
     <g id="text_2">
      <!-- Apr -->
      <g transform="translate(179.337814 390.438438) scale(0.1 -0.1)">
       <defs>
        <path id="DejaVuSans-41" d="M 2188 4044 
L 1331 1722 
L 3047 1722 
L 2188 4044 
z
M 1831 4666 
L 2547 4666 
L 4325 0 
L 3669 0 
L 3244 1197 
L 1141 1197 
L 716 0 
L 50 0 
L 1831 4666 
z
" transform="scale(0.015625)"/>
        <path id="DejaVuSans-70" d="M 1159 525 
L 1159 -1331 
L 581 -1331 
L 581 3500 
L 1159 3500 
L 1159 2969 
Q 1341 3281 1617 3432 
Q 1894 3584 2278 3584 
Q 2916 3584 3314 3078 
Q 3713 2572 3713 1747 
Q 3713 922 3314 415 
Q 2916 -91 2278 -91 
Q 1894 -91 1617 61 
Q 1341 213 1159 525 
z
M 3116 1747 
Q 3116 2381 2855 2742 
Q 2594 3103 2138 3103 
Q 1681 3103 1420 2742 
Q 1159 2381 1159 1747 
Q 1159 1113 1420 752 
Q 1681 391 2138 391 
Q 2594 391 2855 752 
Q 3116 1113 3116 1747 
z
" transform="scale(0.015625)"/>
       </defs>
       <use xlink:href="#DejaVuSans-41"/>
       <use xlink:href="#DejaVuSans-70" transform="translate(68.408203 0)"/>
       <use xlink:href="#DejaVuSans-72" transform="translate(131.884766 0)"/>
      </g>
     </g>
    </g>
    <g id="xtick_3">
     <g id="line2d_5">
      <path d="M 308.131355 375.84 
L 308.131355 43.2 
" clip-path="url(#p9d62ade9d3)" style="fill: none; stroke: #b0b0b0; stroke-width: 0.8; stroke-linecap: square"/>
     </g>
     <g id="line2d_6">
      <g>
       <use xlink:href="#md50031e1a9" x="308.131355" y="375.84" style="stroke: #000000; stroke-width: 0.8"/>
      </g>
     </g>
     <g id="text_3">
      <!-- Mai -->
      <g transform="translate(299.364167 390.438438) scale(0.1 -0.1)">
       <defs>
        <path id="DejaVuSans-61" d="M 2194 1759 
Q 1497 1759 1228 1600 
Q 959 1441 959 1056 
Q 959 750 1161 570 
Q 1363 391 1709 391 
Q 2188 391 2477 730 
Q 2766 1069 2766 1631 
L 2766 1759 
L 2194 1759 
z
M 3341 1997 
L 3341 0 
L 2766 0 
L 2766 531 
Q 2569 213 2275 61 
Q 1981 -91 1556 -91 
Q 1019 -91 701 211 
Q 384 513 384 1019 
Q 384 1609 779 1909 
Q 1175 2209 1959 2209 
L 2766 2209 
L 2766 2266 
Q 2766 2663 2505 2880 
Q 2244 3097 1772 3097 
Q 1472 3097 1187 3025 
Q 903 2953 641 2809 
L 641 3341 
Q 956 3463 1253 3523 
Q 1550 3584 1831 3584 
Q 2591 3584 2966 3190 
Q 3341 2797 3341 1997 
z
" transform="scale(0.015625)"/>
        <path id="DejaVuSans-69" d="M 603 3500 
L 1178 3500 
L 1178 0 
L 603 0 
L 603 3500 
z
M 603 4863 
L 1178 4863 
L 1178 4134 
L 603 4134 
L 603 4863 
z
" transform="scale(0.015625)"/>
       </defs>
       <use xlink:href="#DejaVuSans-4d"/>
       <use xlink:href="#DejaVuSans-61" transform="translate(86.279297 0)"/>
       <use xlink:href="#DejaVuSans-69" transform="translate(147.558594 0)"/>
      </g>
     </g>
    </g>
    <g id="xtick_4">
     <g id="line2d_7">
      <path d="M 432.27968 375.84 
L 432.27968 43.2 
" clip-path="url(#p9d62ade9d3)" style="fill: none; stroke: #b0b0b0; stroke-width: 0.8; stroke-linecap: square"/>
     </g>
     <g id="line2d_8">
      <g>
       <use xlink:href="#md50031e1a9" x="432.27968" y="375.84" style="stroke: #000000; stroke-width: 0.8"/>
      </g>
     </g>
     <g id="text_4">
      <!-- Jun -->
      <g transform="translate(424.46718 390.438438) scale(0.1 -0.1)">
       <defs>
        <path id="DejaVuSans-4a" d="M 628 4666 
L 1259 4666 
L 1259 325 
Q 1259 -519 939 -900 
Q 619 -1281 -91 -1281 
L -331 -1281 
L -331 -750 
L -134 -750 
Q 284 -750 456 -515 
Q 628 -281 628 325 
L 628 4666 
z
" transform="scale(0.015625)"/>
        <path id="DejaVuSans-75" d="M 544 1381 
L 544 3500 
L 1119 3500 
L 1119 1403 
Q 1119 906 1312 657 
Q 1506 409 1894 409 
Q 2359 409 2629 706 
Q 2900 1003 2900 1516 
L 2900 3500 
L 3475 3500 
L 3475 0 
L 2900 0 
L 2900 538 
Q 2691 219 2414 64 
Q 2138 -91 1772 -91 
Q 1169 -91 856 284 
Q 544 659 544 1381 
z
M 1991 3584 
L 1991 3584 
z
" transform="scale(0.015625)"/>
        <path id="DejaVuSans-6e" d="M 3513 2113 
L 3513 0 
L 2938 0 
L 2938 2094 
Q 2938 2591 2744 2837 
Q 2550 3084 2163 3084 
Q 1697 3084 1428 2787 
Q 1159 2491 1159 1978 
L 1159 0 
L 581 0 
L 581 3500 
L 1159 3500 
L 1159 2956 
Q 1366 3272 1645 3428 
Q 1925 3584 2291 3584 
Q 2894 3584 3203 3211 
Q 3513 2838 3513 2113 
z
" transform="scale(0.015625)"/>
       </defs>
       <use xlink:href="#DejaVuSans-4a"/>
       <use xlink:href="#DejaVuSans-75" transform="translate(29.492188 0)"/>
       <use xlink:href="#DejaVuSans-6e" transform="translate(92.871094 0)"/>
      </g>
     </g>
    </g>
    <g id="xtick_5">
     <g id="line2d_9">
      <path d="M 552.423221 375.84 
L 552.423221 43.2 
" clip-path="url(#p9d62ade9d3)" style="fill: none; stroke: #b0b0b0; stroke-width: 0.8; stroke-linecap: square"/>
     </g>
     <g id="line2d_10">
      <g>
       <use xlink:href="#md50031e1a9" x="552.423221" y="375.84" style="stroke: #000000; stroke-width: 0.8"/>
      </g>
     </g>
     <g id="text_5">
      <!-- Jul -->
      <g transform="translate(546.390408 390.438438) scale(0.1 -0.1)">
       <defs>
        <path id="DejaVuSans-6c" d="M 603 4863 
L 1178 4863 
L 1178 0 
L 603 0 
L 603 4863 
z
" transform="scale(0.015625)"/>
       </defs>
       <use xlink:href="#DejaVuSans-4a"/>
       <use xlink:href="#DejaVuSans-75" transform="translate(29.492188 0)"/>
       <use xlink:href="#DejaVuSans-6c" transform="translate(92.871094 0)"/>
      </g>
     </g>
    </g>
    <g id="xtick_6">
     <g id="line2d_11">
      <path d="M 676.571546 375.84 
L 676.571546 43.2 
" clip-path="url(#p9d62ade9d3)" style="fill: none; stroke: #b0b0b0; stroke-width: 0.8; stroke-linecap: square"/>
     </g>
     <g id="line2d_12">
      <g>
       <use xlink:href="#md50031e1a9" x="676.571546" y="375.84" style="stroke: #000000; stroke-width: 0.8"/>
      </g>
     </g>
     <g id="text_6">
      <!-- Aug -->
      <g transform="translate(666.808265 390.438438) scale(0.1 -0.1)">
       <defs>
        <path id="DejaVuSans-67" d="M 2906 1791 
Q 2906 2416 2648 2759 
Q 2391 3103 1925 3103 
Q 1463 3103 1205 2759 
Q 947 2416 947 1791 
Q 947 1169 1205 825 
Q 1463 481 1925 481 
Q 2391 481 2648 825 
Q 2906 1169 2906 1791 
z
M 3481 434 
Q 3481 -459 3084 -895 
Q 2688 -1331 1869 -1331 
Q 1566 -1331 1297 -1286 
Q 1028 -1241 775 -1147 
L 775 -588 
Q 1028 -725 1275 -790 
Q 1522 -856 1778 -856 
Q 2344 -856 2625 -561 
Q 2906 -266 2906 331 
L 2906 616 
Q 2728 306 2450 153 
Q 2172 0 1784 0 
Q 1141 0 747 490 
Q 353 981 353 1791 
Q 353 2603 747 3093 
Q 1141 3584 1784 3584 
Q 2172 3584 2450 3431 
Q 2728 3278 2906 2969 
L 2906 3500 
L 3481 3500 
L 3481 434 
z
" transform="scale(0.015625)"/>
       </defs>
       <use xlink:href="#DejaVuSans-41"/>
       <use xlink:href="#DejaVuSans-75" transform="translate(68.408203 0)"/>
       <use xlink:href="#DejaVuSans-67" transform="translate(131.787109 0)"/>
      </g>
     </g>
    </g>
    <g id="xtick_7">
     <g id="line2d_13">
      <defs>
       <path id="m66b42a4848" d="M 0 0 
L 0 2 
" style="stroke: #000000; stroke-width: 0.6"/>
      </defs>
      <g>
       <use xlink:href="#m66b42a4848" x="55.829919" y="375.84" style="stroke: #000000; stroke-width: 0.6"/>
      </g>
     </g>
    </g>
    <g id="xtick_8">
     <g id="line2d_14">
      <g>
       <use xlink:href="#m66b42a4848" x="83.863412" y="375.84" style="stroke: #000000; stroke-width: 0.6"/>
      </g>
     </g>
    </g>
    <g id="xtick_9">
     <g id="line2d_15">
      <g>
       <use xlink:href="#m66b42a4848" x="111.896905" y="375.84" style="stroke: #000000; stroke-width: 0.6"/>
      </g>
     </g>
    </g>
    <g id="xtick_10">
     <g id="line2d_16">
      <g>
       <use xlink:href="#m66b42a4848" x="139.930398" y="375.84" style="stroke: #000000; stroke-width: 0.6"/>
      </g>
     </g>
    </g>
    <g id="xtick_11">
     <g id="line2d_17">
      <g>
       <use xlink:href="#m66b42a4848" x="167.963891" y="375.84" style="stroke: #000000; stroke-width: 0.6"/>
      </g>
     </g>
    </g>
    <g id="xtick_12">
     <g id="line2d_18">
      <g>
       <use xlink:href="#m66b42a4848" x="195.997383" y="375.84" style="stroke: #000000; stroke-width: 0.6"/>
      </g>
     </g>
    </g>
    <g id="xtick_13">
     <g id="line2d_19">
      <g>
       <use xlink:href="#m66b42a4848" x="224.030876" y="375.84" style="stroke: #000000; stroke-width: 0.6"/>
      </g>
     </g>
    </g>
    <g id="xtick_14">
     <g id="line2d_20">
      <g>
       <use xlink:href="#m66b42a4848" x="252.064369" y="375.84" style="stroke: #000000; stroke-width: 0.6"/>
      </g>
     </g>
    </g>
    <g id="xtick_15">
     <g id="line2d_21">
      <g>
       <use xlink:href="#m66b42a4848" x="280.097862" y="375.84" style="stroke: #000000; stroke-width: 0.6"/>
      </g>
     </g>
    </g>
    <g id="xtick_16">
     <g id="line2d_22">
      <g>
       <use xlink:href="#m66b42a4848" x="336.164847" y="375.84" style="stroke: #000000; stroke-width: 0.6"/>
      </g>
     </g>
    </g>
    <g id="xtick_17">
     <g id="line2d_23">
      <g>
       <use xlink:href="#m66b42a4848" x="364.19834" y="375.84" style="stroke: #000000; stroke-width: 0.6"/>
      </g>
     </g>
    </g>
    <g id="xtick_18">
     <g id="line2d_24">
      <g>
       <use xlink:href="#m66b42a4848" x="392.231833" y="375.84" style="stroke: #000000; stroke-width: 0.6"/>
      </g>
     </g>
    </g>
    <g id="xtick_19">
     <g id="line2d_25">
      <g>
       <use xlink:href="#m66b42a4848" x="420.265326" y="375.84" style="stroke: #000000; stroke-width: 0.6"/>
      </g>
     </g>
    </g>
    <g id="xtick_20">
     <g id="line2d_26">
      <g>
       <use xlink:href="#m66b42a4848" x="448.298819" y="375.84" style="stroke: #000000; stroke-width: 0.6"/>
      </g>
     </g>
    </g>
    <g id="xtick_21">
     <g id="line2d_27">
      <g>
       <use xlink:href="#m66b42a4848" x="476.332312" y="375.84" style="stroke: #000000; stroke-width: 0.6"/>
      </g>
     </g>
    </g>
    <g id="xtick_22">
     <g id="line2d_28">
      <g>
       <use xlink:href="#m66b42a4848" x="504.365804" y="375.84" style="stroke: #000000; stroke-width: 0.6"/>
      </g>
     </g>
    </g>
    <g id="xtick_23">
     <g id="line2d_29">
      <g>
       <use xlink:href="#m66b42a4848" x="532.399297" y="375.84" style="stroke: #000000; stroke-width: 0.6"/>
      </g>
     </g>
    </g>
    <g id="xtick_24">
     <g id="line2d_30">
      <g>
       <use xlink:href="#m66b42a4848" x="560.43279" y="375.84" style="stroke: #000000; stroke-width: 0.6"/>
      </g>
     </g>
    </g>
    <g id="xtick_25">
     <g id="line2d_31">
      <g>
       <use xlink:href="#m66b42a4848" x="588.466283" y="375.84" style="stroke: #000000; stroke-width: 0.6"/>
      </g>
     </g>
    </g>
    <g id="xtick_26">
     <g id="line2d_32">
      <g>
       <use xlink:href="#m66b42a4848" x="616.499776" y="375.84" style="stroke: #000000; stroke-width: 0.6"/>
      </g>
     </g>
    </g>
    <g id="xtick_27">
     <g id="line2d_33">
      <g>
       <use xlink:href="#m66b42a4848" x="644.533269" y="375.84" style="stroke: #000000; stroke-width: 0.6"/>
      </g>
     </g>
    </g>
    <g id="xtick_28">
     <g id="line2d_34">
      <g>
       <use xlink:href="#m66b42a4848" x="672.566761" y="375.84" style="stroke: #000000; stroke-width: 0.6"/>
      </g>
     </g>
    </g>
    <g id="xtick_29">
     <g id="line2d_35">
      <g>
       <use xlink:href="#m66b42a4848" x="700.600254" y="375.84" style="stroke: #000000; stroke-width: 0.6"/>
      </g>
     </g>
    </g>
    <g id="text_7">
     <!-- Monat -->
     <g transform="translate(352.636719 404.116563) scale(0.1 -0.1)">
      <defs>
       <path id="DejaVuSans-6f" d="M 1959 3097 
Q 1497 3097 1228 2736 
Q 959 2375 959 1747 
Q 959 1119 1226 758 
Q 1494 397 1959 397 
Q 2419 397 2687 759 
Q 2956 1122 2956 1747 
Q 2956 2369 2687 2733 
Q 2419 3097 1959 3097 
z
M 1959 3584 
Q 2709 3584 3137 3096 
Q 3566 2609 3566 1747 
Q 3566 888 3137 398 
Q 2709 -91 1959 -91 
Q 1206 -91 779 398 
Q 353 888 353 1747 
Q 353 2609 779 3096 
Q 1206 3584 1959 3584 
z
" transform="scale(0.015625)"/>
       <path id="DejaVuSans-74" d="M 1172 4494 
L 1172 3500 
L 2356 3500 
L 2356 3053 
L 1172 3053 
L 1172 1153 
Q 1172 725 1289 603 
Q 1406 481 1766 481 
L 2356 481 
L 2356 0 
L 1766 0 
Q 1100 0 847 248 
Q 594 497 594 1153 
L 594 3053 
L 172 3053 
L 172 3500 
L 594 3500 
L 594 4494 
L 1172 4494 
z
" transform="scale(0.015625)"/>
      </defs>
      <use xlink:href="#DejaVuSans-4d"/>
      <use xlink:href="#DejaVuSans-6f" transform="translate(86.279297 0)"/>
      <use xlink:href="#DejaVuSans-6e" transform="translate(147.460938 0)"/>
      <use xlink:href="#DejaVuSans-61" transform="translate(210.839844 0)"/>
      <use xlink:href="#DejaVuSans-74" transform="translate(272.119141 0)"/>
     </g>
    </g>
   </g>
   <g id="matplotlib.axis_2">
    <g id="ytick_1">
     <g id="line2d_36">
      <path d="M 33.403125 348.691998 
L 703.003125 348.691998 
" clip-path="url(#p9d62ade9d3)" style="fill: none; stroke: #b0b0b0; stroke-width: 0.8; stroke-linecap: square"/>
     </g>
     <g id="line2d_37">
      <defs>
       <path id="m0c96bee772" d="M 0 0 
L -3.5 0 
" style="stroke: #000000; stroke-width: 0.8"/>
      </defs>
      <g>
       <use xlink:href="#m0c96bee772" x="33.403125" y="348.691998" style="stroke: #000000; stroke-width: 0.8"/>
      </g>
     </g>
     <g id="text_8">
      <!-- 0 -->
      <g transform="translate(20.040625 352.491217) scale(0.1 -0.1)">
       <defs>
        <path id="DejaVuSans-30" d="M 2034 4250 
Q 1547 4250 1301 3770 
Q 1056 3291 1056 2328 
Q 1056 1369 1301 889 
Q 1547 409 2034 409 
Q 2525 409 2770 889 
Q 3016 1369 3016 2328 
Q 3016 3291 2770 3770 
Q 2525 4250 2034 4250 
z
M 2034 4750 
Q 2819 4750 3233 4129 
Q 3647 3509 3647 2328 
Q 3647 1150 3233 529 
Q 2819 -91 2034 -91 
Q 1250 -91 836 529 
Q 422 1150 422 2328 
Q 422 3509 836 4129 
Q 1250 4750 2034 4750 
z
" transform="scale(0.015625)"/>
       </defs>
       <use xlink:href="#DejaVuSans-30"/>
      </g>
     </g>
    </g>
    <g id="ytick_2">
     <g id="line2d_38">
      <path d="M 33.403125 284.542656 
L 703.003125 284.542656 
" clip-path="url(#p9d62ade9d3)" style="fill: none; stroke: #b0b0b0; stroke-width: 0.8; stroke-linecap: square"/>
     </g>
     <g id="line2d_39">
      <g>
       <use xlink:href="#m0c96bee772" x="33.403125" y="284.542656" style="stroke: #000000; stroke-width: 0.8"/>
      </g>
     </g>
     <g id="text_9">
      <!-- 20 -->
      <g transform="translate(13.678125 288.341875) scale(0.1 -0.1)">
       <defs>
        <path id="DejaVuSans-32" d="M 1228 531 
L 3431 531 
L 3431 0 
L 469 0 
L 469 531 
Q 828 903 1448 1529 
Q 2069 2156 2228 2338 
Q 2531 2678 2651 2914 
Q 2772 3150 2772 3378 
Q 2772 3750 2511 3984 
Q 2250 4219 1831 4219 
Q 1534 4219 1204 4116 
Q 875 4013 500 3803 
L 500 4441 
Q 881 4594 1212 4672 
Q 1544 4750 1819 4750 
Q 2544 4750 2975 4387 
Q 3406 4025 3406 3419 
Q 3406 3131 3298 2873 
Q 3191 2616 2906 2266 
Q 2828 2175 2409 1742 
Q 1991 1309 1228 531 
z
" transform="scale(0.015625)"/>
       </defs>
       <use xlink:href="#DejaVuSans-32"/>
       <use xlink:href="#DejaVuSans-30" transform="translate(63.623047 0)"/>
      </g>
     </g>
    </g>
    <g id="ytick_3">
     <g id="line2d_40">
      <path d="M 33.403125 220.393314 
L 703.003125 220.393314 
" clip-path="url(#p9d62ade9d3)" style="fill: none; stroke: #b0b0b0; stroke-width: 0.8; stroke-linecap: square"/>
     </g>
     <g id="line2d_41">
      <g>
       <use xlink:href="#m0c96bee772" x="33.403125" y="220.393314" style="stroke: #000000; stroke-width: 0.8"/>
      </g>
     </g>
     <g id="text_10">
      <!-- 40 -->
      <g transform="translate(13.678125 224.192532) scale(0.1 -0.1)">
       <defs>
        <path id="DejaVuSans-34" d="M 2419 4116 
L 825 1625 
L 2419 1625 
L 2419 4116 
z
M 2253 4666 
L 3047 4666 
L 3047 1625 
L 3713 1625 
L 3713 1100 
L 3047 1100 
L 3047 0 
L 2419 0 
L 2419 1100 
L 313 1100 
L 313 1709 
L 2253 4666 
z
" transform="scale(0.015625)"/>
       </defs>
       <use xlink:href="#DejaVuSans-34"/>
       <use xlink:href="#DejaVuSans-30" transform="translate(63.623047 0)"/>
      </g>
     </g>
    </g>
    <g id="ytick_4">
     <g id="line2d_42">
      <path d="M 33.403125 156.243971 
L 703.003125 156.243971 
" clip-path="url(#p9d62ade9d3)" style="fill: none; stroke: #b0b0b0; stroke-width: 0.8; stroke-linecap: square"/>
     </g>
     <g id="line2d_43">
      <g>
       <use xlink:href="#m0c96bee772" x="33.403125" y="156.243971" style="stroke: #000000; stroke-width: 0.8"/>
      </g>
     </g>
     <g id="text_11">
      <!-- 60 -->
      <g transform="translate(13.678125 160.04319) scale(0.1 -0.1)">
       <defs>
        <path id="DejaVuSans-36" d="M 2113 2584 
Q 1688 2584 1439 2293 
Q 1191 2003 1191 1497 
Q 1191 994 1439 701 
Q 1688 409 2113 409 
Q 2538 409 2786 701 
Q 3034 994 3034 1497 
Q 3034 2003 2786 2293 
Q 2538 2584 2113 2584 
z
M 3366 4563 
L 3366 3988 
Q 3128 4100 2886 4159 
Q 2644 4219 2406 4219 
Q 1781 4219 1451 3797 
Q 1122 3375 1075 2522 
Q 1259 2794 1537 2939 
Q 1816 3084 2150 3084 
Q 2853 3084 3261 2657 
Q 3669 2231 3669 1497 
Q 3669 778 3244 343 
Q 2819 -91 2113 -91 
Q 1303 -91 875 529 
Q 447 1150 447 2328 
Q 447 3434 972 4092 
Q 1497 4750 2381 4750 
Q 2619 4750 2861 4703 
Q 3103 4656 3366 4563 
z
" transform="scale(0.015625)"/>
       </defs>
       <use xlink:href="#DejaVuSans-36"/>
       <use xlink:href="#DejaVuSans-30" transform="translate(63.623047 0)"/>
      </g>
     </g>
    </g>
    <g id="ytick_5">
     <g id="line2d_44">
      <path d="M 33.403125 92.094629 
L 703.003125 92.094629 
" clip-path="url(#p9d62ade9d3)" style="fill: none; stroke: #b0b0b0; stroke-width: 0.8; stroke-linecap: square"/>
     </g>
     <g id="line2d_45">
      <g>
       <use xlink:href="#m0c96bee772" x="33.403125" y="92.094629" style="stroke: #000000; stroke-width: 0.8"/>
      </g>
     </g>
     <g id="text_12">
      <!-- 80 -->
      <g transform="translate(13.678125 95.893848) scale(0.1 -0.1)">
       <defs>
        <path id="DejaVuSans-38" d="M 2034 2216 
Q 1584 2216 1326 1975 
Q 1069 1734 1069 1313 
Q 1069 891 1326 650 
Q 1584 409 2034 409 
Q 2484 409 2743 651 
Q 3003 894 3003 1313 
Q 3003 1734 2745 1975 
Q 2488 2216 2034 2216 
z
M 1403 2484 
Q 997 2584 770 2862 
Q 544 3141 544 3541 
Q 544 4100 942 4425 
Q 1341 4750 2034 4750 
Q 2731 4750 3128 4425 
Q 3525 4100 3525 3541 
Q 3525 3141 3298 2862 
Q 3072 2584 2669 2484 
Q 3125 2378 3379 2068 
Q 3634 1759 3634 1313 
Q 3634 634 3220 271 
Q 2806 -91 2034 -91 
Q 1263 -91 848 271 
Q 434 634 434 1313 
Q 434 1759 690 2068 
Q 947 2378 1403 2484 
z
M 1172 3481 
Q 1172 3119 1398 2916 
Q 1625 2713 2034 2713 
Q 2441 2713 2670 2916 
Q 2900 3119 2900 3481 
Q 2900 3844 2670 4047 
Q 2441 4250 2034 4250 
Q 1625 4250 1398 4047 
Q 1172 3844 1172 3481 
z
" transform="scale(0.015625)"/>
       </defs>
       <use xlink:href="#DejaVuSans-38"/>
       <use xlink:href="#DejaVuSans-30" transform="translate(63.623047 0)"/>
      </g>
     </g>
    </g>
    <g id="ytick_6">
     <g id="line2d_46">
      <defs>
       <path id="m9a9e38f4f9" d="M 0 0 
L -2 0 
" style="stroke: #000000; stroke-width: 0.6"/>
      </defs>
      <g>
       <use xlink:href="#m9a9e38f4f9" x="33.403125" y="364.729334" style="stroke: #000000; stroke-width: 0.6"/>
      </g>
     </g>
    </g>
    <g id="ytick_7">
     <g id="line2d_47">
      <g>
       <use xlink:href="#m9a9e38f4f9" x="33.403125" y="332.654663" style="stroke: #000000; stroke-width: 0.6"/>
      </g>
     </g>
    </g>
    <g id="ytick_8">
     <g id="line2d_48">
      <g>
       <use xlink:href="#m9a9e38f4f9" x="33.403125" y="316.617327" style="stroke: #000000; stroke-width: 0.6"/>
      </g>
     </g>
    </g>
    <g id="ytick_9">
     <g id="line2d_49">
      <g>
       <use xlink:href="#m9a9e38f4f9" x="33.403125" y="300.579992" style="stroke: #000000; stroke-width: 0.6"/>
      </g>
     </g>
    </g>
    <g id="ytick_10">
     <g id="line2d_50">
      <g>
       <use xlink:href="#m9a9e38f4f9" x="33.403125" y="268.50532" style="stroke: #000000; stroke-width: 0.6"/>
      </g>
     </g>
    </g>
    <g id="ytick_11">
     <g id="line2d_51">
      <g>
       <use xlink:href="#m9a9e38f4f9" x="33.403125" y="252.467985" style="stroke: #000000; stroke-width: 0.6"/>
      </g>
     </g>
    </g>
    <g id="ytick_12">
     <g id="line2d_52">
      <g>
       <use xlink:href="#m9a9e38f4f9" x="33.403125" y="236.430649" style="stroke: #000000; stroke-width: 0.6"/>
      </g>
     </g>
    </g>
    <g id="ytick_13">
     <g id="line2d_53">
      <g>
       <use xlink:href="#m9a9e38f4f9" x="33.403125" y="204.355978" style="stroke: #000000; stroke-width: 0.6"/>
      </g>
     </g>
    </g>
    <g id="ytick_14">
     <g id="line2d_54">
      <g>
       <use xlink:href="#m9a9e38f4f9" x="33.403125" y="188.318642" style="stroke: #000000; stroke-width: 0.6"/>
      </g>
     </g>
    </g>
    <g id="ytick_15">
     <g id="line2d_55">
      <g>
       <use xlink:href="#m9a9e38f4f9" x="33.403125" y="172.281307" style="stroke: #000000; stroke-width: 0.6"/>
      </g>
     </g>
    </g>
    <g id="ytick_16">
     <g id="line2d_56">
      <g>
       <use xlink:href="#m9a9e38f4f9" x="33.403125" y="140.206636" style="stroke: #000000; stroke-width: 0.6"/>
      </g>
     </g>
    </g>
    <g id="ytick_17">
     <g id="line2d_57">
      <g>
       <use xlink:href="#m9a9e38f4f9" x="33.403125" y="124.1693" style="stroke: #000000; stroke-width: 0.6"/>
      </g>
     </g>
    </g>
    <g id="ytick_18">
     <g id="line2d_58">
      <g>
       <use xlink:href="#m9a9e38f4f9" x="33.403125" y="108.131964" style="stroke: #000000; stroke-width: 0.6"/>
      </g>
     </g>
    </g>
    <g id="ytick_19">
     <g id="line2d_59">
      <g>
       <use xlink:href="#m9a9e38f4f9" x="33.403125" y="76.057293" style="stroke: #000000; stroke-width: 0.6"/>
      </g>
     </g>
    </g>
    <g id="ytick_20">
     <g id="line2d_60">
      <g>
       <use xlink:href="#m9a9e38f4f9" x="33.403125" y="60.019958" style="stroke: #000000; stroke-width: 0.6"/>
      </g>
     </g>
    </g>
    <g id="ytick_21">
     <g id="line2d_61">
      <g>
       <use xlink:href="#m9a9e38f4f9" x="33.403125" y="43.982622" style="stroke: #000000; stroke-width: 0.6"/>
      </g>
     </g>
    </g>
    <g id="text_13">
     <!-- Kumulierte korrigierte Gewichtänderung [kg] -->
     <g transform="translate(7.598438 321.717656) rotate(-90) scale(0.1 -0.1)">
      <defs>
       <path id="DejaVuSans-4b" d="M 628 4666 
L 1259 4666 
L 1259 2694 
L 3353 4666 
L 4166 4666 
L 1850 2491 
L 4331 0 
L 3500 0 
L 1259 2247 
L 1259 0 
L 628 0 
L 628 4666 
z
" transform="scale(0.015625)"/>
       <path id="DejaVuSans-6d" d="M 3328 2828 
Q 3544 3216 3844 3400 
Q 4144 3584 4550 3584 
Q 5097 3584 5394 3201 
Q 5691 2819 5691 2113 
L 5691 0 
L 5113 0 
L 5113 2094 
Q 5113 2597 4934 2840 
Q 4756 3084 4391 3084 
Q 3944 3084 3684 2787 
Q 3425 2491 3425 1978 
L 3425 0 
L 2847 0 
L 2847 2094 
Q 2847 2600 2669 2842 
Q 2491 3084 2119 3084 
Q 1678 3084 1418 2786 
Q 1159 2488 1159 1978 
L 1159 0 
L 581 0 
L 581 3500 
L 1159 3500 
L 1159 2956 
Q 1356 3278 1631 3431 
Q 1906 3584 2284 3584 
Q 2666 3584 2933 3390 
Q 3200 3197 3328 2828 
z
" transform="scale(0.015625)"/>
       <path id="DejaVuSans-65" d="M 3597 1894 
L 3597 1613 
L 953 1613 
Q 991 1019 1311 708 
Q 1631 397 2203 397 
Q 2534 397 2845 478 
Q 3156 559 3463 722 
L 3463 178 
Q 3153 47 2828 -22 
Q 2503 -91 2169 -91 
Q 1331 -91 842 396 
Q 353 884 353 1716 
Q 353 2575 817 3079 
Q 1281 3584 2069 3584 
Q 2775 3584 3186 3129 
Q 3597 2675 3597 1894 
z
M 3022 2063 
Q 3016 2534 2758 2815 
Q 2500 3097 2075 3097 
Q 1594 3097 1305 2825 
Q 1016 2553 972 2059 
L 3022 2063 
z
" transform="scale(0.015625)"/>
       <path id="DejaVuSans-20" transform="scale(0.015625)"/>
       <path id="DejaVuSans-6b" d="M 581 4863 
L 1159 4863 
L 1159 1991 
L 2875 3500 
L 3609 3500 
L 1753 1863 
L 3688 0 
L 2938 0 
L 1159 1709 
L 1159 0 
L 581 0 
L 581 4863 
z
" transform="scale(0.015625)"/>
       <path id="DejaVuSans-47" d="M 3809 666 
L 3809 1919 
L 2778 1919 
L 2778 2438 
L 4434 2438 
L 4434 434 
Q 4069 175 3628 42 
Q 3188 -91 2688 -91 
Q 1594 -91 976 548 
Q 359 1188 359 2328 
Q 359 3472 976 4111 
Q 1594 4750 2688 4750 
Q 3144 4750 3555 4637 
Q 3966 4525 4313 4306 
L 4313 3634 
Q 3963 3931 3569 4081 
Q 3175 4231 2741 4231 
Q 1884 4231 1454 3753 
Q 1025 3275 1025 2328 
Q 1025 1384 1454 906 
Q 1884 428 2741 428 
Q 3075 428 3337 486 
Q 3600 544 3809 666 
z
" transform="scale(0.015625)"/>
       <path id="DejaVuSans-77" d="M 269 3500 
L 844 3500 
L 1563 769 
L 2278 3500 
L 2956 3500 
L 3675 769 
L 4391 3500 
L 4966 3500 
L 4050 0 
L 3372 0 
L 2619 2869 
L 1863 0 
L 1184 0 
L 269 3500 
z
" transform="scale(0.015625)"/>
       <path id="DejaVuSans-63" d="M 3122 3366 
L 3122 2828 
Q 2878 2963 2633 3030 
Q 2388 3097 2138 3097 
Q 1578 3097 1268 2742 
Q 959 2388 959 1747 
Q 959 1106 1268 751 
Q 1578 397 2138 397 
Q 2388 397 2633 464 
Q 2878 531 3122 666 
L 3122 134 
Q 2881 22 2623 -34 
Q 2366 -91 2075 -91 
Q 1284 -91 818 406 
Q 353 903 353 1747 
Q 353 2603 823 3093 
Q 1294 3584 2113 3584 
Q 2378 3584 2631 3529 
Q 2884 3475 3122 3366 
z
" transform="scale(0.015625)"/>
       <path id="DejaVuSans-68" d="M 3513 2113 
L 3513 0 
L 2938 0 
L 2938 2094 
Q 2938 2591 2744 2837 
Q 2550 3084 2163 3084 
Q 1697 3084 1428 2787 
Q 1159 2491 1159 1978 
L 1159 0 
L 581 0 
L 581 4863 
L 1159 4863 
L 1159 2956 
Q 1366 3272 1645 3428 
Q 1925 3584 2291 3584 
Q 2894 3584 3203 3211 
Q 3513 2838 3513 2113 
z
" transform="scale(0.015625)"/>
       <path id="DejaVuSans-64" d="M 2906 2969 
L 2906 4863 
L 3481 4863 
L 3481 0 
L 2906 0 
L 2906 525 
Q 2725 213 2448 61 
Q 2172 -91 1784 -91 
Q 1150 -91 751 415 
Q 353 922 353 1747 
Q 353 2572 751 3078 
Q 1150 3584 1784 3584 
Q 2172 3584 2448 3432 
Q 2725 3281 2906 2969 
z
M 947 1747 
Q 947 1113 1208 752 
Q 1469 391 1925 391 
Q 2381 391 2643 752 
Q 2906 1113 2906 1747 
Q 2906 2381 2643 2742 
Q 2381 3103 1925 3103 
Q 1469 3103 1208 2742 
Q 947 2381 947 1747 
z
" transform="scale(0.015625)"/>
       <path id="DejaVuSans-5b" d="M 550 4863 
L 1875 4863 
L 1875 4416 
L 1125 4416 
L 1125 -397 
L 1875 -397 
L 1875 -844 
L 550 -844 
L 550 4863 
z
" transform="scale(0.015625)"/>
       <path id="DejaVuSans-5d" d="M 1947 4863 
L 1947 -844 
L 622 -844 
L 622 -397 
L 1369 -397 
L 1369 4416 
L 622 4416 
L 622 4863 
L 1947 4863 
z
" transform="scale(0.015625)"/>
      </defs>
      <use xlink:href="#DejaVuSans-4b"/>
      <use xlink:href="#DejaVuSans-75" transform="translate(60.576172 0)"/>
      <use xlink:href="#DejaVuSans-6d" transform="translate(123.955078 0)"/>
      <use xlink:href="#DejaVuSans-75" transform="translate(221.367188 0)"/>
      <use xlink:href="#DejaVuSans-6c" transform="translate(284.746094 0)"/>
      <use xlink:href="#DejaVuSans-69" transform="translate(312.529297 0)"/>
      <use xlink:href="#DejaVuSans-65" transform="translate(340.3125 0)"/>
      <use xlink:href="#DejaVuSans-72" transform="translate(401.835938 0)"/>
      <use xlink:href="#DejaVuSans-74" transform="translate(442.949219 0)"/>
      <use xlink:href="#DejaVuSans-65" transform="translate(482.158203 0)"/>
      <use xlink:href="#DejaVuSans-20" transform="translate(543.681641 0)"/>
      <use xlink:href="#DejaVuSans-6b" transform="translate(575.46875 0)"/>
      <use xlink:href="#DejaVuSans-6f" transform="translate(629.753906 0)"/>
      <use xlink:href="#DejaVuSans-72" transform="translate(690.935547 0)"/>
      <use xlink:href="#DejaVuSans-72" transform="translate(730.298828 0)"/>
      <use xlink:href="#DejaVuSans-69" transform="translate(771.412109 0)"/>
      <use xlink:href="#DejaVuSans-67" transform="translate(799.195312 0)"/>
      <use xlink:href="#DejaVuSans-69" transform="translate(862.671875 0)"/>
      <use xlink:href="#DejaVuSans-65" transform="translate(890.455078 0)"/>
      <use xlink:href="#DejaVuSans-72" transform="translate(951.978516 0)"/>
      <use xlink:href="#DejaVuSans-74" transform="translate(993.091797 0)"/>
      <use xlink:href="#DejaVuSans-65" transform="translate(1032.300781 0)"/>
      <use xlink:href="#DejaVuSans-20" transform="translate(1093.824219 0)"/>
      <use xlink:href="#DejaVuSans-47" transform="translate(1125.611328 0)"/>
      <use xlink:href="#DejaVuSans-65" transform="translate(1203.101562 0)"/>
      <use xlink:href="#DejaVuSans-77" transform="translate(1264.625 0)"/>
      <use xlink:href="#DejaVuSans-69" transform="translate(1346.412109 0)"/>
      <use xlink:href="#DejaVuSans-63" transform="translate(1374.195312 0)"/>
      <use xlink:href="#DejaVuSans-68" transform="translate(1429.175781 0)"/>
      <use xlink:href="#DejaVuSans-74" transform="translate(1492.554688 0)"/>
      <use xlink:href="#DejaVuSans-e4" transform="translate(1531.763672 0)"/>
      <use xlink:href="#DejaVuSans-6e" transform="translate(1593.042969 0)"/>
      <use xlink:href="#DejaVuSans-64" transform="translate(1656.421875 0)"/>
      <use xlink:href="#DejaVuSans-65" transform="translate(1719.898438 0)"/>
      <use xlink:href="#DejaVuSans-72" transform="translate(1781.421875 0)"/>
      <use xlink:href="#DejaVuSans-75" transform="translate(1822.535156 0)"/>
      <use xlink:href="#DejaVuSans-6e" transform="translate(1885.914062 0)"/>
      <use xlink:href="#DejaVuSans-67" transform="translate(1949.292969 0)"/>
      <use xlink:href="#DejaVuSans-20" transform="translate(2012.769531 0)"/>
      <use xlink:href="#DejaVuSans-5b" transform="translate(2044.556641 0)"/>
      <use xlink:href="#DejaVuSans-6b" transform="translate(2083.570312 0)"/>
      <use xlink:href="#DejaVuSans-67" transform="translate(2141.480469 0)"/>
      <use xlink:href="#DejaVuSans-5d" transform="translate(2204.957031 0)"/>
     </g>
    </g>
   </g>
   <g id="line2d_62">
    <path d="M 63.839489 358.442698 
L 71.849058 358.923818 
L 75.853843 359.084192 
L 79.858627 359.404938 
L 87.868197 359.533237 
L 91.872981 359.886059 
L 95.877766 359.886059 
L 103.887336 360.270955 
L 107.89212 360.270955 
L 111.896905 360.399253 
L 115.90169 360.174731 
L 123.911259 360.399253 
L 127.916044 360.206805 
L 135.925613 360.559627 
L 139.930398 359.950208 
L 143.935182 360.270955 
L 151.944752 360.463403 
L 159.954321 360.527552 
L 171.968675 360.23888 
L 175.97346 360.431328 
L 179.978245 360.495477 
L 183.983029 359.501162 
L 187.987814 359.597387 
L 191.992599 360.623776 
L 195.997383 360.72 
L 200.002168 359.725685 
L 204.006953 359.950208 
L 208.011737 360.495477 
L 212.016522 359.982283 
L 216.021307 360.303029 
L 220.026092 359.533237 
L 224.030876 360.110581 
L 228.035661 360.399253 
L 232.040446 359.469088 
L 236.04523 358.025728 
L 240.050015 357.416309 
L 244.0548 357.640832 
L 248.059584 357.28801 
L 252.064369 355.876725 
L 256.069154 354.240916 
L 264.078723 352.027764 
L 268.083508 351.225897 
L 272.088292 350.712703 
L 280.097862 347.793908 
L 284.102647 347.184489 
L 288.107431 347.697683 
L 296.117001 345.003411 
L 300.121785 344.907187 
L 304.12657 344.458142 
L 308.131355 343.367603 
L 312.136139 341.346899 
L 320.145709 337.754535 
L 324.150493 336.086653 
L 328.155278 334.643292 
L 332.160063 333.713127 
L 336.164847 333.071633 
L 340.169632 331.4679 
L 344.174417 330.409436 
L 348.179202 329.222673 
L 352.183986 329.671718 
L 356.188771 329.447196 
L 360.193556 328.420806 
L 364.19834 325.918982 
L 368.203125 323.705829 
L 372.20791 321.300229 
L 376.212694 319.953093 
L 380.217479 319.696496 
L 384.222264 319.921018 
L 388.227048 320.402138 
L 392.231833 321.011557 
L 396.236618 320.819109 
L 400.241403 321.524752 
L 404.246187 323.256784 
L 420.265326 324.379398 
L 424.270111 324.988816 
L 428.274895 323.545456 
L 432.27968 323.737904 
L 436.284465 323.224709 
L 444.294034 314.628697 
L 448.298819 313.057039 
L 452.303603 313.089113 
L 456.308388 309.01563 
L 460.313173 311.260857 
L 464.317958 310.715588 
L 468.322742 304.493101 
L 472.327527 298.655511 
L 476.332312 296.121612 
L 480.337096 295.448044 
L 484.341881 292.336801 
L 488.346666 287.942571 
L 492.35145 286.499211 
L 496.356235 282.810624 
L 500.36102 278.576767 
L 504.365804 280.854069 
L 508.370589 281.880458 
L 512.375374 282.040832 
L 516.380158 281.335189 
L 520.384943 279.635231 
L 524.389728 279.667306 
L 532.399297 279.506933 
L 536.404082 278.961663 
L 540.408867 280.789919 
L 544.413651 280.789919 
L 548.418436 281.238965 
L 552.423221 282.16913 
L 556.428005 283.355893 
L 560.43279 283.869088 
L 564.437575 284.927552 
L 568.442359 285.569045 
L 572.447144 286.338838 
L 576.451929 286.852032 
L 580.456714 287.942571 
L 584.461498 288.455766 
L 588.466283 288.776513 
L 592.471068 289.289707 
L 596.475852 290.444395 
L 600.480637 291.759457 
L 604.485422 292.497174 
L 612.494991 294.229207 
L 616.499776 294.646177 
L 620.50456 294.774476 
L 628.51413 294.229207 
L 632.518914 293.748087 
L 636.523699 294.261281 
L 640.528484 294.934849 
L 644.533269 294.8707 
L 648.538053 294.582028 
L 652.542838 295.35182 
L 656.547623 296.634807 
L 660.552407 297.372524 
L 668.561977 297.949868 
L 672.566761 297.372524 
L 672.566761 297.372524 
" clip-path="url(#p9d62ade9d3)" style="fill: none; stroke: #bcbd22; stroke-width: 1.5; stroke-linecap: square"/>
   </g>
   <g id="line2d_63">
    <path d="M 63.839489 351.001375 
L 75.853843 351.225897 
L 83.863412 350.905151 
L 87.868197 349.301417 
L 91.872981 345.805278 
L 95.877766 346.09395 
L 99.882551 345.869427 
L 107.89212 346.831667 
L 111.896905 346.767518 
L 115.90169 346.542995 
L 119.906474 346.895817 
L 123.911259 347.665609 
L 127.916044 347.216563 
L 131.920828 346.446771 
L 135.925613 345.965651 
L 139.930398 346.863742 
L 143.935182 346.510921 
L 147.939967 346.382622 
L 151.944752 345.580755 
L 155.949536 345.516606 
L 159.954321 345.099635 
L 163.959106 345.356232 
L 167.963891 345.292083 
L 171.968675 345.580755 
L 179.978245 345.099635 
L 183.983029 345.163784 
L 187.987814 344.58644 
L 195.997383 346.09395 
L 200.002168 346.510921 
L 208.011737 345.901502 
L 212.016522 345.997726 
L 216.021307 346.863742 
L 220.026092 345.324158 
L 224.030876 343.977022 
L 228.035661 344.233619 
L 232.040446 344.10532 
L 236.04523 343.20723 
L 240.050015 339.871464 
L 244.0548 341.603496 
L 248.059584 337.979058 
L 252.064369 336.118727 
L 256.069154 334.482919 
L 260.073938 331.756572 
L 264.078723 331.724497 
L 268.083508 324.315248 
L 272.088292 318.798405 
L 276.093077 315.975834 
L 280.097862 318.76633 
L 284.102647 320.081392 
L 288.107431 320.69081 
L 292.112216 314.532473 
L 296.117001 309.047705 
L 300.121785 307.540195 
L 304.12657 295.159372 
L 308.131355 285.825643 
L 312.136139 284.606805 
L 316.140924 275.048553 
L 320.145709 258.33765 
L 324.150493 251.409521 
L 328.155278 252.660433 
L 332.160063 249.54919 
L 336.164847 241.594671 
L 340.169632 239.445668 
L 344.174417 241.273924 
L 348.179202 240.023012 
L 352.183986 240.824879 
L 356.188771 237.553263 
L 360.193556 232.196793 
L 364.19834 229.694968 
L 368.203125 232.357166 
L 372.20791 231.97227 
L 376.212694 229.374221 
L 380.217479 225.493186 
L 384.222264 224.14605 
L 388.227048 219.944268 
L 392.231833 222.029122 
L 396.236618 223.953602 
L 400.241403 224.62717 
L 404.246187 225.140365 
L 408.250972 225.493186 
L 412.255757 224.498871 
L 416.260541 222.478167 
L 420.265326 222.349868 
L 424.270111 222.414018 
L 428.274895 221.644226 
L 432.27968 222.125346 
L 436.284465 222.830989 
L 440.289249 223.761154 
L 444.294034 224.434722 
L 452.303603 224.659245 
L 456.308388 225.364888 
L 460.313173 224.14605 
L 464.317958 221.932898 
L 468.322742 218.917879 
L 472.327527 216.287756 
L 476.332312 215.068918 
L 480.337096 210.642613 
L 484.341881 206.63328 
L 492.35145 194.41283 
L 496.356235 187.805448 
L 500.36102 179.177361 
L 504.365804 171.703963 
L 508.370589 161.953263 
L 512.375374 155.153432 
L 516.380158 149.796962 
L 520.384943 149.02717 
L 524.389728 143.574476 
L 528.394513 134.721867 
L 532.399297 132.540789 
L 536.404082 129.814442 
L 540.408867 121.442953 
L 544.413651 112.526194 
L 548.418436 113.712957 
L 552.423221 107.394247 
L 556.428005 109.222503 
L 560.43279 110.02437 
L 564.437575 108.965906 
L 568.442359 107.298023 
L 572.447144 110.377191 
L 584.461498 111.53188 
L 588.466283 114.001629 
L 596.475852 115.284616 
L 600.480637 116.118557 
L 604.485422 117.30532 
L 608.490206 117.658142 
L 612.494991 118.33171 
L 616.499776 118.235486 
L 620.50456 119.390174 
L 628.51413 119.871294 
L 632.518914 120.031667 
L 636.523699 120.769385 
L 640.528484 119.871294 
L 644.533269 119.326025 
L 648.538053 120.544862 
L 652.542838 121.539177 
L 656.547623 119.422249 
L 660.552407 120.095817 
L 664.557192 120.929758 
L 668.561977 122.918388 
L 672.566761 124.778719 
L 672.566761 124.778719 
" clip-path="url(#p9d62ade9d3)" style="fill: none; stroke: #d62728; stroke-width: 1.5; stroke-linecap: square"/>
   </g>
   <g id="line2d_64">
    <path d="M 63.839489 359.533237 
L 67.844273 359.148341 
L 71.849058 356.967263 
L 75.853843 357.223861 
L 79.858627 356.903114 
L 83.863412 357.127637 
L 87.868197 357.640832 
L 91.872981 357.416309 
L 99.882551 355.523903 
L 103.887336 355.139007 
L 107.89212 355.523903 
L 111.896905 354.978634 
L 115.90169 353.43905 
L 119.906474 352.605108 
L 123.911259 352.95793 
L 131.920828 351.45042 
L 135.925613 350.391956 
L 139.930398 348.08258 
L 143.935182 348.627849 
L 147.939967 347.569385 
L 151.944752 349.878761 
L 155.949536 350.712703 
L 159.954321 350.359881 
L 163.959106 348.98067 
L 167.963891 350.391956 
L 171.968675 351.161748 
L 175.97346 348.210878 
L 179.978245 345.741129 
L 183.983029 340.384658 
L 187.987814 341.731795 
L 191.992599 343.271379 
L 195.997383 341.571421 
L 200.002168 341.860093 
L 204.006953 335.637607 
L 208.011737 323.609605 
L 212.016522 315.494714 
L 216.021307 305.936462 
L 220.026092 308.374137 
L 228.035661 299.649826 
L 232.040446 285.216224 
L 236.04523 268.890216 
L 240.050015 265.073331 
L 244.0548 268.98644 
L 252.064369 271.616563 
L 256.069154 274.310836 
L 260.073938 275.305151 
L 264.078723 275.978719 
L 268.083508 277.614527 
L 272.088292 278.993738 
L 276.093077 280.212575 
L 280.097862 281.816309 
L 284.102647 283.099296 
L 288.107431 284.061536 
L 292.112216 281.046517 
L 296.117001 279.667306 
L 300.121785 273.92594 
L 304.12657 264.11109 
L 308.131355 254.937734 
L 312.136139 252.981179 
L 316.140924 258.081052 
L 324.150493 262.571506 
L 328.155278 259.909308 
L 332.160063 263.533746 
L 336.164847 263.437522 
L 340.169632 260.74325 
L 344.174417 256.509393 
L 348.179202 253.173627 
L 352.183986 247.496411 
L 356.188771 245.539856 
L 360.193556 243.390853 
L 364.19834 242.749359 
L 368.203125 242.973882 
L 372.20791 244.19272 
L 376.212694 244.898362 
L 380.217479 245.026661 
L 384.222264 246.437947 
L 388.227048 245.315333 
L 392.231833 247.720933 
L 396.236618 247.175664 
L 400.241403 247.656784 
L 404.246187 247.817157 
L 408.250972 245.539856 
L 412.255757 247.817157 
L 416.260541 249.260518 
L 420.265326 251.120849 
L 424.270111 251.088774 
L 428.274895 247.175664 
L 432.27968 244.770064 
L 436.284465 243.294629 
L 440.289249 242.364463 
L 444.294034 234.249571 
L 448.298819 235.308036 
L 452.303603 232.132643 
L 456.308388 227.000696 
L 460.313173 223.953602 
L 464.317958 221.098956 
L 468.322742 220.681986 
L 472.327527 218.019788 
L 476.332312 213.497259 
L 480.337096 207.659669 
L 484.341881 197.556148 
L 488.346666 197.427849 
L 492.35145 190.146899 
L 496.356235 186.394162 
L 500.36102 183.860263 
L 504.365804 182.224455 
L 508.370589 177.028358 
L 512.375374 179.209436 
L 516.380158 179.78678 
L 520.384943 177.637777 
L 524.389728 173.917115 
L 528.394513 169.00969 
L 532.399297 162.915503 
L 536.404082 159.066542 
L 540.408867 160.125006 
L 544.413651 157.462809 
L 548.418436 157.33451 
L 552.423221 159.964633 
L 556.428005 158.649571 
L 560.43279 158.489198 
L 564.437575 161.151396 
L 568.442359 161.536292 
L 572.447144 162.658905 
L 580.456714 165.224879 
L 584.461498 164.358863 
L 588.466283 166.283343 
L 592.471068 167.277658 
L 596.475852 166.988986 
L 600.480637 169.394586 
L 604.485422 170.324752 
L 608.490206 169.811557 
L 612.494991 171.575664 
L 616.499776 172.44168 
L 624.509345 173.564294 
L 628.51413 172.826576 
L 632.518914 173.40392 
L 636.523699 174.141638 
L 640.528484 173.692592 
L 644.533269 174.462384 
L 648.538053 177.349105 
L 652.542838 179.30566 
L 656.547623 180.877319 
L 660.552407 183.250844 
L 664.557192 184.052711 
L 668.561977 184.630055 
L 672.566761 184.694204 
L 672.566761 184.694204 
" clip-path="url(#p9d62ade9d3)" style="fill: none; stroke: #2ca02c; stroke-width: 1.5; stroke-linecap: square"/>
   </g>
   <g id="line2d_65">
    <path d="M 63.839489 353.406975 
L 67.844273 353.3749 
L 71.849058 353.695647 
L 75.853843 353.823946 
L 79.858627 354.016394 
L 83.863412 354.433364 
L 87.868197 354.818261 
L 91.872981 357.801205 
L 95.877766 358.025728 
L 99.882551 358.121952 
L 103.887336 358.506848 
L 107.89212 358.346474 
L 111.896905 358.538922 
L 115.90169 358.699296 
L 119.906474 358.827594 
L 123.911259 359.116266 
L 127.916044 359.404938 
L 131.920828 359.661536 
L 135.925613 359.629461 
L 139.930398 359.308714 
L 143.935182 358.73137 
L 147.939967 358.3144 
L 151.944752 357.993653 
L 155.949536 357.320085 
L 159.954321 357.384234 
L 163.959106 357.576682 
M 171.968675 356.999338 
L 175.97346 356.742741 
L 179.978245 357.127637 
L 183.983029 356.32577 
L 187.987814 356.229546 
L 191.992599 354.946559 
L 195.997383 351.290047 
L 200.002168 347.248638 
L 204.006953 345.676979 
L 208.011737 345.516606 
L 212.016522 343.271379 
L 216.021307 338.33188 
L 220.026092 335.092338 
L 224.030876 332.654663 
L 228.035661 325.983131 
L 232.040446 318.124837 
L 236.04523 318.830479 
L 240.050015 311.677828 
L 244.0548 305.198744 
L 248.059584 306.834552 
L 252.064369 308.149614 
L 256.069154 309.528825 
L 260.073938 302.985592 
L 264.078723 294.806551 
L 268.083508 294.966924 
L 272.088292 289.193483 
L 276.093077 289.193483 
L 280.097862 289.899126 
L 284.102647 291.150038 
L 288.107431 280.821994 
L 292.112216 273.091998 
L 296.117001 265.586525 
L 300.121785 257.599932 
L 304.12657 249.452966 
L 308.131355 243.102181 
L 312.136139 239.766415 
L 316.140924 240.407908 
L 320.145709 242.268239 
L 324.150493 243.519151 
L 328.155278 241.979567 
L 332.160063 238.034383 
L 336.164847 233.159033 
L 340.169632 224.466797 
L 344.174417 213.272737 
L 348.179202 200.314569 
L 352.183986 193.226067 
L 356.188771 188.960136 
L 360.193556 186.330013 
L 364.19834 185.14325 
L 368.203125 184.11686 
L 372.20791 182.801799 
L 376.212694 182.19238 
L 380.217479 180.171676 
L 384.222264 179.177361 
L 388.227048 179.883004 
M 396.236618 180.652796 
L 400.241403 180.877319 
L 404.246187 181.967857 
L 408.250972 183.058396 
L 412.255757 182.384828 
L 416.260541 183.667815 
L 420.265326 184.148935 
L 424.270111 177.573627 
L 428.274895 171.864336 
L 432.27968 172.281307 
L 436.284465 170.196453 
L 440.289249 164.487162 
L 444.294034 158.713721 
L 448.298819 152.202563 
L 452.303603 145.59518 
L 456.308388 143.638625 
L 460.313173 146.300823 
L 464.317958 138.538753 
L 468.322742 131.5144 
L 472.327527 123.495732 
L 476.332312 112.141298 
L 480.337096 100.337819 
L 484.341881 96.649232 
L 488.346666 95.751141 
L 492.35145 89.336207 
L 496.356235 81.991107 
L 500.36102 74.806381 
L 504.365804 70.700823 
L 508.370589 65.953772 
L 512.375374 58.32 
L 516.380158 59.474688 
" clip-path="url(#p9d62ade9d3)" style="fill: none; stroke: #1f77b4; stroke-width: 1.5; stroke-linecap: square"/>
   </g>
   <g id="line2d_66">
    <path d="M 520.384943 375.84 
L 520.384943 43.2 
" clip-path="url(#p9d62ade9d3)" style="fill: none; stroke-dasharray: 1.5,2.475; stroke-dashoffset: 0; stroke: #1f77b4; stroke-width: 1.5"/>
   </g>
   <g id="patch_3">
    <path d="M 33.403125 375.84 
L 33.403125 43.2 
" style="fill: none; stroke: #000000; stroke-width: 0.8; stroke-linejoin: miter; stroke-linecap: square"/>
   </g>
   <g id="patch_4">
    <path d="M 703.003125 375.84 
L 703.003125 43.2 
" style="fill: none; stroke: #000000; stroke-width: 0.8; stroke-linejoin: miter; stroke-linecap: square"/>
   </g>
   <g id="patch_5">
    <path d="M 33.403125 375.84 
L 703.003125 375.84 
" style="fill: none; stroke: #000000; stroke-width: 0.8; stroke-linejoin: miter; stroke-linecap: square"/>
   </g>
   <g id="patch_6">
    <path d="M 33.403125 43.2 
L 703.003125 43.2 
" style="fill: none; stroke: #000000; stroke-width: 0.8; stroke-linejoin: miter; stroke-linecap: square"/>
   </g>
   <g id="patch_7">
    <path d="M 179.426054 327.577341 
Q 187.263653 343.25254 194.601253 357.927739 
" style="fill: none; stroke: #000000; stroke-linecap: round"/>
    <path d="M 194.601253 353.902817 
L 194.601253 357.927739 
L 191.381315 355.512786 
" style="fill: none; stroke: #000000; stroke-linecap: round"/>
   </g>
   <g id="patch_8">
    <path d="M 520.17641 276.046066 
Q 511.262871 277.184449 503.458358 278.181194 
" style="fill: none; stroke: #000000; stroke-linecap: round"/>
    <path d="M 507.257385 279.510626 
L 503.458358 278.181194 
L 506.80132 275.939631 
" style="fill: none; stroke: #000000; stroke-linecap: round"/>
   </g>
   <g id="text_14">
    <g id="patch_9">
     <path d="M 522.66102 279.148486 
L 579.591645 279.148486 
L 579.591645 265.038173 
L 522.66102 265.038173 
z
" style="fill: #ffffff; stroke: #000000; stroke-linejoin: miter"/>
    </g>
    <!-- 18.06.2022 -->
    <g transform="translate(525.36102 274.576767) scale(0.09 -0.09)">
     <defs>
      <path id="DejaVuSans-31" d="M 794 531 
L 1825 531 
L 1825 4091 
L 703 3866 
L 703 4441 
L 1819 4666 
L 2450 4666 
L 2450 531 
L 3481 531 
L 3481 0 
L 794 0 
L 794 531 
z
" transform="scale(0.015625)"/>
      <path id="DejaVuSans-2e" d="M 684 794 
L 1344 794 
L 1344 0 
L 684 0 
L 684 794 
z
" transform="scale(0.015625)"/>
     </defs>
     <use xlink:href="#DejaVuSans-31"/>
     <use xlink:href="#DejaVuSans-38" transform="translate(63.623047 0)"/>
     <use xlink:href="#DejaVuSans-2e" transform="translate(127.246094 0)"/>
     <use xlink:href="#DejaVuSans-30" transform="translate(159.033203 0)"/>
     <use xlink:href="#DejaVuSans-36" transform="translate(222.65625 0)"/>
     <use xlink:href="#DejaVuSans-2e" transform="translate(286.279297 0)"/>
     <use xlink:href="#DejaVuSans-32" transform="translate(318.066406 0)"/>
     <use xlink:href="#DejaVuSans-30" transform="translate(381.689453 0)"/>
     <use xlink:href="#DejaVuSans-32" transform="translate(445.3125 0)"/>
     <use xlink:href="#DejaVuSans-32" transform="translate(508.935547 0)"/>
    </g>
   </g>
   <g id="patch_10">
    <path d="M 55.277728 318.115313 
Q 63.115328 333.790512 70.452928 348.465711 
" style="fill: none; stroke: #000000; stroke-linecap: round"/>
    <path d="M 70.452928 344.440789 
L 70.452928 348.465711 
L 67.23299 346.050758 
" style="fill: none; stroke: #000000; stroke-linecap: round"/>
   </g>
   <g id="patch_11">
    <path d="M 588.25775 104.767322 
Q 579.344211 105.905705 571.539697 106.90245 
" style="fill: none; stroke: #000000; stroke-linecap: round"/>
    <path d="M 575.338725 108.231881 
L 571.539697 106.90245 
L 574.882659 104.660887 
" style="fill: none; stroke: #000000; stroke-linecap: round"/>
   </g>
   <g id="text_15">
    <g id="patch_12">
     <path d="M 590.742359 107.869742 
L 647.672984 107.869742 
L 647.672984 93.759429 
L 590.742359 93.759429 
z
" style="fill: #ffffff; stroke: #000000; stroke-linejoin: miter"/>
    </g>
    <!-- 05.07.2023 -->
    <g transform="translate(593.442359 103.298023) scale(0.09 -0.09)">
     <defs>
      <path id="DejaVuSans-35" d="M 691 4666 
L 3169 4666 
L 3169 4134 
L 1269 4134 
L 1269 2991 
Q 1406 3038 1543 3061 
Q 1681 3084 1819 3084 
Q 2600 3084 3056 2656 
Q 3513 2228 3513 1497 
Q 3513 744 3044 326 
Q 2575 -91 1722 -91 
Q 1428 -91 1123 -41 
Q 819 9 494 109 
L 494 744 
Q 775 591 1075 516 
Q 1375 441 1709 441 
Q 2250 441 2565 725 
Q 2881 1009 2881 1497 
Q 2881 1984 2565 2268 
Q 2250 2553 1709 2553 
Q 1456 2553 1204 2497 
Q 953 2441 691 2322 
L 691 4666 
z
" transform="scale(0.015625)"/>
      <path id="DejaVuSans-37" d="M 525 4666 
L 3525 4666 
L 3525 4397 
L 1831 0 
L 1172 0 
L 2766 4134 
L 525 4134 
L 525 4666 
z
" transform="scale(0.015625)"/>
      <path id="DejaVuSans-33" d="M 2597 2516 
Q 3050 2419 3304 2112 
Q 3559 1806 3559 1356 
Q 3559 666 3084 287 
Q 2609 -91 1734 -91 
Q 1441 -91 1130 -33 
Q 819 25 488 141 
L 488 750 
Q 750 597 1062 519 
Q 1375 441 1716 441 
Q 2309 441 2620 675 
Q 2931 909 2931 1356 
Q 2931 1769 2642 2001 
Q 2353 2234 1838 2234 
L 1294 2234 
L 1294 2753 
L 1863 2753 
Q 2328 2753 2575 2939 
Q 2822 3125 2822 3475 
Q 2822 3834 2567 4026 
Q 2313 4219 1838 4219 
Q 1578 4219 1281 4162 
Q 984 4106 628 3988 
L 628 4550 
Q 988 4650 1302 4700 
Q 1616 4750 1894 4750 
Q 2613 4750 3031 4423 
Q 3450 4097 3450 3541 
Q 3450 3153 3228 2886 
Q 3006 2619 2597 2516 
z
" transform="scale(0.015625)"/>
     </defs>
     <use xlink:href="#DejaVuSans-30"/>
     <use xlink:href="#DejaVuSans-35" transform="translate(63.623047 0)"/>
     <use xlink:href="#DejaVuSans-2e" transform="translate(127.246094 0)"/>
     <use xlink:href="#DejaVuSans-30" transform="translate(159.033203 0)"/>
     <use xlink:href="#DejaVuSans-37" transform="translate(222.65625 0)"/>
     <use xlink:href="#DejaVuSans-2e" transform="translate(286.279297 0)"/>
     <use xlink:href="#DejaVuSans-32" transform="translate(318.066406 0)"/>
     <use xlink:href="#DejaVuSans-30" transform="translate(381.689453 0)"/>
     <use xlink:href="#DejaVuSans-32" transform="translate(445.3125 0)"/>
     <use xlink:href="#DejaVuSans-33" transform="translate(508.935547 0)"/>
    </g>
   </g>
   <g id="patch_13">
    <path d="M 47.268159 326.390578 
Q 55.105759 342.065777 62.443358 356.740977 
" style="fill: none; stroke: #000000; stroke-linecap: round"/>
    <path d="M 62.443358 352.716054 
L 62.443358 356.740977 
L 59.22342 354.326023 
" style="fill: none; stroke: #000000; stroke-linecap: round"/>
   </g>
   <g id="patch_14">
    <path d="M 568.233827 154.803809 
Q 559.320287 155.942192 551.515774 156.938937 
" style="fill: none; stroke: #000000; stroke-linecap: round"/>
    <path d="M 555.314802 158.268368 
L 551.515774 156.938937 
L 554.858736 154.697374 
" style="fill: none; stroke: #000000; stroke-linecap: round"/>
   </g>
   <g id="text_16">
    <g id="patch_15">
     <path d="M 570.718436 157.906229 
L 627.649061 157.906229 
L 627.649061 143.795916 
L 570.718436 143.795916 
z
" style="fill: #ffffff; stroke: #000000; stroke-linejoin: miter"/>
    </g>
    <!-- 30.06.2024 -->
    <g transform="translate(573.418436 153.33451) scale(0.09 -0.09)">
     <use xlink:href="#DejaVuSans-33"/>
     <use xlink:href="#DejaVuSans-30" transform="translate(63.623047 0)"/>
     <use xlink:href="#DejaVuSans-2e" transform="translate(127.246094 0)"/>
     <use xlink:href="#DejaVuSans-30" transform="translate(159.033203 0)"/>
     <use xlink:href="#DejaVuSans-36" transform="translate(222.65625 0)"/>
     <use xlink:href="#DejaVuSans-2e" transform="translate(286.279297 0)"/>
     <use xlink:href="#DejaVuSans-32" transform="translate(318.066406 0)"/>
     <use xlink:href="#DejaVuSans-30" transform="translate(381.689453 0)"/>
     <use xlink:href="#DejaVuSans-32" transform="translate(445.3125 0)"/>
     <use xlink:href="#DejaVuSans-34" transform="translate(508.935547 0)"/>
    </g>
   </g>
   <g id="patch_16">
    <path d="M 115.349499 326.518876 
Q 123.187098 342.194076 130.524698 356.869275 
" style="fill: none; stroke: #000000; stroke-linecap: round"/>
    <path d="M 130.524698 352.844353 
L 130.524698 356.869275 
L 127.30476 354.454322 
" style="fill: none; stroke: #000000; stroke-linecap: round"/>
   </g>
   <g id="text_17">
    <!-- Trachtverlauf im aktuellen Jahr und Vorjahre (ab 2022) -->
    <g transform="translate(204.658125 37.2) scale(0.12 -0.12)">
     <defs>
      <path id="DejaVuSans-54" d="M -19 4666 
L 3928 4666 
L 3928 4134 
L 2272 4134 
L 2272 0 
L 1638 0 
L 1638 4134 
L -19 4134 
L -19 4666 
z
" transform="scale(0.015625)"/>
      <path id="DejaVuSans-76" d="M 191 3500 
L 800 3500 
L 1894 563 
L 2988 3500 
L 3597 3500 
L 2284 0 
L 1503 0 
L 191 3500 
z
" transform="scale(0.015625)"/>
      <path id="DejaVuSans-66" d="M 2375 4863 
L 2375 4384 
L 1825 4384 
Q 1516 4384 1395 4259 
Q 1275 4134 1275 3809 
L 1275 3500 
L 2222 3500 
L 2222 3053 
L 1275 3053 
L 1275 0 
L 697 0 
L 697 3053 
L 147 3053 
L 147 3500 
L 697 3500 
L 697 3744 
Q 697 4328 969 4595 
Q 1241 4863 1831 4863 
L 2375 4863 
z
" transform="scale(0.015625)"/>
      <path id="DejaVuSans-56" d="M 1831 0 
L 50 4666 
L 709 4666 
L 2188 738 
L 3669 4666 
L 4325 4666 
L 2547 0 
L 1831 0 
z
" transform="scale(0.015625)"/>
      <path id="DejaVuSans-6a" d="M 603 3500 
L 1178 3500 
L 1178 -63 
Q 1178 -731 923 -1031 
Q 669 -1331 103 -1331 
L -116 -1331 
L -116 -844 
L 38 -844 
Q 366 -844 484 -692 
Q 603 -541 603 -63 
L 603 3500 
z
M 603 4863 
L 1178 4863 
L 1178 4134 
L 603 4134 
L 603 4863 
z
" transform="scale(0.015625)"/>
      <path id="DejaVuSans-28" d="M 1984 4856 
Q 1566 4138 1362 3434 
Q 1159 2731 1159 2009 
Q 1159 1288 1364 580 
Q 1569 -128 1984 -844 
L 1484 -844 
Q 1016 -109 783 600 
Q 550 1309 550 2009 
Q 550 2706 781 3412 
Q 1013 4119 1484 4856 
L 1984 4856 
z
" transform="scale(0.015625)"/>
      <path id="DejaVuSans-62" d="M 3116 1747 
Q 3116 2381 2855 2742 
Q 2594 3103 2138 3103 
Q 1681 3103 1420 2742 
Q 1159 2381 1159 1747 
Q 1159 1113 1420 752 
Q 1681 391 2138 391 
Q 2594 391 2855 752 
Q 3116 1113 3116 1747 
z
M 1159 2969 
Q 1341 3281 1617 3432 
Q 1894 3584 2278 3584 
Q 2916 3584 3314 3078 
Q 3713 2572 3713 1747 
Q 3713 922 3314 415 
Q 2916 -91 2278 -91 
Q 1894 -91 1617 61 
Q 1341 213 1159 525 
L 1159 0 
L 581 0 
L 581 4863 
L 1159 4863 
L 1159 2969 
z
" transform="scale(0.015625)"/>
      <path id="DejaVuSans-29" d="M 513 4856 
L 1013 4856 
Q 1481 4119 1714 3412 
Q 1947 2706 1947 2009 
Q 1947 1309 1714 600 
Q 1481 -109 1013 -844 
L 513 -844 
Q 928 -128 1133 580 
Q 1338 1288 1338 2009 
Q 1338 2731 1133 3434 
Q 928 4138 513 4856 
z
" transform="scale(0.015625)"/>
     </defs>
     <use xlink:href="#DejaVuSans-54"/>
     <use xlink:href="#DejaVuSans-72" transform="translate(46.333984 0)"/>
     <use xlink:href="#DejaVuSans-61" transform="translate(87.447266 0)"/>
     <use xlink:href="#DejaVuSans-63" transform="translate(148.726562 0)"/>
     <use xlink:href="#DejaVuSans-68" transform="translate(203.707031 0)"/>
     <use xlink:href="#DejaVuSans-74" transform="translate(267.085938 0)"/>
     <use xlink:href="#DejaVuSans-76" transform="translate(306.294922 0)"/>
     <use xlink:href="#DejaVuSans-65" transform="translate(365.474609 0)"/>
     <use xlink:href="#DejaVuSans-72" transform="translate(426.998047 0)"/>
     <use xlink:href="#DejaVuSans-6c" transform="translate(468.111328 0)"/>
     <use xlink:href="#DejaVuSans-61" transform="translate(495.894531 0)"/>
     <use xlink:href="#DejaVuSans-75" transform="translate(557.173828 0)"/>
     <use xlink:href="#DejaVuSans-66" transform="translate(620.552734 0)"/>
     <use xlink:href="#DejaVuSans-20" transform="translate(655.757812 0)"/>
     <use xlink:href="#DejaVuSans-69" transform="translate(687.544922 0)"/>
     <use xlink:href="#DejaVuSans-6d" transform="translate(715.328125 0)"/>
     <use xlink:href="#DejaVuSans-20" transform="translate(812.740234 0)"/>
     <use xlink:href="#DejaVuSans-61" transform="translate(844.527344 0)"/>
     <use xlink:href="#DejaVuSans-6b" transform="translate(905.806641 0)"/>
     <use xlink:href="#DejaVuSans-74" transform="translate(963.716797 0)"/>
     <use xlink:href="#DejaVuSans-75" transform="translate(1002.925781 0)"/>
     <use xlink:href="#DejaVuSans-65" transform="translate(1066.304688 0)"/>
     <use xlink:href="#DejaVuSans-6c" transform="translate(1127.828125 0)"/>
     <use xlink:href="#DejaVuSans-6c" transform="translate(1155.611328 0)"/>
     <use xlink:href="#DejaVuSans-65" transform="translate(1183.394531 0)"/>
     <use xlink:href="#DejaVuSans-6e" transform="translate(1244.917969 0)"/>
     <use xlink:href="#DejaVuSans-20" transform="translate(1308.296875 0)"/>
     <use xlink:href="#DejaVuSans-4a" transform="translate(1340.083984 0)"/>
     <use xlink:href="#DejaVuSans-61" transform="translate(1369.576172 0)"/>
     <use xlink:href="#DejaVuSans-68" transform="translate(1430.855469 0)"/>
     <use xlink:href="#DejaVuSans-72" transform="translate(1494.234375 0)"/>
     <use xlink:href="#DejaVuSans-20" transform="translate(1535.347656 0)"/>
     <use xlink:href="#DejaVuSans-75" transform="translate(1567.134766 0)"/>
     <use xlink:href="#DejaVuSans-6e" transform="translate(1630.513672 0)"/>
     <use xlink:href="#DejaVuSans-64" transform="translate(1693.892578 0)"/>
     <use xlink:href="#DejaVuSans-20" transform="translate(1757.369141 0)"/>
     <use xlink:href="#DejaVuSans-56" transform="translate(1789.15625 0)"/>
     <use xlink:href="#DejaVuSans-6f" transform="translate(1849.814453 0)"/>
     <use xlink:href="#DejaVuSans-72" transform="translate(1910.996094 0)"/>
     <use xlink:href="#DejaVuSans-6a" transform="translate(1952.109375 0)"/>
     <use xlink:href="#DejaVuSans-61" transform="translate(1979.892578 0)"/>
     <use xlink:href="#DejaVuSans-68" transform="translate(2041.171875 0)"/>
     <use xlink:href="#DejaVuSans-72" transform="translate(2104.550781 0)"/>
     <use xlink:href="#DejaVuSans-65" transform="translate(2143.414062 0)"/>
     <use xlink:href="#DejaVuSans-20" transform="translate(2204.9375 0)"/>
     <use xlink:href="#DejaVuSans-28" transform="translate(2236.724609 0)"/>
     <use xlink:href="#DejaVuSans-61" transform="translate(2275.738281 0)"/>
     <use xlink:href="#DejaVuSans-62" transform="translate(2337.017578 0)"/>
     <use xlink:href="#DejaVuSans-20" transform="translate(2400.494141 0)"/>
     <use xlink:href="#DejaVuSans-32" transform="translate(2432.28125 0)"/>
     <use xlink:href="#DejaVuSans-30" transform="translate(2495.904297 0)"/>
     <use xlink:href="#DejaVuSans-32" transform="translate(2559.527344 0)"/>
     <use xlink:href="#DejaVuSans-32" transform="translate(2623.150391 0)"/>
     <use xlink:href="#DejaVuSans-29" transform="translate(2686.773438 0)"/>
    </g>
   </g>
   <g id="legend_1">
    <g id="patch_17">
     <path d="M 40.403125 124.590625 
L 169.542188 124.590625 
Q 171.542188 124.590625 171.542188 122.590625 
L 171.542188 50.2 
Q 171.542188 48.2 169.542188 48.2 
L 40.403125 48.2 
Q 38.403125 48.2 38.403125 50.2 
L 38.403125 122.590625 
Q 38.403125 124.590625 40.403125 124.590625 
z
" style="fill: #ffffff; opacity: 0.8; stroke: #cccccc; stroke-linejoin: miter"/>
    </g>
    <g id="line2d_67">
     <path d="M 42.403125 56.298437 
L 52.403125 56.298437 
L 62.403125 56.298437 
" style="fill: none; stroke: #bcbd22; stroke-width: 1.5; stroke-linecap: square"/>
    </g>
    <g id="text_18">
     <!-- 2022 -->
     <g transform="translate(70.403125 59.798437) scale(0.1 -0.1)">
      <use xlink:href="#DejaVuSans-32"/>
      <use xlink:href="#DejaVuSans-30" transform="translate(63.623047 0)"/>
      <use xlink:href="#DejaVuSans-32" transform="translate(127.246094 0)"/>
      <use xlink:href="#DejaVuSans-32" transform="translate(190.869141 0)"/>
     </g>
    </g>
    <g id="line2d_68">
     <path d="M 42.403125 70.976562 
L 52.403125 70.976562 
L 62.403125 70.976562 
" style="fill: none; stroke: #d62728; stroke-width: 1.5; stroke-linecap: square"/>
    </g>
    <g id="text_19">
     <!-- 2023 -->
     <g transform="translate(70.403125 74.476562) scale(0.1 -0.1)">
      <use xlink:href="#DejaVuSans-32"/>
      <use xlink:href="#DejaVuSans-30" transform="translate(63.623047 0)"/>
      <use xlink:href="#DejaVuSans-32" transform="translate(127.246094 0)"/>
      <use xlink:href="#DejaVuSans-33" transform="translate(190.869141 0)"/>
     </g>
    </g>
    <g id="line2d_69">
     <path d="M 42.403125 85.654687 
L 52.403125 85.654687 
L 62.403125 85.654687 
" style="fill: none; stroke: #2ca02c; stroke-width: 1.5; stroke-linecap: square"/>
    </g>
    <g id="text_20">
     <!-- 2024 -->
     <g transform="translate(70.403125 89.154687) scale(0.1 -0.1)">
      <use xlink:href="#DejaVuSans-32"/>
      <use xlink:href="#DejaVuSans-30" transform="translate(63.623047 0)"/>
      <use xlink:href="#DejaVuSans-32" transform="translate(127.246094 0)"/>
      <use xlink:href="#DejaVuSans-34" transform="translate(190.869141 0)"/>
     </g>
    </g>
    <g id="line2d_70">
     <path d="M 42.403125 100.332812 
L 52.403125 100.332812 
L 62.403125 100.332812 
" style="fill: none; stroke: #1f77b4; stroke-width: 1.5; stroke-linecap: square"/>
    </g>
    <g id="text_21">
     <!-- 2025 -->
     <g transform="translate(70.403125 103.832812) scale(0.1 -0.1)">
      <use xlink:href="#DejaVuSans-32"/>
      <use xlink:href="#DejaVuSans-30" transform="translate(63.623047 0)"/>
      <use xlink:href="#DejaVuSans-32" transform="translate(127.246094 0)"/>
      <use xlink:href="#DejaVuSans-35" transform="translate(190.869141 0)"/>
     </g>
    </g>
    <g id="line2d_71">
     <path d="M 42.403125 115.010938 
L 52.403125 115.010938 
L 62.403125 115.010938 
" style="fill: none; stroke-dasharray: 1.5,2.475; stroke-dashoffset: 0; stroke: #1f77b4; stroke-width: 1.5"/>
    </g>
    <g id="text_22">
     <!-- heute (23.06.2025) -->
     <g transform="translate(70.403125 118.510938) scale(0.1 -0.1)">
      <use xlink:href="#DejaVuSans-68"/>
      <use xlink:href="#DejaVuSans-65" transform="translate(63.378906 0)"/>
      <use xlink:href="#DejaVuSans-75" transform="translate(124.902344 0)"/>
      <use xlink:href="#DejaVuSans-74" transform="translate(188.28125 0)"/>
      <use xlink:href="#DejaVuSans-65" transform="translate(227.490234 0)"/>
      <use xlink:href="#DejaVuSans-20" transform="translate(289.013672 0)"/>
      <use xlink:href="#DejaVuSans-28" transform="translate(320.800781 0)"/>
      <use xlink:href="#DejaVuSans-32" transform="translate(359.814453 0)"/>
      <use xlink:href="#DejaVuSans-33" transform="translate(423.4375 0)"/>
      <use xlink:href="#DejaVuSans-2e" transform="translate(487.060547 0)"/>
      <use xlink:href="#DejaVuSans-30" transform="translate(518.847656 0)"/>
      <use xlink:href="#DejaVuSans-36" transform="translate(582.470703 0)"/>
      <use xlink:href="#DejaVuSans-2e" transform="translate(646.09375 0)"/>
      <use xlink:href="#DejaVuSans-32" transform="translate(677.880859 0)"/>
      <use xlink:href="#DejaVuSans-30" transform="translate(741.503906 0)"/>
      <use xlink:href="#DejaVuSans-32" transform="translate(805.126953 0)"/>
      <use xlink:href="#DejaVuSans-35" transform="translate(868.75 0)"/>
      <use xlink:href="#DejaVuSans-29" transform="translate(932.373047 0)"/>
     </g>
    </g>
   </g>
  </g>
  <g id="text_23">
   <!-- Dr. Gerhard Liebig (Waage 1276) -->
   <g transform="translate(258.63375 9.118125) scale(0.12 -0.12)">
    <defs>
     <path id="DejaVuSans-44" d="M 1259 4147 
L 1259 519 
L 2022 519 
Q 2988 519 3436 956 
Q 3884 1394 3884 2338 
Q 3884 3275 3436 3711 
Q 2988 4147 2022 4147 
L 1259 4147 
z
M 628 4666 
L 1925 4666 
Q 3281 4666 3915 4102 
Q 4550 3538 4550 2338 
Q 4550 1131 3912 565 
Q 3275 0 1925 0 
L 628 0 
L 628 4666 
z
" transform="scale(0.015625)"/>
     <path id="DejaVuSans-4c" d="M 628 4666 
L 1259 4666 
L 1259 531 
L 3531 531 
L 3531 0 
L 628 0 
L 628 4666 
z
" transform="scale(0.015625)"/>
     <path id="DejaVuSans-57" d="M 213 4666 
L 850 4666 
L 1831 722 
L 2809 4666 
L 3519 4666 
L 4500 722 
L 5478 4666 
L 6119 4666 
L 4947 0 
L 4153 0 
L 3169 4050 
L 2175 0 
L 1381 0 
L 213 4666 
z
" transform="scale(0.015625)"/>
    </defs>
    <use xlink:href="#DejaVuSans-44"/>
    <use xlink:href="#DejaVuSans-72" transform="translate(77.001953 0)"/>
    <use xlink:href="#DejaVuSans-2e" transform="translate(108.990234 0)"/>
    <use xlink:href="#DejaVuSans-20" transform="translate(140.777344 0)"/>
    <use xlink:href="#DejaVuSans-47" transform="translate(172.564453 0)"/>
    <use xlink:href="#DejaVuSans-65" transform="translate(250.054688 0)"/>
    <use xlink:href="#DejaVuSans-72" transform="translate(311.578125 0)"/>
    <use xlink:href="#DejaVuSans-68" transform="translate(350.941406 0)"/>
    <use xlink:href="#DejaVuSans-61" transform="translate(414.320312 0)"/>
    <use xlink:href="#DejaVuSans-72" transform="translate(475.599609 0)"/>
    <use xlink:href="#DejaVuSans-64" transform="translate(514.962891 0)"/>
    <use xlink:href="#DejaVuSans-20" transform="translate(578.439453 0)"/>
    <use xlink:href="#DejaVuSans-4c" transform="translate(610.226562 0)"/>
    <use xlink:href="#DejaVuSans-69" transform="translate(665.939453 0)"/>
    <use xlink:href="#DejaVuSans-65" transform="translate(693.722656 0)"/>
    <use xlink:href="#DejaVuSans-62" transform="translate(755.246094 0)"/>
    <use xlink:href="#DejaVuSans-69" transform="translate(818.722656 0)"/>
    <use xlink:href="#DejaVuSans-67" transform="translate(846.505859 0)"/>
    <use xlink:href="#DejaVuSans-20" transform="translate(909.982422 0)"/>
    <use xlink:href="#DejaVuSans-28" transform="translate(941.769531 0)"/>
    <use xlink:href="#DejaVuSans-57" transform="translate(980.783203 0)"/>
    <use xlink:href="#DejaVuSans-61" transform="translate(1073.285156 0)"/>
    <use xlink:href="#DejaVuSans-61" transform="translate(1134.564453 0)"/>
    <use xlink:href="#DejaVuSans-67" transform="translate(1195.84375 0)"/>
    <use xlink:href="#DejaVuSans-65" transform="translate(1259.320312 0)"/>
    <use xlink:href="#DejaVuSans-20" transform="translate(1320.84375 0)"/>
    <use xlink:href="#DejaVuSans-31" transform="translate(1352.630859 0)"/>
    <use xlink:href="#DejaVuSans-32" transform="translate(1416.253906 0)"/>
    <use xlink:href="#DejaVuSans-37" transform="translate(1479.876953 0)"/>
    <use xlink:href="#DejaVuSans-36" transform="translate(1543.5 0)"/>
    <use xlink:href="#DejaVuSans-29" transform="translate(1607.123047 0)"/>
   </g>
  </g>
 </g>
 <defs>
  <clipPath id="p9d62ade9d3">
   <rect x="33.403125" y="43.2" width="669.6" height="332.64"/>
  </clipPath>
 </defs>
</svg>
