<?xml version="1.0" encoding="utf-8" standalone="no"?>
<!DOCTYPE svg PUBLIC "-//W3C//DTD SVG 1.1//EN"
  "http://www.w3.org/Graphics/SVG/1.1/DTD/svg11.dtd">
<svg xmlns:xlink="http://www.w3.org/1999/xlink" width="703.003125pt" height="406.19625pt" viewBox="0 0 703.003125 406.19625" xmlns="http://www.w3.org/2000/svg" version="1.1">
 <metadata>
  <rdf:RDF xmlns:dc="http://purl.org/dc/elements/1.1/" xmlns:cc="http://creativecommons.org/ns#" xmlns:rdf="http://www.w3.org/1999/02/22-rdf-syntax-ns#">
   <cc:Work>
    <dc:type rdf:resource="http://purl.org/dc/dcmitype/StillImage"/>
    <dc:date>2025-06-14T18:26:02.325475</dc:date>
    <dc:format>image/svg+xml</dc:format>
    <dc:creator>
     <cc:Agent>
      <dc:title>Matplotlib v3.10.3, https://matplotlib.org/</dc:title>
     </cc:Agent>
    </dc:creator>
   </cc:Work>
  </rdf:RDF>
 </metadata>
 <defs>
  <style type="text/css">*{stroke-linejoin: round; stroke-linecap: butt}</style>
 </defs>
 <g id="figure_1">
  <g id="patch_1">
   <path d="M 0 406.19625 
L 703.003125 406.19625 
L 703.003125 0 
L 0 0 
z
" style="fill: #ffffff"/>
  </g>
  <g id="axes_1">
   <g id="patch_2">
    <path d="M 33.403125 375.84 
L 703.003125 375.84 
L 703.003125 43.2 
L 33.403125 43.2 
z
" style="fill: #ffffff"/>
   </g>
   <g id="matplotlib.axis_1">
    <g id="xtick_1">
     <g id="line2d_1">
      <path d="M 63.839489 375.84 
L 63.839489 43.2 
" clip-path="url(#pda6243095e)" style="fill: none; stroke: #b0b0b0; stroke-width: 0.8; stroke-linecap: square"/>
     </g>
     <g id="line2d_2">
      <defs>
       <path id="mbb6c430943" d="M 0 0 
L 0 3.5 
" style="stroke: #000000; stroke-width: 0.8"/>
      </defs>
      <g>
       <use xlink:href="#mbb6c430943" x="63.839489" y="375.84" style="stroke: #000000; stroke-width: 0.8"/>
      </g>
     </g>
     <g id="text_1">
      <!-- Mär -->
      <g transform="translate(54.405895 390.438438) scale(0.1 -0.1)">
       <defs>
        <path id="DejaVuSans-4d" d="M 628 4666 
L 1569 4666 
L 2759 1491 
L 3956 4666 
L 4897 4666 
L 4897 0 
L 4281 0 
L 4281 4097 
L 3078 897 
L 2444 897 
L 1241 4097 
L 1241 0 
L 628 0 
L 628 4666 
z
" transform="scale(0.015625)"/>
        <path id="DejaVuSans-e4" d="M 2194 1759 
Q 1497 1759 1228 1600 
Q 959 1441 959 1056 
Q 959 750 1161 570 
Q 1363 391 1709 391 
Q 2188 391 2477 730 
Q 2766 1069 2766 1631 
L 2766 1759 
L 2194 1759 
z
M 3341 1997 
L 3341 0 
L 2766 0 
L 2766 531 
Q 2569 213 2275 61 
Q 1981 -91 1556 -91 
Q 1019 -91 701 211 
Q 384 513 384 1019 
Q 384 1609 779 1909 
Q 1175 2209 1959 2209 
L 2766 2209 
L 2766 2266 
Q 2766 2663 2505 2880 
Q 2244 3097 1772 3097 
Q 1472 3097 1187 3025 
Q 903 2953 641 2809 
L 641 3341 
Q 956 3463 1253 3523 
Q 1550 3584 1831 3584 
Q 2591 3584 2966 3190 
Q 3341 2797 3341 1997 
z
M 2150 4850 
L 2784 4850 
L 2784 4219 
L 2150 4219 
L 2150 4850 
z
M 928 4850 
L 1562 4850 
L 1562 4219 
L 928 4219 
L 928 4850 
z
" transform="scale(0.015625)"/>
        <path id="DejaVuSans-72" d="M 2631 2963 
Q 2534 3019 2420 3045 
Q 2306 3072 2169 3072 
Q 1681 3072 1420 2755 
Q 1159 2438 1159 1844 
L 1159 0 
L 581 0 
L 581 3500 
L 1159 3500 
L 1159 2956 
Q 1341 3275 1631 3429 
Q 1922 3584 2338 3584 
Q 2397 3584 2469 3576 
Q 2541 3569 2628 3553 
L 2631 2963 
z
" transform="scale(0.015625)"/>
       </defs>
       <use xlink:href="#DejaVuSans-4d"/>
       <use xlink:href="#DejaVuSans-e4" transform="translate(86.279297 0)"/>
       <use xlink:href="#DejaVuSans-72" transform="translate(147.558594 0)"/>
      </g>
     </g>
    </g>
    <g id="xtick_2">
     <g id="line2d_3">
      <path d="M 187.987814 375.84 
L 187.987814 43.2 
" clip-path="url(#pda6243095e)" style="fill: none; stroke: #b0b0b0; stroke-width: 0.8; stroke-linecap: square"/>
     </g>
     <g id="line2d_4">
      <g>
       <use xlink:href="#mbb6c430943" x="187.987814" y="375.84" style="stroke: #000000; stroke-width: 0.8"/>
      </g>
     </g>
     <g id="text_2">
      <!-- Apr -->
      <g transform="translate(179.337814 390.438438) scale(0.1 -0.1)">
       <defs>
        <path id="DejaVuSans-41" d="M 2188 4044 
L 1331 1722 
L 3047 1722 
L 2188 4044 
z
M 1831 4666 
L 2547 4666 
L 4325 0 
L 3669 0 
L 3244 1197 
L 1141 1197 
L 716 0 
L 50 0 
L 1831 4666 
z
" transform="scale(0.015625)"/>
        <path id="DejaVuSans-70" d="M 1159 525 
L 1159 -1331 
L 581 -1331 
L 581 3500 
L 1159 3500 
L 1159 2969 
Q 1341 3281 1617 3432 
Q 1894 3584 2278 3584 
Q 2916 3584 3314 3078 
Q 3713 2572 3713 1747 
Q 3713 922 3314 415 
Q 2916 -91 2278 -91 
Q 1894 -91 1617 61 
Q 1341 213 1159 525 
z
M 3116 1747 
Q 3116 2381 2855 2742 
Q 2594 3103 2138 3103 
Q 1681 3103 1420 2742 
Q 1159 2381 1159 1747 
Q 1159 1113 1420 752 
Q 1681 391 2138 391 
Q 2594 391 2855 752 
Q 3116 1113 3116 1747 
z
" transform="scale(0.015625)"/>
       </defs>
       <use xlink:href="#DejaVuSans-41"/>
       <use xlink:href="#DejaVuSans-70" transform="translate(68.408203 0)"/>
       <use xlink:href="#DejaVuSans-72" transform="translate(131.884766 0)"/>
      </g>
     </g>
    </g>
    <g id="xtick_3">
     <g id="line2d_5">
      <path d="M 308.131355 375.84 
L 308.131355 43.2 
" clip-path="url(#pda6243095e)" style="fill: none; stroke: #b0b0b0; stroke-width: 0.8; stroke-linecap: square"/>
     </g>
     <g id="line2d_6">
      <g>
       <use xlink:href="#mbb6c430943" x="308.131355" y="375.84" style="stroke: #000000; stroke-width: 0.8"/>
      </g>
     </g>
     <g id="text_3">
      <!-- Mai -->
      <g transform="translate(299.364167 390.438438) scale(0.1 -0.1)">
       <defs>
        <path id="DejaVuSans-61" d="M 2194 1759 
Q 1497 1759 1228 1600 
Q 959 1441 959 1056 
Q 959 750 1161 570 
Q 1363 391 1709 391 
Q 2188 391 2477 730 
Q 2766 1069 2766 1631 
L 2766 1759 
L 2194 1759 
z
M 3341 1997 
L 3341 0 
L 2766 0 
L 2766 531 
Q 2569 213 2275 61 
Q 1981 -91 1556 -91 
Q 1019 -91 701 211 
Q 384 513 384 1019 
Q 384 1609 779 1909 
Q 1175 2209 1959 2209 
L 2766 2209 
L 2766 2266 
Q 2766 2663 2505 2880 
Q 2244 3097 1772 3097 
Q 1472 3097 1187 3025 
Q 903 2953 641 2809 
L 641 3341 
Q 956 3463 1253 3523 
Q 1550 3584 1831 3584 
Q 2591 3584 2966 3190 
Q 3341 2797 3341 1997 
z
" transform="scale(0.015625)"/>
        <path id="DejaVuSans-69" d="M 603 3500 
L 1178 3500 
L 1178 0 
L 603 0 
L 603 3500 
z
M 603 4863 
L 1178 4863 
L 1178 4134 
L 603 4134 
L 603 4863 
z
" transform="scale(0.015625)"/>
       </defs>
       <use xlink:href="#DejaVuSans-4d"/>
       <use xlink:href="#DejaVuSans-61" transform="translate(86.279297 0)"/>
       <use xlink:href="#DejaVuSans-69" transform="translate(147.558594 0)"/>
      </g>
     </g>
    </g>
    <g id="xtick_4">
     <g id="line2d_7">
      <path d="M 432.27968 375.84 
L 432.27968 43.2 
" clip-path="url(#pda6243095e)" style="fill: none; stroke: #b0b0b0; stroke-width: 0.8; stroke-linecap: square"/>
     </g>
     <g id="line2d_8">
      <g>
       <use xlink:href="#mbb6c430943" x="432.27968" y="375.84" style="stroke: #000000; stroke-width: 0.8"/>
      </g>
     </g>
     <g id="text_4">
      <!-- Jun -->
      <g transform="translate(424.46718 390.438438) scale(0.1 -0.1)">
       <defs>
        <path id="DejaVuSans-4a" d="M 628 4666 
L 1259 4666 
L 1259 325 
Q 1259 -519 939 -900 
Q 619 -1281 -91 -1281 
L -331 -1281 
L -331 -750 
L -134 -750 
Q 284 -750 456 -515 
Q 628 -281 628 325 
L 628 4666 
z
" transform="scale(0.015625)"/>
        <path id="DejaVuSans-75" d="M 544 1381 
L 544 3500 
L 1119 3500 
L 1119 1403 
Q 1119 906 1312 657 
Q 1506 409 1894 409 
Q 2359 409 2629 706 
Q 2900 1003 2900 1516 
L 2900 3500 
L 3475 3500 
L 3475 0 
L 2900 0 
L 2900 538 
Q 2691 219 2414 64 
Q 2138 -91 1772 -91 
Q 1169 -91 856 284 
Q 544 659 544 1381 
z
M 1991 3584 
L 1991 3584 
z
" transform="scale(0.015625)"/>
        <path id="DejaVuSans-6e" d="M 3513 2113 
L 3513 0 
L 2938 0 
L 2938 2094 
Q 2938 2591 2744 2837 
Q 2550 3084 2163 3084 
Q 1697 3084 1428 2787 
Q 1159 2491 1159 1978 
L 1159 0 
L 581 0 
L 581 3500 
L 1159 3500 
L 1159 2956 
Q 1366 3272 1645 3428 
Q 1925 3584 2291 3584 
Q 2894 3584 3203 3211 
Q 3513 2838 3513 2113 
z
" transform="scale(0.015625)"/>
       </defs>
       <use xlink:href="#DejaVuSans-4a"/>
       <use xlink:href="#DejaVuSans-75" transform="translate(29.492188 0)"/>
       <use xlink:href="#DejaVuSans-6e" transform="translate(92.871094 0)"/>
      </g>
     </g>
    </g>
    <g id="xtick_5">
     <g id="line2d_9">
      <path d="M 552.423221 375.84 
L 552.423221 43.2 
" clip-path="url(#pda6243095e)" style="fill: none; stroke: #b0b0b0; stroke-width: 0.8; stroke-linecap: square"/>
     </g>
     <g id="line2d_10">
      <g>
       <use xlink:href="#mbb6c430943" x="552.423221" y="375.84" style="stroke: #000000; stroke-width: 0.8"/>
      </g>
     </g>
     <g id="text_5">
      <!-- Jul -->
      <g transform="translate(546.390408 390.438438) scale(0.1 -0.1)">
       <defs>
        <path id="DejaVuSans-6c" d="M 603 4863 
L 1178 4863 
L 1178 0 
L 603 0 
L 603 4863 
z
" transform="scale(0.015625)"/>
       </defs>
       <use xlink:href="#DejaVuSans-4a"/>
       <use xlink:href="#DejaVuSans-75" transform="translate(29.492188 0)"/>
       <use xlink:href="#DejaVuSans-6c" transform="translate(92.871094 0)"/>
      </g>
     </g>
    </g>
    <g id="xtick_6">
     <g id="line2d_11">
      <path d="M 676.571546 375.84 
L 676.571546 43.2 
" clip-path="url(#pda6243095e)" style="fill: none; stroke: #b0b0b0; stroke-width: 0.8; stroke-linecap: square"/>
     </g>
     <g id="line2d_12">
      <g>
       <use xlink:href="#mbb6c430943" x="676.571546" y="375.84" style="stroke: #000000; stroke-width: 0.8"/>
      </g>
     </g>
     <g id="text_6">
      <!-- Aug -->
      <g transform="translate(666.808265 390.438438) scale(0.1 -0.1)">
       <defs>
        <path id="DejaVuSans-67" d="M 2906 1791 
Q 2906 2416 2648 2759 
Q 2391 3103 1925 3103 
Q 1463 3103 1205 2759 
Q 947 2416 947 1791 
Q 947 1169 1205 825 
Q 1463 481 1925 481 
Q 2391 481 2648 825 
Q 2906 1169 2906 1791 
z
M 3481 434 
Q 3481 -459 3084 -895 
Q 2688 -1331 1869 -1331 
Q 1566 -1331 1297 -1286 
Q 1028 -1241 775 -1147 
L 775 -588 
Q 1028 -725 1275 -790 
Q 1522 -856 1778 -856 
Q 2344 -856 2625 -561 
Q 2906 -266 2906 331 
L 2906 616 
Q 2728 306 2450 153 
Q 2172 0 1784 0 
Q 1141 0 747 490 
Q 353 981 353 1791 
Q 353 2603 747 3093 
Q 1141 3584 1784 3584 
Q 2172 3584 2450 3431 
Q 2728 3278 2906 2969 
L 2906 3500 
L 3481 3500 
L 3481 434 
z
" transform="scale(0.015625)"/>
       </defs>
       <use xlink:href="#DejaVuSans-41"/>
       <use xlink:href="#DejaVuSans-75" transform="translate(68.408203 0)"/>
       <use xlink:href="#DejaVuSans-67" transform="translate(131.787109 0)"/>
      </g>
     </g>
    </g>
    <g id="xtick_7">
     <g id="line2d_13">
      <defs>
       <path id="m1f2e687f06" d="M 0 0 
L 0 2 
" style="stroke: #000000; stroke-width: 0.6"/>
      </defs>
      <g>
       <use xlink:href="#m1f2e687f06" x="43.815565" y="375.84" style="stroke: #000000; stroke-width: 0.6"/>
      </g>
     </g>
    </g>
    <g id="xtick_8">
     <g id="line2d_14">
      <g>
       <use xlink:href="#m1f2e687f06" x="71.849058" y="375.84" style="stroke: #000000; stroke-width: 0.6"/>
      </g>
     </g>
    </g>
    <g id="xtick_9">
     <g id="line2d_15">
      <g>
       <use xlink:href="#m1f2e687f06" x="99.882551" y="375.84" style="stroke: #000000; stroke-width: 0.6"/>
      </g>
     </g>
    </g>
    <g id="xtick_10">
     <g id="line2d_16">
      <g>
       <use xlink:href="#m1f2e687f06" x="127.916044" y="375.84" style="stroke: #000000; stroke-width: 0.6"/>
      </g>
     </g>
    </g>
    <g id="xtick_11">
     <g id="line2d_17">
      <g>
       <use xlink:href="#m1f2e687f06" x="155.949536" y="375.84" style="stroke: #000000; stroke-width: 0.6"/>
      </g>
     </g>
    </g>
    <g id="xtick_12">
     <g id="line2d_18">
      <g>
       <use xlink:href="#m1f2e687f06" x="183.983029" y="375.84" style="stroke: #000000; stroke-width: 0.6"/>
      </g>
     </g>
    </g>
    <g id="xtick_13">
     <g id="line2d_19">
      <g>
       <use xlink:href="#m1f2e687f06" x="212.016522" y="375.84" style="stroke: #000000; stroke-width: 0.6"/>
      </g>
     </g>
    </g>
    <g id="xtick_14">
     <g id="line2d_20">
      <g>
       <use xlink:href="#m1f2e687f06" x="240.050015" y="375.84" style="stroke: #000000; stroke-width: 0.6"/>
      </g>
     </g>
    </g>
    <g id="xtick_15">
     <g id="line2d_21">
      <g>
       <use xlink:href="#m1f2e687f06" x="268.083508" y="375.84" style="stroke: #000000; stroke-width: 0.6"/>
      </g>
     </g>
    </g>
    <g id="xtick_16">
     <g id="line2d_22">
      <g>
       <use xlink:href="#m1f2e687f06" x="296.117001" y="375.84" style="stroke: #000000; stroke-width: 0.6"/>
      </g>
     </g>
    </g>
    <g id="xtick_17">
     <g id="line2d_23">
      <g>
       <use xlink:href="#m1f2e687f06" x="324.150493" y="375.84" style="stroke: #000000; stroke-width: 0.6"/>
      </g>
     </g>
    </g>
    <g id="xtick_18">
     <g id="line2d_24">
      <g>
       <use xlink:href="#m1f2e687f06" x="352.183986" y="375.84" style="stroke: #000000; stroke-width: 0.6"/>
      </g>
     </g>
    </g>
    <g id="xtick_19">
     <g id="line2d_25">
      <g>
       <use xlink:href="#m1f2e687f06" x="380.217479" y="375.84" style="stroke: #000000; stroke-width: 0.6"/>
      </g>
     </g>
    </g>
    <g id="xtick_20">
     <g id="line2d_26">
      <g>
       <use xlink:href="#m1f2e687f06" x="408.250972" y="375.84" style="stroke: #000000; stroke-width: 0.6"/>
      </g>
     </g>
    </g>
    <g id="xtick_21">
     <g id="line2d_27">
      <g>
       <use xlink:href="#m1f2e687f06" x="436.284465" y="375.84" style="stroke: #000000; stroke-width: 0.6"/>
      </g>
     </g>
    </g>
    <g id="xtick_22">
     <g id="line2d_28">
      <g>
       <use xlink:href="#m1f2e687f06" x="464.317958" y="375.84" style="stroke: #000000; stroke-width: 0.6"/>
      </g>
     </g>
    </g>
    <g id="xtick_23">
     <g id="line2d_29">
      <g>
       <use xlink:href="#m1f2e687f06" x="492.35145" y="375.84" style="stroke: #000000; stroke-width: 0.6"/>
      </g>
     </g>
    </g>
    <g id="xtick_24">
     <g id="line2d_30">
      <g>
       <use xlink:href="#m1f2e687f06" x="520.384943" y="375.84" style="stroke: #000000; stroke-width: 0.6"/>
      </g>
     </g>
    </g>
    <g id="xtick_25">
     <g id="line2d_31">
      <g>
       <use xlink:href="#m1f2e687f06" x="548.418436" y="375.84" style="stroke: #000000; stroke-width: 0.6"/>
      </g>
     </g>
    </g>
    <g id="xtick_26">
     <g id="line2d_32">
      <g>
       <use xlink:href="#m1f2e687f06" x="576.451929" y="375.84" style="stroke: #000000; stroke-width: 0.6"/>
      </g>
     </g>
    </g>
    <g id="xtick_27">
     <g id="line2d_33">
      <g>
       <use xlink:href="#m1f2e687f06" x="604.485422" y="375.84" style="stroke: #000000; stroke-width: 0.6"/>
      </g>
     </g>
    </g>
    <g id="xtick_28">
     <g id="line2d_34">
      <g>
       <use xlink:href="#m1f2e687f06" x="632.518914" y="375.84" style="stroke: #000000; stroke-width: 0.6"/>
      </g>
     </g>
    </g>
    <g id="xtick_29">
     <g id="line2d_35">
      <g>
       <use xlink:href="#m1f2e687f06" x="660.552407" y="375.84" style="stroke: #000000; stroke-width: 0.6"/>
      </g>
     </g>
    </g>
    <g id="xtick_30">
     <g id="line2d_36">
      <g>
       <use xlink:href="#m1f2e687f06" x="688.5859" y="375.84" style="stroke: #000000; stroke-width: 0.6"/>
      </g>
     </g>
    </g>
    <g id="text_7">
     <!-- Monat -->
     <g transform="translate(352.636719 404.116563) scale(0.1 -0.1)">
      <defs>
       <path id="DejaVuSans-6f" d="M 1959 3097 
Q 1497 3097 1228 2736 
Q 959 2375 959 1747 
Q 959 1119 1226 758 
Q 1494 397 1959 397 
Q 2419 397 2687 759 
Q 2956 1122 2956 1747 
Q 2956 2369 2687 2733 
Q 2419 3097 1959 3097 
z
M 1959 3584 
Q 2709 3584 3137 3096 
Q 3566 2609 3566 1747 
Q 3566 888 3137 398 
Q 2709 -91 1959 -91 
Q 1206 -91 779 398 
Q 353 888 353 1747 
Q 353 2609 779 3096 
Q 1206 3584 1959 3584 
z
" transform="scale(0.015625)"/>
       <path id="DejaVuSans-74" d="M 1172 4494 
L 1172 3500 
L 2356 3500 
L 2356 3053 
L 1172 3053 
L 1172 1153 
Q 1172 725 1289 603 
Q 1406 481 1766 481 
L 2356 481 
L 2356 0 
L 1766 0 
Q 1100 0 847 248 
Q 594 497 594 1153 
L 594 3053 
L 172 3053 
L 172 3500 
L 594 3500 
L 594 4494 
L 1172 4494 
z
" transform="scale(0.015625)"/>
      </defs>
      <use xlink:href="#DejaVuSans-4d"/>
      <use xlink:href="#DejaVuSans-6f" transform="translate(86.279297 0)"/>
      <use xlink:href="#DejaVuSans-6e" transform="translate(147.460938 0)"/>
      <use xlink:href="#DejaVuSans-61" transform="translate(210.839844 0)"/>
      <use xlink:href="#DejaVuSans-74" transform="translate(272.119141 0)"/>
     </g>
    </g>
    <g id="text_8">
     <!-- 2025 -->
     <g transform="translate(677.553125 403.116563) scale(0.1 -0.1)">
      <defs>
       <path id="DejaVuSans-32" d="M 1228 531 
L 3431 531 
L 3431 0 
L 469 0 
L 469 531 
Q 828 903 1448 1529 
Q 2069 2156 2228 2338 
Q 2531 2678 2651 2914 
Q 2772 3150 2772 3378 
Q 2772 3750 2511 3984 
Q 2250 4219 1831 4219 
Q 1534 4219 1204 4116 
Q 875 4013 500 3803 
L 500 4441 
Q 881 4594 1212 4672 
Q 1544 4750 1819 4750 
Q 2544 4750 2975 4387 
Q 3406 4025 3406 3419 
Q 3406 3131 3298 2873 
Q 3191 2616 2906 2266 
Q 2828 2175 2409 1742 
Q 1991 1309 1228 531 
z
" transform="scale(0.015625)"/>
       <path id="DejaVuSans-30" d="M 2034 4250 
Q 1547 4250 1301 3770 
Q 1056 3291 1056 2328 
Q 1056 1369 1301 889 
Q 1547 409 2034 409 
Q 2525 409 2770 889 
Q 3016 1369 3016 2328 
Q 3016 3291 2770 3770 
Q 2525 4250 2034 4250 
z
M 2034 4750 
Q 2819 4750 3233 4129 
Q 3647 3509 3647 2328 
Q 3647 1150 3233 529 
Q 2819 -91 2034 -91 
Q 1250 -91 836 529 
Q 422 1150 422 2328 
Q 422 3509 836 4129 
Q 1250 4750 2034 4750 
z
" transform="scale(0.015625)"/>
       <path id="DejaVuSans-35" d="M 691 4666 
L 3169 4666 
L 3169 4134 
L 1269 4134 
L 1269 2991 
Q 1406 3038 1543 3061 
Q 1681 3084 1819 3084 
Q 2600 3084 3056 2656 
Q 3513 2228 3513 1497 
Q 3513 744 3044 326 
Q 2575 -91 1722 -91 
Q 1428 -91 1123 -41 
Q 819 9 494 109 
L 494 744 
Q 775 591 1075 516 
Q 1375 441 1709 441 
Q 2250 441 2565 725 
Q 2881 1009 2881 1497 
Q 2881 1984 2565 2268 
Q 2250 2553 1709 2553 
Q 1456 2553 1204 2497 
Q 953 2441 691 2322 
L 691 4666 
z
" transform="scale(0.015625)"/>
      </defs>
      <use xlink:href="#DejaVuSans-32"/>
      <use xlink:href="#DejaVuSans-30" transform="translate(63.623047 0)"/>
      <use xlink:href="#DejaVuSans-32" transform="translate(127.246094 0)"/>
      <use xlink:href="#DejaVuSans-35" transform="translate(190.869141 0)"/>
     </g>
    </g>
   </g>
   <g id="matplotlib.axis_2">
    <g id="ytick_1">
     <g id="line2d_37">
      <path d="M 33.403125 346.367386 
L 703.003125 346.367386 
" clip-path="url(#pda6243095e)" style="fill: none; stroke: #b0b0b0; stroke-width: 0.8; stroke-linecap: square"/>
     </g>
     <g id="line2d_38">
      <defs>
       <path id="m2d03c616a1" d="M 0 0 
L -3.5 0 
" style="stroke: #000000; stroke-width: 0.8"/>
      </defs>
      <g>
       <use xlink:href="#m2d03c616a1" x="33.403125" y="346.367386" style="stroke: #000000; stroke-width: 0.8"/>
      </g>
     </g>
     <g id="text_9">
      <!-- 0 -->
      <g transform="translate(20.040625 350.166605) scale(0.1 -0.1)">
       <use xlink:href="#DejaVuSans-30"/>
      </g>
     </g>
    </g>
    <g id="ytick_2">
     <g id="line2d_39">
      <path d="M 33.403125 308.09375 
L 703.003125 308.09375 
" clip-path="url(#pda6243095e)" style="fill: none; stroke: #b0b0b0; stroke-width: 0.8; stroke-linecap: square"/>
     </g>
     <g id="line2d_40">
      <g>
       <use xlink:href="#m2d03c616a1" x="33.403125" y="308.09375" style="stroke: #000000; stroke-width: 0.8"/>
      </g>
     </g>
     <g id="text_10">
      <!-- 10 -->
      <g transform="translate(13.678125 311.892969) scale(0.1 -0.1)">
       <defs>
        <path id="DejaVuSans-31" d="M 794 531 
L 1825 531 
L 1825 4091 
L 703 3866 
L 703 4441 
L 1819 4666 
L 2450 4666 
L 2450 531 
L 3481 531 
L 3481 0 
L 794 0 
L 794 531 
z
" transform="scale(0.015625)"/>
       </defs>
       <use xlink:href="#DejaVuSans-31"/>
       <use xlink:href="#DejaVuSans-30" transform="translate(63.623047 0)"/>
      </g>
     </g>
    </g>
    <g id="ytick_3">
     <g id="line2d_41">
      <path d="M 33.403125 269.820114 
L 703.003125 269.820114 
" clip-path="url(#pda6243095e)" style="fill: none; stroke: #b0b0b0; stroke-width: 0.8; stroke-linecap: square"/>
     </g>
     <g id="line2d_42">
      <g>
       <use xlink:href="#m2d03c616a1" x="33.403125" y="269.820114" style="stroke: #000000; stroke-width: 0.8"/>
      </g>
     </g>
     <g id="text_11">
      <!-- 20 -->
      <g transform="translate(13.678125 273.619333) scale(0.1 -0.1)">
       <use xlink:href="#DejaVuSans-32"/>
       <use xlink:href="#DejaVuSans-30" transform="translate(63.623047 0)"/>
      </g>
     </g>
    </g>
    <g id="ytick_4">
     <g id="line2d_43">
      <path d="M 33.403125 231.546478 
L 703.003125 231.546478 
" clip-path="url(#pda6243095e)" style="fill: none; stroke: #b0b0b0; stroke-width: 0.8; stroke-linecap: square"/>
     </g>
     <g id="line2d_44">
      <g>
       <use xlink:href="#m2d03c616a1" x="33.403125" y="231.546478" style="stroke: #000000; stroke-width: 0.8"/>
      </g>
     </g>
     <g id="text_12">
      <!-- 30 -->
      <g transform="translate(13.678125 235.345696) scale(0.1 -0.1)">
       <defs>
        <path id="DejaVuSans-33" d="M 2597 2516 
Q 3050 2419 3304 2112 
Q 3559 1806 3559 1356 
Q 3559 666 3084 287 
Q 2609 -91 1734 -91 
Q 1441 -91 1130 -33 
Q 819 25 488 141 
L 488 750 
Q 750 597 1062 519 
Q 1375 441 1716 441 
Q 2309 441 2620 675 
Q 2931 909 2931 1356 
Q 2931 1769 2642 2001 
Q 2353 2234 1838 2234 
L 1294 2234 
L 1294 2753 
L 1863 2753 
Q 2328 2753 2575 2939 
Q 2822 3125 2822 3475 
Q 2822 3834 2567 4026 
Q 2313 4219 1838 4219 
Q 1578 4219 1281 4162 
Q 984 4106 628 3988 
L 628 4550 
Q 988 4650 1302 4700 
Q 1616 4750 1894 4750 
Q 2613 4750 3031 4423 
Q 3450 4097 3450 3541 
Q 3450 3153 3228 2886 
Q 3006 2619 2597 2516 
z
" transform="scale(0.015625)"/>
       </defs>
       <use xlink:href="#DejaVuSans-33"/>
       <use xlink:href="#DejaVuSans-30" transform="translate(63.623047 0)"/>
      </g>
     </g>
    </g>
    <g id="ytick_5">
     <g id="line2d_45">
      <path d="M 33.403125 193.272841 
L 703.003125 193.272841 
" clip-path="url(#pda6243095e)" style="fill: none; stroke: #b0b0b0; stroke-width: 0.8; stroke-linecap: square"/>
     </g>
     <g id="line2d_46">
      <g>
       <use xlink:href="#m2d03c616a1" x="33.403125" y="193.272841" style="stroke: #000000; stroke-width: 0.8"/>
      </g>
     </g>
     <g id="text_13">
      <!-- 40 -->
      <g transform="translate(13.678125 197.07206) scale(0.1 -0.1)">
       <defs>
        <path id="DejaVuSans-34" d="M 2419 4116 
L 825 1625 
L 2419 1625 
L 2419 4116 
z
M 2253 4666 
L 3047 4666 
L 3047 1625 
L 3713 1625 
L 3713 1100 
L 3047 1100 
L 3047 0 
L 2419 0 
L 2419 1100 
L 313 1100 
L 313 1709 
L 2253 4666 
z
" transform="scale(0.015625)"/>
       </defs>
       <use xlink:href="#DejaVuSans-34"/>
       <use xlink:href="#DejaVuSans-30" transform="translate(63.623047 0)"/>
      </g>
     </g>
    </g>
    <g id="ytick_6">
     <g id="line2d_47">
      <path d="M 33.403125 154.999205 
L 703.003125 154.999205 
" clip-path="url(#pda6243095e)" style="fill: none; stroke: #b0b0b0; stroke-width: 0.8; stroke-linecap: square"/>
     </g>
     <g id="line2d_48">
      <g>
       <use xlink:href="#m2d03c616a1" x="33.403125" y="154.999205" style="stroke: #000000; stroke-width: 0.8"/>
      </g>
     </g>
     <g id="text_14">
      <!-- 50 -->
      <g transform="translate(13.678125 158.798424) scale(0.1 -0.1)">
       <use xlink:href="#DejaVuSans-35"/>
       <use xlink:href="#DejaVuSans-30" transform="translate(63.623047 0)"/>
      </g>
     </g>
    </g>
    <g id="ytick_7">
     <g id="line2d_49">
      <path d="M 33.403125 116.725569 
L 703.003125 116.725569 
" clip-path="url(#pda6243095e)" style="fill: none; stroke: #b0b0b0; stroke-width: 0.8; stroke-linecap: square"/>
     </g>
     <g id="line2d_50">
      <g>
       <use xlink:href="#m2d03c616a1" x="33.403125" y="116.725569" style="stroke: #000000; stroke-width: 0.8"/>
      </g>
     </g>
     <g id="text_15">
      <!-- 60 -->
      <g transform="translate(13.678125 120.524788) scale(0.1 -0.1)">
       <defs>
        <path id="DejaVuSans-36" d="M 2113 2584 
Q 1688 2584 1439 2293 
Q 1191 2003 1191 1497 
Q 1191 994 1439 701 
Q 1688 409 2113 409 
Q 2538 409 2786 701 
Q 3034 994 3034 1497 
Q 3034 2003 2786 2293 
Q 2538 2584 2113 2584 
z
M 3366 4563 
L 3366 3988 
Q 3128 4100 2886 4159 
Q 2644 4219 2406 4219 
Q 1781 4219 1451 3797 
Q 1122 3375 1075 2522 
Q 1259 2794 1537 2939 
Q 1816 3084 2150 3084 
Q 2853 3084 3261 2657 
Q 3669 2231 3669 1497 
Q 3669 778 3244 343 
Q 2819 -91 2113 -91 
Q 1303 -91 875 529 
Q 447 1150 447 2328 
Q 447 3434 972 4092 
Q 1497 4750 2381 4750 
Q 2619 4750 2861 4703 
Q 3103 4656 3366 4563 
z
" transform="scale(0.015625)"/>
       </defs>
       <use xlink:href="#DejaVuSans-36"/>
       <use xlink:href="#DejaVuSans-30" transform="translate(63.623047 0)"/>
      </g>
     </g>
    </g>
    <g id="ytick_8">
     <g id="line2d_51">
      <path d="M 33.403125 78.451933 
L 703.003125 78.451933 
" clip-path="url(#pda6243095e)" style="fill: none; stroke: #b0b0b0; stroke-width: 0.8; stroke-linecap: square"/>
     </g>
     <g id="line2d_52">
      <g>
       <use xlink:href="#m2d03c616a1" x="33.403125" y="78.451933" style="stroke: #000000; stroke-width: 0.8"/>
      </g>
     </g>
     <g id="text_16">
      <!-- 70 -->
      <g transform="translate(13.678125 82.251151) scale(0.1 -0.1)">
       <defs>
        <path id="DejaVuSans-37" d="M 525 4666 
L 3525 4666 
L 3525 4397 
L 1831 0 
L 1172 0 
L 2766 4134 
L 525 4134 
L 525 4666 
z
" transform="scale(0.015625)"/>
       </defs>
       <use xlink:href="#DejaVuSans-37"/>
       <use xlink:href="#DejaVuSans-30" transform="translate(63.623047 0)"/>
      </g>
     </g>
    </g>
    <g id="ytick_9">
     <g id="line2d_53">
      <defs>
       <path id="m3407dffaf6" d="M 0 0 
L -2 0 
" style="stroke: #000000; stroke-width: 0.6"/>
      </defs>
      <g>
       <use xlink:href="#m3407dffaf6" x="33.403125" y="369.331568" style="stroke: #000000; stroke-width: 0.6"/>
      </g>
     </g>
    </g>
    <g id="ytick_10">
     <g id="line2d_54">
      <g>
       <use xlink:href="#m3407dffaf6" x="33.403125" y="361.676841" style="stroke: #000000; stroke-width: 0.6"/>
      </g>
     </g>
    </g>
    <g id="ytick_11">
     <g id="line2d_55">
      <g>
       <use xlink:href="#m3407dffaf6" x="33.403125" y="354.022114" style="stroke: #000000; stroke-width: 0.6"/>
      </g>
     </g>
    </g>
    <g id="ytick_12">
     <g id="line2d_56">
      <g>
       <use xlink:href="#m3407dffaf6" x="33.403125" y="338.712659" style="stroke: #000000; stroke-width: 0.6"/>
      </g>
     </g>
    </g>
    <g id="ytick_13">
     <g id="line2d_57">
      <g>
       <use xlink:href="#m3407dffaf6" x="33.403125" y="331.057932" style="stroke: #000000; stroke-width: 0.6"/>
      </g>
     </g>
    </g>
    <g id="ytick_14">
     <g id="line2d_58">
      <g>
       <use xlink:href="#m3407dffaf6" x="33.403125" y="323.403205" style="stroke: #000000; stroke-width: 0.6"/>
      </g>
     </g>
    </g>
    <g id="ytick_15">
     <g id="line2d_59">
      <g>
       <use xlink:href="#m3407dffaf6" x="33.403125" y="315.748477" style="stroke: #000000; stroke-width: 0.6"/>
      </g>
     </g>
    </g>
    <g id="ytick_16">
     <g id="line2d_60">
      <g>
       <use xlink:href="#m3407dffaf6" x="33.403125" y="300.439023" style="stroke: #000000; stroke-width: 0.6"/>
      </g>
     </g>
    </g>
    <g id="ytick_17">
     <g id="line2d_61">
      <g>
       <use xlink:href="#m3407dffaf6" x="33.403125" y="292.784296" style="stroke: #000000; stroke-width: 0.6"/>
      </g>
     </g>
    </g>
    <g id="ytick_18">
     <g id="line2d_62">
      <g>
       <use xlink:href="#m3407dffaf6" x="33.403125" y="285.129568" style="stroke: #000000; stroke-width: 0.6"/>
      </g>
     </g>
    </g>
    <g id="ytick_19">
     <g id="line2d_63">
      <g>
       <use xlink:href="#m3407dffaf6" x="33.403125" y="277.474841" style="stroke: #000000; stroke-width: 0.6"/>
      </g>
     </g>
    </g>
    <g id="ytick_20">
     <g id="line2d_64">
      <g>
       <use xlink:href="#m3407dffaf6" x="33.403125" y="262.165387" style="stroke: #000000; stroke-width: 0.6"/>
      </g>
     </g>
    </g>
    <g id="ytick_21">
     <g id="line2d_65">
      <g>
       <use xlink:href="#m3407dffaf6" x="33.403125" y="254.510659" style="stroke: #000000; stroke-width: 0.6"/>
      </g>
     </g>
    </g>
    <g id="ytick_22">
     <g id="line2d_66">
      <g>
       <use xlink:href="#m3407dffaf6" x="33.403125" y="246.855932" style="stroke: #000000; stroke-width: 0.6"/>
      </g>
     </g>
    </g>
    <g id="ytick_23">
     <g id="line2d_67">
      <g>
       <use xlink:href="#m3407dffaf6" x="33.403125" y="239.201205" style="stroke: #000000; stroke-width: 0.6"/>
      </g>
     </g>
    </g>
    <g id="ytick_24">
     <g id="line2d_68">
      <g>
       <use xlink:href="#m3407dffaf6" x="33.403125" y="223.89175" style="stroke: #000000; stroke-width: 0.6"/>
      </g>
     </g>
    </g>
    <g id="ytick_25">
     <g id="line2d_69">
      <g>
       <use xlink:href="#m3407dffaf6" x="33.403125" y="216.237023" style="stroke: #000000; stroke-width: 0.6"/>
      </g>
     </g>
    </g>
    <g id="ytick_26">
     <g id="line2d_70">
      <g>
       <use xlink:href="#m3407dffaf6" x="33.403125" y="208.582296" style="stroke: #000000; stroke-width: 0.6"/>
      </g>
     </g>
    </g>
    <g id="ytick_27">
     <g id="line2d_71">
      <g>
       <use xlink:href="#m3407dffaf6" x="33.403125" y="200.927569" style="stroke: #000000; stroke-width: 0.6"/>
      </g>
     </g>
    </g>
    <g id="ytick_28">
     <g id="line2d_72">
      <g>
       <use xlink:href="#m3407dffaf6" x="33.403125" y="185.618114" style="stroke: #000000; stroke-width: 0.6"/>
      </g>
     </g>
    </g>
    <g id="ytick_29">
     <g id="line2d_73">
      <g>
       <use xlink:href="#m3407dffaf6" x="33.403125" y="177.963387" style="stroke: #000000; stroke-width: 0.6"/>
      </g>
     </g>
    </g>
    <g id="ytick_30">
     <g id="line2d_74">
      <g>
       <use xlink:href="#m3407dffaf6" x="33.403125" y="170.30866" style="stroke: #000000; stroke-width: 0.6"/>
      </g>
     </g>
    </g>
    <g id="ytick_31">
     <g id="line2d_75">
      <g>
       <use xlink:href="#m3407dffaf6" x="33.403125" y="162.653932" style="stroke: #000000; stroke-width: 0.6"/>
      </g>
     </g>
    </g>
    <g id="ytick_32">
     <g id="line2d_76">
      <g>
       <use xlink:href="#m3407dffaf6" x="33.403125" y="147.344478" style="stroke: #000000; stroke-width: 0.6"/>
      </g>
     </g>
    </g>
    <g id="ytick_33">
     <g id="line2d_77">
      <g>
       <use xlink:href="#m3407dffaf6" x="33.403125" y="139.689751" style="stroke: #000000; stroke-width: 0.6"/>
      </g>
     </g>
    </g>
    <g id="ytick_34">
     <g id="line2d_78">
      <g>
       <use xlink:href="#m3407dffaf6" x="33.403125" y="132.035023" style="stroke: #000000; stroke-width: 0.6"/>
      </g>
     </g>
    </g>
    <g id="ytick_35">
     <g id="line2d_79">
      <g>
       <use xlink:href="#m3407dffaf6" x="33.403125" y="124.380296" style="stroke: #000000; stroke-width: 0.6"/>
      </g>
     </g>
    </g>
    <g id="ytick_36">
     <g id="line2d_80">
      <g>
       <use xlink:href="#m3407dffaf6" x="33.403125" y="109.070842" style="stroke: #000000; stroke-width: 0.6"/>
      </g>
     </g>
    </g>
    <g id="ytick_37">
     <g id="line2d_81">
      <g>
       <use xlink:href="#m3407dffaf6" x="33.403125" y="101.416114" style="stroke: #000000; stroke-width: 0.6"/>
      </g>
     </g>
    </g>
    <g id="ytick_38">
     <g id="line2d_82">
      <g>
       <use xlink:href="#m3407dffaf6" x="33.403125" y="93.761387" style="stroke: #000000; stroke-width: 0.6"/>
      </g>
     </g>
    </g>
    <g id="ytick_39">
     <g id="line2d_83">
      <g>
       <use xlink:href="#m3407dffaf6" x="33.403125" y="86.10666" style="stroke: #000000; stroke-width: 0.6"/>
      </g>
     </g>
    </g>
    <g id="ytick_40">
     <g id="line2d_84">
      <g>
       <use xlink:href="#m3407dffaf6" x="33.403125" y="70.797205" style="stroke: #000000; stroke-width: 0.6"/>
      </g>
     </g>
    </g>
    <g id="ytick_41">
     <g id="line2d_85">
      <g>
       <use xlink:href="#m3407dffaf6" x="33.403125" y="63.142478" style="stroke: #000000; stroke-width: 0.6"/>
      </g>
     </g>
    </g>
    <g id="ytick_42">
     <g id="line2d_86">
      <g>
       <use xlink:href="#m3407dffaf6" x="33.403125" y="55.487751" style="stroke: #000000; stroke-width: 0.6"/>
      </g>
     </g>
    </g>
    <g id="ytick_43">
     <g id="line2d_87">
      <g>
       <use xlink:href="#m3407dffaf6" x="33.403125" y="47.833024" style="stroke: #000000; stroke-width: 0.6"/>
      </g>
     </g>
    </g>
    <g id="text_17">
     <!-- Kumulierte korrigierte Gewichtänderung [kg] -->
     <g transform="translate(7.598438 321.717656) rotate(-90) scale(0.1 -0.1)">
      <defs>
       <path id="DejaVuSans-4b" d="M 628 4666 
L 1259 4666 
L 1259 2694 
L 3353 4666 
L 4166 4666 
L 1850 2491 
L 4331 0 
L 3500 0 
L 1259 2247 
L 1259 0 
L 628 0 
L 628 4666 
z
" transform="scale(0.015625)"/>
       <path id="DejaVuSans-6d" d="M 3328 2828 
Q 3544 3216 3844 3400 
Q 4144 3584 4550 3584 
Q 5097 3584 5394 3201 
Q 5691 2819 5691 2113 
L 5691 0 
L 5113 0 
L 5113 2094 
Q 5113 2597 4934 2840 
Q 4756 3084 4391 3084 
Q 3944 3084 3684 2787 
Q 3425 2491 3425 1978 
L 3425 0 
L 2847 0 
L 2847 2094 
Q 2847 2600 2669 2842 
Q 2491 3084 2119 3084 
Q 1678 3084 1418 2786 
Q 1159 2488 1159 1978 
L 1159 0 
L 581 0 
L 581 3500 
L 1159 3500 
L 1159 2956 
Q 1356 3278 1631 3431 
Q 1906 3584 2284 3584 
Q 2666 3584 2933 3390 
Q 3200 3197 3328 2828 
z
" transform="scale(0.015625)"/>
       <path id="DejaVuSans-65" d="M 3597 1894 
L 3597 1613 
L 953 1613 
Q 991 1019 1311 708 
Q 1631 397 2203 397 
Q 2534 397 2845 478 
Q 3156 559 3463 722 
L 3463 178 
Q 3153 47 2828 -22 
Q 2503 -91 2169 -91 
Q 1331 -91 842 396 
Q 353 884 353 1716 
Q 353 2575 817 3079 
Q 1281 3584 2069 3584 
Q 2775 3584 3186 3129 
Q 3597 2675 3597 1894 
z
M 3022 2063 
Q 3016 2534 2758 2815 
Q 2500 3097 2075 3097 
Q 1594 3097 1305 2825 
Q 1016 2553 972 2059 
L 3022 2063 
z
" transform="scale(0.015625)"/>
       <path id="DejaVuSans-20" transform="scale(0.015625)"/>
       <path id="DejaVuSans-6b" d="M 581 4863 
L 1159 4863 
L 1159 1991 
L 2875 3500 
L 3609 3500 
L 1753 1863 
L 3688 0 
L 2938 0 
L 1159 1709 
L 1159 0 
L 581 0 
L 581 4863 
z
" transform="scale(0.015625)"/>
       <path id="DejaVuSans-47" d="M 3809 666 
L 3809 1919 
L 2778 1919 
L 2778 2438 
L 4434 2438 
L 4434 434 
Q 4069 175 3628 42 
Q 3188 -91 2688 -91 
Q 1594 -91 976 548 
Q 359 1188 359 2328 
Q 359 3472 976 4111 
Q 1594 4750 2688 4750 
Q 3144 4750 3555 4637 
Q 3966 4525 4313 4306 
L 4313 3634 
Q 3963 3931 3569 4081 
Q 3175 4231 2741 4231 
Q 1884 4231 1454 3753 
Q 1025 3275 1025 2328 
Q 1025 1384 1454 906 
Q 1884 428 2741 428 
Q 3075 428 3337 486 
Q 3600 544 3809 666 
z
" transform="scale(0.015625)"/>
       <path id="DejaVuSans-77" d="M 269 3500 
L 844 3500 
L 1563 769 
L 2278 3500 
L 2956 3500 
L 3675 769 
L 4391 3500 
L 4966 3500 
L 4050 0 
L 3372 0 
L 2619 2869 
L 1863 0 
L 1184 0 
L 269 3500 
z
" transform="scale(0.015625)"/>
       <path id="DejaVuSans-63" d="M 3122 3366 
L 3122 2828 
Q 2878 2963 2633 3030 
Q 2388 3097 2138 3097 
Q 1578 3097 1268 2742 
Q 959 2388 959 1747 
Q 959 1106 1268 751 
Q 1578 397 2138 397 
Q 2388 397 2633 464 
Q 2878 531 3122 666 
L 3122 134 
Q 2881 22 2623 -34 
Q 2366 -91 2075 -91 
Q 1284 -91 818 406 
Q 353 903 353 1747 
Q 353 2603 823 3093 
Q 1294 3584 2113 3584 
Q 2378 3584 2631 3529 
Q 2884 3475 3122 3366 
z
" transform="scale(0.015625)"/>
       <path id="DejaVuSans-68" d="M 3513 2113 
L 3513 0 
L 2938 0 
L 2938 2094 
Q 2938 2591 2744 2837 
Q 2550 3084 2163 3084 
Q 1697 3084 1428 2787 
Q 1159 2491 1159 1978 
L 1159 0 
L 581 0 
L 581 4863 
L 1159 4863 
L 1159 2956 
Q 1366 3272 1645 3428 
Q 1925 3584 2291 3584 
Q 2894 3584 3203 3211 
Q 3513 2838 3513 2113 
z
" transform="scale(0.015625)"/>
       <path id="DejaVuSans-64" d="M 2906 2969 
L 2906 4863 
L 3481 4863 
L 3481 0 
L 2906 0 
L 2906 525 
Q 2725 213 2448 61 
Q 2172 -91 1784 -91 
Q 1150 -91 751 415 
Q 353 922 353 1747 
Q 353 2572 751 3078 
Q 1150 3584 1784 3584 
Q 2172 3584 2448 3432 
Q 2725 3281 2906 2969 
z
M 947 1747 
Q 947 1113 1208 752 
Q 1469 391 1925 391 
Q 2381 391 2643 752 
Q 2906 1113 2906 1747 
Q 2906 2381 2643 2742 
Q 2381 3103 1925 3103 
Q 1469 3103 1208 2742 
Q 947 2381 947 1747 
z
" transform="scale(0.015625)"/>
       <path id="DejaVuSans-5b" d="M 550 4863 
L 1875 4863 
L 1875 4416 
L 1125 4416 
L 1125 -397 
L 1875 -397 
L 1875 -844 
L 550 -844 
L 550 4863 
z
" transform="scale(0.015625)"/>
       <path id="DejaVuSans-5d" d="M 1947 4863 
L 1947 -844 
L 622 -844 
L 622 -397 
L 1369 -397 
L 1369 4416 
L 622 4416 
L 622 4863 
L 1947 4863 
z
" transform="scale(0.015625)"/>
      </defs>
      <use xlink:href="#DejaVuSans-4b"/>
      <use xlink:href="#DejaVuSans-75" transform="translate(60.576172 0)"/>
      <use xlink:href="#DejaVuSans-6d" transform="translate(123.955078 0)"/>
      <use xlink:href="#DejaVuSans-75" transform="translate(221.367188 0)"/>
      <use xlink:href="#DejaVuSans-6c" transform="translate(284.746094 0)"/>
      <use xlink:href="#DejaVuSans-69" transform="translate(312.529297 0)"/>
      <use xlink:href="#DejaVuSans-65" transform="translate(340.3125 0)"/>
      <use xlink:href="#DejaVuSans-72" transform="translate(401.835938 0)"/>
      <use xlink:href="#DejaVuSans-74" transform="translate(442.949219 0)"/>
      <use xlink:href="#DejaVuSans-65" transform="translate(482.158203 0)"/>
      <use xlink:href="#DejaVuSans-20" transform="translate(543.681641 0)"/>
      <use xlink:href="#DejaVuSans-6b" transform="translate(575.46875 0)"/>
      <use xlink:href="#DejaVuSans-6f" transform="translate(629.753906 0)"/>
      <use xlink:href="#DejaVuSans-72" transform="translate(690.935547 0)"/>
      <use xlink:href="#DejaVuSans-72" transform="translate(730.298828 0)"/>
      <use xlink:href="#DejaVuSans-69" transform="translate(771.412109 0)"/>
      <use xlink:href="#DejaVuSans-67" transform="translate(799.195312 0)"/>
      <use xlink:href="#DejaVuSans-69" transform="translate(862.671875 0)"/>
      <use xlink:href="#DejaVuSans-65" transform="translate(890.455078 0)"/>
      <use xlink:href="#DejaVuSans-72" transform="translate(951.978516 0)"/>
      <use xlink:href="#DejaVuSans-74" transform="translate(993.091797 0)"/>
      <use xlink:href="#DejaVuSans-65" transform="translate(1032.300781 0)"/>
      <use xlink:href="#DejaVuSans-20" transform="translate(1093.824219 0)"/>
      <use xlink:href="#DejaVuSans-47" transform="translate(1125.611328 0)"/>
      <use xlink:href="#DejaVuSans-65" transform="translate(1203.101562 0)"/>
      <use xlink:href="#DejaVuSans-77" transform="translate(1264.625 0)"/>
      <use xlink:href="#DejaVuSans-69" transform="translate(1346.412109 0)"/>
      <use xlink:href="#DejaVuSans-63" transform="translate(1374.195312 0)"/>
      <use xlink:href="#DejaVuSans-68" transform="translate(1429.175781 0)"/>
      <use xlink:href="#DejaVuSans-74" transform="translate(1492.554688 0)"/>
      <use xlink:href="#DejaVuSans-e4" transform="translate(1531.763672 0)"/>
      <use xlink:href="#DejaVuSans-6e" transform="translate(1593.042969 0)"/>
      <use xlink:href="#DejaVuSans-64" transform="translate(1656.421875 0)"/>
      <use xlink:href="#DejaVuSans-65" transform="translate(1719.898438 0)"/>
      <use xlink:href="#DejaVuSans-72" transform="translate(1781.421875 0)"/>
      <use xlink:href="#DejaVuSans-75" transform="translate(1822.535156 0)"/>
      <use xlink:href="#DejaVuSans-6e" transform="translate(1885.914062 0)"/>
      <use xlink:href="#DejaVuSans-67" transform="translate(1949.292969 0)"/>
      <use xlink:href="#DejaVuSans-20" transform="translate(2012.769531 0)"/>
      <use xlink:href="#DejaVuSans-5b" transform="translate(2044.556641 0)"/>
      <use xlink:href="#DejaVuSans-6b" transform="translate(2083.570312 0)"/>
      <use xlink:href="#DejaVuSans-67" transform="translate(2141.480469 0)"/>
      <use xlink:href="#DejaVuSans-5d" transform="translate(2204.957031 0)"/>
     </g>
    </g>
   </g>
   <g id="line2d_88">
    <path d="M 63.839489 358.002572 
L 67.844273 358.347035 
L 75.853843 358.768045 
L 79.858627 359.150781 
L 87.868197 359.303875 
L 91.872981 359.724885 
L 95.877766 359.724885 
L 103.887336 360.184169 
L 107.89212 360.184169 
L 111.896905 360.337264 
L 115.90169 360.069348 
L 119.906474 360.145895 
L 123.911259 360.337264 
L 127.916044 360.107622 
L 135.925613 360.528632 
L 139.930398 359.801433 
L 143.935182 360.184169 
L 151.944752 360.413811 
L 159.954321 360.490358 
L 171.968675 360.145895 
L 175.97346 360.375537 
L 179.978245 360.452085 
L 183.983029 359.265602 
L 187.987814 359.380423 
L 191.992599 360.605179 
L 195.997383 360.72 
L 200.002168 359.533517 
L 204.006953 359.801433 
L 208.011737 360.452085 
L 212.016522 359.839706 
L 216.021307 360.222443 
L 220.026092 359.303875 
L 224.030876 359.992801 
L 228.035661 360.337264 
L 232.040446 359.227328 
L 236.04523 357.505015 
L 240.050015 356.777815 
L 244.0548 357.045731 
L 248.059584 356.624721 
L 252.064369 354.940681 
L 256.069154 352.988725 
L 264.078723 350.347845 
L 268.083508 349.391004 
L 272.088292 348.778625 
L 280.097862 345.295725 
L 284.102647 344.568526 
L 288.107431 345.180904 
L 296.117001 341.965918 
L 300.121785 341.851097 
L 304.12657 341.315266 
L 308.131355 340.013963 
L 312.136139 337.602724 
L 320.145709 333.316076 
L 324.150493 331.325847 
L 328.155278 329.603534 
L 332.160063 328.493598 
L 336.164847 327.728126 
L 340.169632 325.814444 
L 344.174417 324.551414 
L 348.179202 323.135289 
L 352.183986 323.67112 
L 356.188771 323.403205 
L 360.193556 322.178448 
L 364.19834 319.193105 
L 368.203125 316.552224 
L 372.20791 313.681701 
L 376.212694 312.074208 
L 380.217479 311.768019 
L 384.222264 312.035935 
L 388.227048 312.610039 
L 392.231833 313.337238 
L 396.236618 313.107597 
L 400.241403 313.949617 
L 404.246187 316.016393 
L 408.250972 316.360856 
L 412.255757 316.590497 
L 416.260541 317.126328 
L 420.265326 317.35597 
L 424.270111 318.083169 
L 428.274895 316.360856 
L 432.27968 316.590497 
L 436.284465 315.978119 
L 444.294034 305.720785 
L 448.298819 303.845377 
L 452.303603 303.88365 
L 456.308388 299.022898 
L 460.313173 301.702053 
L 464.317958 301.051401 
L 468.322742 293.626316 
L 472.327527 286.660514 
L 476.332312 283.636897 
L 480.337096 282.83315 
L 484.341881 279.120608 
L 488.346666 273.877119 
L 492.35145 272.154806 
L 496.356235 267.753338 
L 500.36102 262.701218 
L 504.365804 265.418646 
L 508.370589 266.643402 
L 512.375374 266.83477 
L 516.380158 265.99275 
L 520.384943 263.964248 
L 524.389728 264.002521 
L 532.399297 263.811153 
L 536.404082 263.160501 
L 540.408867 265.342098 
L 544.413651 265.342098 
L 548.418436 265.877929 
L 552.423221 266.987865 
L 556.428005 268.403989 
L 560.43279 269.016368 
L 564.437575 270.279398 
L 568.442359 271.04487 
L 572.447144 271.963438 
L 576.451929 272.575816 
L 580.456714 273.877119 
L 584.461498 274.489498 
L 588.466283 274.872234 
L 592.471068 275.484612 
L 596.475852 276.862463 
L 600.480637 278.431682 
L 604.485422 279.311976 
L 612.494991 281.378752 
L 616.499776 281.876309 
L 620.50456 282.029404 
L 624.509345 281.761488 
L 628.51413 281.378752 
L 632.518914 280.804648 
L 636.523699 281.417026 
L 640.528484 282.220772 
L 644.533269 282.144225 
L 648.538053 281.799762 
L 652.542838 282.718329 
L 656.547623 284.249275 
L 660.552407 285.129568 
L 668.561977 285.818494 
L 672.566761 285.129568 
L 672.566761 285.129568 
" clip-path="url(#pda6243095e)" style="fill: none; stroke: #bcbd22; stroke-width: 1.5; stroke-linecap: square"/>
   </g>
   <g id="line2d_89">
    <path d="M 63.839489 349.123088 
L 75.853843 349.391004 
L 83.863412 349.008267 
L 87.868197 347.094585 
L 91.872981 342.922759 
L 95.877766 343.267222 
L 99.882551 342.999306 
L 107.89212 344.147516 
L 111.896905 344.070968 
L 115.90169 343.803053 
L 119.906474 344.224063 
L 123.911259 345.14263 
L 127.916044 344.606799 
L 131.920828 343.688232 
L 135.925613 343.114127 
L 139.930398 344.185789 
L 143.935182 343.764779 
L 147.939967 343.611685 
L 151.944752 342.654844 
L 155.949536 342.578296 
L 159.954321 342.080739 
L 163.959106 342.386928 
L 167.963891 342.310381 
L 171.968675 342.654844 
L 175.97346 342.310381 
L 179.978245 342.080739 
L 183.983029 342.157286 
L 187.987814 341.468361 
L 191.992599 342.310381 
L 195.997383 343.267222 
L 200.002168 343.764779 
L 204.006953 343.45859 
L 208.011737 343.03758 
L 212.016522 343.152401 
L 216.021307 344.185789 
L 220.026092 342.348655 
L 224.030876 340.741162 
L 228.035661 341.047351 
L 232.040446 340.894256 
L 236.04523 339.822595 
L 240.050015 335.842136 
L 244.0548 337.908913 
L 248.059584 333.583992 
L 252.064369 331.364121 
L 256.069154 329.412166 
L 260.073938 326.158906 
L 264.078723 326.120633 
L 268.083508 317.279423 
L 272.088292 310.696357 
L 276.093077 307.328277 
L 280.097862 310.658084 
L 284.102647 312.227303 
L 288.107431 312.954502 
L 292.112216 305.605964 
L 296.117001 299.061172 
L 300.121785 297.262311 
L 304.12657 282.488688 
L 308.131355 271.351059 
L 312.136139 269.896661 
L 316.140924 258.491118 
L 320.145709 238.550553 
L 324.150493 230.283448 
L 328.155278 231.776119 
L 332.160063 228.063577 
L 336.164847 218.571715 
L 340.169632 216.007381 
L 344.174417 218.188979 
L 348.179202 216.696307 
L 352.183986 217.653148 
L 356.188771 213.749237 
L 360.193556 207.35754 
L 364.19834 204.372196 
L 368.203125 207.548908 
L 372.20791 207.089624 
L 376.212694 203.98946 
L 380.217479 199.35835 
L 384.222264 197.750857 
L 388.227048 192.737011 
L 392.231833 195.224797 
L 396.236618 197.521215 
L 400.241403 198.324961 
L 404.246187 198.93734 
L 408.250972 199.35835 
L 412.255757 198.171867 
L 416.260541 195.760628 
L 420.265326 195.607533 
L 424.270111 195.68408 
L 428.274895 194.765513 
L 432.27968 195.339618 
L 436.284465 196.181638 
L 440.289249 197.291573 
L 444.294034 198.09532 
L 452.303603 198.363235 
L 456.308388 199.205255 
L 460.313173 197.750857 
L 464.317958 195.109976 
L 468.322742 191.512254 
L 472.327527 188.373816 
L 476.332312 186.919418 
L 480.337096 181.637656 
L 484.341881 176.853451 
L 492.35145 162.271196 
L 496.356235 154.386827 
L 500.36102 144.091219 
L 504.365804 135.173462 
L 508.370589 123.538276 
L 512.375374 115.424265 
L 516.380158 109.032568 
L 520.384943 108.114001 
L 524.389728 101.607483 
L 528.394513 91.043959 
L 532.399297 88.441352 
L 536.404082 85.188093 
L 540.408867 75.198674 
L 544.413651 64.558603 
L 548.418436 65.974727 
L 552.423221 58.434821 
L 556.428005 60.616418 
L 560.43279 61.573259 
L 564.437575 60.310229 
L 568.442359 58.32 
L 572.447144 61.994269 
L 580.456714 62.989384 
L 584.461498 63.37212 
L 588.466283 66.31919 
L 596.475852 67.850135 
L 600.480637 68.84525 
L 604.485422 70.261375 
L 608.490206 70.682385 
L 612.494991 71.486131 
L 616.499776 71.37131 
L 620.50456 72.749161 
L 624.509345 73.093624 
L 632.518914 73.514634 
L 636.523699 74.394927 
L 640.528484 73.323265 
L 644.533269 72.672614 
L 648.538053 74.127012 
L 652.542838 75.313494 
L 656.547623 72.787435 
L 660.552407 73.591181 
L 664.557192 74.586295 
L 668.561977 76.959261 
L 672.566761 79.179132 
L 672.566761 79.179132 
" clip-path="url(#pda6243095e)" style="fill: none; stroke: #d62728; stroke-width: 1.5; stroke-linecap: square"/>
   </g>
   <g id="line2d_90">
    <path d="M 63.839489 359.303875 
L 67.844273 358.844592 
L 71.849058 356.241985 
L 75.853843 356.548174 
L 79.858627 356.165437 
L 83.863412 356.433353 
L 87.868197 357.045731 
L 91.872981 356.777815 
L 99.882551 354.519671 
L 103.887336 354.060387 
L 107.89212 354.519671 
L 111.896905 353.869019 
L 115.90169 352.031885 
L 119.906474 351.03677 
L 123.911259 351.45778 
L 127.916044 350.61576 
L 131.920828 349.658919 
L 135.925613 348.395889 
L 139.930398 345.640187 
L 143.935182 346.290839 
L 147.939967 345.027809 
L 151.944752 347.783511 
L 155.949536 348.778625 
L 159.954321 348.357615 
L 163.959106 346.711849 
L 167.963891 348.395889 
L 171.968675 349.314456 
L 175.97346 345.793282 
L 179.978245 342.846212 
L 183.983029 336.454515 
L 187.987814 338.062007 
L 191.992599 339.899142 
L 195.997383 337.870639 
L 200.002168 338.215102 
L 204.006953 330.790016 
L 208.011737 316.437403 
L 212.016522 306.754173 
L 216.021307 295.348629 
L 220.026092 298.257426 
L 228.035661 287.846997 
L 232.040446 270.62386 
L 236.04523 251.142579 
L 240.050015 246.588017 
L 244.0548 251.2574 
L 252.064369 254.395839 
L 256.069154 257.610824 
L 260.073938 258.797307 
L 264.078723 259.601053 
L 268.083508 261.553008 
L 272.088292 263.198775 
L 276.093077 264.653173 
L 280.097862 266.566855 
L 284.102647 268.0978 
L 288.107431 269.246009 
L 292.112216 265.648288 
L 296.117001 264.002521 
L 300.121785 257.15154 
L 304.12657 245.439808 
L 308.131355 234.493548 
L 312.136139 232.158856 
L 316.140924 238.244364 
L 324.150493 243.602673 
L 328.155278 240.425961 
L 332.160063 244.750882 
L 336.164847 244.636061 
L 340.169632 241.421076 
L 344.174417 236.368956 
L 348.179202 232.388498 
L 352.183986 225.614064 
L 356.188771 223.279372 
L 360.193556 220.715039 
L 364.19834 219.949566 
L 368.203125 220.217481 
L 372.20791 221.67188 
L 376.212694 222.5139 
L 380.217479 222.666994 
L 384.222264 224.351034 
L 388.227048 223.011457 
L 392.231833 225.881979 
L 396.236618 225.231328 
L 400.241403 225.805432 
L 404.246187 225.9968 
L 408.250972 223.279372 
L 412.255757 225.9968 
L 416.260541 227.719114 
L 420.265326 229.938985 
L 424.270111 229.900711 
L 428.274895 225.231328 
L 432.27968 222.360805 
L 436.284465 220.600218 
L 440.289249 219.490282 
L 444.294034 209.807052 
L 448.298819 211.070082 
L 452.303603 207.280992 
L 456.308388 201.15721 
L 460.313173 197.521215 
L 464.317958 194.114861 
L 468.322742 193.617304 
L 472.327527 190.440592 
L 476.332312 185.04401 
L 480.337096 178.078208 
L 484.341881 166.022012 
L 488.346666 165.868918 
L 492.35145 157.180802 
L 496.356235 152.702787 
L 500.36102 149.67917 
L 504.365804 147.727214 
L 508.370589 141.526885 
L 512.375374 144.129492 
L 516.380158 144.818418 
L 520.384943 142.254084 
L 524.389728 137.814342 
L 528.394513 131.958476 
L 532.399297 124.686485 
L 536.404082 120.093649 
L 540.408867 121.356679 
L 544.413651 118.179967 
L 548.418436 118.026873 
L 552.423221 121.165311 
L 556.428005 119.596092 
L 560.43279 119.404723 
L 564.437575 122.581435 
L 568.442359 123.040719 
L 572.447144 124.380296 
L 580.456714 127.442187 
L 584.461498 126.408799 
L 588.466283 128.705217 
L 592.471068 129.8917 
L 596.475852 129.547237 
L 600.480637 132.41776 
L 604.485422 133.527695 
L 608.490206 132.915317 
L 612.494991 135.020367 
L 616.499776 136.053755 
L 624.509345 137.393332 
L 628.51413 136.513039 
L 632.518914 137.201964 
L 636.523699 138.082258 
L 640.528484 137.546427 
L 644.533269 138.464994 
L 648.538053 141.909622 
L 652.542838 144.244313 
L 656.547623 146.119722 
L 660.552407 148.951971 
L 664.557192 149.908812 
L 668.561977 150.597737 
L 672.566761 150.674284 
L 672.566761 150.674284 
" clip-path="url(#pda6243095e)" style="fill: none; stroke: #2ca02c; stroke-width: 1.5; stroke-linecap: square"/>
   </g>
   <g id="line2d_91">
    <path d="M 63.839489 351.993611 
L 67.844273 351.955337 
L 71.849058 352.338074 
L 75.853843 352.491168 
L 79.858627 352.72081 
L 83.863412 353.218367 
L 87.868197 353.677651 
L 91.872981 357.237099 
L 95.877766 357.505015 
L 99.882551 357.619835 
L 103.887336 358.079119 
L 107.89212 357.887751 
L 111.896905 358.117393 
L 115.90169 358.308761 
L 119.906474 358.461855 
L 123.911259 358.806318 
L 127.916044 359.150781 
L 131.920828 359.45697 
L 135.925613 359.418696 
L 139.930398 359.03596 
L 143.935182 358.347035 
L 147.939967 357.849477 
L 151.944752 357.466741 
L 155.949536 356.662995 
L 159.954321 356.739542 
L 163.959106 356.969184 
M 171.968675 356.280258 
L 175.97346 355.974069 
L 179.978245 356.433353 
L 183.983029 355.476512 
L 187.987814 355.361691 
L 191.992599 353.830745 
L 195.997383 349.467551 
L 200.002168 344.645073 
L 204.006953 342.769665 
L 208.011737 342.578296 
L 212.016522 339.899142 
L 216.021307 334.005002 
L 220.026092 330.139365 
L 224.030876 327.230568 
L 228.035661 319.269652 
L 232.040446 309.892611 
L 236.04523 310.734631 
L 240.050015 302.19961 
L 244.0548 294.468336 
L 248.059584 296.420291 
L 252.064369 297.98951 
L 256.069154 299.635277 
L 260.073938 291.827455 
L 264.078723 282.067678 
L 268.083508 282.259046 
L 272.088292 275.369791 
L 276.093077 275.369791 
L 280.097862 276.211811 
L 284.102647 277.704483 
L 288.107431 265.380372 
L 292.112216 256.156426 
L 296.117001 247.200395 
L 300.121785 237.670259 
L 304.12657 227.948756 
L 308.131355 220.370576 
L 312.136139 216.390118 
L 316.140924 217.15559 
L 320.145709 219.375461 
L 324.150493 220.868133 
L 328.155278 219.030999 
L 332.160063 214.323341 
L 336.164847 208.505749 
L 340.169632 198.133593 
L 344.174417 184.776094 
L 348.179202 169.313545 
L 352.183986 160.855072 
L 356.188771 155.764678 
L 360.193556 152.62624 
L 364.19834 151.210115 
L 368.203125 149.985359 
L 372.20791 148.41614 
L 376.212694 147.688941 
L 380.217479 145.277702 
L 384.222264 144.091219 
L 388.227048 144.933239 
M 396.236618 145.851806 
L 400.241403 146.119722 
L 404.246187 147.421025 
L 408.250972 148.722329 
L 412.255757 147.918582 
L 416.260541 149.449528 
L 420.265326 150.023632 
L 424.270111 142.177537 
L 428.274895 135.36483 
L 432.27968 135.862387 
L 436.284465 133.374601 
L 440.289249 126.561893 
L 444.294034 119.672639 
L 448.298819 111.903091 
L 452.303603 104.018722 
L 456.308388 101.68403 
L 460.313173 104.860742 
L 464.317958 95.598522 
L 468.322742 87.216595 
L 472.327527 77.648186 
L 476.332312 79.714963 
" clip-path="url(#pda6243095e)" style="fill: none; stroke: #1f77b4; stroke-width: 1.5; stroke-linecap: square"/>
   </g>
   <g id="line2d_92">
    <path d="M 484.341881 375.84 
L 484.341881 43.2 
" clip-path="url(#pda6243095e)" style="fill: none; stroke-dasharray: 1.5,2.475; stroke-dashoffset: 0; stroke: #1f77b4; stroke-width: 1.5"/>
   </g>
   <g id="patch_3">
    <path d="M 33.403125 375.84 
L 33.403125 43.2 
" style="fill: none; stroke: #000000; stroke-width: 0.8; stroke-linejoin: miter; stroke-linecap: square"/>
   </g>
   <g id="patch_4">
    <path d="M 703.003125 375.84 
L 703.003125 43.2 
" style="fill: none; stroke: #000000; stroke-width: 0.8; stroke-linejoin: miter; stroke-linecap: square"/>
   </g>
   <g id="patch_5">
    <path d="M 33.403125 375.84 
L 703.003125 375.84 
" style="fill: none; stroke: #000000; stroke-width: 0.8; stroke-linejoin: miter; stroke-linecap: square"/>
   </g>
   <g id="patch_6">
    <path d="M 33.403125 43.2 
L 703.003125 43.2 
" style="fill: none; stroke: #000000; stroke-width: 0.8; stroke-linejoin: miter; stroke-linecap: square"/>
   </g>
   <g id="patch_7">
    <path d="M 179.426054 327.577341 
Q 187.263653 343.25254 194.601253 357.927739 
" style="fill: none; stroke: #000000; stroke-linecap: round"/>
    <path d="M 194.601253 353.902817 
L 194.601253 357.927739 
L 191.381315 355.512786 
" style="fill: none; stroke: #000000; stroke-linecap: round"/>
   </g>
   <g id="patch_8">
    <path d="M 520.17641 260.170516 
Q 511.262871 261.308899 503.458358 262.305644 
" style="fill: none; stroke: #000000; stroke-linecap: round"/>
    <path d="M 507.257385 263.635076 
L 503.458358 262.305644 
L 506.80132 260.064081 
" style="fill: none; stroke: #000000; stroke-linecap: round"/>
   </g>
   <g id="text_18">
    <g id="patch_9">
     <path d="M 522.66102 263.272936 
L 579.591645 263.272936 
L 579.591645 249.162624 
L 522.66102 249.162624 
z
" style="fill: #ffffff; stroke: #000000; stroke-linejoin: miter"/>
    </g>
    <!-- 18.06.2022 -->
    <g transform="translate(525.36102 258.701218) scale(0.09 -0.09)">
     <defs>
      <path id="DejaVuSans-38" d="M 2034 2216 
Q 1584 2216 1326 1975 
Q 1069 1734 1069 1313 
Q 1069 891 1326 650 
Q 1584 409 2034 409 
Q 2484 409 2743 651 
Q 3003 894 3003 1313 
Q 3003 1734 2745 1975 
Q 2488 2216 2034 2216 
z
M 1403 2484 
Q 997 2584 770 2862 
Q 544 3141 544 3541 
Q 544 4100 942 4425 
Q 1341 4750 2034 4750 
Q 2731 4750 3128 4425 
Q 3525 4100 3525 3541 
Q 3525 3141 3298 2862 
Q 3072 2584 2669 2484 
Q 3125 2378 3379 2068 
Q 3634 1759 3634 1313 
Q 3634 634 3220 271 
Q 2806 -91 2034 -91 
Q 1263 -91 848 271 
Q 434 634 434 1313 
Q 434 1759 690 2068 
Q 947 2378 1403 2484 
z
M 1172 3481 
Q 1172 3119 1398 2916 
Q 1625 2713 2034 2713 
Q 2441 2713 2670 2916 
Q 2900 3119 2900 3481 
Q 2900 3844 2670 4047 
Q 2441 4250 2034 4250 
Q 1625 4250 1398 4047 
Q 1172 3844 1172 3481 
z
" transform="scale(0.015625)"/>
      <path id="DejaVuSans-2e" d="M 684 794 
L 1344 794 
L 1344 0 
L 684 0 
L 684 794 
z
" transform="scale(0.015625)"/>
     </defs>
     <use xlink:href="#DejaVuSans-31"/>
     <use xlink:href="#DejaVuSans-38" transform="translate(63.623047 0)"/>
     <use xlink:href="#DejaVuSans-2e" transform="translate(127.246094 0)"/>
     <use xlink:href="#DejaVuSans-30" transform="translate(159.033203 0)"/>
     <use xlink:href="#DejaVuSans-36" transform="translate(222.65625 0)"/>
     <use xlink:href="#DejaVuSans-2e" transform="translate(286.279297 0)"/>
     <use xlink:href="#DejaVuSans-32" transform="translate(318.066406 0)"/>
     <use xlink:href="#DejaVuSans-30" transform="translate(381.689453 0)"/>
     <use xlink:href="#DejaVuSans-32" transform="translate(445.3125 0)"/>
     <use xlink:href="#DejaVuSans-32" transform="translate(508.935547 0)"/>
    </g>
   </g>
   <g id="patch_10">
    <path d="M 55.277728 316.286618 
Q 63.115328 331.961817 70.452928 346.637017 
" style="fill: none; stroke: #000000; stroke-linecap: round"/>
    <path d="M 70.452928 342.612094 
L 70.452928 346.637017 
L 67.23299 344.222063 
" style="fill: none; stroke: #000000; stroke-linecap: round"/>
   </g>
   <g id="patch_11">
    <path d="M 588.25775 55.789299 
Q 579.344211 56.927682 571.539697 57.924427 
" style="fill: none; stroke: #000000; stroke-linecap: round"/>
    <path d="M 575.338725 59.253858 
L 571.539697 57.924427 
L 574.882659 55.682864 
" style="fill: none; stroke: #000000; stroke-linecap: round"/>
   </g>
   <g id="text_19">
    <g id="patch_12">
     <path d="M 590.742359 58.891719 
L 647.672984 58.891719 
L 647.672984 44.781406 
L 590.742359 44.781406 
z
" style="fill: #ffffff; stroke: #000000; stroke-linejoin: miter"/>
    </g>
    <!-- 05.07.2023 -->
    <g transform="translate(593.442359 54.32) scale(0.09 -0.09)">
     <use xlink:href="#DejaVuSans-30"/>
     <use xlink:href="#DejaVuSans-35" transform="translate(63.623047 0)"/>
     <use xlink:href="#DejaVuSans-2e" transform="translate(127.246094 0)"/>
     <use xlink:href="#DejaVuSans-30" transform="translate(159.033203 0)"/>
     <use xlink:href="#DejaVuSans-37" transform="translate(222.65625 0)"/>
     <use xlink:href="#DejaVuSans-2e" transform="translate(286.279297 0)"/>
     <use xlink:href="#DejaVuSans-32" transform="translate(318.066406 0)"/>
     <use xlink:href="#DejaVuSans-30" transform="translate(381.689453 0)"/>
     <use xlink:href="#DejaVuSans-32" transform="translate(445.3125 0)"/>
     <use xlink:href="#DejaVuSans-33" transform="translate(508.935547 0)"/>
    </g>
   </g>
   <g id="patch_13">
    <path d="M 47.268159 326.161216 
Q 55.105759 341.836416 62.443358 356.511615 
" style="fill: none; stroke: #000000; stroke-linecap: round"/>
    <path d="M 62.443358 352.486693 
L 62.443358 356.511615 
L 59.22342 354.096662 
" style="fill: none; stroke: #000000; stroke-linecap: round"/>
   </g>
   <g id="patch_14">
    <path d="M 568.233827 115.496171 
Q 559.320287 116.634554 551.515774 117.631299 
" style="fill: none; stroke: #000000; stroke-linecap: round"/>
    <path d="M 555.314802 118.960731 
L 551.515774 117.631299 
L 554.858736 115.389736 
" style="fill: none; stroke: #000000; stroke-linecap: round"/>
   </g>
   <g id="text_20">
    <g id="patch_15">
     <path d="M 570.718436 118.598591 
L 627.649061 118.598591 
L 627.649061 104.488279 
L 570.718436 104.488279 
z
" style="fill: #ffffff; stroke: #000000; stroke-linejoin: miter"/>
    </g>
    <!-- 30.06.2024 -->
    <g transform="translate(573.418436 114.026873) scale(0.09 -0.09)">
     <use xlink:href="#DejaVuSans-33"/>
     <use xlink:href="#DejaVuSans-30" transform="translate(63.623047 0)"/>
     <use xlink:href="#DejaVuSans-2e" transform="translate(127.246094 0)"/>
     <use xlink:href="#DejaVuSans-30" transform="translate(159.033203 0)"/>
     <use xlink:href="#DejaVuSans-36" transform="translate(222.65625 0)"/>
     <use xlink:href="#DejaVuSans-2e" transform="translate(286.279297 0)"/>
     <use xlink:href="#DejaVuSans-32" transform="translate(318.066406 0)"/>
     <use xlink:href="#DejaVuSans-30" transform="translate(381.689453 0)"/>
     <use xlink:href="#DejaVuSans-32" transform="translate(445.3125 0)"/>
     <use xlink:href="#DejaVuSans-34" transform="translate(508.935547 0)"/>
    </g>
   </g>
   <g id="patch_16">
    <path d="M 115.349499 326.314311 
Q 123.187098 341.98951 130.524698 356.664709 
" style="fill: none; stroke: #000000; stroke-linecap: round"/>
    <path d="M 130.524698 352.639787 
L 130.524698 356.664709 
L 127.30476 354.249756 
" style="fill: none; stroke: #000000; stroke-linecap: round"/>
   </g>
   <g id="text_21">
    <!-- Trachtverlauf im aktuellen Jahr und Vorjahre -->
    <g transform="translate(235.909688 37.2) scale(0.12 -0.12)">
     <defs>
      <path id="DejaVuSans-54" d="M -19 4666 
L 3928 4666 
L 3928 4134 
L 2272 4134 
L 2272 0 
L 1638 0 
L 1638 4134 
L -19 4134 
L -19 4666 
z
" transform="scale(0.015625)"/>
      <path id="DejaVuSans-76" d="M 191 3500 
L 800 3500 
L 1894 563 
L 2988 3500 
L 3597 3500 
L 2284 0 
L 1503 0 
L 191 3500 
z
" transform="scale(0.015625)"/>
      <path id="DejaVuSans-66" d="M 2375 4863 
L 2375 4384 
L 1825 4384 
Q 1516 4384 1395 4259 
Q 1275 4134 1275 3809 
L 1275 3500 
L 2222 3500 
L 2222 3053 
L 1275 3053 
L 1275 0 
L 697 0 
L 697 3053 
L 147 3053 
L 147 3500 
L 697 3500 
L 697 3744 
Q 697 4328 969 4595 
Q 1241 4863 1831 4863 
L 2375 4863 
z
" transform="scale(0.015625)"/>
      <path id="DejaVuSans-56" d="M 1831 0 
L 50 4666 
L 709 4666 
L 2188 738 
L 3669 4666 
L 4325 4666 
L 2547 0 
L 1831 0 
z
" transform="scale(0.015625)"/>
      <path id="DejaVuSans-6a" d="M 603 3500 
L 1178 3500 
L 1178 -63 
Q 1178 -731 923 -1031 
Q 669 -1331 103 -1331 
L -116 -1331 
L -116 -844 
L 38 -844 
Q 366 -844 484 -692 
Q 603 -541 603 -63 
L 603 3500 
z
M 603 4863 
L 1178 4863 
L 1178 4134 
L 603 4134 
L 603 4863 
z
" transform="scale(0.015625)"/>
     </defs>
     <use xlink:href="#DejaVuSans-54"/>
     <use xlink:href="#DejaVuSans-72" transform="translate(46.333984 0)"/>
     <use xlink:href="#DejaVuSans-61" transform="translate(87.447266 0)"/>
     <use xlink:href="#DejaVuSans-63" transform="translate(148.726562 0)"/>
     <use xlink:href="#DejaVuSans-68" transform="translate(203.707031 0)"/>
     <use xlink:href="#DejaVuSans-74" transform="translate(267.085938 0)"/>
     <use xlink:href="#DejaVuSans-76" transform="translate(306.294922 0)"/>
     <use xlink:href="#DejaVuSans-65" transform="translate(365.474609 0)"/>
     <use xlink:href="#DejaVuSans-72" transform="translate(426.998047 0)"/>
     <use xlink:href="#DejaVuSans-6c" transform="translate(468.111328 0)"/>
     <use xlink:href="#DejaVuSans-61" transform="translate(495.894531 0)"/>
     <use xlink:href="#DejaVuSans-75" transform="translate(557.173828 0)"/>
     <use xlink:href="#DejaVuSans-66" transform="translate(620.552734 0)"/>
     <use xlink:href="#DejaVuSans-20" transform="translate(655.757812 0)"/>
     <use xlink:href="#DejaVuSans-69" transform="translate(687.544922 0)"/>
     <use xlink:href="#DejaVuSans-6d" transform="translate(715.328125 0)"/>
     <use xlink:href="#DejaVuSans-20" transform="translate(812.740234 0)"/>
     <use xlink:href="#DejaVuSans-61" transform="translate(844.527344 0)"/>
     <use xlink:href="#DejaVuSans-6b" transform="translate(905.806641 0)"/>
     <use xlink:href="#DejaVuSans-74" transform="translate(963.716797 0)"/>
     <use xlink:href="#DejaVuSans-75" transform="translate(1002.925781 0)"/>
     <use xlink:href="#DejaVuSans-65" transform="translate(1066.304688 0)"/>
     <use xlink:href="#DejaVuSans-6c" transform="translate(1127.828125 0)"/>
     <use xlink:href="#DejaVuSans-6c" transform="translate(1155.611328 0)"/>
     <use xlink:href="#DejaVuSans-65" transform="translate(1183.394531 0)"/>
     <use xlink:href="#DejaVuSans-6e" transform="translate(1244.917969 0)"/>
     <use xlink:href="#DejaVuSans-20" transform="translate(1308.296875 0)"/>
     <use xlink:href="#DejaVuSans-4a" transform="translate(1340.083984 0)"/>
     <use xlink:href="#DejaVuSans-61" transform="translate(1369.576172 0)"/>
     <use xlink:href="#DejaVuSans-68" transform="translate(1430.855469 0)"/>
     <use xlink:href="#DejaVuSans-72" transform="translate(1494.234375 0)"/>
     <use xlink:href="#DejaVuSans-20" transform="translate(1535.347656 0)"/>
     <use xlink:href="#DejaVuSans-75" transform="translate(1567.134766 0)"/>
     <use xlink:href="#DejaVuSans-6e" transform="translate(1630.513672 0)"/>
     <use xlink:href="#DejaVuSans-64" transform="translate(1693.892578 0)"/>
     <use xlink:href="#DejaVuSans-20" transform="translate(1757.369141 0)"/>
     <use xlink:href="#DejaVuSans-56" transform="translate(1789.15625 0)"/>
     <use xlink:href="#DejaVuSans-6f" transform="translate(1849.814453 0)"/>
     <use xlink:href="#DejaVuSans-72" transform="translate(1910.996094 0)"/>
     <use xlink:href="#DejaVuSans-6a" transform="translate(1952.109375 0)"/>
     <use xlink:href="#DejaVuSans-61" transform="translate(1979.892578 0)"/>
     <use xlink:href="#DejaVuSans-68" transform="translate(2041.171875 0)"/>
     <use xlink:href="#DejaVuSans-72" transform="translate(2104.550781 0)"/>
     <use xlink:href="#DejaVuSans-65" transform="translate(2143.414062 0)"/>
    </g>
   </g>
   <g id="legend_1">
    <g id="patch_17">
     <path d="M 40.403125 124.590625 
L 169.542188 124.590625 
Q 171.542188 124.590625 171.542188 122.590625 
L 171.542188 50.2 
Q 171.542188 48.2 169.542188 48.2 
L 40.403125 48.2 
Q 38.403125 48.2 38.403125 50.2 
L 38.403125 122.590625 
Q 38.403125 124.590625 40.403125 124.590625 
z
" style="fill: #ffffff; opacity: 0.8; stroke: #cccccc; stroke-linejoin: miter"/>
    </g>
    <g id="line2d_93">
     <path d="M 42.403125 56.298437 
L 52.403125 56.298437 
L 62.403125 56.298437 
" style="fill: none; stroke: #bcbd22; stroke-width: 1.5; stroke-linecap: square"/>
    </g>
    <g id="text_22">
     <!-- 2022 -->
     <g transform="translate(70.403125 59.798437) scale(0.1 -0.1)">
      <use xlink:href="#DejaVuSans-32"/>
      <use xlink:href="#DejaVuSans-30" transform="translate(63.623047 0)"/>
      <use xlink:href="#DejaVuSans-32" transform="translate(127.246094 0)"/>
      <use xlink:href="#DejaVuSans-32" transform="translate(190.869141 0)"/>
     </g>
    </g>
    <g id="line2d_94">
     <path d="M 42.403125 70.976562 
L 52.403125 70.976562 
L 62.403125 70.976562 
" style="fill: none; stroke: #d62728; stroke-width: 1.5; stroke-linecap: square"/>
    </g>
    <g id="text_23">
     <!-- 2023 -->
     <g transform="translate(70.403125 74.476562) scale(0.1 -0.1)">
      <use xlink:href="#DejaVuSans-32"/>
      <use xlink:href="#DejaVuSans-30" transform="translate(63.623047 0)"/>
      <use xlink:href="#DejaVuSans-32" transform="translate(127.246094 0)"/>
      <use xlink:href="#DejaVuSans-33" transform="translate(190.869141 0)"/>
     </g>
    </g>
    <g id="line2d_95">
     <path d="M 42.403125 85.654687 
L 52.403125 85.654687 
L 62.403125 85.654687 
" style="fill: none; stroke: #2ca02c; stroke-width: 1.5; stroke-linecap: square"/>
    </g>
    <g id="text_24">
     <!-- 2024 -->
     <g transform="translate(70.403125 89.154687) scale(0.1 -0.1)">
      <use xlink:href="#DejaVuSans-32"/>
      <use xlink:href="#DejaVuSans-30" transform="translate(63.623047 0)"/>
      <use xlink:href="#DejaVuSans-32" transform="translate(127.246094 0)"/>
      <use xlink:href="#DejaVuSans-34" transform="translate(190.869141 0)"/>
     </g>
    </g>
    <g id="line2d_96">
     <path d="M 42.403125 100.332812 
L 52.403125 100.332812 
L 62.403125 100.332812 
" style="fill: none; stroke: #1f77b4; stroke-width: 1.5; stroke-linecap: square"/>
    </g>
    <g id="text_25">
     <!-- 2025 -->
     <g transform="translate(70.403125 103.832812) scale(0.1 -0.1)">
      <use xlink:href="#DejaVuSans-32"/>
      <use xlink:href="#DejaVuSans-30" transform="translate(63.623047 0)"/>
      <use xlink:href="#DejaVuSans-32" transform="translate(127.246094 0)"/>
      <use xlink:href="#DejaVuSans-35" transform="translate(190.869141 0)"/>
     </g>
    </g>
    <g id="line2d_97">
     <path d="M 42.403125 115.010938 
L 52.403125 115.010938 
L 62.403125 115.010938 
" style="fill: none; stroke-dasharray: 1.5,2.475; stroke-dashoffset: 0; stroke: #1f77b4; stroke-width: 1.5"/>
    </g>
    <g id="text_26">
     <!-- heute (14.06.2025) -->
     <g transform="translate(70.403125 118.510938) scale(0.1 -0.1)">
      <defs>
       <path id="DejaVuSans-28" d="M 1984 4856 
Q 1566 4138 1362 3434 
Q 1159 2731 1159 2009 
Q 1159 1288 1364 580 
Q 1569 -128 1984 -844 
L 1484 -844 
Q 1016 -109 783 600 
Q 550 1309 550 2009 
Q 550 2706 781 3412 
Q 1013 4119 1484 4856 
L 1984 4856 
z
" transform="scale(0.015625)"/>
       <path id="DejaVuSans-29" d="M 513 4856 
L 1013 4856 
Q 1481 4119 1714 3412 
Q 1947 2706 1947 2009 
Q 1947 1309 1714 600 
Q 1481 -109 1013 -844 
L 513 -844 
Q 928 -128 1133 580 
Q 1338 1288 1338 2009 
Q 1338 2731 1133 3434 
Q 928 4138 513 4856 
z
" transform="scale(0.015625)"/>
      </defs>
      <use xlink:href="#DejaVuSans-68"/>
      <use xlink:href="#DejaVuSans-65" transform="translate(63.378906 0)"/>
      <use xlink:href="#DejaVuSans-75" transform="translate(124.902344 0)"/>
      <use xlink:href="#DejaVuSans-74" transform="translate(188.28125 0)"/>
      <use xlink:href="#DejaVuSans-65" transform="translate(227.490234 0)"/>
      <use xlink:href="#DejaVuSans-20" transform="translate(289.013672 0)"/>
      <use xlink:href="#DejaVuSans-28" transform="translate(320.800781 0)"/>
      <use xlink:href="#DejaVuSans-31" transform="translate(359.814453 0)"/>
      <use xlink:href="#DejaVuSans-34" transform="translate(423.4375 0)"/>
      <use xlink:href="#DejaVuSans-2e" transform="translate(487.060547 0)"/>
      <use xlink:href="#DejaVuSans-30" transform="translate(518.847656 0)"/>
      <use xlink:href="#DejaVuSans-36" transform="translate(582.470703 0)"/>
      <use xlink:href="#DejaVuSans-2e" transform="translate(646.09375 0)"/>
      <use xlink:href="#DejaVuSans-32" transform="translate(677.880859 0)"/>
      <use xlink:href="#DejaVuSans-30" transform="translate(741.503906 0)"/>
      <use xlink:href="#DejaVuSans-32" transform="translate(805.126953 0)"/>
      <use xlink:href="#DejaVuSans-35" transform="translate(868.75 0)"/>
      <use xlink:href="#DejaVuSans-29" transform="translate(932.373047 0)"/>
     </g>
    </g>
   </g>
  </g>
  <g id="text_27">
   <!-- Dr. Gerhard Liebig (Waage 1276) -->
   <g transform="translate(258.63375 9.118125) scale(0.12 -0.12)">
    <defs>
     <path id="DejaVuSans-44" d="M 1259 4147 
L 1259 519 
L 2022 519 
Q 2988 519 3436 956 
Q 3884 1394 3884 2338 
Q 3884 3275 3436 3711 
Q 2988 4147 2022 4147 
L 1259 4147 
z
M 628 4666 
L 1925 4666 
Q 3281 4666 3915 4102 
Q 4550 3538 4550 2338 
Q 4550 1131 3912 565 
Q 3275 0 1925 0 
L 628 0 
L 628 4666 
z
" transform="scale(0.015625)"/>
     <path id="DejaVuSans-4c" d="M 628 4666 
L 1259 4666 
L 1259 531 
L 3531 531 
L 3531 0 
L 628 0 
L 628 4666 
z
" transform="scale(0.015625)"/>
     <path id="DejaVuSans-62" d="M 3116 1747 
Q 3116 2381 2855 2742 
Q 2594 3103 2138 3103 
Q 1681 3103 1420 2742 
Q 1159 2381 1159 1747 
Q 1159 1113 1420 752 
Q 1681 391 2138 391 
Q 2594 391 2855 752 
Q 3116 1113 3116 1747 
z
M 1159 2969 
Q 1341 3281 1617 3432 
Q 1894 3584 2278 3584 
Q 2916 3584 3314 3078 
Q 3713 2572 3713 1747 
Q 3713 922 3314 415 
Q 2916 -91 2278 -91 
Q 1894 -91 1617 61 
Q 1341 213 1159 525 
L 1159 0 
L 581 0 
L 581 4863 
L 1159 4863 
L 1159 2969 
z
" transform="scale(0.015625)"/>
     <path id="DejaVuSans-57" d="M 213 4666 
L 850 4666 
L 1831 722 
L 2809 4666 
L 3519 4666 
L 4500 722 
L 5478 4666 
L 6119 4666 
L 4947 0 
L 4153 0 
L 3169 4050 
L 2175 0 
L 1381 0 
L 213 4666 
z
" transform="scale(0.015625)"/>
    </defs>
    <use xlink:href="#DejaVuSans-44"/>
    <use xlink:href="#DejaVuSans-72" transform="translate(77.001953 0)"/>
    <use xlink:href="#DejaVuSans-2e" transform="translate(108.990234 0)"/>
    <use xlink:href="#DejaVuSans-20" transform="translate(140.777344 0)"/>
    <use xlink:href="#DejaVuSans-47" transform="translate(172.564453 0)"/>
    <use xlink:href="#DejaVuSans-65" transform="translate(250.054688 0)"/>
    <use xlink:href="#DejaVuSans-72" transform="translate(311.578125 0)"/>
    <use xlink:href="#DejaVuSans-68" transform="translate(350.941406 0)"/>
    <use xlink:href="#DejaVuSans-61" transform="translate(414.320312 0)"/>
    <use xlink:href="#DejaVuSans-72" transform="translate(475.599609 0)"/>
    <use xlink:href="#DejaVuSans-64" transform="translate(514.962891 0)"/>
    <use xlink:href="#DejaVuSans-20" transform="translate(578.439453 0)"/>
    <use xlink:href="#DejaVuSans-4c" transform="translate(610.226562 0)"/>
    <use xlink:href="#DejaVuSans-69" transform="translate(665.939453 0)"/>
    <use xlink:href="#DejaVuSans-65" transform="translate(693.722656 0)"/>
    <use xlink:href="#DejaVuSans-62" transform="translate(755.246094 0)"/>
    <use xlink:href="#DejaVuSans-69" transform="translate(818.722656 0)"/>
    <use xlink:href="#DejaVuSans-67" transform="translate(846.505859 0)"/>
    <use xlink:href="#DejaVuSans-20" transform="translate(909.982422 0)"/>
    <use xlink:href="#DejaVuSans-28" transform="translate(941.769531 0)"/>
    <use xlink:href="#DejaVuSans-57" transform="translate(980.783203 0)"/>
    <use xlink:href="#DejaVuSans-61" transform="translate(1073.285156 0)"/>
    <use xlink:href="#DejaVuSans-61" transform="translate(1134.564453 0)"/>
    <use xlink:href="#DejaVuSans-67" transform="translate(1195.84375 0)"/>
    <use xlink:href="#DejaVuSans-65" transform="translate(1259.320312 0)"/>
    <use xlink:href="#DejaVuSans-20" transform="translate(1320.84375 0)"/>
    <use xlink:href="#DejaVuSans-31" transform="translate(1352.630859 0)"/>
    <use xlink:href="#DejaVuSans-32" transform="translate(1416.253906 0)"/>
    <use xlink:href="#DejaVuSans-37" transform="translate(1479.876953 0)"/>
    <use xlink:href="#DejaVuSans-36" transform="translate(1543.5 0)"/>
    <use xlink:href="#DejaVuSans-29" transform="translate(1607.123047 0)"/>
   </g>
  </g>
 </g>
 <defs>
  <clipPath id="pda6243095e">
   <rect x="33.403125" y="43.2" width="669.6" height="332.64"/>
  </clipPath>
 </defs>
</svg>
