<?xml version="1.0" encoding="utf-8" standalone="no"?>
<!DOCTYPE svg PUBLIC "-//W3C//DTD SVG 1.1//EN"
  "http://www.w3.org/Graphics/SVG/1.1/DTD/svg11.dtd">
<svg xmlns:xlink="http://www.w3.org/1999/xlink" width="714.560938pt" height="406.19625pt" viewBox="0 0 714.560938 406.19625" xmlns="http://www.w3.org/2000/svg" version="1.1">
 <metadata>
  <rdf:RDF xmlns:dc="http://purl.org/dc/elements/1.1/" xmlns:cc="http://creativecommons.org/ns#" xmlns:rdf="http://www.w3.org/1999/02/22-rdf-syntax-ns#">
   <cc:Work>
    <dc:type rdf:resource="http://purl.org/dc/dcmitype/StillImage"/>
    <dc:date>2025-06-17T18:29:35.504473</dc:date>
    <dc:format>image/svg+xml</dc:format>
    <dc:creator>
     <cc:Agent>
      <dc:title>Matplotlib v3.10.3, https://matplotlib.org/</dc:title>
     </cc:Agent>
    </dc:creator>
   </cc:Work>
  </rdf:RDF>
 </metadata>
 <defs>
  <style type="text/css">*{stroke-linejoin: round; stroke-linecap: butt}</style>
 </defs>
 <g id="figure_1">
  <g id="patch_1">
   <path d="M 0 406.19625 
L 714.560938 406.19625 
L 714.560938 0 
L 0 0 
z
" style="fill: #ffffff"/>
  </g>
  <g id="axes_1">
   <g id="patch_2">
    <path d="M 44.960938 375.84 
L 714.560938 375.84 
L 714.560938 43.2 
L 44.960938 43.2 
z
" style="fill: #ffffff"/>
   </g>
   <g id="patch_3">
    <path d="M 75.397301 299.997108 
L 79.914758 299.997108 
L 79.914758 312.141687 
L 75.397301 312.141687 
z
" clip-path="url(#p2915cf084e)" style="fill: #1f77b4"/>
   </g>
   <g id="patch_4">
    <path d="M 81.044122 299.997108 
L 85.561578 299.997108 
L 85.561578 323.071807 
L 81.044122 323.071807 
z
" clip-path="url(#p2915cf084e)" style="fill: #1f77b4"/>
   </g>
   <g id="patch_5">
    <path d="M 86.690943 299.997108 
L 91.208399 299.997108 
L 91.208399 315.78506 
L 86.690943 315.78506 
z
" clip-path="url(#p2915cf084e)" style="fill: #1f77b4"/>
   </g>
   <g id="patch_6">
    <path d="M 92.337763 299.997108 
L 96.85522 299.997108 
L 96.85522 315.78506 
L 92.337763 315.78506 
z
" clip-path="url(#p2915cf084e)" style="fill: #1f77b4"/>
   </g>
   <g id="patch_7">
    <path d="M 97.984584 299.997108 
L 102.502041 299.997108 
L 102.502041 309.712771 
L 97.984584 309.712771 
z
" clip-path="url(#p2915cf084e)" style="fill: #1f77b4"/>
   </g>
   <g id="patch_8">
    <path d="M 103.631405 299.997108 
L 108.148861 299.997108 
L 108.148861 304.85494 
L 103.631405 304.85494 
z
" clip-path="url(#p2915cf084e)" style="fill: #1f77b4"/>
   </g>
   <g id="patch_9">
    <path d="M 109.278225 299.997108 
L 113.795682 299.997108 
L 113.795682 310.927229 
L 109.278225 310.927229 
z
" clip-path="url(#p2915cf084e)" style="fill: #1f77b4"/>
   </g>
   <g id="patch_10">
    <path d="M 114.925046 299.997108 
L 119.442503 299.997108 
L 119.442503 314.570602 
L 114.925046 314.570602 
z
" clip-path="url(#p2915cf084e)" style="fill: #1f77b4"/>
   </g>
   <g id="patch_11">
    <path d="M 120.571867 299.997108 
L 125.089323 299.997108 
L 125.089323 308.498313 
L 120.571867 308.498313 
z
" clip-path="url(#p2915cf084e)" style="fill: #1f77b4"/>
   </g>
   <g id="patch_12">
    <path d="M 126.218688 299.997108 
L 130.736144 299.997108 
L 130.736144 303.640482 
L 126.218688 303.640482 
z
" clip-path="url(#p2915cf084e)" style="fill: #1f77b4"/>
   </g>
   <g id="patch_13">
    <path d="M 131.865508 299.997108 
L 136.382965 299.997108 
L 136.382965 302.426024 
L 131.865508 302.426024 
z
" clip-path="url(#p2915cf084e)" style="fill: #1f77b4"/>
   </g>
   <g id="patch_14">
    <path d="M 137.512329 299.997108 
L 142.029786 299.997108 
L 142.029786 302.426024 
L 137.512329 302.426024 
z
" clip-path="url(#p2915cf084e)" style="fill: #1f77b4"/>
   </g>
   <g id="patch_15">
    <path d="M 143.15915 299.997108 
L 147.676606 299.997108 
L 147.676606 307.283855 
L 143.15915 307.283855 
z
" clip-path="url(#p2915cf084e)" style="fill: #1f77b4"/>
   </g>
   <g id="patch_16">
    <path d="M 148.80597 299.997108 
L 153.323427 299.997108 
L 153.323427 308.498313 
L 148.80597 308.498313 
z
" clip-path="url(#p2915cf084e)" style="fill: #1f77b4"/>
   </g>
   <g id="patch_17">
    <path d="M 154.452791 299.997108 
L 158.970248 299.997108 
L 158.970248 309.712771 
L 154.452791 309.712771 
z
" clip-path="url(#p2915cf084e)" style="fill: #1f77b4"/>
   </g>
   <g id="patch_18">
    <path d="M 160.099612 299.997108 
L 164.617068 299.997108 
L 164.617068 314.570602 
L 160.099612 314.570602 
z
" clip-path="url(#p2915cf084e)" style="fill: #1f77b4"/>
   </g>
   <g id="patch_19">
    <path d="M 165.746433 299.997108 
L 170.263889 299.997108 
L 170.263889 315.78506 
L 165.746433 315.78506 
z
" clip-path="url(#p2915cf084e)" style="fill: #1f77b4"/>
   </g>
   <g id="patch_20">
    <path d="M 171.393253 299.997108 
L 175.91071 299.997108 
L 175.91071 318.213976 
L 171.393253 318.213976 
z
" clip-path="url(#p2915cf084e)" style="fill: #1f77b4"/>
   </g>
   <g id="patch_21">
    <path d="M 177.040074 299.997108 
L 181.557531 299.997108 
L 181.557531 301.211566 
L 177.040074 301.211566 
z
" clip-path="url(#p2915cf084e)" style="fill: #1f77b4"/>
   </g>
   <g id="patch_22">
    <path d="M 182.686895 299.997108 
L 187.204351 299.997108 
L 187.204351 292.710361 
L 182.686895 292.710361 
z
" clip-path="url(#p2915cf084e)" style="fill: #1f77b4"/>
   </g>
   <g id="patch_23">
    <path d="M 188.333715 299.997108 
L 192.851172 299.997108 
L 192.851172 285.423614 
L 188.333715 285.423614 
z
" clip-path="url(#p2915cf084e)" style="fill: #1f77b4"/>
   </g>
   <g id="patch_24">
    <path d="M 193.980536 299.997108 
L 198.497993 299.997108 
L 198.497993 295.139277 
L 193.980536 295.139277 
z
" clip-path="url(#p2915cf084e)" style="fill: #1f77b4"/>
   </g>
   <g id="patch_25">
    <path d="M 199.627357 299.997108 
L 204.144813 299.997108 
L 204.144813 299.997108 
L 199.627357 299.997108 
z
" clip-path="url(#p2915cf084e)" style="fill: #1f77b4"/>
   </g>
   <g id="patch_26">
    <path d="M 205.274178 299.997108 
L 209.791634 299.997108 
L 209.791634 299.997108 
L 205.274178 299.997108 
z
" clip-path="url(#p2915cf084e)" style="fill: #1f77b4"/>
   </g>
   <g id="patch_27">
    <path d="M 210.920998 299.997108 
L 215.438455 299.997108 
L 215.438455 306.069398 
L 210.920998 306.069398 
z
" clip-path="url(#p2915cf084e)" style="fill: #1f77b4"/>
   </g>
   <g id="patch_28">
    <path d="M 216.567819 299.997108 
L 221.085275 299.997108 
L 221.085275 312.141687 
L 216.567819 312.141687 
z
" clip-path="url(#p2915cf084e)" style="fill: #1f77b4"/>
   </g>
   <g id="patch_29">
    <path d="M 222.21464 299.997108 
L 226.732096 299.997108 
L 226.732096 302.426024 
L 222.21464 302.426024 
z
" clip-path="url(#p2915cf084e)" style="fill: #1f77b4"/>
   </g>
   <g id="patch_30">
    <path d="M 227.86146 299.997108 
L 232.378917 299.997108 
L 232.378917 307.283855 
L 227.86146 307.283855 
z
" clip-path="url(#p2915cf084e)" style="fill: #1f77b4"/>
   </g>
   <g id="patch_31">
    <path d="M 233.508281 299.997108 
L 238.025738 299.997108 
L 238.025738 319.428434 
L 233.508281 319.428434 
z
" clip-path="url(#p2915cf084e)" style="fill: #1f77b4"/>
   </g>
   <g id="patch_32">
    <path d="M 239.155102 299.997108 
L 243.672558 299.997108 
L 243.672558 312.141687 
L 239.155102 312.141687 
z
" clip-path="url(#p2915cf084e)" style="fill: #1f77b4"/>
   </g>
   <g id="patch_33">
    <path d="M 244.801922 299.997108 
L 249.319379 299.997108 
L 249.319379 309.712771 
L 244.801922 309.712771 
z
" clip-path="url(#p2915cf084e)" style="fill: #1f77b4"/>
   </g>
   <g id="patch_34">
    <path d="M 250.448743 299.997108 
L 254.9662 299.997108 
L 254.9662 326.715181 
L 250.448743 326.715181 
z
" clip-path="url(#p2915cf084e)" style="fill: #1f77b4"/>
   </g>
   <g id="patch_35">
    <path d="M 256.095564 299.997108 
L 260.61302 299.997108 
L 260.61302 299.997108 
L 256.095564 299.997108 
z
" clip-path="url(#p2915cf084e)" style="fill: #1f77b4"/>
   </g>
   <g id="patch_36">
    <path d="M 261.742385 299.997108 
L 266.259841 299.997108 
L 266.259841 290.281446 
L 261.742385 290.281446 
z
" clip-path="url(#p2915cf084e)" style="fill: #1f77b4"/>
   </g>
   <g id="patch_37">
    <path d="M 267.389205 299.997108 
L 271.906662 299.997108 
L 271.906662 298.782651 
L 267.389205 298.782651 
z
" clip-path="url(#p2915cf084e)" style="fill: #1f77b4"/>
   </g>
   <g id="patch_38">
    <path d="M 273.036026 299.997108 
L 277.553483 299.997108 
L 277.553483 320.642892 
L 273.036026 320.642892 
z
" clip-path="url(#p2915cf084e)" style="fill: #1f77b4"/>
   </g>
   <g id="patch_39">
    <path d="M 278.682847 299.997108 
L 283.200303 299.997108 
L 283.200303 310.927229 
L 278.682847 310.927229 
z
" clip-path="url(#p2915cf084e)" style="fill: #1f77b4"/>
   </g>
   <g id="patch_40">
    <path d="M 284.329667 299.997108 
L 288.847124 299.997108 
L 288.847124 308.498313 
L 284.329667 308.498313 
z
" clip-path="url(#p2915cf084e)" style="fill: #1f77b4"/>
   </g>
   <g id="patch_41">
    <path d="M 289.976488 299.997108 
L 294.493945 299.997108 
L 294.493945 303.640482 
L 289.976488 303.640482 
z
" clip-path="url(#p2915cf084e)" style="fill: #1f77b4"/>
   </g>
   <g id="patch_42">
    <path d="M 295.623309 299.997108 
L 300.140765 299.997108 
L 300.140765 304.85494 
L 295.623309 304.85494 
z
" clip-path="url(#p2915cf084e)" style="fill: #1f77b4"/>
   </g>
   <g id="patch_43">
    <path d="M 301.27013 299.997108 
L 305.787586 299.997108 
L 305.787586 276.92241 
L 301.27013 276.92241 
z
" clip-path="url(#p2915cf084e)" style="fill: #1f77b4"/>
   </g>
   <g id="patch_44">
    <path d="M 306.91695 299.997108 
L 311.434407 299.997108 
L 311.434407 229.558554 
L 306.91695 229.558554 
z
" clip-path="url(#p2915cf084e)" style="fill: #1f77b4"/>
   </g>
   <g id="patch_45">
    <path d="M 312.563771 299.997108 
L 317.081228 299.997108 
L 317.081228 252.633253 
L 312.563771 252.633253 
z
" clip-path="url(#p2915cf084e)" style="fill: #1f77b4"/>
   </g>
   <g id="patch_46">
    <path d="M 318.210592 299.997108 
L 322.728048 299.997108 
L 322.728048 236.845301 
L 318.210592 236.845301 
z
" clip-path="url(#p2915cf084e)" style="fill: #1f77b4"/>
   </g>
   <g id="patch_47">
    <path d="M 323.857412 299.997108 
L 328.374869 299.997108 
L 328.374869 206.483855 
L 323.857412 206.483855 
z
" clip-path="url(#p2915cf084e)" style="fill: #1f77b4"/>
   </g>
   <g id="patch_48">
    <path d="M 329.504233 299.997108 
L 334.02169 299.997108 
L 334.02169 199.197108 
L 329.504233 199.197108 
z
" clip-path="url(#p2915cf084e)" style="fill: #1f77b4"/>
   </g>
   <g id="patch_49">
    <path d="M 335.151054 299.997108 
L 339.66851 299.997108 
L 339.66851 276.92241 
L 335.151054 276.92241 
z
" clip-path="url(#p2915cf084e)" style="fill: #1f77b4"/>
   </g>
   <g id="patch_50">
    <path d="M 340.797875 299.997108 
L 345.315331 299.997108 
L 345.315331 336.430843 
L 340.797875 336.430843 
z
" clip-path="url(#p2915cf084e)" style="fill: #1f77b4"/>
   </g>
   <g id="patch_51">
    <path d="M 346.444695 299.997108 
L 350.962152 299.997108 
L 350.962152 218.628434 
L 346.444695 218.628434 
z
" clip-path="url(#p2915cf084e)" style="fill: #1f77b4"/>
   </g>
   <g id="patch_52">
    <path d="M 352.091516 299.997108 
L 356.608973 299.997108 
L 356.608973 180.980241 
L 352.091516 180.980241 
z
" clip-path="url(#p2915cf084e)" style="fill: #1f77b4"/>
   </g>
   <g id="patch_53">
    <path d="M 357.738337 299.997108 
L 362.255793 299.997108 
L 362.255793 262.348916 
L 357.738337 262.348916 
z
" clip-path="url(#p2915cf084e)" style="fill: #1f77b4"/>
   </g>
   <g id="patch_54">
    <path d="M 363.385157 299.997108 
L 367.902614 299.997108 
L 367.902614 251.418795 
L 363.385157 251.418795 
z
" clip-path="url(#p2915cf084e)" style="fill: #1f77b4"/>
   </g>
   <g id="patch_55">
    <path d="M 369.031978 299.997108 
L 373.549435 299.997108 
L 373.549435 157.905542 
L 369.031978 157.905542 
z
" clip-path="url(#p2915cf084e)" style="fill: #1f77b4"/>
   </g>
   <g id="patch_56">
    <path d="M 374.678799 299.997108 
L 379.196255 299.997108 
L 379.196255 348.575422 
L 374.678799 348.575422 
z
" clip-path="url(#p2915cf084e)" style="fill: #1f77b4"/>
   </g>
   <g id="patch_57">
    <path d="M 380.32562 299.997108 
L 384.843076 299.997108 
L 384.843076 320.642892 
L 380.32562 320.642892 
z
" clip-path="url(#p2915cf084e)" style="fill: #1f77b4"/>
   </g>
   <g id="patch_58">
    <path d="M 385.97244 299.997108 
L 390.489897 299.997108 
L 390.489897 269.635663 
L 385.97244 269.635663 
z
" clip-path="url(#p2915cf084e)" style="fill: #1f77b4"/>
   </g>
   <g id="patch_59">
    <path d="M 391.619261 299.997108 
L 396.136718 299.997108 
L 396.136718 137.259759 
L 391.619261 137.259759 
z
" clip-path="url(#p2915cf084e)" style="fill: #1f77b4"/>
   </g>
   <g id="patch_60">
    <path d="M 397.266082 299.997108 
L 401.783538 299.997108 
L 401.783538 58.32 
L 397.266082 58.32 
z
" clip-path="url(#p2915cf084e)" style="fill: #1f77b4"/>
   </g>
   <g id="patch_61">
    <path d="M 402.912902 299.997108 
L 407.430359 299.997108 
L 407.430359 75.32241 
L 402.912902 75.32241 
z
" clip-path="url(#p2915cf084e)" style="fill: #1f77b4"/>
   </g>
   <g id="patch_62">
    <path d="M 408.559723 299.997108 
L 413.07718 299.997108 
L 413.07718 81.394699 
L 408.559723 81.394699 
z
" clip-path="url(#p2915cf084e)" style="fill: #1f77b4"/>
   </g>
   <g id="patch_63">
    <path d="M 414.206544 299.997108 
L 418.724 299.997108 
L 418.724 72.893494 
L 414.206544 72.893494 
z
" clip-path="url(#p2915cf084e)" style="fill: #1f77b4"/>
   </g>
   <g id="patch_64">
    <path d="M 419.853365 299.997108 
L 424.370821 299.997108 
L 424.370821 95.968193 
L 419.853365 95.968193 
z
" clip-path="url(#p2915cf084e)" style="fill: #1f77b4"/>
   </g>
   <g id="patch_65">
    <path d="M 425.500185 299.997108 
L 430.017642 299.997108 
L 430.017642 255.062169 
L 425.500185 255.062169 
z
" clip-path="url(#p2915cf084e)" style="fill: #1f77b4"/>
   </g>
   <g id="patch_66">
    <path d="M 431.147006 299.997108 
L 435.664463 299.997108 
L 435.664463 357.076627 
L 431.147006 357.076627 
z
" clip-path="url(#p2915cf084e)" style="fill: #1f77b4"/>
   </g>
   <g id="patch_67">
    <path d="M 436.793827 299.997108 
L 441.311283 299.997108 
L 441.311283 335.216386 
L 436.793827 335.216386 
z
" clip-path="url(#p2915cf084e)" style="fill: #1f77b4"/>
   </g>
   <g id="patch_68">
    <path d="M 442.440647 299.997108 
L 446.958104 299.997108 
L 446.958104 307.283855 
L 442.440647 307.283855 
z
" clip-path="url(#p2915cf084e)" style="fill: #1f77b4"/>
   </g>
   <g id="patch_69">
    <path d="M 448.087468 299.997108 
L 452.604925 299.997108 
L 452.604925 285.423614 
L 448.087468 285.423614 
z
" clip-path="url(#p2915cf084e)" style="fill: #1f77b4"/>
   </g>
   <g id="patch_70">
    <path d="M 453.734289 299.997108 
L 458.251745 299.997108 
L 458.251745 313.356145 
L 453.734289 313.356145 
z
" clip-path="url(#p2915cf084e)" style="fill: #1f77b4"/>
   </g>
   <g id="patch_71">
    <path d="M 459.38111 299.997108 
L 463.898566 299.997108 
L 463.898566 252.633253 
L 459.38111 252.633253 
z
" clip-path="url(#p2915cf084e)" style="fill: #1f77b4"/>
   </g>
   <g id="patch_72">
    <path d="M 465.02793 299.997108 
L 469.545387 299.997108 
L 469.545387 156.691084 
L 465.02793 156.691084 
z
" clip-path="url(#p2915cf084e)" style="fill: #1f77b4"/>
   </g>
   <g id="patch_73">
    <path d="M 470.674751 299.997108 
L 475.192208 299.997108 
L 475.192208 148.18988 
L 470.674751 148.18988 
z
" clip-path="url(#p2915cf084e)" style="fill: #1f77b4"/>
   </g>
   <g id="patch_74">
    <path d="M 476.321572 299.997108 
L 480.839028 299.997108 
L 480.839028 194.339277 
L 476.321572 194.339277 
z
" clip-path="url(#p2915cf084e)" style="fill: #1f77b4"/>
   </g>
   <g id="patch_75">
    <path d="M 481.968392 299.997108 
L 486.485849 299.997108 
L 486.485849 204.05494 
L 481.968392 204.05494 
z
" clip-path="url(#p2915cf084e)" style="fill: #1f77b4"/>
   </g>
   <g id="patch_76">
    <path d="M 487.615213 299.997108 
L 492.13267 299.997108 
L 492.13267 183.409157 
L 487.615213 183.409157 
z
" clip-path="url(#p2915cf084e)" style="fill: #1f77b4"/>
   </g>
   <g id="patch_77">
    <path d="M 493.262034 299.997108 
L 497.77949 299.997108 
L 497.77949 342.503133 
L 493.262034 342.503133 
z
" clip-path="url(#p2915cf084e)" style="fill: #1f77b4"/>
   </g>
   <g id="patch_78">
    <path d="M 498.908855 299.997108 
L 503.426311 299.997108 
L 503.426311 323.071807 
L 498.908855 323.071807 
z
" clip-path="url(#p2915cf084e)" style="fill: #1f77b4"/>
   </g>
   <g id="patch_79">
    <path d="M 504.555675 299.997108 
L 509.073132 299.997108 
L 509.073132 306.069398 
L 504.555675 306.069398 
z
" clip-path="url(#p2915cf084e)" style="fill: #1f77b4"/>
   </g>
   <g id="patch_80">
    <path d="M 510.202496 299.997108 
L 514.719953 299.997108 
L 514.719953 319.428434 
L 510.202496 319.428434 
z
" clip-path="url(#p2915cf084e)" style="fill: #1f77b4"/>
   </g>
   <g id="patch_81">
    <path d="M 515.849317 299.997108 
L 520.366773 299.997108 
L 520.366773 252.633253 
L 515.849317 252.633253 
z
" clip-path="url(#p2915cf084e)" style="fill: #1f77b4"/>
   </g>
   <g id="patch_82">
    <path d="M 521.496137 299.997108 
L 526.013594 299.997108 
L 526.013594 228.344096 
L 521.496137 228.344096 
z
" clip-path="url(#p2915cf084e)" style="fill: #1f77b4"/>
   </g>
   <g id="patch_83">
    <path d="M 527.142958 299.997108 
L 531.660415 299.997108 
L 531.660415 313.356145 
L 527.142958 313.356145 
z
" clip-path="url(#p2915cf084e)" style="fill: #1f77b4"/>
   </g>
   <g id="patch_84">
    <path d="M 532.789779 299.997108 
L 537.307235 299.997108 
L 537.307235 334.001928 
L 532.789779 334.001928 
z
" clip-path="url(#p2915cf084e)" style="fill: #1f77b4"/>
   </g>
   <g id="patch_85">
    <path d="M 538.4366 299.997108 
L 542.954056 299.997108 
L 542.954056 337.645301 
L 538.4366 337.645301 
z
" clip-path="url(#p2915cf084e)" style="fill: #1f77b4"/>
   </g>
   <g id="patch_86">
    <path d="M 544.08342 299.997108 
L 548.600877 299.997108 
L 548.600877 315.78506 
L 544.08342 315.78506 
z
" clip-path="url(#p2915cf084e)" style="fill: #1f77b4"/>
   </g>
   <g id="patch_87">
    <path d="M 549.730241 299.997108 
L 554.247697 299.997108 
L 554.247697 272.064578 
L 549.730241 272.064578 
z
" clip-path="url(#p2915cf084e)" style="fill: #1f77b4"/>
   </g>
   <g id="patch_88">
    <path d="M 555.377062 299.997108 
L 559.894518 299.997108 
L 559.894518 326.715181 
L 555.377062 326.715181 
z
" clip-path="url(#p2915cf084e)" style="fill: #1f77b4"/>
   </g>
   <g id="patch_89">
    <path d="M 561.023882 299.997108 
L 565.541339 299.997108 
L 565.541339 325.500723 
L 561.023882 325.500723 
z
" clip-path="url(#p2915cf084e)" style="fill: #1f77b4"/>
   </g>
   <g id="patch_90">
    <path d="M 566.670703 299.997108 
L 571.18816 299.997108 
L 571.18816 298.782651 
L 566.670703 298.782651 
z
" clip-path="url(#p2915cf084e)" style="fill: #1f77b4"/>
   </g>
   <g id="patch_91">
    <path d="M 572.317524 299.997108 
L 576.83498 299.997108 
L 576.83498 338.859759 
L 572.317524 338.859759 
z
" clip-path="url(#p2915cf084e)" style="fill: #1f77b4"/>
   </g>
   <g id="patch_92">
    <path d="M 577.964344 299.997108 
L 582.481801 299.997108 
L 582.481801 228.344096 
L 577.964344 228.344096 
z
" clip-path="url(#p2915cf084e)" style="fill: #1f77b4"/>
   </g>
   <g id="patch_93">
    <path d="M 583.611165 299.997108 
L 588.128622 299.997108 
L 588.128622 201.626024 
L 583.611165 201.626024 
z
" clip-path="url(#p2915cf084e)" style="fill: #1f77b4"/>
   </g>
   <g id="patch_94">
    <path d="M 589.257986 299.997108 
L 593.775442 299.997108 
L 593.775442 263.563373 
L 589.257986 263.563373 
z
" clip-path="url(#p2915cf084e)" style="fill: #1f77b4"/>
   </g>
   <g id="patch_95">
    <path d="M 594.904807 299.997108 
L 599.422263 299.997108 
L 599.422263 336.430843 
L 594.904807 336.430843 
z
" clip-path="url(#p2915cf084e)" style="fill: #1f77b4"/>
   </g>
   <g id="patch_96">
    <path d="M 600.551627 299.997108 
L 605.069084 299.997108 
L 605.069084 289.066988 
L 600.551627 289.066988 
z
" clip-path="url(#p2915cf084e)" style="fill: #1f77b4"/>
   </g>
   <g id="patch_97">
    <path d="M 606.198448 299.997108 
L 610.715905 299.997108 
L 610.715905 272.064578 
L 606.198448 272.064578 
z
" clip-path="url(#p2915cf084e)" style="fill: #1f77b4"/>
   </g>
   <g id="patch_98">
    <path d="M 611.845269 299.997108 
L 616.362725 299.997108 
L 616.362725 353.433253 
L 611.845269 353.433253 
z
" clip-path="url(#p2915cf084e)" style="fill: #1f77b4"/>
   </g>
   <g id="patch_99">
    <path d="M 617.492089 299.997108 
L 622.009546 299.997108 
L 622.009546 329.144096 
L 617.492089 329.144096 
z
" clip-path="url(#p2915cf084e)" style="fill: #1f77b4"/>
   </g>
   <g id="patch_100">
    <path d="M 623.13891 299.997108 
L 627.656367 299.997108 
L 627.656367 326.715181 
L 623.13891 326.715181 
z
" clip-path="url(#p2915cf084e)" style="fill: #1f77b4"/>
   </g>
   <g id="patch_101">
    <path d="M 628.785731 299.997108 
L 633.303187 299.997108 
L 633.303187 355.862169 
L 628.785731 355.862169 
z
" clip-path="url(#p2915cf084e)" style="fill: #1f77b4"/>
   </g>
   <g id="patch_102">
    <path d="M 634.432552 299.997108 
L 638.950008 299.997108 
L 638.950008 338.859759 
L 634.432552 338.859759 
z
" clip-path="url(#p2915cf084e)" style="fill: #1f77b4"/>
   </g>
   <g id="patch_103">
    <path d="M 640.079372 299.997108 
L 644.596829 299.997108 
L 644.596829 278.136867 
L 640.079372 278.136867 
z
" clip-path="url(#p2915cf084e)" style="fill: #1f77b4"/>
   </g>
   <g id="patch_104">
    <path d="M 645.726193 299.997108 
L 650.24365 299.997108 
L 650.24365 281.780241 
L 645.726193 281.780241 
z
" clip-path="url(#p2915cf084e)" style="fill: #1f77b4"/>
   </g>
   <g id="patch_105">
    <path d="M 651.373014 299.997108 
L 655.89047 299.997108 
L 655.89047 230.773012 
L 651.373014 230.773012 
z
" clip-path="url(#p2915cf084e)" style="fill: #1f77b4"/>
   </g>
   <g id="patch_106">
    <path d="M 657.019834 299.997108 
L 661.537291 299.997108 
L 661.537291 187.05253 
L 657.019834 187.05253 
z
" clip-path="url(#p2915cf084e)" style="fill: #1f77b4"/>
   </g>
   <g id="patch_107">
    <path d="M 662.666655 299.997108 
L 667.184112 299.997108 
L 667.184112 148.18988 
L 662.666655 148.18988 
z
" clip-path="url(#p2915cf084e)" style="fill: #1f77b4"/>
   </g>
   <g id="patch_108">
    <path d="M 668.313476 299.997108 
L 672.830932 299.997108 
L 672.830932 174.907952 
L 668.313476 174.907952 
z
" clip-path="url(#p2915cf084e)" style="fill: #1f77b4"/>
   </g>
   <g id="patch_109">
    <path d="M 673.960297 299.997108 
L 678.477753 299.997108 
L 678.477753 360.72 
L 673.960297 360.72 
z
" clip-path="url(#p2915cf084e)" style="fill: #1f77b4"/>
   </g>
   <g id="patch_110">
    <path d="M 679.607117 299.997108 
L 684.124574 299.997108 
L 684.124574 315.78506 
L 679.607117 315.78506 
z
" clip-path="url(#p2915cf084e)" style="fill: #1f77b4"/>
   </g>
   <g id="matplotlib.axis_1">
    <g id="xtick_1">
     <g id="line2d_1">
      <path d="M 72.009209 375.84 
L 72.009209 43.2 
" clip-path="url(#p2915cf084e)" style="fill: none; stroke: #b0b0b0; stroke-width: 0.8; stroke-linecap: square"/>
     </g>
     <g id="line2d_2">
      <defs>
       <path id="m880d56c3e0" d="M 0 0 
L 0 3.5 
" style="stroke: #000000; stroke-width: 0.8"/>
      </defs>
      <g>
       <use xlink:href="#m880d56c3e0" x="72.009209" y="375.84" style="stroke: #000000; stroke-width: 0.8"/>
      </g>
     </g>
     <g id="text_1">
      <!-- Mär -->
      <g transform="translate(62.575615 390.438438) scale(0.1 -0.1)">
       <defs>
        <path id="DejaVuSans-4d" d="M 628 4666 
L 1569 4666 
L 2759 1491 
L 3956 4666 
L 4897 4666 
L 4897 0 
L 4281 0 
L 4281 4097 
L 3078 897 
L 2444 897 
L 1241 4097 
L 1241 0 
L 628 0 
L 628 4666 
z
" transform="scale(0.015625)"/>
        <path id="DejaVuSans-e4" d="M 2194 1759 
Q 1497 1759 1228 1600 
Q 959 1441 959 1056 
Q 959 750 1161 570 
Q 1363 391 1709 391 
Q 2188 391 2477 730 
Q 2766 1069 2766 1631 
L 2766 1759 
L 2194 1759 
z
M 3341 1997 
L 3341 0 
L 2766 0 
L 2766 531 
Q 2569 213 2275 61 
Q 1981 -91 1556 -91 
Q 1019 -91 701 211 
Q 384 513 384 1019 
Q 384 1609 779 1909 
Q 1175 2209 1959 2209 
L 2766 2209 
L 2766 2266 
Q 2766 2663 2505 2880 
Q 2244 3097 1772 3097 
Q 1472 3097 1187 3025 
Q 903 2953 641 2809 
L 641 3341 
Q 956 3463 1253 3523 
Q 1550 3584 1831 3584 
Q 2591 3584 2966 3190 
Q 3341 2797 3341 1997 
z
M 2150 4850 
L 2784 4850 
L 2784 4219 
L 2150 4219 
L 2150 4850 
z
M 928 4850 
L 1562 4850 
L 1562 4219 
L 928 4219 
L 928 4850 
z
" transform="scale(0.015625)"/>
        <path id="DejaVuSans-72" d="M 2631 2963 
Q 2534 3019 2420 3045 
Q 2306 3072 2169 3072 
Q 1681 3072 1420 2755 
Q 1159 2438 1159 1844 
L 1159 0 
L 581 0 
L 581 3500 
L 1159 3500 
L 1159 2956 
Q 1341 3275 1631 3429 
Q 1922 3584 2338 3584 
Q 2397 3584 2469 3576 
Q 2541 3569 2628 3553 
L 2631 2963 
z
" transform="scale(0.015625)"/>
       </defs>
       <use xlink:href="#DejaVuSans-4d"/>
       <use xlink:href="#DejaVuSans-e4" transform="translate(86.279297 0)"/>
       <use xlink:href="#DejaVuSans-72" transform="translate(147.558594 0)"/>
      </g>
     </g>
    </g>
    <g id="xtick_2">
     <g id="line2d_3">
      <path d="M 151.064699 375.84 
L 151.064699 43.2 
" clip-path="url(#p2915cf084e)" style="fill: none; stroke: #b0b0b0; stroke-width: 0.8; stroke-linecap: square"/>
     </g>
     <g id="line2d_4">
      <g>
       <use xlink:href="#m880d56c3e0" x="151.064699" y="375.84" style="stroke: #000000; stroke-width: 0.8"/>
      </g>
     </g>
     <g id="text_2">
      <!-- 15 -->
      <g transform="translate(144.702199 390.438438) scale(0.1 -0.1)">
       <defs>
        <path id="DejaVuSans-31" d="M 794 531 
L 1825 531 
L 1825 4091 
L 703 3866 
L 703 4441 
L 1819 4666 
L 2450 4666 
L 2450 531 
L 3481 531 
L 3481 0 
L 794 0 
L 794 531 
z
" transform="scale(0.015625)"/>
        <path id="DejaVuSans-35" d="M 691 4666 
L 3169 4666 
L 3169 4134 
L 1269 4134 
L 1269 2991 
Q 1406 3038 1543 3061 
Q 1681 3084 1819 3084 
Q 2600 3084 3056 2656 
Q 3513 2228 3513 1497 
Q 3513 744 3044 326 
Q 2575 -91 1722 -91 
Q 1428 -91 1123 -41 
Q 819 9 494 109 
L 494 744 
Q 775 591 1075 516 
Q 1375 441 1709 441 
Q 2250 441 2565 725 
Q 2881 1009 2881 1497 
Q 2881 1984 2565 2268 
Q 2250 2553 1709 2553 
Q 1456 2553 1204 2497 
Q 953 2441 691 2322 
L 691 4666 
z
" transform="scale(0.015625)"/>
       </defs>
       <use xlink:href="#DejaVuSans-31"/>
       <use xlink:href="#DejaVuSans-35" transform="translate(63.623047 0)"/>
      </g>
     </g>
    </g>
    <g id="xtick_3">
     <g id="line2d_5">
      <path d="M 247.060651 375.84 
L 247.060651 43.2 
" clip-path="url(#p2915cf084e)" style="fill: none; stroke: #b0b0b0; stroke-width: 0.8; stroke-linecap: square"/>
     </g>
     <g id="line2d_6">
      <g>
       <use xlink:href="#m880d56c3e0" x="247.060651" y="375.84" style="stroke: #000000; stroke-width: 0.8"/>
      </g>
     </g>
     <g id="text_3">
      <!-- Apr -->
      <g transform="translate(238.410651 390.438438) scale(0.1 -0.1)">
       <defs>
        <path id="DejaVuSans-41" d="M 2188 4044 
L 1331 1722 
L 3047 1722 
L 2188 4044 
z
M 1831 4666 
L 2547 4666 
L 4325 0 
L 3669 0 
L 3244 1197 
L 1141 1197 
L 716 0 
L 50 0 
L 1831 4666 
z
" transform="scale(0.015625)"/>
        <path id="DejaVuSans-70" d="M 1159 525 
L 1159 -1331 
L 581 -1331 
L 581 3500 
L 1159 3500 
L 1159 2969 
Q 1341 3281 1617 3432 
Q 1894 3584 2278 3584 
Q 2916 3584 3314 3078 
Q 3713 2572 3713 1747 
Q 3713 922 3314 415 
Q 2916 -91 2278 -91 
Q 1894 -91 1617 61 
Q 1341 213 1159 525 
z
M 3116 1747 
Q 3116 2381 2855 2742 
Q 2594 3103 2138 3103 
Q 1681 3103 1420 2742 
Q 1159 2381 1159 1747 
Q 1159 1113 1420 752 
Q 1681 391 2138 391 
Q 2594 391 2855 752 
Q 3116 1113 3116 1747 
z
" transform="scale(0.015625)"/>
       </defs>
       <use xlink:href="#DejaVuSans-41"/>
       <use xlink:href="#DejaVuSans-70" transform="translate(68.408203 0)"/>
       <use xlink:href="#DejaVuSans-72" transform="translate(131.884766 0)"/>
      </g>
     </g>
    </g>
    <g id="xtick_4">
     <g id="line2d_7">
      <path d="M 326.116141 375.84 
L 326.116141 43.2 
" clip-path="url(#p2915cf084e)" style="fill: none; stroke: #b0b0b0; stroke-width: 0.8; stroke-linecap: square"/>
     </g>
     <g id="line2d_8">
      <g>
       <use xlink:href="#m880d56c3e0" x="326.116141" y="375.84" style="stroke: #000000; stroke-width: 0.8"/>
      </g>
     </g>
     <g id="text_4">
      <!-- 15 -->
      <g transform="translate(319.753641 390.438438) scale(0.1 -0.1)">
       <use xlink:href="#DejaVuSans-31"/>
       <use xlink:href="#DejaVuSans-35" transform="translate(63.623047 0)"/>
      </g>
     </g>
    </g>
    <g id="xtick_5">
     <g id="line2d_9">
      <path d="M 416.465272 375.84 
L 416.465272 43.2 
" clip-path="url(#p2915cf084e)" style="fill: none; stroke: #b0b0b0; stroke-width: 0.8; stroke-linecap: square"/>
     </g>
     <g id="line2d_10">
      <g>
       <use xlink:href="#m880d56c3e0" x="416.465272" y="375.84" style="stroke: #000000; stroke-width: 0.8"/>
      </g>
     </g>
     <g id="text_5">
      <!-- Mai -->
      <g transform="translate(407.698085 390.438438) scale(0.1 -0.1)">
       <defs>
        <path id="DejaVuSans-61" d="M 2194 1759 
Q 1497 1759 1228 1600 
Q 959 1441 959 1056 
Q 959 750 1161 570 
Q 1363 391 1709 391 
Q 2188 391 2477 730 
Q 2766 1069 2766 1631 
L 2766 1759 
L 2194 1759 
z
M 3341 1997 
L 3341 0 
L 2766 0 
L 2766 531 
Q 2569 213 2275 61 
Q 1981 -91 1556 -91 
Q 1019 -91 701 211 
Q 384 513 384 1019 
Q 384 1609 779 1909 
Q 1175 2209 1959 2209 
L 2766 2209 
L 2766 2266 
Q 2766 2663 2505 2880 
Q 2244 3097 1772 3097 
Q 1472 3097 1187 3025 
Q 903 2953 641 2809 
L 641 3341 
Q 956 3463 1253 3523 
Q 1550 3584 1831 3584 
Q 2591 3584 2966 3190 
Q 3341 2797 3341 1997 
z
" transform="scale(0.015625)"/>
        <path id="DejaVuSans-69" d="M 603 3500 
L 1178 3500 
L 1178 0 
L 603 0 
L 603 3500 
z
M 603 4863 
L 1178 4863 
L 1178 4134 
L 603 4134 
L 603 4863 
z
" transform="scale(0.015625)"/>
       </defs>
       <use xlink:href="#DejaVuSans-4d"/>
       <use xlink:href="#DejaVuSans-61" transform="translate(86.279297 0)"/>
       <use xlink:href="#DejaVuSans-69" transform="translate(147.558594 0)"/>
      </g>
     </g>
    </g>
    <g id="xtick_6">
     <g id="line2d_11">
      <path d="M 495.520762 375.84 
L 495.520762 43.2 
" clip-path="url(#p2915cf084e)" style="fill: none; stroke: #b0b0b0; stroke-width: 0.8; stroke-linecap: square"/>
     </g>
     <g id="line2d_12">
      <g>
       <use xlink:href="#m880d56c3e0" x="495.520762" y="375.84" style="stroke: #000000; stroke-width: 0.8"/>
      </g>
     </g>
     <g id="text_6">
      <!-- 15 -->
      <g transform="translate(489.158262 390.438438) scale(0.1 -0.1)">
       <use xlink:href="#DejaVuSans-31"/>
       <use xlink:href="#DejaVuSans-35" transform="translate(63.623047 0)"/>
      </g>
     </g>
    </g>
    <g id="xtick_7">
     <g id="line2d_13">
      <path d="M 591.516714 375.84 
L 591.516714 43.2 
" clip-path="url(#p2915cf084e)" style="fill: none; stroke: #b0b0b0; stroke-width: 0.8; stroke-linecap: square"/>
     </g>
     <g id="line2d_14">
      <g>
       <use xlink:href="#m880d56c3e0" x="591.516714" y="375.84" style="stroke: #000000; stroke-width: 0.8"/>
      </g>
     </g>
     <g id="text_7">
      <!-- Jun -->
      <g transform="translate(583.704214 390.438438) scale(0.1 -0.1)">
       <defs>
        <path id="DejaVuSans-4a" d="M 628 4666 
L 1259 4666 
L 1259 325 
Q 1259 -519 939 -900 
Q 619 -1281 -91 -1281 
L -331 -1281 
L -331 -750 
L -134 -750 
Q 284 -750 456 -515 
Q 628 -281 628 325 
L 628 4666 
z
" transform="scale(0.015625)"/>
        <path id="DejaVuSans-75" d="M 544 1381 
L 544 3500 
L 1119 3500 
L 1119 1403 
Q 1119 906 1312 657 
Q 1506 409 1894 409 
Q 2359 409 2629 706 
Q 2900 1003 2900 1516 
L 2900 3500 
L 3475 3500 
L 3475 0 
L 2900 0 
L 2900 538 
Q 2691 219 2414 64 
Q 2138 -91 1772 -91 
Q 1169 -91 856 284 
Q 544 659 544 1381 
z
M 1991 3584 
L 1991 3584 
z
" transform="scale(0.015625)"/>
        <path id="DejaVuSans-6e" d="M 3513 2113 
L 3513 0 
L 2938 0 
L 2938 2094 
Q 2938 2591 2744 2837 
Q 2550 3084 2163 3084 
Q 1697 3084 1428 2787 
Q 1159 2491 1159 1978 
L 1159 0 
L 581 0 
L 581 3500 
L 1159 3500 
L 1159 2956 
Q 1366 3272 1645 3428 
Q 1925 3584 2291 3584 
Q 2894 3584 3203 3211 
Q 3513 2838 3513 2113 
z
" transform="scale(0.015625)"/>
       </defs>
       <use xlink:href="#DejaVuSans-4a"/>
       <use xlink:href="#DejaVuSans-75" transform="translate(29.492188 0)"/>
       <use xlink:href="#DejaVuSans-6e" transform="translate(92.871094 0)"/>
      </g>
     </g>
    </g>
    <g id="xtick_8">
     <g id="line2d_15">
      <path d="M 670.572204 375.84 
L 670.572204 43.2 
" clip-path="url(#p2915cf084e)" style="fill: none; stroke: #b0b0b0; stroke-width: 0.8; stroke-linecap: square"/>
     </g>
     <g id="line2d_16">
      <g>
       <use xlink:href="#m880d56c3e0" x="670.572204" y="375.84" style="stroke: #000000; stroke-width: 0.8"/>
      </g>
     </g>
     <g id="text_8">
      <!-- 15 -->
      <g transform="translate(664.209704 390.438438) scale(0.1 -0.1)">
       <use xlink:href="#DejaVuSans-31"/>
       <use xlink:href="#DejaVuSans-35" transform="translate(63.623047 0)"/>
      </g>
     </g>
    </g>
    <g id="xtick_9">
     <g id="line2d_17">
      <defs>
       <path id="m273e59899f" d="M 0 0 
L 0 2 
" style="stroke: #000000; stroke-width: 0.6"/>
      </defs>
      <g>
       <use xlink:href="#m273e59899f" x="60.715567" y="375.84" style="stroke: #000000; stroke-width: 0.6"/>
      </g>
     </g>
    </g>
    <g id="xtick_10">
     <g id="line2d_18">
      <g>
       <use xlink:href="#m273e59899f" x="100.243312" y="375.84" style="stroke: #000000; stroke-width: 0.6"/>
      </g>
     </g>
    </g>
    <g id="xtick_11">
     <g id="line2d_19">
      <g>
       <use xlink:href="#m273e59899f" x="139.771057" y="375.84" style="stroke: #000000; stroke-width: 0.6"/>
      </g>
     </g>
    </g>
    <g id="xtick_12">
     <g id="line2d_20">
      <g>
       <use xlink:href="#m273e59899f" x="179.298802" y="375.84" style="stroke: #000000; stroke-width: 0.6"/>
      </g>
     </g>
    </g>
    <g id="xtick_13">
     <g id="line2d_21">
      <g>
       <use xlink:href="#m273e59899f" x="218.826547" y="375.84" style="stroke: #000000; stroke-width: 0.6"/>
      </g>
     </g>
    </g>
    <g id="xtick_14">
     <g id="line2d_22">
      <g>
       <use xlink:href="#m273e59899f" x="258.354292" y="375.84" style="stroke: #000000; stroke-width: 0.6"/>
      </g>
     </g>
    </g>
    <g id="xtick_15">
     <g id="line2d_23">
      <g>
       <use xlink:href="#m273e59899f" x="297.882037" y="375.84" style="stroke: #000000; stroke-width: 0.6"/>
      </g>
     </g>
    </g>
    <g id="xtick_16">
     <g id="line2d_24">
      <g>
       <use xlink:href="#m273e59899f" x="337.409782" y="375.84" style="stroke: #000000; stroke-width: 0.6"/>
      </g>
     </g>
    </g>
    <g id="xtick_17">
     <g id="line2d_25">
      <g>
       <use xlink:href="#m273e59899f" x="376.937527" y="375.84" style="stroke: #000000; stroke-width: 0.6"/>
      </g>
     </g>
    </g>
    <g id="xtick_18">
     <g id="line2d_26">
      <g>
       <use xlink:href="#m273e59899f" x="455.993017" y="375.84" style="stroke: #000000; stroke-width: 0.6"/>
      </g>
     </g>
    </g>
    <g id="xtick_19">
     <g id="line2d_27">
      <g>
       <use xlink:href="#m273e59899f" x="535.048507" y="375.84" style="stroke: #000000; stroke-width: 0.6"/>
      </g>
     </g>
    </g>
    <g id="xtick_20">
     <g id="line2d_28">
      <g>
       <use xlink:href="#m273e59899f" x="574.576252" y="375.84" style="stroke: #000000; stroke-width: 0.6"/>
      </g>
     </g>
    </g>
    <g id="xtick_21">
     <g id="line2d_29">
      <g>
       <use xlink:href="#m273e59899f" x="614.103997" y="375.84" style="stroke: #000000; stroke-width: 0.6"/>
      </g>
     </g>
    </g>
    <g id="xtick_22">
     <g id="line2d_30">
      <g>
       <use xlink:href="#m273e59899f" x="653.631742" y="375.84" style="stroke: #000000; stroke-width: 0.6"/>
      </g>
     </g>
    </g>
    <g id="xtick_23">
     <g id="line2d_31">
      <g>
       <use xlink:href="#m273e59899f" x="693.159487" y="375.84" style="stroke: #000000; stroke-width: 0.6"/>
      </g>
     </g>
    </g>
    <g id="text_9">
     <!-- Monat -->
     <g transform="translate(364.194531 404.116563) scale(0.1 -0.1)">
      <defs>
       <path id="DejaVuSans-6f" d="M 1959 3097 
Q 1497 3097 1228 2736 
Q 959 2375 959 1747 
Q 959 1119 1226 758 
Q 1494 397 1959 397 
Q 2419 397 2687 759 
Q 2956 1122 2956 1747 
Q 2956 2369 2687 2733 
Q 2419 3097 1959 3097 
z
M 1959 3584 
Q 2709 3584 3137 3096 
Q 3566 2609 3566 1747 
Q 3566 888 3137 398 
Q 2709 -91 1959 -91 
Q 1206 -91 779 398 
Q 353 888 353 1747 
Q 353 2609 779 3096 
Q 1206 3584 1959 3584 
z
" transform="scale(0.015625)"/>
       <path id="DejaVuSans-74" d="M 1172 4494 
L 1172 3500 
L 2356 3500 
L 2356 3053 
L 1172 3053 
L 1172 1153 
Q 1172 725 1289 603 
Q 1406 481 1766 481 
L 2356 481 
L 2356 0 
L 1766 0 
Q 1100 0 847 248 
Q 594 497 594 1153 
L 594 3053 
L 172 3053 
L 172 3500 
L 594 3500 
L 594 4494 
L 1172 4494 
z
" transform="scale(0.015625)"/>
      </defs>
      <use xlink:href="#DejaVuSans-4d"/>
      <use xlink:href="#DejaVuSans-6f" transform="translate(86.279297 0)"/>
      <use xlink:href="#DejaVuSans-6e" transform="translate(147.460938 0)"/>
      <use xlink:href="#DejaVuSans-61" transform="translate(210.839844 0)"/>
      <use xlink:href="#DejaVuSans-74" transform="translate(272.119141 0)"/>
     </g>
    </g>
   </g>
   <g id="matplotlib.axis_2">
    <g id="ytick_1">
     <g id="line2d_32">
      <path d="M 44.960938 360.72 
L 714.560938 360.72 
" clip-path="url(#p2915cf084e)" style="fill: none; stroke: #b0b0b0; stroke-width: 0.8; stroke-linecap: square"/>
     </g>
     <g id="line2d_33">
      <defs>
       <path id="maafd52c56a" d="M 0 0 
L -3.5 0 
" style="stroke: #000000; stroke-width: 0.8"/>
      </defs>
      <g>
       <use xlink:href="#maafd52c56a" x="44.960938" y="360.72" style="stroke: #000000; stroke-width: 0.8"/>
      </g>
     </g>
     <g id="text_10">
      <!-- −0.5 -->
      <g transform="translate(13.678125 364.519219) scale(0.1 -0.1)">
       <defs>
        <path id="DejaVuSans-2212" d="M 678 2272 
L 4684 2272 
L 4684 1741 
L 678 1741 
L 678 2272 
z
" transform="scale(0.015625)"/>
        <path id="DejaVuSans-30" d="M 2034 4250 
Q 1547 4250 1301 3770 
Q 1056 3291 1056 2328 
Q 1056 1369 1301 889 
Q 1547 409 2034 409 
Q 2525 409 2770 889 
Q 3016 1369 3016 2328 
Q 3016 3291 2770 3770 
Q 2525 4250 2034 4250 
z
M 2034 4750 
Q 2819 4750 3233 4129 
Q 3647 3509 3647 2328 
Q 3647 1150 3233 529 
Q 2819 -91 2034 -91 
Q 1250 -91 836 529 
Q 422 1150 422 2328 
Q 422 3509 836 4129 
Q 1250 4750 2034 4750 
z
" transform="scale(0.015625)"/>
        <path id="DejaVuSans-2e" d="M 684 794 
L 1344 794 
L 1344 0 
L 684 0 
L 684 794 
z
" transform="scale(0.015625)"/>
       </defs>
       <use xlink:href="#DejaVuSans-2212"/>
       <use xlink:href="#DejaVuSans-30" transform="translate(83.789062 0)"/>
       <use xlink:href="#DejaVuSans-2e" transform="translate(147.412109 0)"/>
       <use xlink:href="#DejaVuSans-35" transform="translate(179.199219 0)"/>
      </g>
     </g>
    </g>
    <g id="ytick_2">
     <g id="line2d_34">
      <path d="M 44.960938 299.997108 
L 714.560938 299.997108 
" clip-path="url(#p2915cf084e)" style="fill: none; stroke: #b0b0b0; stroke-width: 0.8; stroke-linecap: square"/>
     </g>
     <g id="line2d_35">
      <g>
       <use xlink:href="#maafd52c56a" x="44.960938" y="299.997108" style="stroke: #000000; stroke-width: 0.8"/>
      </g>
     </g>
     <g id="text_11">
      <!-- 0.0 -->
      <g transform="translate(22.057813 303.796327) scale(0.1 -0.1)">
       <use xlink:href="#DejaVuSans-30"/>
       <use xlink:href="#DejaVuSans-2e" transform="translate(63.623047 0)"/>
       <use xlink:href="#DejaVuSans-30" transform="translate(95.410156 0)"/>
      </g>
     </g>
    </g>
    <g id="ytick_3">
     <g id="line2d_36">
      <path d="M 44.960938 239.274217 
L 714.560938 239.274217 
" clip-path="url(#p2915cf084e)" style="fill: none; stroke: #b0b0b0; stroke-width: 0.8; stroke-linecap: square"/>
     </g>
     <g id="line2d_37">
      <g>
       <use xlink:href="#maafd52c56a" x="44.960938" y="239.274217" style="stroke: #000000; stroke-width: 0.8"/>
      </g>
     </g>
     <g id="text_12">
      <!-- 0.5 -->
      <g transform="translate(22.057813 243.073436) scale(0.1 -0.1)">
       <use xlink:href="#DejaVuSans-30"/>
       <use xlink:href="#DejaVuSans-2e" transform="translate(63.623047 0)"/>
       <use xlink:href="#DejaVuSans-35" transform="translate(95.410156 0)"/>
      </g>
     </g>
    </g>
    <g id="ytick_4">
     <g id="line2d_38">
      <path d="M 44.960938 178.551325 
L 714.560938 178.551325 
" clip-path="url(#p2915cf084e)" style="fill: none; stroke: #b0b0b0; stroke-width: 0.8; stroke-linecap: square"/>
     </g>
     <g id="line2d_39">
      <g>
       <use xlink:href="#maafd52c56a" x="44.960938" y="178.551325" style="stroke: #000000; stroke-width: 0.8"/>
      </g>
     </g>
     <g id="text_13">
      <!-- 1.0 -->
      <g transform="translate(22.057813 182.350544) scale(0.1 -0.1)">
       <use xlink:href="#DejaVuSans-31"/>
       <use xlink:href="#DejaVuSans-2e" transform="translate(63.623047 0)"/>
       <use xlink:href="#DejaVuSans-30" transform="translate(95.410156 0)"/>
      </g>
     </g>
    </g>
    <g id="ytick_5">
     <g id="line2d_40">
      <path d="M 44.960938 117.828434 
L 714.560938 117.828434 
" clip-path="url(#p2915cf084e)" style="fill: none; stroke: #b0b0b0; stroke-width: 0.8; stroke-linecap: square"/>
     </g>
     <g id="line2d_41">
      <g>
       <use xlink:href="#maafd52c56a" x="44.960938" y="117.828434" style="stroke: #000000; stroke-width: 0.8"/>
      </g>
     </g>
     <g id="text_14">
      <!-- 1.5 -->
      <g transform="translate(22.057813 121.627652) scale(0.1 -0.1)">
       <use xlink:href="#DejaVuSans-31"/>
       <use xlink:href="#DejaVuSans-2e" transform="translate(63.623047 0)"/>
       <use xlink:href="#DejaVuSans-35" transform="translate(95.410156 0)"/>
      </g>
     </g>
    </g>
    <g id="ytick_6">
     <g id="line2d_42">
      <path d="M 44.960938 57.105542 
L 714.560938 57.105542 
" clip-path="url(#p2915cf084e)" style="fill: none; stroke: #b0b0b0; stroke-width: 0.8; stroke-linecap: square"/>
     </g>
     <g id="line2d_43">
      <g>
       <use xlink:href="#maafd52c56a" x="44.960938" y="57.105542" style="stroke: #000000; stroke-width: 0.8"/>
      </g>
     </g>
     <g id="text_15">
      <!-- 2.0 -->
      <g transform="translate(22.057813 60.904761) scale(0.1 -0.1)">
       <defs>
        <path id="DejaVuSans-32" d="M 1228 531 
L 3431 531 
L 3431 0 
L 469 0 
L 469 531 
Q 828 903 1448 1529 
Q 2069 2156 2228 2338 
Q 2531 2678 2651 2914 
Q 2772 3150 2772 3378 
Q 2772 3750 2511 3984 
Q 2250 4219 1831 4219 
Q 1534 4219 1204 4116 
Q 875 4013 500 3803 
L 500 4441 
Q 881 4594 1212 4672 
Q 1544 4750 1819 4750 
Q 2544 4750 2975 4387 
Q 3406 4025 3406 3419 
Q 3406 3131 3298 2873 
Q 3191 2616 2906 2266 
Q 2828 2175 2409 1742 
Q 1991 1309 1228 531 
z
" transform="scale(0.015625)"/>
       </defs>
       <use xlink:href="#DejaVuSans-32"/>
       <use xlink:href="#DejaVuSans-2e" transform="translate(63.623047 0)"/>
       <use xlink:href="#DejaVuSans-30" transform="translate(95.410156 0)"/>
      </g>
     </g>
    </g>
    <g id="ytick_7">
     <g id="line2d_44">
      <defs>
       <path id="mf3ad5f271d" d="M 0 0 
L -2 0 
" style="stroke: #000000; stroke-width: 0.6"/>
      </defs>
      <g>
       <use xlink:href="#mf3ad5f271d" x="44.960938" y="372.864578" style="stroke: #000000; stroke-width: 0.6"/>
      </g>
     </g>
    </g>
    <g id="ytick_8">
     <g id="line2d_45">
      <g>
       <use xlink:href="#mf3ad5f271d" x="44.960938" y="348.575422" style="stroke: #000000; stroke-width: 0.6"/>
      </g>
     </g>
    </g>
    <g id="ytick_9">
     <g id="line2d_46">
      <g>
       <use xlink:href="#mf3ad5f271d" x="44.960938" y="336.430843" style="stroke: #000000; stroke-width: 0.6"/>
      </g>
     </g>
    </g>
    <g id="ytick_10">
     <g id="line2d_47">
      <g>
       <use xlink:href="#mf3ad5f271d" x="44.960938" y="324.286265" style="stroke: #000000; stroke-width: 0.6"/>
      </g>
     </g>
    </g>
    <g id="ytick_11">
     <g id="line2d_48">
      <g>
       <use xlink:href="#mf3ad5f271d" x="44.960938" y="312.141687" style="stroke: #000000; stroke-width: 0.6"/>
      </g>
     </g>
    </g>
    <g id="ytick_12">
     <g id="line2d_49">
      <g>
       <use xlink:href="#mf3ad5f271d" x="44.960938" y="287.85253" style="stroke: #000000; stroke-width: 0.6"/>
      </g>
     </g>
    </g>
    <g id="ytick_13">
     <g id="line2d_50">
      <g>
       <use xlink:href="#mf3ad5f271d" x="44.960938" y="275.707952" style="stroke: #000000; stroke-width: 0.6"/>
      </g>
     </g>
    </g>
    <g id="ytick_14">
     <g id="line2d_51">
      <g>
       <use xlink:href="#mf3ad5f271d" x="44.960938" y="263.563373" style="stroke: #000000; stroke-width: 0.6"/>
      </g>
     </g>
    </g>
    <g id="ytick_15">
     <g id="line2d_52">
      <g>
       <use xlink:href="#mf3ad5f271d" x="44.960938" y="251.418795" style="stroke: #000000; stroke-width: 0.6"/>
      </g>
     </g>
    </g>
    <g id="ytick_16">
     <g id="line2d_53">
      <g>
       <use xlink:href="#mf3ad5f271d" x="44.960938" y="227.129639" style="stroke: #000000; stroke-width: 0.6"/>
      </g>
     </g>
    </g>
    <g id="ytick_17">
     <g id="line2d_54">
      <g>
       <use xlink:href="#mf3ad5f271d" x="44.960938" y="214.98506" style="stroke: #000000; stroke-width: 0.6"/>
      </g>
     </g>
    </g>
    <g id="ytick_18">
     <g id="line2d_55">
      <g>
       <use xlink:href="#mf3ad5f271d" x="44.960938" y="202.840482" style="stroke: #000000; stroke-width: 0.6"/>
      </g>
     </g>
    </g>
    <g id="ytick_19">
     <g id="line2d_56">
      <g>
       <use xlink:href="#mf3ad5f271d" x="44.960938" y="190.695904" style="stroke: #000000; stroke-width: 0.6"/>
      </g>
     </g>
    </g>
    <g id="ytick_20">
     <g id="line2d_57">
      <g>
       <use xlink:href="#mf3ad5f271d" x="44.960938" y="166.406747" style="stroke: #000000; stroke-width: 0.6"/>
      </g>
     </g>
    </g>
    <g id="ytick_21">
     <g id="line2d_58">
      <g>
       <use xlink:href="#mf3ad5f271d" x="44.960938" y="154.262169" style="stroke: #000000; stroke-width: 0.6"/>
      </g>
     </g>
    </g>
    <g id="ytick_22">
     <g id="line2d_59">
      <g>
       <use xlink:href="#mf3ad5f271d" x="44.960938" y="142.11759" style="stroke: #000000; stroke-width: 0.6"/>
      </g>
     </g>
    </g>
    <g id="ytick_23">
     <g id="line2d_60">
      <g>
       <use xlink:href="#mf3ad5f271d" x="44.960938" y="129.973012" style="stroke: #000000; stroke-width: 0.6"/>
      </g>
     </g>
    </g>
    <g id="ytick_24">
     <g id="line2d_61">
      <g>
       <use xlink:href="#mf3ad5f271d" x="44.960938" y="105.683855" style="stroke: #000000; stroke-width: 0.6"/>
      </g>
     </g>
    </g>
    <g id="ytick_25">
     <g id="line2d_62">
      <g>
       <use xlink:href="#mf3ad5f271d" x="44.960938" y="93.539277" style="stroke: #000000; stroke-width: 0.6"/>
      </g>
     </g>
    </g>
    <g id="ytick_26">
     <g id="line2d_63">
      <g>
       <use xlink:href="#mf3ad5f271d" x="44.960938" y="81.394699" style="stroke: #000000; stroke-width: 0.6"/>
      </g>
     </g>
    </g>
    <g id="ytick_27">
     <g id="line2d_64">
      <g>
       <use xlink:href="#mf3ad5f271d" x="44.960938" y="69.25012" style="stroke: #000000; stroke-width: 0.6"/>
      </g>
     </g>
    </g>
    <g id="ytick_28">
     <g id="line2d_65">
      <g>
       <use xlink:href="#mf3ad5f271d" x="44.960938" y="44.960964" style="stroke: #000000; stroke-width: 0.6"/>
      </g>
     </g>
    </g>
    <g id="text_16">
     <!-- Gewichtänderung [kg] -->
     <g transform="translate(7.598438 265.437969) rotate(-90) scale(0.1 -0.1)">
      <defs>
       <path id="DejaVuSans-47" d="M 3809 666 
L 3809 1919 
L 2778 1919 
L 2778 2438 
L 4434 2438 
L 4434 434 
Q 4069 175 3628 42 
Q 3188 -91 2688 -91 
Q 1594 -91 976 548 
Q 359 1188 359 2328 
Q 359 3472 976 4111 
Q 1594 4750 2688 4750 
Q 3144 4750 3555 4637 
Q 3966 4525 4313 4306 
L 4313 3634 
Q 3963 3931 3569 4081 
Q 3175 4231 2741 4231 
Q 1884 4231 1454 3753 
Q 1025 3275 1025 2328 
Q 1025 1384 1454 906 
Q 1884 428 2741 428 
Q 3075 428 3337 486 
Q 3600 544 3809 666 
z
" transform="scale(0.015625)"/>
       <path id="DejaVuSans-65" d="M 3597 1894 
L 3597 1613 
L 953 1613 
Q 991 1019 1311 708 
Q 1631 397 2203 397 
Q 2534 397 2845 478 
Q 3156 559 3463 722 
L 3463 178 
Q 3153 47 2828 -22 
Q 2503 -91 2169 -91 
Q 1331 -91 842 396 
Q 353 884 353 1716 
Q 353 2575 817 3079 
Q 1281 3584 2069 3584 
Q 2775 3584 3186 3129 
Q 3597 2675 3597 1894 
z
M 3022 2063 
Q 3016 2534 2758 2815 
Q 2500 3097 2075 3097 
Q 1594 3097 1305 2825 
Q 1016 2553 972 2059 
L 3022 2063 
z
" transform="scale(0.015625)"/>
       <path id="DejaVuSans-77" d="M 269 3500 
L 844 3500 
L 1563 769 
L 2278 3500 
L 2956 3500 
L 3675 769 
L 4391 3500 
L 4966 3500 
L 4050 0 
L 3372 0 
L 2619 2869 
L 1863 0 
L 1184 0 
L 269 3500 
z
" transform="scale(0.015625)"/>
       <path id="DejaVuSans-63" d="M 3122 3366 
L 3122 2828 
Q 2878 2963 2633 3030 
Q 2388 3097 2138 3097 
Q 1578 3097 1268 2742 
Q 959 2388 959 1747 
Q 959 1106 1268 751 
Q 1578 397 2138 397 
Q 2388 397 2633 464 
Q 2878 531 3122 666 
L 3122 134 
Q 2881 22 2623 -34 
Q 2366 -91 2075 -91 
Q 1284 -91 818 406 
Q 353 903 353 1747 
Q 353 2603 823 3093 
Q 1294 3584 2113 3584 
Q 2378 3584 2631 3529 
Q 2884 3475 3122 3366 
z
" transform="scale(0.015625)"/>
       <path id="DejaVuSans-68" d="M 3513 2113 
L 3513 0 
L 2938 0 
L 2938 2094 
Q 2938 2591 2744 2837 
Q 2550 3084 2163 3084 
Q 1697 3084 1428 2787 
Q 1159 2491 1159 1978 
L 1159 0 
L 581 0 
L 581 4863 
L 1159 4863 
L 1159 2956 
Q 1366 3272 1645 3428 
Q 1925 3584 2291 3584 
Q 2894 3584 3203 3211 
Q 3513 2838 3513 2113 
z
" transform="scale(0.015625)"/>
       <path id="DejaVuSans-64" d="M 2906 2969 
L 2906 4863 
L 3481 4863 
L 3481 0 
L 2906 0 
L 2906 525 
Q 2725 213 2448 61 
Q 2172 -91 1784 -91 
Q 1150 -91 751 415 
Q 353 922 353 1747 
Q 353 2572 751 3078 
Q 1150 3584 1784 3584 
Q 2172 3584 2448 3432 
Q 2725 3281 2906 2969 
z
M 947 1747 
Q 947 1113 1208 752 
Q 1469 391 1925 391 
Q 2381 391 2643 752 
Q 2906 1113 2906 1747 
Q 2906 2381 2643 2742 
Q 2381 3103 1925 3103 
Q 1469 3103 1208 2742 
Q 947 2381 947 1747 
z
" transform="scale(0.015625)"/>
       <path id="DejaVuSans-67" d="M 2906 1791 
Q 2906 2416 2648 2759 
Q 2391 3103 1925 3103 
Q 1463 3103 1205 2759 
Q 947 2416 947 1791 
Q 947 1169 1205 825 
Q 1463 481 1925 481 
Q 2391 481 2648 825 
Q 2906 1169 2906 1791 
z
M 3481 434 
Q 3481 -459 3084 -895 
Q 2688 -1331 1869 -1331 
Q 1566 -1331 1297 -1286 
Q 1028 -1241 775 -1147 
L 775 -588 
Q 1028 -725 1275 -790 
Q 1522 -856 1778 -856 
Q 2344 -856 2625 -561 
Q 2906 -266 2906 331 
L 2906 616 
Q 2728 306 2450 153 
Q 2172 0 1784 0 
Q 1141 0 747 490 
Q 353 981 353 1791 
Q 353 2603 747 3093 
Q 1141 3584 1784 3584 
Q 2172 3584 2450 3431 
Q 2728 3278 2906 2969 
L 2906 3500 
L 3481 3500 
L 3481 434 
z
" transform="scale(0.015625)"/>
       <path id="DejaVuSans-20" transform="scale(0.015625)"/>
       <path id="DejaVuSans-5b" d="M 550 4863 
L 1875 4863 
L 1875 4416 
L 1125 4416 
L 1125 -397 
L 1875 -397 
L 1875 -844 
L 550 -844 
L 550 4863 
z
" transform="scale(0.015625)"/>
       <path id="DejaVuSans-6b" d="M 581 4863 
L 1159 4863 
L 1159 1991 
L 2875 3500 
L 3609 3500 
L 1753 1863 
L 3688 0 
L 2938 0 
L 1159 1709 
L 1159 0 
L 581 0 
L 581 4863 
z
" transform="scale(0.015625)"/>
       <path id="DejaVuSans-5d" d="M 1947 4863 
L 1947 -844 
L 622 -844 
L 622 -397 
L 1369 -397 
L 1369 4416 
L 622 4416 
L 622 4863 
L 1947 4863 
z
" transform="scale(0.015625)"/>
      </defs>
      <use xlink:href="#DejaVuSans-47"/>
      <use xlink:href="#DejaVuSans-65" transform="translate(77.490234 0)"/>
      <use xlink:href="#DejaVuSans-77" transform="translate(139.013672 0)"/>
      <use xlink:href="#DejaVuSans-69" transform="translate(220.800781 0)"/>
      <use xlink:href="#DejaVuSans-63" transform="translate(248.583984 0)"/>
      <use xlink:href="#DejaVuSans-68" transform="translate(303.564453 0)"/>
      <use xlink:href="#DejaVuSans-74" transform="translate(366.943359 0)"/>
      <use xlink:href="#DejaVuSans-e4" transform="translate(406.152344 0)"/>
      <use xlink:href="#DejaVuSans-6e" transform="translate(467.431641 0)"/>
      <use xlink:href="#DejaVuSans-64" transform="translate(530.810547 0)"/>
      <use xlink:href="#DejaVuSans-65" transform="translate(594.287109 0)"/>
      <use xlink:href="#DejaVuSans-72" transform="translate(655.810547 0)"/>
      <use xlink:href="#DejaVuSans-75" transform="translate(696.923828 0)"/>
      <use xlink:href="#DejaVuSans-6e" transform="translate(760.302734 0)"/>
      <use xlink:href="#DejaVuSans-67" transform="translate(823.681641 0)"/>
      <use xlink:href="#DejaVuSans-20" transform="translate(887.158203 0)"/>
      <use xlink:href="#DejaVuSans-5b" transform="translate(918.945312 0)"/>
      <use xlink:href="#DejaVuSans-6b" transform="translate(957.958984 0)"/>
      <use xlink:href="#DejaVuSans-67" transform="translate(1015.869141 0)"/>
      <use xlink:href="#DejaVuSans-5d" transform="translate(1079.345703 0)"/>
     </g>
    </g>
   </g>
   <g id="patch_111">
    <path d="M 44.960938 375.84 
L 44.960938 43.2 
" style="fill: none; stroke: #000000; stroke-width: 0.8; stroke-linejoin: miter; stroke-linecap: square"/>
   </g>
   <g id="patch_112">
    <path d="M 714.560938 375.84 
L 714.560938 43.2 
" style="fill: none; stroke: #000000; stroke-width: 0.8; stroke-linejoin: miter; stroke-linecap: square"/>
   </g>
   <g id="patch_113">
    <path d="M 44.960937 375.84 
L 714.560937 375.84 
" style="fill: none; stroke: #000000; stroke-width: 0.8; stroke-linejoin: miter; stroke-linecap: square"/>
   </g>
   <g id="patch_114">
    <path d="M 44.960937 43.2 
L 714.560937 43.2 
" style="fill: none; stroke: #000000; stroke-width: 0.8; stroke-linejoin: miter; stroke-linecap: square"/>
   </g>
   <g id="text_17">
    <!-- Trachtänderung im aktuellen Jahr -->
    <g transform="translate(279.749375 37.2) scale(0.12 -0.12)">
     <defs>
      <path id="DejaVuSans-54" d="M -19 4666 
L 3928 4666 
L 3928 4134 
L 2272 4134 
L 2272 0 
L 1638 0 
L 1638 4134 
L -19 4134 
L -19 4666 
z
" transform="scale(0.015625)"/>
      <path id="DejaVuSans-6d" d="M 3328 2828 
Q 3544 3216 3844 3400 
Q 4144 3584 4550 3584 
Q 5097 3584 5394 3201 
Q 5691 2819 5691 2113 
L 5691 0 
L 5113 0 
L 5113 2094 
Q 5113 2597 4934 2840 
Q 4756 3084 4391 3084 
Q 3944 3084 3684 2787 
Q 3425 2491 3425 1978 
L 3425 0 
L 2847 0 
L 2847 2094 
Q 2847 2600 2669 2842 
Q 2491 3084 2119 3084 
Q 1678 3084 1418 2786 
Q 1159 2488 1159 1978 
L 1159 0 
L 581 0 
L 581 3500 
L 1159 3500 
L 1159 2956 
Q 1356 3278 1631 3431 
Q 1906 3584 2284 3584 
Q 2666 3584 2933 3390 
Q 3200 3197 3328 2828 
z
" transform="scale(0.015625)"/>
      <path id="DejaVuSans-6c" d="M 603 4863 
L 1178 4863 
L 1178 0 
L 603 0 
L 603 4863 
z
" transform="scale(0.015625)"/>
     </defs>
     <use xlink:href="#DejaVuSans-54"/>
     <use xlink:href="#DejaVuSans-72" transform="translate(46.333984 0)"/>
     <use xlink:href="#DejaVuSans-61" transform="translate(87.447266 0)"/>
     <use xlink:href="#DejaVuSans-63" transform="translate(148.726562 0)"/>
     <use xlink:href="#DejaVuSans-68" transform="translate(203.707031 0)"/>
     <use xlink:href="#DejaVuSans-74" transform="translate(267.085938 0)"/>
     <use xlink:href="#DejaVuSans-e4" transform="translate(306.294922 0)"/>
     <use xlink:href="#DejaVuSans-6e" transform="translate(367.574219 0)"/>
     <use xlink:href="#DejaVuSans-64" transform="translate(430.953125 0)"/>
     <use xlink:href="#DejaVuSans-65" transform="translate(494.429688 0)"/>
     <use xlink:href="#DejaVuSans-72" transform="translate(555.953125 0)"/>
     <use xlink:href="#DejaVuSans-75" transform="translate(597.066406 0)"/>
     <use xlink:href="#DejaVuSans-6e" transform="translate(660.445312 0)"/>
     <use xlink:href="#DejaVuSans-67" transform="translate(723.824219 0)"/>
     <use xlink:href="#DejaVuSans-20" transform="translate(787.300781 0)"/>
     <use xlink:href="#DejaVuSans-69" transform="translate(819.087891 0)"/>
     <use xlink:href="#DejaVuSans-6d" transform="translate(846.871094 0)"/>
     <use xlink:href="#DejaVuSans-20" transform="translate(944.283203 0)"/>
     <use xlink:href="#DejaVuSans-61" transform="translate(976.070312 0)"/>
     <use xlink:href="#DejaVuSans-6b" transform="translate(1037.349609 0)"/>
     <use xlink:href="#DejaVuSans-74" transform="translate(1095.259766 0)"/>
     <use xlink:href="#DejaVuSans-75" transform="translate(1134.46875 0)"/>
     <use xlink:href="#DejaVuSans-65" transform="translate(1197.847656 0)"/>
     <use xlink:href="#DejaVuSans-6c" transform="translate(1259.371094 0)"/>
     <use xlink:href="#DejaVuSans-6c" transform="translate(1287.154297 0)"/>
     <use xlink:href="#DejaVuSans-65" transform="translate(1314.9375 0)"/>
     <use xlink:href="#DejaVuSans-6e" transform="translate(1376.460938 0)"/>
     <use xlink:href="#DejaVuSans-20" transform="translate(1439.839844 0)"/>
     <use xlink:href="#DejaVuSans-4a" transform="translate(1471.626953 0)"/>
     <use xlink:href="#DejaVuSans-61" transform="translate(1501.119141 0)"/>
     <use xlink:href="#DejaVuSans-68" transform="translate(1562.398438 0)"/>
     <use xlink:href="#DejaVuSans-72" transform="translate(1625.777344 0)"/>
    </g>
   </g>
   <g id="legend_1">
    <g id="patch_115">
     <path d="M 650.110937 65.878125 
L 707.560938 65.878125 
Q 709.560938 65.878125 709.560938 63.878125 
L 709.560938 50.2 
Q 709.560938 48.2 707.560938 48.2 
L 650.110937 48.2 
Q 648.110937 48.2 648.110937 50.2 
L 648.110937 63.878125 
Q 648.110937 65.878125 650.110937 65.878125 
z
" style="fill: #ffffff; opacity: 0.8; stroke: #cccccc; stroke-linejoin: miter"/>
    </g>
    <g id="patch_116">
     <path d="M 652.110937 59.798438 
L 672.110937 59.798438 
L 672.110937 52.798438 
L 652.110937 52.798438 
z
" style="fill: #1f77b4"/>
    </g>
    <g id="text_18">
     <!-- 2025 -->
     <g transform="translate(680.110937 59.798438) scale(0.1 -0.1)">
      <use xlink:href="#DejaVuSans-32"/>
      <use xlink:href="#DejaVuSans-30" transform="translate(63.623047 0)"/>
      <use xlink:href="#DejaVuSans-32" transform="translate(127.246094 0)"/>
      <use xlink:href="#DejaVuSans-35" transform="translate(190.869141 0)"/>
     </g>
    </g>
   </g>
  </g>
  <g id="text_19">
   <!-- Bayern -->
   <g transform="translate(347.760312 9.118125) scale(0.12 -0.12)">
    <defs>
     <path id="DejaVuSans-42" d="M 1259 2228 
L 1259 519 
L 2272 519 
Q 2781 519 3026 730 
Q 3272 941 3272 1375 
Q 3272 1813 3026 2020 
Q 2781 2228 2272 2228 
L 1259 2228 
z
M 1259 4147 
L 1259 2741 
L 2194 2741 
Q 2656 2741 2882 2914 
Q 3109 3088 3109 3444 
Q 3109 3797 2882 3972 
Q 2656 4147 2194 4147 
L 1259 4147 
z
M 628 4666 
L 2241 4666 
Q 2963 4666 3353 4366 
Q 3744 4066 3744 3513 
Q 3744 3084 3544 2831 
Q 3344 2578 2956 2516 
Q 3422 2416 3680 2098 
Q 3938 1781 3938 1306 
Q 3938 681 3513 340 
Q 3088 0 2303 0 
L 628 0 
L 628 4666 
z
" transform="scale(0.015625)"/>
     <path id="DejaVuSans-79" d="M 2059 -325 
Q 1816 -950 1584 -1140 
Q 1353 -1331 966 -1331 
L 506 -1331 
L 506 -850 
L 844 -850 
Q 1081 -850 1212 -737 
Q 1344 -625 1503 -206 
L 1606 56 
L 191 3500 
L 800 3500 
L 1894 763 
L 2988 3500 
L 3597 3500 
L 2059 -325 
z
" transform="scale(0.015625)"/>
    </defs>
    <use xlink:href="#DejaVuSans-42"/>
    <use xlink:href="#DejaVuSans-61" transform="translate(68.603516 0)"/>
    <use xlink:href="#DejaVuSans-79" transform="translate(129.882812 0)"/>
    <use xlink:href="#DejaVuSans-65" transform="translate(189.0625 0)"/>
    <use xlink:href="#DejaVuSans-72" transform="translate(250.585938 0)"/>
    <use xlink:href="#DejaVuSans-6e" transform="translate(289.949219 0)"/>
   </g>
  </g>
 </g>
 <defs>
  <clipPath id="p2915cf084e">
   <rect x="44.960938" y="43.2" width="669.6" height="332.64"/>
  </clipPath>
 </defs>
</svg>
