<?xml version="1.0" encoding="utf-8" standalone="no"?>
<!DOCTYPE svg PUBLIC "-//W3C//DTD SVG 1.1//EN"
  "http://www.w3.org/Graphics/SVG/1.1/DTD/svg11.dtd">
<svg xmlns:xlink="http://www.w3.org/1999/xlink" width="703.003125pt" height="406.19625pt" viewBox="0 0 703.003125 406.19625" xmlns="http://www.w3.org/2000/svg" version="1.1">
 <metadata>
  <rdf:RDF xmlns:dc="http://purl.org/dc/elements/1.1/" xmlns:cc="http://creativecommons.org/ns#" xmlns:rdf="http://www.w3.org/1999/02/22-rdf-syntax-ns#">
   <cc:Work>
    <dc:type rdf:resource="http://purl.org/dc/dcmitype/StillImage"/>
    <dc:date>2025-06-18T06:23:59.134223</dc:date>
    <dc:format>image/svg+xml</dc:format>
    <dc:creator>
     <cc:Agent>
      <dc:title>Matplotlib v3.10.3, https://matplotlib.org/</dc:title>
     </cc:Agent>
    </dc:creator>
   </cc:Work>
  </rdf:RDF>
 </metadata>
 <defs>
  <style type="text/css">*{stroke-linejoin: round; stroke-linecap: butt}</style>
 </defs>
 <g id="figure_1">
  <g id="patch_1">
   <path d="M 0 406.19625 
L 703.003125 406.19625 
L 703.003125 0 
L 0 0 
z
" style="fill: #ffffff"/>
  </g>
  <g id="axes_1">
   <g id="patch_2">
    <path d="M 33.403125 375.84 
L 703.003125 375.84 
L 703.003125 43.2 
L 33.403125 43.2 
z
" style="fill: #ffffff"/>
   </g>
   <g id="matplotlib.axis_1">
    <g id="xtick_1">
     <g id="line2d_1">
      <path d="M 63.839489 375.84 
L 63.839489 43.2 
" clip-path="url(#pfc11e5f523)" style="fill: none; stroke: #b0b0b0; stroke-width: 0.8; stroke-linecap: square"/>
     </g>
     <g id="line2d_2">
      <defs>
       <path id="m6d338b8f2d" d="M 0 0 
L 0 3.5 
" style="stroke: #000000; stroke-width: 0.8"/>
      </defs>
      <g>
       <use xlink:href="#m6d338b8f2d" x="63.839489" y="375.84" style="stroke: #000000; stroke-width: 0.8"/>
      </g>
     </g>
     <g id="text_1">
      <!-- Mär -->
      <g transform="translate(54.405895 390.438438) scale(0.1 -0.1)">
       <defs>
        <path id="DejaVuSans-4d" d="M 628 4666 
L 1569 4666 
L 2759 1491 
L 3956 4666 
L 4897 4666 
L 4897 0 
L 4281 0 
L 4281 4097 
L 3078 897 
L 2444 897 
L 1241 4097 
L 1241 0 
L 628 0 
L 628 4666 
z
" transform="scale(0.015625)"/>
        <path id="DejaVuSans-e4" d="M 2194 1759 
Q 1497 1759 1228 1600 
Q 959 1441 959 1056 
Q 959 750 1161 570 
Q 1363 391 1709 391 
Q 2188 391 2477 730 
Q 2766 1069 2766 1631 
L 2766 1759 
L 2194 1759 
z
M 3341 1997 
L 3341 0 
L 2766 0 
L 2766 531 
Q 2569 213 2275 61 
Q 1981 -91 1556 -91 
Q 1019 -91 701 211 
Q 384 513 384 1019 
Q 384 1609 779 1909 
Q 1175 2209 1959 2209 
L 2766 2209 
L 2766 2266 
Q 2766 2663 2505 2880 
Q 2244 3097 1772 3097 
Q 1472 3097 1187 3025 
Q 903 2953 641 2809 
L 641 3341 
Q 956 3463 1253 3523 
Q 1550 3584 1831 3584 
Q 2591 3584 2966 3190 
Q 3341 2797 3341 1997 
z
M 2150 4850 
L 2784 4850 
L 2784 4219 
L 2150 4219 
L 2150 4850 
z
M 928 4850 
L 1562 4850 
L 1562 4219 
L 928 4219 
L 928 4850 
z
" transform="scale(0.015625)"/>
        <path id="DejaVuSans-72" d="M 2631 2963 
Q 2534 3019 2420 3045 
Q 2306 3072 2169 3072 
Q 1681 3072 1420 2755 
Q 1159 2438 1159 1844 
L 1159 0 
L 581 0 
L 581 3500 
L 1159 3500 
L 1159 2956 
Q 1341 3275 1631 3429 
Q 1922 3584 2338 3584 
Q 2397 3584 2469 3576 
Q 2541 3569 2628 3553 
L 2631 2963 
z
" transform="scale(0.015625)"/>
       </defs>
       <use xlink:href="#DejaVuSans-4d"/>
       <use xlink:href="#DejaVuSans-e4" transform="translate(86.279297 0)"/>
       <use xlink:href="#DejaVuSans-72" transform="translate(147.558594 0)"/>
      </g>
     </g>
    </g>
    <g id="xtick_2">
     <g id="line2d_3">
      <path d="M 187.987814 375.84 
L 187.987814 43.2 
" clip-path="url(#pfc11e5f523)" style="fill: none; stroke: #b0b0b0; stroke-width: 0.8; stroke-linecap: square"/>
     </g>
     <g id="line2d_4">
      <g>
       <use xlink:href="#m6d338b8f2d" x="187.987814" y="375.84" style="stroke: #000000; stroke-width: 0.8"/>
      </g>
     </g>
     <g id="text_2">
      <!-- Apr -->
      <g transform="translate(179.337814 390.438438) scale(0.1 -0.1)">
       <defs>
        <path id="DejaVuSans-41" d="M 2188 4044 
L 1331 1722 
L 3047 1722 
L 2188 4044 
z
M 1831 4666 
L 2547 4666 
L 4325 0 
L 3669 0 
L 3244 1197 
L 1141 1197 
L 716 0 
L 50 0 
L 1831 4666 
z
" transform="scale(0.015625)"/>
        <path id="DejaVuSans-70" d="M 1159 525 
L 1159 -1331 
L 581 -1331 
L 581 3500 
L 1159 3500 
L 1159 2969 
Q 1341 3281 1617 3432 
Q 1894 3584 2278 3584 
Q 2916 3584 3314 3078 
Q 3713 2572 3713 1747 
Q 3713 922 3314 415 
Q 2916 -91 2278 -91 
Q 1894 -91 1617 61 
Q 1341 213 1159 525 
z
M 3116 1747 
Q 3116 2381 2855 2742 
Q 2594 3103 2138 3103 
Q 1681 3103 1420 2742 
Q 1159 2381 1159 1747 
Q 1159 1113 1420 752 
Q 1681 391 2138 391 
Q 2594 391 2855 752 
Q 3116 1113 3116 1747 
z
" transform="scale(0.015625)"/>
       </defs>
       <use xlink:href="#DejaVuSans-41"/>
       <use xlink:href="#DejaVuSans-70" transform="translate(68.408203 0)"/>
       <use xlink:href="#DejaVuSans-72" transform="translate(131.884766 0)"/>
      </g>
     </g>
    </g>
    <g id="xtick_3">
     <g id="line2d_5">
      <path d="M 308.131355 375.84 
L 308.131355 43.2 
" clip-path="url(#pfc11e5f523)" style="fill: none; stroke: #b0b0b0; stroke-width: 0.8; stroke-linecap: square"/>
     </g>
     <g id="line2d_6">
      <g>
       <use xlink:href="#m6d338b8f2d" x="308.131355" y="375.84" style="stroke: #000000; stroke-width: 0.8"/>
      </g>
     </g>
     <g id="text_3">
      <!-- Mai -->
      <g transform="translate(299.364167 390.438438) scale(0.1 -0.1)">
       <defs>
        <path id="DejaVuSans-61" d="M 2194 1759 
Q 1497 1759 1228 1600 
Q 959 1441 959 1056 
Q 959 750 1161 570 
Q 1363 391 1709 391 
Q 2188 391 2477 730 
Q 2766 1069 2766 1631 
L 2766 1759 
L 2194 1759 
z
M 3341 1997 
L 3341 0 
L 2766 0 
L 2766 531 
Q 2569 213 2275 61 
Q 1981 -91 1556 -91 
Q 1019 -91 701 211 
Q 384 513 384 1019 
Q 384 1609 779 1909 
Q 1175 2209 1959 2209 
L 2766 2209 
L 2766 2266 
Q 2766 2663 2505 2880 
Q 2244 3097 1772 3097 
Q 1472 3097 1187 3025 
Q 903 2953 641 2809 
L 641 3341 
Q 956 3463 1253 3523 
Q 1550 3584 1831 3584 
Q 2591 3584 2966 3190 
Q 3341 2797 3341 1997 
z
" transform="scale(0.015625)"/>
        <path id="DejaVuSans-69" d="M 603 3500 
L 1178 3500 
L 1178 0 
L 603 0 
L 603 3500 
z
M 603 4863 
L 1178 4863 
L 1178 4134 
L 603 4134 
L 603 4863 
z
" transform="scale(0.015625)"/>
       </defs>
       <use xlink:href="#DejaVuSans-4d"/>
       <use xlink:href="#DejaVuSans-61" transform="translate(86.279297 0)"/>
       <use xlink:href="#DejaVuSans-69" transform="translate(147.558594 0)"/>
      </g>
     </g>
    </g>
    <g id="xtick_4">
     <g id="line2d_7">
      <path d="M 432.27968 375.84 
L 432.27968 43.2 
" clip-path="url(#pfc11e5f523)" style="fill: none; stroke: #b0b0b0; stroke-width: 0.8; stroke-linecap: square"/>
     </g>
     <g id="line2d_8">
      <g>
       <use xlink:href="#m6d338b8f2d" x="432.27968" y="375.84" style="stroke: #000000; stroke-width: 0.8"/>
      </g>
     </g>
     <g id="text_4">
      <!-- Jun -->
      <g transform="translate(424.46718 390.438438) scale(0.1 -0.1)">
       <defs>
        <path id="DejaVuSans-4a" d="M 628 4666 
L 1259 4666 
L 1259 325 
Q 1259 -519 939 -900 
Q 619 -1281 -91 -1281 
L -331 -1281 
L -331 -750 
L -134 -750 
Q 284 -750 456 -515 
Q 628 -281 628 325 
L 628 4666 
z
" transform="scale(0.015625)"/>
        <path id="DejaVuSans-75" d="M 544 1381 
L 544 3500 
L 1119 3500 
L 1119 1403 
Q 1119 906 1312 657 
Q 1506 409 1894 409 
Q 2359 409 2629 706 
Q 2900 1003 2900 1516 
L 2900 3500 
L 3475 3500 
L 3475 0 
L 2900 0 
L 2900 538 
Q 2691 219 2414 64 
Q 2138 -91 1772 -91 
Q 1169 -91 856 284 
Q 544 659 544 1381 
z
M 1991 3584 
L 1991 3584 
z
" transform="scale(0.015625)"/>
        <path id="DejaVuSans-6e" d="M 3513 2113 
L 3513 0 
L 2938 0 
L 2938 2094 
Q 2938 2591 2744 2837 
Q 2550 3084 2163 3084 
Q 1697 3084 1428 2787 
Q 1159 2491 1159 1978 
L 1159 0 
L 581 0 
L 581 3500 
L 1159 3500 
L 1159 2956 
Q 1366 3272 1645 3428 
Q 1925 3584 2291 3584 
Q 2894 3584 3203 3211 
Q 3513 2838 3513 2113 
z
" transform="scale(0.015625)"/>
       </defs>
       <use xlink:href="#DejaVuSans-4a"/>
       <use xlink:href="#DejaVuSans-75" transform="translate(29.492188 0)"/>
       <use xlink:href="#DejaVuSans-6e" transform="translate(92.871094 0)"/>
      </g>
     </g>
    </g>
    <g id="xtick_5">
     <g id="line2d_9">
      <path d="M 552.423221 375.84 
L 552.423221 43.2 
" clip-path="url(#pfc11e5f523)" style="fill: none; stroke: #b0b0b0; stroke-width: 0.8; stroke-linecap: square"/>
     </g>
     <g id="line2d_10">
      <g>
       <use xlink:href="#m6d338b8f2d" x="552.423221" y="375.84" style="stroke: #000000; stroke-width: 0.8"/>
      </g>
     </g>
     <g id="text_5">
      <!-- Jul -->
      <g transform="translate(546.390408 390.438438) scale(0.1 -0.1)">
       <defs>
        <path id="DejaVuSans-6c" d="M 603 4863 
L 1178 4863 
L 1178 0 
L 603 0 
L 603 4863 
z
" transform="scale(0.015625)"/>
       </defs>
       <use xlink:href="#DejaVuSans-4a"/>
       <use xlink:href="#DejaVuSans-75" transform="translate(29.492188 0)"/>
       <use xlink:href="#DejaVuSans-6c" transform="translate(92.871094 0)"/>
      </g>
     </g>
    </g>
    <g id="xtick_6">
     <g id="line2d_11">
      <path d="M 676.571546 375.84 
L 676.571546 43.2 
" clip-path="url(#pfc11e5f523)" style="fill: none; stroke: #b0b0b0; stroke-width: 0.8; stroke-linecap: square"/>
     </g>
     <g id="line2d_12">
      <g>
       <use xlink:href="#m6d338b8f2d" x="676.571546" y="375.84" style="stroke: #000000; stroke-width: 0.8"/>
      </g>
     </g>
     <g id="text_6">
      <!-- Aug -->
      <g transform="translate(666.808265 390.438438) scale(0.1 -0.1)">
       <defs>
        <path id="DejaVuSans-67" d="M 2906 1791 
Q 2906 2416 2648 2759 
Q 2391 3103 1925 3103 
Q 1463 3103 1205 2759 
Q 947 2416 947 1791 
Q 947 1169 1205 825 
Q 1463 481 1925 481 
Q 2391 481 2648 825 
Q 2906 1169 2906 1791 
z
M 3481 434 
Q 3481 -459 3084 -895 
Q 2688 -1331 1869 -1331 
Q 1566 -1331 1297 -1286 
Q 1028 -1241 775 -1147 
L 775 -588 
Q 1028 -725 1275 -790 
Q 1522 -856 1778 -856 
Q 2344 -856 2625 -561 
Q 2906 -266 2906 331 
L 2906 616 
Q 2728 306 2450 153 
Q 2172 0 1784 0 
Q 1141 0 747 490 
Q 353 981 353 1791 
Q 353 2603 747 3093 
Q 1141 3584 1784 3584 
Q 2172 3584 2450 3431 
Q 2728 3278 2906 2969 
L 2906 3500 
L 3481 3500 
L 3481 434 
z
" transform="scale(0.015625)"/>
       </defs>
       <use xlink:href="#DejaVuSans-41"/>
       <use xlink:href="#DejaVuSans-75" transform="translate(68.408203 0)"/>
       <use xlink:href="#DejaVuSans-67" transform="translate(131.787109 0)"/>
      </g>
     </g>
    </g>
    <g id="xtick_7">
     <g id="line2d_13">
      <defs>
       <path id="m12902367a3" d="M 0 0 
L 0 2 
" style="stroke: #000000; stroke-width: 0.6"/>
      </defs>
      <g>
       <use xlink:href="#m12902367a3" x="55.829919" y="375.84" style="stroke: #000000; stroke-width: 0.6"/>
      </g>
     </g>
    </g>
    <g id="xtick_8">
     <g id="line2d_14">
      <g>
       <use xlink:href="#m12902367a3" x="83.863412" y="375.84" style="stroke: #000000; stroke-width: 0.6"/>
      </g>
     </g>
    </g>
    <g id="xtick_9">
     <g id="line2d_15">
      <g>
       <use xlink:href="#m12902367a3" x="111.896905" y="375.84" style="stroke: #000000; stroke-width: 0.6"/>
      </g>
     </g>
    </g>
    <g id="xtick_10">
     <g id="line2d_16">
      <g>
       <use xlink:href="#m12902367a3" x="139.930398" y="375.84" style="stroke: #000000; stroke-width: 0.6"/>
      </g>
     </g>
    </g>
    <g id="xtick_11">
     <g id="line2d_17">
      <g>
       <use xlink:href="#m12902367a3" x="167.963891" y="375.84" style="stroke: #000000; stroke-width: 0.6"/>
      </g>
     </g>
    </g>
    <g id="xtick_12">
     <g id="line2d_18">
      <g>
       <use xlink:href="#m12902367a3" x="195.997383" y="375.84" style="stroke: #000000; stroke-width: 0.6"/>
      </g>
     </g>
    </g>
    <g id="xtick_13">
     <g id="line2d_19">
      <g>
       <use xlink:href="#m12902367a3" x="224.030876" y="375.84" style="stroke: #000000; stroke-width: 0.6"/>
      </g>
     </g>
    </g>
    <g id="xtick_14">
     <g id="line2d_20">
      <g>
       <use xlink:href="#m12902367a3" x="252.064369" y="375.84" style="stroke: #000000; stroke-width: 0.6"/>
      </g>
     </g>
    </g>
    <g id="xtick_15">
     <g id="line2d_21">
      <g>
       <use xlink:href="#m12902367a3" x="280.097862" y="375.84" style="stroke: #000000; stroke-width: 0.6"/>
      </g>
     </g>
    </g>
    <g id="xtick_16">
     <g id="line2d_22">
      <g>
       <use xlink:href="#m12902367a3" x="336.164847" y="375.84" style="stroke: #000000; stroke-width: 0.6"/>
      </g>
     </g>
    </g>
    <g id="xtick_17">
     <g id="line2d_23">
      <g>
       <use xlink:href="#m12902367a3" x="364.19834" y="375.84" style="stroke: #000000; stroke-width: 0.6"/>
      </g>
     </g>
    </g>
    <g id="xtick_18">
     <g id="line2d_24">
      <g>
       <use xlink:href="#m12902367a3" x="392.231833" y="375.84" style="stroke: #000000; stroke-width: 0.6"/>
      </g>
     </g>
    </g>
    <g id="xtick_19">
     <g id="line2d_25">
      <g>
       <use xlink:href="#m12902367a3" x="420.265326" y="375.84" style="stroke: #000000; stroke-width: 0.6"/>
      </g>
     </g>
    </g>
    <g id="xtick_20">
     <g id="line2d_26">
      <g>
       <use xlink:href="#m12902367a3" x="448.298819" y="375.84" style="stroke: #000000; stroke-width: 0.6"/>
      </g>
     </g>
    </g>
    <g id="xtick_21">
     <g id="line2d_27">
      <g>
       <use xlink:href="#m12902367a3" x="476.332312" y="375.84" style="stroke: #000000; stroke-width: 0.6"/>
      </g>
     </g>
    </g>
    <g id="xtick_22">
     <g id="line2d_28">
      <g>
       <use xlink:href="#m12902367a3" x="504.365804" y="375.84" style="stroke: #000000; stroke-width: 0.6"/>
      </g>
     </g>
    </g>
    <g id="xtick_23">
     <g id="line2d_29">
      <g>
       <use xlink:href="#m12902367a3" x="532.399297" y="375.84" style="stroke: #000000; stroke-width: 0.6"/>
      </g>
     </g>
    </g>
    <g id="xtick_24">
     <g id="line2d_30">
      <g>
       <use xlink:href="#m12902367a3" x="560.43279" y="375.84" style="stroke: #000000; stroke-width: 0.6"/>
      </g>
     </g>
    </g>
    <g id="xtick_25">
     <g id="line2d_31">
      <g>
       <use xlink:href="#m12902367a3" x="588.466283" y="375.84" style="stroke: #000000; stroke-width: 0.6"/>
      </g>
     </g>
    </g>
    <g id="xtick_26">
     <g id="line2d_32">
      <g>
       <use xlink:href="#m12902367a3" x="616.499776" y="375.84" style="stroke: #000000; stroke-width: 0.6"/>
      </g>
     </g>
    </g>
    <g id="xtick_27">
     <g id="line2d_33">
      <g>
       <use xlink:href="#m12902367a3" x="644.533269" y="375.84" style="stroke: #000000; stroke-width: 0.6"/>
      </g>
     </g>
    </g>
    <g id="xtick_28">
     <g id="line2d_34">
      <g>
       <use xlink:href="#m12902367a3" x="672.566761" y="375.84" style="stroke: #000000; stroke-width: 0.6"/>
      </g>
     </g>
    </g>
    <g id="xtick_29">
     <g id="line2d_35">
      <g>
       <use xlink:href="#m12902367a3" x="700.600254" y="375.84" style="stroke: #000000; stroke-width: 0.6"/>
      </g>
     </g>
    </g>
    <g id="text_7">
     <!-- Monat -->
     <g transform="translate(352.636719 404.116563) scale(0.1 -0.1)">
      <defs>
       <path id="DejaVuSans-6f" d="M 1959 3097 
Q 1497 3097 1228 2736 
Q 959 2375 959 1747 
Q 959 1119 1226 758 
Q 1494 397 1959 397 
Q 2419 397 2687 759 
Q 2956 1122 2956 1747 
Q 2956 2369 2687 2733 
Q 2419 3097 1959 3097 
z
M 1959 3584 
Q 2709 3584 3137 3096 
Q 3566 2609 3566 1747 
Q 3566 888 3137 398 
Q 2709 -91 1959 -91 
Q 1206 -91 779 398 
Q 353 888 353 1747 
Q 353 2609 779 3096 
Q 1206 3584 1959 3584 
z
" transform="scale(0.015625)"/>
       <path id="DejaVuSans-74" d="M 1172 4494 
L 1172 3500 
L 2356 3500 
L 2356 3053 
L 1172 3053 
L 1172 1153 
Q 1172 725 1289 603 
Q 1406 481 1766 481 
L 2356 481 
L 2356 0 
L 1766 0 
Q 1100 0 847 248 
Q 594 497 594 1153 
L 594 3053 
L 172 3053 
L 172 3500 
L 594 3500 
L 594 4494 
L 1172 4494 
z
" transform="scale(0.015625)"/>
      </defs>
      <use xlink:href="#DejaVuSans-4d"/>
      <use xlink:href="#DejaVuSans-6f" transform="translate(86.279297 0)"/>
      <use xlink:href="#DejaVuSans-6e" transform="translate(147.460938 0)"/>
      <use xlink:href="#DejaVuSans-61" transform="translate(210.839844 0)"/>
      <use xlink:href="#DejaVuSans-74" transform="translate(272.119141 0)"/>
     </g>
    </g>
   </g>
   <g id="matplotlib.axis_2">
    <g id="ytick_1">
     <g id="line2d_36">
      <path d="M 33.403125 347.317329 
L 703.003125 347.317329 
" clip-path="url(#pfc11e5f523)" style="fill: none; stroke: #b0b0b0; stroke-width: 0.8; stroke-linecap: square"/>
     </g>
     <g id="line2d_37">
      <defs>
       <path id="m335d36c343" d="M 0 0 
L -3.5 0 
" style="stroke: #000000; stroke-width: 0.8"/>
      </defs>
      <g>
       <use xlink:href="#m335d36c343" x="33.403125" y="347.317329" style="stroke: #000000; stroke-width: 0.8"/>
      </g>
     </g>
     <g id="text_8">
      <!-- 0 -->
      <g transform="translate(20.040625 351.116548) scale(0.1 -0.1)">
       <defs>
        <path id="DejaVuSans-30" d="M 2034 4250 
Q 1547 4250 1301 3770 
Q 1056 3291 1056 2328 
Q 1056 1369 1301 889 
Q 1547 409 2034 409 
Q 2525 409 2770 889 
Q 3016 1369 3016 2328 
Q 3016 3291 2770 3770 
Q 2525 4250 2034 4250 
z
M 2034 4750 
Q 2819 4750 3233 4129 
Q 3647 3509 3647 2328 
Q 3647 1150 3233 529 
Q 2819 -91 2034 -91 
Q 1250 -91 836 529 
Q 422 1150 422 2328 
Q 422 3509 836 4129 
Q 1250 4750 2034 4750 
z
" transform="scale(0.015625)"/>
       </defs>
       <use xlink:href="#DejaVuSans-30"/>
      </g>
     </g>
    </g>
    <g id="ytick_2">
     <g id="line2d_38">
      <path d="M 33.403125 275.836416 
L 703.003125 275.836416 
" clip-path="url(#pfc11e5f523)" style="fill: none; stroke: #b0b0b0; stroke-width: 0.8; stroke-linecap: square"/>
     </g>
     <g id="line2d_39">
      <g>
       <use xlink:href="#m335d36c343" x="33.403125" y="275.836416" style="stroke: #000000; stroke-width: 0.8"/>
      </g>
     </g>
     <g id="text_9">
      <!-- 20 -->
      <g transform="translate(13.678125 279.635635) scale(0.1 -0.1)">
       <defs>
        <path id="DejaVuSans-32" d="M 1228 531 
L 3431 531 
L 3431 0 
L 469 0 
L 469 531 
Q 828 903 1448 1529 
Q 2069 2156 2228 2338 
Q 2531 2678 2651 2914 
Q 2772 3150 2772 3378 
Q 2772 3750 2511 3984 
Q 2250 4219 1831 4219 
Q 1534 4219 1204 4116 
Q 875 4013 500 3803 
L 500 4441 
Q 881 4594 1212 4672 
Q 1544 4750 1819 4750 
Q 2544 4750 2975 4387 
Q 3406 4025 3406 3419 
Q 3406 3131 3298 2873 
Q 3191 2616 2906 2266 
Q 2828 2175 2409 1742 
Q 1991 1309 1228 531 
z
" transform="scale(0.015625)"/>
       </defs>
       <use xlink:href="#DejaVuSans-32"/>
       <use xlink:href="#DejaVuSans-30" transform="translate(63.623047 0)"/>
      </g>
     </g>
    </g>
    <g id="ytick_3">
     <g id="line2d_40">
      <path d="M 33.403125 204.355504 
L 703.003125 204.355504 
" clip-path="url(#pfc11e5f523)" style="fill: none; stroke: #b0b0b0; stroke-width: 0.8; stroke-linecap: square"/>
     </g>
     <g id="line2d_41">
      <g>
       <use xlink:href="#m335d36c343" x="33.403125" y="204.355504" style="stroke: #000000; stroke-width: 0.8"/>
      </g>
     </g>
     <g id="text_10">
      <!-- 40 -->
      <g transform="translate(13.678125 208.154723) scale(0.1 -0.1)">
       <defs>
        <path id="DejaVuSans-34" d="M 2419 4116 
L 825 1625 
L 2419 1625 
L 2419 4116 
z
M 2253 4666 
L 3047 4666 
L 3047 1625 
L 3713 1625 
L 3713 1100 
L 3047 1100 
L 3047 0 
L 2419 0 
L 2419 1100 
L 313 1100 
L 313 1709 
L 2253 4666 
z
" transform="scale(0.015625)"/>
       </defs>
       <use xlink:href="#DejaVuSans-34"/>
       <use xlink:href="#DejaVuSans-30" transform="translate(63.623047 0)"/>
      </g>
     </g>
    </g>
    <g id="ytick_4">
     <g id="line2d_42">
      <path d="M 33.403125 132.874592 
L 703.003125 132.874592 
" clip-path="url(#pfc11e5f523)" style="fill: none; stroke: #b0b0b0; stroke-width: 0.8; stroke-linecap: square"/>
     </g>
     <g id="line2d_43">
      <g>
       <use xlink:href="#m335d36c343" x="33.403125" y="132.874592" style="stroke: #000000; stroke-width: 0.8"/>
      </g>
     </g>
     <g id="text_11">
      <!-- 60 -->
      <g transform="translate(13.678125 136.67381) scale(0.1 -0.1)">
       <defs>
        <path id="DejaVuSans-36" d="M 2113 2584 
Q 1688 2584 1439 2293 
Q 1191 2003 1191 1497 
Q 1191 994 1439 701 
Q 1688 409 2113 409 
Q 2538 409 2786 701 
Q 3034 994 3034 1497 
Q 3034 2003 2786 2293 
Q 2538 2584 2113 2584 
z
M 3366 4563 
L 3366 3988 
Q 3128 4100 2886 4159 
Q 2644 4219 2406 4219 
Q 1781 4219 1451 3797 
Q 1122 3375 1075 2522 
Q 1259 2794 1537 2939 
Q 1816 3084 2150 3084 
Q 2853 3084 3261 2657 
Q 3669 2231 3669 1497 
Q 3669 778 3244 343 
Q 2819 -91 2113 -91 
Q 1303 -91 875 529 
Q 447 1150 447 2328 
Q 447 3434 972 4092 
Q 1497 4750 2381 4750 
Q 2619 4750 2861 4703 
Q 3103 4656 3366 4563 
z
" transform="scale(0.015625)"/>
       </defs>
       <use xlink:href="#DejaVuSans-36"/>
       <use xlink:href="#DejaVuSans-30" transform="translate(63.623047 0)"/>
      </g>
     </g>
    </g>
    <g id="ytick_5">
     <g id="line2d_44">
      <path d="M 33.403125 61.393679 
L 703.003125 61.393679 
" clip-path="url(#pfc11e5f523)" style="fill: none; stroke: #b0b0b0; stroke-width: 0.8; stroke-linecap: square"/>
     </g>
     <g id="line2d_45">
      <g>
       <use xlink:href="#m335d36c343" x="33.403125" y="61.393679" style="stroke: #000000; stroke-width: 0.8"/>
      </g>
     </g>
     <g id="text_12">
      <!-- 80 -->
      <g transform="translate(13.678125 65.192898) scale(0.1 -0.1)">
       <defs>
        <path id="DejaVuSans-38" d="M 2034 2216 
Q 1584 2216 1326 1975 
Q 1069 1734 1069 1313 
Q 1069 891 1326 650 
Q 1584 409 2034 409 
Q 2484 409 2743 651 
Q 3003 894 3003 1313 
Q 3003 1734 2745 1975 
Q 2488 2216 2034 2216 
z
M 1403 2484 
Q 997 2584 770 2862 
Q 544 3141 544 3541 
Q 544 4100 942 4425 
Q 1341 4750 2034 4750 
Q 2731 4750 3128 4425 
Q 3525 4100 3525 3541 
Q 3525 3141 3298 2862 
Q 3072 2584 2669 2484 
Q 3125 2378 3379 2068 
Q 3634 1759 3634 1313 
Q 3634 634 3220 271 
Q 2806 -91 2034 -91 
Q 1263 -91 848 271 
Q 434 634 434 1313 
Q 434 1759 690 2068 
Q 947 2378 1403 2484 
z
M 1172 3481 
Q 1172 3119 1398 2916 
Q 1625 2713 2034 2713 
Q 2441 2713 2670 2916 
Q 2900 3119 2900 3481 
Q 2900 3844 2670 4047 
Q 2441 4250 2034 4250 
Q 1625 4250 1398 4047 
Q 1172 3844 1172 3481 
z
" transform="scale(0.015625)"/>
       </defs>
       <use xlink:href="#DejaVuSans-38"/>
       <use xlink:href="#DejaVuSans-30" transform="translate(63.623047 0)"/>
      </g>
     </g>
    </g>
    <g id="ytick_6">
     <g id="line2d_46">
      <defs>
       <path id="md03c1aa96b" d="M 0 0 
L -2 0 
" style="stroke: #000000; stroke-width: 0.6"/>
      </defs>
      <g>
       <use xlink:href="#md03c1aa96b" x="33.403125" y="365.187557" style="stroke: #000000; stroke-width: 0.6"/>
      </g>
     </g>
    </g>
    <g id="ytick_7">
     <g id="line2d_47">
      <g>
       <use xlink:href="#md03c1aa96b" x="33.403125" y="329.447101" style="stroke: #000000; stroke-width: 0.6"/>
      </g>
     </g>
    </g>
    <g id="ytick_8">
     <g id="line2d_48">
      <g>
       <use xlink:href="#md03c1aa96b" x="33.403125" y="311.576873" style="stroke: #000000; stroke-width: 0.6"/>
      </g>
     </g>
    </g>
    <g id="ytick_9">
     <g id="line2d_49">
      <g>
       <use xlink:href="#md03c1aa96b" x="33.403125" y="293.706645" style="stroke: #000000; stroke-width: 0.6"/>
      </g>
     </g>
    </g>
    <g id="ytick_10">
     <g id="line2d_50">
      <g>
       <use xlink:href="#md03c1aa96b" x="33.403125" y="257.966188" style="stroke: #000000; stroke-width: 0.6"/>
      </g>
     </g>
    </g>
    <g id="ytick_11">
     <g id="line2d_51">
      <g>
       <use xlink:href="#md03c1aa96b" x="33.403125" y="240.09596" style="stroke: #000000; stroke-width: 0.6"/>
      </g>
     </g>
    </g>
    <g id="ytick_12">
     <g id="line2d_52">
      <g>
       <use xlink:href="#md03c1aa96b" x="33.403125" y="222.225732" style="stroke: #000000; stroke-width: 0.6"/>
      </g>
     </g>
    </g>
    <g id="ytick_13">
     <g id="line2d_53">
      <g>
       <use xlink:href="#md03c1aa96b" x="33.403125" y="186.485276" style="stroke: #000000; stroke-width: 0.6"/>
      </g>
     </g>
    </g>
    <g id="ytick_14">
     <g id="line2d_54">
      <g>
       <use xlink:href="#md03c1aa96b" x="33.403125" y="168.615048" style="stroke: #000000; stroke-width: 0.6"/>
      </g>
     </g>
    </g>
    <g id="ytick_15">
     <g id="line2d_55">
      <g>
       <use xlink:href="#md03c1aa96b" x="33.403125" y="150.74482" style="stroke: #000000; stroke-width: 0.6"/>
      </g>
     </g>
    </g>
    <g id="ytick_16">
     <g id="line2d_56">
      <g>
       <use xlink:href="#md03c1aa96b" x="33.403125" y="115.004364" style="stroke: #000000; stroke-width: 0.6"/>
      </g>
     </g>
    </g>
    <g id="ytick_17">
     <g id="line2d_57">
      <g>
       <use xlink:href="#md03c1aa96b" x="33.403125" y="97.134135" style="stroke: #000000; stroke-width: 0.6"/>
      </g>
     </g>
    </g>
    <g id="ytick_18">
     <g id="line2d_58">
      <g>
       <use xlink:href="#md03c1aa96b" x="33.403125" y="79.263907" style="stroke: #000000; stroke-width: 0.6"/>
      </g>
     </g>
    </g>
    <g id="ytick_19">
     <g id="line2d_59">
      <g>
       <use xlink:href="#md03c1aa96b" x="33.403125" y="43.523451" style="stroke: #000000; stroke-width: 0.6"/>
      </g>
     </g>
    </g>
    <g id="text_13">
     <!-- Kumulierte korrigierte Gewichtänderung [kg] -->
     <g transform="translate(7.598438 321.717656) rotate(-90) scale(0.1 -0.1)">
      <defs>
       <path id="DejaVuSans-4b" d="M 628 4666 
L 1259 4666 
L 1259 2694 
L 3353 4666 
L 4166 4666 
L 1850 2491 
L 4331 0 
L 3500 0 
L 1259 2247 
L 1259 0 
L 628 0 
L 628 4666 
z
" transform="scale(0.015625)"/>
       <path id="DejaVuSans-6d" d="M 3328 2828 
Q 3544 3216 3844 3400 
Q 4144 3584 4550 3584 
Q 5097 3584 5394 3201 
Q 5691 2819 5691 2113 
L 5691 0 
L 5113 0 
L 5113 2094 
Q 5113 2597 4934 2840 
Q 4756 3084 4391 3084 
Q 3944 3084 3684 2787 
Q 3425 2491 3425 1978 
L 3425 0 
L 2847 0 
L 2847 2094 
Q 2847 2600 2669 2842 
Q 2491 3084 2119 3084 
Q 1678 3084 1418 2786 
Q 1159 2488 1159 1978 
L 1159 0 
L 581 0 
L 581 3500 
L 1159 3500 
L 1159 2956 
Q 1356 3278 1631 3431 
Q 1906 3584 2284 3584 
Q 2666 3584 2933 3390 
Q 3200 3197 3328 2828 
z
" transform="scale(0.015625)"/>
       <path id="DejaVuSans-65" d="M 3597 1894 
L 3597 1613 
L 953 1613 
Q 991 1019 1311 708 
Q 1631 397 2203 397 
Q 2534 397 2845 478 
Q 3156 559 3463 722 
L 3463 178 
Q 3153 47 2828 -22 
Q 2503 -91 2169 -91 
Q 1331 -91 842 396 
Q 353 884 353 1716 
Q 353 2575 817 3079 
Q 1281 3584 2069 3584 
Q 2775 3584 3186 3129 
Q 3597 2675 3597 1894 
z
M 3022 2063 
Q 3016 2534 2758 2815 
Q 2500 3097 2075 3097 
Q 1594 3097 1305 2825 
Q 1016 2553 972 2059 
L 3022 2063 
z
" transform="scale(0.015625)"/>
       <path id="DejaVuSans-20" transform="scale(0.015625)"/>
       <path id="DejaVuSans-6b" d="M 581 4863 
L 1159 4863 
L 1159 1991 
L 2875 3500 
L 3609 3500 
L 1753 1863 
L 3688 0 
L 2938 0 
L 1159 1709 
L 1159 0 
L 581 0 
L 581 4863 
z
" transform="scale(0.015625)"/>
       <path id="DejaVuSans-47" d="M 3809 666 
L 3809 1919 
L 2778 1919 
L 2778 2438 
L 4434 2438 
L 4434 434 
Q 4069 175 3628 42 
Q 3188 -91 2688 -91 
Q 1594 -91 976 548 
Q 359 1188 359 2328 
Q 359 3472 976 4111 
Q 1594 4750 2688 4750 
Q 3144 4750 3555 4637 
Q 3966 4525 4313 4306 
L 4313 3634 
Q 3963 3931 3569 4081 
Q 3175 4231 2741 4231 
Q 1884 4231 1454 3753 
Q 1025 3275 1025 2328 
Q 1025 1384 1454 906 
Q 1884 428 2741 428 
Q 3075 428 3337 486 
Q 3600 544 3809 666 
z
" transform="scale(0.015625)"/>
       <path id="DejaVuSans-77" d="M 269 3500 
L 844 3500 
L 1563 769 
L 2278 3500 
L 2956 3500 
L 3675 769 
L 4391 3500 
L 4966 3500 
L 4050 0 
L 3372 0 
L 2619 2869 
L 1863 0 
L 1184 0 
L 269 3500 
z
" transform="scale(0.015625)"/>
       <path id="DejaVuSans-63" d="M 3122 3366 
L 3122 2828 
Q 2878 2963 2633 3030 
Q 2388 3097 2138 3097 
Q 1578 3097 1268 2742 
Q 959 2388 959 1747 
Q 959 1106 1268 751 
Q 1578 397 2138 397 
Q 2388 397 2633 464 
Q 2878 531 3122 666 
L 3122 134 
Q 2881 22 2623 -34 
Q 2366 -91 2075 -91 
Q 1284 -91 818 406 
Q 353 903 353 1747 
Q 353 2603 823 3093 
Q 1294 3584 2113 3584 
Q 2378 3584 2631 3529 
Q 2884 3475 3122 3366 
z
" transform="scale(0.015625)"/>
       <path id="DejaVuSans-68" d="M 3513 2113 
L 3513 0 
L 2938 0 
L 2938 2094 
Q 2938 2591 2744 2837 
Q 2550 3084 2163 3084 
Q 1697 3084 1428 2787 
Q 1159 2491 1159 1978 
L 1159 0 
L 581 0 
L 581 4863 
L 1159 4863 
L 1159 2956 
Q 1366 3272 1645 3428 
Q 1925 3584 2291 3584 
Q 2894 3584 3203 3211 
Q 3513 2838 3513 2113 
z
" transform="scale(0.015625)"/>
       <path id="DejaVuSans-64" d="M 2906 2969 
L 2906 4863 
L 3481 4863 
L 3481 0 
L 2906 0 
L 2906 525 
Q 2725 213 2448 61 
Q 2172 -91 1784 -91 
Q 1150 -91 751 415 
Q 353 922 353 1747 
Q 353 2572 751 3078 
Q 1150 3584 1784 3584 
Q 2172 3584 2448 3432 
Q 2725 3281 2906 2969 
z
M 947 1747 
Q 947 1113 1208 752 
Q 1469 391 1925 391 
Q 2381 391 2643 752 
Q 2906 1113 2906 1747 
Q 2906 2381 2643 2742 
Q 2381 3103 1925 3103 
Q 1469 3103 1208 2742 
Q 947 2381 947 1747 
z
" transform="scale(0.015625)"/>
       <path id="DejaVuSans-5b" d="M 550 4863 
L 1875 4863 
L 1875 4416 
L 1125 4416 
L 1125 -397 
L 1875 -397 
L 1875 -844 
L 550 -844 
L 550 4863 
z
" transform="scale(0.015625)"/>
       <path id="DejaVuSans-5d" d="M 1947 4863 
L 1947 -844 
L 622 -844 
L 622 -397 
L 1369 -397 
L 1369 4416 
L 622 4416 
L 622 4863 
L 1947 4863 
z
" transform="scale(0.015625)"/>
      </defs>
      <use xlink:href="#DejaVuSans-4b"/>
      <use xlink:href="#DejaVuSans-75" transform="translate(60.576172 0)"/>
      <use xlink:href="#DejaVuSans-6d" transform="translate(123.955078 0)"/>
      <use xlink:href="#DejaVuSans-75" transform="translate(221.367188 0)"/>
      <use xlink:href="#DejaVuSans-6c" transform="translate(284.746094 0)"/>
      <use xlink:href="#DejaVuSans-69" transform="translate(312.529297 0)"/>
      <use xlink:href="#DejaVuSans-65" transform="translate(340.3125 0)"/>
      <use xlink:href="#DejaVuSans-72" transform="translate(401.835938 0)"/>
      <use xlink:href="#DejaVuSans-74" transform="translate(442.949219 0)"/>
      <use xlink:href="#DejaVuSans-65" transform="translate(482.158203 0)"/>
      <use xlink:href="#DejaVuSans-20" transform="translate(543.681641 0)"/>
      <use xlink:href="#DejaVuSans-6b" transform="translate(575.46875 0)"/>
      <use xlink:href="#DejaVuSans-6f" transform="translate(629.753906 0)"/>
      <use xlink:href="#DejaVuSans-72" transform="translate(690.935547 0)"/>
      <use xlink:href="#DejaVuSans-72" transform="translate(730.298828 0)"/>
      <use xlink:href="#DejaVuSans-69" transform="translate(771.412109 0)"/>
      <use xlink:href="#DejaVuSans-67" transform="translate(799.195312 0)"/>
      <use xlink:href="#DejaVuSans-69" transform="translate(862.671875 0)"/>
      <use xlink:href="#DejaVuSans-65" transform="translate(890.455078 0)"/>
      <use xlink:href="#DejaVuSans-72" transform="translate(951.978516 0)"/>
      <use xlink:href="#DejaVuSans-74" transform="translate(993.091797 0)"/>
      <use xlink:href="#DejaVuSans-65" transform="translate(1032.300781 0)"/>
      <use xlink:href="#DejaVuSans-20" transform="translate(1093.824219 0)"/>
      <use xlink:href="#DejaVuSans-47" transform="translate(1125.611328 0)"/>
      <use xlink:href="#DejaVuSans-65" transform="translate(1203.101562 0)"/>
      <use xlink:href="#DejaVuSans-77" transform="translate(1264.625 0)"/>
      <use xlink:href="#DejaVuSans-69" transform="translate(1346.412109 0)"/>
      <use xlink:href="#DejaVuSans-63" transform="translate(1374.195312 0)"/>
      <use xlink:href="#DejaVuSans-68" transform="translate(1429.175781 0)"/>
      <use xlink:href="#DejaVuSans-74" transform="translate(1492.554688 0)"/>
      <use xlink:href="#DejaVuSans-e4" transform="translate(1531.763672 0)"/>
      <use xlink:href="#DejaVuSans-6e" transform="translate(1593.042969 0)"/>
      <use xlink:href="#DejaVuSans-64" transform="translate(1656.421875 0)"/>
      <use xlink:href="#DejaVuSans-65" transform="translate(1719.898438 0)"/>
      <use xlink:href="#DejaVuSans-72" transform="translate(1781.421875 0)"/>
      <use xlink:href="#DejaVuSans-75" transform="translate(1822.535156 0)"/>
      <use xlink:href="#DejaVuSans-6e" transform="translate(1885.914062 0)"/>
      <use xlink:href="#DejaVuSans-67" transform="translate(1949.292969 0)"/>
      <use xlink:href="#DejaVuSans-20" transform="translate(2012.769531 0)"/>
      <use xlink:href="#DejaVuSans-5b" transform="translate(2044.556641 0)"/>
      <use xlink:href="#DejaVuSans-6b" transform="translate(2083.570312 0)"/>
      <use xlink:href="#DejaVuSans-67" transform="translate(2141.480469 0)"/>
      <use xlink:href="#DejaVuSans-5d" transform="translate(2204.957031 0)"/>
     </g>
    </g>
   </g>
   <g id="line2d_60">
    <path d="M 63.839489 358.182428 
L 71.849058 358.718534 
L 75.853843 358.897237 
L 79.858627 359.254641 
L 87.868197 359.397603 
L 91.872981 359.790748 
L 95.877766 359.790748 
L 103.887336 360.219634 
L 107.89212 360.219634 
L 111.896905 360.362595 
L 115.90169 360.112412 
L 123.911259 360.362595 
L 127.916044 360.148153 
L 135.925613 360.541298 
L 139.930398 359.862229 
L 143.935182 360.219634 
L 151.944752 360.434076 
L 159.954321 360.505557 
L 171.968675 360.183893 
L 175.97346 360.398336 
L 179.978245 360.469817 
L 183.983029 359.361863 
L 187.987814 359.469084 
L 191.992599 360.612779 
L 195.997383 360.72 
L 200.002168 359.612046 
L 204.006953 359.862229 
L 208.011737 360.469817 
L 212.016522 359.89797 
L 216.021307 360.255374 
L 220.026092 359.397603 
L 224.030876 360.040931 
L 228.035661 360.362595 
L 232.040446 359.326122 
L 236.04523 357.717802 
L 240.050015 357.038733 
L 244.0548 357.288916 
L 248.059584 356.895771 
L 252.064369 355.323191 
L 256.069154 353.500428 
L 264.078723 351.034336 
L 268.083508 350.140825 
L 272.088292 349.568978 
L 280.097862 346.316596 
L 284.102647 345.637527 
L 288.107431 346.209375 
L 296.117001 343.207176 
L 300.121785 343.099955 
L 304.12657 342.599589 
L 308.131355 341.384413 
L 312.136139 339.132764 
L 320.145709 335.129833 
L 324.150493 333.27133 
L 328.155278 331.663009 
L 332.160063 330.626536 
L 336.164847 329.911727 
L 340.169632 328.124704 
L 344.174417 326.945269 
L 348.179202 325.622872 
L 352.183986 326.123238 
L 356.188771 325.873055 
L 360.193556 324.729361 
L 364.19834 321.941605 
L 368.203125 319.475514 
L 372.20791 316.794979 
L 376.212694 315.29388 
L 380.217479 315.007957 
L 384.222264 315.25814 
L 388.227048 315.794247 
L 392.231833 316.473315 
L 396.236618 316.258872 
L 400.241403 317.045163 
L 404.246187 318.975147 
L 420.265326 320.226063 
L 424.270111 320.905132 
L 428.274895 319.296811 
L 432.27968 319.511254 
L 436.284465 318.939407 
L 444.294034 309.360964 
L 448.298819 307.609682 
L 452.303603 307.645423 
L 456.308388 303.106385 
L 460.313173 305.608217 
L 464.317958 305.000629 
L 468.322742 298.06698 
L 472.327527 291.562217 
L 476.332312 288.738721 
L 480.337096 287.988172 
L 484.341881 284.521347 
L 488.346666 279.624905 
L 492.35145 278.016584 
L 496.356235 273.906432 
L 500.36102 269.188692 
L 504.365804 271.726264 
L 508.370589 272.869959 
L 512.375374 273.048661 
L 516.380158 272.262371 
L 520.384943 270.368127 
L 524.389728 270.403867 
L 532.399297 270.225165 
L 536.404082 269.617577 
L 540.408867 271.654783 
L 544.413651 271.654783 
L 548.418436 272.15515 
L 552.423221 273.191623 
L 556.428005 274.51402 
L 560.43279 275.085867 
L 564.437575 276.265302 
L 568.442359 276.980111 
L 572.447144 277.837882 
L 576.451929 278.409729 
L 580.456714 279.624905 
L 584.461498 280.196752 
L 588.466283 280.554157 
L 592.471068 281.126004 
L 596.475852 282.41266 
L 600.480637 283.878019 
L 604.485422 284.70005 
L 612.494991 286.630034 
L 616.499776 287.09466 
L 620.50456 287.237622 
L 628.51413 286.630034 
L 632.518914 286.093927 
L 636.523699 286.665775 
L 640.528484 287.416324 
L 644.533269 287.344843 
L 648.538053 287.023179 
L 652.542838 287.88095 
L 656.547623 289.310568 
L 660.552407 290.132599 
L 668.561977 290.775927 
L 672.566761 290.132599 
L 672.566761 290.132599 
" clip-path="url(#pfc11e5f523)" style="fill: none; stroke: #bcbd22; stroke-width: 1.5; stroke-linecap: square"/>
   </g>
   <g id="line2d_61">
    <path d="M 63.839489 349.890642 
L 75.853843 350.140825 
L 83.863412 349.78342 
L 87.868197 347.996398 
L 91.872981 344.100688 
L 95.877766 344.422352 
L 99.882551 344.172169 
L 107.89212 345.244382 
L 111.896905 345.172902 
L 115.90169 344.922718 
L 119.906474 345.315863 
L 123.911259 346.173634 
L 127.916044 345.673268 
L 131.920828 344.815497 
L 135.925613 344.27939 
L 139.930398 345.280123 
L 143.935182 344.886978 
L 147.939967 344.744016 
L 151.944752 343.850505 
L 155.949536 343.779024 
L 159.954321 343.314398 
L 163.959106 343.600321 
L 167.963891 343.528841 
L 171.968675 343.850505 
L 179.978245 343.314398 
L 183.983029 343.385879 
L 187.987814 342.742551 
L 195.997383 344.422352 
L 200.002168 344.886978 
L 208.011737 344.207909 
L 212.016522 344.315131 
L 216.021307 345.280123 
L 220.026092 343.564581 
L 224.030876 342.063482 
L 228.035661 342.349406 
L 232.040446 342.206444 
L 236.04523 341.205711 
L 240.050015 337.488703 
L 244.0548 339.418688 
L 248.059584 335.380017 
L 252.064369 333.30707 
L 256.069154 331.484307 
L 260.073938 328.446368 
L 264.078723 328.410628 
L 268.083508 320.154582 
L 272.088292 314.007224 
L 276.093077 310.862064 
L 280.097862 313.971483 
L 284.102647 315.436842 
L 288.107431 316.115911 
L 292.112216 309.253743 
L 296.117001 303.142125 
L 300.121785 301.462324 
L 304.12657 287.666508 
L 308.131355 277.266035 
L 312.136139 275.907897 
L 316.140924 265.257241 
L 320.145709 246.636464 
L 324.150493 238.916525 
L 328.155278 240.310403 
L 332.160063 236.843579 
L 336.164847 227.979946 
L 340.169632 225.585335 
L 344.174417 227.622541 
L 348.179202 226.228663 
L 352.183986 227.122175 
L 356.188771 223.476648 
L 360.193556 217.507992 
L 364.19834 214.720236 
L 368.203125 217.686694 
L 372.20791 217.257809 
L 376.212694 214.362832 
L 380.217479 210.038237 
L 384.222264 208.537137 
L 388.227048 203.855138 
L 392.231833 206.178267 
L 396.236618 208.322695 
L 400.241403 209.073244 
L 404.246187 209.645092 
L 408.250972 210.038237 
L 412.255757 208.930282 
L 416.260541 206.678634 
L 420.265326 206.535672 
L 424.270111 206.607153 
L 428.274895 205.749382 
L 432.27968 206.285489 
L 436.284465 207.071779 
L 440.289249 208.108252 
L 444.294034 208.858802 
L 452.303603 209.108985 
L 456.308388 209.895275 
L 460.313173 208.537137 
L 464.317958 206.071046 
L 468.322742 202.711443 
L 472.327527 199.780726 
L 476.332312 198.422588 
L 480.337096 193.490405 
L 484.341881 189.022848 
L 492.35145 175.405735 
L 496.356235 168.043201 
L 500.36102 158.429018 
L 504.365804 150.101492 
L 508.370589 139.236393 
L 512.375374 131.659416 
L 516.380158 125.69076 
L 520.384943 124.832989 
L 524.389728 118.757111 
L 528.394513 108.892746 
L 532.399297 106.462395 
L 536.404082 103.424456 
L 540.408867 94.096197 
L 544.413651 84.16035 
L 548.418436 85.482747 
L 552.423221 78.441877 
L 556.428005 80.479083 
L 560.43279 81.372594 
L 564.437575 80.193159 
L 568.442359 78.334655 
L 572.447144 81.765739 
L 584.461498 83.052396 
L 588.466283 85.804411 
L 596.475852 87.234029 
L 600.480637 88.163281 
L 604.485422 89.485678 
L 608.490206 89.878823 
L 612.494991 90.629372 
L 616.499776 90.522151 
L 620.50456 91.808807 
L 628.51413 92.344914 
L 632.518914 92.523617 
L 636.523699 93.345647 
L 640.528484 92.344914 
L 644.533269 91.737327 
L 648.538053 93.095464 
L 652.542838 94.203418 
L 656.547623 91.844548 
L 660.552407 92.595098 
L 664.557192 93.524349 
L 668.561977 95.740258 
L 672.566761 97.813204 
L 672.566761 97.813204 
" clip-path="url(#pfc11e5f523)" style="fill: none; stroke: #d62728; stroke-width: 1.5; stroke-linecap: square"/>
   </g>
   <g id="line2d_62">
    <path d="M 63.839489 359.397603 
L 67.844273 358.968718 
L 71.849058 356.538367 
L 75.853843 356.82429 
L 79.858627 356.466886 
L 83.863412 356.717069 
L 87.868197 357.288916 
L 91.872981 357.038733 
L 99.882551 354.930046 
L 103.887336 354.501161 
L 107.89212 354.930046 
L 111.896905 354.322458 
L 115.90169 352.606916 
L 119.906474 351.677665 
L 123.911259 352.07081 
L 131.920828 350.391008 
L 135.925613 349.211573 
L 139.930398 346.63826 
L 143.935182 347.245848 
L 147.939967 346.066413 
L 151.944752 348.639726 
L 155.949536 349.568978 
L 159.954321 349.175833 
L 163.959106 347.638993 
L 167.963891 349.211573 
L 171.968675 350.069344 
L 175.97346 346.781222 
L 179.978245 344.029207 
L 183.983029 338.060551 
L 187.987814 339.56165 
L 191.992599 341.277192 
L 195.997383 339.382948 
L 200.002168 339.704612 
L 204.006953 332.770963 
L 208.011737 319.368292 
L 212.016522 310.325957 
L 216.021307 299.675301 
L 220.026092 302.391575 
L 228.035661 292.670171 
L 232.040446 276.586966 
L 236.04523 258.395074 
L 240.050015 254.14196 
L 244.0548 258.502295 
L 252.064369 261.433013 
L 256.069154 264.435211 
L 260.073938 265.543165 
L 264.078723 266.293715 
L 268.083508 268.116478 
L 272.088292 269.653318 
L 276.093077 271.011455 
L 280.097862 272.798478 
L 284.102647 274.228096 
L 288.107431 275.30031 
L 292.112216 271.940707 
L 296.117001 270.403867 
L 300.121785 264.006325 
L 304.12657 253.069746 
L 308.131355 242.847975 
L 312.136139 240.667808 
L 316.140924 246.35054 
L 324.150493 251.354204 
L 328.155278 248.387746 
L 332.160063 252.426418 
L 336.164847 252.319196 
L 340.169632 249.316998 
L 344.174417 244.599258 
L 348.179202 240.88225 
L 352.183986 234.55619 
L 356.188771 232.376022 
L 360.193556 229.981411 
L 364.19834 229.266602 
L 368.203125 229.516785 
L 372.20791 230.874923 
L 376.212694 231.661213 
L 380.217479 231.804174 
L 384.222264 233.376755 
L 388.227048 232.125839 
L 392.231833 234.806373 
L 396.236618 234.198785 
L 400.241403 234.734892 
L 404.246187 234.913594 
L 408.250972 232.376022 
L 412.255757 234.913594 
L 416.260541 236.521915 
L 420.265326 238.594861 
L 424.270111 238.559121 
L 428.274895 234.198785 
L 432.27968 231.518251 
L 436.284465 229.87419 
L 440.289249 228.837717 
L 444.294034 219.795381 
L 448.298819 220.974816 
L 452.303603 217.436511 
L 456.308388 211.718038 
L 460.313173 208.322695 
L 464.317958 205.141794 
L 468.322742 204.677168 
L 472.327527 201.71071 
L 476.332312 196.671306 
L 480.337096 190.166543 
L 484.341881 178.908299 
L 488.346666 178.765337 
L 492.35145 170.652254 
L 496.356235 166.47062 
L 500.36102 163.647124 
L 504.365804 161.824361 
L 508.370589 156.034407 
L 512.375374 158.464758 
L 516.380158 159.108087 
L 520.384943 156.713476 
L 524.389728 152.567583 
L 528.394513 147.099293 
L 532.399297 140.308607 
L 536.404082 136.019752 
L 540.408867 137.199187 
L 544.413651 134.232729 
L 548.418436 134.089767 
L 552.423221 137.020485 
L 556.428005 135.555126 
L 560.43279 135.376424 
L 564.437575 138.342881 
L 568.442359 138.771767 
L 572.447144 140.022683 
L 580.456714 142.881919 
L 584.461498 141.916927 
L 588.466283 144.061354 
L 592.471068 145.169309 
L 596.475852 144.847644 
L 600.480637 147.528179 
L 604.485422 148.564652 
L 608.490206 147.992805 
L 612.494991 149.95853 
L 616.499776 150.923522 
L 624.509345 152.174438 
L 628.51413 151.352408 
L 632.518914 151.995736 
L 636.523699 152.817766 
L 640.528484 152.3174 
L 644.533269 153.175171 
L 648.538053 156.391812 
L 652.542838 158.57198 
L 656.547623 160.323262 
L 660.552407 162.968056 
L 664.557192 163.861567 
L 668.561977 164.504895 
L 672.566761 164.576376 
L 672.566761 164.576376 
" clip-path="url(#pfc11e5f523)" style="fill: none; stroke: #2ca02c; stroke-width: 1.5; stroke-linecap: square"/>
   </g>
   <g id="line2d_63">
    <path d="M 63.839489 352.571176 
L 67.844273 352.535436 
L 71.849058 352.89284 
L 75.853843 353.035802 
L 79.858627 353.250245 
L 83.863412 353.714871 
L 87.868197 354.143756 
L 91.872981 357.467618 
L 95.877766 357.717802 
L 99.882551 357.825023 
L 103.887336 358.253909 
L 107.89212 358.075206 
L 111.896905 358.289649 
L 115.90169 358.468351 
L 119.906474 358.611313 
L 123.911259 358.932977 
L 127.916044 359.254641 
L 131.920828 359.540565 
L 135.925613 359.504824 
L 139.930398 359.14742 
L 143.935182 358.504092 
L 147.939967 358.039466 
L 151.944752 357.682061 
L 155.949536 356.931512 
L 159.954321 357.002993 
L 163.959106 357.217435 
M 171.968675 356.574107 
L 175.97346 356.288183 
L 179.978245 356.717069 
L 183.983029 355.823557 
L 187.987814 355.716336 
L 191.992599 354.286718 
L 195.997383 350.212306 
L 200.002168 345.709008 
L 204.006953 343.957726 
L 208.011737 343.779024 
L 212.016522 341.277192 
L 216.021307 335.773162 
L 220.026092 332.163375 
L 224.030876 329.447101 
L 228.035661 322.013086 
L 232.040446 313.256674 
L 236.04523 314.042964 
L 240.050015 306.072842 
L 244.0548 298.85327 
L 248.059584 300.676034 
L 252.064369 302.141392 
L 256.069154 303.678232 
L 260.073938 296.387179 
L 264.078723 287.273362 
L 268.083508 287.452065 
L 272.088292 281.018783 
L 276.093077 281.018783 
L 280.097862 281.805073 
L 284.102647 283.19895 
L 288.107431 271.690524 
L 292.112216 263.077074 
L 296.117001 254.713807 
L 300.121785 245.814433 
L 304.12657 236.736357 
L 308.131355 229.659747 
L 312.136139 225.94274 
L 316.140924 226.657549 
L 320.145709 228.730495 
L 324.150493 230.124373 
L 328.155278 228.408831 
L 332.160063 224.012755 
L 336.164847 218.580206 
L 340.169632 208.894542 
L 344.174417 196.421123 
L 348.179202 181.981978 
L 352.183986 174.083338 
L 356.188771 169.329857 
L 360.193556 166.39914 
L 364.19834 165.076743 
L 368.203125 163.933048 
L 372.20791 162.467689 
L 376.212694 161.788621 
L 380.217479 159.536972 
L 384.222264 158.429018 
L 388.227048 159.215308 
M 396.236618 160.073079 
L 400.241403 160.323262 
L 404.246187 161.538438 
L 408.250972 162.753613 
L 412.255757 162.003063 
L 416.260541 163.432682 
L 420.265326 163.968789 
L 424.270111 156.641995 
L 428.274895 150.280194 
L 432.27968 150.74482 
L 436.284465 148.42169 
L 440.289249 142.059889 
L 444.294034 135.626607 
L 448.298819 128.371294 
L 452.303603 121.00876 
L 456.308388 118.828592 
L 460.313173 121.79505 
L 464.317958 113.14586 
L 468.322742 105.3187 
L 472.327527 96.383586 
L 476.332312 83.731464 
L 480.337096 70.578976 
L 484.341881 66.468824 
L 488.346666 65.468091 
L 492.35145 58.32 
L 496.356235 60.178504 
" clip-path="url(#pfc11e5f523)" style="fill: none; stroke: #1f77b4; stroke-width: 1.5; stroke-linecap: square"/>
   </g>
   <g id="line2d_64">
    <path d="M 500.36102 375.84 
L 500.36102 43.2 
" clip-path="url(#pfc11e5f523)" style="fill: none; stroke-dasharray: 1.5,2.475; stroke-dashoffset: 0; stroke: #1f77b4; stroke-width: 1.5"/>
   </g>
   <g id="patch_3">
    <path d="M 33.403125 375.84 
L 33.403125 43.2 
" style="fill: none; stroke: #000000; stroke-width: 0.8; stroke-linejoin: miter; stroke-linecap: square"/>
   </g>
   <g id="patch_4">
    <path d="M 703.003125 375.84 
L 703.003125 43.2 
" style="fill: none; stroke: #000000; stroke-width: 0.8; stroke-linejoin: miter; stroke-linecap: square"/>
   </g>
   <g id="patch_5">
    <path d="M 33.403125 375.84 
L 703.003125 375.84 
" style="fill: none; stroke: #000000; stroke-width: 0.8; stroke-linejoin: miter; stroke-linecap: square"/>
   </g>
   <g id="patch_6">
    <path d="M 33.403125 43.2 
L 703.003125 43.2 
" style="fill: none; stroke: #000000; stroke-width: 0.8; stroke-linejoin: miter; stroke-linecap: square"/>
   </g>
   <g id="patch_7">
    <path d="M 179.426054 327.577341 
Q 187.263653 343.25254 194.601253 357.927739 
" style="fill: none; stroke: #000000; stroke-linecap: round"/>
    <path d="M 194.601253 353.902817 
L 194.601253 357.927739 
L 191.381315 355.512786 
" style="fill: none; stroke: #000000; stroke-linecap: round"/>
   </g>
   <g id="patch_8">
    <path d="M 520.17641 266.65799 
Q 511.262871 267.796373 503.458358 268.793118 
" style="fill: none; stroke: #000000; stroke-linecap: round"/>
    <path d="M 507.257385 270.12255 
L 503.458358 268.793118 
L 506.80132 266.551555 
" style="fill: none; stroke: #000000; stroke-linecap: round"/>
   </g>
   <g id="text_14">
    <g id="patch_9">
     <path d="M 522.66102 269.76041 
L 579.591645 269.76041 
L 579.591645 255.650098 
L 522.66102 255.650098 
z
" style="fill: #ffffff; stroke: #000000; stroke-linejoin: miter"/>
    </g>
    <!-- 18.06.2022 -->
    <g transform="translate(525.36102 265.188692) scale(0.09 -0.09)">
     <defs>
      <path id="DejaVuSans-31" d="M 794 531 
L 1825 531 
L 1825 4091 
L 703 3866 
L 703 4441 
L 1819 4666 
L 2450 4666 
L 2450 531 
L 3481 531 
L 3481 0 
L 794 0 
L 794 531 
z
" transform="scale(0.015625)"/>
      <path id="DejaVuSans-2e" d="M 684 794 
L 1344 794 
L 1344 0 
L 684 0 
L 684 794 
z
" transform="scale(0.015625)"/>
     </defs>
     <use xlink:href="#DejaVuSans-31"/>
     <use xlink:href="#DejaVuSans-38" transform="translate(63.623047 0)"/>
     <use xlink:href="#DejaVuSans-2e" transform="translate(127.246094 0)"/>
     <use xlink:href="#DejaVuSans-30" transform="translate(159.033203 0)"/>
     <use xlink:href="#DejaVuSans-36" transform="translate(222.65625 0)"/>
     <use xlink:href="#DejaVuSans-2e" transform="translate(286.279297 0)"/>
     <use xlink:href="#DejaVuSans-32" transform="translate(318.066406 0)"/>
     <use xlink:href="#DejaVuSans-30" transform="translate(381.689453 0)"/>
     <use xlink:href="#DejaVuSans-32" transform="translate(445.3125 0)"/>
     <use xlink:href="#DejaVuSans-32" transform="translate(508.935547 0)"/>
    </g>
   </g>
   <g id="patch_10">
    <path d="M 55.277728 317.033906 
Q 63.115328 332.709105 70.452928 347.384305 
" style="fill: none; stroke: #000000; stroke-linecap: round"/>
    <path d="M 70.452928 343.359383 
L 70.452928 347.384305 
L 67.23299 344.969351 
" style="fill: none; stroke: #000000; stroke-linecap: round"/>
   </g>
   <g id="patch_11">
    <path d="M 588.25775 75.803954 
Q 579.344211 76.942337 571.539697 77.939082 
" style="fill: none; stroke: #000000; stroke-linecap: round"/>
    <path d="M 575.338725 79.268514 
L 571.539697 77.939082 
L 574.882659 75.697519 
" style="fill: none; stroke: #000000; stroke-linecap: round"/>
   </g>
   <g id="text_15">
    <g id="patch_12">
     <path d="M 590.742359 78.906374 
L 647.672984 78.906374 
L 647.672984 64.796062 
L 590.742359 64.796062 
z
" style="fill: #ffffff; stroke: #000000; stroke-linejoin: miter"/>
    </g>
    <!-- 05.07.2023 -->
    <g transform="translate(593.442359 74.334655) scale(0.09 -0.09)">
     <defs>
      <path id="DejaVuSans-35" d="M 691 4666 
L 3169 4666 
L 3169 4134 
L 1269 4134 
L 1269 2991 
Q 1406 3038 1543 3061 
Q 1681 3084 1819 3084 
Q 2600 3084 3056 2656 
Q 3513 2228 3513 1497 
Q 3513 744 3044 326 
Q 2575 -91 1722 -91 
Q 1428 -91 1123 -41 
Q 819 9 494 109 
L 494 744 
Q 775 591 1075 516 
Q 1375 441 1709 441 
Q 2250 441 2565 725 
Q 2881 1009 2881 1497 
Q 2881 1984 2565 2268 
Q 2250 2553 1709 2553 
Q 1456 2553 1204 2497 
Q 953 2441 691 2322 
L 691 4666 
z
" transform="scale(0.015625)"/>
      <path id="DejaVuSans-37" d="M 525 4666 
L 3525 4666 
L 3525 4397 
L 1831 0 
L 1172 0 
L 2766 4134 
L 525 4134 
L 525 4666 
z
" transform="scale(0.015625)"/>
      <path id="DejaVuSans-33" d="M 2597 2516 
Q 3050 2419 3304 2112 
Q 3559 1806 3559 1356 
Q 3559 666 3084 287 
Q 2609 -91 1734 -91 
Q 1441 -91 1130 -33 
Q 819 25 488 141 
L 488 750 
Q 750 597 1062 519 
Q 1375 441 1716 441 
Q 2309 441 2620 675 
Q 2931 909 2931 1356 
Q 2931 1769 2642 2001 
Q 2353 2234 1838 2234 
L 1294 2234 
L 1294 2753 
L 1863 2753 
Q 2328 2753 2575 2939 
Q 2822 3125 2822 3475 
Q 2822 3834 2567 4026 
Q 2313 4219 1838 4219 
Q 1578 4219 1281 4162 
Q 984 4106 628 3988 
L 628 4550 
Q 988 4650 1302 4700 
Q 1616 4750 1894 4750 
Q 2613 4750 3031 4423 
Q 3450 4097 3450 3541 
Q 3450 3153 3228 2886 
Q 3006 2619 2597 2516 
z
" transform="scale(0.015625)"/>
     </defs>
     <use xlink:href="#DejaVuSans-30"/>
     <use xlink:href="#DejaVuSans-35" transform="translate(63.623047 0)"/>
     <use xlink:href="#DejaVuSans-2e" transform="translate(127.246094 0)"/>
     <use xlink:href="#DejaVuSans-30" transform="translate(159.033203 0)"/>
     <use xlink:href="#DejaVuSans-37" transform="translate(222.65625 0)"/>
     <use xlink:href="#DejaVuSans-2e" transform="translate(286.279297 0)"/>
     <use xlink:href="#DejaVuSans-32" transform="translate(318.066406 0)"/>
     <use xlink:href="#DejaVuSans-30" transform="translate(381.689453 0)"/>
     <use xlink:href="#DejaVuSans-32" transform="translate(445.3125 0)"/>
     <use xlink:href="#DejaVuSans-33" transform="translate(508.935547 0)"/>
    </g>
   </g>
   <g id="patch_13">
    <path d="M 47.268159 326.254944 
Q 55.105759 341.930143 62.443358 356.605343 
" style="fill: none; stroke: #000000; stroke-linecap: round"/>
    <path d="M 62.443358 352.58042 
L 62.443358 356.605343 
L 59.22342 354.190389 
" style="fill: none; stroke: #000000; stroke-linecap: round"/>
   </g>
   <g id="patch_14">
    <path d="M 568.233827 131.559066 
Q 559.320287 132.697449 551.515774 133.694194 
" style="fill: none; stroke: #000000; stroke-linecap: round"/>
    <path d="M 555.314802 135.023626 
L 551.515774 133.694194 
L 554.858736 131.452631 
" style="fill: none; stroke: #000000; stroke-linecap: round"/>
   </g>
   <g id="text_16">
    <g id="patch_15">
     <path d="M 570.718436 134.661486 
L 627.649061 134.661486 
L 627.649061 120.551173 
L 570.718436 120.551173 
z
" style="fill: #ffffff; stroke: #000000; stroke-linejoin: miter"/>
    </g>
    <!-- 30.06.2024 -->
    <g transform="translate(573.418436 130.089767) scale(0.09 -0.09)">
     <use xlink:href="#DejaVuSans-33"/>
     <use xlink:href="#DejaVuSans-30" transform="translate(63.623047 0)"/>
     <use xlink:href="#DejaVuSans-2e" transform="translate(127.246094 0)"/>
     <use xlink:href="#DejaVuSans-30" transform="translate(159.033203 0)"/>
     <use xlink:href="#DejaVuSans-36" transform="translate(222.65625 0)"/>
     <use xlink:href="#DejaVuSans-2e" transform="translate(286.279297 0)"/>
     <use xlink:href="#DejaVuSans-32" transform="translate(318.066406 0)"/>
     <use xlink:href="#DejaVuSans-30" transform="translate(381.689453 0)"/>
     <use xlink:href="#DejaVuSans-32" transform="translate(445.3125 0)"/>
     <use xlink:href="#DejaVuSans-34" transform="translate(508.935547 0)"/>
    </g>
   </g>
   <g id="patch_16">
    <path d="M 115.349499 326.397906 
Q 123.187098 342.073105 130.524698 356.748304 
" style="fill: none; stroke: #000000; stroke-linecap: round"/>
    <path d="M 130.524698 352.723382 
L 130.524698 356.748304 
L 127.30476 354.333351 
" style="fill: none; stroke: #000000; stroke-linecap: round"/>
   </g>
   <g id="text_17">
    <!-- Trachtverlauf im aktuellen Jahr und Vorjahre (ab 2022) -->
    <g transform="translate(204.658125 37.2) scale(0.12 -0.12)">
     <defs>
      <path id="DejaVuSans-54" d="M -19 4666 
L 3928 4666 
L 3928 4134 
L 2272 4134 
L 2272 0 
L 1638 0 
L 1638 4134 
L -19 4134 
L -19 4666 
z
" transform="scale(0.015625)"/>
      <path id="DejaVuSans-76" d="M 191 3500 
L 800 3500 
L 1894 563 
L 2988 3500 
L 3597 3500 
L 2284 0 
L 1503 0 
L 191 3500 
z
" transform="scale(0.015625)"/>
      <path id="DejaVuSans-66" d="M 2375 4863 
L 2375 4384 
L 1825 4384 
Q 1516 4384 1395 4259 
Q 1275 4134 1275 3809 
L 1275 3500 
L 2222 3500 
L 2222 3053 
L 1275 3053 
L 1275 0 
L 697 0 
L 697 3053 
L 147 3053 
L 147 3500 
L 697 3500 
L 697 3744 
Q 697 4328 969 4595 
Q 1241 4863 1831 4863 
L 2375 4863 
z
" transform="scale(0.015625)"/>
      <path id="DejaVuSans-56" d="M 1831 0 
L 50 4666 
L 709 4666 
L 2188 738 
L 3669 4666 
L 4325 4666 
L 2547 0 
L 1831 0 
z
" transform="scale(0.015625)"/>
      <path id="DejaVuSans-6a" d="M 603 3500 
L 1178 3500 
L 1178 -63 
Q 1178 -731 923 -1031 
Q 669 -1331 103 -1331 
L -116 -1331 
L -116 -844 
L 38 -844 
Q 366 -844 484 -692 
Q 603 -541 603 -63 
L 603 3500 
z
M 603 4863 
L 1178 4863 
L 1178 4134 
L 603 4134 
L 603 4863 
z
" transform="scale(0.015625)"/>
      <path id="DejaVuSans-28" d="M 1984 4856 
Q 1566 4138 1362 3434 
Q 1159 2731 1159 2009 
Q 1159 1288 1364 580 
Q 1569 -128 1984 -844 
L 1484 -844 
Q 1016 -109 783 600 
Q 550 1309 550 2009 
Q 550 2706 781 3412 
Q 1013 4119 1484 4856 
L 1984 4856 
z
" transform="scale(0.015625)"/>
      <path id="DejaVuSans-62" d="M 3116 1747 
Q 3116 2381 2855 2742 
Q 2594 3103 2138 3103 
Q 1681 3103 1420 2742 
Q 1159 2381 1159 1747 
Q 1159 1113 1420 752 
Q 1681 391 2138 391 
Q 2594 391 2855 752 
Q 3116 1113 3116 1747 
z
M 1159 2969 
Q 1341 3281 1617 3432 
Q 1894 3584 2278 3584 
Q 2916 3584 3314 3078 
Q 3713 2572 3713 1747 
Q 3713 922 3314 415 
Q 2916 -91 2278 -91 
Q 1894 -91 1617 61 
Q 1341 213 1159 525 
L 1159 0 
L 581 0 
L 581 4863 
L 1159 4863 
L 1159 2969 
z
" transform="scale(0.015625)"/>
      <path id="DejaVuSans-29" d="M 513 4856 
L 1013 4856 
Q 1481 4119 1714 3412 
Q 1947 2706 1947 2009 
Q 1947 1309 1714 600 
Q 1481 -109 1013 -844 
L 513 -844 
Q 928 -128 1133 580 
Q 1338 1288 1338 2009 
Q 1338 2731 1133 3434 
Q 928 4138 513 4856 
z
" transform="scale(0.015625)"/>
     </defs>
     <use xlink:href="#DejaVuSans-54"/>
     <use xlink:href="#DejaVuSans-72" transform="translate(46.333984 0)"/>
     <use xlink:href="#DejaVuSans-61" transform="translate(87.447266 0)"/>
     <use xlink:href="#DejaVuSans-63" transform="translate(148.726562 0)"/>
     <use xlink:href="#DejaVuSans-68" transform="translate(203.707031 0)"/>
     <use xlink:href="#DejaVuSans-74" transform="translate(267.085938 0)"/>
     <use xlink:href="#DejaVuSans-76" transform="translate(306.294922 0)"/>
     <use xlink:href="#DejaVuSans-65" transform="translate(365.474609 0)"/>
     <use xlink:href="#DejaVuSans-72" transform="translate(426.998047 0)"/>
     <use xlink:href="#DejaVuSans-6c" transform="translate(468.111328 0)"/>
     <use xlink:href="#DejaVuSans-61" transform="translate(495.894531 0)"/>
     <use xlink:href="#DejaVuSans-75" transform="translate(557.173828 0)"/>
     <use xlink:href="#DejaVuSans-66" transform="translate(620.552734 0)"/>
     <use xlink:href="#DejaVuSans-20" transform="translate(655.757812 0)"/>
     <use xlink:href="#DejaVuSans-69" transform="translate(687.544922 0)"/>
     <use xlink:href="#DejaVuSans-6d" transform="translate(715.328125 0)"/>
     <use xlink:href="#DejaVuSans-20" transform="translate(812.740234 0)"/>
     <use xlink:href="#DejaVuSans-61" transform="translate(844.527344 0)"/>
     <use xlink:href="#DejaVuSans-6b" transform="translate(905.806641 0)"/>
     <use xlink:href="#DejaVuSans-74" transform="translate(963.716797 0)"/>
     <use xlink:href="#DejaVuSans-75" transform="translate(1002.925781 0)"/>
     <use xlink:href="#DejaVuSans-65" transform="translate(1066.304688 0)"/>
     <use xlink:href="#DejaVuSans-6c" transform="translate(1127.828125 0)"/>
     <use xlink:href="#DejaVuSans-6c" transform="translate(1155.611328 0)"/>
     <use xlink:href="#DejaVuSans-65" transform="translate(1183.394531 0)"/>
     <use xlink:href="#DejaVuSans-6e" transform="translate(1244.917969 0)"/>
     <use xlink:href="#DejaVuSans-20" transform="translate(1308.296875 0)"/>
     <use xlink:href="#DejaVuSans-4a" transform="translate(1340.083984 0)"/>
     <use xlink:href="#DejaVuSans-61" transform="translate(1369.576172 0)"/>
     <use xlink:href="#DejaVuSans-68" transform="translate(1430.855469 0)"/>
     <use xlink:href="#DejaVuSans-72" transform="translate(1494.234375 0)"/>
     <use xlink:href="#DejaVuSans-20" transform="translate(1535.347656 0)"/>
     <use xlink:href="#DejaVuSans-75" transform="translate(1567.134766 0)"/>
     <use xlink:href="#DejaVuSans-6e" transform="translate(1630.513672 0)"/>
     <use xlink:href="#DejaVuSans-64" transform="translate(1693.892578 0)"/>
     <use xlink:href="#DejaVuSans-20" transform="translate(1757.369141 0)"/>
     <use xlink:href="#DejaVuSans-56" transform="translate(1789.15625 0)"/>
     <use xlink:href="#DejaVuSans-6f" transform="translate(1849.814453 0)"/>
     <use xlink:href="#DejaVuSans-72" transform="translate(1910.996094 0)"/>
     <use xlink:href="#DejaVuSans-6a" transform="translate(1952.109375 0)"/>
     <use xlink:href="#DejaVuSans-61" transform="translate(1979.892578 0)"/>
     <use xlink:href="#DejaVuSans-68" transform="translate(2041.171875 0)"/>
     <use xlink:href="#DejaVuSans-72" transform="translate(2104.550781 0)"/>
     <use xlink:href="#DejaVuSans-65" transform="translate(2143.414062 0)"/>
     <use xlink:href="#DejaVuSans-20" transform="translate(2204.9375 0)"/>
     <use xlink:href="#DejaVuSans-28" transform="translate(2236.724609 0)"/>
     <use xlink:href="#DejaVuSans-61" transform="translate(2275.738281 0)"/>
     <use xlink:href="#DejaVuSans-62" transform="translate(2337.017578 0)"/>
     <use xlink:href="#DejaVuSans-20" transform="translate(2400.494141 0)"/>
     <use xlink:href="#DejaVuSans-32" transform="translate(2432.28125 0)"/>
     <use xlink:href="#DejaVuSans-30" transform="translate(2495.904297 0)"/>
     <use xlink:href="#DejaVuSans-32" transform="translate(2559.527344 0)"/>
     <use xlink:href="#DejaVuSans-32" transform="translate(2623.150391 0)"/>
     <use xlink:href="#DejaVuSans-29" transform="translate(2686.773438 0)"/>
    </g>
   </g>
   <g id="legend_1">
    <g id="patch_17">
     <path d="M 40.403125 124.590625 
L 169.542188 124.590625 
Q 171.542188 124.590625 171.542188 122.590625 
L 171.542188 50.2 
Q 171.542188 48.2 169.542188 48.2 
L 40.403125 48.2 
Q 38.403125 48.2 38.403125 50.2 
L 38.403125 122.590625 
Q 38.403125 124.590625 40.403125 124.590625 
z
" style="fill: #ffffff; opacity: 0.8; stroke: #cccccc; stroke-linejoin: miter"/>
    </g>
    <g id="line2d_65">
     <path d="M 42.403125 56.298437 
L 52.403125 56.298437 
L 62.403125 56.298437 
" style="fill: none; stroke: #bcbd22; stroke-width: 1.5; stroke-linecap: square"/>
    </g>
    <g id="text_18">
     <!-- 2022 -->
     <g transform="translate(70.403125 59.798437) scale(0.1 -0.1)">
      <use xlink:href="#DejaVuSans-32"/>
      <use xlink:href="#DejaVuSans-30" transform="translate(63.623047 0)"/>
      <use xlink:href="#DejaVuSans-32" transform="translate(127.246094 0)"/>
      <use xlink:href="#DejaVuSans-32" transform="translate(190.869141 0)"/>
     </g>
    </g>
    <g id="line2d_66">
     <path d="M 42.403125 70.976562 
L 52.403125 70.976562 
L 62.403125 70.976562 
" style="fill: none; stroke: #d62728; stroke-width: 1.5; stroke-linecap: square"/>
    </g>
    <g id="text_19">
     <!-- 2023 -->
     <g transform="translate(70.403125 74.476562) scale(0.1 -0.1)">
      <use xlink:href="#DejaVuSans-32"/>
      <use xlink:href="#DejaVuSans-30" transform="translate(63.623047 0)"/>
      <use xlink:href="#DejaVuSans-32" transform="translate(127.246094 0)"/>
      <use xlink:href="#DejaVuSans-33" transform="translate(190.869141 0)"/>
     </g>
    </g>
    <g id="line2d_67">
     <path d="M 42.403125 85.654687 
L 52.403125 85.654687 
L 62.403125 85.654687 
" style="fill: none; stroke: #2ca02c; stroke-width: 1.5; stroke-linecap: square"/>
    </g>
    <g id="text_20">
     <!-- 2024 -->
     <g transform="translate(70.403125 89.154687) scale(0.1 -0.1)">
      <use xlink:href="#DejaVuSans-32"/>
      <use xlink:href="#DejaVuSans-30" transform="translate(63.623047 0)"/>
      <use xlink:href="#DejaVuSans-32" transform="translate(127.246094 0)"/>
      <use xlink:href="#DejaVuSans-34" transform="translate(190.869141 0)"/>
     </g>
    </g>
    <g id="line2d_68">
     <path d="M 42.403125 100.332812 
L 52.403125 100.332812 
L 62.403125 100.332812 
" style="fill: none; stroke: #1f77b4; stroke-width: 1.5; stroke-linecap: square"/>
    </g>
    <g id="text_21">
     <!-- 2025 -->
     <g transform="translate(70.403125 103.832812) scale(0.1 -0.1)">
      <use xlink:href="#DejaVuSans-32"/>
      <use xlink:href="#DejaVuSans-30" transform="translate(63.623047 0)"/>
      <use xlink:href="#DejaVuSans-32" transform="translate(127.246094 0)"/>
      <use xlink:href="#DejaVuSans-35" transform="translate(190.869141 0)"/>
     </g>
    </g>
    <g id="line2d_69">
     <path d="M 42.403125 115.010938 
L 52.403125 115.010938 
L 62.403125 115.010938 
" style="fill: none; stroke-dasharray: 1.5,2.475; stroke-dashoffset: 0; stroke: #1f77b4; stroke-width: 1.5"/>
    </g>
    <g id="text_22">
     <!-- heute (18.06.2025) -->
     <g transform="translate(70.403125 118.510938) scale(0.1 -0.1)">
      <use xlink:href="#DejaVuSans-68"/>
      <use xlink:href="#DejaVuSans-65" transform="translate(63.378906 0)"/>
      <use xlink:href="#DejaVuSans-75" transform="translate(124.902344 0)"/>
      <use xlink:href="#DejaVuSans-74" transform="translate(188.28125 0)"/>
      <use xlink:href="#DejaVuSans-65" transform="translate(227.490234 0)"/>
      <use xlink:href="#DejaVuSans-20" transform="translate(289.013672 0)"/>
      <use xlink:href="#DejaVuSans-28" transform="translate(320.800781 0)"/>
      <use xlink:href="#DejaVuSans-31" transform="translate(359.814453 0)"/>
      <use xlink:href="#DejaVuSans-38" transform="translate(423.4375 0)"/>
      <use xlink:href="#DejaVuSans-2e" transform="translate(487.060547 0)"/>
      <use xlink:href="#DejaVuSans-30" transform="translate(518.847656 0)"/>
      <use xlink:href="#DejaVuSans-36" transform="translate(582.470703 0)"/>
      <use xlink:href="#DejaVuSans-2e" transform="translate(646.09375 0)"/>
      <use xlink:href="#DejaVuSans-32" transform="translate(677.880859 0)"/>
      <use xlink:href="#DejaVuSans-30" transform="translate(741.503906 0)"/>
      <use xlink:href="#DejaVuSans-32" transform="translate(805.126953 0)"/>
      <use xlink:href="#DejaVuSans-35" transform="translate(868.75 0)"/>
      <use xlink:href="#DejaVuSans-29" transform="translate(932.373047 0)"/>
     </g>
    </g>
   </g>
  </g>
  <g id="text_23">
   <!-- Dr. Gerhard Liebig (Waage 1276) -->
   <g transform="translate(258.63375 9.118125) scale(0.12 -0.12)">
    <defs>
     <path id="DejaVuSans-44" d="M 1259 4147 
L 1259 519 
L 2022 519 
Q 2988 519 3436 956 
Q 3884 1394 3884 2338 
Q 3884 3275 3436 3711 
Q 2988 4147 2022 4147 
L 1259 4147 
z
M 628 4666 
L 1925 4666 
Q 3281 4666 3915 4102 
Q 4550 3538 4550 2338 
Q 4550 1131 3912 565 
Q 3275 0 1925 0 
L 628 0 
L 628 4666 
z
" transform="scale(0.015625)"/>
     <path id="DejaVuSans-4c" d="M 628 4666 
L 1259 4666 
L 1259 531 
L 3531 531 
L 3531 0 
L 628 0 
L 628 4666 
z
" transform="scale(0.015625)"/>
     <path id="DejaVuSans-57" d="M 213 4666 
L 850 4666 
L 1831 722 
L 2809 4666 
L 3519 4666 
L 4500 722 
L 5478 4666 
L 6119 4666 
L 4947 0 
L 4153 0 
L 3169 4050 
L 2175 0 
L 1381 0 
L 213 4666 
z
" transform="scale(0.015625)"/>
    </defs>
    <use xlink:href="#DejaVuSans-44"/>
    <use xlink:href="#DejaVuSans-72" transform="translate(77.001953 0)"/>
    <use xlink:href="#DejaVuSans-2e" transform="translate(108.990234 0)"/>
    <use xlink:href="#DejaVuSans-20" transform="translate(140.777344 0)"/>
    <use xlink:href="#DejaVuSans-47" transform="translate(172.564453 0)"/>
    <use xlink:href="#DejaVuSans-65" transform="translate(250.054688 0)"/>
    <use xlink:href="#DejaVuSans-72" transform="translate(311.578125 0)"/>
    <use xlink:href="#DejaVuSans-68" transform="translate(350.941406 0)"/>
    <use xlink:href="#DejaVuSans-61" transform="translate(414.320312 0)"/>
    <use xlink:href="#DejaVuSans-72" transform="translate(475.599609 0)"/>
    <use xlink:href="#DejaVuSans-64" transform="translate(514.962891 0)"/>
    <use xlink:href="#DejaVuSans-20" transform="translate(578.439453 0)"/>
    <use xlink:href="#DejaVuSans-4c" transform="translate(610.226562 0)"/>
    <use xlink:href="#DejaVuSans-69" transform="translate(665.939453 0)"/>
    <use xlink:href="#DejaVuSans-65" transform="translate(693.722656 0)"/>
    <use xlink:href="#DejaVuSans-62" transform="translate(755.246094 0)"/>
    <use xlink:href="#DejaVuSans-69" transform="translate(818.722656 0)"/>
    <use xlink:href="#DejaVuSans-67" transform="translate(846.505859 0)"/>
    <use xlink:href="#DejaVuSans-20" transform="translate(909.982422 0)"/>
    <use xlink:href="#DejaVuSans-28" transform="translate(941.769531 0)"/>
    <use xlink:href="#DejaVuSans-57" transform="translate(980.783203 0)"/>
    <use xlink:href="#DejaVuSans-61" transform="translate(1073.285156 0)"/>
    <use xlink:href="#DejaVuSans-61" transform="translate(1134.564453 0)"/>
    <use xlink:href="#DejaVuSans-67" transform="translate(1195.84375 0)"/>
    <use xlink:href="#DejaVuSans-65" transform="translate(1259.320312 0)"/>
    <use xlink:href="#DejaVuSans-20" transform="translate(1320.84375 0)"/>
    <use xlink:href="#DejaVuSans-31" transform="translate(1352.630859 0)"/>
    <use xlink:href="#DejaVuSans-32" transform="translate(1416.253906 0)"/>
    <use xlink:href="#DejaVuSans-37" transform="translate(1479.876953 0)"/>
    <use xlink:href="#DejaVuSans-36" transform="translate(1543.5 0)"/>
    <use xlink:href="#DejaVuSans-29" transform="translate(1607.123047 0)"/>
   </g>
  </g>
 </g>
 <defs>
  <clipPath id="pfc11e5f523">
   <rect x="33.403125" y="43.2" width="669.6" height="332.64"/>
  </clipPath>
 </defs>
</svg>
