<?xml version="1.0" encoding="utf-8" standalone="no"?>
<!DOCTYPE svg PUBLIC "-//W3C//DTD SVG 1.1//EN"
  "http://www.w3.org/Graphics/SVG/1.1/DTD/svg11.dtd">
<svg xmlns:xlink="http://www.w3.org/1999/xlink" width="703.003125pt" height="406.19625pt" viewBox="0 0 703.003125 406.19625" xmlns="http://www.w3.org/2000/svg" version="1.1">
 <metadata>
  <rdf:RDF xmlns:dc="http://purl.org/dc/elements/1.1/" xmlns:cc="http://creativecommons.org/ns#" xmlns:rdf="http://www.w3.org/1999/02/22-rdf-syntax-ns#">
   <cc:Work>
    <dc:type rdf:resource="http://purl.org/dc/dcmitype/StillImage"/>
    <dc:date>2025-06-20T18:29:07.012456</dc:date>
    <dc:format>image/svg+xml</dc:format>
    <dc:creator>
     <cc:Agent>
      <dc:title>Matplotlib v3.10.3, https://matplotlib.org/</dc:title>
     </cc:Agent>
    </dc:creator>
   </cc:Work>
  </rdf:RDF>
 </metadata>
 <defs>
  <style type="text/css">*{stroke-linejoin: round; stroke-linecap: butt}</style>
 </defs>
 <g id="figure_1">
  <g id="patch_1">
   <path d="M 0 406.19625 
L 703.003125 406.19625 
L 703.003125 0 
L 0 0 
z
" style="fill: #ffffff"/>
  </g>
  <g id="axes_1">
   <g id="patch_2">
    <path d="M 33.403125 375.84 
L 703.003125 375.84 
L 703.003125 43.2 
L 33.403125 43.2 
z
" style="fill: #ffffff"/>
   </g>
   <g id="matplotlib.axis_1">
    <g id="xtick_1">
     <g id="line2d_1">
      <path d="M 63.839489 375.84 
L 63.839489 43.2 
" clip-path="url(#p0f85089da2)" style="fill: none; stroke: #b0b0b0; stroke-width: 0.8; stroke-linecap: square"/>
     </g>
     <g id="line2d_2">
      <defs>
       <path id="m5497046969" d="M 0 0 
L 0 3.5 
" style="stroke: #000000; stroke-width: 0.8"/>
      </defs>
      <g>
       <use xlink:href="#m5497046969" x="63.839489" y="375.84" style="stroke: #000000; stroke-width: 0.8"/>
      </g>
     </g>
     <g id="text_1">
      <!-- Mär -->
      <g transform="translate(54.405895 390.438438) scale(0.1 -0.1)">
       <defs>
        <path id="DejaVuSans-4d" d="M 628 4666 
L 1569 4666 
L 2759 1491 
L 3956 4666 
L 4897 4666 
L 4897 0 
L 4281 0 
L 4281 4097 
L 3078 897 
L 2444 897 
L 1241 4097 
L 1241 0 
L 628 0 
L 628 4666 
z
" transform="scale(0.015625)"/>
        <path id="DejaVuSans-e4" d="M 2194 1759 
Q 1497 1759 1228 1600 
Q 959 1441 959 1056 
Q 959 750 1161 570 
Q 1363 391 1709 391 
Q 2188 391 2477 730 
Q 2766 1069 2766 1631 
L 2766 1759 
L 2194 1759 
z
M 3341 1997 
L 3341 0 
L 2766 0 
L 2766 531 
Q 2569 213 2275 61 
Q 1981 -91 1556 -91 
Q 1019 -91 701 211 
Q 384 513 384 1019 
Q 384 1609 779 1909 
Q 1175 2209 1959 2209 
L 2766 2209 
L 2766 2266 
Q 2766 2663 2505 2880 
Q 2244 3097 1772 3097 
Q 1472 3097 1187 3025 
Q 903 2953 641 2809 
L 641 3341 
Q 956 3463 1253 3523 
Q 1550 3584 1831 3584 
Q 2591 3584 2966 3190 
Q 3341 2797 3341 1997 
z
M 2150 4850 
L 2784 4850 
L 2784 4219 
L 2150 4219 
L 2150 4850 
z
M 928 4850 
L 1562 4850 
L 1562 4219 
L 928 4219 
L 928 4850 
z
" transform="scale(0.015625)"/>
        <path id="DejaVuSans-72" d="M 2631 2963 
Q 2534 3019 2420 3045 
Q 2306 3072 2169 3072 
Q 1681 3072 1420 2755 
Q 1159 2438 1159 1844 
L 1159 0 
L 581 0 
L 581 3500 
L 1159 3500 
L 1159 2956 
Q 1341 3275 1631 3429 
Q 1922 3584 2338 3584 
Q 2397 3584 2469 3576 
Q 2541 3569 2628 3553 
L 2631 2963 
z
" transform="scale(0.015625)"/>
       </defs>
       <use xlink:href="#DejaVuSans-4d"/>
       <use xlink:href="#DejaVuSans-e4" transform="translate(86.279297 0)"/>
       <use xlink:href="#DejaVuSans-72" transform="translate(147.558594 0)"/>
      </g>
     </g>
    </g>
    <g id="xtick_2">
     <g id="line2d_3">
      <path d="M 187.987814 375.84 
L 187.987814 43.2 
" clip-path="url(#p0f85089da2)" style="fill: none; stroke: #b0b0b0; stroke-width: 0.8; stroke-linecap: square"/>
     </g>
     <g id="line2d_4">
      <g>
       <use xlink:href="#m5497046969" x="187.987814" y="375.84" style="stroke: #000000; stroke-width: 0.8"/>
      </g>
     </g>
     <g id="text_2">
      <!-- Apr -->
      <g transform="translate(179.337814 390.438438) scale(0.1 -0.1)">
       <defs>
        <path id="DejaVuSans-41" d="M 2188 4044 
L 1331 1722 
L 3047 1722 
L 2188 4044 
z
M 1831 4666 
L 2547 4666 
L 4325 0 
L 3669 0 
L 3244 1197 
L 1141 1197 
L 716 0 
L 50 0 
L 1831 4666 
z
" transform="scale(0.015625)"/>
        <path id="DejaVuSans-70" d="M 1159 525 
L 1159 -1331 
L 581 -1331 
L 581 3500 
L 1159 3500 
L 1159 2969 
Q 1341 3281 1617 3432 
Q 1894 3584 2278 3584 
Q 2916 3584 3314 3078 
Q 3713 2572 3713 1747 
Q 3713 922 3314 415 
Q 2916 -91 2278 -91 
Q 1894 -91 1617 61 
Q 1341 213 1159 525 
z
M 3116 1747 
Q 3116 2381 2855 2742 
Q 2594 3103 2138 3103 
Q 1681 3103 1420 2742 
Q 1159 2381 1159 1747 
Q 1159 1113 1420 752 
Q 1681 391 2138 391 
Q 2594 391 2855 752 
Q 3116 1113 3116 1747 
z
" transform="scale(0.015625)"/>
       </defs>
       <use xlink:href="#DejaVuSans-41"/>
       <use xlink:href="#DejaVuSans-70" transform="translate(68.408203 0)"/>
       <use xlink:href="#DejaVuSans-72" transform="translate(131.884766 0)"/>
      </g>
     </g>
    </g>
    <g id="xtick_3">
     <g id="line2d_5">
      <path d="M 308.131355 375.84 
L 308.131355 43.2 
" clip-path="url(#p0f85089da2)" style="fill: none; stroke: #b0b0b0; stroke-width: 0.8; stroke-linecap: square"/>
     </g>
     <g id="line2d_6">
      <g>
       <use xlink:href="#m5497046969" x="308.131355" y="375.84" style="stroke: #000000; stroke-width: 0.8"/>
      </g>
     </g>
     <g id="text_3">
      <!-- Mai -->
      <g transform="translate(299.364167 390.438438) scale(0.1 -0.1)">
       <defs>
        <path id="DejaVuSans-61" d="M 2194 1759 
Q 1497 1759 1228 1600 
Q 959 1441 959 1056 
Q 959 750 1161 570 
Q 1363 391 1709 391 
Q 2188 391 2477 730 
Q 2766 1069 2766 1631 
L 2766 1759 
L 2194 1759 
z
M 3341 1997 
L 3341 0 
L 2766 0 
L 2766 531 
Q 2569 213 2275 61 
Q 1981 -91 1556 -91 
Q 1019 -91 701 211 
Q 384 513 384 1019 
Q 384 1609 779 1909 
Q 1175 2209 1959 2209 
L 2766 2209 
L 2766 2266 
Q 2766 2663 2505 2880 
Q 2244 3097 1772 3097 
Q 1472 3097 1187 3025 
Q 903 2953 641 2809 
L 641 3341 
Q 956 3463 1253 3523 
Q 1550 3584 1831 3584 
Q 2591 3584 2966 3190 
Q 3341 2797 3341 1997 
z
" transform="scale(0.015625)"/>
        <path id="DejaVuSans-69" d="M 603 3500 
L 1178 3500 
L 1178 0 
L 603 0 
L 603 3500 
z
M 603 4863 
L 1178 4863 
L 1178 4134 
L 603 4134 
L 603 4863 
z
" transform="scale(0.015625)"/>
       </defs>
       <use xlink:href="#DejaVuSans-4d"/>
       <use xlink:href="#DejaVuSans-61" transform="translate(86.279297 0)"/>
       <use xlink:href="#DejaVuSans-69" transform="translate(147.558594 0)"/>
      </g>
     </g>
    </g>
    <g id="xtick_4">
     <g id="line2d_7">
      <path d="M 432.27968 375.84 
L 432.27968 43.2 
" clip-path="url(#p0f85089da2)" style="fill: none; stroke: #b0b0b0; stroke-width: 0.8; stroke-linecap: square"/>
     </g>
     <g id="line2d_8">
      <g>
       <use xlink:href="#m5497046969" x="432.27968" y="375.84" style="stroke: #000000; stroke-width: 0.8"/>
      </g>
     </g>
     <g id="text_4">
      <!-- Jun -->
      <g transform="translate(424.46718 390.438438) scale(0.1 -0.1)">
       <defs>
        <path id="DejaVuSans-4a" d="M 628 4666 
L 1259 4666 
L 1259 325 
Q 1259 -519 939 -900 
Q 619 -1281 -91 -1281 
L -331 -1281 
L -331 -750 
L -134 -750 
Q 284 -750 456 -515 
Q 628 -281 628 325 
L 628 4666 
z
" transform="scale(0.015625)"/>
        <path id="DejaVuSans-75" d="M 544 1381 
L 544 3500 
L 1119 3500 
L 1119 1403 
Q 1119 906 1312 657 
Q 1506 409 1894 409 
Q 2359 409 2629 706 
Q 2900 1003 2900 1516 
L 2900 3500 
L 3475 3500 
L 3475 0 
L 2900 0 
L 2900 538 
Q 2691 219 2414 64 
Q 2138 -91 1772 -91 
Q 1169 -91 856 284 
Q 544 659 544 1381 
z
M 1991 3584 
L 1991 3584 
z
" transform="scale(0.015625)"/>
        <path id="DejaVuSans-6e" d="M 3513 2113 
L 3513 0 
L 2938 0 
L 2938 2094 
Q 2938 2591 2744 2837 
Q 2550 3084 2163 3084 
Q 1697 3084 1428 2787 
Q 1159 2491 1159 1978 
L 1159 0 
L 581 0 
L 581 3500 
L 1159 3500 
L 1159 2956 
Q 1366 3272 1645 3428 
Q 1925 3584 2291 3584 
Q 2894 3584 3203 3211 
Q 3513 2838 3513 2113 
z
" transform="scale(0.015625)"/>
       </defs>
       <use xlink:href="#DejaVuSans-4a"/>
       <use xlink:href="#DejaVuSans-75" transform="translate(29.492188 0)"/>
       <use xlink:href="#DejaVuSans-6e" transform="translate(92.871094 0)"/>
      </g>
     </g>
    </g>
    <g id="xtick_5">
     <g id="line2d_9">
      <path d="M 552.423221 375.84 
L 552.423221 43.2 
" clip-path="url(#p0f85089da2)" style="fill: none; stroke: #b0b0b0; stroke-width: 0.8; stroke-linecap: square"/>
     </g>
     <g id="line2d_10">
      <g>
       <use xlink:href="#m5497046969" x="552.423221" y="375.84" style="stroke: #000000; stroke-width: 0.8"/>
      </g>
     </g>
     <g id="text_5">
      <!-- Jul -->
      <g transform="translate(546.390408 390.438438) scale(0.1 -0.1)">
       <defs>
        <path id="DejaVuSans-6c" d="M 603 4863 
L 1178 4863 
L 1178 0 
L 603 0 
L 603 4863 
z
" transform="scale(0.015625)"/>
       </defs>
       <use xlink:href="#DejaVuSans-4a"/>
       <use xlink:href="#DejaVuSans-75" transform="translate(29.492188 0)"/>
       <use xlink:href="#DejaVuSans-6c" transform="translate(92.871094 0)"/>
      </g>
     </g>
    </g>
    <g id="xtick_6">
     <g id="line2d_11">
      <path d="M 676.571546 375.84 
L 676.571546 43.2 
" clip-path="url(#p0f85089da2)" style="fill: none; stroke: #b0b0b0; stroke-width: 0.8; stroke-linecap: square"/>
     </g>
     <g id="line2d_12">
      <g>
       <use xlink:href="#m5497046969" x="676.571546" y="375.84" style="stroke: #000000; stroke-width: 0.8"/>
      </g>
     </g>
     <g id="text_6">
      <!-- Aug -->
      <g transform="translate(666.808265 390.438438) scale(0.1 -0.1)">
       <defs>
        <path id="DejaVuSans-67" d="M 2906 1791 
Q 2906 2416 2648 2759 
Q 2391 3103 1925 3103 
Q 1463 3103 1205 2759 
Q 947 2416 947 1791 
Q 947 1169 1205 825 
Q 1463 481 1925 481 
Q 2391 481 2648 825 
Q 2906 1169 2906 1791 
z
M 3481 434 
Q 3481 -459 3084 -895 
Q 2688 -1331 1869 -1331 
Q 1566 -1331 1297 -1286 
Q 1028 -1241 775 -1147 
L 775 -588 
Q 1028 -725 1275 -790 
Q 1522 -856 1778 -856 
Q 2344 -856 2625 -561 
Q 2906 -266 2906 331 
L 2906 616 
Q 2728 306 2450 153 
Q 2172 0 1784 0 
Q 1141 0 747 490 
Q 353 981 353 1791 
Q 353 2603 747 3093 
Q 1141 3584 1784 3584 
Q 2172 3584 2450 3431 
Q 2728 3278 2906 2969 
L 2906 3500 
L 3481 3500 
L 3481 434 
z
" transform="scale(0.015625)"/>
       </defs>
       <use xlink:href="#DejaVuSans-41"/>
       <use xlink:href="#DejaVuSans-75" transform="translate(68.408203 0)"/>
       <use xlink:href="#DejaVuSans-67" transform="translate(131.787109 0)"/>
      </g>
     </g>
    </g>
    <g id="xtick_7">
     <g id="line2d_13">
      <defs>
       <path id="m544875ee28" d="M 0 0 
L 0 2 
" style="stroke: #000000; stroke-width: 0.6"/>
      </defs>
      <g>
       <use xlink:href="#m544875ee28" x="55.829919" y="375.84" style="stroke: #000000; stroke-width: 0.6"/>
      </g>
     </g>
    </g>
    <g id="xtick_8">
     <g id="line2d_14">
      <g>
       <use xlink:href="#m544875ee28" x="83.863412" y="375.84" style="stroke: #000000; stroke-width: 0.6"/>
      </g>
     </g>
    </g>
    <g id="xtick_9">
     <g id="line2d_15">
      <g>
       <use xlink:href="#m544875ee28" x="111.896905" y="375.84" style="stroke: #000000; stroke-width: 0.6"/>
      </g>
     </g>
    </g>
    <g id="xtick_10">
     <g id="line2d_16">
      <g>
       <use xlink:href="#m544875ee28" x="139.930398" y="375.84" style="stroke: #000000; stroke-width: 0.6"/>
      </g>
     </g>
    </g>
    <g id="xtick_11">
     <g id="line2d_17">
      <g>
       <use xlink:href="#m544875ee28" x="167.963891" y="375.84" style="stroke: #000000; stroke-width: 0.6"/>
      </g>
     </g>
    </g>
    <g id="xtick_12">
     <g id="line2d_18">
      <g>
       <use xlink:href="#m544875ee28" x="195.997383" y="375.84" style="stroke: #000000; stroke-width: 0.6"/>
      </g>
     </g>
    </g>
    <g id="xtick_13">
     <g id="line2d_19">
      <g>
       <use xlink:href="#m544875ee28" x="224.030876" y="375.84" style="stroke: #000000; stroke-width: 0.6"/>
      </g>
     </g>
    </g>
    <g id="xtick_14">
     <g id="line2d_20">
      <g>
       <use xlink:href="#m544875ee28" x="252.064369" y="375.84" style="stroke: #000000; stroke-width: 0.6"/>
      </g>
     </g>
    </g>
    <g id="xtick_15">
     <g id="line2d_21">
      <g>
       <use xlink:href="#m544875ee28" x="280.097862" y="375.84" style="stroke: #000000; stroke-width: 0.6"/>
      </g>
     </g>
    </g>
    <g id="xtick_16">
     <g id="line2d_22">
      <g>
       <use xlink:href="#m544875ee28" x="336.164847" y="375.84" style="stroke: #000000; stroke-width: 0.6"/>
      </g>
     </g>
    </g>
    <g id="xtick_17">
     <g id="line2d_23">
      <g>
       <use xlink:href="#m544875ee28" x="364.19834" y="375.84" style="stroke: #000000; stroke-width: 0.6"/>
      </g>
     </g>
    </g>
    <g id="xtick_18">
     <g id="line2d_24">
      <g>
       <use xlink:href="#m544875ee28" x="392.231833" y="375.84" style="stroke: #000000; stroke-width: 0.6"/>
      </g>
     </g>
    </g>
    <g id="xtick_19">
     <g id="line2d_25">
      <g>
       <use xlink:href="#m544875ee28" x="420.265326" y="375.84" style="stroke: #000000; stroke-width: 0.6"/>
      </g>
     </g>
    </g>
    <g id="xtick_20">
     <g id="line2d_26">
      <g>
       <use xlink:href="#m544875ee28" x="448.298819" y="375.84" style="stroke: #000000; stroke-width: 0.6"/>
      </g>
     </g>
    </g>
    <g id="xtick_21">
     <g id="line2d_27">
      <g>
       <use xlink:href="#m544875ee28" x="476.332312" y="375.84" style="stroke: #000000; stroke-width: 0.6"/>
      </g>
     </g>
    </g>
    <g id="xtick_22">
     <g id="line2d_28">
      <g>
       <use xlink:href="#m544875ee28" x="504.365804" y="375.84" style="stroke: #000000; stroke-width: 0.6"/>
      </g>
     </g>
    </g>
    <g id="xtick_23">
     <g id="line2d_29">
      <g>
       <use xlink:href="#m544875ee28" x="532.399297" y="375.84" style="stroke: #000000; stroke-width: 0.6"/>
      </g>
     </g>
    </g>
    <g id="xtick_24">
     <g id="line2d_30">
      <g>
       <use xlink:href="#m544875ee28" x="560.43279" y="375.84" style="stroke: #000000; stroke-width: 0.6"/>
      </g>
     </g>
    </g>
    <g id="xtick_25">
     <g id="line2d_31">
      <g>
       <use xlink:href="#m544875ee28" x="588.466283" y="375.84" style="stroke: #000000; stroke-width: 0.6"/>
      </g>
     </g>
    </g>
    <g id="xtick_26">
     <g id="line2d_32">
      <g>
       <use xlink:href="#m544875ee28" x="616.499776" y="375.84" style="stroke: #000000; stroke-width: 0.6"/>
      </g>
     </g>
    </g>
    <g id="xtick_27">
     <g id="line2d_33">
      <g>
       <use xlink:href="#m544875ee28" x="644.533269" y="375.84" style="stroke: #000000; stroke-width: 0.6"/>
      </g>
     </g>
    </g>
    <g id="xtick_28">
     <g id="line2d_34">
      <g>
       <use xlink:href="#m544875ee28" x="672.566761" y="375.84" style="stroke: #000000; stroke-width: 0.6"/>
      </g>
     </g>
    </g>
    <g id="xtick_29">
     <g id="line2d_35">
      <g>
       <use xlink:href="#m544875ee28" x="700.600254" y="375.84" style="stroke: #000000; stroke-width: 0.6"/>
      </g>
     </g>
    </g>
    <g id="text_7">
     <!-- Monat -->
     <g transform="translate(352.636719 404.116563) scale(0.1 -0.1)">
      <defs>
       <path id="DejaVuSans-6f" d="M 1959 3097 
Q 1497 3097 1228 2736 
Q 959 2375 959 1747 
Q 959 1119 1226 758 
Q 1494 397 1959 397 
Q 2419 397 2687 759 
Q 2956 1122 2956 1747 
Q 2956 2369 2687 2733 
Q 2419 3097 1959 3097 
z
M 1959 3584 
Q 2709 3584 3137 3096 
Q 3566 2609 3566 1747 
Q 3566 888 3137 398 
Q 2709 -91 1959 -91 
Q 1206 -91 779 398 
Q 353 888 353 1747 
Q 353 2609 779 3096 
Q 1206 3584 1959 3584 
z
" transform="scale(0.015625)"/>
       <path id="DejaVuSans-74" d="M 1172 4494 
L 1172 3500 
L 2356 3500 
L 2356 3053 
L 1172 3053 
L 1172 1153 
Q 1172 725 1289 603 
Q 1406 481 1766 481 
L 2356 481 
L 2356 0 
L 1766 0 
Q 1100 0 847 248 
Q 594 497 594 1153 
L 594 3053 
L 172 3053 
L 172 3500 
L 594 3500 
L 594 4494 
L 1172 4494 
z
" transform="scale(0.015625)"/>
      </defs>
      <use xlink:href="#DejaVuSans-4d"/>
      <use xlink:href="#DejaVuSans-6f" transform="translate(86.279297 0)"/>
      <use xlink:href="#DejaVuSans-6e" transform="translate(147.460938 0)"/>
      <use xlink:href="#DejaVuSans-61" transform="translate(210.839844 0)"/>
      <use xlink:href="#DejaVuSans-74" transform="translate(272.119141 0)"/>
     </g>
    </g>
   </g>
   <g id="matplotlib.axis_2">
    <g id="ytick_1">
     <g id="line2d_36">
      <path d="M 33.403125 347.998438 
L 703.003125 347.998438 
" clip-path="url(#p0f85089da2)" style="fill: none; stroke: #b0b0b0; stroke-width: 0.8; stroke-linecap: square"/>
     </g>
     <g id="line2d_37">
      <defs>
       <path id="mc18d76ebe8" d="M 0 0 
L -3.5 0 
" style="stroke: #000000; stroke-width: 0.8"/>
      </defs>
      <g>
       <use xlink:href="#mc18d76ebe8" x="33.403125" y="347.998438" style="stroke: #000000; stroke-width: 0.8"/>
      </g>
     </g>
     <g id="text_8">
      <!-- 0 -->
      <g transform="translate(20.040625 351.797657) scale(0.1 -0.1)">
       <defs>
        <path id="DejaVuSans-30" d="M 2034 4250 
Q 1547 4250 1301 3770 
Q 1056 3291 1056 2328 
Q 1056 1369 1301 889 
Q 1547 409 2034 409 
Q 2525 409 2770 889 
Q 3016 1369 3016 2328 
Q 3016 3291 2770 3770 
Q 2525 4250 2034 4250 
z
M 2034 4750 
Q 2819 4750 3233 4129 
Q 3647 3509 3647 2328 
Q 3647 1150 3233 529 
Q 2819 -91 2034 -91 
Q 1250 -91 836 529 
Q 422 1150 422 2328 
Q 422 3509 836 4129 
Q 1250 4750 2034 4750 
z
" transform="scale(0.015625)"/>
       </defs>
       <use xlink:href="#DejaVuSans-30"/>
      </g>
     </g>
    </g>
    <g id="ytick_2">
     <g id="line2d_38">
      <path d="M 33.403125 280.15011 
L 703.003125 280.15011 
" clip-path="url(#p0f85089da2)" style="fill: none; stroke: #b0b0b0; stroke-width: 0.8; stroke-linecap: square"/>
     </g>
     <g id="line2d_39">
      <g>
       <use xlink:href="#mc18d76ebe8" x="33.403125" y="280.15011" style="stroke: #000000; stroke-width: 0.8"/>
      </g>
     </g>
     <g id="text_9">
      <!-- 20 -->
      <g transform="translate(13.678125 283.949329) scale(0.1 -0.1)">
       <defs>
        <path id="DejaVuSans-32" d="M 1228 531 
L 3431 531 
L 3431 0 
L 469 0 
L 469 531 
Q 828 903 1448 1529 
Q 2069 2156 2228 2338 
Q 2531 2678 2651 2914 
Q 2772 3150 2772 3378 
Q 2772 3750 2511 3984 
Q 2250 4219 1831 4219 
Q 1534 4219 1204 4116 
Q 875 4013 500 3803 
L 500 4441 
Q 881 4594 1212 4672 
Q 1544 4750 1819 4750 
Q 2544 4750 2975 4387 
Q 3406 4025 3406 3419 
Q 3406 3131 3298 2873 
Q 3191 2616 2906 2266 
Q 2828 2175 2409 1742 
Q 1991 1309 1228 531 
z
" transform="scale(0.015625)"/>
       </defs>
       <use xlink:href="#DejaVuSans-32"/>
       <use xlink:href="#DejaVuSans-30" transform="translate(63.623047 0)"/>
      </g>
     </g>
    </g>
    <g id="ytick_3">
     <g id="line2d_40">
      <path d="M 33.403125 212.301781 
L 703.003125 212.301781 
" clip-path="url(#p0f85089da2)" style="fill: none; stroke: #b0b0b0; stroke-width: 0.8; stroke-linecap: square"/>
     </g>
     <g id="line2d_41">
      <g>
       <use xlink:href="#mc18d76ebe8" x="33.403125" y="212.301781" style="stroke: #000000; stroke-width: 0.8"/>
      </g>
     </g>
     <g id="text_10">
      <!-- 40 -->
      <g transform="translate(13.678125 216.101) scale(0.1 -0.1)">
       <defs>
        <path id="DejaVuSans-34" d="M 2419 4116 
L 825 1625 
L 2419 1625 
L 2419 4116 
z
M 2253 4666 
L 3047 4666 
L 3047 1625 
L 3713 1625 
L 3713 1100 
L 3047 1100 
L 3047 0 
L 2419 0 
L 2419 1100 
L 313 1100 
L 313 1709 
L 2253 4666 
z
" transform="scale(0.015625)"/>
       </defs>
       <use xlink:href="#DejaVuSans-34"/>
       <use xlink:href="#DejaVuSans-30" transform="translate(63.623047 0)"/>
      </g>
     </g>
    </g>
    <g id="ytick_4">
     <g id="line2d_42">
      <path d="M 33.403125 144.453453 
L 703.003125 144.453453 
" clip-path="url(#p0f85089da2)" style="fill: none; stroke: #b0b0b0; stroke-width: 0.8; stroke-linecap: square"/>
     </g>
     <g id="line2d_43">
      <g>
       <use xlink:href="#mc18d76ebe8" x="33.403125" y="144.453453" style="stroke: #000000; stroke-width: 0.8"/>
      </g>
     </g>
     <g id="text_11">
      <!-- 60 -->
      <g transform="translate(13.678125 148.252672) scale(0.1 -0.1)">
       <defs>
        <path id="DejaVuSans-36" d="M 2113 2584 
Q 1688 2584 1439 2293 
Q 1191 2003 1191 1497 
Q 1191 994 1439 701 
Q 1688 409 2113 409 
Q 2538 409 2786 701 
Q 3034 994 3034 1497 
Q 3034 2003 2786 2293 
Q 2538 2584 2113 2584 
z
M 3366 4563 
L 3366 3988 
Q 3128 4100 2886 4159 
Q 2644 4219 2406 4219 
Q 1781 4219 1451 3797 
Q 1122 3375 1075 2522 
Q 1259 2794 1537 2939 
Q 1816 3084 2150 3084 
Q 2853 3084 3261 2657 
Q 3669 2231 3669 1497 
Q 3669 778 3244 343 
Q 2819 -91 2113 -91 
Q 1303 -91 875 529 
Q 447 1150 447 2328 
Q 447 3434 972 4092 
Q 1497 4750 2381 4750 
Q 2619 4750 2861 4703 
Q 3103 4656 3366 4563 
z
" transform="scale(0.015625)"/>
       </defs>
       <use xlink:href="#DejaVuSans-36"/>
       <use xlink:href="#DejaVuSans-30" transform="translate(63.623047 0)"/>
      </g>
     </g>
    </g>
    <g id="ytick_5">
     <g id="line2d_44">
      <path d="M 33.403125 76.605125 
L 703.003125 76.605125 
" clip-path="url(#p0f85089da2)" style="fill: none; stroke: #b0b0b0; stroke-width: 0.8; stroke-linecap: square"/>
     </g>
     <g id="line2d_45">
      <g>
       <use xlink:href="#mc18d76ebe8" x="33.403125" y="76.605125" style="stroke: #000000; stroke-width: 0.8"/>
      </g>
     </g>
     <g id="text_12">
      <!-- 80 -->
      <g transform="translate(13.678125 80.404343) scale(0.1 -0.1)">
       <defs>
        <path id="DejaVuSans-38" d="M 2034 2216 
Q 1584 2216 1326 1975 
Q 1069 1734 1069 1313 
Q 1069 891 1326 650 
Q 1584 409 2034 409 
Q 2484 409 2743 651 
Q 3003 894 3003 1313 
Q 3003 1734 2745 1975 
Q 2488 2216 2034 2216 
z
M 1403 2484 
Q 997 2584 770 2862 
Q 544 3141 544 3541 
Q 544 4100 942 4425 
Q 1341 4750 2034 4750 
Q 2731 4750 3128 4425 
Q 3525 4100 3525 3541 
Q 3525 3141 3298 2862 
Q 3072 2584 2669 2484 
Q 3125 2378 3379 2068 
Q 3634 1759 3634 1313 
Q 3634 634 3220 271 
Q 2806 -91 2034 -91 
Q 1263 -91 848 271 
Q 434 634 434 1313 
Q 434 1759 690 2068 
Q 947 2378 1403 2484 
z
M 1172 3481 
Q 1172 3119 1398 2916 
Q 1625 2713 2034 2713 
Q 2441 2713 2670 2916 
Q 2900 3119 2900 3481 
Q 2900 3844 2670 4047 
Q 2441 4250 2034 4250 
Q 1625 4250 1398 4047 
Q 1172 3844 1172 3481 
z
" transform="scale(0.015625)"/>
       </defs>
       <use xlink:href="#DejaVuSans-38"/>
       <use xlink:href="#DejaVuSans-30" transform="translate(63.623047 0)"/>
      </g>
     </g>
    </g>
    <g id="ytick_6">
     <g id="line2d_46">
      <defs>
       <path id="m0d4341c011" d="M 0 0 
L -2 0 
" style="stroke: #000000; stroke-width: 0.6"/>
      </defs>
      <g>
       <use xlink:href="#m0d4341c011" x="33.403125" y="364.960521" style="stroke: #000000; stroke-width: 0.6"/>
      </g>
     </g>
    </g>
    <g id="ytick_7">
     <g id="line2d_47">
      <g>
       <use xlink:href="#m0d4341c011" x="33.403125" y="331.036356" style="stroke: #000000; stroke-width: 0.6"/>
      </g>
     </g>
    </g>
    <g id="ytick_8">
     <g id="line2d_48">
      <g>
       <use xlink:href="#m0d4341c011" x="33.403125" y="314.074274" style="stroke: #000000; stroke-width: 0.6"/>
      </g>
     </g>
    </g>
    <g id="ytick_9">
     <g id="line2d_49">
      <g>
       <use xlink:href="#m0d4341c011" x="33.403125" y="297.112192" style="stroke: #000000; stroke-width: 0.6"/>
      </g>
     </g>
    </g>
    <g id="ytick_10">
     <g id="line2d_50">
      <g>
       <use xlink:href="#m0d4341c011" x="33.403125" y="263.188028" style="stroke: #000000; stroke-width: 0.6"/>
      </g>
     </g>
    </g>
    <g id="ytick_11">
     <g id="line2d_51">
      <g>
       <use xlink:href="#m0d4341c011" x="33.403125" y="246.225946" style="stroke: #000000; stroke-width: 0.6"/>
      </g>
     </g>
    </g>
    <g id="ytick_12">
     <g id="line2d_52">
      <g>
       <use xlink:href="#m0d4341c011" x="33.403125" y="229.263864" style="stroke: #000000; stroke-width: 0.6"/>
      </g>
     </g>
    </g>
    <g id="ytick_13">
     <g id="line2d_53">
      <g>
       <use xlink:href="#m0d4341c011" x="33.403125" y="195.339699" style="stroke: #000000; stroke-width: 0.6"/>
      </g>
     </g>
    </g>
    <g id="ytick_14">
     <g id="line2d_54">
      <g>
       <use xlink:href="#m0d4341c011" x="33.403125" y="178.377617" style="stroke: #000000; stroke-width: 0.6"/>
      </g>
     </g>
    </g>
    <g id="ytick_15">
     <g id="line2d_55">
      <g>
       <use xlink:href="#m0d4341c011" x="33.403125" y="161.415535" style="stroke: #000000; stroke-width: 0.6"/>
      </g>
     </g>
    </g>
    <g id="ytick_16">
     <g id="line2d_56">
      <g>
       <use xlink:href="#m0d4341c011" x="33.403125" y="127.491371" style="stroke: #000000; stroke-width: 0.6"/>
      </g>
     </g>
    </g>
    <g id="ytick_17">
     <g id="line2d_57">
      <g>
       <use xlink:href="#m0d4341c011" x="33.403125" y="110.529289" style="stroke: #000000; stroke-width: 0.6"/>
      </g>
     </g>
    </g>
    <g id="ytick_18">
     <g id="line2d_58">
      <g>
       <use xlink:href="#m0d4341c011" x="33.403125" y="93.567207" style="stroke: #000000; stroke-width: 0.6"/>
      </g>
     </g>
    </g>
    <g id="ytick_19">
     <g id="line2d_59">
      <g>
       <use xlink:href="#m0d4341c011" x="33.403125" y="59.643042" style="stroke: #000000; stroke-width: 0.6"/>
      </g>
     </g>
    </g>
    <g id="text_13">
     <!-- Kumulierte korrigierte Gewichtänderung [kg] -->
     <g transform="translate(7.598438 321.717656) rotate(-90) scale(0.1 -0.1)">
      <defs>
       <path id="DejaVuSans-4b" d="M 628 4666 
L 1259 4666 
L 1259 2694 
L 3353 4666 
L 4166 4666 
L 1850 2491 
L 4331 0 
L 3500 0 
L 1259 2247 
L 1259 0 
L 628 0 
L 628 4666 
z
" transform="scale(0.015625)"/>
       <path id="DejaVuSans-6d" d="M 3328 2828 
Q 3544 3216 3844 3400 
Q 4144 3584 4550 3584 
Q 5097 3584 5394 3201 
Q 5691 2819 5691 2113 
L 5691 0 
L 5113 0 
L 5113 2094 
Q 5113 2597 4934 2840 
Q 4756 3084 4391 3084 
Q 3944 3084 3684 2787 
Q 3425 2491 3425 1978 
L 3425 0 
L 2847 0 
L 2847 2094 
Q 2847 2600 2669 2842 
Q 2491 3084 2119 3084 
Q 1678 3084 1418 2786 
Q 1159 2488 1159 1978 
L 1159 0 
L 581 0 
L 581 3500 
L 1159 3500 
L 1159 2956 
Q 1356 3278 1631 3431 
Q 1906 3584 2284 3584 
Q 2666 3584 2933 3390 
Q 3200 3197 3328 2828 
z
" transform="scale(0.015625)"/>
       <path id="DejaVuSans-65" d="M 3597 1894 
L 3597 1613 
L 953 1613 
Q 991 1019 1311 708 
Q 1631 397 2203 397 
Q 2534 397 2845 478 
Q 3156 559 3463 722 
L 3463 178 
Q 3153 47 2828 -22 
Q 2503 -91 2169 -91 
Q 1331 -91 842 396 
Q 353 884 353 1716 
Q 353 2575 817 3079 
Q 1281 3584 2069 3584 
Q 2775 3584 3186 3129 
Q 3597 2675 3597 1894 
z
M 3022 2063 
Q 3016 2534 2758 2815 
Q 2500 3097 2075 3097 
Q 1594 3097 1305 2825 
Q 1016 2553 972 2059 
L 3022 2063 
z
" transform="scale(0.015625)"/>
       <path id="DejaVuSans-20" transform="scale(0.015625)"/>
       <path id="DejaVuSans-6b" d="M 581 4863 
L 1159 4863 
L 1159 1991 
L 2875 3500 
L 3609 3500 
L 1753 1863 
L 3688 0 
L 2938 0 
L 1159 1709 
L 1159 0 
L 581 0 
L 581 4863 
z
" transform="scale(0.015625)"/>
       <path id="DejaVuSans-47" d="M 3809 666 
L 3809 1919 
L 2778 1919 
L 2778 2438 
L 4434 2438 
L 4434 434 
Q 4069 175 3628 42 
Q 3188 -91 2688 -91 
Q 1594 -91 976 548 
Q 359 1188 359 2328 
Q 359 3472 976 4111 
Q 1594 4750 2688 4750 
Q 3144 4750 3555 4637 
Q 3966 4525 4313 4306 
L 4313 3634 
Q 3963 3931 3569 4081 
Q 3175 4231 2741 4231 
Q 1884 4231 1454 3753 
Q 1025 3275 1025 2328 
Q 1025 1384 1454 906 
Q 1884 428 2741 428 
Q 3075 428 3337 486 
Q 3600 544 3809 666 
z
" transform="scale(0.015625)"/>
       <path id="DejaVuSans-77" d="M 269 3500 
L 844 3500 
L 1563 769 
L 2278 3500 
L 2956 3500 
L 3675 769 
L 4391 3500 
L 4966 3500 
L 4050 0 
L 3372 0 
L 2619 2869 
L 1863 0 
L 1184 0 
L 269 3500 
z
" transform="scale(0.015625)"/>
       <path id="DejaVuSans-63" d="M 3122 3366 
L 3122 2828 
Q 2878 2963 2633 3030 
Q 2388 3097 2138 3097 
Q 1578 3097 1268 2742 
Q 959 2388 959 1747 
Q 959 1106 1268 751 
Q 1578 397 2138 397 
Q 2388 397 2633 464 
Q 2878 531 3122 666 
L 3122 134 
Q 2881 22 2623 -34 
Q 2366 -91 2075 -91 
Q 1284 -91 818 406 
Q 353 903 353 1747 
Q 353 2603 823 3093 
Q 1294 3584 2113 3584 
Q 2378 3584 2631 3529 
Q 2884 3475 3122 3366 
z
" transform="scale(0.015625)"/>
       <path id="DejaVuSans-68" d="M 3513 2113 
L 3513 0 
L 2938 0 
L 2938 2094 
Q 2938 2591 2744 2837 
Q 2550 3084 2163 3084 
Q 1697 3084 1428 2787 
Q 1159 2491 1159 1978 
L 1159 0 
L 581 0 
L 581 4863 
L 1159 4863 
L 1159 2956 
Q 1366 3272 1645 3428 
Q 1925 3584 2291 3584 
Q 2894 3584 3203 3211 
Q 3513 2838 3513 2113 
z
" transform="scale(0.015625)"/>
       <path id="DejaVuSans-64" d="M 2906 2969 
L 2906 4863 
L 3481 4863 
L 3481 0 
L 2906 0 
L 2906 525 
Q 2725 213 2448 61 
Q 2172 -91 1784 -91 
Q 1150 -91 751 415 
Q 353 922 353 1747 
Q 353 2572 751 3078 
Q 1150 3584 1784 3584 
Q 2172 3584 2448 3432 
Q 2725 3281 2906 2969 
z
M 947 1747 
Q 947 1113 1208 752 
Q 1469 391 1925 391 
Q 2381 391 2643 752 
Q 2906 1113 2906 1747 
Q 2906 2381 2643 2742 
Q 2381 3103 1925 3103 
Q 1469 3103 1208 2742 
Q 947 2381 947 1747 
z
" transform="scale(0.015625)"/>
       <path id="DejaVuSans-5b" d="M 550 4863 
L 1875 4863 
L 1875 4416 
L 1125 4416 
L 1125 -397 
L 1875 -397 
L 1875 -844 
L 550 -844 
L 550 4863 
z
" transform="scale(0.015625)"/>
       <path id="DejaVuSans-5d" d="M 1947 4863 
L 1947 -844 
L 622 -844 
L 622 -397 
L 1369 -397 
L 1369 4416 
L 622 4416 
L 622 4863 
L 1947 4863 
z
" transform="scale(0.015625)"/>
      </defs>
      <use xlink:href="#DejaVuSans-4b"/>
      <use xlink:href="#DejaVuSans-75" transform="translate(60.576172 0)"/>
      <use xlink:href="#DejaVuSans-6d" transform="translate(123.955078 0)"/>
      <use xlink:href="#DejaVuSans-75" transform="translate(221.367188 0)"/>
      <use xlink:href="#DejaVuSans-6c" transform="translate(284.746094 0)"/>
      <use xlink:href="#DejaVuSans-69" transform="translate(312.529297 0)"/>
      <use xlink:href="#DejaVuSans-65" transform="translate(340.3125 0)"/>
      <use xlink:href="#DejaVuSans-72" transform="translate(401.835938 0)"/>
      <use xlink:href="#DejaVuSans-74" transform="translate(442.949219 0)"/>
      <use xlink:href="#DejaVuSans-65" transform="translate(482.158203 0)"/>
      <use xlink:href="#DejaVuSans-20" transform="translate(543.681641 0)"/>
      <use xlink:href="#DejaVuSans-6b" transform="translate(575.46875 0)"/>
      <use xlink:href="#DejaVuSans-6f" transform="translate(629.753906 0)"/>
      <use xlink:href="#DejaVuSans-72" transform="translate(690.935547 0)"/>
      <use xlink:href="#DejaVuSans-72" transform="translate(730.298828 0)"/>
      <use xlink:href="#DejaVuSans-69" transform="translate(771.412109 0)"/>
      <use xlink:href="#DejaVuSans-67" transform="translate(799.195312 0)"/>
      <use xlink:href="#DejaVuSans-69" transform="translate(862.671875 0)"/>
      <use xlink:href="#DejaVuSans-65" transform="translate(890.455078 0)"/>
      <use xlink:href="#DejaVuSans-72" transform="translate(951.978516 0)"/>
      <use xlink:href="#DejaVuSans-74" transform="translate(993.091797 0)"/>
      <use xlink:href="#DejaVuSans-65" transform="translate(1032.300781 0)"/>
      <use xlink:href="#DejaVuSans-20" transform="translate(1093.824219 0)"/>
      <use xlink:href="#DejaVuSans-47" transform="translate(1125.611328 0)"/>
      <use xlink:href="#DejaVuSans-65" transform="translate(1203.101562 0)"/>
      <use xlink:href="#DejaVuSans-77" transform="translate(1264.625 0)"/>
      <use xlink:href="#DejaVuSans-69" transform="translate(1346.412109 0)"/>
      <use xlink:href="#DejaVuSans-63" transform="translate(1374.195312 0)"/>
      <use xlink:href="#DejaVuSans-68" transform="translate(1429.175781 0)"/>
      <use xlink:href="#DejaVuSans-74" transform="translate(1492.554688 0)"/>
      <use xlink:href="#DejaVuSans-e4" transform="translate(1531.763672 0)"/>
      <use xlink:href="#DejaVuSans-6e" transform="translate(1593.042969 0)"/>
      <use xlink:href="#DejaVuSans-64" transform="translate(1656.421875 0)"/>
      <use xlink:href="#DejaVuSans-65" transform="translate(1719.898438 0)"/>
      <use xlink:href="#DejaVuSans-72" transform="translate(1781.421875 0)"/>
      <use xlink:href="#DejaVuSans-75" transform="translate(1822.535156 0)"/>
      <use xlink:href="#DejaVuSans-6e" transform="translate(1885.914062 0)"/>
      <use xlink:href="#DejaVuSans-67" transform="translate(1949.292969 0)"/>
      <use xlink:href="#DejaVuSans-20" transform="translate(2012.769531 0)"/>
      <use xlink:href="#DejaVuSans-5b" transform="translate(2044.556641 0)"/>
      <use xlink:href="#DejaVuSans-6b" transform="translate(2083.570312 0)"/>
      <use xlink:href="#DejaVuSans-67" transform="translate(2141.480469 0)"/>
      <use xlink:href="#DejaVuSans-5d" transform="translate(2204.957031 0)"/>
     </g>
    </g>
   </g>
   <g id="line2d_60">
    <path d="M 63.839489 358.311384 
L 71.849058 358.820247 
L 75.853843 358.989868 
L 79.858627 359.329109 
L 87.868197 359.464806 
L 91.872981 359.837972 
L 95.877766 359.837972 
L 103.887336 360.245062 
L 107.89212 360.245062 
L 111.896905 360.380758 
L 115.90169 360.143289 
L 123.911259 360.380758 
L 127.916044 360.177213 
L 135.925613 360.550379 
L 139.930398 359.90582 
L 143.935182 360.245062 
L 151.944752 360.448607 
L 159.954321 360.516455 
L 171.968675 360.211138 
L 175.97346 360.414683 
L 179.978245 360.482531 
L 183.983029 359.430882 
L 187.987814 359.532654 
L 191.992599 360.618228 
L 195.997383 360.72 
L 200.002168 359.668351 
L 204.006953 359.90582 
L 208.011737 360.482531 
L 212.016522 359.939744 
L 216.021307 360.278986 
L 220.026092 359.464806 
L 224.030876 360.075441 
L 228.035661 360.380758 
L 232.040446 359.396958 
L 236.04523 357.87037 
L 240.050015 357.225811 
L 244.0548 357.46328 
L 248.059584 357.090114 
L 252.064369 355.597451 
L 256.069154 353.867319 
L 264.078723 351.526551 
L 268.083508 350.678447 
L 272.088292 350.135661 
L 280.097862 347.048562 
L 284.102647 346.404003 
L 288.107431 346.946789 
L 296.117001 344.09716 
L 300.121785 343.995387 
L 304.12657 343.520449 
L 308.131355 342.367027 
L 312.136139 340.229805 
L 320.145709 336.430298 
L 324.150493 334.666242 
L 328.155278 333.139654 
L 332.160063 332.155854 
L 336.164847 331.47737 
L 340.169632 329.781162 
L 344.174417 328.661665 
L 348.179202 327.406471 
L 352.183986 327.881409 
L 356.188771 327.64394 
L 360.193556 326.558367 
L 364.19834 323.912282 
L 368.203125 321.571514 
L 372.20791 319.027202 
L 376.212694 317.602387 
L 380.217479 317.330994 
L 384.222264 317.568463 
L 388.227048 318.077326 
L 392.231833 318.721885 
L 396.236618 318.51834 
L 400.241403 319.264671 
L 404.246187 321.096576 
L 420.265326 322.283922 
L 424.270111 322.928481 
L 428.274895 321.401894 
L 432.27968 321.605439 
L 436.284465 321.062652 
L 444.294034 311.970976 
L 448.298819 310.308692 
L 452.303603 310.342616 
L 456.308388 306.034247 
L 460.313173 308.408939 
L 464.317958 307.832228 
L 468.322742 301.25094 
L 472.327527 295.076742 
L 476.332312 292.396733 
L 480.337096 291.684326 
L 484.341881 288.393682 
L 488.346666 283.746071 
L 492.35145 282.219484 
L 496.356235 278.318205 
L 500.36102 273.840215 
L 504.365804 276.248831 
L 508.370589 277.334404 
L 512.375374 277.504025 
L 516.380158 276.757694 
L 520.384943 274.959713 
L 524.389728 274.993637 
L 532.399297 274.824016 
L 536.404082 274.247305 
L 540.408867 276.180983 
L 544.413651 276.180983 
L 548.418436 276.655921 
L 552.423221 277.639722 
L 556.428005 278.894916 
L 560.43279 279.437702 
L 564.437575 280.5572 
L 568.442359 281.235683 
L 572.447144 282.049863 
L 576.451929 282.59265 
L 580.456714 283.746071 
L 584.461498 284.288858 
L 588.466283 284.6281 
L 592.471068 285.170886 
L 596.475852 286.392156 
L 600.480637 287.783047 
L 604.485422 288.563303 
L 612.494991 290.395208 
L 616.499776 290.836222 
L 620.50456 290.971918 
L 628.51413 290.395208 
L 632.518914 289.886345 
L 636.523699 290.429132 
L 640.528484 291.141539 
L 644.533269 291.073691 
L 648.538053 290.768373 
L 652.542838 291.582553 
L 656.547623 292.93952 
L 660.552407 293.719776 
L 668.561977 294.330411 
L 672.566761 293.719776 
L 672.566761 293.719776 
" clip-path="url(#p0f85089da2)" style="fill: none; stroke: #bcbd22; stroke-width: 1.5; stroke-linecap: square"/>
   </g>
   <g id="line2d_61">
    <path d="M 63.839489 350.440978 
L 75.853843 350.678447 
L 83.863412 350.339206 
L 87.868197 348.642998 
L 91.872981 344.945264 
L 95.877766 345.250581 
L 99.882551 345.013112 
L 107.89212 346.030837 
L 111.896905 345.962989 
L 115.90169 345.725519 
L 119.906474 346.098685 
L 123.911259 346.912865 
L 127.916044 346.437927 
L 131.920828 345.623747 
L 135.925613 345.114884 
L 139.930398 346.064761 
L 143.935182 345.691595 
L 147.939967 345.555899 
L 151.944752 344.707794 
L 155.949536 344.639946 
L 159.954321 344.198932 
L 163.959106 344.470325 
L 167.963891 344.402477 
L 171.968675 344.707794 
L 179.978245 344.198932 
L 183.983029 344.26678 
L 187.987814 343.656145 
L 195.997383 345.250581 
L 200.002168 345.691595 
L 208.011737 345.047036 
L 212.016522 345.148809 
L 216.021307 346.064761 
L 220.026092 344.436401 
L 224.030876 343.011586 
L 228.035661 343.28298 
L 232.040446 343.147283 
L 236.04523 342.197406 
L 240.050015 338.669293 
L 244.0548 340.501198 
L 248.059584 336.667768 
L 252.064369 334.700166 
L 256.069154 332.970034 
L 260.073938 330.08648 
L 264.078723 330.052556 
L 268.083508 322.216074 
L 272.088292 316.381117 
L 276.093077 313.395791 
L 280.097862 316.347193 
L 284.102647 317.738084 
L 288.107431 318.382643 
L 292.112216 311.869204 
L 296.117001 306.068171 
L 300.121785 304.473736 
L 304.12657 291.379008 
L 308.131355 281.507077 
L 312.136139 280.217958 
L 316.140924 270.108557 
L 320.145709 252.434068 
L 324.150493 245.106448 
L 328.155278 246.429491 
L 332.160063 243.138847 
L 336.164847 234.725654 
L 340.169632 232.452735 
L 344.174417 234.386412 
L 348.179202 233.06337 
L 352.183986 233.911474 
L 356.188771 230.451209 
L 360.193556 224.785874 
L 364.19834 222.139789 
L 368.203125 224.955495 
L 372.20791 224.548405 
L 376.212694 221.800547 
L 380.217479 217.695724 
L 384.222264 216.270909 
L 388.227048 211.826843 
L 392.231833 214.031914 
L 396.236618 216.067364 
L 400.241403 216.779771 
L 404.246187 217.322558 
L 408.250972 217.695724 
L 412.255757 216.644074 
L 416.260541 214.506852 
L 420.265326 214.371155 
L 424.270111 214.439004 
L 428.274895 213.624824 
L 432.27968 214.133686 
L 436.284465 214.880018 
L 440.289249 215.863819 
L 444.294034 216.576226 
L 452.303603 216.813695 
L 456.308388 217.560027 
L 460.313173 216.270909 
L 464.317958 213.930141 
L 468.322742 210.74127 
L 472.327527 207.959488 
L 476.332312 206.67037 
L 480.337096 201.988836 
L 484.341881 197.748315 
L 492.35145 184.823208 
L 496.356235 177.834831 
L 500.36102 168.70923 
L 504.365804 160.8049 
L 508.370589 150.491954 
L 512.375374 143.300031 
L 516.380158 137.634696 
L 520.384943 136.820516 
L 524.389728 131.053408 
L 528.394513 121.690339 
L 532.399297 119.383496 
L 536.404082 116.499942 
L 540.408867 107.645735 
L 544.413651 98.214817 
L 548.418436 99.470011 
L 552.423221 92.786951 
L 556.428005 94.720628 
L 560.43279 95.568732 
L 564.437575 94.449235 
L 568.442359 92.685178 
L 572.447144 95.941898 
L 584.461498 97.163168 
L 588.466283 99.775329 
L 596.475852 101.132295 
L 600.480637 102.014324 
L 604.485422 103.269518 
L 608.490206 103.642683 
L 612.494991 104.355091 
L 616.499776 104.253318 
L 620.50456 105.474588 
L 628.51413 105.983451 
L 632.518914 106.153072 
L 636.523699 106.933327 
L 640.528484 105.983451 
L 644.533269 105.40674 
L 648.538053 106.695858 
L 652.542838 107.747507 
L 656.547623 105.508512 
L 660.552407 106.22092 
L 664.557192 107.102948 
L 668.561977 109.206246 
L 672.566761 111.173848 
L 672.566761 111.173848 
" clip-path="url(#p0f85089da2)" style="fill: none; stroke: #d62728; stroke-width: 1.5; stroke-linecap: square"/>
   </g>
   <g id="line2d_62">
    <path d="M 63.839489 359.464806 
L 67.844273 359.057716 
L 71.849058 356.750873 
L 75.853843 357.022266 
L 79.858627 356.683024 
L 83.863412 356.920494 
L 87.868197 357.46328 
L 91.872981 357.225811 
L 99.882551 355.224285 
L 103.887336 354.817195 
L 107.89212 355.224285 
L 111.896905 354.647575 
L 115.90169 353.019215 
L 119.906474 352.137186 
L 123.911259 352.510352 
L 131.920828 350.915917 
L 135.925613 349.796419 
L 139.930398 347.353879 
L 143.935182 347.93059 
L 147.939967 346.811093 
L 151.944752 349.253632 
L 155.949536 350.135661 
L 159.954321 349.762495 
L 163.959106 348.303756 
L 167.963891 349.796419 
L 171.968675 350.610599 
L 175.97346 347.489576 
L 179.978245 344.877415 
L 183.983029 339.21208 
L 187.987814 340.636895 
L 191.992599 342.265255 
L 195.997383 340.467274 
L 200.002168 340.772591 
L 204.006953 334.191304 
L 208.011737 321.469742 
L 212.016522 312.886928 
L 216.021307 302.777527 
L 220.026092 305.355764 
L 228.035661 296.128391 
L 232.040446 280.862517 
L 236.04523 263.595118 
L 240.050015 259.558142 
L 244.0548 263.69689 
L 252.064369 266.478672 
L 256.069154 269.328302 
L 260.073938 270.379951 
L 264.078723 271.092358 
L 268.083508 272.82249 
L 272.088292 274.28123 
L 276.093077 275.570348 
L 280.097862 277.266556 
L 284.102647 278.623523 
L 288.107431 279.641247 
L 292.112216 276.452376 
L 296.117001 274.993637 
L 300.121785 268.921212 
L 304.12657 258.540417 
L 308.131355 248.838106 
L 312.136139 246.768732 
L 316.140924 252.162674 
L 324.150493 256.912057 
L 328.155278 254.096352 
L 332.160063 257.929782 
L 336.164847 257.82801 
L 340.169632 254.97838 
L 344.174417 250.50039 
L 348.179202 246.972277 
L 352.183986 240.9677 
L 356.188771 238.898326 
L 360.193556 236.625407 
L 364.19834 235.946924 
L 368.203125 236.184393 
L 372.20791 237.473511 
L 376.212694 238.219843 
L 380.217479 238.35554 
L 384.222264 239.848203 
L 388.227048 238.660857 
L 392.231833 241.205169 
L 396.236618 240.628459 
L 400.241403 241.137321 
L 404.246187 241.306942 
L 408.250972 238.898326 
L 412.255757 241.306942 
L 416.260541 242.833529 
L 420.265326 244.801131 
L 424.270111 244.767207 
L 428.274895 240.628459 
L 432.27968 238.084146 
L 436.284465 236.523635 
L 440.289249 235.539834 
L 444.294034 226.95702 
L 448.298819 228.076518 
L 452.303603 224.718026 
L 456.308388 219.290159 
L 460.313173 216.067364 
L 464.317958 213.048113 
L 468.322742 212.607099 
L 472.327527 209.791393 
L 476.332312 205.008086 
L 480.337096 198.833888 
L 484.341881 188.147777 
L 488.346666 188.01208 
L 492.35145 180.311295 
L 496.356235 176.342167 
L 500.36102 173.662158 
L 504.365804 171.932026 
L 508.370589 166.436311 
L 512.375374 168.743155 
L 516.380158 169.35379 
L 520.384943 167.080871 
L 524.389728 163.145667 
L 528.394513 157.95527 
L 532.399297 151.509679 
L 536.404082 147.438779 
L 540.408867 148.558277 
L 544.413651 145.742571 
L 548.418436 145.606875 
L 552.423221 148.388656 
L 556.428005 146.997765 
L 560.43279 146.828144 
L 564.437575 149.64385 
L 568.442359 150.05094 
L 572.447144 151.238286 
L 580.456714 153.952219 
L 584.461498 153.036267 
L 588.466283 155.071716 
L 592.471068 156.123365 
L 596.475852 155.818048 
L 600.480637 158.36236 
L 604.485422 159.346161 
L 608.490206 158.803374 
L 612.494991 160.669204 
L 616.499776 161.585156 
L 624.509345 162.772502 
L 628.51413 161.992246 
L 632.518914 162.602881 
L 636.523699 163.383137 
L 640.528484 162.908198 
L 644.533269 163.722378 
L 648.538053 166.775553 
L 652.542838 168.844927 
L 656.547623 170.507211 
L 660.552407 173.017599 
L 664.557192 173.865703 
L 668.561977 174.476338 
L 672.566761 174.544187 
L 672.566761 174.544187 
" clip-path="url(#p0f85089da2)" style="fill: none; stroke: #2ca02c; stroke-width: 1.5; stroke-linecap: square"/>
   </g>
   <g id="line2d_63">
    <path d="M 63.839489 352.985291 
L 67.844273 352.951366 
L 71.849058 353.290608 
L 75.853843 353.426305 
L 79.858627 353.62985 
L 83.863412 354.070864 
L 87.868197 354.477954 
L 91.872981 357.632901 
L 95.877766 357.87037 
L 99.882551 357.972143 
L 103.887336 358.379233 
L 107.89212 358.209612 
L 111.896905 358.413157 
L 115.90169 358.582778 
L 119.906474 358.718474 
L 123.911259 359.023792 
L 127.916044 359.329109 
L 131.920828 359.600503 
L 135.925613 359.566578 
L 139.930398 359.227337 
L 143.935182 358.616702 
L 147.939967 358.175688 
L 151.944752 357.836446 
L 155.949536 357.124039 
L 159.954321 357.191887 
L 163.959106 357.395432 
M 171.968675 356.784797 
L 175.97346 356.513404 
L 179.978245 356.920494 
L 183.983029 356.072389 
L 187.987814 355.970617 
L 191.992599 354.61365 
L 195.997383 350.746296 
L 200.002168 346.471851 
L 204.006953 344.809567 
L 208.011737 344.639946 
L 212.016522 342.265255 
L 216.021307 337.040933 
L 220.026092 333.614593 
L 224.030876 331.036356 
L 228.035661 323.98013 
L 232.040446 315.66871 
L 236.04523 316.415042 
L 240.050015 308.849953 
L 244.0548 301.997272 
L 248.059584 303.727404 
L 252.064369 305.118295 
L 256.069154 306.577034 
L 260.073938 299.656504 
L 264.078723 291.005842 
L 268.083508 291.175463 
L 272.088292 285.069114 
L 276.093077 285.069114 
L 280.097862 285.815445 
L 284.102647 287.138488 
L 288.107431 276.214907 
L 292.112216 268.039183 
L 296.117001 260.100929 
L 300.121785 251.653812 
L 304.12657 243.037074 
L 308.131355 236.32009 
L 312.136139 232.791977 
L 316.140924 233.47046 
L 320.145709 235.438061 
L 324.150493 236.761104 
L 328.155278 235.132744 
L 332.160063 230.960072 
L 336.164847 225.803599 
L 340.169632 216.61015 
L 344.174417 204.770617 
L 348.179202 191.065255 
L 352.183986 183.568014 
L 356.188771 179.056101 
L 360.193556 176.274319 
L 364.19834 175.019125 
L 368.203125 173.933552 
L 372.20791 172.542661 
L 376.212694 171.898102 
L 380.217479 169.76088 
L 384.222264 168.70923 
L 388.227048 169.455562 
M 396.236618 170.269742 
L 400.241403 170.507211 
L 404.246187 171.660633 
L 408.250972 172.814054 
L 412.255757 172.101647 
L 416.260541 173.458613 
L 420.265326 173.967476 
L 424.270111 167.013022 
L 428.274895 160.974521 
L 432.27968 161.415535 
L 436.284465 159.210464 
L 440.289249 153.171963 
L 444.294034 147.065614 
L 448.298819 140.179008 
L 452.303603 133.19063 
L 456.308388 131.121256 
L 460.313173 133.936962 
L 464.317958 125.727314 
L 468.322742 118.297922 
L 472.327527 109.816881 
L 476.332312 97.807727 
L 480.337096 85.323635 
L 484.341881 81.422356 
L 488.346666 80.472479 
L 492.35145 73.687646 
L 496.356235 65.919013 
L 500.36102 58.32 
L 504.365804 60.117981 
" clip-path="url(#p0f85089da2)" style="fill: none; stroke: #1f77b4; stroke-width: 1.5; stroke-linecap: square"/>
   </g>
   <g id="line2d_64">
    <path d="M 508.370589 375.84 
L 508.370589 43.2 
" clip-path="url(#p0f85089da2)" style="fill: none; stroke-dasharray: 1.5,2.475; stroke-dashoffset: 0; stroke: #1f77b4; stroke-width: 1.5"/>
   </g>
   <g id="patch_3">
    <path d="M 33.403125 375.84 
L 33.403125 43.2 
" style="fill: none; stroke: #000000; stroke-width: 0.8; stroke-linejoin: miter; stroke-linecap: square"/>
   </g>
   <g id="patch_4">
    <path d="M 703.003125 375.84 
L 703.003125 43.2 
" style="fill: none; stroke: #000000; stroke-width: 0.8; stroke-linejoin: miter; stroke-linecap: square"/>
   </g>
   <g id="patch_5">
    <path d="M 33.403125 375.84 
L 703.003125 375.84 
" style="fill: none; stroke: #000000; stroke-width: 0.8; stroke-linejoin: miter; stroke-linecap: square"/>
   </g>
   <g id="patch_6">
    <path d="M 33.403125 43.2 
L 703.003125 43.2 
" style="fill: none; stroke: #000000; stroke-width: 0.8; stroke-linejoin: miter; stroke-linecap: square"/>
   </g>
   <g id="patch_7">
    <path d="M 179.426054 327.577341 
Q 187.263653 343.25254 194.601253 357.927739 
" style="fill: none; stroke: #000000; stroke-linecap: round"/>
    <path d="M 194.601253 353.902817 
L 194.601253 357.927739 
L 191.381315 355.512786 
" style="fill: none; stroke: #000000; stroke-linecap: round"/>
   </g>
   <g id="patch_8">
    <path d="M 520.17641 271.309514 
Q 511.262871 272.447897 503.458358 273.444642 
" style="fill: none; stroke: #000000; stroke-linecap: round"/>
    <path d="M 507.257385 274.774074 
L 503.458358 273.444642 
L 506.80132 271.203079 
" style="fill: none; stroke: #000000; stroke-linecap: round"/>
   </g>
   <g id="text_14">
    <g id="patch_9">
     <path d="M 522.66102 274.411934 
L 579.591645 274.411934 
L 579.591645 260.301622 
L 522.66102 260.301622 
z
" style="fill: #ffffff; stroke: #000000; stroke-linejoin: miter"/>
    </g>
    <!-- 18.06.2022 -->
    <g transform="translate(525.36102 269.840215) scale(0.09 -0.09)">
     <defs>
      <path id="DejaVuSans-31" d="M 794 531 
L 1825 531 
L 1825 4091 
L 703 3866 
L 703 4441 
L 1819 4666 
L 2450 4666 
L 2450 531 
L 3481 531 
L 3481 0 
L 794 0 
L 794 531 
z
" transform="scale(0.015625)"/>
      <path id="DejaVuSans-2e" d="M 684 794 
L 1344 794 
L 1344 0 
L 684 0 
L 684 794 
z
" transform="scale(0.015625)"/>
     </defs>
     <use xlink:href="#DejaVuSans-31"/>
     <use xlink:href="#DejaVuSans-38" transform="translate(63.623047 0)"/>
     <use xlink:href="#DejaVuSans-2e" transform="translate(127.246094 0)"/>
     <use xlink:href="#DejaVuSans-30" transform="translate(159.033203 0)"/>
     <use xlink:href="#DejaVuSans-36" transform="translate(222.65625 0)"/>
     <use xlink:href="#DejaVuSans-2e" transform="translate(286.279297 0)"/>
     <use xlink:href="#DejaVuSans-32" transform="translate(318.066406 0)"/>
     <use xlink:href="#DejaVuSans-30" transform="translate(381.689453 0)"/>
     <use xlink:href="#DejaVuSans-32" transform="translate(445.3125 0)"/>
     <use xlink:href="#DejaVuSans-32" transform="translate(508.935547 0)"/>
    </g>
   </g>
   <g id="patch_10">
    <path d="M 55.277728 317.569712 
Q 63.115328 333.244912 70.452928 347.920111 
" style="fill: none; stroke: #000000; stroke-linecap: round"/>
    <path d="M 70.452928 343.895189 
L 70.452928 347.920111 
L 67.23299 345.505158 
" style="fill: none; stroke: #000000; stroke-linecap: round"/>
   </g>
   <g id="patch_11">
    <path d="M 588.25775 90.154477 
Q 579.344211 91.29286 571.539697 92.289605 
" style="fill: none; stroke: #000000; stroke-linecap: round"/>
    <path d="M 575.338725 93.619037 
L 571.539697 92.289605 
L 574.882659 90.048042 
" style="fill: none; stroke: #000000; stroke-linecap: round"/>
   </g>
   <g id="text_15">
    <g id="patch_12">
     <path d="M 590.742359 93.256897 
L 647.672984 93.256897 
L 647.672984 79.146585 
L 590.742359 79.146585 
z
" style="fill: #ffffff; stroke: #000000; stroke-linejoin: miter"/>
    </g>
    <!-- 05.07.2023 -->
    <g transform="translate(593.442359 88.685178) scale(0.09 -0.09)">
     <defs>
      <path id="DejaVuSans-35" d="M 691 4666 
L 3169 4666 
L 3169 4134 
L 1269 4134 
L 1269 2991 
Q 1406 3038 1543 3061 
Q 1681 3084 1819 3084 
Q 2600 3084 3056 2656 
Q 3513 2228 3513 1497 
Q 3513 744 3044 326 
Q 2575 -91 1722 -91 
Q 1428 -91 1123 -41 
Q 819 9 494 109 
L 494 744 
Q 775 591 1075 516 
Q 1375 441 1709 441 
Q 2250 441 2565 725 
Q 2881 1009 2881 1497 
Q 2881 1984 2565 2268 
Q 2250 2553 1709 2553 
Q 1456 2553 1204 2497 
Q 953 2441 691 2322 
L 691 4666 
z
" transform="scale(0.015625)"/>
      <path id="DejaVuSans-37" d="M 525 4666 
L 3525 4666 
L 3525 4397 
L 1831 0 
L 1172 0 
L 2766 4134 
L 525 4134 
L 525 4666 
z
" transform="scale(0.015625)"/>
      <path id="DejaVuSans-33" d="M 2597 2516 
Q 3050 2419 3304 2112 
Q 3559 1806 3559 1356 
Q 3559 666 3084 287 
Q 2609 -91 1734 -91 
Q 1441 -91 1130 -33 
Q 819 25 488 141 
L 488 750 
Q 750 597 1062 519 
Q 1375 441 1716 441 
Q 2309 441 2620 675 
Q 2931 909 2931 1356 
Q 2931 1769 2642 2001 
Q 2353 2234 1838 2234 
L 1294 2234 
L 1294 2753 
L 1863 2753 
Q 2328 2753 2575 2939 
Q 2822 3125 2822 3475 
Q 2822 3834 2567 4026 
Q 2313 4219 1838 4219 
Q 1578 4219 1281 4162 
Q 984 4106 628 3988 
L 628 4550 
Q 988 4650 1302 4700 
Q 1616 4750 1894 4750 
Q 2613 4750 3031 4423 
Q 3450 4097 3450 3541 
Q 3450 3153 3228 2886 
Q 3006 2619 2597 2516 
z
" transform="scale(0.015625)"/>
     </defs>
     <use xlink:href="#DejaVuSans-30"/>
     <use xlink:href="#DejaVuSans-35" transform="translate(63.623047 0)"/>
     <use xlink:href="#DejaVuSans-2e" transform="translate(127.246094 0)"/>
     <use xlink:href="#DejaVuSans-30" transform="translate(159.033203 0)"/>
     <use xlink:href="#DejaVuSans-37" transform="translate(222.65625 0)"/>
     <use xlink:href="#DejaVuSans-2e" transform="translate(286.279297 0)"/>
     <use xlink:href="#DejaVuSans-32" transform="translate(318.066406 0)"/>
     <use xlink:href="#DejaVuSans-30" transform="translate(381.689453 0)"/>
     <use xlink:href="#DejaVuSans-32" transform="translate(445.3125 0)"/>
     <use xlink:href="#DejaVuSans-33" transform="translate(508.935547 0)"/>
    </g>
   </g>
   <g id="patch_13">
    <path d="M 47.268159 326.322147 
Q 55.105759 341.997346 62.443358 356.672545 
" style="fill: none; stroke: #000000; stroke-linecap: round"/>
    <path d="M 62.443358 352.647623 
L 62.443358 356.672545 
L 59.22342 354.257592 
" style="fill: none; stroke: #000000; stroke-linecap: round"/>
   </g>
   <g id="patch_14">
    <path d="M 568.233827 143.076173 
Q 559.320287 144.214556 551.515774 145.211301 
" style="fill: none; stroke: #000000; stroke-linecap: round"/>
    <path d="M 555.314802 146.540733 
L 551.515774 145.211301 
L 554.858736 142.969738 
" style="fill: none; stroke: #000000; stroke-linecap: round"/>
   </g>
   <g id="text_16">
    <g id="patch_15">
     <path d="M 570.718436 146.178593 
L 627.649061 146.178593 
L 627.649061 132.068281 
L 570.718436 132.068281 
z
" style="fill: #ffffff; stroke: #000000; stroke-linejoin: miter"/>
    </g>
    <!-- 30.06.2024 -->
    <g transform="translate(573.418436 141.606875) scale(0.09 -0.09)">
     <use xlink:href="#DejaVuSans-33"/>
     <use xlink:href="#DejaVuSans-30" transform="translate(63.623047 0)"/>
     <use xlink:href="#DejaVuSans-2e" transform="translate(127.246094 0)"/>
     <use xlink:href="#DejaVuSans-30" transform="translate(159.033203 0)"/>
     <use xlink:href="#DejaVuSans-36" transform="translate(222.65625 0)"/>
     <use xlink:href="#DejaVuSans-2e" transform="translate(286.279297 0)"/>
     <use xlink:href="#DejaVuSans-32" transform="translate(318.066406 0)"/>
     <use xlink:href="#DejaVuSans-30" transform="translate(381.689453 0)"/>
     <use xlink:href="#DejaVuSans-32" transform="translate(445.3125 0)"/>
     <use xlink:href="#DejaVuSans-34" transform="translate(508.935547 0)"/>
    </g>
   </g>
   <g id="patch_16">
    <path d="M 115.349499 326.457843 
Q 123.187098 342.133043 130.524698 356.808242 
" style="fill: none; stroke: #000000; stroke-linecap: round"/>
    <path d="M 130.524698 352.78332 
L 130.524698 356.808242 
L 127.30476 354.393289 
" style="fill: none; stroke: #000000; stroke-linecap: round"/>
   </g>
   <g id="text_17">
    <!-- Trachtverlauf im aktuellen Jahr und Vorjahre (ab 2022) -->
    <g transform="translate(204.658125 37.2) scale(0.12 -0.12)">
     <defs>
      <path id="DejaVuSans-54" d="M -19 4666 
L 3928 4666 
L 3928 4134 
L 2272 4134 
L 2272 0 
L 1638 0 
L 1638 4134 
L -19 4134 
L -19 4666 
z
" transform="scale(0.015625)"/>
      <path id="DejaVuSans-76" d="M 191 3500 
L 800 3500 
L 1894 563 
L 2988 3500 
L 3597 3500 
L 2284 0 
L 1503 0 
L 191 3500 
z
" transform="scale(0.015625)"/>
      <path id="DejaVuSans-66" d="M 2375 4863 
L 2375 4384 
L 1825 4384 
Q 1516 4384 1395 4259 
Q 1275 4134 1275 3809 
L 1275 3500 
L 2222 3500 
L 2222 3053 
L 1275 3053 
L 1275 0 
L 697 0 
L 697 3053 
L 147 3053 
L 147 3500 
L 697 3500 
L 697 3744 
Q 697 4328 969 4595 
Q 1241 4863 1831 4863 
L 2375 4863 
z
" transform="scale(0.015625)"/>
      <path id="DejaVuSans-56" d="M 1831 0 
L 50 4666 
L 709 4666 
L 2188 738 
L 3669 4666 
L 4325 4666 
L 2547 0 
L 1831 0 
z
" transform="scale(0.015625)"/>
      <path id="DejaVuSans-6a" d="M 603 3500 
L 1178 3500 
L 1178 -63 
Q 1178 -731 923 -1031 
Q 669 -1331 103 -1331 
L -116 -1331 
L -116 -844 
L 38 -844 
Q 366 -844 484 -692 
Q 603 -541 603 -63 
L 603 3500 
z
M 603 4863 
L 1178 4863 
L 1178 4134 
L 603 4134 
L 603 4863 
z
" transform="scale(0.015625)"/>
      <path id="DejaVuSans-28" d="M 1984 4856 
Q 1566 4138 1362 3434 
Q 1159 2731 1159 2009 
Q 1159 1288 1364 580 
Q 1569 -128 1984 -844 
L 1484 -844 
Q 1016 -109 783 600 
Q 550 1309 550 2009 
Q 550 2706 781 3412 
Q 1013 4119 1484 4856 
L 1984 4856 
z
" transform="scale(0.015625)"/>
      <path id="DejaVuSans-62" d="M 3116 1747 
Q 3116 2381 2855 2742 
Q 2594 3103 2138 3103 
Q 1681 3103 1420 2742 
Q 1159 2381 1159 1747 
Q 1159 1113 1420 752 
Q 1681 391 2138 391 
Q 2594 391 2855 752 
Q 3116 1113 3116 1747 
z
M 1159 2969 
Q 1341 3281 1617 3432 
Q 1894 3584 2278 3584 
Q 2916 3584 3314 3078 
Q 3713 2572 3713 1747 
Q 3713 922 3314 415 
Q 2916 -91 2278 -91 
Q 1894 -91 1617 61 
Q 1341 213 1159 525 
L 1159 0 
L 581 0 
L 581 4863 
L 1159 4863 
L 1159 2969 
z
" transform="scale(0.015625)"/>
      <path id="DejaVuSans-29" d="M 513 4856 
L 1013 4856 
Q 1481 4119 1714 3412 
Q 1947 2706 1947 2009 
Q 1947 1309 1714 600 
Q 1481 -109 1013 -844 
L 513 -844 
Q 928 -128 1133 580 
Q 1338 1288 1338 2009 
Q 1338 2731 1133 3434 
Q 928 4138 513 4856 
z
" transform="scale(0.015625)"/>
     </defs>
     <use xlink:href="#DejaVuSans-54"/>
     <use xlink:href="#DejaVuSans-72" transform="translate(46.333984 0)"/>
     <use xlink:href="#DejaVuSans-61" transform="translate(87.447266 0)"/>
     <use xlink:href="#DejaVuSans-63" transform="translate(148.726562 0)"/>
     <use xlink:href="#DejaVuSans-68" transform="translate(203.707031 0)"/>
     <use xlink:href="#DejaVuSans-74" transform="translate(267.085938 0)"/>
     <use xlink:href="#DejaVuSans-76" transform="translate(306.294922 0)"/>
     <use xlink:href="#DejaVuSans-65" transform="translate(365.474609 0)"/>
     <use xlink:href="#DejaVuSans-72" transform="translate(426.998047 0)"/>
     <use xlink:href="#DejaVuSans-6c" transform="translate(468.111328 0)"/>
     <use xlink:href="#DejaVuSans-61" transform="translate(495.894531 0)"/>
     <use xlink:href="#DejaVuSans-75" transform="translate(557.173828 0)"/>
     <use xlink:href="#DejaVuSans-66" transform="translate(620.552734 0)"/>
     <use xlink:href="#DejaVuSans-20" transform="translate(655.757812 0)"/>
     <use xlink:href="#DejaVuSans-69" transform="translate(687.544922 0)"/>
     <use xlink:href="#DejaVuSans-6d" transform="translate(715.328125 0)"/>
     <use xlink:href="#DejaVuSans-20" transform="translate(812.740234 0)"/>
     <use xlink:href="#DejaVuSans-61" transform="translate(844.527344 0)"/>
     <use xlink:href="#DejaVuSans-6b" transform="translate(905.806641 0)"/>
     <use xlink:href="#DejaVuSans-74" transform="translate(963.716797 0)"/>
     <use xlink:href="#DejaVuSans-75" transform="translate(1002.925781 0)"/>
     <use xlink:href="#DejaVuSans-65" transform="translate(1066.304688 0)"/>
     <use xlink:href="#DejaVuSans-6c" transform="translate(1127.828125 0)"/>
     <use xlink:href="#DejaVuSans-6c" transform="translate(1155.611328 0)"/>
     <use xlink:href="#DejaVuSans-65" transform="translate(1183.394531 0)"/>
     <use xlink:href="#DejaVuSans-6e" transform="translate(1244.917969 0)"/>
     <use xlink:href="#DejaVuSans-20" transform="translate(1308.296875 0)"/>
     <use xlink:href="#DejaVuSans-4a" transform="translate(1340.083984 0)"/>
     <use xlink:href="#DejaVuSans-61" transform="translate(1369.576172 0)"/>
     <use xlink:href="#DejaVuSans-68" transform="translate(1430.855469 0)"/>
     <use xlink:href="#DejaVuSans-72" transform="translate(1494.234375 0)"/>
     <use xlink:href="#DejaVuSans-20" transform="translate(1535.347656 0)"/>
     <use xlink:href="#DejaVuSans-75" transform="translate(1567.134766 0)"/>
     <use xlink:href="#DejaVuSans-6e" transform="translate(1630.513672 0)"/>
     <use xlink:href="#DejaVuSans-64" transform="translate(1693.892578 0)"/>
     <use xlink:href="#DejaVuSans-20" transform="translate(1757.369141 0)"/>
     <use xlink:href="#DejaVuSans-56" transform="translate(1789.15625 0)"/>
     <use xlink:href="#DejaVuSans-6f" transform="translate(1849.814453 0)"/>
     <use xlink:href="#DejaVuSans-72" transform="translate(1910.996094 0)"/>
     <use xlink:href="#DejaVuSans-6a" transform="translate(1952.109375 0)"/>
     <use xlink:href="#DejaVuSans-61" transform="translate(1979.892578 0)"/>
     <use xlink:href="#DejaVuSans-68" transform="translate(2041.171875 0)"/>
     <use xlink:href="#DejaVuSans-72" transform="translate(2104.550781 0)"/>
     <use xlink:href="#DejaVuSans-65" transform="translate(2143.414062 0)"/>
     <use xlink:href="#DejaVuSans-20" transform="translate(2204.9375 0)"/>
     <use xlink:href="#DejaVuSans-28" transform="translate(2236.724609 0)"/>
     <use xlink:href="#DejaVuSans-61" transform="translate(2275.738281 0)"/>
     <use xlink:href="#DejaVuSans-62" transform="translate(2337.017578 0)"/>
     <use xlink:href="#DejaVuSans-20" transform="translate(2400.494141 0)"/>
     <use xlink:href="#DejaVuSans-32" transform="translate(2432.28125 0)"/>
     <use xlink:href="#DejaVuSans-30" transform="translate(2495.904297 0)"/>
     <use xlink:href="#DejaVuSans-32" transform="translate(2559.527344 0)"/>
     <use xlink:href="#DejaVuSans-32" transform="translate(2623.150391 0)"/>
     <use xlink:href="#DejaVuSans-29" transform="translate(2686.773438 0)"/>
    </g>
   </g>
   <g id="legend_1">
    <g id="patch_17">
     <path d="M 40.403125 124.590625 
L 169.542188 124.590625 
Q 171.542188 124.590625 171.542188 122.590625 
L 171.542188 50.2 
Q 171.542188 48.2 169.542188 48.2 
L 40.403125 48.2 
Q 38.403125 48.2 38.403125 50.2 
L 38.403125 122.590625 
Q 38.403125 124.590625 40.403125 124.590625 
z
" style="fill: #ffffff; opacity: 0.8; stroke: #cccccc; stroke-linejoin: miter"/>
    </g>
    <g id="line2d_65">
     <path d="M 42.403125 56.298437 
L 52.403125 56.298437 
L 62.403125 56.298437 
" style="fill: none; stroke: #bcbd22; stroke-width: 1.5; stroke-linecap: square"/>
    </g>
    <g id="text_18">
     <!-- 2022 -->
     <g transform="translate(70.403125 59.798437) scale(0.1 -0.1)">
      <use xlink:href="#DejaVuSans-32"/>
      <use xlink:href="#DejaVuSans-30" transform="translate(63.623047 0)"/>
      <use xlink:href="#DejaVuSans-32" transform="translate(127.246094 0)"/>
      <use xlink:href="#DejaVuSans-32" transform="translate(190.869141 0)"/>
     </g>
    </g>
    <g id="line2d_66">
     <path d="M 42.403125 70.976562 
L 52.403125 70.976562 
L 62.403125 70.976562 
" style="fill: none; stroke: #d62728; stroke-width: 1.5; stroke-linecap: square"/>
    </g>
    <g id="text_19">
     <!-- 2023 -->
     <g transform="translate(70.403125 74.476562) scale(0.1 -0.1)">
      <use xlink:href="#DejaVuSans-32"/>
      <use xlink:href="#DejaVuSans-30" transform="translate(63.623047 0)"/>
      <use xlink:href="#DejaVuSans-32" transform="translate(127.246094 0)"/>
      <use xlink:href="#DejaVuSans-33" transform="translate(190.869141 0)"/>
     </g>
    </g>
    <g id="line2d_67">
     <path d="M 42.403125 85.654687 
L 52.403125 85.654687 
L 62.403125 85.654687 
" style="fill: none; stroke: #2ca02c; stroke-width: 1.5; stroke-linecap: square"/>
    </g>
    <g id="text_20">
     <!-- 2024 -->
     <g transform="translate(70.403125 89.154687) scale(0.1 -0.1)">
      <use xlink:href="#DejaVuSans-32"/>
      <use xlink:href="#DejaVuSans-30" transform="translate(63.623047 0)"/>
      <use xlink:href="#DejaVuSans-32" transform="translate(127.246094 0)"/>
      <use xlink:href="#DejaVuSans-34" transform="translate(190.869141 0)"/>
     </g>
    </g>
    <g id="line2d_68">
     <path d="M 42.403125 100.332812 
L 52.403125 100.332812 
L 62.403125 100.332812 
" style="fill: none; stroke: #1f77b4; stroke-width: 1.5; stroke-linecap: square"/>
    </g>
    <g id="text_21">
     <!-- 2025 -->
     <g transform="translate(70.403125 103.832812) scale(0.1 -0.1)">
      <use xlink:href="#DejaVuSans-32"/>
      <use xlink:href="#DejaVuSans-30" transform="translate(63.623047 0)"/>
      <use xlink:href="#DejaVuSans-32" transform="translate(127.246094 0)"/>
      <use xlink:href="#DejaVuSans-35" transform="translate(190.869141 0)"/>
     </g>
    </g>
    <g id="line2d_69">
     <path d="M 42.403125 115.010938 
L 52.403125 115.010938 
L 62.403125 115.010938 
" style="fill: none; stroke-dasharray: 1.5,2.475; stroke-dashoffset: 0; stroke: #1f77b4; stroke-width: 1.5"/>
    </g>
    <g id="text_22">
     <!-- heute (20.06.2025) -->
     <g transform="translate(70.403125 118.510938) scale(0.1 -0.1)">
      <use xlink:href="#DejaVuSans-68"/>
      <use xlink:href="#DejaVuSans-65" transform="translate(63.378906 0)"/>
      <use xlink:href="#DejaVuSans-75" transform="translate(124.902344 0)"/>
      <use xlink:href="#DejaVuSans-74" transform="translate(188.28125 0)"/>
      <use xlink:href="#DejaVuSans-65" transform="translate(227.490234 0)"/>
      <use xlink:href="#DejaVuSans-20" transform="translate(289.013672 0)"/>
      <use xlink:href="#DejaVuSans-28" transform="translate(320.800781 0)"/>
      <use xlink:href="#DejaVuSans-32" transform="translate(359.814453 0)"/>
      <use xlink:href="#DejaVuSans-30" transform="translate(423.4375 0)"/>
      <use xlink:href="#DejaVuSans-2e" transform="translate(487.060547 0)"/>
      <use xlink:href="#DejaVuSans-30" transform="translate(518.847656 0)"/>
      <use xlink:href="#DejaVuSans-36" transform="translate(582.470703 0)"/>
      <use xlink:href="#DejaVuSans-2e" transform="translate(646.09375 0)"/>
      <use xlink:href="#DejaVuSans-32" transform="translate(677.880859 0)"/>
      <use xlink:href="#DejaVuSans-30" transform="translate(741.503906 0)"/>
      <use xlink:href="#DejaVuSans-32" transform="translate(805.126953 0)"/>
      <use xlink:href="#DejaVuSans-35" transform="translate(868.75 0)"/>
      <use xlink:href="#DejaVuSans-29" transform="translate(932.373047 0)"/>
     </g>
    </g>
   </g>
  </g>
  <g id="text_23">
   <!-- Dr. Gerhard Liebig (Waage 1276) -->
   <g transform="translate(258.63375 9.118125) scale(0.12 -0.12)">
    <defs>
     <path id="DejaVuSans-44" d="M 1259 4147 
L 1259 519 
L 2022 519 
Q 2988 519 3436 956 
Q 3884 1394 3884 2338 
Q 3884 3275 3436 3711 
Q 2988 4147 2022 4147 
L 1259 4147 
z
M 628 4666 
L 1925 4666 
Q 3281 4666 3915 4102 
Q 4550 3538 4550 2338 
Q 4550 1131 3912 565 
Q 3275 0 1925 0 
L 628 0 
L 628 4666 
z
" transform="scale(0.015625)"/>
     <path id="DejaVuSans-4c" d="M 628 4666 
L 1259 4666 
L 1259 531 
L 3531 531 
L 3531 0 
L 628 0 
L 628 4666 
z
" transform="scale(0.015625)"/>
     <path id="DejaVuSans-57" d="M 213 4666 
L 850 4666 
L 1831 722 
L 2809 4666 
L 3519 4666 
L 4500 722 
L 5478 4666 
L 6119 4666 
L 4947 0 
L 4153 0 
L 3169 4050 
L 2175 0 
L 1381 0 
L 213 4666 
z
" transform="scale(0.015625)"/>
    </defs>
    <use xlink:href="#DejaVuSans-44"/>
    <use xlink:href="#DejaVuSans-72" transform="translate(77.001953 0)"/>
    <use xlink:href="#DejaVuSans-2e" transform="translate(108.990234 0)"/>
    <use xlink:href="#DejaVuSans-20" transform="translate(140.777344 0)"/>
    <use xlink:href="#DejaVuSans-47" transform="translate(172.564453 0)"/>
    <use xlink:href="#DejaVuSans-65" transform="translate(250.054688 0)"/>
    <use xlink:href="#DejaVuSans-72" transform="translate(311.578125 0)"/>
    <use xlink:href="#DejaVuSans-68" transform="translate(350.941406 0)"/>
    <use xlink:href="#DejaVuSans-61" transform="translate(414.320312 0)"/>
    <use xlink:href="#DejaVuSans-72" transform="translate(475.599609 0)"/>
    <use xlink:href="#DejaVuSans-64" transform="translate(514.962891 0)"/>
    <use xlink:href="#DejaVuSans-20" transform="translate(578.439453 0)"/>
    <use xlink:href="#DejaVuSans-4c" transform="translate(610.226562 0)"/>
    <use xlink:href="#DejaVuSans-69" transform="translate(665.939453 0)"/>
    <use xlink:href="#DejaVuSans-65" transform="translate(693.722656 0)"/>
    <use xlink:href="#DejaVuSans-62" transform="translate(755.246094 0)"/>
    <use xlink:href="#DejaVuSans-69" transform="translate(818.722656 0)"/>
    <use xlink:href="#DejaVuSans-67" transform="translate(846.505859 0)"/>
    <use xlink:href="#DejaVuSans-20" transform="translate(909.982422 0)"/>
    <use xlink:href="#DejaVuSans-28" transform="translate(941.769531 0)"/>
    <use xlink:href="#DejaVuSans-57" transform="translate(980.783203 0)"/>
    <use xlink:href="#DejaVuSans-61" transform="translate(1073.285156 0)"/>
    <use xlink:href="#DejaVuSans-61" transform="translate(1134.564453 0)"/>
    <use xlink:href="#DejaVuSans-67" transform="translate(1195.84375 0)"/>
    <use xlink:href="#DejaVuSans-65" transform="translate(1259.320312 0)"/>
    <use xlink:href="#DejaVuSans-20" transform="translate(1320.84375 0)"/>
    <use xlink:href="#DejaVuSans-31" transform="translate(1352.630859 0)"/>
    <use xlink:href="#DejaVuSans-32" transform="translate(1416.253906 0)"/>
    <use xlink:href="#DejaVuSans-37" transform="translate(1479.876953 0)"/>
    <use xlink:href="#DejaVuSans-36" transform="translate(1543.5 0)"/>
    <use xlink:href="#DejaVuSans-29" transform="translate(1607.123047 0)"/>
   </g>
  </g>
 </g>
 <defs>
  <clipPath id="p0f85089da2">
   <rect x="33.403125" y="43.2" width="669.6" height="332.64"/>
  </clipPath>
 </defs>
</svg>
