<?xml version="1.0" encoding="UTF-8" standalone="no"?>
<!-- Created with Inkscape (http://www.inkscape.org/) -->

<svg
   version="1.1"
   id="svg1"
   width="470.79999"
   height="313.42667"
   viewBox="0 0 470.79999 313.42667"
   xmlns="http://www.w3.org/2000/svg"
   xmlns:svg="http://www.w3.org/2000/svg">
  <defs
     id="defs1" />
  <g
     id="g1">
    <g
       id="group-R5">
      <path
         id="path2"
         d="m 2639.89,876.77 c -22.79,-11.071 -40.67,-28.911 -59.06,-45.379 -21.73,-19.469 -44.48,-37.77 -65.83,-57.621 -8.92,-8.301 -13.72,-5.579 -16.49,4.25 -2.41,8.55 -4.06,17.449 -4.96,26.3 -5.43,53.891 -13.41,107.461 -20.04,161.18 -4.21,34.102 -5.04,69.12 2.86,103.5 5.56,24.16 1.15,49.01 3.78,73.47 6.93,64.68 15.46,129.27 13.25,194.59 -1.31,38.84 -7.12,77.21 -11.67,115.73 -4.65,39.41 -3.32,79.04 -2.69,118.58 0.51,31.69 -1.9,63.5 4.39,95.07 2.6,13.06 6.81,24.85 17.74,31.99 34.18,22.38 38.1,58.19 41.99,93.55 1.94,17.79 1.43,35.71 6.18,53.32 5.94,22.06 -7.68,40.52 -14.07,59.99 -5.86,17.85 -8.45,37.17 -19.99,52.93 9.08,7.62 16.93,3.48 23.67,-3.29 6.88,-6.89 14.84,-9.11 24.26,-9.59 22.13,-1.14 45.11,-1.09 65.77,-8.02 23.15,-7.76 47.58,-15.59 64.47,-36.05 12.2,-14.75 26.02,-28.08 37.17,-43.82 10.8,-15.25 16.65,-31.38 15.77,-50.3 -1.5,-32.33 -0.57,-65.08 -23.06,-92.1 -20.35,-24.44 -42.2,-44.37 -77.29,-46.27 -19.04,-1.04 -34.64,-15.21 -47.79,-29.55 -4.75,-5.19 -4.75,-11.97 -4.14,-18.75 0.96,-10.76 1.89,-21.64 4.53,-32.01 12.39,-48.69 8.61,-98.84 14.23,-148.12 1.85,-16.3 1.83,-31.38 -1.98,-48.25 -7.17,-31.85 -8.64,-65.15 -8.63,-98.15 0,-12.24 3.17,-23.68 7.4,-34.95 2.1,-5.62 3.8,-11.49 6.7,-16.67 26.59,-47.39 28.87,-97.73 19.56,-149.87 -2.86,-15.98 -2.78,-32.21 5.28,-47.39 4.34,-8.18 4.1,-17.35 4.27,-26.37 0.66,-33.38 -2.87,-66.911 8.91,-99.61 5.88,-16.32 -5.67,-29.52 -14.49,-42.32"
         style="fill:#fbce18;fill-opacity:1;fill-rule:evenodd;stroke:none"
         transform="matrix(0.13333333,0,0,-0.13333333,0,313.42667)" />
      <path
         id="path3"
         d="m 2639.89,876.77 c 0.22,3.57 -0.98,8.511 0.92,10.531 17.53,18.629 6.36,37.308 2.05,56.828 -5.46,24.641 -1.91,50.109 -2.51,75.211 -0.27,10.71 1.42,21.54 -8.12,29.89 -4.47,3.93 -3.11,10.05 -2.95,15.38 0.79,26.32 3.05,52.51 6.97,78.57 2.74,18.18 -0.35,35.74 -6.75,52.81 -2.52,6.71 -4.05,14.05 -7.76,20.02 -36.32,58.37 -22.05,121.33 -17.18,183.46 0.29,3.67 0.49,7.5 5.24,8 4.81,0.5 6.77,3.71 4.94,7.29 -14.46,28.36 -9.7,58.96 -9.89,88.71 -0.22,32.03 -9.57,62.48 -13.14,93.87 -1.15,10.09 -2.54,20.16 -3.53,30.27 -0.55,5.5 -0.03,11.74 4.26,15.1 18.93,14.9 35.95,33.97 63.22,32.73 10.1,-0.46 18.68,3.11 26.88,8.42 35.2,22.83 54.55,53.63 58.81,96.83 3.71,37.72 -5.04,68.97 -31.12,94.75 -17.16,16.94 -27.99,43.43 -58.06,43.43 -25.13,28.09 -60.19,13.63 -90.23,20.65 -9.86,2.3 -20.08,0.76 -25.84,12.06 -4.29,8.43 -13.28,6.21 -20.82,6.64 -25.52,1.96 -51.07,4.35 -75.23,-7.52 -2.62,-1.28 -5.79,-2.95 -8.39,-2.52 -36.82,5.94 -53.52,-23.3 -75.34,-43.21 -3.65,-3.32 -6.48,-9.45 -6.65,-14.38 -1.59,-45.79 -9.83,-91.63 4.49,-137.23 6.75,-21.49 20.06,-37.78 33.94,-54 12.14,-14.18 13.64,-26.82 -0.72,-40.1 -4.37,-4.03 -7.9,-8.97 -11.71,-13.59 -2.67,-3.23 -7.34,-6.59 -7.36,-9.92 -0.14,-21.32 -3.03,-42.37 -4.41,-63.54 -0.24,-3.73 5.06,-9.54 3,-13.32 -17.96,-32.94 4.42,-68 -5.88,-101.57 -3.38,-11 -2.77,-23.61 -4.15,-35.47 -2.05,-17.65 -1.86,-35.12 5.83,-52.52 21.88,-49.5 13.84,-102.26 14.3,-154.01 0.03,-2.84 -0.93,-6.28 -2.67,-8.44 -11.05,-13.75 -12.55,-28.52 -5.69,-44.46 -18.02,-8.86 -30.57,1.48 -42.22,12.77 -6.77,6.56 -11.66,14.95 -17.49,22.44 -7.59,9.74 -15.26,10.59 -25.92,3.44 -13.53,-9.08 -26.38,-20.29 -43.84,-21.75 -19.64,-8.28 -34.65,-22.69 -49.46,-37.37 -3.08,-3.05 -6.46,-7.21 -5.13,-10.9 11.4,-31.2 -13.17,-10.54 -20.61,-14.12 -1.97,-0.94 -5.54,1.43 -8.37,2.27 -13.93,8.84 -16.17,20.6 -8.68,36.26 26.54,55.54 41.97,112.98 28.97,175.2 -8.54,40.9 -5.48,82.45 -3.9,123.63 0.73,19.12 -0.38,37.39 -7.25,54.54 -12.37,30.89 -9.96,62.24 -6.24,93.84 1.49,12.65 1.72,24.73 -2.18,37.21 -7.33,23.42 2.94,54.87 23.53,68.65 19.71,13.19 31.02,30.92 36.56,53.38 6.12,24.85 15.3,49.08 5.94,75.51 -3.3,9.32 -0.86,20.22 -0.96,30.41 -0.19,21.47 -8.87,40.05 -16.6,59.76 -13.16,33.52 -40.57,46.95 -69.17,61.87 -24.52,12.8 -48.73,25.36 -76.4,29.46 -9.69,1.44 -17.15,8.26 -26.45,10.54 -84.73,13.68 -161.18,-49.66 -171.8,-113.12 -1.91,-11.44 -1.53,-22.62 -1.73,-33.91 -0.21,-11.82 2.87,-24.04 -6.14,-34.31 -1.01,-1.15 -0.86,-3.4 -1.02,-5.17 -2.77,-27.94 28.97,-80.47 56.18,-89.05 32.6,-10.29 54.68,-27.82 57.83,-64.3 0.81,-9.39 0.11,-17.79 -3.3,-26.18 -6.06,-14.89 -12.37,-29.67 -18.44,-44.55 -2.53,-6.19 -5.49,-14.01 -1.49,-19.01 10.33,-12.9 4.08,-24.1 -2.34,-34.55 -11.9,-19.38 -11.74,-38.66 -6.2,-60.13 8.84,-34.26 6.33,-70.09 11.41,-104.98 0.78,-5.34 -1.22,-10.13 -7.22,-10.25 -8.92,-0.17 -4.79,6.4 -4.12,10.32 3.95,23.28 0.79,45.68 -10.16,66.32 -19.9,37.51 -10.71,74.13 0.71,111.36 8.05,26.28 14.25,53.14 21.28,79.74 3.77,14.31 2.02,28.51 -0.54,42.78 -2.73,15.23 -11.81,22.65 -26.93,24.01 -41.5,3.75 -80.4,46.59 -81.25,88.72 -0.67,33.83 6.35,66.75 11.94,99.76 2.78,16.45 3.92,33.17 8.92,49.39 6.52,21.08 18.08,38.07 37.04,48.81 21.81,12.35 44.1,24.14 67.08,34.11 17.7,7.69 36.68,1.22 54.85,-1.03 12.5,-1.55 24.9,-3.14 37.48,-3.05 11.61,0.09 22.85,-0.21 30.61,-11.1 3.6,-5.05 9.86,-3.4 15,-4.5 34.81,-7.43 68.03,-19.22 97.35,-39.68 19.86,-13.86 34.54,-30.31 38.05,-57.46 4.09,-31.76 15.27,-62.57 22.72,-93.96 2.03,-8.54 7.78,-18.46 -4.63,-25.34 -3.53,-1.96 -3.96,-8.2 -0.89,-11.43 11.63,-12.23 2.47,-20.47 -4.91,-29.12 -5.46,-6.37 -12.03,-11.98 -16.44,-18.98 -3.61,-5.71 -13.87,-11.3 -1.49,-20.38 5.1,-3.74 -2.23,-11.6 -6.21,-16.42 -11.43,-13.84 -23.24,-27.36 -34.78,-41.11 -5.11,-6.11 -8.75,-13.35 -8.7,-21.25 0.25,-34.64 -3.83,-69.54 6.08,-103.66 3.01,-10.37 3.92,-21.08 4.2,-31.95 0.63,-24.91 0.28,-49.46 5.45,-74.64 4.9,-23.9 0.09,-50.1 -2.46,-75.1 -1.87,-18.51 -0.01,-36.27 7.42,-52.61 16.81,-37.04 8.09,-69.61 -14.17,-100.74 -3.28,-4.58 -9.5,-8.43 -5.09,-15.57 3.98,-6.45 10.63,-7.5 17.22,-7.37 9.11,0.19 17.72,2.93 25.13,8.41 5.3,3.9 10.4,8.1 15.28,12.52 43.08,39.07 31.02,39.14 80.34,5.85 8.25,-5.57 12.43,-3.89 17.45,2.67 11.09,14.49 15.38,30.38 13.05,48.82 -13.59,107.5 -12.77,215.14 -2.12,322.83 0.99,10.13 1.34,20.31 1.98,30.47 1.07,17.01 4.11,33.38 15.71,46.84 5.37,6.22 4.74,12.43 -1.22,17.29 -28.3,23.12 -30.28,57.54 -36.81,89.18 -5.03,24.44 -4.75,49.99 -6.68,75.06 -0.41,5.36 -1.79,11.45 0.08,16.05 18.99,46.65 36.9,96.23 90.83,112.49 27.07,8.15 55.34,18.38 85.43,13.59 13.44,-2.14 19.49,1.89 10,16.45 -7.44,11.42 -12.24,24.57 -18.12,37 -3.64,7.7 -2.78,15.18 2.14,22 13.96,19.34 60.03,15.23 70.81,-6.26 10.08,-20.09 2.4,-52.38 -15.69,-65.95 -1.88,-1.42 -3.67,-2.98 -5.67,-4.6 7.1,-12.2 16.36,-19.15 30.69,-22.04 34.57,-6.97 68.64,-16.42 103.84,-20.22 7.6,-0.82 13.09,-5.56 18.16,-10.79 17.96,-18.49 38.77,-35.04 53.2,-55.98 26.1,-37.89 43.1,-79.21 22.04,-126.35 -4.57,-10.24 -8.22,-20.99 -11.27,-31.79 -9,-32.01 -30.59,-51.31 -60.75,-62.99 -19.44,-7.52 -38.22,-16.58 -56.15,-27.37 -12.4,-7.45 -17.49,-17.63 -13.63,-31.6 3.59,-12.95 3.13,-26.27 3.16,-39.31 0.12,-73.14 -0.39,-146.29 -1.11,-219.43 -0.14,-14.94 -1.7,-29.88 -3.27,-44.75 -3.55,-33.58 5.51,-64.52 23.31,-91.92 12.62,-19.42 17.39,-38.43 12.93,-60.6 -10.2,-50.78 -9.59,-101.62 -0.28,-152.449 -14.58,-20.113 3.54,-38.05 3.75,-57.171 0.07,-6.391 0.69,-12.481 8.4,-13.692 19.71,-3.09 39.68,-11.199 59.32,-1.258 49.36,24.942 102.43,42.371 147.64,75.84 23.05,17.06 31.74,13.39 46.44,-11.512 16.98,-28.769 45.26,-45.617 70.8,-64.988 38.12,-28.91 77.33,-56.398 116.4,-84.039 13.85,-9.812 26.32,-20.672 35.75,-34.82 6.22,-9.321 14.39,-16.18 25.44,-18.602 13.49,-2.961 20.37,-14.379 29.49,-22.66 41.62,-37.73 91.02,-63.461 139.1,-91.23 15.57,-9 31.06,-17.77 43.7,-30.95 8.86,-9.238 19.29,-15.539 33.01,-15.629 12.06,-0.07 22.83,-3.171 32.22,-12.621 10.25,-10.269 26.16,-6.359 38.92,-11.257 7.73,-2.954 16.12,-4.352 18.13,-14.891 -16.71,-2.563 -33.28,-2.02 -49.85,-1.27 -2.97,0.137 -6.97,-0.32 -8.73,1.348 -23.54,22.391 -56.85,15.422 -84.08,28.41 -29.92,14.262 -58.39,28.512 -81.58,52.973 -20.07,21.148 -49.38,29.937 -70.65,50.637 -21.8,21.222 -46.84,39.121 -70.48,58.472 -2.77,2.27 -5.4,6.239 -8.39,6.528 -29.72,2.941 -40.75,27.351 -57.63,46.601 -34.98,39.918 -78.47,69.988 -124.39,96.36 -19.44,11.171 -36.88,24.558 -49.2,43.582 -5.99,9.25 -10.15,10.199 -21.11,4.128 -22.36,-12.402 -47.43,-19.992 -64.62,-40.589 -30.97,1.519 -49.4,-23.68 -74.47,-34.68 -11.39,-5 -23.73,-9.063 -36,-10.531 -18.42,-2.192 -32.26,-20.821 -53.12,-13.641 -5.47,1.891 -12.02,0.609 -16.25,5.981"
         style="fill:#060707;fill-opacity:1;fill-rule:evenodd;stroke:none"
         transform="matrix(0.13333333,0,0,-0.13333333,0,313.42667)" />
      <path
         id="path4"
         d="m 2032.77,2029.46 c 24.42,-5.57 49.95,-8.44 72.87,-17.73 13.9,-5.64 26.72,-16.17 40.83,-23.28 10.61,-5.34 19.86,-13.38 32.97,-12.58 6.63,0.4 8.57,-5.79 10.58,-10.69 6.4,-15.56 14.14,-30.33 23.66,-44.25 3.32,-4.85 6.68,-10.67 7.16,-16.29 4.58,-52.69 19.5,-105.5 -3.59,-157.83 -7.55,-17.11 -17.78,-30.59 -33.05,-41.27 -22.71,-15.91 -30.41,-44.2 -20.4,-70.51 3.64,-9.53 1.1,-19.1 -0.2,-28.41 -5.12,-36.71 -4.68,-72.69 9.51,-107.74 4.75,-11.71 5.14,-24.2 4.38,-37.07 -3.24,-54.54 -3.88,-109.03 9.2,-162.71 3.38,-13.84 0.41,-27.41 -2.77,-40.88 -6.6,-27.95 -13.18,-55.91 -19.96,-83.82 -1.26,-5.17 -2.62,-10.36 -6.97,-14.28 -14.51,-13.07 -13.29,-26.86 -1.4,-40.92 -5.53,-33.5 -10.92,-67.01 -16.73,-100.45 -0.79,-4.56 -3.07,-9.12 -5.59,-13.1 -19.16,-30.259 -38.56,-60.369 -57.9,-90.509 -2.51,-3.93 -4.51,-10.02 -9.97,-8.77 -6.21,1.41 -3.91,7.93 -3.91,12.348 0.01,67.73 -2.31,135.591 1.47,203.111 1.61,28.55 7.99,57.97 10.64,86.61 3.28,35.5 11.74,70.75 9.36,106.86 -3.18,48.53 13.72,96.7 6.08,144.89 -10.25,64.47 -5.21,129.02 -5.84,193.51 -0.36,36.45 5.08,73.62 31.81,101.52 33.84,35.31 28.13,74.07 15.54,114.89 -4.89,15.87 -7.93,32.31 -12.43,48.32 -2.08,7.41 -4.07,15.69 -8.77,21.37 -25.07,30.27 -50.97,59.84 -76.58,89.66"
         style="fill:#fbce18;fill-opacity:1;fill-rule:evenodd;stroke:none"
         transform="matrix(0.13333333,0,0,-0.13333333,0,313.42667)" />
      <path
         id="path5"
         d="m 822.465,1382.47 c -17.66,41.31 -25.067,84.64 -29.336,129.23 -3.227,33.7 0.566,70.01 -24.566,98.77 -3.715,4.25 -7.973,11.35 -2.747,16.11 6.231,5.67 12.59,-0.65 17.157,-4.69 15.949,-14.1 27.121,-31.8 36.027,-51 4.531,-9.76 10.02,-18.26 19.191,-25.06 19.512,-14.46 27.02,-37.54 37.914,-58 7.356,-13.81 15.348,-26.97 25.805,-38.71 4.926,-5.53 8.438,-5.24 12.801,0.2 7.223,8.98 12.863,18.07 12.254,30.6 -1.766,35.92 -2.711,71.88 -3.93,107.83 -0.222,6.73 -1.996,12.97 -5.222,18.83 -2.77,5.03 -4.192,11.2 -1.29,15.56 11.012,16.54 6.637,34.76 6.762,52.38 0.254,35.99 0.93,71.93 2.481,107.91 2.066,47.71 -12.094,93.31 -21.895,139.37 -4.082,19.18 -10.066,37.95 -15,56.95 -1.609,6.22 -5.101,14.21 0.984,18.29 6.958,4.68 15.649,1.53 21.497,-4.02 7.781,-7.38 14.644,-15.78 21.441,-24.12 11.953,-14.65 23.238,-14.02 34.027,1.15 7.828,11.02 8.618,23.45 9.407,35.88 0.875,13.76 1.058,27.6 0.691,41.38 -0.734,28.03 3.223,54.86 18.828,78.85 5.144,7.91 6.464,16.35 6.834,25.52 1.18,28.59 -2.17,56.69 16.92,83.54 12.67,17.82 10.23,43.67 5.69,66.45 -2.11,10.54 -5.78,20.84 -7.09,31.45 -0.76,6.19 -3.43,16.12 6.48,17.41 9.03,1.17 16.39,-4.52 17.67,-14.29 3.4,-26.1 10.99,-51.68 10.58,-78.26 -0.47,-30.58 -1.28,-61.16 -2.24,-91.73 -0.37,-11.71 1.56,-22.44 7.98,-32.56 6.56,-10.32 9.3,-21.88 8.77,-34.3 -1.96,-46.11 -1.14,-92.1 7.49,-137.64 1.39,-7.32 0.45,-15.71 10.11,-19.26 9.3,-3.42 16.47,0.12 23.23,5.46 10.24,8.07 17.46,17.68 16.93,31.87 -0.26,6.95 -3.62,17.69 9.08,17.11 10.21,-0.47 18.85,-5.86 19.29,-17.48 0.28,-7.65 -0.77,-15.64 -2.79,-23.05 -15.89,-58.24 -34.85,-115.8 -47.49,-174.71 -11.29,-52.58 -14.81,-106.99 1.33,-159.64 12.07,-39.35 22.56,-40.95 52.17,-12.87 11.75,11.14 23.5,22.28 35.31,33.37 3.77,3.54 8.51,5.76 12.9,2.31 4.41,-3.45 3.16,-8.9 1.06,-13.27 -5.81,-12.08 -16.42,-20.54 -24.24,-31.09 -6.74,-9.1 -17.37,-17.95 -4.69,-31.02 4.97,-5.14 0.58,-11.5 -3.88,-15.77 -7.39,-7.09 -10.56,-16.2 -11.6,-25.69 -3.92,-35.73 -8.98,-71.58 3.95,-106.77 2.73,-7.41 4.26,-15.38 -0.08,-22.68 -8.82,-14.84 -7.5,-30.92 -7.04,-47.12 0.57,-19.64 -2.79,-38.49 -6.71,-57.99 -5.17,-25.67 -8.52,-54.69 9.24,-79.39 1.65,-2.29 3.56,-7.4 2.85,-7.94 -17.03,-13.02 -2.54,-28.1 -2.21,-41.71 0.77,-30.83 0.67,-62.85 -9.82,-90.5 -9.33,-24.58 -4,-44.14 2.26,-65.32 6.25,-21.17 6.91,-42.241 5.65,-63.952 -1.39,-23.937 -0.88,-47.976 -1.72,-71.949 -0.33,-9.219 2.95,-11.929 12.25,-12.898 22.7,-2.379 44.21,3.73 65.45,8.89 25.92,6.309 50.9,2.438 76.51,0.258 48.9,-4.187 97.92,-6.937 146.92,-10.008 3.31,-0.222 7.15,1.129 10.1,2.84 39.28,22.84 77.46,18.199 114.81,-4.531 7.32,-4.469 14.38,-4.441 22.32,-2.41 40.46,10.289 80.91,20.648 121.53,30.308 37.85,9 76.4,3.141 114.64,4.082 17.39,-17.742 42.67,-15.832 63.24,-25.5 13.73,-6.449 18.09,-2.082 19.31,11.782 0.92,10.386 0.81,20.758 -2.15,30.297 -14.69,47.351 -15.85,95.581 -9.85,144.111 3.45,27.87 0.94,55.45 -4.36,82.29 -10.43,52.76 0.45,105.3 -1.56,157.87 -0.31,8.33 4.32,14.68 12.9,19.88 8.18,-15.51 4.56,-31.78 3.02,-46.92 -3.33,-32.83 -0.91,-65.88 -5.81,-98.67 -4.15,-27.74 3.28,-54.59 11.92,-80.9 4.14,-12.63 11.79,-25.45 -2.81,-37.06 -3.5,-2.8 -2.12,-8.32 0.23,-11.78 16.83,-24.92 7.38,-52.04 6.83,-78.368 -0.17,-8.352 -0.97,-16.75 -2.28,-24.992 -2.58,-16.168 4.04,-25.34 19.21,-31.399 29.63,-11.82 32.93,-57.871 11.98,-77.633 -11,-10.379 -26.04,-2.617 -38.79,1.703 -4.29,1.45 -8.83,4.707 -11.33,8.438 -18.43,27.441 -44.87,30.262 -75.32,29.43 -62.79,-1.707 -124.83,-7.2 -186.74,-18.379 -36.85,-6.649 -74.72,-9.16 -110.92,8.25 -16.59,7.98 -34.83,8.832 -51.5,-2.032 -5.56,-3.628 -11.51,-2.589 -17.41,-2.789 -42.64,-1.519 -84.66,6.442 -127.11,8.379 -24.09,1.102 -47.91,0.063 -71.83,-1.328 -2.94,-0.18 -7.43,-0.148 -8.47,-1.871 -6.16,-10.129 -12.16,-11.398 -20.18,-1.91 -1.41,1.672 -5.99,2.043 -8.48,1.18 -24.66,-8.489 -49.74,-4.481 -74.66,-2.528 -9.45,0.739 -18.79,-4.883 -28.13,0.008 -8.41,30.223 -7.38,60.371 3.4,89.551 4.19,11.332 6.21,21.648 2.75,33.058 -0.69,2.293 -0.94,4.731 -1.75,6.981 -15.2,41.841 -17.26,83.321 -2.91,126.471 11.64,34.99 4.07,71.69 -0.55,107.14 -7.82,59.97 -5.54,119.47 0.26,179.32 4.9,50.7 8.76,101.49 15.84,151.97 0.63,4.49 2.37,10.45 -3.37,12.65 -5.26,2.02 -8.65,-2.8 -11.89,-6.22 -14.31,-15.15 -14.54,-34.91 -17.26,-53.78 -1.58,-10.98 0.76,-25.21 -15.24,-26.25 -15.76,-1.04 -18.2,12.81 -21.6,24.33 -4.46,15.12 -0.02,29.73 2.81,44.4 2.16,11.2 4.62,22.33 6.62,33.55 1.06,5.93 2.63,12.53 -1.32,17.47 -15.19,19 -11.34,41.05 -9.94,62.27 2.83,43.04 6.29,86.11 5.86,129.19 -0.31,30.95 10.57,58.78 17.81,87.72 2.47,9.89 5.39,19.68 6.34,29.87 0.31,3.4 1.02,8.01 -3.46,9.02 -4.42,1 -5.67,-3.38 -7.04,-6.59 -1.18,-2.8 -1.26,-5.86 -1.39,-8.85 -0.35,-7.91 -3.16,-14.1 -11.5,-16.17 -8.19,-2.03 -15.53,-0.35 -21.26,6.15 -5.73,6.48 -9.67,13.85 -8.99,22.8 2.22,29.34 2.22,58.57 -3.46,87.59 -10.37,18.94 -15.89,38.79 -9.11,60.14 11.03,34.71 -1.58,67.23 -8.54,100.3 -0.81,3.84 -1.76,7.66 -3.74,16.15 -14.53,-33.4 -26.51,-63.26 -32.95,-94.57 -7.707,-37.44 -11.718,-75.63 -18.226,-113.34 -4.473,-25.89 4.215,-48.21 16.219,-69.91 6.397,-11.57 7.277,-23.36 4.015,-36.47 -10.742,2.36 -14.914,10.45 -18.683,18.38 -4.852,10.19 -8.926,20.76 -13.27,31.2 -4.504,10.78 -11.301,19.98 -21.062,26.23 -6.356,4.08 -14.094,9.04 -21.665,4.09 -7.679,-5.03 -1.003,-12.67 0.372,-17.93 16.652,-63.66 19.98,-128.94 20.07,-193.95 0.043,-30.59 -11.789,-60.96 -11.086,-92.68 1.043,-46.71 -2.633,-94.04 5.973,-139.82 4.843,-25.76 5.562,-50.52 4.433,-75.91 -0.254,-5.75 3.785,-15.09 -4.836,-17.05 -8.469,-1.94 -18.332,-1.86 -25.519,5.09 -19.762,19.12 -39.371,37.92 -48.332,65.64 -6.532,20.22 -13.657,40.96 -28.575,57.19 -4.382,4.77 -9.339,13.22 -17.152,8.49 -8.043,-4.86 -8.769,-13.26 -3.953,-22 8.988,-16.31 9.66,-32.66 0.141,-49.37 -7.141,-12.51 -2.047,-25.96 2.004,-37.46 2.953,-8.37 4.281,-17.67 9.175,-25.44 0.578,-6 7.313,-13.23 -3.398,-16.96"
         style="fill:#060707;fill-opacity:1;fill-rule:evenodd;stroke:none"
         transform="matrix(0.13333333,0,0,-0.13333333,0,313.42667)" />
      <path
         id="path6"
         d="m 1050.16,1992.43 c 18.23,-26.34 6.63,-55.74 8.26,-83.75 0.46,-7.88 1.12,-14.37 5.44,-21.67 5.8,-9.77 13.72,-9.06 21.51,-7.64 8.73,1.6 4.13,9.61 4.73,14.99 0.4,3.56 0.23,7.24 1.02,10.7 1.82,7.97 7.49,13.47 15.21,12.42 8.29,-1.12 8.01,-9.27 7.22,-15.85 -2.3,-19.09 -8.06,-37.43 -14.58,-55.31 -15.4,-42.3 -9.04,-86.61 -13.08,-129.92 -3.06,-32.77 -3.04,-65.83 -4.3,-98.77 -0.2,-5.25 -2.05,-11.49 3.12,-15.11 14.39,-10.12 10.33,-22.91 7.78,-36.96 -4.25,-23.34 -12.89,-46.26 -8.85,-70.75 0.99,-6.05 2.57,-11.61 5.85,-16.74 3.48,-5.45 8.88,-5.74 14.34,-4.97 6.67,0.95 5.94,6.53 6.13,11.2 0.63,15.6 2.23,31.03 6.47,46.15 2.98,10.62 7.95,20.15 15.91,27.67 4.48,4.24 8.82,11.59 16.4,8.18 8.2,-3.67 6.32,-11.16 5.25,-18.69 -8.9,-62.85 -12.63,-126.25 -19.56,-189.29 -6.21,-56.56 -2.14,-112.62 5.05,-168.39 5.16,-40 3.79,-78.76 -8.45,-116.84 -6.56,-20.39 -5.49,-39.82 0.56,-59.67 1.92,-6.28 4.39,-12.55 5.23,-18.99 2.77,-21.121 14.43,-39.7 0.59,-64.149 -13.24,-23.383 -5.68,-53.992 -6.01,-81.492 -27.79,-9.059 -55.58,-18.09 -83.34,-27.211 -4.46,-1.457 -9.06,-4.93 -13.34,-0.789 -4.2,4.063 -0.68,8.762 -0.03,13.383 4.07,28.879 9.89,57.75 10.84,86.758 0.96,29.441 6.67,58.172 9.76,87.19 4.02,37.77 11.29,75.36 12.57,113.37 1.34,40.1 2.88,80.63 -1.28,120.38 -6.47,61.78 -5.77,124.08 -13.88,185.55 -13.75,104.13 -18.98,208.85 -11.96,313.22 5.43,80.81 3.57,161.43 6.06,242.11 0.11,3.6 -0.1,7.26 3.36,9.68"
         style="fill:#fad018;fill-opacity:1;fill-rule:evenodd;stroke:none"
         transform="matrix(0.13333333,0,0,-0.13333333,0,313.42667)" />
      <path
         id="path7"
         d="m 1894.64,312.98 c 2.25,-7.07 6.87,-12.742 8.4,-20.671 11.53,-59.227 6.42,-46.219 -46.3,-47.411 -10.79,-0.238 -15.91,7.551 -17.53,17.25 -1.06,6.461 -0.46,13.192 -1.28,19.723 -2.25,18.02 -14.21,32.527 -27.38,33.731 -15.84,1.449 -35.46,-10.782 -41.27,-26.204 -2.75,-7.289 -4,-14.898 -3.99,-22.859 0.13,-56.98 -0.06,-113.961 -0.09,-170.9374 0,-4.1914 0.1,-8.4297 0.7,-12.5625 3.26,-22.3477 13.48,-30.6485 36.33,-29.7696 23.49,0.9102 34.57,11.0899 35.96,33.1602 0.26,4.1797 0.13,8.3906 0.15,12.582 0.31,33.8863 0.33,34.1363 -32.61,37.0083 -7.42,0.64 -10.15,2.929 -10.88,10.55 -3.54,36.879 -3.69,36.969 32.56,37.039 23.39,0.051 46.78,-0.218 70.17,0.219 8.35,0.16 11.64,-2.219 11.56,-11.09 -0.49,-50.976 -0.44,-101.9685 -0.69,-152.9372 -0.03,-5.1602 1.25,-12.17189 -6.36,-12.69924 -9.89,-0.67968 -22.6,-4.3125 -28.29,6.03904 -10.27,18.6992 -20.36,11.9297 -32.97,3.5899 -49.32,-32.6524 -114.14,-15.800812 -134.06,35.7812 -3.72,9.6367 -6.01,19.1875 -5.96,29.5899 0.25,64.7774 1.91,129.6094 -0.32,194.3204 -1.29,37.34 38.48,82.68 83.11,86.437 29.94,2.52 58.03,-2.75 82.67,-21.148 11.09,-7.973 20.97,-17.133 28.37,-28.731"
         style="fill:#61c333;fill-opacity:1;fill-rule:evenodd;stroke:none"
         transform="matrix(0.13333333,0,0,-0.13333333,0,313.42667)" />
      <path
         id="path8"
         d="M 1005.41,53.4688 C 984.414,116.57 963.418,179.68 942.406,242.82 c -8.328,-1.379 -5.418,-7.468 -5.488,-11.39 -0.984,-55.149 -2.246,-110.301 -2.117,-165.4495 0.035,-16.0196 -5.93,-18.3516 -19.34,-14.8008 -33.102,8.7812 -33.078,8.6211 -33.012,43 0.188,92.2113 8.117,184.2813 5.039,276.5313 -0.371,11.25 3.391,14.199 14.332,13.961 28.118,-0.633 36.012,-5.902 44.75,-31.774 16.442,-48.668 33.094,-97.257 49.899,-145.808 1.711,-4.93 5.101,-9.289 8.511,-15.32 6.41,7.492 4.83,15.191 4.86,22.351 0.19,47.379 0.56,94.75 0.11,142.109 -0.1,10.989 3.06,15.758 14.18,13.981 0.58,-0.09 1.2,-0.031 1.79,-0.031 33.68,0.148 33.71,0.148 33.66,-32.719 -0.18,-92.332 -0.34,-184.672 -0.67,-277.0118 -0.02,-5.7304 2.19,-12.039 -2.6,-17.1484 -18.28,-3.1914 -36.42,-5.711 -50.9,10.168"
         style="fill:#61c333;fill-opacity:1;fill-rule:evenodd;stroke:none"
         transform="matrix(0.13333333,0,0,-0.13333333,0,313.42667)" />
      <path
         id="path9"
         d="m 2528.3,234.301 c 0,-26.77 0.02,-51.16 0,-75.571 -0.04,-33.57 -0.4,-67.1597 0.03,-100.73 0.15,-10.9219 -1.87,-17.6992 -14.71,-15.6094 -2.9,0.4805 -5.99,0.0391 -8.97,-0.1718 -8.33,-0.629 -17.98,-10.0079 -24.1,-2.3907 -4.19,5.2032 -1.53,16.1133 -1.51,24.4727 0.13,88.1292 0.27,176.2892 0.59,264.4292 0.11,28.801 22.25,43.84 49.17,34.051 4.97,-1.801 5.2,-5.883 6.62,-9.679 20.07,-53.512 40.18,-107 60.33,-160.473 0.13,-0.34 0.98,-0.418 2.6,-1.051 4.55,5.32 2.84,12.024 2.87,18.043 0.24,47.969 0.5,95.949 0.11,143.91 -0.08,11.219 1.05,19.11 15.04,17.059 2.29,-0.328 4.77,0.34 7.12,0.789 26.99,5.133 27.09,5.152 26.93,-22.109 -0.5,-89.938 -1.28,-179.879 -1.48,-269.8286 -0.03,-15.2812 -1.7,-27.2695 -20.41,-29.3516 -21.58,-2.3984 -28.41,1.5313 -35.25,21.0391 -17.6,50.1601 -35.57,100.1801 -53.26,150.3011 -1.61,4.558 -2.98,8.949 -11.72,12.871"
         style="fill:#60c333;fill-opacity:1;fill-rule:evenodd;stroke:none"
         transform="matrix(0.13333333,0,0,-0.13333333,0,313.42667)" />
      <path
         id="path10"
         d="m 2241.1,208.961 c 0,40.801 0.7,81.609 -0.37,122.367 -0.39,14.852 4.74,17.844 18.38,17.762 39.12,-0.238 39.03,0.34 38.93,-39.488 -0.15,-68.391 -0.27,-136.782 -0.25,-205.172 0.01,-27.6214 7.63,-36.8284 29.76,-36.9183 25.13,-0.1133 35.97,11.0586 36.11,38.1603 0.37,77.387 0.78,154.777 0.5,232.156 -0.04,13.274 2.68,18.102 17.47,19.082 39.36,2.61 39.29,3.692 39.22,-35.5 -0.11,-65.39 -2.46,-130.879 0.3,-196.148 2.6,-61.7815 -39.77,-110.762 -106.98,-104.7229 -22.08,1.9726 -40.72,10.1406 -56.43,23.9492 -11.85,10.4219 -16.99,25.5 -16.86,42.082 0.34,40.7887 0.11,81.6017 0.11,122.3907 0.04,0 0.08,0 0.11,0"
         style="fill:#60c333;fill-opacity:1;fill-rule:evenodd;stroke:none"
         transform="matrix(0.13333333,0,0,-0.13333333,0,313.42667)" />
      <path
         id="path11"
         d="m 829.004,224.07 c 0,-46.191 0.293,-92.379 -0.27,-138.5505 -0.097,-8.3398 6.633,-21.5507 -11.914,-21.6484 -22.992,-0.1328 -36.914,7.4805 -37.172,24.1875 -0.543,34.7814 -0.8,69.6014 0.211,104.3634 0.457,15.719 -1.464,26.18 -20.644,22.898 -2.262,-0.379 -4.781,0.231 -7.102,0.739 -31,6.89 -31.023,6.902 -31.121,-24.559 -0.109,-32.988 -0.664,-66 0.047,-98.9687 0.289,-13.1094 -5.726,-15.793 -16.359,-13.6094 -7.586,1.5469 -14.832,5.2969 -22.43,6.0781 -8.598,0.8711 -10.828,4.5195 -10.801,12.5898 0.36,98.9692 0.563,197.9492 0.426,296.9222 -0.016,9.976 3.961,13.117 12.809,11.379 10.535,-2.063 21.023,-4.411 31.41,-7.121 7.562,-1.969 4.957,-8.68 4.984,-13.559 0.176,-32.402 1.027,-64.832 -0.387,-97.16 -0.773,-17.731 8.036,-23.199 22.723,-25.281 35.512,-5.008 36.281,-4.391 36.352,30.378 0.054,28.192 0.445,56.391 -0.047,84.582 -0.227,12.872 4.25,16.508 16.082,11.43 3.277,-1.398 7.019,-3.211 10.316,-2.832 25.578,2.942 24,-13.187 23.668,-30.887 -0.832,-43.781 -0.273,-87.582 -0.273,-131.371 -0.172,0 -0.336,0 -0.508,0"
         style="fill:#62c333;fill-opacity:1;fill-rule:evenodd;stroke:none"
         transform="matrix(0.13333333,0,0,-0.13333333,0,313.42667)" />
      <path
         id="path12"
         d="m 1118.93,197.469 c 0,51 0.48,101.992 -0.28,152.972 -0.25,16.938 7.68,22.739 21.89,18.52 25.93,-7.731 52.32,-6.371 78.53,-5.82 19.55,0.41 37.58,-7.762 56.89,-7.153 5.47,0.16 6.4,-3.347 7.17,-8.097 5.89,-36.692 -2.95,-44.95 -39.23,-35.551 -17.13,4.441 -34.5,3.101 -51.82,3.469 -8.08,0.171 -12.12,-2.809 -12.04,-11.52 0.23,-22.199 0.23,-44.398 -0.3,-66.578 -0.21,-8.871 3.4,-11.641 11.7,-11.16 20.51,1.187 39.86,-8.641 60.53,-6.602 6.11,0.61 8.7,-2.758 8.36,-8.679 -0.04,-0.59 -0.02,-1.2 0.04,-1.801 3.34,-37.43 2.63,-38.278 -34.5,-36.969 -10.78,0.379 -21.62,0.809 -32.28,2.281 -9.82,1.328 -14.67,-1.019 -14.6,-11.89 0.18,-25.192 -0.12,-50.391 -0.65,-75.5707 -0.17,-8.0703 1.95,-11.7695 10.95,-12 29.87,-0.7695 59.2,-9.1914 89.33,-6.7422 8.74,0.7032 10.88,-3.3164 11.34,-11.5781 2.03,-36.4297 1.73,-40.2617 -33.74,-35.0312 -41.81,6.1718 -83.39,5.3828 -125.12,6.3906 -11.92,0.289 -13.21,6.4492 -13.16,16.1289 0.29,50.9922 0.14,101.9917 0.14,152.9807 0.28,0 0.56,0 0.85,0"
         style="fill:#61c333;fill-opacity:1;fill-rule:evenodd;stroke:none"
         transform="matrix(0.13333333,0,0,-0.13333333,0,313.42667)" />
      <path
         id="path13"
         d="m 2702.25,214.211 c 0,25.199 -0.04,50.398 0.01,75.598 0.11,50.851 23.57,83.703 71.29,99.89 32.61,11.063 75.79,-20.301 78.52,-57.097 0.31,-4.18 1.26,-8.782 -0.01,-12.512 -2.96,-8.649 8.98,-23.168 -9.51,-25.738 -24.49,-3.403 -32.82,1.359 -38.1,21.359 -0.92,3.437 -0.99,7.078 -1.7,10.578 -1.61,7.973 -4.76,14.813 -13.46,17.332 -9.4,2.738 -17.83,1.027 -24.89,-5.82 -10.22,-9.91 -12.6,-22.653 -12.63,-36.192 -0.07,-51.589 -0.16,-103.179 -0.24,-154.777 0,-3.004 -0.26,-6.051 0.2,-8.992 2.05,-13.039 6.02,-25.629 21.99,-25.551 15.35,0.063 26.6,8.789 28.65,24.223 1.97,14.758 0.77,29.929 1.17,44.91 0.25,9.5 -4.64,12.207 -13.43,12.297 -5.72,0.051 -15.07,-3.75 -15.53,6.601 -0.47,10.16 -4.46,22.032 7.97,29.11 5.98,3.39 12.29,4.191 18.99,4.519 9.53,0.461 19.32,0.449 28.49,2.723 22.85,5.68 22.71,6.156 22.65,-18.094 -0.1,-41.398 -0.12,-82.797 -0.32,-124.1874 -0.03,-5.1211 1.9,-11.7109 -4.67,-14.1797 -6.79,-2.5625 -14.05,-0.7304 -17.52,5.4883 -8.73,15.6918 -15.65,7.6211 -24.25,-0.1289 -18.14,-16.3906 -39.01,-27.2305 -63.46,-16.4414 -25.49,11.25 -39.95,31.7501 -40.24,60.4921 -0.28,28.188 -0.06,56.399 -0.06,84.59 0.03,0 0.06,0 0.09,0"
         style="fill:#60c333;fill-opacity:1;fill-rule:evenodd;stroke:none"
         transform="matrix(0.13333333,0,0,-0.13333333,0,313.42667)" />
      <path
         id="path14"
         d="m 345.66,332.34 c -8.156,-8.031 -5.765,-14.309 -5.801,-19.86 -0.308,-47.359 -0.054,-94.718 -0.711,-142.082 -0.089,-6.808 6.071,-19.648 -7.765,-19.207 -11.52,0.36 -24.102,4.239 -26.582,19.278 -0.485,2.922 -0.176,5.98 -0.16,8.972 0.496,89.93 1.199,179.84 1.293,269.758 0.011,13.84 3.203,15.563 16.668,11.75 15.804,-4.461 23.261,-10.668 26.941,-28.129 9.543,-45.39 22.648,-90.031 34.613,-134.898 1.481,-5.543 1.981,-12.094 8.574,-15.512 7.84,3.719 4.938,11.11 4.985,16.961 0.316,41.359 -0.024,82.738 0.676,124.098 0.101,6.203 -5.934,18.89 6.996,17.761 10.851,-0.96 24.687,-3.101 27.601,-18.332 0.668,-3.468 0.239,-7.168 0.239,-10.769 -0.09,-88.117 -0.18,-176.258 -0.317,-264.391 -0.035,-20.84 0.227,-18.468 -19.703,-15.617 -31.973,4.57 -23.535,31.719 -28.773,49.328 -14.539,48.871 -25.649,98.781 -38.774,150.891"
         style="fill:#61c333;fill-opacity:1;fill-rule:evenodd;stroke:none"
         transform="matrix(0.13333333,0,0,-0.13333333,0,313.42667)" />
      <path
         id="path15"
         d="m 2951.41,281.32 c 0,-35.98 -0.4,-71.968 0.22,-107.941 0.23,-13.848 -1.83,-30.988 18.86,-32.899 15.67,-1.449 27.48,12.481 27.39,33.079 -0.33,72.5 9.19,144.711 6.25,217.261 -0.45,10.91 1.08,19.758 12.67,24.981 22.9,10.32 29.51,6.679 29.36,-17.852 -0.4,-65.969 -0.22,-131.949 -1.62,-197.898 -0.79,-36.512 -10.55,-69.492 -44.53,-90.731 -41.34,-25.8708 -93.99,-2.289 -95.04,46.059 -1.69,77.312 0.81,154.691 1.34,232.051 0.05,8.531 3.73,11.968 11.95,11.582 3.58,-0.153 7.21,-0.071 10.78,0.347 23.87,2.879 23.78,2.922 23.73,-20.871 -0.08,-32.386 -0.02,-64.777 -0.02,-97.16 -0.45,0 -0.89,-0.008 -1.34,-0.008"
         style="fill:#5fc234;fill-opacity:1;fill-rule:evenodd;stroke:none"
         transform="matrix(0.13333333,0,0,-0.13333333,0,313.42667)" />
      <path
         id="path16"
         d="m 477.504,278.738 c 2.918,30.512 -4.422,67.883 6.082,104.453 10.059,35.028 42.766,50.938 76.883,37.957 46.926,-17.847 62.761,-65.218 59.683,-104.039 -0.234,-2.98 -0.429,-5.73 -3.464,-7.609 -16.665,-10.32 -42.977,3.09 -44.122,22.469 -0.523,8.961 -0.07,18.281 -2.503,26.73 -3.739,12.973 -12.215,22.422 -27.336,20.832 -13.786,-1.441 -16.536,-11.793 -16.664,-23.519 -0.641,-58.75 -1.969,-117.492 -1.653,-176.223 0.137,-24.91 9.07,-32.867 28.281,-32.539 11.914,0.211 17.657,5.762 18.102,17.219 0.469,11.992 0.5,23.98 1.004,35.953 0.144,3.469 0.312,7.547 2.141,10.199 2.601,3.77 44.25,-6.562 45.82,-10.941 9.496,-26.59 -5.242,-71.11 -27.828,-87.981 -24.004,-17.9177 -47.871,-13.0701 -70.364,0.582 -27.738,16.821 -43.363,42.391 -43.961,75.539 -0.5,28.18 -0.101,56.36 -0.101,90.918"
         style="fill:#60c333;fill-opacity:1;fill-rule:evenodd;stroke:none"
         transform="matrix(0.13333333,0,0,-0.13333333,0,313.42667)" />
      <path
         id="path17"
         d="M 92.082,417.359 C 90.1172,411.23 87.9453,398.738 87.7695,395.109 85.4531,347.301 74.9844,300.5 69.082,253.129 c -0.7148,-5.707 0.0391,-15.481 -8.8867,-14.981 -8.4375,0.473 -7.0508,9.411 -8.1015,15.813 -10.4922,63.73 -15.379,128.059 -21.4688,192.277 -0.4844,5.09 1.2344,10.84 -6.9805,18.032 3.7735,-31.879 0.7774,-60.45 -0.2461,-89.09 -1.3086,-36.559 -0.457,-73.2 -0.5078,-109.789 -0.0078,-7.352 0.8789,-14.539 -10.4922,-14.301 -11.24215,0.23 -10.29684,7.469 -10.28902,14.762 0.12109,88.199 0.41015,176.398 0.16406,264.597 -0.03125,12.91 3.23828,14.582 15.69926,11.25 24.6601,-6.59 24.4843,-25.16 26.3281,-44.668 4.375,-46.312 9.9414,-92.511 16.5078,-138.812 7.8477,26.332 8.9219,53.711 12.3984,80.41 2.9258,22.449 9.4063,44.531 9.211,67.422 -0.0235,3.187 -0.3633,7.14 4.5039,8.558 10.0273,2.911 36.7301,-15.859 36.7381,-26.937 0.086,-87 -0.269,-174.012 -0.097,-261 0.023,-10.32 -4.872,-11.41 -13.29,-11.652 -10.9566,-0.321 -14.7066,3.878 -14.5894,14.761 0.4687,43.797 0.293,87.59 0.3125,131.391 0.0039,7.797 1.2031,15.359 1.0977,23.156 1.3593,17.813 -1,37.32 0.6562,57.422 -2.1289,-9.012 -4.0937,-11.172 -5.668,-24.391"
         style="fill:#60c334;fill-opacity:1;fill-rule:evenodd;stroke:none"
         transform="matrix(0.13333333,0,0,-0.13333333,0,313.42667)" />
      <path
         id="path18"
         d="m 160.191,362.52 c 0.008,38.359 -0.253,76.718 0.293,115.082 0.082,5.898 -5.187,17.168 6.188,16.886 9.855,-0.218 22.719,-1.109 25.598,-15.039 1.199,-5.777 0.832,-11.91 1.015,-17.879 1.969,-63.5 -4.168,-126.808 -4.816,-190.25 -0.133,-12.89 2.836,-24.781 7.039,-36.75 3.187,-9.09 8.961,-14.871 18.258,-14.101 10.492,0.89 13.246,10.25 12.929,18.601 -1.226,32.43 6.789,64.149 5.711,96.649 -1.332,40.109 -0.187,80.312 0.012,120.461 0.039,7.468 -1.945,17.711 10.551,15.789 10.199,-1.559 25.043,3.961 24.719,-16.699 -1.118,-70.098 -0.942,-140.231 -1.247,-210.36 -0.054,-12.691 -2.285,-25.012 -6.8,-36.859 -11.328,-29.75 -35.403,-38.672 -62.844,-22.172 -22.859,13.742 -36.676,33.723 -36.637,61.562 0.059,38.36 0.016,76.719 0.031,115.079"
         style="fill:#61c333;fill-opacity:1;fill-rule:evenodd;stroke:none"
         transform="matrix(0.13333333,0,0,-0.13333333,0,313.42667)" />
      <path
         id="path19"
         d="m 3426.15,383.57 c 5.77,-32.101 4.93,-34.929 -22.56,-47.609 -9.6,-4.43 -13.84,-9.75 -13.59,-20.199 0.43,-17.973 0.68,-35.992 -0.36,-53.91 -0.88,-15.172 6.06,-16 17.39,-11.801 8.93,3.32 17.9,6.558 26.85,9.828 2.7,0.992 5.37,2.66 7.88,-0.52 6.13,-7.781 -1.17,-35.621 -11.26,-39.418 -19.03,-7.179 -38.39,-13.511 -57.75,-19.761 -10.61,-3.43 -15.56,0.672 -15.46,12.23 0.74,82.692 1.33,165.371 1.59,248.059 0.04,11.179 3.96,17.98 14.79,21.312 14.77,4.547 29.34,9.789 44.03,14.617 7.96,2.614 18.86,10.532 23.04,-0.808 4.05,-10.988 4.99,-25.809 -9.47,-33.031 -8.47,-4.239 -17.72,-8.137 -26.99,-9.289 -11.43,-1.399 -13.57,-7.93 -13.68,-17.032 -0.18,-14.379 0.98,-28.879 -0.46,-43.109 -1.72,-16.93 5.59,-19.688 19.45,-15.277 5.53,1.757 10.98,3.777 16.56,5.718"
         style="fill:#61c335;fill-opacity:1;fill-rule:evenodd;stroke:none"
         transform="matrix(0.13333333,0,0,-0.13333333,0,313.42667)" />
      <path
         id="path20"
         d="m 2239.17,1179.32 c 15.43,11.03 33.8,17.25 48.16,30.17 8.09,7.29 15.55,3.27 21.35,-4.18 6.58,-8.46 12.3,-17.63 19.35,-25.67 10.59,-12.1 23.27,-20.46 40.61,-17.22 0.89,-4.07 1.56,-8.21 2.7,-12.2 13.55,-47.25 13.49,-47.19 -17.31,-84.29 -27.04,-32.59 -25.35,-34.58 -47.31,3.86 -21.27,37.22 -44.93,73.07 -67.55,109.53"
         style="fill:#facf19;fill-opacity:1;fill-rule:evenodd;stroke:none"
         transform="matrix(0.13333333,0,0,-0.13333333,0,313.42667)" />
      <path
         id="path21"
         d="m 3271.02,293.398 c 0,35.993 -0.4,71.981 0.22,107.961 0.23,13.313 -3.87,16.969 -16.98,13.821 -5.73,-1.379 -13.04,-10.192 -18.61,-0.809 -5.64,9.5 0.97,32.688 10.29,36.688 10.9,4.66 22.24,8.941 33.82,11.293 17,3.457 33.44,8.32 49.56,14.558 3.28,1.27 6.86,2.289 9.57,-1.558 7.45,-10.59 -1.61,-38.461 -15.11,-41.133 -15.86,-3.129 -18.46,-11.297 -18.42,-25.891 0.21,-69.566 -0.82,-139.137 -1.42,-208.699 -0.05,-6.59 1,-13.777 -3.18,-19.168 -6.01,-7.75 -15.09,-10.063 -24.3,-8.012 -9.59,2.141 -5.51,10.813 -5.57,16.59 -0.39,34.781 -0.19,69.57 -0.19,104.359 0.11,0 0.21,0 0.32,0"
         style="fill:#60c334;fill-opacity:1;fill-rule:evenodd;stroke:none"
         transform="matrix(0.13333333,0,0,-0.13333333,0,313.42667)" />
      <path
         id="path22"
         d="m 498.035,843.191 c -12.269,-10.082 -15.203,-26.16 -24.504,-38.363 -6.785,-8.887 -14.523,-12.719 -24.586,-15.789 -33.636,-10.25 -68.91,-4.187 -102.847,-11.199 -6.446,-1.328 -13.246,-1.578 -18.754,-5.141 -24.977,-16.16 -52.727,-24.558 -81.606,-29.847 -8.511,-1.551 -17.238,-4.922 -25.093,2.91 -5.684,5.668 -12.907,0.879 -15.895,-2.352 C 191.527,729.102 173.977,729.121 157.051,726.781 136.996,724 116.91,721.449 96.8047,719 76.2852,716.5 65.1797,698.559 48.5078,689.738 c -5.7695,-3.047 -10.5,-8.109 -16.3398,-10.937 -8,-3.871 -17.3203,-8.59 -23.60941,2.238 -3.82812,6.59 -12.8125,13.152 -6.19921,21.949 7.20703,9.59 18.12502,9.731 27.14452,3.633 5.6719,-3.84 7.1524,-1.07 11.4922,1.07 45.4844,22.43 89.0859,49.239 142.1799,52.149 44.613,2.441 88.347,11.25 129.273,30.398 17.703,8.282 36.735,11.274 55.625,11.981 27.668,1.051 53.922,9.551 81.145,12.41 18.199,1.902 25.195,18.609 37.613,28.16 3.691,1.371 7.078,11.191 11.203,0.402"
         style="fill:#0b0b0c;fill-opacity:1;fill-rule:evenodd;stroke:none"
         transform="matrix(0.13333333,0,0,-0.13333333,0,313.42667)" />
      <path
         id="path23"
         d="m 2010.02,2070.01 c -35.07,-0.06 -64.34,42.03 -50.47,73.55 6.57,14.95 10.93,33.73 29.75,37.74 28.85,6.16 57.15,3.93 80.13,-17.69 9.59,-9.03 8.25,-20.76 2.79,-31.47 -10.99,-21.58 -27.61,-38.98 -43.84,-56.57 -4.91,-5.32 -11.69,-5.52 -18.36,-5.56"
         style="fill:#070708;fill-opacity:1;fill-rule:evenodd;stroke:none"
         transform="matrix(0.13333333,0,0,-0.13333333,0,313.42667)" />
      <path
         id="path24"
         d="m 3465.74,370.73 c 0,37.809 -0.02,75.598 0.03,113.399 0.01,4.793 -0.42,9.793 0.76,14.32 2.56,9.781 10.11,15.742 19.6,15.449 11.8,-0.367 6.61,-10.957 6.61,-16.789 -0.02,-66 -0.41,-131.98 -1.23,-197.968 -0.16,-12.61 2.29,-18.879 16.11,-12.782 6.64,2.93 15.7,10.86 20.21,1.672 4.46,-9.09 5.24,-23.101 -4.45,-29.972 -14.5,-10.297 -31.77,-16.438 -49.06,-20.868 -10.49,-2.691 -8.97,6.668 -8.99,12.957 -0.09,40.192 -0.04,80.391 -0.04,120.582 0.14,0 0.3,0 0.45,0"
         style="fill:#65c436;fill-opacity:1;fill-rule:evenodd;stroke:none"
         transform="matrix(0.13333333,0,0,-0.13333333,0,313.42667)" />
      <path
         id="path25"
         d="m 512.484,879.012 c 9.446,16.488 20.399,22.898 42.473,23.418 36.535,0.871 73.641,-3 110.371,6.269 31.969,8.09 64.871,13.59 98.852,6.949 14.023,-2.75 29.554,2.032 44.375,3.653 8.015,0.879 8.258,7.121 5.539,11.969 -22.063,39.429 -5.699,80.15 -4.477,120.5 -0.008,-39.93 22.59,-75.629 20.418,-115.961 -1.597,-29.59 -13.426,-38.797 -43.094,-37.278 -39.191,2.008 -78.601,2.188 -117.296,-7.011 -4.016,-0.942 -8.235,-1.489 -12.356,-1.469 -42.086,0.238 -83.113,-10.332 -125.008,-12.379 -5.5,-0.281 -10.711,-6.461 -16.051,-9.91 -8.156,1.449 -5.527,6.488 -3.746,11.25"
         style="fill:#0b0a0b;fill-opacity:1;fill-rule:evenodd;stroke:none"
         transform="matrix(0.13333333,0,0,-0.13333333,0,313.42667)" />
      <path
         id="path26"
         d="m 822.465,1382.47 c 5.812,4.72 2.051,11.35 3.398,16.96 5.625,-4.62 3.309,-11.11 3.535,-16.75 0.54,-13.19 0.868,-26.41 0.368,-39.58 -1.5,-39.68 1.949,-78.8 -12.106,-118.54 -12.109,-34.27 -9.824,-73.15 -9.754,-110.31 0.016,-7.74 0,-15.47 -1.242,-23.23 -7.539,36.55 -10.226,73.44 -2.09,110.08 13.281,59.81 19.512,120.17 17.891,181.37"
         style="fill:#1f1e24;fill-opacity:1;fill-rule:evenodd;stroke:none"
         transform="matrix(0.13333333,0,0,-0.13333333,0,313.42667)" />
      <path
         id="path27"
         d="m 2293.33,380.441 c -23.41,0.039 -23.41,0.039 -23.36,22.571 0.04,23.699 1,23.558 33.23,24.41 21.61,0.566 16.13,-14.082 16.32,-25.512 0.37,-21.5 0.07,-21.5 -26.19,-21.469"
         style="fill:#60c236;fill-opacity:1;fill-rule:evenodd;stroke:none"
         transform="matrix(0.13333333,0,0,-0.13333333,0,313.42667)" />
      <path
         id="path28"
         d="m 2372.71,380.441 c -23.42,0.039 -23.42,0.039 -23.37,22.571 0.05,23.699 1.01,23.558 33.23,24.41 21.61,0.566 16.14,-14.082 16.32,-25.512 0.37,-21.5 0.08,-21.5 -26.18,-21.469"
         style="fill:#60c236;fill-opacity:1;fill-rule:evenodd;stroke:none"
         transform="matrix(0.13333333,0,0,-0.13333333,0,313.42667)" />
      <path
         id="path29"
         d="m 3025.12,463.641 c 0,-25.121 -0.6,-24.86 -24.13,-25.813 -13.49,-0.527 -14.25,5.832 -14.04,16.231 0.46,23.179 7.38,31.632 27.54,31.691 10.63,0.039 10.63,0.039 10.63,-22.109"
         style="fill:#5fc237;fill-opacity:1;fill-rule:evenodd;stroke:none"
         transform="matrix(0.13333333,0,0,-0.13333333,0,313.42667)" />
      <path
         id="path30"
         d="m 2970.12,458.859 c 0,-25.129 -0.6,-24.859 -24.13,-25.808 -13.49,-0.539 -14.25,5.828 -14.04,16.23 0.46,23.168 7.38,31.629 27.54,31.688 10.63,0.043 10.63,0.043 10.63,-22.11"
         style="fill:#5fc237;fill-opacity:1;fill-rule:evenodd;stroke:none"
         transform="matrix(0.13333333,0,0,-0.13333333,0,313.42667)" />
      <path
         id="path31"
         d="m 218.695,525.77 c 3.129,5.57 -7.113,19.75 11.344,18.41 16.93,-1.239 21.703,-6.711 20.824,-29.68 -0.211,-5.48 6.106,-15.949 -6.328,-16.441 -18.949,-0.739 -25.937,6.921 -25.84,27.711"
         style="fill:#73c941;fill-opacity:1;fill-rule:evenodd;stroke:none"
         transform="matrix(0.13333333,0,0,-0.13333333,0,313.42667)" />
      <path
         id="path32"
         d="m 203.031,528.031 c -2.843,-4.519 4.996,-16.203 -5.254,-16.051 -10.183,0.168 -23.379,3.231 -23.5,18.969 -0.023,2.981 -0.875,6.231 0.043,8.879 2.219,6.371 -6.675,18.602 8.399,18.313 12.363,-0.243 19.847,-6.961 20.301,-20 0.101,-2.969 0.011,-5.95 0.011,-10.11"
         style="fill:#6cc740;fill-opacity:1;fill-rule:evenodd;stroke:none"
         transform="matrix(0.13333333,0,0,-0.13333333,0,313.42667)" />
      <path
         id="path33"
         d="m 512.484,879.012 c 0.575,-3.973 -0.468,-8.481 3.746,-11.25 -3.812,-9.852 -9.886,-18.032 -18.187,-24.571 -3.918,4.707 -7.453,-1 -11.211,-0.402 6.969,13.199 15.672,25.16 25.652,36.223"
         style="fill:#302f36;fill-opacity:1;fill-rule:evenodd;stroke:none"
         transform="matrix(0.13333333,0,0,-0.13333333,0,313.42667)" />
      <path
         id="path34"
         d="m 1005.41,53.4688 c 15.35,-11.5196 33.47,-9.1368 50.9,-10.168 -25.36,-7.7422 -42.98,-4.2227 -50.9,10.168"
         style="fill:#a4dc83;fill-opacity:1;fill-rule:evenodd;stroke:none"
         transform="matrix(0.13333333,0,0,-0.13333333,0,313.42667)" />
      <path
         id="path35"
         d="m 1894.64,312.98 c -10.64,8.411 -20.45,17.641 -28.37,28.731 14.83,-4.281 23.64,-14.492 28.37,-28.731"
         style="fill:#97d673;fill-opacity:1;fill-rule:evenodd;stroke:none"
         transform="matrix(0.13333333,0,0,-0.13333333,0,313.42667)" />
      <path
         id="path36"
         d="m 1475.18,215.301 c -3.9,-8.051 -12.37,-9.961 -21.32,-10.672 -44.4,-3.539 -44.38,-3.731 -44.15,39.281 0.02,4.199 0,8.399 0,12.59 0.11,0 0.22,0 0.33,0 0,13.191 0.23,26.391 -0.07,39.57 -0.25,10.43 3.47,15.711 14.77,14.5 19.72,-2.121 41.78,2.328 53.17,-21.07 12.32,-25.289 8.93,-50.07 -2.73,-74.199 z m 77.47,-196.5315 c -15.12,42.0821 -29.17,84.5505 -43.48,126.9105 -2.77,8.218 -8.05,17.14 1.77,24.242 32.83,23.75 39.44,57.707 38.31,95.219 -1.23,41.168 -24.04,71.949 -62.99,84.019 -40.54,12.559 -83.32,3.75 -124.19,13.328 -14.16,3.321 -18.63,-3.34 -18.43,-17.558 0.7,-52.129 0.27,-104.258 0.27,-156.399 -0.7,0 -1.41,0 -2.11,0 0,-42.562 0.12,-85.109 -0.03,-127.6716 -0.17,-47.5391 -0.27,-47.0313 46.54,-47.3906 13.31,-0.1094 17.62,3.3515 17.31,17.0312 -0.84,37.1406 -0.24,74.32 0.01,111.469 0.03,5.043 -2.02,11.031 4.02,14.59 11.46,6.761 34.74,-1.418 39.01,-14.161 10.24,-30.566 20.05,-61.2886 30.23,-91.8785 14.87,-44.71091 14.94,-44.67966 63.13,-43.73825 0.6,0.00781 1.2,0.02734 1.8,-0.01953 9.47,-0.78125 12.75,1.11719 8.83,12.00778"
         style="fill:#60c333;fill-opacity:1;fill-rule:nonzero;stroke:none"
         transform="matrix(0.13333333,0,0,-0.13333333,0,313.42667)" />
      <path
         id="path37"
         d="m 2111.24,221.27 c -2.61,-14.098 -13.2,-21.02 -26.35,-23.02 -39.59,-5.988 -39.96,-5.461 -40.04,34.02 -0.01,5.39 0,10.781 0,16.179 0.08,0 0.16,0 0.25,0 0,7.781 -1.54,15.981 0.37,23.281 2.66,10.2 -10.38,27.258 11.4,29.731 35.87,4.059 50.55,-3.422 55.51,-26.711 3.83,-18 2.14,-35.801 -1.14,-53.48 z m 67.92,-189.7505 c -14.26,39.7188 -26.9,80.0115 -40.02,120.1405 -2,6.102 -4.74,12.36 1.88,18.07 30.35,26.18 35.92,60.36 35.53,98.622 -0.43,42.148 -32.32,78.25 -79.73,79.828 -32.91,1.109 -65.91,-0.68 -98.86,-0.25 -12.67,0.172 -16.33,-4.399 -16.2,-16.789 0.59,-50.922 0.26,-101.86 0.26,-152.801 -0.14,0 -0.28,0 -0.41,0 0,-46.141 0.01,-92.2697 0,-138.4181 0,-33.95315 -0.01,-33.95315 34.67,-33.06252 22.79,0.57031 26.77,4.49222 27.1,27.81252 0.46,32.9492 0.62,65.9101 0.99,98.8591 0.09,7.649 -1.27,17.828 10.53,16.34 9.88,-1.242 23.77,8.981 28.64,-10.949 6.91,-28.32 16.69,-55.9728 25.55,-83.8009 13.46,-42.3516 13.57,-41.8203 58.66,-41.5703 15.56,0.0781 16.25,4.4883 11.41,17.9687"
         style="fill:#60c333;fill-opacity:1;fill-rule:nonzero;stroke:none"
         transform="matrix(0.13333333,0,0,-0.13333333,0,313.42667)" />
      <path
         id="path38"
         d="m 3170.5,327.859 c -2.63,-15.738 -16.88,-27.757 -32.12,-28.539 -8.12,-0.422 -8.51,4.41 -8.43,10.18 l 0.98,73.488 c 0.09,12.633 8.97,12.66 17.41,12.09 8.42,-0.578 20.45,5.371 22.13,-10.258 1.03,-9.48 2.24,-18.929 3.4,-28.672 -1.09,-9.378 -1.79,-18.898 -3.37,-28.289 z m 39.47,-146.078 c -5.75,29.18 -12.91,58.129 -21.22,86.688 -2.71,9.34 -1.31,16.582 3.29,23.39 20.35,30.071 22.34,63.762 19.93,98.231 -2.11,30.211 -20.07,44.851 -50.36,45.898 -19.09,0.653 -36.19,-8.179 -54.68,-8.027 -12.45,0.098 -16.53,-4.402 -16.36,-16.922 0.65,-44.34 0.26,-88.687 0.26,-133.039 -0.13,0 -0.26,0 -0.39,0 0,-44.359 0.4,-88.711 -0.25,-133.051 -0.19,-12.437 3.34,-17.187 16.14,-16.289 11.59,0.828 20.66,0.539 20,17.129 -1.22,31.109 0,62.32 -0.19,93.481 -0.07,10.64 1.64,19.218 14.31,20.671 13.2,1.52 13.51,-7.992 15.37,-17.07 4.75,-23.312 9.78,-46.57 15.3,-69.711 4.63,-19.441 16.98,-28.48 33.84,-22.101 15.87,6 6.97,20.773 5.01,30.722"
         style="fill:#5fc233;fill-opacity:1;fill-rule:nonzero;stroke:none"
         transform="matrix(0.13333333,0,0,-0.13333333,0,313.42667)" />
    </g>
  </g>
</svg>
